<svg xmlns="http://www.w3.org/2000/svg" viewBox="0 0 100 100"><defs/><defs><linearGradient id="a" x1="0" x2="1" y1="1" y2="0"><stop offset="0%" stop-color="#B0084D"/><stop offset="100%" stop-color="#FF4F8B"/></linearGradient></defs><g><path fill="url(#a)" fill-rule="evenodd" d="m 0,0 h 100 v 100 h -100 z"/><path fill="#fff" fill-rule="evenodd" d="m 61.502,55 h -2.5 v 3.75 h -3.75 v 2.5 h 3.75 v 3.75 h 2.5 v -3.75 h 3.75 v -2.5 h -3.75 z m -11.25,23.75 h 12.5 v -2.5 h -12.5 z m 20,-50 h 10 v -10 h -10 z m 12.5,-11.25 v 12.5 c 0,0.69 -0.559,1.25 -1.25,1.25 h -12.5 c -0.691,0 -1.25,-0.56 -1.25,-1.25 v -12.5 c 0,-0.69 0.559,-1.25 1.25,-1.25 h 12.5 c 0.691,0 1.25,0.56 1.25,1.25 z m -21.976,23.225 -2.525,-2.525 -4.304,4.302 2.527,2.525 z m -6.07,6.07 -2.526,-2.524 -32.913,32.911 2.525,2.525 z m 8.721,-5.186 -40.751,40.75 c -0.244,0.245 -0.564,0.366 -0.884,0.366 -0.319,0 -0.639,-0.121 -0.883,-0.366 l -4.293,-4.293 c -0.235,-0.234 -0.366,-0.552 -0.366,-0.884 0,-0.331 0.131,-0.649 0.366,-0.883 l 40.751,-40.752 c 0.235,-0.235 0.552,-0.366 0.884,-0.366 0.333,0 0.65,0.131 0.884,0.367 l 4.292,4.293 c 0.489,0.488 0.489,1.279 0,1.768 z m 6.825,7.141 h 10 v -10 h -10 z m 12.5,-11.25 v 12.5 c 0,0.69 -0.559,1.25 -1.25,1.25 h -12.5 c -0.691,0 -1.25,-0.56 -1.25,-1.25 v -12.5 c 0,-0.69 0.559,-1.25 1.25,-1.25 h 12.5 c 0.691,0 1.25,0.56 1.25,1.25 z m -6.25,33.75 h -2.5 v 5 h -5 v 2.5 h 5 v 5 h 2.5 v -5 h 5 v -2.5 h -5 z m -60,-46.25 h 8.75 v -2.5 h -8.75 z m 33.75,3.75 h 10 v -10 h -10 z m -2.5,1.25 v -12.5 c 0,-0.69 0.559,-1.25 1.25,-1.25 h 12.5 c 0.691,0 1.25,0.56 1.25,1.25 v 12.5 c 0,0.69 -0.559,1.25 -1.25,1.25 h -12.5 c -0.691,0 -1.25,-0.56 -1.25,-1.25 z m -12.5,16.25 v -3.75 h 3.75 v -2.5 h -3.75 v -3.75 h -2.5 v 3.75 h -3.75 v 2.5 h 3.75 v 3.75 z m -7.5,-21.25 h 7.5 v -2.5 h -7.5 z"/></g></svg>