<svg xmlns="http://www.w3.org/2000/svg" viewBox="0 0 100 100"><defs/><defs><linearGradient id="a" x1="0" x2="1" y1="1" y2="0"><stop offset="0%" stop-color="#4D27A8"/><stop offset="100%" stop-color="#A166FF"/></linearGradient></defs><g><path fill="url(#a)" fill-rule="evenodd" d="m 0,0 h 100 v 100 h -100 z"/><path fill="#fff" fill-rule="evenodd" d="m 76.25,51.715 -6.875,-2.75 v 24.938 c 2.008,-0.2 3.626,-0.86 4.776,-2.027 2.125,-2.16 2.1,-5.326 2.099,-5.358 z m -9.375,22.205 v -24.955 l -6.875,2.75 v 14.778 c 0.009,0.259 0.293,6.696 6.875,7.427 z m 11.875,-7.427 c 0.004,0.141 0.066,4.184 -2.794,7.113 -1.87,1.916 -4.506,2.887 -7.831,2.887 -8.216,0 -10.544,-6.522 -10.625,-9.97 v -15.655 c 0,-0.511 0.311,-0.971 0.786,-1.161 l 9.375,-3.75 c 0.297,-0.119 0.63,-0.119 0.928,0 l 9.375,3.75 c 0.475,0.19 0.786,0.65 0.786,1.161 z m 3.751,-2.457 -0.001,-16.696 -14.375,-5.75 -14.375,5.75 v 16.653 c -0.003,0.114 -0.169,7.785 4.417,12.505 2.415,2.485 5.765,3.745 9.958,3.745 4.221,0 7.588,-1.269 10.005,-3.77 4.58,-4.74 4.374,-12.361 4.371,-12.437 z m -2.574,14.174 c -2.906,3.009 -6.877,4.534 -11.802,4.533 -4.901,0 -8.859,-1.52 -11.763,-4.517 -5.324,-5.491 -5.124,-13.916 -5.112,-14.271 v -17.462 c 0,-0.511 0.311,-0.971 0.786,-1.161 l 15.625,-6.25 c 0.297,-0.119 0.63,-0.119 0.928,0 l 15.625,6.25 c 0.475,0.19 0.786,0.65 0.786,1.161 v 17.5 c 0.011,0.313 0.236,8.723 -5.073,14.217 z m -51.108,-19.217 h 18.681 v 2.5 h -18.681 c -7.598,0 -13.398,-5.065 -13.789,-12.043 -0.027,-0.285 -0.03,-0.617 -0.03,-0.95 0,-8.586 6.004,-11.748 9.505,-12.86 -0.025,-0.401 -0.037,-0.807 -0.038,-1.217 0,-6.816 4.862,-13.947 11.309,-16.587 7.57,-3.1 15.551,-1.599 21.343,4.009 1.951,1.901 3.439,3.931 4.515,6.167 1.507,-1.294 3.327,-1.989 5.277,-1.989 4.131,0 8.501,3.243 9.253,9.454 2.729,0.688 6.154,2.147 8.571,5.248 l -1.97,1.537 c -2.228,-2.857 -5.589,-4.048 -8.015,-4.545 -0.556,-0.112 -0.965,-0.585 -0.997,-1.15 -0.326,-5.526 -3.775,-8.044 -6.842,-8.044 -1.827,0 -3.447,0.862 -4.686,2.494 -0.276,0.365 -0.726,0.554 -1.181,0.481 -0.451,-0.069 -0.831,-0.378 -0.988,-0.806 -0.959,-2.612 -2.489,-4.92 -4.678,-7.054 -5.055,-4.892 -12.032,-6.199 -18.654,-3.488 -5.561,2.278 -9.756,8.414 -9.756,14.273 0,0.676 0.039,1.345 0.117,1.987 0.076,0.626 -0.329,1.211 -0.941,1.363 -3.228,0.799 -8.644,3.256 -8.644,10.727 0,0.252 -0.003,0.506 0.023,0.76 0.318,5.66 5.068,9.734 11.296,9.733 z"/></g></svg>