<svg xmlns="http://www.w3.org/2000/svg" viewBox="0 0 100 100"><defs/><defs><linearGradient id="a" x1="0" x2="1" y1="1" y2="0"><stop offset="0%" stop-color="#BD0816"/><stop offset="100%" stop-color="#FF5252"/></linearGradient></defs><g><path fill="url(#a)" fill-rule="evenodd" d="m 0,0 h 100 v 100 h -100 z"/><path fill="#fff" fill-rule="evenodd" d="m 38.441,51.87 h 13.75 v -2.49 h -13.75 z m 0,-6.223 h 26.25 v -2.49 h -26.25 z m 0,-6.224 h 22.5 v -2.489 h -22.5 z m 11.559,-20.684 c -14.474,0 -26.25,11.724 -26.25,26.137 0,10.508 6.29,19.956 16.024,24.071 0.734,0.309 1.097,0.945 1.082,1.889 l -0.001,11.331 4.88,-1.198 c 17.676,-4.54 30.515,-19.721 30.515,-36.093 0,-14.413 -11.776,-26.137 -26.25,-26.137 z m -10.395,66.261 c -0.278,0 -0.549,-0.092 -0.771,-0.265 -0.302,-0.235 -0.479,-0.597 -0.479,-0.98 v -12.708 c -10.408,-4.604 -17.105,-14.823 -17.105,-26.171 0,-15.784 12.896,-28.626 28.75,-28.626 15.854,0 28.75,12.842 28.75,28.626 0,17.489 -13.627,33.683 -32.404,38.506 l -6.442,1.582 c -0.099,0.024 -0.199,0.036 -0.299,0.036 z m 10.249,-59.249 c -10.529,0.077 -19.101,8.685 -19.102,19.186 0,6.838 3.981,13.243 10.653,17.135 0.963,0.558 3.531,2.37 3.64,2.445 1.885,1.423 3.009,3.626 3.2,6.227 l 0.002,2.258 c 12.364,-3.969 21.18,-15.195 21.18,-27.263 0,-1.849 -0.25,-3.683 -0.745,-5.452 -0.041,-0.175 -0.077,-0.289 -0.115,-0.407 -2.174,-7.789 -8.953,-13.387 -16.903,-14.05 l -0.187,-0.009 c -0.451,-0.024 -1.338,-0.07 -1.623,-0.07 z m -2.855,50.157 c -0.273,0 -0.541,-0.088 -0.763,-0.258 -0.307,-0.235 -0.488,-0.6 -0.487,-0.987 v -3.828 c -0.135,-1.787 -0.91,-3.351 -2.182,-4.31 -0.684,-0.482 -2.701,-1.886 -3.423,-2.304 -7.447,-4.345 -11.891,-11.554 -11.892,-19.284 0,-11.864 9.686,-21.588 21.592,-21.675 0.32,0 1.276,0.049 1.761,0.074 l 0.224,0.01 c 9.033,0.753 16.695,7.082 19.111,15.751 0.07,0.218 0.124,0.392 0.166,0.578 0.54,1.93 0.821,3.989 0.821,6.064 0,13.682 -10.349,26.353 -24.608,30.128 -0.105,0.027 -0.213,0.041 -0.32,0.041 z"/></g></svg>