<svg xmlns="http://www.w3.org/2000/svg" viewBox="0 0 100 100"><defs/><defs><linearGradient id="a" x1="0" x2="1" y1="1" y2="0"><stop offset="0%" stop-color="#055F4E"/><stop offset="100%" stop-color="#56C0A7"/></linearGradient></defs><g><path fill="url(#a)" fill-rule="evenodd" d="m 0,0 h 100 v 100 h -100 z"/><path fill="#fff" fill-rule="evenodd" d="m 74.615,43.737 c -0.547,-4.726 -3.029,-8.15 -6.739,-9.235 -2.716,-0.792 -5.566,-0.128 -7.715,1.698 -1.135,-2.566 -2.621,-4.78 -4.439,-6.604 -5.815,-5.833 -13.771,-7.414 -21.28,-4.233 -6.409,2.714 -11.24,10.206 -11.24,17.429 0,0.431 0.014,0.862 0.042,1.291 -3.494,1.145 -9.494,4.404 -9.494,13.254 0,0.471 0.018,0.927 0.052,1.371 0.539,6.884 3.83,11.416 9.029,12.435 l 0.481,-2.453 c -5.496,-1.076 -6.756,-6.837 -7.017,-10.175 -0.03,-0.38 -0.045,-0.772 -0.045,-1.178 0,-7.706 5.339,-10.27 8.575,-11.115 0.578,-0.114 1.009,-0.624 1.009,-1.229 0,-0.061 -0.005,-0.122 -0.014,-0.182 -0.079,-0.661 -0.117,-1.34 -0.117,-2.019 0,-6.175 4.268,-12.82 9.714,-15.126 9.421,-3.991 16.099,1.254 18.535,3.696 1.98,1.986 3.525,4.524 4.594,7.544 0.154,0.435 0.535,0.751 0.993,0.82 0.451,0.068 0.915,-0.124 1.191,-0.494 1.554,-2.106 4.086,-3.019 6.445,-2.33 2.839,0.83 4.705,3.696 5.011,7.68 l -0.001,0.006 c -0.099,0.671 0.356,1.299 1.025,1.414 3.094,0.531 10.289,2.71 10.289,11.443 0,10.408 -10.069,11.394 -10.393,11.425 h -16.699 l -0.002,2.487 16.801,0.009 c 0.129,-0.01 12.793,-1.188 12.793,-13.921 0,-9.902 -7.764,-12.866 -11.384,-13.708 z m -30.709,20.133 h 2.5 v -11.25 h -11.25 v 2.5 h 7.114 l -16.776,17.895 1.823,1.711 16.589,-17.695 z m 21.25,-11.974 -22.844,24.084 -1.813,-1.72 22.896,-24.14 h -11.989 v -2.5 h 16.25 v 16.25 h -2.5 z"/></g></svg>