<svg xmlns="http://www.w3.org/2000/svg" viewBox="0 0 100 100"><defs/><defs><linearGradient id="a" x1="0" x2="1" y1="1" y2="0"><stop offset="0%" stop-color="#4D27A8"/><stop offset="100%" stop-color="#A166FF"/></linearGradient></defs><g><path fill="url(#a)" fill-rule="evenodd" d="m 0,0 h 100 v 100 h -100 z"/><path fill="#fff" fill-rule="evenodd" d="m 60.865,50.849 c 0.924,0.854 1.386,1.998 1.386,3.435 0,1.563 -0.563,2.811 -1.686,3.744 -1.125,0.934 -2.636,1.401 -4.532,1.401 -1.499,0 -2.982,-0.32 -4.45,-0.958 v -1.914 c 1.739,0.575 3.221,0.862 4.45,0.861 1.212,0 2.145,-0.271 2.798,-0.813 0.654,-0.543 0.98,-1.317 0.98,-2.321 0,-1.931 -1.219,-2.896 -3.66,-2.896 -0.765,0 -1.522,0.04 -2.272,0.119 v -1.578 l 5.025,-5.481 h -7.082 v -1.962 h 9.737 v 1.891 l -4.929,5.217 c 0.081,-0.016 0.159,-0.024 0.24,-0.024 h 0.239 c 1.58,0 2.831,0.426 3.756,1.279 m -13.898,-0.417 c 0.971,0.909 1.458,2.161 1.458,3.755 0,1.564 -0.565,2.829 -1.699,3.794 -1.133,0.965 -2.622,1.448 -4.472,1.448 -1.625,0 -3.149,-0.32 -4.569,-0.958 v -1.914 c 1.77,0.575 3.285,0.862 4.545,0.861 1.212,0 2.141,-0.274 2.786,-0.825 0.646,-0.55 0.97,-1.343 0.97,-2.381 0,-1.133 -0.304,-1.955 -0.91,-2.465 -0.606,-0.51 -1.595,-0.767 -2.966,-0.766 -0.989,0 -2.224,0.081 -3.708,0.24 v -1.58 l 0.455,-7.155 h 8.732 v 1.962 h -6.723 l -0.311,4.858 c 0.877,-0.159 1.666,-0.239 2.368,-0.239 1.722,0 3.071,0.454 4.045,1.365 m 17.978,17.54 c -6.067,1.09 -11.381,3.561 -14.946,5.575 -3.566,-2.013 -8.88,-4.484 -14.946,-5.575 -1.708,-0.306 -10.217,-2.083 -10.218,-7.002 0,-2.28 0.816,-3.791 2.384,-6.492 1.873,-3.229 4.203,-7.248 4.202,-13.033 0,-4.135 -1.084,-8.101 -3.223,-11.801 0.251,-0.31 0.508,-0.624 0.765,-0.941 3.17,1.584 6.47,2.387 9.825,2.388 4.1,0 7.867,-1.077 11.211,-3.202 3.342,2.125 7.11,3.201 11.21,3.202 3.355,0 6.656,-0.803 9.826,-2.388 0.256,0.316 0.512,0.63 0.764,0.941 -2.14,3.7 -3.224,7.665 -3.224,11.801 0,5.786 2.33,9.805 4.206,13.038 1.564,2.695 2.38,4.207 2.38,6.487 0,4.919 -8.51,6.696 -10.216,7.002 m 6.13,-26.527 c 0,-3.948 1.114,-7.732 3.308,-11.247 0.285,-0.454 0.249,-1.038 -0.092,-1.453 -0.635,-0.778 -1.301,-1.597 -1.958,-2.411 -0.381,-0.471 -1.044,-0.601 -1.577,-0.309 -3.079,1.702 -6.29,2.565 -9.547,2.565 -3.93,0 -7.364,-1.057 -10.499,-3.229 -0.428,-0.296 -0.996,-0.296 -1.424,0 -3.135,2.172 -6.569,3.229 -10.498,3.229 -3.257,0 -6.469,-0.863 -9.548,-2.565 -0.531,-0.293 -1.195,-0.163 -1.576,0.309 -0.657,0.814 -1.324,1.633 -1.959,2.411 -0.339,0.415 -0.376,0.999 -0.091,1.453 2.195,3.515 3.308,7.299 3.307,11.247 0,5.113 -2.144,8.808 -3.866,11.782 -1.688,2.904 -2.72,4.832 -2.72,7.743 0,6.736 9.395,8.948 12.275,9.464 6.075,1.092 11.38,3.666 14.76,5.634 0.194,0.114 0.411,0.17 0.629,0.17 0.216,0 0.434,-0.056 0.629,-0.17 3.38,-1.967 8.684,-4.542 14.758,-5.634 2.88,-0.516 12.275,-2.729 12.275,-9.464 0,-2.911 -1.032,-4.839 -2.72,-7.747 -1.722,-2.97 -3.866,-6.665 -3.866,-11.778 m -4.834,33.751 c -7.664,1.378 -14.089,5.5 -16.242,7.009 -2.155,-1.509 -8.58,-5.631 -16.244,-7.009 -15.085,-2.71 -16.256,-11.574 -16.256,-14.226 0,-4.363 1.714,-7.315 3.371,-10.173 1.58,-2.722 3.214,-5.538 3.214,-9.352 0,-6.025 -3.479,-10.28 -5.195,-12.013 1.805,-2.196 6.365,-7.755 8.614,-10.652 3.407,3.216 7.369,4.971 11.285,4.97 4.348,0 7.942,-1.769 11.211,-5.544 3.268,3.775 6.863,5.545 11.21,5.544 3.916,0 7.877,-1.754 11.286,-4.97 2.249,2.897 6.807,8.457 8.613,10.652 -1.716,1.732 -5.195,5.987 -5.195,12.013 0,3.814 1.635,6.63 3.213,9.352 1.659,2.857 3.373,5.81 3.373,10.173 0,2.652 -1.172,11.517 -16.258,14.226 m 15.048,-25.653 c -1.544,-2.661 -2.876,-4.958 -2.876,-8.098 0,-6.61 5.145,-10.885 5.195,-10.926 0.259,-0.21 0.424,-0.515 0.458,-0.848 0.033,-0.333 -0.068,-0.664 -0.28,-0.921 -0.084,-0.1 -8.277,-10.034 -10.155,-12.608 -0.22,-0.301 -0.561,-0.489 -0.933,-0.511 -0.374,-0.028 -0.734,0.121 -0.989,0.394 -3.15,3.369 -6.877,5.225 -10.5,5.224 -4.005,0 -7.155,-1.784 -10.218,-5.786 -0.474,-0.618 -1.511,-0.618 -1.985,0 -3.064,4.002 -6.214,5.786 -10.218,5.786 -3.623,0 -7.35,-1.856 -10.5,-5.224 -0.255,-0.273 -0.617,-0.428 -0.989,-0.394 -0.371,0.023 -0.714,0.21 -0.934,0.511 -1.877,2.573 -10.071,12.507 -10.155,12.608 -0.211,0.258 -0.311,0.589 -0.277,0.92 0.033,0.331 0.196,0.636 0.453,0.847 0.053,0.043 5.198,4.318 5.198,10.928 0,3.14 -1.333,5.437 -2.876,8.098 -1.739,2.996 -3.709,6.391 -3.709,11.427 0,8.389 6.846,14.628 18.315,16.688 8.634,1.552 15.853,7.028 15.924,7.084 0.224,0.171 0.493,0.258 0.761,0.258 0.268,0 0.536,-0.086 0.761,-0.259 0.073,-0.055 7.266,-5.527 15.923,-7.083 11.469,-2.061 18.316,-8.299 18.316,-16.688 0,-5.036 -1.971,-8.431 -3.71,-11.427"/></g></svg>