<svg xmlns="http://www.w3.org/2000/svg" viewBox="0 0 100 100"><defs/><defs><linearGradient id="a" x1="0" x2="1" y1="1" y2="0"><stop offset="0%" stop-color="#055F4E"/><stop offset="100%" stop-color="#56C0A7"/></linearGradient></defs><g><path fill="url(#a)" fill-rule="evenodd" d="m 0,0 h 100 v 100 h -100 z"/><path fill="#fff" fill-rule="evenodd" d="m 50.078,48.75 v 30.889 l -30.82,-30.889 z m 1.725,35.061 c 0.466,-0.194 0.77,-0.65 0.769,-1.155 v -35.156 c 0,-0.69 -0.558,-1.25 -1.247,-1.25 h -35.078 c -0.504,0 -0.96,0.305 -1.152,0.771 -0.193,0.468 -0.086,1.005 0.271,1.363 l 35.078,35.156 c 0.238,0.239 0.558,0.366 0.881,0.366 0.161,0 0.323,-0.031 0.478,-0.095 z m 31.95,1.189 c -0.324,0 -0.644,-0.128 -0.882,-0.366 l -25.256,-25.313 1.764,-1.767 23.127,23.179 v -63.233 h -63.092 l 23.127,23.179 -1.763,1.767 -25.256,-25.312 c -0.357,-0.357 -0.464,-0.895 -0.271,-1.363 0.192,-0.466 0.649,-0.771 1.152,-0.771 h 67.35 c 0.69,0 1.247,0.56 1.247,1.25 v 67.5 c 0,0.505 -0.303,0.961 -0.77,1.155 -0.155,0.064 -0.317,0.095 -0.477,0.095 z"/></g></svg>