<svg xmlns="http://www.w3.org/2000/svg" viewBox="0 0 100 100"><defs/><defs><linearGradient id="a" x1="0" x2="1" y1="1" y2="0"><stop offset="0%" stop-color="#2E27AD"/><stop offset="100%" stop-color="#527FFF"/></linearGradient></defs><g><path fill="url(#a)" fill-rule="evenodd" d="m 0,0 h 100 v 100 h -100 z"/><path fill="#fff" fill-rule="evenodd" d="m 55,83.75 h 2.5 v -8.75 h -2.5 z m -11.25,-0.175 h 2.5 v -8.575 h -2.5 z m 22.5,-2.325 h 2.5 v -7.5 h -2.5 z m -33.75,0 h 2.5 v -7.5 h -2.5 z m 17.5,-37.5 c -9.389,0 -15,-2.542 -15,-5 v -9.551 c 2.9,2.079 8.166,3.301 15,3.301 6.229,0 12.781,-1.117 16.25,-3.5 v 9.75 c 0,2.415 -6.529,5 -16.25,5 z m 0,12.5 c -9.389,0 -15,-2.542 -15,-5 v -8.301 c 2.9,2.079 8.166,3.301 15,3.301 6.229,0 12.781,-1.117 16.25,-3.5 v 8.5 c 0,2.415 -6.529,5 -16.25,5 z m 0,12.5 c -9.742,0 -15,-2.576 -15,-5 v -8.301 c 2.9,2.079 8.166,3.301 15,3.301 6.229,0 12.781,-1.117 16.25,-3.5 v 8.5 c 0,2.415 -6.529,5 -16.25,5 z m 0,-48.75 c 9.576,0 16.25,2.635 16.25,5 0,2.365 -6.674,5 -16.25,5 -9.389,0 -15,-2.542 -15,-5 0,-2.458 5.611,-5 15,-5 z m 0,-2.5 c -10.631,0 -17.5,2.944 -17.5,7.5 v 38.75 c 0,4.556 6.869,7.5 17.5,7.5 9.031,0 18.75,-2.346 18.75,-7.5 v -38.75 c 0,-5.154 -9.719,-7.5 -18.75,-7.5 z"/></g></svg>