<svg xmlns="http://www.w3.org/2000/svg" viewBox="0 0 100 100"><defs/><defs><linearGradient id="a" x1="0" x2="1" y1="1" y2="0"><stop offset="0%" stop-color="#C8511B"/><stop offset="100%" stop-color="#F90"/></linearGradient></defs><g><path fill="url(#a)" fill-rule="evenodd" d="m 0,0 h 100 v 100 h -100 z"/><path fill="#fff" fill-rule="evenodd" d="m 65.375,57.296 -5.337,-3.061 v -8.375 l 5.438,-3.161 12.59,7.27 z m -1.2,16.734 -12.64,-7.299 v -6.141 l 7.255,-4.189 5.385,3.089 z m -13.89,-15.605 -7.254,-4.188 v -8.376 l 7.254,-4.187 7.252,4.187 v 8.376 z m -1.25,8.305 -12.644,7.3 v -14.59 l 5.384,-3.041 7.26,4.191 z m -13.887,-9.459 -12.648,-7.302 12.591,-7.27 5.44,3.161 v 8.369 z m 1.243,-31.365 12.644,7.3 v 6.303 l -7.251,4.186 -5.393,-3.133 z m 15.144,7.3 12.64,-7.3 v 14.658 l -5.389,3.131 -7.251,-4.186 z m 29.656,15.679 -13.223,-7.634 6.307,-3.666 5.666,3.272 1.25,-2.166 -4.423,-2.554 4.426,-2.572 -1.255,-2.161 -4.435,2.577 v -5.142 h -2.5 v 6.595 l -6.329,3.677 v -15.37 c 0,-0.446 -0.237,-0.859 -0.625,-1.082 -0.386,-0.224 -0.864,-0.224 -1.25,0 l -13.265,7.66 -10e-4,-7.308 5.689,-3.284 -1.25,-2.165 -4.439,2.563 v -5.125 h -2.5 v 5.125 l -4.439,-2.563 -1.25,2.165 5.689,3.285 10e-4,7.307 -13.269,-7.66 c -0.385,-0.224 -0.864,-0.224 -1.25,0 -0.386,0.224 -0.625,0.636 -0.625,1.082 v 15.369 l -6.327,-3.676 v -6.595 h -2.5 v 5.142 l -4.437,-2.577 -1.255,2.161 4.427,2.572 -4.424,2.554 1.25,2.166 5.666,-3.272 6.308,3.666 -13.224,7.634 c -0.386,0.224 -0.625,0.636 -0.625,1.084 0,0.446 0.239,0.859 0.625,1.082 l 13.266,7.659 -6.327,3.654 -5.689,-3.284 -1.25,2.165 4.439,2.562 -4.439,2.563 1.25,2.165 4.439,-2.563 v 5.127 h 2.5 v -6.57 l 6.327,-3.654 v 15.32 c 0,0.448 0.239,0.86 0.625,1.082 0.386,0.224 0.865,0.224 1.25,0 l 13.269,-7.66 -10e-4,7.308 -5.689,3.284 1.25,2.165 4.439,-2.563 v 5.126 h 2.5 v -5.126 l 4.439,2.563 1.25,-2.165 -5.689,-3.284 10e-4,-7.308 13.265,7.66 c 0.386,0.224 0.864,0.224 1.25,0 0.388,-0.222 0.625,-0.635 0.625,-1.082 v -15.271 l 6.329,3.631 v 6.544 h 2.5 v -5.11 l 4.44,2.547 1.245,-2.167 -4.45,-2.554 4.452,-2.57 -1.25,-2.165 -5.71,3.296 -6.348,-3.641 13.308,-7.684 c 0.388,-0.224 0.625,-0.636 0.625,-1.082 0,-0.448 -0.237,-0.86 -0.625,-1.084 z"/></g></svg>