<svg xmlns="http://www.w3.org/2000/svg" viewBox="0 0 100 100"><defs/><defs><linearGradient id="a" x1="0" x2="1" y1="1" y2="0"><stop offset="0%" stop-color="#BD0816"/><stop offset="100%" stop-color="#FF5252"/></linearGradient></defs><g><path fill="url(#a)" fill-rule="evenodd" d="m 0,0 h 100 v 100 h -100 z"/><path fill="#fff" fill-rule="evenodd" d="m 49.116,49.116 5.225,-5.223 c -1.226,-0.872 -2.72,-1.393 -4.336,-1.393 -4.134,0 -7.496,3.362 -7.496,7.496 0,4.133 3.362,7.495 7.496,7.495 4.134,0 7.495,-3.362 7.495,-7.495 0,-1.616 -0.519,-3.111 -1.391,-4.336 l -5.225,5.224 z m 14.095,-10.56 -5.32,5.322 c 1.316,1.693 2.109,3.813 2.109,6.118 0,5.511 -4.484,9.995 -9.995,9.995 -5.511,0 -9.996,-4.484 -9.996,-9.995 0,-5.513 4.485,-9.996 9.996,-9.996 2.306,0 4.425,0.792 6.117,2.11 l 5.322,-5.321 c -3.07,-2.664 -7.064,-4.289 -11.439,-4.289 -9.648,0 -17.496,7.849 -17.496,17.496 0,9.646 7.849,17.495 17.496,17.495 9.648,0 17.495,-7.849 17.495,-17.495 0,-4.375 -1.625,-8.37 -4.289,-11.44 z m 3.076,-9.162 c 0,2.402 1.955,4.356 4.357,4.356 2.402,0 4.356,-1.954 4.356,-4.356 0,-2.401 -1.954,-4.356 -4.356,-4.356 -2.401,0 -4.356,1.955 -4.357,4.356 z m -3.077,5.627 1.77,-1.768 c -0.751,-1.1 -1.192,-2.429 -1.193,-3.859 0,-3.78 3.075,-6.856 6.857,-6.856 3.78,0 6.856,3.076 6.856,6.856 0,3.781 -3.076,6.856 -6.856,6.856 -1.45,0 -2.792,-0.455 -3.9,-1.225 l -1.767,1.764 c 3.116,3.527 5.022,8.144 5.023,13.207 0,11.025 -8.97,19.995 -19.995,19.995 -11.026,0 -19.996,-8.97 -19.996,-19.995 0,-11.026 8.97,-19.996 19.996,-19.996 5.064,0 9.679,1.907 13.205,5.021 z m 16.79,14.979 c 0,16.541 -13.459,30 -30,30 -16.541,0 -30,-13.459 -30,-30 0,-16.541 13.459,-30 30,-30 4.201,0 8.268,0.855 12.086,2.54 l -1.011,2.288 c -3.496,-1.545 -7.224,-2.328 -11.075,-2.328 -15.164,0 -27.5,12.336 -27.5,27.5 0,15.164 12.336,27.5 27.5,27.5 15.164,0 27.5,-12.336 27.5,-27.5 0,-3.862 -0.777,-7.57 -2.314,-11.017 l 2.287,-1.018 c 1.676,3.771 2.527,7.82 2.527,12.035 z"/></g></svg>