<svg xmlns="http://www.w3.org/2000/svg" viewBox="0 0 100 100"><defs/><defs><linearGradient id="a" x1="0" x2="1" y1="1" y2="0"><stop offset="0%" stop-color="#4D27A8"/><stop offset="100%" stop-color="#A166FF"/></linearGradient></defs><g><path fill="url(#a)" fill-rule="evenodd" d="m 0,0 h 100 v 100 h -100 z"/><path fill="#fff" fill-rule="evenodd" d="m 54.037,80.98 c 1.341,-1.147 2.212,-2.831 2.213,-4.73 0,-3.019 -2.151,-5.543 -5,-6.124 v -10.213 c 4.514,-0.566 8.095,-4.149 8.662,-8.663 h 10.214 c 0.58,2.849 3.105,5 6.124,5 1.899,0 3.583,-0.87 4.73,-2.212 -1.816,14.006 -12.936,25.126 -26.943,26.942 m -35.018,-26.942 c 1.147,1.343 2.831,2.212 4.731,2.212 3.018,0 5.543,-2.151 6.122,-5 h 10.214 c 0.568,4.514 4.149,8.096 8.664,8.663 v 10.213 c -2.85,0.581 -5,3.105 -5,6.124 0,1.899 0.87,3.583 2.211,4.73 -14.006,-1.816 -25.126,-12.936 -26.942,-26.942 m 8.481,-4.038 c 0,2.067 -1.683,3.75 -3.75,3.75 -2.069,0 -3.75,-1.683 -3.75,-3.75 0,-2.067 1.681,-3.75 3.75,-3.75 2.067,0 3.75,1.683 3.75,3.75 m 18.461,-30.98 c -1.341,1.147 -2.211,2.83 -2.211,4.73 0,3.018 2.15,5.543 5,6.124 v 10.212 c -4.515,0.568 -8.096,4.149 -8.664,8.664 h -10.213 c -0.58,-2.849 -3.105,-5 -6.123,-5 -1.9,0 -3.584,0.87 -4.731,2.211 1.816,-14.006 12.936,-25.125 26.942,-26.941 m 4.039,0.98 c 2.067,0 3.75,1.683 3.75,3.75 0,2.067 -1.683,3.75 -3.75,3.75 -2.069,0 -3.75,-1.683 -3.75,-3.75 0,-2.067 1.681,-3.75 3.75,-3.75 m 0,37.5 c -4.136,0 -7.5,-3.365 -7.5,-7.5 0,-4.136 3.364,-7.5 7.5,-7.5 4.135,0 7.5,3.364 7.5,7.5 0,4.135 -3.365,7.5 -7.5,7.5 m 0,22.5 c -2.069,0 -3.75,-1.683 -3.75,-3.75 0,-2.067 1.681,-3.75 3.75,-3.75 2.067,0 3.75,1.683 3.75,3.75 0,2.067 -1.683,3.75 -3.75,3.75 m 30,-30 c 0,2.067 -1.683,3.75 -3.75,3.75 -2.069,0 -3.75,-1.683 -3.75,-3.75 0,-2.067 1.681,-3.75 3.75,-3.75 2.067,0 3.75,1.683 3.75,3.75 m 0.98,-4.039 c -1.147,-1.341 -2.831,-2.211 -4.73,-2.211 -3.019,0 -5.544,2.151 -6.124,5 h -10.213 c -0.568,-4.515 -4.149,-8.096 -8.663,-8.664 v -10.212 c 2.849,-0.581 5,-3.106 5,-6.124 0,-1.9 -0.871,-3.583 -2.212,-4.73 14.006,1.816 25.126,12.935 26.942,26.941 m -30.98,-29.711 c -18.61,0 -33.75,15.14 -33.75,33.75 0,18.61 15.14,33.75 33.75,33.75 18.609,0 33.75,-15.14 33.75,-33.75 0,-18.61 -15.141,-33.75 -33.75,-33.75"/></g></svg>