<svg xmlns="http://www.w3.org/2000/svg" viewBox="0 0 100 100"><defs/><defs><linearGradient id="a" x1="0" x2="1" y1="1" y2="0"><stop offset="0%" stop-color="#BD0816"/><stop offset="100%" stop-color="#FF5252"/></linearGradient></defs><g><path fill="url(#a)" fill-rule="evenodd" d="m 0,0 h 100 v 100 h -100 z"/><path fill="#fff" fill-rule="evenodd" d="m 33.4,33.869 c 2.59,0.595 5.814,1.661 9.16,2.769 4.454,1.475 9.058,2.999 11.193,2.998 2.135,0 6.739,-1.524 11.19,-2.998 3.346,-1.107 6.569,-2.174 9.158,-2.769 l -4.26,-2.844 c -2.833,1.07 -13.088,4.861 -16.088,4.861 -3,0 -13.259,-3.791 -16.094,-4.861 z m 5.91,-4.895 c 5.189,1.939 12.475,4.412 14.443,4.412 1.965,0 9.231,-2.467 14.416,-4.403 l -6.464,-11.049 c -0.25,-0.398 -0.821,-0.536 -1.254,-0.274 l -4.931,2.958 c -1.091,0.654 -2.444,0.654 -3.535,0 l -4.93,-2.958 c -0.455,-0.275 -1.061,-0.141 -1.376,0.036 z m 26.74,9.931 c -0.106,0.035 -0.214,0.07 -0.321,0.106 -4.854,1.606 -9.439,3.125 -11.976,3.125 -2.537,0 -7.123,-1.519 -11.979,-3.125 -0.107,-0.036 -0.216,-0.071 -0.324,-0.107 1.133,6.024 7.326,15.732 12.303,15.732 4.975,0 11.166,-9.707 12.297,-15.731 z m -37.246,-3.906 c -0.16,-0.527 0.044,-1.096 0.502,-1.403 l 7.259,-4.847 7.069,-12.513 c 0.068,-0.122 0.158,-0.231 0.261,-0.322 1.002,-0.885 2.904,-1.326 4.446,-0.398 l 4.93,2.958 c 0.296,0.179 0.667,0.177 0.963,0 l 4.93,-2.958 c 1.595,-0.956 3.695,-0.451 4.679,1.125 l 7.083,12.102 7.269,4.853 c 0.458,0.306 0.661,0.875 0.501,1.403 -0.16,0.527 -0.645,0.887 -1.196,0.887 -1.834,0 -5.19,0.983 -8.795,2.149 -0.617,7.117 -8.194,19.101 -14.953,19.101 -6.763,0 -14.339,-11.985 -14.957,-19.101 -3.604,-1.166 -6.963,-2.149 -8.795,-2.149 -0.55,0 -1.036,-0.36 -1.196,-0.887 z m 44.515,24.486 1.36,-1.512 c 0.231,-0.256 0.346,-0.595 0.317,-0.939 -0.027,-0.343 -0.196,-0.659 -0.465,-0.874 l -6.25,-5 -1.562,1.953 5.216,4.171 -10.364,11.516 c -0.234,0.26 -0.349,0.609 -0.315,0.958 0.034,0.349 0.214,0.667 0.495,0.878 l 3.995,2.998 -6.743,8.92 1.995,1.507 7.5,-9.921 c 0.2,-0.265 0.288,-0.6 0.241,-0.929 -0.048,-0.329 -0.222,-0.626 -0.489,-0.825 l -3.906,-2.93 6.941,-7.712 c 5.481,0.117 11.215,6.035 11.215,11.642 v 11.25 h 2.5 v -11.25 c 0,-6.262 -5.589,-12.613 -11.681,-13.901 z m -26.007,19.758 -7.402,-7.437 c -0.674,0.907 -1.454,1.729 -2.334,2.435 l 7.369,7.365 c 0.621,0.623 1.659,0.597 2.311,-0.055 0.65,-0.651 0.676,-1.686 0.056,-2.308 z m -17.937,-4.607 c 5.859,0 10.625,-4.766 10.625,-10.625 0,-5.859 -4.766,-10.625 -10.625,-10.625 -5.857,0 -10.625,4.766 -10.625,10.625 0,5.859 4.768,10.625 10.625,10.625 z m 19.71,2.843 c 1.589,1.598 1.563,4.216 -0.061,5.84 -0.823,0.824 -1.901,1.238 -2.974,1.237 -1.046,0 -2.084,-0.393 -2.872,-1.181 l -7.739,-7.735 c -1.815,0.951 -3.876,1.496 -6.064,1.496 -7.237,0 -13.125,-5.889 -13.125,-13.125 0,-7.237 5.888,-13.125 13.125,-13.125 7.237,0 13.125,5.888 13.125,13.125 0,1.998 -0.461,3.886 -1.264,5.584 z m 11.28,-18.736 -6.612,6.625 -6.619,-6.625 -1.768,1.766 7.503,7.51 c 0.235,0.235 0.552,0.367 0.883,0.367 0.333,0 0.651,-0.133 0.885,-0.367 l 7.498,-7.51 z m 12.135,25.893 h 2.5 v -8.75 h -2.5 z"/></g></svg>