<svg xmlns="http://www.w3.org/2000/svg" viewBox="0 0 100 100"><defs/><defs><linearGradient id="a" x1="0" x2="1" y1="1" y2="0"><stop offset="0%" stop-color="#4D27A8"/><stop offset="100%" stop-color="#A166FF"/></linearGradient></defs><g><path fill="url(#a)" fill-rule="evenodd" d="m 0,0 h 100 v 100 h -100 z"/><path fill="#fff" fill-rule="evenodd" d="m 62.5,72.539 c -1.379,0 -2.5,-1.121 -2.5,-2.5 0,-1.379 1.121,-2.5 2.5,-2.5 1.379,0 2.5,1.121 2.5,2.5 0,1.379 -1.121,2.5 -2.5,2.5 m -10,-2.5 c 0,1.379 -1.121,2.5 -2.5,2.5 -1.379,0 -2.5,-1.121 -2.5,-2.5 0,-1.379 1.121,-2.5 2.5,-2.5 1.379,0 2.5,1.121 2.5,2.5 m -12.5,0 c 0,1.379 -1.121,2.5 -2.5,2.5 -1.379,0 -2.5,-1.121 -2.5,-2.5 0,-1.379 1.121,-2.5 2.5,-2.5 1.379,0 2.5,1.121 2.5,2.5 m 5,-23.75 c 0,-2.757 2.243,-5 5,-5 2.757,0 5,2.243 5,5 0,2.757 -2.243,5 -5,5 -2.757,0 -5,-2.243 -5,-5 m 18.75,18.927 v -6.427 c 0,-0.69 -0.559,-1.25 -1.25,-1.25 h -11.25 v -3.863 c 3.541,-0.599 6.25,-3.679 6.25,-7.387 0,-4.136 -3.364,-7.5 -7.5,-7.5 -4.136,0 -7.5,3.364 -7.5,7.5 0,3.709 2.709,6.789 6.25,7.387 v 3.863 h -11.25 c -0.691,0 -1.25,0.56 -1.25,1.25 v 6.427 c -2.151,0.559 -3.75,2.5 -3.75,4.823 0,2.757 2.243,5 5,5 2.757,0 5,-2.243 5,-5 0,-2.323 -1.599,-4.264 -3.75,-4.823 v -5.177 h 10 v 5.177 c -2.151,0.559 -3.75,2.5 -3.75,4.823 0,2.757 2.243,5 5,5 2.757,0 5,-2.243 5,-5 0,-2.323 -1.599,-4.264 -3.75,-4.823 v -5.177 h 10 v 5.177 c -2.151,0.559 -3.75,2.5 -3.75,4.823 0,2.757 2.243,5 5,5 2.757,0 5,-2.243 5,-5 0,-2.323 -1.599,-4.264 -3.75,-4.823 m -13.75,16.073 c -12.114,0 -21.25,-2.686 -21.25,-6.25 v -45.757 c 4.152,3.098 12.835,4.545 21.065,4.545 8.387,0 17.234,-1.458 21.435,-4.576 v 45.788 c 0,3.564 -9.136,6.25 -21.25,6.25 m -0.185,-62.539 c 12.821,0 21.435,3.251 21.435,6.289 0,3.038 -8.614,6.289 -21.435,6.288 -12.601,0 -21.065,-3.251 -21.065,-6.288 0,-3.038 8.464,-6.289 21.065,-6.289 m 0,-2.5 c -11.35,0 -23.564,2.75 -23.565,8.789 v 50 c 0,6.451 12.268,8.75 23.75,8.75 11.482,0 23.75,-2.299 23.75,-8.75 v -50 c 0,-6.039 -12.408,-8.789 -23.935,-8.789"/></g></svg>