<svg xmlns="http://www.w3.org/2000/svg" viewBox="0 0 100 100"><defs/><defs><linearGradient id="a" x1="0" x2="1" y1="1" y2="0"><stop offset="0%" stop-color="#B0084D"/><stop offset="100%" stop-color="#FF4F8B"/></linearGradient></defs><g><path fill="url(#a)" fill-rule="evenodd" d="m 0,0 h 100 v 100 h -100 z"/><path fill="#fff" fill-rule="evenodd" d="m 17.5,57.279 h 30.553 v -2.5 h -30.553 z m 10.565,-7.379 h 22.239 v -2.5 h -22.239 z m 28.413,1.232 c 0.607,-0.155 1.006,-0.736 0.932,-1.36 -0.025,-0.195 -0.037,-0.395 -0.037,-0.597 0,-1.751 1.248,-3.705 2.781,-4.354 0.707,-0.3 1.363,-0.42 1.956,-0.42 1.69,0 2.884,0.969 3.405,1.493 0.583,0.583 1.04,1.338 1.36,2.242 0.154,0.436 0.536,0.751 0.994,0.82 0.455,0.065 0.915,-0.122 1.19,-0.494 0.321,-0.436 0.813,-0.626 1.281,-0.485 0.603,0.175 1.009,0.844 1.096,1.799 -0.034,0.626 0.406,1.191 1.038,1.3 1.042,0.179 2.794,0.815 2.794,3.055 0,2.639 -2.33,2.996 -2.688,3.038 l -15.31,-0.017 c -1.655,-10e-4 -3.011,-1.251 -3.089,-2.853 l -0.005,-0.204 c 0,-1.964 1.251,-2.695 2.302,-2.963 z m 0.79,8.52 15.413,0.012 c 1.759,-0.143 5.086,-1.482 5.087,-5.533 0,-3.003 -1.904,-4.651 -3.948,-5.295 -0.408,-1.906 -1.649,-2.929 -2.777,-3.259 -0.856,-0.25 -1.737,-0.171 -2.515,0.185 -0.351,-0.611 -0.766,-1.157 -1.243,-1.633 -2.21,-2.22 -5.241,-2.822 -8.105,-1.61 -2.417,1.024 -4.249,3.811 -4.306,6.526 -2.021,0.88 -3.197,2.706 -3.198,5.05 0,0.115 0.004,0.229 0.009,0.332 0.141,2.928 2.594,5.223 5.583,5.225 z m 0.868,-37.821 h 2.599 v -2.5 h -2.599 z m 4.333,0 h 8.662 v -2.5 h -8.662 z m 15.38,60.738 h -26.431 c -1.815,0 -3.292,-1.451 -3.293,-3.235 v -2.062 h 33.016 v 2.062 c 0,1.784 -1.478,3.235 -3.292,3.235 z m -29.724,-58.907 v -1.596 c 0,-2.517 2.081,-4.566 4.64,-4.566 h 23.736 c 2.559,0 4.64,2.049 4.64,4.566 v 1.596 z m 35.516,-1.601 c 0,-3.65 -2.815,-6.662 -6.411,-7.024 -0.239,-0.025 -0.483,-0.037 -0.729,-0.037 h -23.736 c -3.938,0 -7.14,3.17 -7.14,7.066 v 4.353 17.035 h 2.5 v -17.035 -0.257 h 33.016 v 48.61 h -33.016 v -12.613 h -2.5 v 17.175 c 0,3.162 2.599,5.735 5.793,5.735 h 26.431 c 3.194,0 5.793,-2.572 5.792,-5.735 v -57.268 z"/></g></svg>