<svg xmlns="http://www.w3.org/2000/svg" viewBox="0 0 100 100"><defs/><defs><linearGradient id="a" x1="0" x2="1" y1="1" y2="0"><stop offset="0%" stop-color="#055F4E"/><stop offset="100%" stop-color="#56C0A7"/></linearGradient></defs><g><path fill="url(#a)" fill-rule="evenodd" d="m 0,0 h 100 v 100 h -100 z"/><path fill="#fff" fill-rule="evenodd" d="m 51.249,36.241 h 8.751 v -2.503 h -8.751 z m 0,-7.536 h 11.251 v -2.502 h -11.251 z m 6.251,13.791 h 17.5 v -2.502 h -17.5 z m 5,-6.255 h 13.75 v -2.503 h -13.75 z m 20,32.529 h -21.25 v 2.502 h 22.5 c 0.69,0 1.25,-0.561 1.25,-1.251 v -22.52 h -2.5 z m -1.773,-40.036 -9.477,-9.468 v 9.468 z m 4.273,1.251 v 8.729 h -2.5 v -7.478 h -12.5 c -0.691,0 -1.25,-0.561 -1.25,-1.251 v -12.483 l -22.501,0.005 v 16.231 h -2.5 v -17.482 c 0,-0.691 0.559,-1.251 1.25,-1.251 l 25.001,-0.005 c 0.324,0 0.644,0.128 0.882,0.365 l 13.75,13.734 c 0.24,0.239 0.368,0.561 0.368,0.886 z m -61.251,33.781 h 2.5 v -8.758 h -2.5 z m 5,3.753 h 2.5 v -17.516 h -2.5 z m 5,-2.502 h 2.5 v -13.763 h -2.5 z m 5,3.753 h 2.5 v -20.018 h -2.5 z m 5,-5.004 h 2.5 v -11.261 h -2.5 z m 5,5.004 h 2.5 v -20.018 h -2.5 z m 5.001,-6.255 h 2.5 v -8.758 h -2.5 z m 2.707,8.068 2.085,1.379 c -4.075,6.172 -11.008,9.856 -18.543,9.856 -4.025,0 -8.004,-1.013 -11.289,-2.862 l -11.349,5.871 c -0.244,0.116 -0.499,0.173 -0.747,0.173 -0.436,0 -0.854,-0.173 -1.164,-0.495 -0.483,-0.503 -0.589,-1.256 -0.262,-1.877 l 5.869,-11.294 c -2.361,-3.825 -3.558,-7.631 -3.558,-11.322 0,-12.207 10.304,-22.521 22.5,-22.52 4.661,0 9.599,1.485 13.209,3.973 l -1.418,2.062 c -3.208,-2.213 -7.616,-3.533 -11.791,-3.533 -10.841,0 -20,9.167 -20,20.018 0,3.398 1.194,6.956 3.546,10.577 0.248,0.379 0.27,0.86 0.062,1.26 l -4.927,9.48 9.495,-4.912 c 0.388,-0.201 0.851,-0.185 1.225,0.044 2.966,1.814 6.829,2.855 10.599,2.855 6.694,0 12.846,-3.265 16.458,-8.733 z"/></g></svg>