<svg xmlns="http://www.w3.org/2000/svg" viewBox="0 0 100 100"><defs/><defs><linearGradient id="a" x1="0" x2="1" y1="1" y2="0"><stop offset="0%" stop-color="#C8511B"/><stop offset="100%" stop-color="#F90"/></linearGradient></defs><g><path fill="url(#a)" fill-rule="evenodd" d="m 0,0 h 100 v 100 h -100 z"/><path fill="#fff" fill-rule="evenodd" d="m 49.865,17.518 c 0.069,-0.088 0.189,-0.107 0.289,0.02 l 12.594,15.394 c -2.944,-0.691 -7.372,-1.44 -12.747,-1.44 -5.134,0 -9.379,0.74 -12.216,1.429 z m -15.031,18.887 c 0.06,-0.022 6.274,-2.413 15.167,-2.413 9.285,0 15.744,2.395 15.809,2.419 0.144,0.054 0.293,0.081 0.44,0.081 0.395,0 0.776,-0.188 1.016,-0.521 0.331,-0.459 0.311,-1.083 -0.046,-1.52 l -15.114,-18.475 c -1.02,-1.301 -3.189,-1.301 -4.208,0 l -14.505,18.495 c -0.348,0.443 -0.355,1.064 -0.018,1.516 0.335,0.454 0.932,0.625 1.459,0.418 z m 11.417,46.337 h 6.25 v -2.5 h -6.25 z m -5,-2.5 h 2.5 v 3.75 c 0,0.69 0.56,1.25 1.25,1.25 h 8.75 c 0.691,0 1.25,-0.56 1.25,-1.25 v -3.75 h 2.5 v -2.5 h -16.25 z m 27.5,-6.799 -6.96,-6.802 c 0.489,-2.139 0.574,-4.737 0.574,-7.649 v -8.117 l 6.386,7.396 z m 2.197,-16.455 -8.555,-9.907 -0.028,0.025 v -9.364 h -2.364 v 21.25 c 0,9.146 -1.167,11.25 -6.25,11.25 -0.69,0 -1.25,0.559 -1.25,1.25 v 5 h 2.364 v -3.799 c 3.096,-0.255 4.918,-1.501 5.991,-3.471 l 8.272,8.085 c 0.239,0.234 0.555,0.356 0.873,0.356 0.164,0 0.329,-0.031 0.485,-0.097 0.464,-0.195 0.765,-0.649 0.765,-1.153 v -18.608 c 0,-0.3 -0.107,-0.589 -0.303,-0.817 z m -41.083,16.455 v -15.172 l 6.386,-7.396 v 8.117 c 0,2.911 0.086,5.51 0.574,7.649 z m 13.886,-0.75 v 3.799 h 2.5 v -5 c 0,-0.691 -0.559,-1.25 -1.25,-1.25 -5.081,0 -6.25,-2.104 -6.25,-11.25 v -21.25 h -2.5 v 9.364 l -0.027,-0.025 -8.555,9.907 c -0.196,0.227 -0.168,0.516 -0.168,0.817 v 18.608 c 0,0.504 0.165,0.958 0.629,1.153 0.156,0.066 0.321,0.098 0.485,0.097 0.32,0 0.636,-0.122 0.874,-0.356 l 8.271,-8.085 c 1.075,1.97 2.896,3.216 5.991,3.471 z m 0,-17.515 v -4.676 l 3.75,1.563 v 5.278 z m 5.625,-9.743 4.539,2.621 -4.56,2.072 -4.71,-1.961 z m 0.625,12.631 v -5.485 l 5,-2.274 v 4.871 z m -2.48,2.176 1.23,0.71 c 0.194,0.111 0.41,0.168 0.625,0.168 0.216,0 0.432,-0.056 0.625,-0.168 l 6.875,-3.97 c 0.388,-0.222 0.625,-0.636 0.625,-1.082 v -7.939 c 0,-0.446 -0.237,-0.859 -0.625,-1.083 l -6.875,-3.97 c -0.385,-0.221 -0.864,-0.221 -1.25,0 l -6.875,3.97 c -0.386,0.224 -0.625,0.636 -0.625,1.083 v 7.939 c 0,0.446 0.239,0.86 0.625,1.082 l 5.625,3.249 v 0.011 z"/></g></svg>