<svg xmlns="http://www.w3.org/2000/svg" viewBox="0 0 100 100"><defs/><defs><linearGradient id="a" x1="0" x2="1" y1="1" y2="0"><stop offset="0%" stop-color="#055F4E"/><stop offset="100%" stop-color="#56C0A7"/></linearGradient></defs><g><path fill="url(#a)" fill-rule="evenodd" d="m 0,0 h 100 v 100 h -100 z"/><path fill="#fff" fill-rule="evenodd" d="m 57.8,26.379 c 0,1.605 1.306,2.911 2.912,2.911 1.605,0 2.911,-1.306 2.911,-2.911 0,-1.605 -1.306,-2.911 -2.911,-2.911 -1.605,0 -2.911,1.306 -2.912,2.911 m -2.5,0 c 0,-2.984 2.427,-5.411 5.412,-5.411 2.984,0 5.411,2.427 5.411,5.411 0,2.984 -2.427,5.411 -5.411,5.411 -2.984,0 -5.411,-2.427 -5.412,-5.411 m 23.594,28.484 c 0,16.238 -13.21,29.447 -29.447,29.447 -16.236,0 -29.446,-13.21 -29.447,-29.447 0,-8.061 3.194,-15.585 8.995,-21.187 l 19.515,-18.676 1.729,1.806 -19.511,18.673 c -5.304,5.121 -8.227,12.008 -8.228,19.384 0,14.859 12.089,26.947 26.947,26.947 14.859,0 26.947,-12.089 26.947,-26.947 0,-7.452 -2.975,-14.387 -8.376,-19.527 l 1.724,-1.811 c 5.901,5.615 9.152,13.193 9.152,21.337"/></g></svg>