<svg xmlns="http://www.w3.org/2000/svg" viewBox="0 0 100 100"><defs/><defs><linearGradient id="a" x1="0" x2="1" y1="1" y2="0"><stop offset="0%" stop-color="#C8511B"/><stop offset="100%" stop-color="#F90"/></linearGradient></defs><g><path fill="url(#a)" fill-rule="evenodd" d="m 0,0 h 100 v 100 h -100 z"/><path fill="#fff" fill-rule="evenodd" d="m 44.535,76.707 c 0.833,-0.59 1.665,-1.196 2.5,-1.822 v 7.15 h -2.5 z m 32.181,-32.172 h 5.319 v 2.5 h -7.138 c 0.626,-0.835 1.229,-1.667 1.819,-2.5 z m -2.181,7.5 h 7.5 v 2.5 h -7.5 v 5 h 7.5 v 2.5 h -7.5 v 5 h 7.5 v 2.5 h -7.5 v 3.75 c 0,0.69 -0.559,1.25 -1.25,1.25 h -3.75 v 7.5 h -2.5 v -7.5 h -5 v 7.5 h -2.5 v -7.5 h -5 v 7.5 h -2.5 v -7.5 h -4.539 c 1.065,-0.807 2.126,-1.641 3.187,-2.5 h 21.352 v -21.339 c 0.859,-1.059 1.693,-2.123 2.5,-3.186 z m -50,17.5 h -7.5 v -2.5 h 7.5 v -5 h -7.5 v -2.5 h 7.5 v -5 h -7.5 v -2.5 h 7.5 v -5 h -7.5 v -2.5 h 7.5 v -5 h -7.5 v -2.5 h 7.5 v -5 h -7.5 v -2.5 h 7.5 v -3.75 c 0,-0.691 0.559,-1.25 1.25,-1.25 h 3.75 v -7.5 h 2.5 v 7.5 h 5 v -7.5 h 2.5 v 7.5 h 5 v -7.5 h 2.5 v 7.5 h 5 v -7.5 h 2.5 v 7.5 h 5 v -7.5 h 2.5 v 7.5 h 5 v -7.5 h 2.5 v 7.5 h 3.75 c 0.691,0 1.25,0.559 1.25,1.25 v 8.309 c -0.735,1.272 -1.567,2.614 -2.5,4.021 v -11.08 h -45 v 45 h 11.081 c -1.406,0.932 -2.749,1.765 -4.021,2.5 h -8.31 c -0.691,0 -1.25,-0.56 -1.25,-1.25 z m 35,-15 c 2.757,0 5,2.243 5,5 0,2.756 -2.243,5 -5,5 -2.757,0 -5,-2.244 -5,-5 0,-2.757 2.243,-5 5,-5 z m 0,12.5 c 4.136,0 7.5,-3.365 7.5,-7.5 0,-1.829 -0.659,-3.505 -1.75,-4.808 17.896,-19.764 21.379,-33.472 16.953,-37.896 -1.876,-1.877 -4.886,-2.309 -8.953,-1.305 v 2.591 c 3.388,-0.934 5.926,-0.779 7.186,0.482 4.615,4.615 -5.175,21.303 -17.091,34.508 -1.125,-0.676 -2.439,-1.073 -3.845,-1.072 -4.136,0 -7.5,3.364 -7.5,7.5 0,1.406 0.396,2.719 1.072,3.845 -13.231,11.932 -29.886,21.707 -34.509,17.091 -1.259,-1.26 -1.414,-3.8 -0.481,-7.186 h -2.591 c -1.004,4.066 -0.571,7.076 1.305,8.954 1.124,1.124 2.844,1.739 5.109,1.738 6.662,0 18.041,-5.345 32.783,-18.696 1.302,1.093 2.981,1.754 4.812,1.754 z"/></g></svg>