<svg xmlns="http://www.w3.org/2000/svg" viewBox="0 0 100 100"><defs/><defs><linearGradient id="a" x1="0" x2="1" y1="1" y2="0"><stop offset="0%" stop-color="#4D27A8"/><stop offset="100%" stop-color="#A166FF"/></linearGradient></defs><g><path fill="url(#a)" fill-rule="evenodd" d="m 0,0 h 100 v 100 h -100 z"/><path fill="#fff" fill-rule="evenodd" d="m 58.387,33.557 v 2.51 c -1.092,0 -2.129,0.398 -2.921,1.121 -0.306,0.279 -0.732,0.388 -1.133,0.295 -0.403,-0.093 -0.733,-0.38 -0.884,-0.767 -1.532,-3.937 -5.503,-6.583 -9.882,-6.583 -3.021,0 -5.9,1.246 -7.899,3.42 -1.716,1.861 -2.66,4.243 -2.66,6.709 0,0.548 -0.355,1.047 -0.879,1.211 -2.611,0.82 -4.556,2.924 -5.089,5.498 -0.003,0.02 -0.005,0.039 -0.009,0.057 -0.088,0.477 -0.131,0.925 -0.131,1.369 0,4.023 3.414,7.296 7.608,7.296 h 19.876 v 2.51 h -19.876 c -5.579,0 -10.119,-4.399 -10.119,-9.806 0,-0.581 0.053,-1.16 0.162,-1.766 0.004,-0.031 0.009,-0.06 0.015,-0.089 0.635,-3.214 2.886,-5.888 5.964,-7.156 0.203,-2.788 1.353,-5.43 3.292,-7.532 2.471,-2.688 6.024,-4.231 9.745,-4.231 4.86,0 9.322,2.658 11.555,6.752 0.989,-0.533 2.108,-0.818 3.265,-0.818 m 27.539,52.368 c -2.089,2.088 -5.49,2.087 -7.58,0.001 l -17.108,-17.096 c 2.886,-2.174 5.394,-4.825 7.406,-7.833 l 17.288,17.359 c 2.082,2.088 2.078,5.484 -0.006,7.569 m -73.415,-42.67 c 0,-16.264 13.235,-29.495 29.504,-29.495 16.269,0 29.504,13.231 29.504,29.495 0,16.264 -13.235,29.495 -29.504,29.495 -16.269,0 -29.504,-13.231 -29.504,-29.495 m 75.201,33.33 -17.721,-17.793 c 2.569,-4.605 4.039,-9.901 4.039,-15.537 0,-17.647 -14.362,-32.005 -32.015,-32.005 -17.653,0 -32.015,14.358 -32.015,32.005 0,17.648 14.362,32.005 32.015,32.005 6.295,0 12.164,-1.832 17.121,-4.983 l 17.435,17.425 c 1.534,1.532 3.549,2.298 5.565,2.298 2.015,0 4.031,-0.767 5.565,-2.301 3.061,-3.061 3.066,-8.046 0.011,-11.114 m -45.697,-11.366 c -12.114,0 -21.971,-9.854 -21.971,-21.964 0,-12.11 9.857,-21.964 21.971,-21.964 12.114,0 21.971,9.854 21.971,21.964 0,12.11 -9.857,21.964 -21.971,21.964 m 0,-46.438 c -13.499,0 -24.482,10.98 -24.482,24.474 0,13.495 10.983,24.474 24.482,24.474 13.499,0 24.482,-10.98 24.482,-24.474 0,-13.495 -10.983,-24.474 -24.482,-24.474"/></g></svg>