<svg xmlns="http://www.w3.org/2000/svg" viewBox="0 0 100 100"><defs/><defs><linearGradient id="a" x1="0" x2="1" y1="1" y2="0"><stop offset="0%" stop-color="#055F4E"/><stop offset="100%" stop-color="#56C0A7"/></linearGradient></defs><g><path fill="url(#a)" fill-rule="evenodd" d="m 0,0 h 100 v 100 h -100 z"/><path fill="#fff" fill-rule="evenodd" d="m 51.253,61.25 c 0,0.689 -0.56,1.25 -1.25,1.25 -0.69,0 -1.25,-0.561 -1.25,-1.25 0,-0.689 0.56,-1.25 1.25,-1.25 0.69,0 1.25,0.561 1.25,1.25 z m -5,0 c 0,2.067 1.683,3.75 3.75,3.75 2.067,0 3.75,-1.682 3.75,-3.75 0,-2.067 -1.683,-3.75 -3.75,-3.75 -2.067,0 -3.75,1.682 -3.75,3.75 z m -1.25,12.5 h 10 v -2.5 h -10 z m -1.25,2.5 h 12.5 v -7.5 h -12.5 z m -2.5,-8.75 v 10 c 0,0.69 0.559,1.25 1.25,1.25 h 15 c 0.691,0 1.25,-0.56 1.25,-1.25 v -10 c 0,-0.69 -0.559,-1.25 -1.25,-1.25 h -15 c -0.691,0 -1.25,0.56 -1.25,1.25 z m 18.75,13.75 h -20 v -19.389 l 10,-7.777 10,7.777 z m -9.233,-29.737 c -0.451,-0.35 -1.084,-0.35 -1.535,0 l -11.25,8.75 c -0.304,0.237 -0.483,0.601 -0.482,0.987 v 21.25 c 0,0.69 0.559,1.25 1.25,1.25 h 22.5 c 0.691,0 1.25,-0.56 1.25,-1.25 v -21.25 c 0,-0.386 -0.179,-0.75 -0.483,-0.987 z m 20.483,2.237 c -0.69,0 -1.25,-0.561 -1.25,-1.25 0,-0.689 0.56,-1.25 1.25,-1.25 0.69,0 1.25,0.561 1.25,1.25 0,0.689 -0.56,1.25 -1.25,1.25 z m -4.98,-19.938 c -0.7,0 -1.27,-0.57 -1.27,-1.27 0,-0.7 0.57,-1.27 1.27,-1.27 0.7,0 1.27,0.57 1.27,1.27 0,0.7 -0.57,1.27 -1.27,1.27 z m -5.02,9.938 c 0.69,0 1.25,0.561 1.25,1.25 0,0.689 -0.56,1.25 -1.25,1.25 -0.69,0 -1.25,-0.561 -1.25,-1.25 0,-0.689 0.56,-1.25 1.25,-1.25 z m 21.867,-2.335 -8.117,-4.64 v -9.275 c 0,-0.417 -0.209,-0.807 -0.557,-1.04 l -15,-10 c -0.396,-0.262 -0.906,-0.28 -1.318,-0.042 l -8.123,4.687 -8.127,-4.687 c -0.39,-0.225 -0.867,-0.224 -1.255,0.002 l -15,8.75 c -0.385,0.224 -0.62,0.636 -0.62,1.08 v 10.525 l -8.12,4.64 c -0.39,0.222 -0.63,0.636 -0.631,1.085 v 0.522 c -10e-4,0.026 -0.003,0.051 -0.002,0.077 v 13.605 c 0,0.025 0.001,0.05 0.002,0.074 v 1.972 c 0,0.474 0.268,0.906 0.692,1.119 l 6.808,3.404 v 10.477 c 0,0.474 0.268,0.906 0.692,1.119 l 10,5 1.117,-2.238 -9.308,-4.653 v -10.478 c 0,-0.474 -0.268,-0.906 -0.692,-1.119 l -6.808,-3.403 -0.002,-7.205 6.81,-3.404 -1.117,-2.237 -5.693,2.845 0.002,-4.75 7.451,-4.259 6.299,4.181 v 6.16 l -5.642,3.369 1.283,2.145 5.624,-3.357 5.591,3.355 1.287,-2.142 -5.643,-3.386 v -6.124 l 6.943,-4.629 c 0.348,-0.232 0.556,-0.622 0.557,-1.04 v -7.5 h -2.5 v 6.832 l -6.235,4.156 -6.265,-4.159 v -9.861 l 6.25,-3.645 v 10.427 h 2.5 v -11.886 l 5.003,-2.919 7.495,4.324 0.002,15.481 c 0,0.449 0.24,0.862 0.63,1.085 l 8.17,4.669 c -0.022,0.164 -0.05,0.326 -0.05,0.496 0,2.067 1.683,3.75 3.75,3.75 2.067,0 3.75,-1.682 3.75,-3.75 0,-2.067 -1.683,-3.75 -3.75,-3.75 -0.993,0 -1.89,0.394 -2.562,1.025 l -7.438,-4.251 -0.002,-14.751 7.454,-4.303 13.798,9.199 v 3.081 h -2.688 c -0.529,-1.445 -1.917,-2.479 -3.542,-2.478 -2.079,0 -3.77,1.691 -3.77,3.77 0,2.079 1.691,3.77 3.77,3.77 1.656,0 3.068,-1.074 3.571,-2.562 h 2.659 v 3.75 c 0,0.449 0.24,0.862 0.63,1.085 l 8.117,4.64 v 13.365 l -6.296,-3.612 c 0.021,-0.157 0.049,-0.314 0.049,-0.478 0,-2.067 -1.683,-3.75 -3.75,-3.75 -2.067,0 -3.75,1.682 -3.75,3.75 0,2.067 1.683,3.75 3.75,3.75 0.999,0 1.901,-0.397 2.575,-1.036 l 6.03,3.46 -5.414,2.707 c -0.424,0.212 -0.691,0.645 -0.691,1.119 v 10.478 l -9.309,4.653 1.117,2.238 10,-5 c 0.424,-0.212 0.691,-0.645 0.692,-1.119 v -10.477 l 6.806,-3.404 c 0.424,-0.212 0.691,-0.645 0.691,-1.119 v -16.25 c 0,-0.449 -0.24,-0.862 -0.63,-1.085 z"/></g></svg>