<svg xmlns="http://www.w3.org/2000/svg" viewBox="0 0 100 100"><defs/><defs><linearGradient id="a" x1="0" x2="1" y1="1" y2="0"><stop offset="0%" stop-color="#C8511B"/><stop offset="100%" stop-color="#F90"/></linearGradient></defs><g><path fill="url(#a)" fill-rule="evenodd" d="m 0,0 h 100 v 100 h -100 z"/><path fill="#fff" fill-rule="evenodd" d="m 33.75,66.25 h 31.25 v -31.25 h -31.25 z m 33.75,-31.25 h 5 v 2.5 h -5 v 5 h 5 v 2.5 h -5 v 3.75 h 5 v 2.5 h -5 v 5 h 5 v 2.5 h -5 v 5 h 5 v 2.5 h -5 v 0.17 c 0,1.285 -1.045,2.33 -2.33,2.33 h -0.17 v 5 h -2.5 v -5 h -5 v 5 h -2.5 v -5 h -3.75 v 5 h -2.5 v -5 h -5 v 5 h -2.5 v -5 h -5 v 5 h -2.5 v -5 h -0.17 c -1.285,0 -2.33,-1.045 -2.33,-2.33 v -0.17 h -3.75 v -2.5 h 3.75 v -5 h -3.75 v -2.5 h 3.75 v -5 h -3.75 v -2.5 h 3.75 v -3.75 h -3.75 v -2.5 h 3.75 v -5 h -3.75 v -2.5 h 3.75 v -0.17 c 0,-1.285 1.045,-2.33 2.33,-2.33 h 0.17 v -5 h 2.5 v 5 h 5 v -5 h 2.5 v 5 h 5 v -5 h 2.5 v 5 h 3.75 v -5 h 2.5 v 5 h 5 v -5 h 2.5 v 5 h 0.17 c 1.285,0 2.33,1.045 2.33,2.33 z m -16.25,47.345 c 0,0.085 -0.07,0.155 -0.155,0.155 h -33.44 c -0.085,0 -0.155,-0.07 -0.155,-0.155 v -33.44 c 0,-0.085 0.07,-0.155 0.155,-0.155 h 7.345 v -2.5 h -7.345 c -1.464,0 -2.655,1.191 -2.655,2.655 v 33.44 c 0,1.464 1.191,2.655 2.655,2.655 h 33.44 c 1.464,0 2.655,-1.191 2.655,-2.655 v -6.095 h -2.5 z m 33.75,-64.69 v 33.44 c 0,1.464 -1.191,2.655 -2.655,2.655 h -7.345 v -2.5 h 7.345 c 0.085,0 0.155,-0.07 0.155,-0.155 v -33.44 c 0,-0.085 -0.07,-0.155 -0.155,-0.155 h -33.44 c -0.085,0 -0.155,0.07 -0.155,0.155 v 7.345 h -2.5 v -7.345 c 0,-1.464 1.191,-2.655 2.655,-2.655 h 33.44 c 1.464,0 2.655,1.191 2.655,2.655 z"/></g></svg>