<svg xmlns="http://www.w3.org/2000/svg" viewBox="0 0 100 100"><defs/><defs><linearGradient id="a" x1="0" x2="1" y1="1" y2="0"><stop offset="0%" stop-color="#B0084D"/><stop offset="100%" stop-color="#FF4F8B"/></linearGradient></defs><g><path fill="url(#a)" fill-rule="evenodd" d="m 0,0 h 100 v 100 h -100 z"/><path fill="#fff" fill-rule="evenodd" d="m 83.15,34.976 -6.883,-1.739 c 6.83,11.909 5.746,27.513 -2.984,37.515 -5.965,6.836 -14.817,10.498 -23.718,10.498 -5.179,0 -10.373,-1.24 -15.026,-3.814 l 1.19,-2.197 c 11.66,6.453 27.007,3.812 35.695,-6.143 8.074,-9.249 9.03,-23.727 2.625,-34.744 l -1.786,7.226 -2.404,-0.607 2.478,-10.018 c 0.166,-0.67 0.837,-1.083 1.502,-0.911 l 9.911,2.505 z m -57.202,29.508 1.789,-7.234 2.403,0.607 -2.477,10.018 c -0.14,0.57 -0.645,0.949 -1.201,0.949 -0.099,0 -0.201,-0.011 -0.301,-0.038 l -9.911,-2.504 0.6,-2.429 6.872,1.735 c -6.777,-11.707 -5.67,-26.209 3.102,-36.261 9.572,-10.966 25.822,-13.776 38.639,-6.682 l -1.191,2.197 c -11.81,-6.535 -26.779,-3.953 -35.59,6.142 -8.094,9.274 -9.076,22.694 -2.734,33.5 z m 13.297,-9.834 c 1.583,0 2.872,1.302 2.872,2.904 0,1.6 -1.288,2.903 -2.872,2.903 -1.585,0 -2.873,-1.302 -2.873,-2.903 0,-1.602 1.288,-2.904 2.873,-2.904 z m 9.335,-11.089 c 0.455,0.128 0.925,0.218 1.42,0.218 0.465,0 0.908,-0.079 1.338,-0.193 l 4.622,9.981 c -0.784,0.719 -1.354,1.66 -1.608,2.735 h -9.917 c -0.249,-1.056 -0.803,-1.986 -1.566,-2.701 z m 1.42,-8.093 c 1.585,0 2.873,1.302 2.873,2.903 0,1.602 -1.288,2.904 -2.873,2.904 -1.583,0 -2.872,-1.302 -2.872,-2.904 0,-1.6 1.288,-2.903 2.872,-2.903 z m 12.415,22.086 c 0,1.6 -1.288,2.903 -2.873,2.903 -1.583,0 -2.872,-1.302 -2.872,-2.903 0,-1.602 1.288,-2.904 2.872,-2.904 1.585,0 2.873,1.302 2.873,2.904 z m -23.17,5.407 c 2.521,0 4.629,-1.778 5.19,-4.155 h 9.917 c 0.562,2.377 2.669,4.155 5.19,4.155 2.95,0 5.351,-2.426 5.351,-5.407 0,-2.983 -2.401,-5.408 -5.351,-5.409 -0.489,0 -0.955,0.089 -1.406,0.215 l -4.61,-9.953 c 1.109,-0.992 1.825,-2.424 1.825,-4.036 0,-2.982 -2.401,-5.407 -5.351,-5.407 -2.95,0 -5.35,2.426 -5.35,5.407 0,1.582 0.686,2.992 1.76,3.981 l -5.704,10.025 c -0.467,-0.135 -0.95,-0.232 -1.461,-0.232 -2.95,0 -5.351,2.426 -5.351,5.409 0,2.982 2.401,5.407 5.351,5.407 z"/></g></svg>