<svg xmlns="http://www.w3.org/2000/svg" viewBox="0 0 100 100"><defs/><defs><linearGradient id="a" x1="0" x2="1" y1="1" y2="0"><stop offset="0%" stop-color="#C8511B"/><stop offset="100%" stop-color="#F90"/></linearGradient></defs><g><path fill="url(#a)" fill-rule="evenodd" d="m 0,0 h 100 v 100 h -100 z"/><path fill="#fff" fill-rule="evenodd" d="m 62.29,75.556 c 0.384,0.574 0.229,1.351 -0.346,1.734 l -11.239,7.49 c -0.2,0.139 -0.444,0.22 -0.706,0.22 -0.262,0 -0.506,-0.081 -0.708,-0.22 l -11.235,-7.49 c -0.575,-0.382 -0.73,-1.16 -0.346,-1.734 0.382,-0.575 1.156,-0.731 1.734,-0.346 l 9.305,6.204 v -11.414 c 0,-0.691 0.559,-1.25 1.25,-1.25 0.691,0 1.25,0.559 1.25,1.25 v 11.415 l 9.307,-6.205 c 0.575,-0.385 1.35,-0.229 1.734,0.346 z m 15.21,-10.005 -6.875,4.23 -6.875,-4.23 v -7.353 l 6.875,-4.23 6.875,4.23 z m 1.905,-9.116 -8.125,-5 c -0.402,-0.247 -0.907,-0.247 -1.31,0 l -8.125,5 c -0.37,0.227 -0.595,0.631 -0.595,1.065 v 8.75 c 0,0.434 0.225,0.836 0.595,1.064 l 8.125,5 c 0.201,0.124 0.427,0.186 0.655,0.186 0.227,0 0.454,-0.063 0.655,-0.186 l 8.125,-5 c 0.37,-0.227 0.595,-0.63 0.595,-1.064 v -8.75 c 0,-0.434 -0.225,-0.837 -0.595,-1.065 z m -43.155,9.116 -6.875,4.23 -6.875,-4.23 v -7.353 l 6.875,-4.23 6.875,4.23 z m 2.5,0.699 v -8.75 c 0,-0.434 -0.225,-0.837 -0.595,-1.065 l -8.125,-5 c -0.402,-0.247 -0.907,-0.247 -1.31,0 l -8.125,5 c -0.37,0.227 -0.595,0.631 -0.595,1.065 v 8.75 c 0,0.434 0.225,0.836 0.595,1.064 l 8.125,5 c 0.201,0.124 0.427,0.186 0.655,0.186 0.227,0 0.454,-0.063 0.655,-0.186 l 8.125,-5 c 0.37,-0.227 0.595,-0.63 0.595,-1.064 z m -18.75,-20 v -12.477 c -0.004,-0.209 0.044,-0.422 0.151,-0.619 v 0 -0.001 c 0.004,-0.006 0.007,-0.013 0.012,-0.019 0,-10e-4 0.001,-10e-4 0.001,-0.002 0.121,-0.212 0.295,-0.376 0.496,-0.484 l 11.234,-6.24 c 0.601,-0.336 1.364,-0.119 1.699,0.485 0.336,0.604 0.119,1.365 -0.487,1.7 l -9.281,5.157 9.281,5.158 c 0.605,0.335 0.822,1.096 0.487,1.7 -0.335,0.601 -1.097,0.821 -1.699,0.485 l -9.394,-5.219 v 10.376 c 0,0.69 -0.559,1.25 -1.25,1.25 -0.691,0 -1.25,-0.56 -1.25,-1.25 z m 23.75,-23.052 6.875,-4.23 6.875,4.23 v 7.354 l -6.875,4.23 -6.875,-4.23 z m -1.905,9.116 8.125,5 c 0.201,0.124 0.427,0.186 0.655,0.186 0.227,0 0.454,-0.063 0.655,-0.186 l 8.125,-5 c 0.37,-0.227 0.595,-0.63 0.595,-1.064 v -8.749 c 0,-0.434 -0.225,-0.837 -0.595,-1.065 l -8.125,-5 c -0.402,-0.247 -0.907,-0.247 -1.31,0 l -8.125,5 c -0.37,0.227 -0.595,0.631 -0.595,1.065 v 8.749 c 0,0.434 0.225,0.836 0.595,1.064 z m 38.155,1.459 v 12.477 c 0,0.69 -0.559,1.25 -1.25,1.25 -0.691,0 -1.25,-0.56 -1.25,-1.25 v -10.376 l -9.394,5.219 c -0.601,0.336 -1.362,0.117 -1.699,-0.485 -0.336,-0.604 -0.119,-1.365 0.487,-1.7 l 9.282,-5.158 -9.282,-5.157 c -0.605,-0.335 -0.822,-1.096 -0.487,-1.7 0.336,-0.604 1.097,-0.821 1.699,-0.485 l 11.234,6.24 c 0.205,0.109 0.381,0.277 0.502,0.495 0.111,0.2 0.161,0.416 0.158,0.63 z m -36.25,7.11 16.2,9.077 -16.2,9.149 z m -1.88,21.446 c 0.194,0.114 0.412,0.171 0.63,0.171 0.212,0 0.424,-0.054 0.615,-0.162 l 20,-11.294 c 0.394,-0.221 0.636,-0.639 0.635,-1.09 -10e-4,-0.451 -0.245,-0.867 -0.639,-1.089 l -20,-11.206 c -0.387,-0.216 -0.86,-0.211 -1.243,0.013 -0.382,0.225 -0.617,0.635 -0.618,1.078 v 22.5 c 0,0.444 0.235,0.855 0.62,1.079 z"/></g></svg>