<svg xmlns="http://www.w3.org/2000/svg" viewBox="0 0 100 100"><defs/><defs><linearGradient id="a" x1="0" x2="1" y1="1" y2="0"><stop offset="0%" stop-color="#4D27A8"/><stop offset="100%" stop-color="#A166FF"/></linearGradient></defs><g><path fill="url(#a)" fill-rule="evenodd" d="m 0,0 h 100 v 100 h -100 z"/><path fill="#fff" fill-rule="evenodd" d="m 83.281,55.09 -0.927,2.32 c -3.998,-1.599 -8.874,-2.41 -14.494,-2.41 v -2.5 c 5.94,0 11.127,0.871 15.421,2.59 z m -0.859,-1.404 c -3.633,-1.206 -10.982,-2.436 -14.562,-2.436 v -2.5 c 3.62,0 10.939,-1.229 14.505,-2.434 l 0.8,2.368 c -1.368,0.464 -3.215,0.921 -5.2,1.321 2.009,0.399 3.88,0.855 5.246,1.309 z m 0.842,-8.768 c -4.476,1.714 -9.659,2.582 -15.404,2.582 v -2.5 c 5.439,0 10.32,-0.814 14.51,-2.417 z m -20.445,9.106 -12.5,3.125 v -14.298 l 12.5,3.125 z m -15,5.976 h -3.75 v -20 h 3.75 v 1.25 17.5 z m 16.552,-16.213 -14.052,-3.513 v -1.524 c 0,-0.69 -0.559,-1.25 -1.25,-1.25 h -6.25 c -0.691,0 -1.25,0.56 -1.25,1.25 v 1.162 c -19.003,-1.386 -21.25,-9.139 -21.25,-14.912 v -6.25 h -2.5 v 6.25 c 0,10.586 7.788,16.279 23.75,17.409 v 1.295 c -9.704,-0.389 -16.671,-1.92 -21.837,-4.795 l -1.216,2.183 c 5.536,3.084 12.891,4.713 23.053,5.113 v 2.517 c -7.06,-0.168 -16.624,-0.635 -23.432,-2.431 l -0.637,2.418 c 2.041,0.539 4.311,0.959 6.677,1.291 -2.366,0.334 -4.636,0.754 -6.677,1.291 l 0.637,2.418 c 6.809,-1.796 16.373,-2.264 23.432,-2.43 v 2.517 c -10.105,0.395 -17.456,2.024 -23.049,5.11 l 1.209,2.189 c 5.219,-2.88 12.203,-4.4 21.84,-4.786 v 1.276 c -20.619,1.518 -23.75,12.293 -23.75,18.665 l -0.003,0.49 c -0.021,4.03 -0.009,4.478 0.01,4.644 l 2.489,-0.232 c -0.014,-0.227 -0.013,-1.708 10e-4,-4.398 l 0.003,-0.504 c 0,-9.525 7.354,-15.084 21.25,-16.15 v 1.15 c 0,0.69 0.559,1.25 1.25,1.25 h 6.25 c 0.691,0 1.25,-0.56 1.25,-1.25 v -1.524 l 14.052,-3.514 c 0.556,-0.139 0.948,-0.639 0.948,-1.212 v -10 c 0,-0.574 -0.391,-1.074 -0.948,-1.213 z"/></g></svg>