<svg xmlns="http://www.w3.org/2000/svg" viewBox="0 0 100 100"><defs/><defs><linearGradient id="a" x1="0" x2="1" y1="1" y2="0"><stop offset="0%" stop-color="#055F4E"/><stop offset="100%" stop-color="#56C0A7"/></linearGradient></defs><g><path fill="url(#a)" fill-rule="evenodd" d="m 0,0 h 100 v 100 h -100 z"/><path fill="#fff" fill-rule="evenodd" d="m 50.028,48.756 h 8.759 v -2.5 h -8.759 z m 3.753,13.75 h 2.502 v -6.25 h -2.502 z m -18.765,-21.251 h 5.004 v -2.5 h -5.004 z m -13.762,13.751 h 18.766 v -2.5 h -18.766 z m 0,-6.25 h 26.272 v -2.5 h -26.272 z m 28.774,16.25 h 2.502 v -11.25 h -2.502 z m 18.766,0 h 2.502 v -10 h -2.502 z m -3.753,2.5 h 2.502 v -16.25 h -2.502 z m -3.753,-1.25 h 2.502 v -13.75 h -2.502 z m -3.752,-1.25 h 2.502 v -11.25 h -2.502 z m 26.035,16.4 -5.706,-11.16 c 1.982,-3.274 3.025,-7.04 3.025,-10.936 0,-11.79 -9.595,-21.384 -21.389,-21.385 -3.495,0 -6.955,0.856 -10.005,2.475 l 1.174,2.209 c 2.69,-1.429 5.744,-2.184 8.831,-2.184 10.414,0 18.887,8.471 18.887,18.885 0,3.659 -1.04,7.181 -3.007,10.188 -0.246,0.375 -0.271,0.854 -0.068,1.254 l 4.799,9.385 -9.549,-4.776 c -0.383,-0.191 -0.841,-0.174 -1.21,0.05 -2.984,1.811 -6.39,2.769 -9.852,2.769 -9.402,0 -17.45,-7.004 -18.721,-16.29 l -2.479,0.337 c 1.44,10.52 10.554,18.453 21.2,18.453 3.689,0 7.321,-0.959 10.549,-2.78 l 11.379,5.691 c 0.223,0.106 0.463,0.159 0.7,0.159 0.432,0 0.854,-0.171 1.168,-0.495 0.482,-0.498 0.589,-1.244 0.274,-1.849 z m -62.317,-40.151 h 11.26 v -2.5 h -11.26 z m 17.515,-11.25 h 9.49 l -9.49,-9.482 z m -20.017,18.751 h -2.502 v -31.251 c 0,-0.69 0.559,-1.25 1.251,-1.25 l 20.017,-0.005 c 0.327,0 0.647,0.133 0.884,0.371 l 13.762,13.751 c 0.239,0.24 0.367,0.56 0.366,0.883 v 3.75 h -2.502 v -2.5 h -12.51 c -0.692,0 -1.251,-0.559 -1.251,-1.25 v -12.505 l -17.515,0.005 z m 0,16.25 h 17.515 v 2.5 h -18.766 c -0.692,0 -1.251,-0.559 -1.251,-1.25 v -11.25 h 2.502 z"/></g></svg>