<svg xmlns="http://www.w3.org/2000/svg" viewBox="0 0 100 100"><defs/><defs><linearGradient id="a" x1="0" x2="1" y1="1" y2="0"><stop offset="0%" stop-color="#C8511B"/><stop offset="100%" stop-color="#F90"/></linearGradient></defs><g><path fill="url(#a)" fill-rule="evenodd" d="m 0,0 h 100 v 100 h -100 z"/><path fill="#fff" fill-rule="evenodd" d="m 36.25,65.477 -6.25,3.125 -6.25,-3.125 v -7.206 l 6.25,-3.125 6.25,3.125 z m 2.5,0.772 v -8.75 c 0,-0.474 -0.268,-0.906 -0.691,-1.118 l -7.5,-3.75 c -0.351,-0.176 -0.766,-0.176 -1.118,0 l -7.5,3.75 c -0.424,0.211 -0.691,0.644 -0.691,1.118 v 8.75 c 0,0.474 0.268,0.906 0.691,1.119 l 7.5,3.75 c 0.175,0.088 0.367,0.131 0.559,0.131 0.191,0 0.384,-0.044 0.559,-0.131 l 7.5,-3.75 c 0.424,-0.213 0.691,-0.645 0.691,-1.119 z m 26.25,6.338 v -13.121 l 12.5,-7.291 v 13.349 z m -13.75,7.775 v -11.838 l 9.85,6.276 z m -13.75,-38.864 v -14.313 l 11.25,6.65 -0.004,7.413 2.5,0.001 0.003,-5.939 h 10e-4 l 11.25,6.651 v 14.354 l -3.855,-2.764 -1.458,2.033 5.313,3.807 v 13.333 l -11.25,-7.162 v -15.564 c 0,-0.45 -0.236,-0.863 -0.637,-1.087 z m -2.5,-14.088 v 12.675 l -11.213,-6.337 z m 15,-8.476 11.094,6.272 -10.61,6.753 -11.498,-6.799 z m 15,23.087 12.5,-6.251 v 13.51 l -12.5,7.292 z m -1.436,-15.424 12.526,7.083 -12.287,6.144 -0.003,-10e-4 -10.9,-6.438 h -10e-4 z m 15.798,6.063 -28.75,-16.251 c -0.376,-0.213 -0.849,-0.213 -1.225,0 l -28.75,16.251 c -0.401,0.225 -0.637,0.638 -0.637,1.088 v 15 h 2.5 v -12.863 l 26.25,14.838 v 29.577 l -10.61,-6.318 -1.28,2.148 12.501,7.445 0.001,-0.001 v 0.001 h 0.013 c 0.188,0.112 0.413,0.175 0.625,0.175 0.213,0 0.425,-0.05 0.612,-0.163 l 13,-7.35 1.25,-0.712 14.5,-8.188 c 0.401,-0.225 0.637,-0.638 0.638,-1.088 v -32.501 c 0,-0.45 -0.236,-0.863 -0.638,-1.088 z"/></g></svg>