<svg xmlns="http://www.w3.org/2000/svg" viewBox="0 0 100 100"><defs/><defs><linearGradient id="a" x1="0" x2="1" y1="1" y2="0"><stop offset="0%" stop-color="#C8511B"/><stop offset="100%" stop-color="#F90"/></linearGradient></defs><g><path fill="url(#a)" fill-rule="evenodd" d="m 0,0 h 100 v 100 h -100 z"/><path fill="#fff" fill-rule="evenodd" d="m 48.485,46.972 c -0.618,0.36 -1.003,1.028 -1.003,1.745 v 34.682 l -26.234,-14.669 v -34.095 l 29.448,-17.061 26.16,12.961 z m 31.415,-16.469 c 0,-0.718 -0.384,-1.388 -1.075,-1.784 l -27.142,-13.451 c -0.62,-0.357 -1.389,-0.359 -2.007,0.002 l -29.923,17.335 c -0.618,0.36 -1.003,1.028 -1.003,1.745 v 34.67 c 0,0.717 0.385,1.385 1.022,1.755 l 27.195,15.207 c 0.31,0.179 0.658,0.268 1.006,0.268 0.346,0 0.695,-0.089 1.003,-0.268 0.62,-0.359 1.004,-1.027 1.004,-1.745 v -35.235 l 28.917,-16.754 c 0.62,-0.359 1.003,-1.027 1.003,-1.745 z m 0.062,38.306 -23.736,14.518 v -13 l 12.376,-7.986 0.085,-0.561 c 0.022,-0.147 0.031,-0.147 0.032,-0.822 l 0.038,-15.508 11.243,-6.514 z m 1.534,-32.47 c -0.621,-0.362 -1.39,-0.361 -2.01,0 l -11.969,6.934 c -0.375,0.204 -1.257,0.684 -1.257,1.675 l -0.04,15.949 -11.406,7.361 c -0.681,0.406 -1.086,1.049 -1.086,1.728 v 14.149 c 0,0.708 0.381,1.354 1.019,1.724 0.334,0.192 0.705,0.29 1.075,0.289 0.364,0 0.727,-0.093 1.055,-0.283 l 24.582,-15.035 c 0.618,-0.36 1.001,-1.028 1.001,-1.741 l 0.04,-31.006 c 0,-0.717 -0.385,-1.385 -1.004,-1.744 z"/></g></svg>