<svg xmlns="http://www.w3.org/2000/svg" viewBox="0 0 100 100"><defs/><defs><linearGradient id="a" x1="0" x2="1" y1="1" y2="0"><stop offset="0%" stop-color="#BD0816"/><stop offset="100%" stop-color="#FF5252"/></linearGradient></defs><g><path fill="url(#a)" fill-rule="evenodd" d="m 0,0 h 100 v 100 h -100 z"/><path fill="#fff" fill-rule="evenodd" d="m 48.45,54.2 c 0,0.855 0.696,1.55 1.55,1.55 0.855,0 1.55,-0.695 1.55,-1.55 0,-0.855 -0.695,-1.55 -1.55,-1.55 -0.854,0 -1.55,0.695 -1.55,1.55 z m -2.5,0 c 0,-2.234 1.816,-4.05 4.05,-4.05 2.234,0 4.05,1.816 4.05,4.05 0,1.795 -1.18,3.302 -2.8,3.832 v 3.218 h -2.5 v -3.218 c -1.62,-0.53 -2.8,-2.037 -2.8,-3.832 z m 15.3,-6.7 h -22.5 v 16.25 h 22.5 v -3.75 h -3.75 v -2.5 h 3.75 v -3.75 h -3.75 v -2.5 h 3.75 z m -18.75,-2.5 h 14.999 l 10e-4,-6.25 c 10e-4,-3.27 -3.571,-6.248 -7.495,-6.25 h -0.004 c -1.911,0 -3.841,0.717 -5.297,1.969 -1.4,1.202 -2.204,2.764 -2.204,4.282 z m 17.5,-6.249 -10e-4,6.249 h 2.501 c 0.691,0 1.25,0.56 1.25,1.25 v 18.75 c 0,0.69 -0.559,1.25 -1.25,1.25 h -25 c -0.691,0 -1.25,-0.56 -1.25,-1.25 v -18.75 c 0,-0.69 0.559,-1.25 1.25,-1.25 h 2.5 v -6.25 c 10e-4,-2.248 1.121,-4.499 3.074,-6.178 1.904,-1.635 4.428,-2.572 6.927,-2.572 h 0.004 c 5.326,0.003 9.996,4.091 9.995,8.751 z m -35.991,30.06 2.026,-1.465 c -3.419,-4.725 -5.309,-10.269 -5.54,-16.096 h 3.255 v -2.5 h -3.251 c 0.249,-5.793 2.136,-11.304 5.536,-16.002 l -2.026,-1.467 c -3.71,5.129 -5.76,11.146 -6.01,17.469 h -2.999 v 2.5 h 2.995 c 0.232,6.357 2.285,12.408 6.014,17.561 z m 43.288,5.199 c -4.711,3.41 -10.237,5.298 -16.047,5.539 v -3.299 h -2.5 v 3.299 c -5.81,-0.24 -11.338,-2.127 -16.051,-5.539 l -1.464,2.025 c 5.14,3.721 11.175,5.771 17.515,6.014 v 2.951 h 2.5 v -2.951 c 6.34,-0.242 12.372,-2.292 17.512,-6.014 z m -34.598,-47.927 c 4.714,-3.41 10.241,-5.298 16.051,-5.538 v 3.205 h 2.5 v -3.205 c 5.81,0.24 11.336,2.127 16.047,5.538 l 1.465,-2.025 c -5.14,-3.72 -11.173,-5.77 -17.512,-6.013 v -3.045 h -2.5 v 3.045 c -6.34,0.241 -12.375,2.291 -17.515,6.013 z m 49.3,22.667 c -0.25,-6.322 -2.3,-12.34 -6.012,-17.469 l -2.026,1.467 c 3.401,4.699 5.289,10.21 5.538,16.002 h -3.249 v 2.5 h 3.252 c -0.232,5.827 -2.121,11.371 -5.541,16.096 l 2.026,1.465 c 3.73,-5.154 5.781,-11.204 6.015,-17.561 h 2.998 v -2.5 z m -11.517,-17.42 9.8,-9.8 -1.767,-1.767 -9.8,9.8 z m -40.967,37.433 -9.8,9.8 1.767,1.767 9.801,-9.8 z m 6.318,-34.697 -18.552,-18.55 -1.767,1.768 18.551,18.55 z m 31.908,31.909 16.742,16.741 -1.768,1.768 -16.741,-16.741 z"/></g></svg>