<svg xmlns="http://www.w3.org/2000/svg" viewBox="0 0 100 100"><defs/><defs><linearGradient id="a" x1="0" x2="1" y1="1" y2="0"><stop offset="0%" stop-color="#C8511B"/><stop offset="100%" stop-color="#F90"/></linearGradient></defs><g><path fill="url(#a)" fill-rule="evenodd" d="m 0,0 h 100 v 100 h -100 z"/><path fill="#fff" fill-rule="evenodd" d="m 23.75,45 h -2.5 v -11.25 c 0,-0.458 0.249,-0.879 0.651,-1.097 l 13.75,-7.512 1.198,2.194 -13.099,7.156 z m 55,0 h -2.5 v -10.509 l -13.099,-7.158 1.198,-2.194 13.75,7.514 c 0.403,0.219 0.651,0.64 0.651,1.097 z m -36.865,33.589 -20,-11.305 c -0.393,-0.221 -0.635,-0.637 -0.635,-1.088 v -12.446 h 2.5 v 11.716 l 19.365,10.945 z m 16.23,0 -1.23,-2.178 19.365,-10.945 v -11.716 h 2.5 v 12.446 c 0,0.45 -0.242,0.866 -0.635,1.088 z m -14.365,-45.611 6.25,3.124 6.25,-3.125 v -8.455 l -6.25,-3.125 -6.25,3.125 z m -12.428,10.719 18.68,9.889 18.675,-9.889 -13.05,-7.613 -4.377,2.188 v 5.478 h -2.5 v -5.478 l -4.377,-2.188 z m -0.086,13.715 18.763,10.04 18.765,-10.04 -9.438,-5.935 -8.076,4.277 10e-4,2.996 h -2.5 l -10e-4,-2.999 -8.076,-4.275 z m 17.515,25.088 -10e-4,-12.88 -20.59,-11.018 c -0.393,-0.211 -0.644,-0.614 -0.659,-1.058 -0.016,-0.445 0.206,-0.865 0.584,-1.103 l 10.039,-6.315 -9.959,-5.271 c -0.401,-0.213 -0.655,-0.625 -0.665,-1.079 -0.008,-0.454 0.229,-0.877 0.62,-1.106 l 13.607,-7.938 c -0.297,-0.234 -0.478,-0.594 -0.477,-0.982 v -10 c 0,-0.474 0.268,-0.906 0.691,-1.119 l 7.5,-3.75 c 0.351,-0.175 0.766,-0.175 1.118,0 l 7.5,3.75 c 0.424,0.213 0.691,0.645 0.691,1.119 v 10 c 0,0.389 -0.18,0.749 -0.478,0.982 l 13.608,7.938 c 0.391,0.229 0.629,0.653 0.62,1.106 -0.01,0.453 -0.264,0.866 -0.665,1.079 l -9.959,5.272 10.039,6.314 c 0.378,0.237 0.6,0.657 0.584,1.103 -0.015,0.445 -0.266,0.849 -0.659,1.058 l -20.59,11.017 10e-4,12.881 z"/></g></svg>