<svg xmlns="http://www.w3.org/2000/svg" viewBox="0 0 100 100"><defs/><defs><linearGradient id="a" x1="0" x2="1" y1="1" y2="0"><stop offset="0%" stop-color="#1B660F"/><stop offset="100%" stop-color="#6CAE3E"/></linearGradient></defs><g><path fill="url(#a)" fill-rule="evenodd" d="m 0,0 h 100 v 100 h -100 z"/><path fill="#fff" fill-rule="evenodd" d="m 68.779,45.611 c -4.776,-3.528 -11.719,-5.621 -18.717,-5.621 -7.8,0 -14.256,1.928 -18.716,5.582 v 36.927 h 4.991 v -33.757 c 0,-0.444 0.235,-0.854 0.616,-1.079 3.52,-2.067 7.171,-3.922 13.109,-3.922 5.52,0 9.543,2.079 12.776,3.748 l 0.274,0.141 c 0.416,0.214 0.676,0.643 0.676,1.112 v 33.757 h 4.991 z m 2.016,-1.605 c 0.302,0.238 0.479,0.6 0.48,0.985 v 38.759 c 0,0.69 -0.558,1.25 -1.248,1.25 h -7.487 c -0.69,0 -1.248,-0.56 -1.248,-1.25 v -34.246 c -3.051,-1.573 -6.525,-3.263 -11.23,-3.263 -4.991,0 -8.109,1.427 -11.23,3.221 v 34.288 c 0,0.69 -0.558,1.25 -1.247,1.25 h -7.487 c -0.69,0 -1.248,-0.56 -1.248,-1.25 v -38.759 c 0,-0.363 0.157,-0.708 0.431,-0.944 4.931,-4.291 12.118,-6.558 20.781,-6.558 7.774,0 15.525,2.437 20.733,6.517 z m 14.205,2.468 c 0,7.102 -3.838,11.458 -10.809,12.263 l -0.286,-2.486 c 5.787,-0.668 8.6,-3.867 8.599,-9.777 0,-5.681 -3.35,-9.246 -9.956,-10.593 -0.554,-0.114 -0.962,-0.584 -0.996,-1.147 -0.322,-5.206 -3.4,-7.537 -6.307,-7.537 -1.84,0 -3.561,0.868 -4.72,2.382 -0.276,0.361 -0.72,0.548 -1.179,0.474 -0.449,-0.069 -0.826,-0.378 -0.983,-0.807 -1.007,-2.761 -2.535,-5.179 -4.418,-6.99 -2.356,-2.274 -8.816,-7.155 -17.933,-3.441 -5.249,2.145 -9.362,8.298 -9.362,14.007 0,0.64 0.039,1.258 0.118,1.885 0.005,0.045 0.009,0.091 0.01,0.138 v 0.002 0.003 10e-4 0.003 10e-4 0.002 0.002 0 0.002 0 0.003 0 0.002 c 0,0.63 -0.464,1.157 -1.07,1.244 -3.123,0.801 -8.213,3.191 -8.212,10.252 0,0.271 0.014,0.529 0.027,0.788 0.262,4.682 3.886,8.343 9.014,9.107 l -0.364,2.473 c -6.334,-0.943 -10.812,-5.541 -11.142,-11.444 -0.017,-0.306 -0.031,-0.608 -0.031,-0.924 0,-8.264 5.788,-11.329 9.191,-12.415 -0.024,-0.371 -0.036,-0.745 -0.036,-1.125 0,-6.763 4.693,-13.779 10.915,-16.323 7.272,-2.961 14.972,-1.483 20.605,3.954 1.729,1.664 3.192,3.761 4.29,6.135 1.491,-1.218 3.337,-1.892 5.28,-1.892 3.881,0 7.968,2.773 8.711,8.939 7.132,1.743 11.044,6.275 11.044,12.839 z"/></g></svg>