<svg xmlns="http://www.w3.org/2000/svg" viewBox="0 0 100 100"><defs/><defs><linearGradient id="a" x1="0" x2="1" y1="1" y2="0"><stop offset="0%" stop-color="#BD0816"/><stop offset="100%" stop-color="#FF5252"/></linearGradient></defs><g><path fill="url(#a)" fill-rule="evenodd" d="m 0,0 h 100 v 100 h -100 z"/><path fill="#fff" fill-rule="evenodd" d="m 17.994,51.25 h -2.995 v -2.5 h 2.999 c 0.25,-6.324 2.3,-12.34 6.011,-17.469 l 2.027,1.467 c -3.401,4.699 -5.289,10.21 -5.538,16.002 h 3.251 v 2.5 h -3.255 c 0.232,5.827 2.121,11.371 5.542,16.095 l -2.027,1.466 c -3.73,-5.154 -5.781,-11.205 -6.015,-17.561 z m 50.768,24.785 c -5.14,3.721 -11.173,5.771 -17.513,6.014 v 2.951 h -2.5 v -2.951 c -6.34,-0.242 -12.375,-2.292 -17.515,-6.014 l 1.465,-2.025 c 4.713,3.411 10.24,5.299 16.05,5.539 v -3.299 h 2.5 v 3.299 c 5.81,-0.241 11.336,-2.129 16.048,-5.539 z m -37.528,-51.977 c 5.14,-3.721 11.175,-5.771 17.515,-6.013 v -3.045 h 2.5 v 3.045 c 6.34,0.241 12.372,2.292 17.513,6.012 l -1.465,2.025 c -4.711,-3.41 -10.237,-5.298 -16.048,-5.537 v 3.205 h -2.5 v -3.205 c -5.81,0.239 -11.338,2.127 -16.05,5.537 z m 53.765,24.692 v 2.5 h -2.997 c -0.232,6.356 -2.285,12.408 -6.014,17.561 l -2.027,-1.466 c 3.42,-4.724 5.31,-10.268 5.541,-16.095 h -3.253 v -2.5 h 3.249 c -0.249,-5.793 -2.136,-11.304 -5.537,-16.002 l 2.027,-1.467 c 3.71,5.129 5.76,11.145 6.01,17.469 z m -16.285,-19.188 9.8,-9.8 1.768,1.768 -9.8,9.8 z m -37.432,40.968 -9.8,9.8 -1.768,-1.767 9.8,-9.801 z m 2.782,-34.696 -18.55,-18.55 1.768,-1.768 18.551,18.55 z m 31.819,28.282 18.599,18.6 -1.768,1.768 -18.6,-18.599 z m -26.304,-13.197 c 0.094,-0.166 0.195,-0.334 0.302,-0.501 2.101,-3.301 1.499,-7.806 0.831,-10.528 1.801,1.184 3.425,3.63 3.979,4.658 0.236,0.435 0.695,0.699 1.198,0.653 0.494,-0.039 0.917,-0.364 1.083,-0.83 1.861,-5.288 0.915,-9.262 -0.398,-11.838 1.591,0.926 2.824,2.259 3.64,3.957 1.77,3.678 1.376,8.711 -1.03,13.135 -3.286,6.045 -2.627,12.383 -1.88,15.792 -1.876,-0.809 -3.546,-1.722 -4.987,-2.727 -3.784,-2.637 -4.988,-7.806 -2.738,-11.771 z m 16.788,-0.421 c -0.081,0.511 0.159,1.02 0.606,1.28 0.446,0.259 1.009,0.217 1.413,-0.108 0.101,-0.081 2.151,-1.774 3.143,-5.867 1.196,1.74 2.447,5.251 0.783,11.701 -1.647,6.381 -9.463,8.176 -12.251,8.617 -0.674,-2.416 -2.04,-9.123 1.321,-15.302 2.385,-4.387 3.018,-9.349 1.822,-13.443 2.263,2.657 4.171,6.84 3.163,13.121 z m -18.965,-0.81 c -2.877,5.075 -1.348,11.686 3.485,15.053 2.188,1.525 4.838,2.849 7.875,3.935 0.139,0.05 0.28,0.074 0.421,0.074 0.026,0 0.049,-0.014 0.074,-0.015 l 0.001,0.011 c 0.531,-0.041 13.024,-1.126 15.474,-10.617 3.152,-12.207 -3.161,-15.829 -3.431,-15.978 -0.366,-0.2 -0.81,-0.205 -1.182,-0.011 -0.371,0.195 -0.62,0.563 -0.662,0.979 -0.089,0.844 -0.227,1.595 -0.395,2.259 -0.865,-9.585 -8.464,-13.485 -10,-14.179 -1.575,-1.206 -3.49,-2.035 -5.71,-2.429 -0.557,-0.101 -1.11,0.19 -1.348,0.703 -0.24,0.511 -0.104,1.124 0.329,1.487 0.188,0.159 4.082,3.536 2.971,9.964 -1.451,-1.904 -3.761,-4.199 -6.478,-4.199 -0.413,0 -0.797,0.204 -1.03,0.544 -0.234,0.34 -0.284,0.774 -0.137,1.157 0.027,0.068 2.575,6.781 0.112,10.65 -0.13,0.205 -0.254,0.41 -0.369,0.611 z"/></g></svg>