<svg xmlns="http://www.w3.org/2000/svg" viewBox="0 0 100 100"><defs/><defs><linearGradient id="a" x1="0" x2="1" y1="1" y2="0"><stop offset="0%" stop-color="#2E27AD"/><stop offset="100%" stop-color="#527FFF"/></linearGradient></defs><g><path fill="url(#a)" fill-rule="evenodd" d="m 0,0 h 100 v 100 h -100 z"/><path fill="#fff" fill-rule="evenodd" d="m 77.5,66.771 -26.25,14.837 v -10.359 h -2.5 v 10.359 l -26.25,-14.837 v -32.015 l 8.088,5.055 1.325,-2.122 -8.199,-5.123 26.885,-14.88 25.616,14.793 -9.321,5.178 1.212,2.186 9.394,-5.219 z m 1.875,-35.354 -28.139,-16.25 c -0.378,-0.219 -0.846,-0.222 -1.23,-0.011 l -29.361,16.25 c -0.399,0.221 -0.645,0.64 -0.645,1.093 v 35 c 0,0.451 0.242,0.867 0.635,1.089 l 28.75,16.25 c 0.19,0.109 0.403,0.161 0.615,0.161 0.213,0 0.425,-0.053 0.615,-0.161 l 28.75,-16.25 c 0.393,-0.221 0.635,-0.637 0.635,-1.089 v -35 c 0,-0.446 -0.237,-0.859 -0.625,-1.082 z m -15.625,26.882 -12.5,7.218 v -14.744 l 12.5,-6.25 z m -13.381,-9.881 -12.139,-7.015 11.741,-6.222 12.403,7.235 z m -1.619,17.099 -12.5,-7.218 v -15.153 l 12.5,7.223 z m 16.88,-24.096 -15,-8.75 c -0.375,-0.22 -0.834,-0.227 -1.216,-0.025 l -15,7.95 c -0.409,0.217 -0.664,0.643 -0.664,1.105 v 17.32 c 0,0.448 0.237,0.86 0.625,1.083 l 15,8.66 c 0.193,0.111 0.409,0.168 0.625,0.168 0.216,0 0.432,-0.056 0.625,-0.168 l 15,-8.66 c 0.388,-0.224 0.625,-0.636 0.625,-1.083 v -16.522 c 0,-0.444 -0.235,-0.855 -0.62,-1.078 z"/></g></svg>