<svg xmlns="http://www.w3.org/2000/svg" viewBox="0 0 100 100"><defs/><defs><linearGradient id="a" x1="0" x2="1" y1="1" y2="0"><stop offset="0%" stop-color="#BD0816"/><stop offset="100%" stop-color="#FF5252"/></linearGradient></defs><g><path fill="url(#a)" fill-rule="evenodd" d="m 0,0 h 100 v 100 h -100 z"/><path fill="#fff" fill-rule="evenodd" d="m 46.25,47.5 c -3.038,0 -5,-1.963 -5,-5 0,-3.038 1.963,-5 5,-5 3.038,0 5,1.963 5,5 0,3.038 -1.963,5 -5,5 z m 18.75,-6.25 h -11.345 c -0.529,-3.735 -3.42,-6.25 -7.405,-6.25 -4.415,0 -7.5,3.084 -7.5,7.5 0,4.416 3.085,7.5 7.5,7.5 3.985,0 6.876,-2.515 7.405,-6.25 h 11.345 z m -31.25,1.25 c 0,6.994 5.491,12.474 12.5,12.474 5.012,0 9.454,-3.581 11.315,-9.122 l 2.37,0.795 c -2.209,6.576 -7.58,10.826 -13.685,10.827 -8.271,0 -15,-6.717 -15,-14.974 0,-8.271 6.729,-15 15,-15 6.549,0 11.665,3.59 13.685,9.603 l -2.37,0.795 c -1.686,-5.019 -5.81,-7.897 -11.315,-7.898 -6.893,0 -12.5,5.607 -12.5,12.5 z m -16.25,13.75 h 3.75 v -6.25 h -3.75 z m 0,-22.5 h 3.75 v -6.25 h -3.75 z m 6.25,23.75 v -8.75 -13.75 -8.75 -7.5 h 46.25 v 33.75 h 2.5 v -33.75 c 0,-2.306 -1.29,-2.5 -2.5,-2.5 h -46.25 c -1.21,0 -2.5,0.194 -2.5,2.5 v 6.25 h -5 c -0.691,0 -1.25,0.56 -1.25,1.25 v 8.75 c 0,0.69 0.559,1.25 1.25,1.25 h 5 v 11.25 h -5 c -0.691,0 -1.25,0.56 -1.25,1.25 v 8.75 c 0,0.69 0.559,1.25 1.25,1.25 h 5 v 7.5 c 0,1.939 0.56,2.5 2.5,2.5 h 26.25 v -2.5 h -26.25 z m 58.75,25 h -1.983 l -2.133,-2.134 c -0.234,-0.235 -0.551,-0.366 -0.884,-0.366 h -2.5 v -1.25 c 0,-0.331 -0.131,-0.65 -0.366,-0.884 l -1.25,-1.25 c -0.234,-0.235 -0.551,-0.366 -0.884,-0.366 h -2.5 v -2.5 c 0,-0.331 -0.131,-0.65 -0.366,-0.884 l -1.925,-1.926 c -0.077,-0.089 -0.169,-0.169 -0.27,-0.235 -0.356,-0.23 -0.806,-0.263 -1.194,-0.088 -0.979,0.444 -2.024,0.669 -3.106,0.669 -4.146,0 -7.519,-3.373 -7.519,-7.517 0,-4.146 3.373,-7.519 7.519,-7.519 4.145,0 7.518,3.373 7.517,7.519 0,1.335 -0.182,2.417 -0.545,3.215 -0.215,0.474 -0.114,1.032 0.255,1.4 l 12.134,12.134 z m 2.134,-3.384 -11.931,-11.931 c 0.301,-0.971 0.454,-2.116 0.453,-3.416 0,-5.525 -4.494,-10.019 -10.017,-10.019 -5.524,0 -10.019,4.494 -10.019,10.019 0,5.524 4.495,10.017 10.019,10.017 1.144,0 2.255,-0.189 3.317,-0.561 l 1.044,1.042 v 3.233 c 0,0.69 0.559,1.25 1.25,1.25 h 3.232 l 0.518,0.517 v 1.983 c 0,0.69 0.559,1.25 1.25,1.25 h 3.232 l 2.134,2.134 c 0.234,0.235 0.551,0.366 0.884,0.366 h 3.75 c 0.691,0 1.25,-0.56 1.25,-1.25 v -3.75 c 0,-0.331 -0.131,-0.65 -0.366,-0.884 z m -21.495,-14.08 c -0.7,0 -1.269,-0.569 -1.269,-1.267 0,-0.7 0.569,-1.269 1.269,-1.269 0.699,0 1.268,0.569 1.267,1.269 0,0.699 -0.569,1.268 -1.267,1.267 z m 0,-5.036 c -2.077,0 -3.769,1.691 -3.769,3.769 0,2.077 1.691,3.767 3.769,3.767 2.077,0 3.767,-1.69 3.767,-3.767 0,-2.077 -1.69,-3.769 -3.767,-3.769 z"/></g></svg>