<svg xmlns="http://www.w3.org/2000/svg" viewBox="0 0 100 100"><defs/><defs><linearGradient id="a" x1="0" x2="1" y1="1" y2="0"><stop offset="0%" stop-color="#4D27A8"/><stop offset="100%" stop-color="#A166FF"/></linearGradient></defs><g><path fill="url(#a)" fill-rule="evenodd" d="m 0,0 h 100 v 100 h -100 z"/><path fill="#fff" fill-rule="evenodd" d="m 81.098,30 c 0,-1.379 -1.121,-2.5 -2.5,-2.5 -1.379,0 -2.5,1.121 -2.5,2.5 0,1.379 1.121,2.5 2.5,2.5 1.379,0 2.5,-1.121 2.5,-2.5 z m -28.75,28.75 c 0,-1.379 -1.121,-2.5 -2.5,-2.5 -1.379,0 -2.5,1.121 -2.5,2.5 0,1.379 1.121,2.5 2.5,2.5 1.379,0 2.5,-1.121 2.5,-2.5 z m -2.5,-17.5 c 1.379,0 2.5,-1.121 2.5,-2.5 0,-1.379 -1.121,-2.5 -2.5,-2.5 -1.379,0 -2.5,1.121 -2.5,2.5 0,1.379 1.121,2.5 2.5,2.5 z m -26.25,25 c 0,-1.379 -1.121,-2.5 -2.5,-2.5 -1.379,0 -2.5,1.121 -2.5,2.5 0,1.379 1.121,2.5 2.5,2.5 1.379,0 2.5,-1.121 2.5,-2.5 z m 60,-36.25 c 0,2.757 -2.243,5 -5,5 -1.039,0 -2.005,-0.319 -2.803,-0.864 l -21.678,22.049 c 0.454,0.752 0.731,1.624 0.731,2.565 0,2.757 -2.243,5 -5,5 -2.757,0 -5,-2.243 -5,-5 0,-2.323 1.599,-4.264 3.75,-4.822 v -10.355 c -0.759,-0.198 -1.444,-0.569 -2.018,-1.07 l -21.263,21.09 c 0.489,0.771 0.781,1.679 0.781,2.657 0,2.757 -2.243,5 -5,5 -2.757,0 -5,-2.243 -5,-5 0,-2.757 2.243,-5 5,-5 0.87,0 1.678,0.244 2.39,0.636 l 21.662,-21.486 c -0.182,-0.52 -0.301,-1.069 -0.302,-1.65 0,-2.757 2.243,-5 5,-5 2.757,0 5,2.243 5,5 0,2.323 -1.599,4.264 -3.75,4.823 v 10.355 c 0.439,0.114 0.85,0.288 1.233,0.508 l 21.821,-22.196 c -0.343,-0.677 -0.554,-1.431 -0.554,-2.24 0,-2.757 2.243,-5 5,-5 2.757,0 5,2.243 5,5 z m -62.5,-8.75 h 57.5 v 1.25 h 2.5 v -2.5 c 0,-0.69 -0.559,-1.25 -1.25,-1.25 h -60 c -0.691,0 -1.25,0.56 -1.25,1.25 v 38.75 h 2.5 z m 57.5,16.25 h 2.5 v 42.5 c 0,0.69 -0.559,1.25 -1.25,1.25 h -60 c -0.691,0 -1.25,-0.56 -1.25,-1.25 v -6.25 h 2.5 v 5 h 57.5 z"/></g></svg>