<svg xmlns="http://www.w3.org/2000/svg" viewBox="0 0 100 100"><defs/><defs><linearGradient id="a" x1="0" x2="1" y1="1" y2="0"><stop offset="0%" stop-color="#1B660F"/><stop offset="100%" stop-color="#6CAE3E"/></linearGradient></defs><g><path fill="url(#a)" fill-rule="evenodd" d="m 0,0 h 100 v 100 h -100 z"/><path fill="#fff" fill-rule="evenodd" d="m 70,50 v 17.5 c 0,0.69 -0.559,1.25 -1.25,1.25 h -37.5 c -0.691,0 -1.25,-0.56 -1.25,-1.25 v -17.5 c 0,-0.69 0.559,-1.25 1.25,-1.25 h 10 v 2.5 h -8.75 v 15 h 35 v -15 h -8.75 v -2.5 h 10 c 0.691,0 1.25,0.56 1.25,1.25 z m 12.5,24.62 c 0,0.21 -0.158,0.38 -0.35,0.38 h -3.4 v -29.623 c 0,-1.586 -1.275,-2.877 -2.84,-2.877 h -51.818 c -1.566,0 -2.843,1.292 -2.842,2.88 v 29.62 h -3.403 c -0.191,0 -0.348,-0.169 -0.347,-0.378 v -32.231 c 0,-2.008 1.593,-3.641 3.552,-3.641 h 57.905 c 1.954,0 3.542,1.629 3.543,3.631 z m -58.75,-0.87 v -28.37 c 0,-0.21 0.154,-0.38 0.343,-0.38 h 51.817 c 0.188,0 0.34,0.169 0.34,0.378 v 28.372 z m 42.791,-37.5 h -33.082 l 2.248,-3.75 h 28.585 z m -35.816,-10.017 c 0.67,-0.784 1.638,-1.232 2.653,-1.233 h 33.958 c 1.016,0 1.984,0.449 2.604,1.171 l 7.56,10.079 h -8.042 l -3.387,-5.644 c -0.225,-0.376 -0.631,-0.606 -1.071,-0.606 h -30 c -0.44,0 -0.846,0.23 -1.071,0.606 l -3.386,5.644 h -7.923 z m 50.163,10.367 -8.998,-11.991 c -1.146,-1.34 -2.805,-2.109 -4.554,-2.109 h -33.958 c -1.746,0 -3.405,0.769 -4.574,2.135 l -9.684,11.965 c -2.386,0.823 -4.12,3.094 -4.12,5.791 v 32.231 c 0,1.586 1.278,2.877 2.848,2.878 h 5.902 c 0.691,0 1.25,-0.56 1.25,-1.25 h 51.25 c 0,0.69 0.559,1.25 1.25,1.25 h 4.65 c 1.573,0 2.85,-1.292 2.85,-2.88 v -32.239 c 0,-2.692 -1.73,-4.959 -4.112,-5.781 z m -34.638,18.4 h 7.5 v -3.75 h -7.5 z m -1.25,2.5 h 10 c 0.691,0 1.25,-0.56 1.25,-1.25 v -6.25 c 0,-0.69 -0.559,-1.25 -1.25,-1.25 h -10 c -0.691,0 -1.25,0.56 -1.25,1.25 v 6.25 c 0,0.69 0.559,1.25 1.25,1.25 z"/></g></svg>