<svg xmlns="http://www.w3.org/2000/svg" viewBox="0 0 100 100"><defs/><defs><linearGradient id="a" x1="0" x2="1" y1="1" y2="0"><stop offset="0%" stop-color="#1B660F"/><stop offset="100%" stop-color="#6CAE3E"/></linearGradient></defs><g><path fill="url(#a)" fill-rule="evenodd" d="m 0,0 h 100 v 100 h -100 z"/><path fill="#fff" fill-rule="evenodd" d="m 18.833,26.14 c 1.054,3.694 13.228,7.61 29.293,7.61 16.038,0 28.197,-3.902 29.286,-7.591 l 0.08,-0.563 c -0.091,-1.646 -9.536,-8.096 -29.366,-8.096 -19.834,0 -29.276,6.451 -29.368,8.098 z m 57.691,24.096 -0.479,3.379 c 4.2,1.034 4.954,0.403 4.962,0.396 10e-4,-0.03 -0.056,-1.126 -4.483,-3.775 z m -19.426,31.712 0.315,2.48 c -2.996,0.38 -6.124,0.573 -9.295,0.572 -9.541,0 -24.649,-2.114 -24.816,-7.779 l -6.935,-50.655 c -0.056,-0.244 -0.09,-0.493 -0.103,-0.745 l -0.004,-0.026 h 0.002 c -0.003,-0.057 -0.011,-0.112 -0.012,-0.17 0,-4.333 12.416,-10.625 31.875,-10.625 19.457,0 31.875,6.292 31.875,10.625 0,0.059 -0.011,0.116 -0.013,0.175 h 0.001 l -0.003,0.013 c -0.011,0.274 -0.051,0.54 -0.113,0.802 l -2.97,20.953 c 4.184,2.387 6.236,4.253 6.56,5.982 0.143,0.764 -0.046,1.48 -0.544,2.074 -0.607,0.722 -1.607,1.083 -3.085,1.082 -1.101,0 -2.474,-0.204 -4.141,-0.602 l -0.16,1.13 -2.475,-0.35 0.203,-1.44 c -7.706,-2.276 -18.277,-7.093 -23.351,-9.494 -0.521,0.432 -1.18,0.703 -1.907,0.703 -1.655,0 -3.003,-1.348 -3.003,-3.004 0,-1.656 1.348,-3.004 3.003,-3.004 1.656,0 3.004,1.348 3.003,3.004 0,0.018 -0.005,0.035 -0.005,0.052 4.313,2.036 14.966,6.925 22.615,9.239 l 3.187,-22.474 c -5.524,3.782 -17.357,5.784 -28.677,5.784 -11.339,0 -23.191,-2.008 -28.702,-5.801 l 6.366,46.507 c 0.007,0.056 0.011,0.114 0.011,0.17 0,1.895 8.474,5.374 22.318,5.374 3.066,0 6.089,-0.186 8.98,-0.552 z m 22.86,-9.612 2.964,2.963 -1.769,1.767 -3.316,-3.316 h -5.942 l 2.824,4.896 4.765,1.342 -0.677,2.405 -3.968,-1.117 -1.084,4.048 -2.415,-0.648 1.259,-4.701 -2.942,-5.104 -2.904,5.022 1.221,4.798 -2.421,0.617 -1.018,-3.994 -4.046,1.084 -0.646,-2.415 4.699,-1.259 2.877,-4.974 h -5.861 l -3.411,3.328 -1.745,-1.79 2.951,-2.879 -2.963,-2.963 1.768,-1.767 3.57,3.571 h 5.839 l -2.98,-5.154 -4.759,-1.338 0.676,-2.407 3.969,1.117 1.084,-4.047 2.415,0.648 -1.262,4.709 2.947,5.095 2.9,-5.029 -1.22,-4.791 2.421,-0.617 1.019,3.995 4.045,-1.083 0.647,2.413 -4.707,1.262 -3.013,5.227 h 5.743 l 3.672,-3.582 1.746,1.79 z"/></g></svg>