<svg xmlns="http://www.w3.org/2000/svg" viewBox="0 0 100 100"><defs/><defs><linearGradient id="a" x1="0" x2="1" y1="1" y2="0"><stop offset="0%" stop-color="#4D27A8"/><stop offset="100%" stop-color="#A166FF"/></linearGradient></defs><g><path fill="url(#a)" fill-rule="evenodd" d="m 0,0 h 100 v 100 h -100 z"/><path fill="#fff" fill-rule="evenodd" d="m 80,77.5 h -3.75 c -0.56,0 -1.25,-0.689 -1.25,-1.25 v -2.5 h 6.25 v 2.5 c 0,0.561 -0.69,1.25 -1.25,1.25 z m -52.5,-3.75 h 45 v -3.75 h -45 z m -3.75,3.75 h -3.75 c -0.829,0 -1.25,-0.42 -1.25,-1.25 v -2.5 h 6.25 v 2.5 c 0,0.465 -0.264,1.25 -1.25,1.25 z m -3.75,-37.5 h 3.75 c 0.56,0 1.25,0.689 1.25,1.25 v 3.75 h -6.25 v -3.75 c 0,-0.561 0.69,-1.25 1.25,-1.25 z m 26.26,3.75 h 7.489 18.751 v 3.75 h -45 v -3.75 z m 1.252,-8.75 h 4.988 l -10e-4,6.25 h -4.989 z m -6.262,-2.5 c -0.634,0 -1.157,0.471 -1.239,1.083 -0.145,0.063 -0.504,0.168 -1.261,0.167 -1.584,0 -2.5,-0.47 -2.5,-2.875 0,-2.24 0.841,-3.375 2.5,-3.375 0.719,0 1.106,0.11 1.264,0.185 0.089,0.603 0.609,1.065 1.236,1.065 h 16.25 c 0.619,0 1.133,-0.45 1.232,-1.041 0.134,-0.071 0.493,-0.209 1.268,-0.209 1.368,0 2.5,0.237 2.5,3.164 0,2.57 -0.958,3.086 -2.5,3.086 -0.746,0 -1.107,-0.092 -1.259,-0.151 -0.074,-0.619 -0.601,-1.099 -1.241,-1.099 h -2.5 -2.5 -4.988 -2.5 z m 8.75,-10 c 1.978,0 2.5,2.453 2.5,3.75 h -5 c 0,-1.298 0.522,-3.75 2.5,-3.75 z m 25,48.75 h 6.25 v -23.75 h -6.25 z m -47.5,-3.75 h 45 v -17.5 h -45 z m -8.75,3.75 h 6.25 v -23.75 h -6.25 z m 57.5,-31.25 h 3.75 c 0.568,0 1.25,0.767 1.25,1.25 v 3.75 h -6.25 v -3.75 c 0,-0.483 0.683,-1.25 1.25,-1.25 z m 3.75,-2.5 h -3.75 c -1.893,0 -3.75,1.857 -3.75,3.75 h -17.501 l 10e-4,-6.25 h 1.608 c 0.445,0.666 1.401,1.25 3.392,1.25 2.281,0 5,-0.969 5,-5.586 0,-3.759 -1.683,-5.664 -5,-5.664 -1.77,0 -2.81,0.551 -3.33,1.25 h -1.67 c 0,-3.106 -1.718,-6.25 -5,-6.25 -3.282,0 -5,3.144 -5,6.25 h -2.894 c -0.448,-0.637 -1.389,-1.25 -3.356,-1.25 -2.417,0 -5,1.544 -5,5.875 0,3.466 1.776,5.375 5,5.375 1.985,0 2.931,-0.601 3.375,-1.25 h 2.888 l -0.003,6.25 h -17.51 c 0,-1.927 -1.823,-3.75 -3.75,-3.75 h -3.75 c -1.927,0 -3.75,1.823 -3.75,3.75 v 35 c 0,2.209 1.541,3.75 3.75,3.75 h 3.75 c 2.435,0 3.75,-1.933 3.75,-3.75 h 45 c 0,1.927 1.823,3.75 3.75,3.75 h 3.75 c 1.927,0 3.75,-1.823 3.75,-3.75 v -35 c 0,-1.893 -1.857,-3.75 -3.75,-3.75 z"/></g></svg>