<svg xmlns="http://www.w3.org/2000/svg" viewBox="0 0 100 100"><defs/><defs><linearGradient id="a" x1="0" x2="1" y1="1" y2="0"><stop offset="0%" stop-color="#2E27AD"/><stop offset="100%" stop-color="#527FFF"/></linearGradient></defs><g><path fill="url(#a)" fill-rule="evenodd" d="m 0,0 h 100 v 100 h -100 z"/><path fill="#fff" fill-rule="evenodd" d="m 63.531,43.963 c -1.325,0 -2.401,-1.074 -2.401,-2.395 0,-1.321 1.076,-2.397 2.401,-2.397 1.324,0 2.4,1.076 2.4,2.397 0,1.321 -1.076,2.395 -2.4,2.395 m -6.082,14.568 c -1.324,0 -2.4,-1.074 -2.4,-2.396 0,-1.321 1.076,-2.395 2.4,-2.395 1.324,0 2.401,1.074 2.401,2.395 0,1.321 -1.078,2.395 -2.401,2.396 m -14.596,-2.428 c -1.322,0 -2.399,-1.074 -2.399,-2.395 0,-1.321 1.076,-2.397 2.399,-2.397 1.325,0 2.401,1.076 2.401,2.397 0,1.321 -1.076,2.395 -2.401,2.395 m -6.081,13.354 c -1.322,0 -2.4,-1.074 -2.4,-2.396 0,-1.321 1.078,-2.395 2.4,-2.395 1.325,0 2.401,1.074 2.401,2.395 0,1.321 -1.076,2.395 -2.401,2.396 m 26.759,-32.778 c -2.701,0 -4.898,2.193 -4.898,4.889 0,1.653 0.83,3.109 2.093,3.995 l -2.285,5.785 c -0.321,-0.066 -0.653,-0.101 -0.992,-0.1 -2.148,0 -3.957,1.396 -4.615,3.321 l -5.113,-1.16 c -0.159,-2.554 -2.269,-4.59 -4.868,-4.59 -2.7,0 -4.896,2.193 -4.896,4.889 0,1.26 0.492,2.399 1.28,3.266 l -2.231,5.223 c -0.08,-0.005 -0.154,-0.024 -0.234,-0.024 -2.7,0 -4.897,2.192 -4.897,4.888 0,2.694 2.198,4.888 4.897,4.888 2.701,0 4.898,-2.193 4.898,-4.888 0,-1.73 -0.909,-3.243 -2.271,-4.112 l 1.969,-4.608 c 0.472,0.151 0.964,0.254 1.485,0.254 1.927,0 3.581,-1.125 4.379,-2.741 l 5.416,1.229 c 0.443,2.243 2.426,3.941 4.801,3.94 2.701,0 4.898,-2.192 4.899,-4.888 0,-1.457 -0.656,-2.752 -1.672,-3.649 l 2.401,-6.076 c 0.152,0.015 0.298,0.046 0.454,0.046 2.7,0 4.897,-2.193 4.897,-4.888 0,-2.696 -2.198,-4.889 -4.897,-4.889 m -13.531,45.828 c -12.164,0 -21.253,-3.652 -21.253,-6.916 v -46.652 c 4.138,3.362 12.897,5.14 21.279,5.14 8.345,0 17.066,-1.762 21.227,-5.096 v 46.608 c 0,3.265 -9.09,6.917 -21.253,6.916 m 0.026,-65.014 c 12.509,0 21.227,3.714 21.227,7.047 0,3.333 -8.718,7.046 -21.227,7.046 -12.51,0 -21.227,-3.714 -21.226,-7.046 0,-3.334 8.717,-7.048 21.226,-7.047 m 23.724,7.047 c 0,-6.196 -12.223,-9.54 -23.724,-9.54 -11.501,0 -23.724,3.344 -23.724,9.54 0,0.01 0.003,0.021 0.003,0.031 h -0.055 v 51.02 c 0,6.112 12.236,9.409 23.75,9.409 11.514,0 23.75,-3.298 23.75,-9.409 v -51.02 h -0.002 c 0,-0.01 0.003,-0.021 0.002,-0.031"/></g></svg>