<svg xmlns="http://www.w3.org/2000/svg" viewBox="0 0 100 100"><defs/><defs><linearGradient id="a" x1="0" x2="1" y1="1" y2="0"><stop offset="0%" stop-color="#C8511B"/><stop offset="100%" stop-color="#F90"/></linearGradient></defs><g><path fill="url(#a)" fill-rule="evenodd" d="m 0,0 h 100 v 100 h -100 z"/><path fill="#fff" fill-rule="evenodd" d="m 45.799,85.158 h 8.271 v -2.5 h -8.271 z m 4.136,-15.388 -10.077,5.818 h 20.154 z m 27.994,-14.98 c 2.184,2.384 3.31,5.475 3.17,8.705 -0.24,5.473 -4.859,9.731 -10.359,9.493 -2.186,-0.096 -4.206,-1.036 -5.683,-2.651 -1.48,-1.614 -2.241,-3.708 -2.147,-5.895 0.079,-1.816 0.86,-3.494 2.2,-4.723 1.343,-1.229 3.061,-1.864 4.897,-1.782 l -0.109,2.497 c -1.133,-0.049 -2.25,0.351 -3.098,1.129 -0.849,0.776 -1.343,1.837 -1.392,2.987 -0.066,1.52 0.464,2.976 1.491,4.098 1.027,1.121 2.43,1.776 3.95,1.842 4.095,0.164 7.574,-3.009 7.751,-7.103 0.112,-2.563 -0.781,-5.016 -2.513,-6.908 -1.734,-1.891 -4.1,-2.995 -6.663,-3.106 -6.85,-0.318 -11.612,4.058 -11.909,10.835 l 0.002,7.052 7.786,4.495 c 0.489,0.284 0.729,0.86 0.582,1.407 -0.147,0.546 -0.643,0.926 -1.207,0.926 h -29.485 c -0.565,0 -1.061,-0.38 -1.208,-0.926 -0.146,-0.546 0.092,-1.123 0.583,-1.407 l 7.776,-4.488 v -7.114 c -0.296,-6.723 -5.053,-11.081 -11.907,-10.78 -2.564,0.111 -4.929,1.215 -6.663,3.106 -1.734,1.891 -2.626,4.345 -2.515,6.908 0.179,4.095 3.681,7.286 7.751,7.103 1.52,-0.066 2.923,-0.721 3.952,-1.842 1.027,-1.121 1.558,-2.577 1.491,-4.098 -0.05,-1.15 -0.544,-2.211 -1.393,-2.987 -0.848,-0.777 -1.959,-1.179 -3.097,-1.129 l -0.11,-2.497 c 1.836,-0.079 3.556,0.554 4.896,1.782 1.341,1.229 2.123,2.906 2.201,4.723 0.095,2.188 -0.666,4.281 -2.146,5.895 -1.478,1.615 -3.498,2.555 -5.685,2.651 -5.42,0.25 -10.119,-4.02 -10.357,-9.493 -0.14,-3.23 0.985,-6.321 3.17,-8.705 2.185,-2.384 5.165,-3.774 8.395,-3.915 8.18,-0.365 14.159,5.081 14.516,13.224 l 10e-4,5.724 3.841,-2.218 v -6.76 c -0.679,-12.709 -12.118,-23.44 -27.423,-25.877 l 0.007,4.456 -2.5,0.004 -0.01,-5.899 c 0,-0.357 0.152,-0.7 0.421,-0.937 0.065,-0.056 0.134,-0.106 0.207,-0.148 l 6.237,-3.601 1.25,2.166 -3.219,1.858 c 11.527,2.4 20.777,9.304 25.03,18.21 l -0.005,-5.099 c 0,-8.684 -5.035,-16.515 -12.881,-20.124 l -2.466,1.425 -1.25,-2.165 3.017,-1.742 c 0.341,-0.196 0.752,-0.222 1.115,-0.068 6.621,2.826 11.536,8.316 13.718,14.913 2.183,-6.597 7.099,-12.088 13.72,-14.913 0.362,-0.155 0.776,-0.13 1.116,0.066 l 3.038,1.754 -1.25,2.166 -2.488,-1.436 c -7.847,3.607 -12.882,11.439 -12.882,20.124 h -0.002 v 5.127 c 4.253,-8.934 13.502,-15.838 25.029,-18.238 l -3.217,-1.858 1.25,-2.166 6.233,3.599 c 0.074,0.043 0.145,0.092 0.209,0.15 0.269,0.237 0.422,0.58 0.422,0.937 l -0.011,5.899 -2.5,-0.004 0.008,-4.456 c -15.291,2.436 -26.725,13.152 -27.423,25.911 v 6.726 l 3.832,2.213 v -5.665 c 0.346,-7.942 5.962,-13.294 13.761,-13.294 0.249,0 0.5,0.005 0.756,0.016 3.23,0.141 6.21,1.531 8.395,3.915 z m 0.681,-4.576 h 2.5 v -5.332 h -2.5 z m -59.851,0 h 2.5 v -5.332 h -2.5 z m 25.563,-29.279 -1.25,-2.165 6.238,-3.602 c 0.385,-0.224 0.864,-0.224 1.25,0 l 6.239,3.602 -1.25,2.165 -4.364,-2.52 v 5.039 h -2.5 v -5.039 z"/></g></svg>