<svg xmlns="http://www.w3.org/2000/svg" viewBox="0 0 100 100"><defs/><defs><linearGradient id="a" x1="0" x2="1" y1="1" y2="0"><stop offset="0%" stop-color="#B0084D"/><stop offset="100%" stop-color="#FF4F8B"/></linearGradient></defs><g><path fill="url(#a)" fill-rule="evenodd" d="m 0,0 h 100 v 100 h -100 z"/><path fill="#fff" fill-rule="evenodd" d="m 54.821,60.116 v -2.506 c 5,-0.646 8.93,-4.859 8.93,-9.785 0,-4.926 -3.93,-9.139 -8.93,-9.785 v -2.506 c 6.372,0.665 11.43,6.01 11.43,12.291 0,6.281 -5.058,11.626 -11.43,12.291 z m -14.757,22.206 -4.111,-2.53 6.098,-5.081 -1.601,-1.92 -6.744,5.619 -8.705,-5.358 v -9.882 l 6.943,-4.629 -1.386,-2.08 -6.992,4.66 -6.065,-2.021 -0.001,-8.415 6.928,-4.454 -1.353,-2.104 -5.575,3.584 0.001,-5.687 6.292,-3.147 7.458,3.198 v 6.075 l -5.781,4.625 1.563,1.951 5.375,-4.3 2.593,2.593 v 3.232 h 2.5 v -3.75 c 0,-0.331 -0.133,-0.65 -0.366,-0.884 l -3.384,-3.383 v -6.21 l 6.809,-3.405 c 0.424,-0.211 0.691,-0.644 0.691,-1.118 v -7.5 h -2.5 v 6.728 l -6.291,3.145 -7.459,-3.197 v -10.101 l 7.5,-4.821 v 8.246 h 2.5 v -9.854 l 3.858,-2.48 9.892,4.397 v 25.343 l -4.25,-3.385 -1.557,1.957 5.807,4.625 v 5.002 l -15.546,11.055 1.448,2.038 14.098,-10.025 v 19.305 z m 10.445,-62.213 -11.25,-5 c -0.385,-0.173 -0.83,-0.138 -1.184,0.09 l -15,9.643 c -0.359,0.23 -0.574,0.626 -0.574,1.052 v 10.835 l -6.81,3.403 c -0.424,0.213 -0.69,0.645 -0.69,1.119 l -10e-4,8.36 10e-4,10.39 c 0,0.537 0.344,1.015 0.854,1.185 l 6.646,2.215 v 10.35 c 0,0.434 0.224,0.836 0.594,1.064 l 16.25,10 c 0.2,0.124 0.428,0.186 0.656,0.186 0.191,0 0.381,-0.044 0.559,-0.132 l 10,-5 c 0.424,-0.211 0.691,-0.644 0.691,-1.118 v -57.5 c 0,-0.494 -0.291,-0.943 -0.742,-1.142 z m 6.957,-1.358 h -2.645 v -2.5 h 3.93 c 0.336,0 0.66,0.136 0.895,0.378 0.236,0.242 0.362,0.569 0.355,0.906 l -0.117,4.326 c 2.268,0.601 4.438,1.494 6.471,2.665 l 2.621,-2.947 c 0.229,-0.256 0.554,-0.408 0.898,-0.418 0.331,-0.014 0.676,0.122 0.919,0.364 l 8.43,8.412 c 0.245,0.242 0.376,0.575 0.367,0.919 -0.009,0.344 -0.16,0.669 -0.416,0.899 l -2.938,2.625 c 1.17,2.02 2.066,4.175 2.674,6.434 l 3.511,-0.224 c 0.341,-0.018 0.683,0.1 0.934,0.336 0.253,0.236 0.396,0.565 0.396,0.91 l 0.013,11.909 c 0,0.345 -0.141,0.675 -0.393,0.911 -0.251,0.236 -0.593,0.364 -0.933,0.338 l -3.499,-0.214 c -0.694,2.6 -1.77,5.07 -3.21,7.357 l -2.118,-1.331 c 1.48,-2.349 2.537,-4.909 3.143,-7.611 0.134,-0.599 0.656,-1.013 1.296,-0.974 l 3.213,0.196 -0.01,-9.247 -3.225,0.204 c -0.605,0.048 -1.161,-0.371 -1.299,-0.97 -0.614,-2.704 -1.675,-5.259 -3.155,-7.595 -0.328,-0.516 -0.234,-1.192 0.222,-1.6 l 2.724,-2.437 -6.556,-6.542 -2.431,2.734 c -0.405,0.456 -1.084,0.552 -1.599,0.226 -2.343,-1.475 -4.9,-2.529 -7.6,-3.135 -0.584,-0.13 -0.993,-0.655 -0.978,-1.253 z m 21.604,61.25 h -18.707 c -0.357,-0.001 -0.623,-0.06 -0.814,-0.18 -0.875,-0.552 -1.919,-1.618 -1.919,-3.554 0,-2.405 1.53,-3.304 2.813,-3.632 0.579,-0.149 0.971,-0.688 0.936,-1.285 l -0.049,-0.79 c 0,-2.106 1.498,-4.455 3.339,-5.238 0.848,-0.36 1.631,-0.503 2.34,-0.502 2.022,0 3.453,1.161 4.076,1.789 0.694,0.7 1.24,1.601 1.619,2.677 0.154,0.438 0.536,0.752 0.995,0.821 0.455,0.069 0.916,-0.122 1.19,-0.495 0.44,-0.596 1.194,-0.846 1.87,-0.623 0.79,0.26 1.242,1.095 1.246,2.183 -0.088,0.665 0.365,1.281 1.026,1.395 1.044,0.18 3.47,0.905 3.47,3.744 0,3.2 -2.925,3.638 -3.431,3.69 z m 1.365,-9.665 c -0.307,-2.124 -1.639,-3.31 -2.896,-3.722 -1.074,-0.352 -2.218,-0.242 -3.183,0.253 -0.416,-0.76 -0.917,-1.436 -1.498,-2.021 -2.501,-2.517 -5.929,-3.202 -9.165,-1.825 -2.746,1.165 -4.822,4.356 -4.86,7.52 -2.338,0.97 -3.703,3.048 -3.703,5.726 0,3.237 1.933,4.941 3.084,5.669 0.593,0.374 1.315,0.564 2.147,0.565 h 18.767 c 0.031,0 0.061,-0.001 0.092,-0.004 1.999,-0.146 5.781,-1.626 5.781,-6.186 0,-3.401 -2.211,-5.26 -4.566,-5.975 z"/></g></svg>