<svg xmlns="http://www.w3.org/2000/svg" viewBox="0 0 100 100"><defs/><defs><linearGradient id="a" x1="0" x2="1" y1="1" y2="0"><stop offset="0%" stop-color="#C8511B"/><stop offset="100%" stop-color="#F90"/></linearGradient></defs><g><path fill="url(#a)" fill-rule="evenodd" d="m 0,0 h 100 v 100 h -100 z"/><path fill="#fff" fill-rule="evenodd" d="m 40.18,58.75 h 8.07 c 0.38,0 0.737,0.173 0.975,0.469 0.237,0.295 0.328,0.683 0.246,1.052 l -2.168,9.755 12.518,-17.526 h -8.07 c -0.38,0 -0.737,-0.173 -0.975,-0.469 -0.237,-0.295 -0.328,-0.683 -0.246,-1.052 l 2.169,-9.755 z m 4.57,18.25 c -0.171,0 -0.344,-0.035 -0.509,-0.109 -0.544,-0.241 -0.84,-0.833 -0.711,-1.412 l 3.161,-14.229 h -8.94 c -0.469,0 -0.897,-0.261 -1.112,-0.677 -0.214,-0.416 -0.177,-0.917 0.095,-1.299 l 17.5,-24.5 c 0.348,-0.485 0.985,-0.657 1.526,-0.415 0.542,0.241 0.84,0.833 0.711,1.412 l -3.161,14.229 h 8.94 c 0.469,0 0.897,0.261 1.112,0.678 0.214,0.416 0.176,0.917 -0.095,1.298 l -17.5,24.5 c -0.241,0.338 -0.624,0.524 -1.017,0.524 z m -16,5.5 h 42.5 v -50 c 0,-0.69 0.56,-1.25 1.25,-1.25 h 5 v -13.75 h -8.75 v 7.5 c 0,0.69 -0.559,1.25 -1.25,1.25 h -11.25 c -0.69,0 -1.25,-0.56 -1.25,-1.25 v -7.5 h -10 v 7.5 c 0,0.69 -0.559,1.25 -1.25,1.25 h -11.25 c -0.69,0 -1.25,-0.56 -1.25,-1.25 v -7.5 h -8.75 v 13.75 h 5 c 0.691,0 1.25,0.56 1.25,1.25 z m 43.75,2.5 h -45 c -0.69,0 -1.25,-0.56 -1.25,-1.25 v -50 h -5 c -0.69,0 -1.25,-0.56 -1.25,-1.25 v -16.25 c 0,-0.69 0.56,-1.25 1.25,-1.25 h 11.25 c 0.691,0 1.25,0.56 1.25,1.25 v 7.5 h 8.75 v -7.5 c 0,-0.69 0.56,-1.25 1.25,-1.25 h 12.5 c 0.691,0 1.25,0.56 1.25,1.25 v 7.5 h 8.75 v -7.5 c 0,-0.69 0.56,-1.25 1.25,-1.25 h 11.25 c 0.691,0 1.25,0.56 1.25,1.25 v 16.25 c 0,0.69 -0.559,1.25 -1.25,1.25 h -5 v 50 c 0,0.69 -0.559,1.25 -1.25,1.25 z"/></g></svg>