<svg xmlns="http://www.w3.org/2000/svg" viewBox="0 0 100 100"><defs/><defs><linearGradient id="a" x1="0" x2="1" y1="1" y2="0"><stop offset="0%" stop-color="#B0084D"/><stop offset="100%" stop-color="#FF4F8B"/></linearGradient></defs><g><path fill="url(#a)" fill-rule="evenodd" d="m 0,0 h 100 v 100 h -100 z"/><path fill="#fff" fill-rule="evenodd" d="m 73.176,58.814 2.351,0.813 -1.483,4.285 c -0.174,0.505 -0.65,0.835 -1.174,0.836 -0.051,0 -0.103,-0.003 -0.155,-0.009 l -4.789,-0.597 0.308,-2.468 2.707,0.338 c -1.064,-1.677 -3.072,-2.724 -5.472,-2.724 -3.143,0 -5.525,1.719 -6.069,4.381 l -2.435,-0.498 c 0.791,-3.869 4.129,-6.369 8.504,-6.369 3.067,0 5.664,1.299 7.227,3.4 z m -1.639,8.423 2.436,0.5 c -0.787,3.842 -4.205,6.423 -8.504,6.422 -2.799,0 -5.265,-1.206 -6.859,-3.14 l -0.248,1.167 -2.433,-0.516 0.986,-4.652 c 0.14,-0.664 0.78,-1.094 1.456,-0.962 l 4.522,0.885 -0.478,2.44 -2.279,-0.446 c 1.092,1.673 3.065,2.738 5.333,2.738 3.133,0 5.515,-1.742 6.068,-4.436 z m 9.726,0.388 -1.495,-0.085 c -0.603,-0.029 -1.149,0.374 -1.283,0.969 -0.329,1.463 -0.904,2.851 -1.709,4.124 -0.324,0.513 -0.23,1.187 0.223,1.591 l 1.118,0.996 -2.896,2.897 -0.992,-1.112 c -0.405,-0.455 -1.079,-0.548 -1.593,-0.224 -1.273,0.804 -2.662,1.38 -4.13,1.712 -0.592,0.134 -1.002,0.676 -0.966,1.283 l 0.085,1.487 h -4.098 l 0.086,-1.488 c 0.035,-0.607 -0.374,-1.15 -0.968,-1.284 -1.463,-0.329 -2.853,-0.906 -4.127,-1.712 -0.513,-0.324 -1.187,-0.232 -1.592,0.224 l -0.994,1.114 -2.897,-2.897 1.114,-0.993 c 0.454,-0.404 0.548,-1.077 0.224,-1.591 -0.803,-1.274 -1.376,-2.662 -1.707,-4.129 -0.133,-0.594 -0.697,-1.008 -1.283,-0.967 l -1.494,0.085 v -4.097 l 1.498,0.085 c 0.551,0.025 1.148,-0.373 1.284,-0.966 0.331,-1.462 0.906,-2.848 1.71,-4.121 0.324,-0.515 0.229,-1.187 -0.223,-1.591 l -1.123,-1.002 2.897,-2.898 1.002,1.121 c 0.403,0.455 1.079,0.547 1.59,0.225 1.271,-0.802 2.658,-1.375 4.121,-1.705 0.593,-0.134 1.002,-0.678 0.968,-1.285 l -0.086,-1.502 h 4.098 l -0.085,1.505 c -0.036,0.607 0.374,1.149 0.966,1.283 1.462,0.331 2.847,0.905 4.118,1.707 0.511,0.322 1.186,0.23 1.591,-0.224 l 1.005,-1.125 2.897,2.898 -1.12,0.998 c -0.453,0.405 -0.547,1.078 -0.223,1.592 0.803,1.273 1.379,2.659 1.709,4.124 0.134,0.593 0.71,0.991 1.284,0.966 l 1.496,-0.085 z m 2.097,-6.317 c -0.247,-0.235 -0.592,-0.359 -0.924,-0.339 l -1.795,0.104 c -0.307,-1.027 -0.717,-2.019 -1.229,-2.963 l 1.343,-1.199 c 0.255,-0.228 0.405,-0.551 0.415,-0.892 0.009,-0.341 -0.123,-0.673 -0.364,-0.914 l -4.758,-4.759 c -0.242,-0.241 -0.558,-0.382 -0.915,-0.363 -0.342,0.01 -0.664,0.159 -0.893,0.414 l -1.202,1.349 c -0.942,-0.51 -1.932,-0.92 -2.958,-1.226 l 0.102,-1.804 c 0.019,-0.341 -0.102,-0.675 -0.338,-0.924 -0.234,-0.249 -0.561,-0.389 -0.903,-0.389 h -6.73 c -0.343,0 -0.669,0.14 -0.903,0.389 -0.235,0.249 -0.357,0.583 -0.337,0.924 l 0.102,1.801 c -1.028,0.306 -2.017,0.716 -2.961,1.226 l -1.201,-1.345 c -0.228,-0.256 -0.55,-0.405 -0.892,-0.415 -0.347,-0.015 -0.671,0.122 -0.914,0.363 l -4.759,4.759 c -0.242,0.241 -0.374,0.573 -0.365,0.914 0.01,0.342 0.16,0.665 0.416,0.892 l 1.346,1.203 c -0.511,0.942 -0.921,1.933 -1.23,2.959 l -1.797,-0.104 c -0.339,-0.022 -0.676,0.103 -0.924,0.339 -0.249,0.235 -0.389,0.562 -0.389,0.903 v 6.73 c 0,0.341 0.14,0.669 0.389,0.904 0.247,0.235 0.586,0.354 0.924,0.337 l 1.791,-0.102 c 0.307,1.029 0.717,2.022 1.229,2.968 l -1.339,1.192 c -0.255,0.229 -0.405,0.551 -0.416,0.893 -0.01,0.342 0.122,0.673 0.365,0.915 l 4.759,4.758 c 0.242,0.242 0.597,0.375 0.914,0.364 0.343,-0.01 0.665,-0.16 0.892,-0.415 l 1.194,-1.338 c 0.946,0.512 1.938,0.924 2.968,1.231 l -0.102,1.788 c -0.02,0.342 0.102,0.676 0.337,0.925 0.235,0.249 0.561,0.389 0.903,0.389 h 6.73 c 0.342,0 0.669,-0.14 0.903,-0.389 0.236,-0.249 0.357,-0.583 0.338,-0.925 l -0.102,-1.785 c 1.031,-0.307 2.024,-0.719 2.969,-1.231 l 1.191,1.335 c 0.228,0.256 0.551,0.405 0.893,0.415 0.361,0.015 0.673,-0.122 0.915,-0.364 l 4.758,-4.758 c 0.241,-0.242 0.373,-0.573 0.364,-0.915 -0.01,-0.342 -0.16,-0.664 -0.415,-0.892 l -1.34,-1.196 c 0.511,-0.945 0.923,-1.937 1.228,-2.965 l 1.793,0.102 c 0.331,0.016 0.676,-0.103 0.924,-0.337 0.25,-0.235 0.39,-0.563 0.39,-0.904 v -6.73 c 0,-0.342 -0.14,-0.669 -0.39,-0.903 z m -64.623,7.16 h 24.865 v 2.486 h -26.109 c -0.688,0 -1.243,-0.557 -1.243,-1.243 v -52.218 c 0,-0.686 0.556,-1.243 1.243,-1.243 h 57.191 c 0.688,0 1.243,0.557 1.243,1.243 v 27.352 h -2.486 v -26.108 h -54.704 z m 41.028,-34.812 h -1.244 v -2.487 h 1.244 4.973 1.243 v 2.487 h -1.243 z m 1.243,-4.973 h 2.487 v -4.973 h -2.487 z m 4.973,16.162 v -8.703 h 1.243 c 0.688,0 1.243,-0.557 1.244,-1.243 v -4.973 c 0,-0.686 -0.556,-1.243 -1.244,-1.243 h -1.243 v -6.217 c 0,-0.686 -0.556,-1.243 -1.243,-1.243 h -4.973 c -0.688,0 -1.243,0.557 -1.244,1.243 v 6.217 h -1.243 c -0.688,0 -1.243,0.557 -1.243,1.243 v 4.973 c 0,0.686 0.556,1.243 1.243,1.243 h 1.243 v 8.703 h 2.487 v -8.703 h 2.487 v 8.703 z m -23.622,2.487 h -1.243 v -2.487 h 1.243 4.973 1.243 v 2.487 h -1.243 z m 1.243,-4.973 h 2.487 v -18.649 h -2.487 z m 4.973,9.946 v -2.487 h 1.243 c 0.688,0 1.243,-0.557 1.244,-1.243 v -4.973 c 0,-0.686 -0.556,-1.243 -1.244,-1.243 h -1.243 v -19.893 c 0,-0.686 -0.556,-1.243 -1.243,-1.243 h -4.973 c -0.688,0 -1.243,0.557 -1.243,1.243 v 19.893 h -1.244 c -0.688,0 -1.243,0.557 -1.243,1.243 v 4.973 c 0,0.686 0.556,1.243 1.243,1.243 h 1.244 v 13.677 h 2.486 v -13.677 h 2.487 v 2.487 z m -24.865,-17.406 h 1.243 4.973 1.243 v 2.487 h -1.243 -4.973 -1.243 z m 2.486,-2.486 h 2.487 v -8.703 h -2.487 z m 0,28.595 h 2.487 v -21.136 h -2.487 z m -1.243,2.487 h 4.973 c 0.688,0 1.243,-0.557 1.243,-1.244 v -22.379 h 1.244 c 0.688,0 1.243,-0.557 1.243,-1.243 v -4.973 c 0,-0.686 -0.556,-1.243 -1.243,-1.243 h -1.244 v -9.947 c 0,-0.686 -0.556,-1.243 -1.243,-1.243 h -4.973 c -0.688,0 -1.243,0.557 -1.243,1.243 v 9.947 h -1.244 c -0.688,0 -1.243,0.557 -1.243,1.243 v 4.973 c 0,0.686 0.556,1.243 1.243,1.243 h 1.244 v 22.379 c 0,0.686 0.556,1.243 1.243,1.244 z"/></g></svg>