<svg xmlns="http://www.w3.org/2000/svg" viewBox="0 0 100 100"><defs/><defs><linearGradient id="a" x1="0" x2="1" y1="1" y2="0"><stop offset="0%" stop-color="#C8511B"/><stop offset="100%" stop-color="#F90"/></linearGradient></defs><g><path fill="url(#a)" fill-rule="evenodd" d="m 0,0 h 100 v 100 h -100 z"/><path fill="#fff" fill-rule="evenodd" d="m 32.5,60.477 v -7.205 l 6.25,-3.125 6.25,3.125 v 7.205 l -6.25,3.125 z m 35,-7.205 v 7.205 l -6.25,3.125 -6.25,-3.125 v -7.205 l 6.25,-3.125 z m 10,10.957 -7.5,-3.743 v -7.986 c 0,-0.474 -0.268,-0.906 -0.691,-1.118 l -7.5,-3.75 c -0.351,-0.176 -0.766,-0.176 -1.118,0 l -7.5,3.75 c -0.424,0.211 -0.691,0.644 -0.691,1.118 v 8.75 c 0,0.474 0.268,0.906 0.691,1.119 l 7.5,3.75 c 0.351,0.175 0.766,0.175 1.118,0 l 6.931,-3.467 7.429,3.707 -24.919,15.167 v -12.776 h -2.5 v 12.776 l -24.92,-15.169 7.42,-3.71 6.941,3.472 c 0.175,0.088 0.367,0.131 0.559,0.131 0.191,0 0.384,-0.044 0.559,-0.131 l 7.5,-3.75 c 0.424,-0.213 0.691,-0.645 0.691,-1.119 v -8.75 c 0,-0.474 -0.268,-0.906 -0.691,-1.118 l -7.5,-3.75 c -0.351,-0.176 -0.766,-0.176 -1.118,0 l -7.5,3.75 c -0.424,0.211 -0.691,0.644 -0.691,1.118 v 7.977 l -7.5,3.75 v -28.27 l 10.606,6.365 1.288,-2.144 -10.662,-6.396 25.018,-14.14 v 8.335 l -6.809,3.405 c -0.424,0.211 -0.691,0.644 -0.691,1.117 v 8.751 c 0,0.473 0.266,0.904 0.688,1.116 l 7.5,3.779 c 0.354,0.178 0.771,0.178 1.125,0 l 7.5,-3.779 c 0.421,-0.213 0.688,-0.644 0.687,-1.116 v -8.751 c 0,-0.474 -0.268,-0.906 -0.691,-1.117 l -6.809,-3.405 v -8.415 l 25.004,13.045 -11.925,7.588 1.342,2.11 11.829,-7.528 z m -27.5,-34.082 6.25,3.125 v 7.208 l -6.25,3.148 -6.25,-3.148 v -7.208 z m 29.329,1.244 -28.75,-15 c -0.378,-0.195 -0.826,-0.186 -1.194,0.021 l -28.75,16.25 c -0.393,0.221 -0.635,0.638 -0.635,1.087 v 32.501 c 0,0.436 0.227,0.841 0.6,1.067 l 28.75,17.5 c 0.2,0.121 0.425,0.183 0.65,0.183 0.225,0 0.45,-0.061 0.65,-0.183 l 28.75,-17.5 c 0.372,-0.226 0.6,-0.631 0.6,-1.067 v -33.751 c 0,-0.465 -0.259,-0.893 -0.671,-1.108 z"/></g></svg>