<svg xmlns="http://www.w3.org/2000/svg" viewBox="0 0 100 100"><defs/><defs><linearGradient id="a" x1="0" x2="1" y1="1" y2="0"><stop offset="0%" stop-color="#4D27A8"/><stop offset="100%" stop-color="#A166FF"/></linearGradient></defs><g><path fill="url(#a)" fill-rule="evenodd" d="m 0,0 h 100 v 100 h -100 z"/><path fill="#fff" fill-rule="evenodd" d="m 41.25,28.75 h 2.5 v -2.5 h -2.5 z m -2.5,1.25 v -5 c 0,-0.69 0.559,-1.25 1.25,-1.25 h 5 c 0.691,0 1.25,0.56 1.25,1.25 v 5 c 0,0.69 -0.559,1.25 -1.25,1.25 h -5 c -0.691,0 -1.25,-0.56 -1.25,-1.25 z m 12.5,-8.75 h 2.5 v -2.5 h -2.5 z m -2.5,1.25 v -5 c 0,-0.69 0.559,-1.25 1.25,-1.25 h 5 c 0.691,0 1.25,0.56 1.25,1.25 v 5 c 0,0.69 -0.559,1.25 -1.25,1.25 h -5 c -0.691,0 -1.25,-0.56 -1.25,-1.25 z m 5,11.25 h 2.5 v -2.5 h -2.5 z m -1.25,-5 h 5 c 0.691,0 1.25,0.56 1.25,1.25 v 5 c 0,0.69 -0.559,1.25 -1.25,1.25 h -5 c -0.691,0 -1.25,-0.56 -1.25,-1.25 v -5 c 0,-0.69 0.559,-1.25 1.25,-1.25 z m -2.5,13.125 c -2.201,0 -10.183,-0.094 -15.374,-1.37 l 12.681,20.078 c 0.125,0.2 0.193,0.431 0.193,0.667 v 2.846 c 1.755,0.509 3.376,0.514 5,0.02 v -2.866 c 0,-0.236 0.068,-0.468 0.193,-0.667 l 12.681,-20.078 c -5.191,1.276 -13.172,1.37 -15.374,1.37 z m -19.683,-3.51 c -0.199,-0.29 -0.318,-0.603 -0.317,-0.944 0,-3.556 11.73,-4.214 18.723,-4.29 l 0.026,2.5 c -8.59,0.094 -13.839,1.074 -15.689,1.804 1.963,0.82 7.744,1.94 16.94,1.94 9.172,0 14.946,-1.114 16.924,-1.932 -0.807,-0.326 -2.48,-0.809 -5.825,-1.218 l 0.302,-2.481 c 7.578,0.925 8.599,2.377 8.599,3.677 0,0.341 -0.119,0.654 -0.318,0.944 l -14.682,23.247 v 3.388 c 0,0.51 -0.31,0.97 -0.784,1.16 -1.364,0.547 -2.734,0.82 -4.134,0.82 -1.388,0 -2.803,-0.269 -4.265,-0.808 -0.49,-0.181 -0.818,-0.649 -0.817,-1.172 v -3.388 z m 28.338,36.156 c 0.194,0.468 0.086,1.005 -0.271,1.363 l -7.5,7.5 c -0.244,0.244 -0.564,0.366 -0.884,0.366 -0.32,0 -0.64,-0.122 -0.884,-0.366 l -7.5,-7.5 c -0.357,-0.357 -0.465,-0.895 -0.271,-1.363 0.193,-0.466 0.65,-0.771 1.155,-0.771 h 3.75 v -3.75 h 2.5 v 5 c 0,0.69 -0.559,1.25 -1.25,1.25 h -1.983 l 4.483,4.483 4.482,-4.483 h -1.982 c -0.691,0 -1.25,-0.56 -1.25,-1.25 v -5 h 2.5 v 3.75 h 3.75 c 0.505,0 0.963,0.305 1.155,0.771 z"/></g></svg>