<svg xmlns="http://www.w3.org/2000/svg" viewBox="0 0 100 100"><defs/><defs><linearGradient id="a" x1="0" x2="1" y1="1" y2="0"><stop offset="0%" stop-color="#C8511B"/><stop offset="100%" stop-color="#F90"/></linearGradient></defs><g><path fill="url(#a)" fill-rule="evenodd" d="m 0,0 h 100 v 100 h -100 z"/><path fill="#fff" fill-rule="evenodd" d="m 57.436,73.192 h 2.5 v 5.82 c 0,0.448 -0.237,0.86 -0.625,1.082 l -8.207,4.739 c -0.194,0.112 -0.41,0.168 -0.625,0.167 -0.216,0 -0.432,-0.055 -0.625,-0.167 l -8.208,-4.739 c -0.386,-0.222 -0.625,-0.635 -0.625,-1.082 v -5.82 h 2.5 v 3.655 l 5.708,-3.294 v -5.1 h 2.5 v 5.821 c 0,0.446 -0.239,0.859 -0.625,1.083 l -6.333,3.655 5.708,3.295 6.957,-4.017 z m -13.915,-46.382 h -2.5 v -5.821 c 0,-0.448 0.239,-0.86 0.625,-1.082 l 8.208,-4.739 c 0.385,-0.224 0.864,-0.224 1.25,0 l 8.207,4.739 c 0.388,0.222 0.625,0.635 0.625,1.082 v 5.821 h -2.5 v -3.656 l -5.707,3.295 v 5.1 h -2.5 v -5.821 c 0,-0.446 0.237,-0.859 0.625,-1.083 l 6.332,-3.656 -5.707,-3.295 -6.958,4.016 z m 34.935,13.628 -6.332,-3.656 c -0.386,-0.224 -0.864,-0.224 -1.25,0 l -12.814,7.398 -28.602,16.513 -5.708,-3.294 19.146,-11.054 c 0.388,-0.224 0.625,-0.636 0.625,-1.082 0,-0.448 -0.237,-0.86 -0.625,-1.083 l -12.188,-7.037 v -6.59 l 19.146,11.054 c 0.385,0.224 0.864,0.224 1.25,0 l 20.395,-11.775 6.957,4.016 z m -20.396,13.219 c -0.388,0.222 -0.625,0.635 -0.625,1.082 0,0.446 0.237,0.859 0.625,1.083 l 12.189,7.036 v 6.591 l -19.145,-11.054 c -0.386,-0.224 -0.865,-0.224 -1.25,0 l -20.397,11.775 -6.957,-4.016 v -6.59 l 6.332,3.655 c 0.386,0.224 0.865,0.224 1.25,0 l 29.228,-16.874 12.189,-7.037 5.707,3.295 z m 20.396,4.463 v 8.034 l -5.707,3.295 v -7.312 c 0,-0.446 -0.237,-0.859 -0.625,-1.083 l -10.939,-6.315 5.706,-3.295 z m -55.956,-16.238 v -8.034 l 5.708,-3.295 v 7.311 c 0,0.448 0.239,0.86 0.625,1.083 l 10.938,6.316 -5.707,3.295 z m 58.456,0.721 v -9.478 c 0,-0.446 -0.237,-0.859 -0.625,-1.082 l -8.207,-4.738 c -0.386,-0.224 -0.864,-0.224 -1.25,0 l -20.395,11.775 -20.396,-11.775 c -0.385,-0.224 -0.864,-0.224 -1.25,0 l -8.208,4.738 c -0.388,0.224 -0.625,0.636 -0.625,1.082 v 9.478 c 0,0.446 0.237,0.859 0.625,1.082 l 10.939,6.315 -10.939,6.317 c -0.388,0.222 -0.625,0.635 -0.625,1.082 v 9.476 c 0,0.448 0.237,0.86 0.625,1.083 l 8.208,4.739 c 0.386,0.224 0.865,0.224 1.25,0 l 20.396,-11.775 20.395,11.775 c 0.193,0.111 0.409,0.168 0.625,0.167 0.216,0 0.432,-0.057 0.625,-0.167 l 8.207,-4.739 c 0.388,-0.222 0.625,-0.635 0.625,-1.083 v -9.476 c 0,-0.448 -0.237,-0.86 -0.625,-1.082 l -10.94,-6.317 10.94,-6.315 c 0.388,-0.224 0.625,-0.636 0.625,-1.082 z"/></g></svg>