<svg xmlns="http://www.w3.org/2000/svg" viewBox="0 0 100 100"><defs/><defs><linearGradient id="a" x1="0" x2="1" y1="1" y2="0"><stop offset="0%" stop-color="#BD0816"/><stop offset="100%" stop-color="#FF5252"/></linearGradient></defs><g><path fill="url(#a)" fill-rule="evenodd" d="m 0,0 h 100 v 100 h -100 z"/><path fill="#fff" fill-rule="evenodd" d="m 41.25,75 c 0,-0.689 -0.56,-1.25 -1.25,-1.25 -0.69,0 -1.25,0.561 -1.25,1.25 0,0.689 0.56,1.25 1.25,1.25 0.69,0 1.25,-0.561 1.25,-1.25 z m 2.5,0 c 0,2.067 -1.683,3.75 -3.75,3.75 -2.067,0 -3.75,-1.683 -3.75,-3.75 0,-2.067 1.683,-3.75 3.75,-3.75 2.067,0 3.75,1.683 3.75,3.75 z m 24.289,1.056 -2.307,-2.306 h -17.345 c -0.552,0 -1.04,-0.364 -1.197,-0.894 -0.939,-3.154 -3.895,-5.356 -7.19,-5.356 -4.136,0 -7.5,3.364 -7.5,7.5 0,4.136 3.364,7.5 7.5,7.5 2.883,0 5.543,-1.683 6.779,-4.286 0.208,-0.436 0.646,-0.714 1.129,-0.714 h 3.342 c 0.333,0 0.65,0.131 0.884,0.366 l 1.616,1.616 1.616,-1.616 c 0.234,-0.235 0.551,-0.366 0.884,-0.366 h 2.5 c 0.333,0 0.65,0.131 0.884,0.366 l 1.616,1.616 1.616,-1.616 c 0.234,-0.235 0.551,-0.366 0.884,-0.366 h 2.121 z m 2.845,-0.69 c 0.265,0.265 0.396,0.634 0.36,1.008 -0.036,0.371 -0.239,0.709 -0.55,0.916 l -3.75,2.5 c -0.205,0.136 -0.448,0.21 -0.694,0.21 h -1.983 l -2.133,2.134 c -0.489,0.489 -1.279,0.489 -1.768,0 l -2.134,-2.134 h -1.465 l -2.133,2.134 c -0.489,0.489 -1.279,0.489 -1.768,0 l -2.134,-2.134 h -2.071 c -1.772,3.061 -5.09,5 -8.661,5 -5.514,0 -10,-4.486 -10,-10 0,-5.514 4.486,-10 10,-10 4.075,0 7.76,2.527 9.272,6.25 h 16.978 c 0.333,0 0.65,0.131 0.884,0.366 z m -11.617,-44.116 6.983,6.982 6.983,-6.982 -6.983,-6.982 z m 6.099,9.634 -8.75,-8.75 c -0.489,-0.489 -0.489,-1.279 0,-1.768 l 8.75,-8.75 c 0.489,-0.489 1.279,-0.489 1.768,0 l 8.75,8.75 c 0.489,0.489 0.489,1.279 0,1.768 l -8.75,8.75 c -0.244,0.244 -0.564,0.366 -0.884,0.366 -0.32,0 -0.64,-0.122 -0.884,-0.366 z m -22.754,-4.634 -7.608,-10.38 -7.549,10.38 z m 2.467,2.5 h -20.079 c -0.47,0 -0.901,-0.264 -1.114,-0.683 -0.214,-0.419 -0.174,-0.922 0.103,-1.302 l 10,-13.75 c 0.235,-0.323 0.61,-0.515 1.009,-0.515 0.432,-0.02 0.775,0.189 1.011,0.511 l 10.077,13.75 c 0.279,0.38 0.32,0.884 0.106,1.304 -0.213,0.42 -0.644,0.685 -1.113,0.685 z m -17.579,14.375 c 0,3.791 3.085,6.875 6.875,6.875 3.79,0 6.875,-3.084 6.875,-6.875 0,-3.791 -3.085,-6.875 -6.875,-6.875 -3.79,0 -6.875,3.084 -6.875,6.875 z m -2.5,0 c 0,-5.17 4.205,-9.375 9.375,-9.375 5.17,0 9.375,4.205 9.375,9.375 0,5.17 -4.205,9.375 -9.375,9.375 -5.17,0 -9.375,-4.205 -9.375,-9.375 z m 35,5.625 h 11.25 v -11.25 h -11.25 z m 13.75,1.25 c 0,0.69 -0.559,1.25 -1.25,1.25 h -13.75 c -0.691,0 -1.25,-0.56 -1.25,-1.25 v -13.75 c 0,-0.69 0.559,-1.25 1.25,-1.25 h 13.75 c 0.691,0 1.25,0.56 1.25,1.25 z m 11.25,-43.75 v 62.5 c 0,0.69 -0.559,1.25 -1.25,1.25 h -10 v -2.5 h 8.75 v -60 h -65 v 60 h 8.75 v 2.5 h -10 c -0.691,0 -1.25,-0.56 -1.25,-1.25 v -62.5 c 0,-0.69 0.559,-1.25 1.25,-1.25 h 67.5 c 0.691,0 1.25,0.56 1.25,1.25 z"/></g></svg>