<svg xmlns="http://www.w3.org/2000/svg" viewBox="0 0 100 100"><defs/><defs><linearGradient id="a" x1="0" x2="1" y1="1" y2="0"><stop offset="0%" stop-color="#C8511B"/><stop offset="100%" stop-color="#F90"/></linearGradient></defs><g><path fill="url(#a)" fill-rule="evenodd" d="m 0,0 h 100 v 100 h -100 z"/><path fill="#fff" fill-rule="evenodd" d="m 77.5,65.528 -8.12,4.641 1.24,2.17 8.75,-5.001 c 0.39,-0.221 0.63,-0.636 0.63,-1.085 v -8.752 h -2.5 z m -11.25,-26.055 -16.25,-9.287 -16.25,9.287 v 19.846 l 16.25,10.448 16.25,-10.448 z m 13.75,-5.722 v 8.748 h -2.5 v -6.825 l -8.75,3.887 v 20.441 c 0,0.425 -0.216,0.821 -0.574,1.051 l -16.926,10.884 v 8.437 l 6.893,-3.833 1.215,2.186 -8.751,4.865 c -0.189,0.105 -0.399,0.158 -0.607,0.158 -0.209,0 -0.419,-0.053 -0.608,-0.158 l -8.75,-4.865 1.215,-2.186 6.893,3.833 v -8.437 l -16.926,-10.884 c -0.357,-0.23 -0.574,-0.626 -0.574,-1.051 v -20.441 l -8.75,-3.89 v 6.828 h -2.5 v -8.748 c 0,-0.449 0.24,-0.863 0.63,-1.087 l 8.75,-5.003 1.24,2.17 -6.604,3.777 8.413,3.74 16.951,-9.687 c 0.384,-0.22 0.856,-0.22 1.24,0 l 16.951,9.688 8.415,-3.74 -6.606,-3.778 1.24,-2.17 8.75,5.003 c 0.39,0.224 0.63,0.638 0.63,1.087 z m -30,10.205 -5,3.001 v 6.086 l 5,3.001 5,-3.001 v -6.086 z m 0.644,-2.529 5.661,3.397 4.386,-2.193 1.118,2.237 -4.309,2.154 v 6.729 c 0,0.439 -0.231,0.846 -0.606,1.071 l -5.644,3.387 v 5.544 h -2.5 v -5.544 l -5.644,-3.387 c -0.375,-0.225 -0.606,-0.633 -0.606,-1.071 v -6.729 l -4.309,-2.154 1.118,-2.237 4.386,2.193 5.661,-3.397 c 0.396,-0.239 0.891,-0.239 1.288,0 z m -0.644,-22.497 8.143,4.53 1.214,-2.185 -8.75,-4.867 c -0.378,-0.21 -0.838,-0.21 -1.215,0 l -8.75,4.867 1.215,2.185 z m -27.5,46.594 8.12,4.645 -1.24,2.17 -8.75,-5.005 c -0.39,-0.223 -0.63,-0.636 -0.63,-1.085 v -8.748 h 2.5 z"/></g></svg>