<svg xmlns="http://www.w3.org/2000/svg" viewBox="0 0 100 100"><defs/><defs><linearGradient id="a" x1="0" x2="1" y1="1" y2="0"><stop offset="0%" stop-color="#2E27AD"/><stop offset="100%" stop-color="#527FFF"/></linearGradient></defs><g><path fill="url(#a)" fill-rule="evenodd" d="m 0,0 h 100 v 100 h -100 z"/><path fill="#fff" fill-rule="evenodd" d="m 33.285,35.131 h -2.522 v -8.727 c 0,-0.698 0.45,-1.238 1.158,-1.238 l 8.931,-0.009 v 2.494 h -5.915 l 6.077,6.022 -1.805,1.793 -6.008,-5.909 z m 35.088,13.584 2.336,1.034 -8.177,18.057 -2.334,-1.033 z m 1.638,13.116 5.004,-3.612 -4.407,-4.42 1.822,-1.776 5.449,5.465 c 0.261,0.262 0.395,0.623 0.363,0.99 -0.029,0.367 -0.219,0.703 -0.521,0.919 l -6.203,4.476 z m -11.304,-11.003 1.507,2.043 -5.077,3.664 4.423,4.421 -1.818,1.779 -5.468,-5.466 c -0.262,-0.262 -0.397,-0.623 -0.365,-0.99 0.029,-0.368 0.218,-0.703 0.521,-0.92 z m 27.543,-20.665 v 53.572 c 0,0.699 -0.573,1.265 -1.28,1.265 h -39.074 c -0.34,0 -0.665,-0.133 -0.904,-0.372 -0.24,-0.237 -0.357,-0.54 -0.357,-0.875 v -14.96 h 2.522 v 13.714 h 36.571 v -51.116 h -36.571 v -2.494 h 37.813 c 0.707,0 1.28,0.566 1.28,1.266 z m -44.773,13.072 c 0,-2.409 1.981,-4.369 4.419,-4.369 2.438,0 4.419,1.96 4.419,4.369 0,2.409 -1.981,4.369 -4.419,4.368 -2.438,0 -4.419,-1.96 -4.419,-4.368 z m -19.541,39.277 c -2.438,0 -4.419,-1.96 -4.419,-4.369 0,-2.409 1.981,-4.369 4.419,-4.369 2.438,0 4.419,1.96 4.419,4.369 0,2.409 -1.981,4.369 -4.419,4.369 z m -4.419,-29.304 c 0,-2.409 1.981,-4.369 4.419,-4.368 2.478,0 4.419,1.919 4.419,4.368 0,2.409 -1.981,4.369 -4.419,4.369 -2.438,0 -4.419,-1.96 -4.419,-4.369 z m 0.005,-31.351 c 0,-2.406 1.98,-4.364 4.414,-4.364 2.434,0 4.414,1.957 4.414,4.364 0,2.405 -1.98,4.364 -4.414,4.364 -2.434,0 -4.414,-1.959 -4.414,-4.364 z m 29.635,37.204 v -9.097 c 3.212,-0.596 5.67,-3.385 5.67,-6.729 0,-3.778 -3.11,-6.852 -6.931,-6.852 -3.821,0 -6.931,3.074 -6.931,6.852 0,3.345 2.458,6.134 5.67,6.729 v 9.097 c 0,1.454 -0.982,2.771 -2.476,3.357 l -13.063,5.125 c -2.091,0.82 -3.628,2.434 -4.293,4.37 -0.541,-0.244 -1.001,-0.42 -1.606,-0.521 v -11.433 c 3.279,-0.541 5.67,-3.359 5.67,-6.751 0,-3.455 -2.348,-6.215 -5.67,-6.741 v -17.855 c 3.283,-0.54 5.675,-3.36 5.675,-6.755 0,-3.781 -3.111,-6.857 -6.936,-6.857 -3.825,0 -6.936,3.076 -6.936,6.857 0,3.3 2.527,6.063 5.675,6.711 v 17.934 c -3.144,0.648 -5.67,3.409 -5.67,6.706 0,3.298 2.526,6.058 5.67,6.707 v 11.522 c -3.144,0.648 -5.67,3.409 -5.67,6.706 0,3.778 3.11,6.852 6.931,6.852 3.821,0 6.931,-3.074 6.931,-6.852 0,-1.779 -0.696,-3.397 -1.824,-4.617 0.209,-1.588 1.333,-2.98 2.996,-3.631 l 13.064,-5.126 c 2.474,-0.971 4.054,-3.212 4.054,-5.708 z"/></g></svg>