<svg xmlns="http://www.w3.org/2000/svg" viewBox="0 0 100 100"><defs/><defs><linearGradient id="a" x1="0" x2="1" y1="1" y2="0"><stop offset="0%" stop-color="#055F4E"/><stop offset="100%" stop-color="#56C0A7"/></linearGradient></defs><g><path fill="url(#a)" fill-rule="evenodd" d="m 0,0 h 100 v 100 h -100 z"/><path fill="#fff" fill-rule="evenodd" d="m 19.706,35.104 h 6.075 v -2.5 h -4.687 l 2.142,-3.854 h 7.276 l 1.944,3.541 -2.604,5.209 h -7.352 v 2.5 h 8.125 c 0.474,0 0.906,-0.268 1.119,-0.691 l 2.78,-5.559 h 3.528 l 2.757,5.555 c 0.211,0.425 0.644,0.695 1.118,0.695 h 4.736 l -2.142,3.75 h -23.812 l -3.015,-5.025 z m 14.818,-11.354 h 8.453 l 2.155,4.309 c 0.212,0.424 0.644,0.691 1.118,0.691 h 8.013 l 2.613,4.701 -3.15,6.301 2.236,1.119 2.385,-4.772 1.46,2.626 -3.015,5.025 h -9.392 l 5.301,-9.276 -2.171,-1.24 -2.438,4.266 h -5.39 l -2.563,-5.169 2.828,-4.242 -2.08,-1.388 -3.031,4.549 h -3.12 l -2.075,-3.778 z m -15.595,21.892 c 0.226,0.376 0.632,0.607 1.071,0.608 h 37.5 c 0.44,0 0.846,-0.231 1.072,-0.608 l 3.75,-6.25 c 0.229,-0.383 0.237,-0.86 0.02,-1.25 l -6.25,-11.25 c -0.219,-0.398 -0.637,-0.643 -1.092,-0.642 h -7.977 l -2.155,-4.31 c -0.212,-0.424 -0.645,-0.69 -1.118,-0.69 h -10 c -0.474,0 -0.905,0.266 -1.118,0.69 l -2.155,4.31 h -7.977 c -0.454,0 -0.872,0.245 -1.093,0.642 l -6.25,11.25 c -0.217,0.39 -0.209,0.867 0.022,1.25 z m 54.944,8.113 c -0.579,-0.055 -1.116,0.29 -1.305,0.836 -0.075,0.216 -7.736,21.659 -27.568,21.659 -6.332,0 -26.736,-1.737 -27.479,-23.75 h 49.978 c 0.429,0 0.827,-0.22 1.058,-0.582 0.229,-0.362 0.256,-0.818 0.072,-1.205 -2.686,-5.65 -0.706,-9.836 0.413,-11.535 1.554,1.136 4.521,3.916 3.496,8.018 -0.1,0.396 0.001,0.815 0.269,1.123 0.267,0.307 0.67,0.468 1.076,0.424 0.055,-0.004 5.22,-0.52 8.211,1.507 -1.05,1.386 -3.652,3.961 -8.221,3.505 z m 10.76,-4.64 c -2.606,-2.605 -7.04,-2.95 -9.407,-2.938 0.361,-4.999 -3.546,-8.527 -5.887,-9.78 -0.496,-0.268 -1.117,-0.166 -1.503,0.25 -0.219,0.234 -4.962,5.461 -2.203,13.353 h -49.383 c -0.69,0 -1.25,0.559 -1.25,1.25 0,10.336 3.812,17.96 11.33,22.661 6.734,4.21 14.587,4.839 18.67,4.839 19.174,0 27.811,-18.157 29.581,-22.445 7.114,0.166 10.147,-5.476 10.278,-5.73 0.251,-0.484 0.16,-1.074 -0.226,-1.46 z"/></g></svg>