<svg xmlns="http://www.w3.org/2000/svg" viewBox="0 0 100 100"><defs/><defs><linearGradient id="a" x1="0" x2="1" y1="1" y2="0"><stop offset="0%" stop-color="#2E27AD"/><stop offset="100%" stop-color="#527FFF"/></linearGradient></defs><g><path fill="url(#a)" fill-rule="evenodd" d="m 0,0 h 100 v 100 h -100 z"/><path fill="#fff" fill-rule="evenodd" d="m 46.06,57.66 7.406,-16.544 2.283,1.023 -7.406,16.542 z m 10.369,-5.039 4.449,-3.245 -3.919,-3.975 1.78,-1.755 4.936,5.006 c 0.255,0.259 0.385,0.617 0.356,0.98 -0.029,0.362 -0.216,0.694 -0.508,0.908 l -5.619,4.1 z m -11.049,-7.112 -4.513,3.293 3.93,3.975 -1.777,1.758 -4.953,-5.006 c -0.256,-0.259 -0.386,-0.617 -0.357,-0.98 0.03,-0.362 0.215,-0.695 0.51,-0.909 l 5.685,-4.15 z m -1.44,-28.358 -25.19,14.894 v 29.044 h -2.5 v -29.757 c 0,-0.443 0.234,-0.851 0.615,-1.076 l 25.802,-15.256 z m 41.06,21.438 v 30.08 c 0,0.448 -0.239,0.86 -0.626,1.083 l -25.783,14.845 -1.247,-2.166 25.156,-14.485 v -29.357 z m -15,22.241 -18.85,10.719 -18.65,-10.929 v -21.655 l 18.637,-10.716 18.863,10.935 z m 2.5,0.727 v -23.093 c 0,-0.446 -0.236,-0.858 -0.623,-1.083 l -20.11,-11.657 c -0.388,-0.225 -0.864,-0.225 -1.25,-0.003 l -19.89,11.438 c -0.388,0.222 -0.627,0.636 -0.627,1.083 v 23.094 c 0,0.444 0.236,0.854 0.617,1.079 l 19.892,11.656 c 0.195,0.114 0.414,0.171 0.631,0.171 0.214,0 0.426,-0.054 0.619,-0.163 l 20.108,-11.435 c 0.391,-0.222 0.633,-0.637 0.633,-1.087 z"/></g></svg>