<svg xmlns="http://www.w3.org/2000/svg" viewBox="0 0 100 100"><defs/><defs><linearGradient id="a" x1="0" x2="1" y1="1" y2="0"><stop offset="0%" stop-color="#2E27AD"/><stop offset="100%" stop-color="#527FFF"/></linearGradient></defs><g><path fill="url(#a)" fill-rule="evenodd" d="m 0,0 h 100 v 100 h -100 z"/><path fill="#fff" fill-rule="evenodd" d="m 54.301,53.264 c -0.66,0.374 -1.388,0.665 -2.181,0.873 -0.795,0.208 -1.584,0.311 -2.367,0.311 -1.361,0 -2.393,-0.378 -3.093,-1.137 -0.703,-0.758 -1.052,-1.864 -1.052,-3.32 0,-1.371 0.366,-2.467 1.098,-3.288 0.731,-0.82 1.706,-1.23 2.924,-1.231 3.051,0 4.609,2.452 4.671,7.356 z m -4.61,-10.348 c -1.422,0 -2.681,0.317 -3.775,0.951 -1.093,0.635 -1.934,1.496 -2.521,2.586 -0.587,1.091 -0.881,2.334 -0.881,3.726 0,2.099 0.583,3.75 1.747,4.955 1.165,1.205 2.749,1.807 4.75,1.808 0.948,0 1.876,-0.14 2.784,-0.421 0.907,-0.28 1.732,-0.67 2.475,-1.169 -0.145,2.578 -0.726,4.478 -1.749,5.704 -1.02,1.228 -2.52,1.84 -4.5,1.84 -1.424,0 -2.981,-0.384 -4.672,-1.154 v 2.369 c 1.361,0.893 3.063,1.34 5.105,1.34 2.846,0 5.042,-1.049 6.59,-3.147 1.546,-2.099 2.32,-5.102 2.32,-9.008 0,-3.388 -0.655,-5.963 -1.965,-7.73 -1.31,-1.766 -3.211,-2.65 -5.708,-2.65 z m 21.403,27.065 h -42.399 c -5.951,-0.005 -10.86,-4.383 -11.174,-9.959 -0.015,-0.254 -0.021,-0.516 -0.021,-0.785 0,-7.177 5.107,-9.586 8.226,-10.387 0.015,-0.003 0.031,-0.005 0.049,-0.009 0.639,-0.131 1.07,-0.737 0.99,-1.389 -0.079,-0.63 -0.117,-1.277 -0.117,-1.924 0,-5.784 4.112,-12.012 9.362,-14.177 6.326,-2.608 13.024,-1.308 17.921,3.476 1.909,1.864 3.397,4.245 4.425,7.076 0.158,0.433 0.535,0.744 0.987,0.814 0.451,0.067 0.904,-0.115 1.182,-0.48 1.535,-2.026 4.019,-2.876 6.341,-2.162 2.699,0.831 4.446,3.594 4.673,7.392 0.034,0.57 0.445,1.047 1.001,1.16 4.544,0.922 9.96,3.53 9.96,10.711 0,9.876 -8.731,10.643 -11.406,10.643 z m 2.855,-23.618 c -0.53,-4.407 -2.86,-7.623 -6.353,-8.697 -2.679,-0.824 -5.499,-0.212 -7.635,1.554 -1.099,-2.408 -2.536,-4.488 -4.288,-6.202 -5.633,-5.502 -13.336,-6.998 -20.61,-3.998 -6.223,2.567 -10.915,9.663 -10.915,16.508 0,0.384 0.013,0.768 0.035,1.15 -3.399,1.097 -9.183,4.192 -9.183,12.559 0,0.314 0.009,0.62 0.025,0.924 0.389,6.911 6.391,12.333 13.669,12.339 h 42.4 c 6.723,0 13.906,-3.457 13.906,-13.162 0,-6.653 -3.915,-11.234 -11.051,-12.975 z"/></g></svg>