<svg xmlns="http://www.w3.org/2000/svg" viewBox="0 0 100 100"><defs/><defs><linearGradient id="a" x1="0" x2="1" y1="1" y2="0"><stop offset="0%" stop-color="#055F4E"/><stop offset="100%" stop-color="#56C0A7"/></linearGradient></defs><g><path fill="url(#a)" fill-rule="evenodd" d="m 0,0 h 100 v 100 h -100 z"/><path fill="#fff" fill-rule="evenodd" d="m 21.215,38.75 h 17.38 v -2.5 h -17.38 z m 37.242,43.75 h 2.482 v -11.25 h -2.482 z m -8.69,2.5 h 2.483 v -13.75 h -2.483 z m -8.69,-2.5 h 2.483 v -11.25 h -2.483 z m -19.862,-50 h 17.38 v -2.5 h -17.38 z m 0,-6.25 h 17.38 v -2.5 h -17.38 z m -2.482,38.75 h 22.344 v -47.5 h -22.344 z m 24.827,-48.75 v 50 c 0,0.69 -0.555,1.25 -1.241,1.25 h -24.828 c -0.686,0 -1.241,-0.56 -1.241,-1.25 v -50 c 0,-0.69 0.555,-1.25 1.241,-1.25 h 24.828 c 0.686,0 1.241,0.56 1.241,1.25 z m 41.438,38.209 c 0.07,3.789 -1.901,7.385 -5.547,10.102 -3.645,2.739 -8.141,2.931 -8.33,2.939 h -12.664 v -2.5 h 12.619 c -0.009,0 3.881,-0.181 6.895,-2.445 1.73,-1.29 4.618,-4.051 4.544,-8.073 0,-5.126 -3.799,-9.324 -8.834,-9.788 -0.679,-0.063 -1.181,-0.664 -1.125,-1.349 0.011,-0.144 0.034,-0.291 0.058,-0.448 0.081,-0.512 0.163,-1.044 -0.407,-2.415 -1.002,-2.413 -3.823,-3.904 -6.551,-3.467 -1.194,0.191 -2.297,0.745 -3.186,1.602 -0.302,0.29 -0.726,0.41 -1.135,0.315 -0.406,-0.094 -0.739,-0.386 -0.886,-0.78 -2.092,-5.624 -7.495,-9.402 -13.443,-9.402 h -0.006 c -0.682,-0.004 -1.239,-0.561 -1.239,-1.25 0,-0.69 0.554,-1.25 1.239,-1.25 l 0.284,0.002 c 6.315,0.109 12.062,3.834 14.831,9.488 0.958,-0.607 2.025,-1.014 3.152,-1.194 3.899,-0.623 7.777,1.469 9.232,4.971 0.53,1.276 0.665,2.155 0.653,2.865 5.694,1.114 9.847,6.101 9.846,12.077 z"/></g></svg>