<svg xmlns="http://www.w3.org/2000/svg" viewBox="0 0 100 100"><defs/><defs><linearGradient id="a" x1="0" x2="1" y1="1" y2="0"><stop offset="0%" stop-color="#4D27A8"/><stop offset="100%" stop-color="#A166FF"/></linearGradient></defs><g><path fill="url(#a)" fill-rule="evenodd" d="m 0,0 h 100 v 100 h -100 z"/><path fill="#fff" fill-rule="evenodd" d="m 68.903,65.154 c 0,-2.067 -1.683,-3.75 -3.751,-3.75 -2.067,0 -3.75,1.683 -3.75,3.75 0,2.067 1.683,3.75 3.75,3.75 2.067,0 3.75,-1.683 3.75,-3.75 z m 2.499,0 c 0,3.446 -2.804,6.25 -6.25,6.25 -3.446,0 -6.25,-2.804 -6.25,-6.25 0,-3.446 2.804,-6.25 6.25,-6.25 3.446,0 6.25,2.804 6.25,6.25 z m -33.412,-18.039 c 0,-2.067 -1.683,-3.75 -3.75,-3.75 -2.069,0 -3.75,1.683 -3.75,3.75 0,2.067 1.681,3.75 3.75,3.75 2.067,0 3.75,-1.683 3.75,-3.75 z m 2.5,0 c 0,3.446 -2.805,6.25 -6.25,6.25 -3.446,0 -6.25,-2.804 -6.25,-6.25 0,-3.446 2.804,-6.25 6.25,-6.25 3.445,0 6.25,2.804 6.25,6.25 z m 9.172,-19.606 c 0,2.067 1.683,3.75 3.75,3.75 2.069,0 3.75,-1.683 3.75,-3.75 0,-2.069 -1.681,-3.75 -3.75,-3.75 -2.067,0 -3.75,1.681 -3.75,3.75 z m -2.5,0 c 0,-3.446 2.805,-6.25 6.25,-6.25 3.446,0 6.25,2.804 6.25,6.25 0,3.446 -2.804,6.25 -6.25,6.25 -3.445,0 -6.25,-2.804 -6.25,-6.25 z m 35.338,22.491 c 0,-11.591 -6.215,-22.315 -16.235,-28.114 -1.796,0.362 -3.534,0.859 -5.701,1.643 l -0.85,-2.351 c 1.131,-0.408 2.144,-0.737 3.118,-1.02 -4.025,-1.736 -8.398,-2.657 -12.832,-2.658 -2.111,0 -4.189,0.219 -6.219,0.615 1.47,0.86 2.774,1.718 4.04,2.678 l -1.511,1.991 c -1.785,-1.353 -3.635,-2.499 -6.064,-3.771 -12.274,3.86 -21.114,14.685 -22.517,27.397 2.574,-0.521 5.045,-0.805 7.788,-0.872 l 0.062,2.498 c -2.875,0.071 -5.345,0.376 -8.045,0.97 -0.011,0.331 -0.034,0.666 -0.034,0.994 0,10.822 5.354,20.795 14.159,26.809 -1.566,-4.664 -2.346,-9.071 -2.347,-13.376 0,-2.455 0.423,-4.471 0.869,-6.605 0.104,-0.494 0.209,-0.996 0.311,-1.518 l 2.454,0.484 c -0.105,0.53 -0.213,1.044 -0.317,1.547 -0.438,2.09 -0.816,3.895 -0.817,6.092 0,4.885 1.073,9.936 3.255,15.421 4.649,2.414 9.669,3.646 14.933,3.646 3.445,0 6.807,-0.55 10.015,-1.607 1.259,-2.484 2.192,-4.828 2.972,-7.519 l 2.402,0.696 c -0.57,1.963 -1.224,3.746 -2.003,5.526 2.018,-0.907 3.926,-2.03 5.718,-3.34 -0.431,-1.057 -0.894,-2.109 -1.405,-3.132 l 2.236,-1.119 c 0.435,0.87 0.834,1.76 1.215,2.655 7.231,-6.191 11.35,-15.085 11.35,-24.66 z m 2.5,0 c 0,10.909 -4.958,20.999 -13.599,27.686 -2.14,1.663 -4.461,3.043 -6.915,4.154 -1.041,0.473 -2.101,0.91 -3.191,1.278 -3.6,1.249 -7.404,1.883 -11.295,1.882 -5.75,0 -11.46,-1.432 -16.515,-4.142 -11.401,-6.1 -18.485,-17.924 -18.485,-30.858 0,-0.858 0.022,-1.51 0.074,-2.114 0.851,-14.605 10.871,-27.246 24.927,-31.428 3.201,-0.966 6.567,-1.458 9.999,-1.458 6.01,0 11.924,1.547 17.105,4.474 11.036,6.182 17.895,17.881 17.895,30.526 z m -38.358,-18.171 -1.642,-1.884 c -2.803,2.445 -4.982,5.041 -7.529,8.963 l 2.098,1.361 c 2.41,-3.714 4.46,-6.159 7.073,-8.44 z m -3.798,16.205 -0.813,2.364 c 5.741,1.971 10.75,5.116 15.761,9.897 l 1.727,-1.809 c -5.282,-5.039 -10.581,-8.36 -16.675,-10.452 z m 16.713,-14.699 c 4.69,7.153 7.331,15.004 7.849,23.338 l -2.495,0.155 c -0.491,-7.895 -2.995,-15.337 -7.442,-22.122 z"/></g></svg>