<svg xmlns="http://www.w3.org/2000/svg" viewBox="0 0 100 100"><defs/><defs><linearGradient id="a" x1="0" x2="1" y1="1" y2="0"><stop offset="0%" stop-color="#055F4E"/><stop offset="100%" stop-color="#56C0A7"/></linearGradient></defs><g><path fill="url(#a)" fill-rule="evenodd" d="m 0,0 h 100 v 100 h -100 z"/><path fill="#fff" fill-rule="evenodd" d="m 38.491,44.073 11.25,-11.25 c 0.489,-0.489 1.279,-0.489 1.768,0 l 11.25,11.25 -1.768,1.767 -10.366,-10.366 -10.366,10.366 z m 13.018,3.75 11.25,11.25 -1.768,1.767 -10.366,-10.366 -10.366,10.366 -1.768,-1.767 11.25,-11.25 c 0.489,-0.489 1.279,-0.489 1.768,0 z m 11.25,3.75 -1.768,1.767 -10.366,-10.366 -10.366,10.366 -1.768,-1.767 11.25,-11.25 c 0.489,-0.489 1.279,-0.489 1.768,0 z m 8.205,17.461 c -1.219,1.216 -3.202,1.218 -4.421,0 -0.59,-0.591 -0.915,-1.375 -0.915,-2.21 0,-0.835 0.325,-1.62 0.915,-2.21 0.61,-0.609 1.41,-0.914 2.211,-0.914 0.8,0 1.6,0.305 2.21,0.914 1.216,1.219 1.216,3.201 0,4.42 z m -18.129,9.994 c -1.18,1.181 -3.24,1.181 -4.42,0 -0.59,-0.59 -0.915,-1.375 -0.915,-2.21 0,-0.834 0.325,-1.619 0.915,-2.209 0.59,-0.59 1.375,-0.915 2.21,-0.915 0.835,0 1.62,0.325 2.21,0.915 0.59,0.59 0.915,1.375 0.915,2.209 0,0.835 -0.325,1.62 -0.915,2.21 z m -21.29,-9.987 c -0.59,-0.591 -0.915,-1.375 -0.915,-2.21 0,-0.835 0.325,-1.619 0.915,-2.21 0.59,-0.59 1.375,-0.915 2.21,-0.915 0.835,0 1.62,0.325 2.21,0.915 0.59,0.591 0.915,1.375 0.915,2.21 0,0.835 -0.325,1.619 -0.915,2.21 -1.182,1.18 -3.237,1.18 -4.42,0 z m 33.23,-6.195 c -1.063,1.063 -1.647,2.475 -1.647,3.978 0,0.591 0.116,1.161 0.29,1.709 l -8.498,4.693 c -0.107,-0.128 -0.199,-0.266 -0.317,-0.385 -1.063,-1.063 -2.475,-1.647 -3.978,-1.647 -1.502,0 -2.915,0.585 -3.977,1.647 -0.096,0.096 -0.168,0.21 -0.257,0.313 l -7.361,-4.416 c 0.217,-0.605 0.35,-1.244 0.35,-1.907 0,-1.502 -0.585,-2.915 -1.647,-3.977 -1.063,-1.063 -2.475,-1.647 -3.978,-1.648 -1.502,0 -2.915,0.585 -3.977,1.648 -1.063,1.063 -1.647,2.475 -1.648,3.977 0,1.502 0.585,2.915 1.648,3.978 1.063,1.063 2.475,1.647 3.977,1.647 1.481,0 2.874,-0.574 3.93,-1.61 l 7.529,4.517 c -0.126,0.471 -0.214,0.955 -0.214,1.455 0,1.502 0.585,2.916 1.648,3.977 1.063,1.064 2.475,1.647 3.977,1.648 1.502,0 2.915,-0.584 3.978,-1.648 1.063,-1.061 1.647,-2.475 1.647,-3.977 0,-0.469 -0.076,-0.922 -0.186,-1.367 l 8.62,-4.761 c 0.033,0.035 0.057,0.076 0.091,0.111 1.096,1.096 2.537,1.644 3.978,1.644 1.44,0 2.883,-0.547 3.978,-1.644 2.192,-2.194 2.192,-5.763 0,-7.955 -2.191,-2.191 -5.763,-2.195 -7.956,0 z m 10.85,-4.14 c -1.724,0 -3.125,-1.403 -3.125,-3.125 0,-1.722 1.401,-3.125 3.125,-3.125 1.724,0 3.125,1.403 3.125,3.125 0,1.722 -1.401,3.125 -3.125,3.125 z m -3.125,-24.375 c 0,-1.722 1.401,-3.125 3.125,-3.125 1.724,0 3.125,1.403 3.125,3.125 0,1.722 -1.401,3.125 -3.125,3.125 -1.724,0 -3.125,-1.403 -3.125,-3.125 z m -15,-8.081 c -1.724,0 -3.125,-1.401 -3.125,-3.125 0,-1.722 1.401,-3.125 3.125,-3.125 1.724,0 3.125,1.403 3.125,3.125 0,1.724 -1.401,3.125 -3.125,3.125 z m 19.375,23.858 v -10.303 c 2.5,-0.571 4.375,-2.803 4.375,-5.474 0,-3.101 -2.524,-5.625 -5.625,-5.625 -1.313,0 -2.505,0.47 -3.462,1.225 l -9.317,-5.145 c 0.164,-0.529 0.279,-1.079 0.279,-1.661 0,-3.101 -2.524,-5.625 -5.625,-5.625 -3.101,0 -5.625,2.524 -5.625,5.625 0,3.103 2.524,5.625 5.625,5.625 1.62,0 3.071,-0.698 4.098,-1.797 l 8.972,4.956 c -0.354,0.736 -0.57,1.551 -0.57,2.422 0,2.671 1.875,4.902 4.375,5.474 v 10.303 c -2.5,0.571 -4.375,2.803 -4.375,5.473 0,3.101 2.524,5.625 5.625,5.625 3.101,0 5.625,-2.524 5.625,-5.625 0,-2.671 -1.875,-4.902 -4.375,-5.473 z m -51.25,8.598 c -1.724,0 -3.125,-1.403 -3.125,-3.125 0,-1.722 1.401,-3.125 3.125,-3.125 1.724,0 3.125,1.403 3.125,3.125 0,1.722 -1.401,3.125 -3.125,3.125 z m -3.125,-24.375 c 0,-1.722 1.401,-3.125 3.125,-3.125 1.724,0 3.125,1.403 3.125,3.125 0,1.722 -1.401,3.125 -3.125,3.125 -1.724,0 -3.125,-1.403 -3.125,-3.125 z m 21.25,-14.331 c 1.724,0 3.125,1.403 3.125,3.125 0,1.724 -1.401,3.125 -3.125,3.125 -1.724,0 -3.125,-1.401 -3.125,-3.125 0,-1.722 1.401,-3.125 3.125,-3.125 z m -12.5,35.581 c 0,-2.671 -1.875,-4.902 -4.375,-5.474 v -10.302 c 2.5,-0.571 4.375,-2.803 4.375,-5.474 0,-0.871 -0.216,-1.686 -0.57,-2.422 l 8.973,-4.957 c 1.026,1.1 2.478,1.797 4.097,1.798 3.101,0 5.625,-2.522 5.625,-5.625 0,-3.101 -2.524,-5.625 -5.625,-5.625 -3.101,0 -5.625,2.524 -5.625,5.625 0,0.583 0.115,1.133 0.279,1.661 l -9.316,5.145 c -0.958,-0.755 -2.15,-1.225 -3.463,-1.225 -3.101,0 -5.625,2.524 -5.625,5.625 0,2.671 1.875,4.902 4.375,5.474 v 10.302 c -2.5,0.571 -4.375,2.803 -4.375,5.474 0,3.101 2.524,5.625 5.625,5.625 3.101,0 5.625,-2.524 5.625,-5.625 z"/></g></svg>