<svg xmlns="http://www.w3.org/2000/svg" viewBox="0 0 100 100"><defs/><defs><linearGradient id="a" x1="0" x2="1" y1="1" y2="0"><stop offset="0%" stop-color="#C8511B"/><stop offset="100%" stop-color="#F90"/></linearGradient></defs><g><path fill="url(#a)" fill-rule="evenodd" d="m 0,0 h 100 v 100 h -100 z"/><path fill="#fff" fill-rule="evenodd" d="m 63.109,57.451 c 0,-2.072 -1.68,-3.758 -3.746,-3.759 -2.065,0 -3.745,1.686 -3.745,3.759 0,2.072 1.68,3.758 3.745,3.758 2.065,0 3.745,-1.686 3.746,-3.758 m -13.732,-12.528 c 2.065,0 3.745,-1.686 3.745,-3.758 0,-2.072 -1.68,-3.758 -3.745,-3.758 -2.065,0 -3.745,1.686 -3.745,3.758 0,2.072 1.68,3.758 3.745,3.758 m -11.236,13.78 c 2.065,0 3.745,-1.686 3.746,-3.758 0,-2.072 -1.68,-3.758 -3.746,-3.758 -2.065,0 -3.745,1.686 -3.745,3.758 0,2.072 1.68,3.758 3.745,3.758 m 27.464,-1.252 c 0,3.025 -2.148,5.555 -4.993,6.137 v 7.643 c 0,0.692 -0.558,1.253 -1.249,1.253 h -8.738 v 7.516 h -2.497 v -13.78 h -9.987 c -0.69,0 -1.248,-0.561 -1.248,-1.253 v -3.885 c -2.845,-0.583 -4.993,-3.112 -4.993,-6.137 0,-3.454 2.8,-6.264 6.241,-6.264 3.442,0 6.242,2.81 6.242,6.264 0,3.025 -2.148,5.555 -4.993,6.137 v 2.632 h 8.738 v -16.412 c -2.845,-0.583 -4.993,-3.112 -4.993,-6.137 0,-3.454 2.8,-6.264 6.242,-6.264 3.442,0 6.242,2.81 6.241,6.264 0,3.025 -2.148,5.555 -4.993,6.137 v 22.676 h 7.49 v -6.39 c -2.845,-0.583 -4.993,-3.112 -4.993,-6.137 0,-3.454 2.8,-6.264 6.241,-6.264 3.442,0 6.242,2.81 6.242,6.264 m 18.145,-6.186 c 0,9.179 -6.82,12.45 -13.201,12.449 v -2.505 c 3.218,0 10.705,-0.97 10.704,-9.944 0,-6.715 -5.088,-9.149 -9.356,-10.009 -0.557,-0.112 -0.967,-0.586 -1.001,-1.153 -0.31,-5.259 -3.363,-7.126 -5.886,-7.126 -1.705,0 -3.304,0.816 -4.387,2.239 -0.276,0.365 -0.73,0.55 -1.18,0.48 -0.449,-0.068 -0.828,-0.377 -0.985,-0.807 -0.977,-2.665 -2.381,-4.897 -4.172,-6.636 -4.603,-4.479 -10.898,-5.694 -16.842,-3.247 -4.936,2.017 -8.801,7.848 -8.801,13.276 0,0.6 0.036,1.203 0.11,1.792 0.077,0.63 -0.326,1.219 -0.939,1.37 -2.92,0.725 -7.817,2.953 -7.817,9.727 0,0.257 0.011,0.502 0.023,0.734 0.292,5.215 4.896,9.304 10.483,9.304 h 1.397 v 2.505 h -1.397 c -6.91,0 -12.61,-5.127 -12.976,-11.673 -0.014,-0.278 -0.027,-0.567 -0.027,-0.87 0,-7.871 5.439,-10.811 8.676,-11.861 -0.021,-0.342 -0.03,-0.685 -0.03,-1.028 0,-6.48 4.452,-13.185 10.355,-15.595 6.886,-2.832 14.185,-1.427 19.522,3.766 1.642,1.592 2.995,3.53 4.037,5.777 1.407,-1.134 3.133,-1.759 4.95,-1.758 3.699,0 7.586,2.648 8.294,8.532 6.746,1.651 10.446,5.977 10.446,12.261"/></g></svg>