<svg xmlns="http://www.w3.org/2000/svg" viewBox="0 0 100 100"><defs/><defs><linearGradient id="a" x1="0" x2="1" y1="1" y2="0"><stop offset="0%" stop-color="#055F4E"/><stop offset="100%" stop-color="#56C0A7"/></linearGradient></defs><g><path fill="url(#a)" fill-rule="evenodd" d="m 0,0 h 100 v 100 h -100 z"/><path fill="#fff" fill-rule="evenodd" d="m 77.5,66.771 -27.5,15.544 -27.5,-15.544 v -33.541 l 27.5,-15.544 27.5,15.544 z m 1.865,-35.359 -28.75,-16.25 c -0.38,-0.216 -0.849,-0.216 -1.23,0 l -28.75,16.25 c -0.393,0.221 -0.635,0.638 -0.635,1.088 v 35 c 0,0.451 0.242,0.868 0.635,1.089 l 28.75,16.25 c 0.19,0.109 0.403,0.161 0.615,0.161 0.213,0 0.425,-0.053 0.615,-0.161 l 28.75,-16.25 c 0.393,-0.221 0.635,-0.638 0.635,-1.089 v -35 c 0,-0.45 -0.242,-0.866 -0.635,-1.088 z m -26.865,-0.162 c 0,1.38 -1.121,2.5 -2.5,2.5 -1.379,0 -2.5,-1.12 -2.5,-2.5 0,-1.379 1.121,-2.5 2.5,-2.5 1.379,0 2.5,1.121 2.5,2.5 z m 16.25,13.75 c 0,1.38 -1.121,2.5 -2.5,2.5 -1.379,0 -2.5,-1.12 -2.5,-2.5 0,-1.379 1.121,-2.5 2.5,-2.5 1.379,0 2.5,1.121 2.5,2.5 z m -8.75,22.5 c -1.379,0 -2.5,-1.12 -2.5,-2.5 0,-1.379 1.121,-2.5 2.5,-2.5 1.379,0 2.5,1.121 2.5,2.5 0,1.38 -1.121,2.5 -2.5,2.5 z m -4.64,-12.145 2.74,5.025 c -0.521,0.215 -0.986,0.526 -1.403,0.895 l -4.615,-3.463 z m -12.058,5.92 c -0.416,-0.369 -0.881,-0.68 -1.402,-0.895 l 2.74,-5.025 3.277,2.457 z m -3.302,6.225 c -1.379,0 -2.5,-1.12 -2.5,-2.5 0,-1.379 1.121,-2.5 2.5,-2.5 1.379,0 2.5,1.121 2.5,2.5 0,1.38 -1.121,2.5 -2.5,2.5 z m -8.75,-22.5 c 0,-1.379 1.121,-2.5 2.5,-2.5 1.379,0 2.5,1.121 2.5,2.5 0,1.38 -1.121,2.5 -2.5,2.5 -1.379,0 -2.5,-1.12 -2.5,-2.5 z m 7.964,15.08 c -0.348,0.055 -0.685,0.143 -1.007,0.266 l -2.895,-10.62 c 0.398,-0.133 0.779,-0.3 1.125,-0.522 l 6.182,4.635 z m 9.536,-19.901 c -2.151,0.559 -3.75,2.499 -3.75,4.821 0,1.055 0.333,2.031 0.891,2.839 l -2.062,3.783 -5.694,-4.27 c 0.38,-0.705 0.615,-1.498 0.615,-2.352 0,-0.863 -0.239,-1.664 -0.626,-2.373 l 9.208,-7.162 c 0.432,0.274 0.91,0.476 1.418,0.607 z m -0.911,9.311 c 0.657,0.318 1.384,0.51 2.161,0.51 0.777,0 1.504,-0.193 2.161,-0.51 l 1.989,3.647 -4.15,3.114 -4.15,-3.114 z m 2.161,-6.99 c 1.379,0 2.5,1.121 2.5,2.5 0,1.38 -1.121,2.5 -2.5,2.5 -1.379,0 -2.5,-1.12 -2.5,-2.5 0,-1.379 1.121,-2.5 2.5,-2.5 z m 10.786,17.58 -3.405,-6.241 6.181,-4.635 c 0.346,0.223 0.727,0.39 1.125,0.522 l -2.895,10.62 c -0.321,-0.124 -0.659,-0.211 -1.006,-0.266 z m -8.119,-24.615 9.209,7.162 c -0.388,0.709 -0.626,1.51 -0.626,2.373 0,0.855 0.235,1.648 0.615,2.352 l -5.693,4.27 -2.063,-3.783 c 0.559,-0.808 0.891,-1.784 0.891,-2.839 0,-2.323 -1.599,-4.263 -3.75,-4.821 v -4.107 c 0.508,-0.131 0.985,-0.334 1.417,-0.607 z m -7.667,-4.215 c 0,0.864 0.239,1.665 0.626,2.374 l -9.209,7.162 c -0.774,-0.491 -1.685,-0.786 -2.667,-0.786 -2.757,0 -5,2.244 -5,5 0,2.421 1.73,4.444 4.019,4.901 l 3.288,12.06 c -0.654,0.846 -1.057,1.891 -1.057,3.039 0,2.758 2.243,5 5,5 2.757,0 5,-2.243 5,-5 0,-0.58 -0.119,-1.13 -0.301,-1.649 l 5.301,-3.976 5.301,3.976 c -0.182,0.519 -0.301,1.069 -0.301,1.649 0,2.758 2.243,5 5,5 2.757,0 5,-2.243 5,-5 0,-1.148 -0.404,-2.193 -1.058,-3.039 l 3.289,-12.06 c 2.289,-0.458 4.019,-2.48 4.019,-4.901 0,-2.756 -2.243,-5 -5,-5 -0.983,0 -1.894,0.295 -2.668,0.786 l -9.208,-7.162 c 0.388,-0.709 0.626,-1.51 0.626,-2.374 0,-2.756 -2.243,-5 -5,-5 -2.757,0 -5,2.244 -5,5 z"/></g></svg>