<svg xmlns="http://www.w3.org/2000/svg" viewBox="0 0 100 100"><defs/><defs><linearGradient id="a" x1="0" x2="1" y1="1" y2="0"><stop offset="0%" stop-color="#4D27A8"/><stop offset="100%" stop-color="#A166FF"/></linearGradient></defs><g><path fill="url(#a)" fill-rule="evenodd" d="m 0,0 h 100 v 100 h -100 z"/><path fill="#fff" fill-rule="evenodd" d="m 37.5,66.25 c -8.96,0 -16.25,-7.29 -16.25,-16.25 0,-8.96 7.29,-16.25 16.25,-16.25 8.96,0 16.25,7.29 16.25,16.25 0,8.96 -7.29,16.25 -16.25,16.25 m 37.5,7.5 c 0,2.757 -2.243,5 -5,5 -2.757,0 -5,-2.243 -5,-5 0,-2.757 2.243,-5 5,-5 2.757,0 5,2.243 5,5 m -5,-52.5 c 2.757,0 5,2.243 5,5 0,2.757 -2.243,5 -5,5 -2.757,0 -5,-2.243 -5,-5 0,-2.757 2.243,-5 5,-5 m 3.75,23.75 c 2.757,0 5,2.243 5,5 0,2.757 -2.243,5 -5,5 -2.757,0 -5,-2.243 -5,-5 0,-2.757 2.243,-5 5,-5 m -17.564,6.25 h 10.177 c 0.597,3.541 3.679,6.25 7.387,6.25 4.136,0 7.5,-3.364 7.5,-7.5 0,-4.136 -3.364,-7.5 -7.5,-7.5 -3.709,0 -6.79,2.709 -7.387,6.25 h -10.177 c -0.158,-2.376 -0.756,-4.629 -1.721,-6.683 l 11.093,-9.788 c 1.245,0.92 2.779,1.471 4.442,1.471 4.136,0 7.5,-3.364 7.5,-7.5 0,-4.136 -3.364,-7.5 -7.5,-7.5 -4.136,0 -7.5,3.364 -7.5,7.5 0,1.57 0.486,3.026 1.314,4.232 l -10.588,9.342 c -3.346,-5.151 -9.137,-8.574 -15.726,-8.574 -10.339,0 -18.75,8.411 -18.75,18.75 0,10.339 8.411,18.75 18.75,18.75 6.589,0 12.38,-3.422 15.726,-8.574 l 10.588,9.341 c -0.828,1.206 -1.314,2.662 -1.314,4.233 0,4.136 3.364,7.5 7.5,7.5 4.136,0 7.5,-3.364 7.5,-7.5 0,-4.136 -3.364,-7.5 -7.5,-7.5 -1.664,0 -3.197,0.551 -4.442,1.471 l -11.093,-9.789 c 0.965,-2.054 1.564,-4.306 1.721,-6.682"/></g></svg>