<svg xmlns="http://www.w3.org/2000/svg" viewBox="0 0 100 100"><defs/><defs><linearGradient id="a" x1="0" x2="1" y1="1" y2="0"><stop offset="0%" stop-color="#C8511B"/><stop offset="100%" stop-color="#F90"/></linearGradient></defs><g><path fill="url(#a)" fill-rule="evenodd" d="m 0,0 h 100 v 100 h -100 z"/><path fill="#fff" fill-rule="evenodd" d="m 66.256,36.668 c 0,-0.458 0,-0.928 -0.024,-1.217 -0.291,-0.022 -0.763,-0.022 -1.223,-0.022 h -17.459 c -0.46,0 -0.933,0 -1.224,0.022 -0.024,0.289 -0.024,0.758 -0.023,1.217 v 38.4 c 0,0.458 0,0.928 0.023,1.216 0.291,0.022 0.763,0.022 1.224,0.022 h 4.988 7.482 4.989 c 0.46,0 0.933,0 1.223,-0.022 0.024,-0.289 0.024,-0.758 0.024,-1.216 z m -4.988,43.355 h 2.494 v -1.239 h -2.494 z m -12.471,0 h 2.494 v -1.239 h -2.494 z m 19.953,-43.355 v 38.4 c 0,2.686 -0.422,3.483 -2.494,3.664 v 2.529 c 0,0.684 -0.557,1.239 -1.247,1.239 h -4.989 c -0.69,0 -1.247,-0.555 -1.247,-1.239 v -2.477 h -4.988 v 2.477 c 0,0.684 -0.557,1.239 -1.247,1.239 h -4.988 c -0.69,0 -1.247,-0.555 -1.247,-1.239 v -2.529 c -2.073,-0.181 -2.494,-0.979 -2.494,-3.664 v -38.4 c 0,-3.16 0.559,-3.716 3.741,-3.716 h 17.459 c 3.183,0 3.741,0.556 3.741,3.716 z m -6.235,16.103 c 0,0.683 -0.559,1.239 -1.247,1.239 -0.688,0 -1.247,-0.556 -1.248,-1.239 0,-0.683 0.559,-1.239 1.248,-1.239 0.688,0 1.247,0.556 1.247,1.239 z m 0,-4.955 c 0,0.683 -0.559,1.239 -1.247,1.239 -0.688,0 -1.247,-0.556 -1.248,-1.239 0,-0.683 0.559,-1.239 1.248,-1.238 0.688,0 1.247,0.556 1.247,1.238 z m 0,-4.955 c 0,0.683 -0.559,1.239 -1.247,1.239 -0.688,0 -1.247,-0.556 -1.248,-1.239 0,-0.683 0.559,-1.239 1.248,-1.238 0.688,0 1.247,0.556 1.247,1.238 z m -12.471,1.239 h 8.729 v -2.477 h -8.729 z m 0,9.91 h 8.729 v -2.478 h -8.729 z m 0,-4.955 h 8.729 v -2.477 h -8.729 z m -11.133,-3.716 h 3.589 v 2.477 h -3.706 c -0.075,0 -0.151,-0.006 -0.224,-0.021 -5.15,-0.939 -6.976,-5.008 -7.224,-7.028 -0.725,-6.005 2.783,-8.821 5.436,-9.751 -0.061,-2.868 1.111,-6.037 3.137,-8.347 1.568,-1.787 4.38,-3.918 8.867,-3.919 6.844,0 9.813,4.342 10.99,6.997 1.857,-1.172 3.875,-0.695 3.983,-0.667 3.858,0.74 4.942,4.654 4.966,6.618 l -2.494,0.03 c -10e-4,-0.144 -0.108,-3.673 -3.012,-4.23 -0.238,-0.054 -1.902,-0.378 -2.939,1.181 -0.279,0.421 -0.781,0.629 -1.283,0.533 -0.498,-0.099 -0.884,-0.486 -0.981,-0.98 -0.057,-0.282 -1.508,-7.005 -9.23,-7.005 -3.549,0 -5.759,1.669 -6.987,3.07 -2.086,2.378 -2.74,5.469 -2.46,7.476 0.092,0.66 -0.358,1.275 -1.018,1.389 -0.532,0.099 -5.24,1.162 -4.498,7.309 0.021,0.155 0.591,3.989 5.088,4.868 z"/></g></svg>