<svg xmlns="http://www.w3.org/2000/svg" viewBox="0 0 100 100"><defs/><defs><linearGradient id="a" x1="0" x2="1" y1="1" y2="0"><stop offset="0%" stop-color="#4D27A8"/><stop offset="100%" stop-color="#A166FF"/></linearGradient></defs><g><path fill="url(#a)" fill-rule="evenodd" d="m 0,0 h 100 v 100 h -100 z"/><path fill="#fff" fill-rule="evenodd" d="m 47.869,34.033 c 5.615,0 8.691,1.258 9.252,1.889 -0.561,0.631 -3.636,1.889 -9.252,1.889 -5.615,0 -8.691,-1.258 -9.252,-1.889 0.561,-0.631 3.636,-1.889 9.252,-1.889 z m -0.639,10.07 c -0.206,-0.106 -0.351,-0.316 -0.351,-0.565 0,-0.35 0.283,-0.636 0.629,-0.636 0.101,0 0.192,0.029 0.278,0.073 z m 7.229,10.386 c -0.093,0.076 -0.306,0.222 -0.745,0.398 -0.391,0.156 -0.854,0.297 -1.379,0.42 -1.395,0.327 -3.109,0.508 -4.828,0.508 -3.761,0 -6.381,-0.812 -6.946,-1.316 l -1.666,-15.561 c 2.555,1.045 6.318,1.392 8.974,1.392 2.612,0 6.293,-0.336 8.846,-1.341 l -0.996,6.843 c -1.877,-0.708 -4.22,-1.735 -6.44,-2.816 -0.226,-0.783 -0.929,-1.36 -1.771,-1.36 -1.022,0 -1.854,0.845 -1.854,1.882 0,1.039 0.831,1.883 1.854,1.882 0.242,0 0.473,-0.05 0.683,-0.136 3.102,1.531 5.413,2.514 7.153,3.12 z m -18.369,-18.431 2.008,18.754 c 0.141,3.481 9.026,3.521 9.409,3.521 1.902,0 3.815,-0.204 5.387,-0.571 0.644,-0.151 1.227,-0.33 1.732,-0.533 1.466,-0.589 2.236,-1.393 2.289,-2.387 l 0.836,-5.747 c 0.569,0.117 1.035,0.169 1.406,0.169 1.167,0 1.475,-0.479 1.687,-0.809 0.223,-0.348 0.288,-0.774 0.184,-1.204 -0.238,-0.987 -1.631,-2.287 -2.563,-3.059 l 1.177,-8.086 -0.011,-0.001 c 0.005,-0.062 0.025,-0.12 0.024,-0.183 0,-3.48 -7.409,-4.408 -11.786,-4.407 -4.377,0 -11.786,0.928 -11.787,4.407 0,0.047 0.016,0.088 0.019,0.135 z m 11.204,-10.983 c 10.814,0 19.611,8.93 19.612,19.906 0,10.976 -8.798,19.906 -19.612,19.906 -10.815,0 -19.613,-8.93 -19.612,-19.906 0,-10.976 8.798,-19.906 19.612,-19.906 z m -31.063,27.219 v 2.518 h 11.167 v -0.148 c 3.569,7.523 11.135,12.742 19.896,12.741 12.181,0 22.093,-10.059 22.093,-22.424 0,-12.365 -9.912,-22.425 -22.093,-22.425 -9.478,0 -17.556,6.1 -20.687,14.626 h -10.376 v 2.518 h 9.614 c -0.387,1.621 -0.614,3.302 -0.632,5.038 h -11.463 v 2.518 h 11.564 c 0.175,1.749 0.568,3.429 1.117,5.038 z m 67.619,30.25 c -1.501,1.526 -4.104,1.535 -5.604,0.014 l -13.33,-13.532 c 2.145,-1.623 4.06,-3.539 5.701,-5.681 l 13.248,13.512 c 0.746,0.758 1.156,1.768 1.154,2.842 -0.001,1.077 -0.416,2.085 -1.169,2.845 z m 1.772,-7.465 -13.545,-13.816 c 3.002,-4.692 4.754,-10.281 4.754,-16.282 0,-16.532 -13.251,-29.981 -29.537,-29.981 -11.703,0 -22.316,7.025 -27.039,17.896 l 2.27,1.015 c 4.326,-9.957 14.048,-16.393 24.769,-16.392 14.919,0 27.056,12.319 27.056,27.462 0,15.142 -12.136,27.462 -27.056,27.462 -9.966,0 -19.098,-5.537 -23.833,-14.451 l -2.184,1.196 c 5.167,9.73 15.138,15.773 26.017,15.773 5.695,0 11.016,-1.648 15.531,-4.494 l 13.668,13.873 c 1.213,1.232 2.828,1.91 4.542,1.91 1.725,0 3.349,-0.684 4.567,-1.922 1.221,-1.232 1.896,-2.874 1.898,-4.625 0.004,-1.749 -0.665,-3.391 -1.878,-4.624 z"/></g></svg>