<svg xmlns="http://www.w3.org/2000/svg" viewBox="0 0 100 100"><defs/><defs><linearGradient id="a" x1="0" x2="1" y1="1" y2="0"><stop offset="0%" stop-color="#1B660F"/><stop offset="100%" stop-color="#6CAE3E"/></linearGradient></defs><g><path fill="url(#a)" fill-rule="evenodd" d="m 0,0 h 100 v 100 h -100 z"/><path fill="#fff" fill-rule="evenodd" d="m 50,37.515 c 2.757,0 5,-2.242 5,-4.998 0,-2.757 -2.243,-4.998 -5,-4.998 -2.757,0 -5,2.242 -5,4.998 0,2.757 2.243,4.998 5,4.998 z m -16.25,13.746 c 0,-2.757 -2.243,-4.998 -5,-4.999 -2.757,0 -5,2.242 -5,4.999 0,2.757 2.243,4.998 5,4.998 2.757,0 5,-2.242 5,-4.998 z m 32.5,0 c 0,2.757 2.243,4.998 5,4.998 2.757,0 5,-2.242 5,-4.998 0,-2.757 -2.243,-4.998 -5,-4.999 -2.757,0 -5,2.242 -5,4.999 z m -8.75,1.249 v 24.906 l 14.839,-7.305 c 2.41,-1.205 3.911,-3.628 3.911,-6.322 v -2.532 h 2.5 v 2.532 c 0,3.646 -2.031,6.926 -5.3,8.56 l -22.899,11.272 c -0.173,0.086 -0.362,0.129 -0.551,0.129 -0.199,0 -0.396,-0.047 -0.577,-0.141 l -21.64,-11.269 c -3.251,-1.624 -5.282,-4.905 -5.283,-8.551 v -2.532 h 2.5 v 2.532 c 0,2.694 1.501,5.117 3.919,6.324 l 13.581,7.073 v -24.676 h -6.362 c -0.597,3.54 -3.679,6.248 -7.388,6.248 -4.136,0 -7.5,-3.363 -7.5,-7.497 0,-4.135 3.364,-7.498 7.5,-7.498 3.709,0 6.79,2.708 7.388,6.248 h 7.612 c 0.691,0 1.25,0.56 1.25,1.25 v 27.227 l 3.746,1.951 0.004,-40.537 c -3.541,-0.597 -6.25,-3.678 -6.25,-7.385 0,-4.135 3.364,-7.498 7.5,-7.497 4.136,0 7.5,3.363 7.5,7.497 0,3.708 -2.709,6.788 -6.25,7.385 l -0.004,40.592 3.754,-1.847 v -27.386 c 0,-0.69 0.559,-1.25 1.25,-1.25 h 7.613 c 0.597,-3.54 3.679,-6.248 7.387,-6.248 4.136,0 7.5,3.363 7.5,7.498 0,4.135 -3.364,7.498 -7.5,7.497 -3.709,0 -6.79,-2.708 -7.387,-6.248 z m 21.25,-28.126 v 18.13 h -2.5 v -16.897 c -11.146,-0.227 -22.691,-2.384 -26.33,-5.807 -3.754,3.181 -14.81,5.539 -24.92,5.802 v 16.902 h -2.5 v -18.13 c 0,-0.686 0.552,-1.243 1.239,-1.25 14.27,-0.125 24.474,-4.016 25.011,-5.642 10e-4,-0.044 0.005,-0.085 0.01,-0.126 0.056,-0.636 0.589,-1.116 1.242,-1.116 0.69,0 1.248,0.582 1.248,1.272 0.31,1.563 9.899,5.491 26.26,5.612 0.686,0.005 1.24,0.564 1.24,1.25 z"/></g></svg>