<svg xmlns="http://www.w3.org/2000/svg" viewBox="0 0 100 100"><defs/><defs><linearGradient id="a" x1="0" x2="1" y1="1" y2="0"><stop offset="0%" stop-color="#1B660F"/><stop offset="100%" stop-color="#6CAE3E"/></linearGradient></defs><g><path fill="url(#a)" fill-rule="evenodd" d="m 0,0 h 100 v 100 h -100 z"/><path fill="#fff" fill-rule="evenodd" d="m 45,30 h 10 v -2.5 h -10 z m -12.5,28.75 h 36.25 v -15 h -36.25 z m 37.5,-17.5 h -38.75 c -0.691,0 -1.25,0.56 -1.25,1.25 v 17.5 c 0,0.69 0.559,1.25 1.25,1.25 h 38.75 c 0.691,0 1.25,-0.56 1.25,-1.25 v -17.5 c 0,-0.69 -0.559,-1.25 -1.25,-1.25 z m 12.5,28.559 c 0,2.862 -2.203,5.191 -4.91,5.191 h -55.18 c -2.708,0 -4.91,-2.329 -4.91,-5.191 v -39.618 c 0,-2.862 2.203,-5.191 4.91,-5.191 h 55.18 c 2.708,0 4.91,2.329 4.91,5.191 z m -4.91,-47.309 h -55.18 c -4.086,0 -7.41,3.45 -7.41,7.691 v 39.618 c 0,4.241 3.324,7.691 7.41,7.691 h 55.18 c 4.086,0 7.41,-3.45 7.41,-7.691 v -39.618 c 0,-4.241 -3.324,-7.691 -7.41,-7.691 z m -0.09,44.4 c 0,1.02 -0.839,1.85 -1.869,1.85 h -51.262 c -1.03,0 -1.869,-0.83 -1.869,-1.85 v -35.05 c 0,-1.02 0.839,-1.85 1.869,-1.85 h 13.405 l 1.014,4.054 c 0.14,0.555 0.639,0.946 1.212,0.946 h 20 c 0.574,0 1.073,-0.391 1.213,-0.946 l 1.013,-4.054 h 13.405 c 1.03,0 1.869,0.83 1.869,1.85 z m -1.869,-39.4 h -14.381 c -0.574,0 -1.073,0.39 -1.213,0.946 l -1.013,4.054 h -18.048 l -1.014,-4.054 c -0.14,-0.556 -0.639,-0.946 -1.212,-0.946 h -14.381 c -2.409,0 -4.369,1.953 -4.369,4.35 v 35.05 c 0,2.397 1.96,4.35 4.369,4.35 h 51.262 c 2.409,0 4.369,-1.953 4.369,-4.35 v -35.05 c 0,-2.397 -1.96,-4.35 -4.369,-4.35 z"/></g></svg>