<svg xmlns="http://www.w3.org/2000/svg" viewBox="0 0 100 100"><defs/><defs><linearGradient id="a" x1="0" x2="1" y1="1" y2="0"><stop offset="0%" stop-color="#1B660F"/><stop offset="100%" stop-color="#6CAE3E"/></linearGradient></defs><g><path fill="url(#a)" fill-rule="evenodd" d="m 0,0 h 100 v 100 h -100 z"/><path fill="#fff" fill-rule="evenodd" d="m 34.929,46.872 c 1.725,0 3.127,1.404 3.127,3.128 0,1.725 -1.403,3.129 -3.127,3.129 -1.725,0 -3.129,-1.404 -3.129,-3.129 0,-1.724 1.404,-3.127 3.129,-3.128 z m 9.88,-9.925 c 0.694,1.654 2.159,2.9 3.941,3.309 v 23.329 c -0.848,-0.076 -1.686,-0.235 -2.5,-0.466 v -13.119 c 0,-0.69 -0.56,-1.25 -1.25,-1.25 h -4.595 c -0.408,-1.786 -1.66,-3.254 -3.321,-3.945 1.383,-3.586 4.166,-6.419 7.725,-7.858 z m 5.191,-5.297 c 1.725,0 3.127,1.404 3.127,3.129 0,1.725 -1.403,3.127 -3.127,3.127 -1.725,0 -3.127,-1.403 -3.128,-3.127 0,-1.725 1.403,-3.129 3.128,-3.129 z m 12.917,13.155 c -1.661,0.691 -2.915,2.159 -3.323,3.945 h -4.594 c -0.691,0 -1.25,0.56 -1.25,1.25 v 13.12 c -0.813,0.231 -1.651,0.389 -2.5,0.465 v -23.329 c 1.781,-0.409 3.247,-1.656 3.941,-3.311 3.56,1.438 6.341,4.269 7.726,7.86 z m 5.282,5.195 c 0,1.725 -1.404,3.129 -3.129,3.129 -1.725,0 -3.127,-1.404 -3.128,-3.129 0,-1.724 1.403,-3.127 3.128,-3.128 1.725,0 3.129,1.404 3.129,3.128 z m -11.949,12.125 v -10.875 h 3.344 c 0.398,1.737 1.595,3.166 3.186,3.88 -1.264,3.004 -3.601,5.507 -6.53,6.995 z m -16.88,-3.46 c -0.06,-0.071 -0.121,-0.14 -0.213,-0.264 -0.806,-1.004 -1.459,-2.098 -1.951,-3.265 1.6,-0.711 2.8,-2.145 3.199,-3.886 h 3.345 v 10.871 c -1.673,-0.843 -3.174,-2.006 -4.38,-3.456 z m -4.651,-3.058 c 0.599,1.565 1.419,3.026 2.45,4.308 0.09,0.126 0.195,0.251 0.29,0.362 1.684,2.025 3.865,3.61 6.291,4.602 v 6.371 h 2.5 v -5.556 c 0.815,0.195 1.647,0.33 2.5,0.393 v 5.163 h 2.5 v -5.163 c 0.853,-0.064 1.685,-0.199 2.5,-0.392 v 5.555 h 2.5 v -6.371 c 4.134,-1.708 7.429,-5.121 9.019,-9.27 3.011,-0.107 5.43,-2.572 5.43,-5.609 0,-2.979 -2.334,-5.4 -5.268,-5.591 -1.623,-4.656 -5.216,-8.293 -9.84,-9.977 -0.181,-2.939 -2.607,-5.282 -5.591,-5.282 -2.985,0 -5.41,2.344 -5.594,5.284 -4.62,1.685 -8.215,5.325 -9.836,9.975 -2.935,0.189 -5.27,2.611 -5.27,5.591 0,3.031 2.414,5.494 5.419,5.607 z m -12.219,20.643 h 55 v -51.25 h -55 z m 62.5,-47.5 v -2.5 h -5 v -2.5 c 0,-0.69 -0.56,-1.25 -1.25,-1.25 h -57.5 c -0.691,0 -1.25,0.56 -1.25,1.25 v 2.5 h -5 v 2.5 h 5 v 5 h -5 v 2.5 h 5 v 5 h -5 v 2.5 h 5 v 5 h -5 v 2.5 h 5 v 5 h -5 v 2.5 h 5 v 5 h -5 v 2.5 h 5 v 5 h -5 v 2.5 h 5 v 3.75 c 0,0.691 0.559,1.25 1.25,1.25 h 57.5 c 0.69,0 1.25,-0.559 1.25,-1.25 v -3.75 h 5 v -2.5 h -5 v -5 h 5 v -2.5 h -5 v -5 h 5 v -2.5 h -5 v -5 h 5 v -2.5 h -5 v -5 h 5 v -2.5 h -5 v -5 h 5 v -2.5 h -5 v -5 z"/></g></svg>