<svg xmlns="http://www.w3.org/2000/svg" viewBox="0 0 100 100"><defs/><defs><linearGradient id="a" x1="0" x2="1" y1="1" y2="0"><stop offset="0%" stop-color="#055F4E"/><stop offset="100%" stop-color="#56C0A7"/></linearGradient></defs><g><path fill="url(#a)" fill-rule="evenodd" d="m 0,0 h 100 v 100 h -100 z"/><path fill="#fff" fill-rule="evenodd" d="m 67.543,32.542 c 0,0.7 -0.57,1.27 -1.272,1.27 -0.699,0 -1.269,-0.57 -1.269,-1.27 0,-0.7 0.57,-1.27 1.269,-1.27 0.701,0 1.271,0.57 1.271,1.27 z m -7.541,12.459 c 0,-0.689 0.56,-1.25 1.25,-1.25 0.69,0 1.25,0.561 1.25,1.25 0,0.689 -0.56,1.25 -1.25,1.25 -0.69,0 -1.25,-0.561 -1.25,-1.25 z m 0,23.749 c 0,-0.689 0.56,-1.25 1.25,-1.25 0.69,0 1.25,0.561 1.25,1.25 0,0.689 -0.56,1.25 -1.25,1.25 -0.69,0 -1.25,-0.561 -1.25,-1.25 z m 12.5,-16.25 c 0,0.689 -0.56,1.25 -1.25,1.25 -0.69,0 -1.25,-0.561 -1.25,-1.25 0,-0.689 0.56,-1.25 1.25,-1.25 0.69,0 1.25,0.561 1.25,1.25 z m 8.748,4.09 -6.296,-3.612 c 0.02,-0.157 0.049,-0.314 0.049,-0.478 0,-2.067 -1.683,-3.75 -3.75,-3.75 -2.069,0 -3.75,1.682 -3.75,3.75 0,2.067 1.681,3.75 3.75,3.75 0.999,0 1.901,-0.399 2.573,-1.036 l 6.032,3.46 -5.414,2.708 c -0.424,0.212 -0.691,0.645 -0.691,1.118 v 10.551 l -15.024,9.245 -7.475,-4.271 v -8.025 h 6.478 c 0.517,1.451 1.893,2.5 3.52,2.5 2.067,0 3.75,-1.682 3.75,-3.75 0,-2.069 -1.683,-3.75 -3.75,-3.75 -1.627,0 -3.003,1.047 -3.52,2.5 h -6.478 v -17.5 c 0,-0.439 -0.231,-0.846 -0.608,-1.072 l -6.251,-3.75 -1.286,2.144 5.645,3.386 v 3.676 l -7.502,5.77 v -5.154 c 0,-0.38 -0.173,-0.74 -0.468,-0.976 l -5.782,-4.625 v -6.23 l 6.943,-4.628 c 0.349,-0.232 0.557,-0.622 0.557,-1.04 v -7.5 h -2.5 v 6.831 l -6.236,4.156 -6.264,-4.159 v -9.861 l 6.25,-3.645 v 10.428 h 2.5 v -11.886 l 5.004,-2.919 7.495,4.324 0.002,15.481 c 0,0.449 0.24,0.862 0.63,1.085 l 8.169,4.668 c -0.022,0.164 -0.05,0.326 -0.05,0.497 0,2.067 1.681,3.75 3.75,3.749 2.067,0 3.75,-1.682 3.75,-3.749 0,-2.067 -1.683,-3.75 -3.75,-3.75 -0.993,0 -1.89,0.394 -2.561,1.025 l -7.439,-4.252 -0.001,-14.752 7.454,-4.301 13.797,9.199 v 3.081 h -2.688 c -0.527,-1.445 -1.916,-2.479 -3.543,-2.479 -2.079,0 -3.769,1.691 -3.769,3.77 0,2.079 1.69,3.77 3.769,3.77 1.658,0 3.068,-1.074 3.573,-2.561 h 2.658 v 3.75 c 0,0.449 0.24,0.862 0.63,1.085 l 8.118,4.64 z m -39.975,25.706 -3.941,-2.425 7.145,-5.103 -1.453,-2.035 -8.003,5.716 -8.77,-5.398 v -9.843 l 5.642,-3.386 -1.286,-2.144 -5.661,3.397 -6.195,-3.097 -0.002,-7.206 6.81,-3.404 -1.117,-2.236 -5.693,2.845 0.002,-4.751 7.451,-4.258 6.299,4.181 v 6.201 l -6.942,4.609 1.383,2.083 6.754,-4.485 5.055,4.043 v 6.478 l -5.763,4.431 1.524,1.981 14.24,-10.952 v 20.486 z m 41.845,-40.88 -8.117,-4.64 v -9.275 c 0,-0.419 -0.209,-0.809 -0.558,-1.04 l -15,-10 c -0.395,-0.262 -0.905,-0.28 -1.317,-0.043 l -8.123,4.688 -8.127,-4.688 c -0.39,-0.225 -0.869,-0.225 -1.255,0.003 l -15,8.75 c -0.385,0.224 -0.62,0.635 -0.62,1.08 v 10.525 l -8.12,4.64 c -0.39,0.221 -0.63,0.636 -0.631,1.085 v 0.521 c -10e-4,0.026 -0.003,0.051 -0.002,0.077 v 13.605 c 0,0.025 0.001,0.05 0.002,0.074 v 1.972 c 0,0.474 0.268,0.906 0.692,1.118 l 6.808,3.405 v 10.477 c 0,0.434 0.224,0.836 0.594,1.064 l 16.25,10 c 0.201,0.124 0.429,0.186 0.657,0.186 0.214,0 0.428,-0.055 0.62,-0.165 l 8.131,-4.645 8.129,4.645 c 0.394,0.226 0.884,0.217 1.275,-0.021 l 16.25,-10 c 0.37,-0.227 0.595,-0.63 0.595,-1.064 v -10.477 l 6.806,-3.405 c 0.424,-0.211 0.691,-0.644 0.691,-1.118 v -16.249 c 0,-0.449 -0.241,-0.862 -0.63,-1.085 z"/></g></svg>