<svg xmlns="http://www.w3.org/2000/svg" viewBox="0 0 100 100"><defs/><defs><linearGradient id="a" x1="0" x2="1" y1="1" y2="0"><stop offset="0%" stop-color="#2E27AD"/><stop offset="100%" stop-color="#527FFF"/></linearGradient></defs><g><path fill="url(#a)" fill-rule="evenodd" d="m 0,0 h 100 v 100 h -100 z"/><path fill="#fff" fill-rule="evenodd" d="m 56.364,22.556 h -3.76 v -2.522 h 3.76 v -3.784 h 2.507 v 3.784 h 3.76 v 2.522 h -3.76 v 3.784 h -2.507 z m 15.04,13.875 h -3.76 v -2.523 h 3.76 v -3.784 h 2.507 v 3.784 h 3.76 v 2.523 h -3.76 v 3.783 h -2.507 z m -6.527,39.861 c -2.394,-6.082 -7.919,-11.642 -13.965,-14.052 6.046,-2.409 11.571,-7.969 13.965,-14.052 2.394,6.083 7.919,11.643 13.963,14.052 -6.045,2.41 -11.57,7.97 -13.963,14.052 z m 20.12,-15.313 c -8.816,0 -18.867,-10.114 -18.867,-18.986 0,-0.696 -0.56,-1.261 -1.253,-1.262 -0.693,0 -1.253,0.565 -1.254,1.262 0,8.872 -10.052,18.986 -18.868,18.986 -0.692,0 -1.253,0.565 -1.253,1.261 0,0.697 0.561,1.261 1.253,1.261 8.816,0 18.868,10.114 18.868,18.988 0,0.696 0.56,1.261 1.254,1.261 0.693,0 1.253,-0.565 1.253,-1.261 0,-8.873 10.051,-18.987 18.867,-18.988 0.692,0 1.253,-0.564 1.253,-1.261 0,-0.696 -0.561,-1.261 -1.253,-1.261 z m -68.74,-24.85 c 3.65,2.671 10.741,4.085 17.547,4.085 6.806,0 13.897,-1.414 17.546,-4.085 v 12.081 c -1.806,2.417 -8.448,4.798 -17.296,4.798 -10.186,0 -17.798,-3.204 -17.797,-6.068 z m 17.547,-9.789 c 10.872,0 17.547,3.306 17.546,5.676 0,2.37 -6.675,5.676 -17.546,5.676 -10.872,0 -17.547,-3.306 -17.547,-5.676 0,-2.37 6.675,-5.676 17.547,-5.676 z m 17.546,47.337 c 0,2.907 -7.506,6.16 -17.553,6.161 -10.039,0 -17.541,-3.253 -17.54,-6.161 v -8.059 c 3.695,2.82 10.928,4.314 17.869,4.313 4.827,0 9.494,-0.686 13.137,-1.932 l -0.804,-2.389 c -3.392,1.159 -7.772,1.799 -12.333,1.799 -10.227,0 -17.869,-3.204 -17.869,-6.068 v -10.117 c 3.685,2.815 10.887,4.306 17.797,4.306 7.405,0 13.756,-1.535 17.296,-3.965 v 3.785 h 2.507 v -23.334 c 0,-5.325 -10.331,-8.198 -20.053,-8.198 -9.326,0 -19.189,2.651 -19.976,7.567 h -0.078 v 42.292 c 0,5.639 10.329,8.683 20.047,8.683 9.725,0 20.06,-3.043 20.06,-8.683 v -4.453 h -2.507 z"/></g></svg>