<svg xmlns="http://www.w3.org/2000/svg" viewBox="0 0 100 100"><defs/><defs><linearGradient id="a" x1="0" x2="1" y1="1" y2="0"><stop offset="0%" stop-color="#1B660F"/><stop offset="100%" stop-color="#6CAE3E"/></linearGradient></defs><g><path fill="url(#a)" fill-rule="evenodd" d="m 0,0 h 100 v 100 h -100 z"/><path fill="#fff" fill-rule="evenodd" d="m 68.17,55.667 -8.554,12.289 h 3.858 l 6.433,-9.745 z m 11.514,12.289 h 4.066 l -10.111,-14.916 9.207,-13.311 h -3.803 l -7.278,10.773 -1.947,2.797 z m -9.534,-19.844 -5.662,-8.383 h -4.015 l 7.651,11.182 z m -26.069,2.272 c -2.458,-0.993 -4.263,-2.176 -5.412,-3.552 -1.15,-1.374 -1.724,-3.071 -1.724,-5.092 0,-2.748 0.95,-4.975 2.85,-6.681 1.899,-1.705 4.399,-2.559 7.497,-2.559 1.405,0 2.881,0.174 4.432,0.522 1.547,0.348 3.009,0.836 4.382,1.465 v 2.534 c -3.257,-1.192 -6.147,-1.789 -8.671,-1.789 -2.459,0 -4.343,0.555 -5.651,1.664 -1.31,1.111 -1.965,2.691 -1.965,4.745 0,1.16 0.2,2.095 0.6,2.806 0.398,0.712 1.054,1.359 1.962,1.938 0.911,0.58 2.212,1.201 3.905,1.862 l 5.126,2.038 c 2.299,0.927 3.975,2.061 5.029,3.404 1.054,1.34 1.581,3.021 1.581,5.041 0,2.949 -1.046,5.332 -3.137,7.154 -2.092,1.821 -4.848,2.732 -8.264,2.732 -3.545,0 -6.706,-0.696 -9.485,-2.087 v -2.533 c 3.353,1.259 6.435,1.887 9.245,1.888 2.65,0 4.768,-0.646 6.348,-1.938 1.581,-1.291 2.371,-3.046 2.371,-5.265 0,-1.359 -0.431,-2.517 -1.293,-3.479 -0.864,-0.96 -2.252,-1.82 -4.167,-2.582 z m -27.831,17.387 v -34.426 h 18.634 v 2.634 h -15.808 v 13.163 h 13.365 v 2.633 h -13.365 v 15.996 z"/></g></svg>