<svg xmlns="http://www.w3.org/2000/svg" viewBox="0 0 100 100"><defs/><defs><linearGradient id="a" x1="0" x2="1" y1="1" y2="0"><stop offset="0%" stop-color="#055F4E"/><stop offset="100%" stop-color="#56C0A7"/></linearGradient></defs><g><path fill="url(#a)" fill-rule="evenodd" d="m 0,0 h 100 v 100 h -100 z"/><path fill="#fff" fill-rule="evenodd" d="m 50.458,58.067 0.275,-2.51 c -2.266,-0.244 -4.604,2.092 -5.622,5.565 -0.84,2.867 -0.51,5.643 0.838,7.069 l 1.824,-1.738 c -0.592,-0.627 -0.882,-2.459 -0.251,-4.619 0.72,-2.457 2.195,-3.857 2.936,-3.767 z m -24.6,0.274 0.258,-2.511 c -2.359,-0.246 -4.812,2.089 -5.892,5.543 -0.903,2.891 -0.551,5.686 0.895,7.121 l 1.767,-1.796 c -0.626,-0.621 -0.93,-2.433 -0.264,-4.569 0.804,-2.57 2.396,-3.885 3.236,-3.788 z m 28.872,-12.22 1.018,-2.31 c -0.121,-0.052 -12.048,-5.189 -19.365,7.775 l 2.187,1.246 c 6.169,-10.934 15.754,-6.888 16.16,-6.711 z m 26.14,13.31 -0.785,2.183 -1.32,3.228 c -0.104,0.249 -0.282,0.449 -0.5,0.586 l 0.03,0.622 c 0.026,1.491 -0.4,2.705 -1.229,3.553 -0.549,0.562 -1.26,0.925 -2.092,1.132 l -0.136,0.308 c 0.244,10e-4 0.497,0 0.756,-0.001 3.203,-0.02 5.268,-0.939 6.139,-2.731 1.276,-2.626 0.901,-5.931 -0.864,-8.88 z m 3.122,9.989 c -0.911,1.873 -3.104,4.113 -8.381,4.147 -0.206,0.001 -0.409,0.001 -0.604,0.001 -1.175,0 -2.114,-0.02 -2.114,-0.02 -0.42,-0.009 -0.808,-0.229 -1.035,-0.585 -0.225,-0.356 -0.259,-0.802 -0.089,-1.187 l 0.369,-0.84 h -15.017 c -1.555,0 -2.94,-0.578 -3.806,-1.586 -0.348,-0.408 -0.605,-0.875 -0.76,-1.383 -0.537,1.006 -1.131,1.882 -1.781,2.622 -1.075,1.225 -3.305,3.021 -5.587,3.021 -0.385,0 -0.769,-0.052 -1.15,-0.164 -3.784,-1.119 -5.145,-7.057 -3.165,-13.815 1.989,-6.786 6.491,-11.235 10.254,-10.119 0.39,0.116 0.764,0.289 1.111,0.515 l -1.362,2.121 c -0.147,-0.095 -0.3,-0.167 -0.459,-0.213 -2.021,-0.598 -5.46,2.704 -7.133,8.409 -1.652,5.641 -0.577,10.077 1.463,10.679 1.14,0.336 3.003,-0.804 4.143,-2.103 1.217,-1.386 2.224,-3.417 2.991,-6.037 0.754,-2.58 0.991,-5.171 0.663,-7.288 -0.104,-0.674 0.343,-1.309 1.011,-1.436 0.661,-0.126 1.314,0.302 1.459,0.969 0.627,2.851 0.595,6.661 -0.098,11.321 -0.077,0.508 0.026,0.928 0.305,1.253 0.381,0.444 1.091,0.709 1.901,0.709 h 16.292 c 0.859,0 1.485,-0.194 1.86,-0.578 0.351,-0.359 0.523,-0.93 0.509,-1.699 l -0.025,-0.51 -1.724,-0.002 c -0.39,0 -0.757,-0.181 -0.995,-0.489 -0.239,-0.309 -0.321,-0.712 -0.222,-1.091 l 0.215,-0.828 c 0.026,-0.101 0.065,-0.198 0.114,-0.29 l -6.096,-0.104 c -0.808,0 -1.555,0.419 -1.981,1.103 l -0.206,0.763 c -0.148,0.55 -0.646,0.932 -1.213,0.931 l -4.982,-0.001 c -0.62,0.122 -1.227,-0.246 -1.432,-0.843 -0.192,-0.557 -0.385,-1.395 -0.629,-2.457 -0.245,-1.054 -0.548,-2.367 -0.923,-3.702 l 2.418,-0.685 c 0.392,1.391 0.703,2.736 0.953,3.816 0.114,0.496 0.221,0.957 0.318,1.346 l 3.315,10e-4 c 0.026,-0.093 0.062,-0.183 0.108,-0.267 0.852,-1.56 2.483,-2.53 4.254,-2.53 h 6.035 c 0.923,0 1.755,0.477 2.225,1.274 0.279,0.473 0.397,1.006 0.354,1.53 h 1.097 l 0.981,-2.394 0.907,-2.53 c 0.711,-1.988 1.209,-4.065 1.479,-6.174 l 1.093,-9.763 c 0.322,-2.529 -0.259,-4.867 -1.636,-6.603 -1.419,-1.788 -3.477,-2.841 -5.646,-2.888 -0.079,-10e-4 -0.156,-0.01 -0.233,-0.028 l -4.282,-0.072 c -0.228,-0.015 -3.541,-0.246 -6.061,3.014 -0.334,0.432 -0.908,0.596 -1.414,0.415 -0.513,-0.183 -0.848,-0.674 -0.836,-1.22 0.024,-1.029 0.869,-2.926 2.729,-4.302 -18.071,-2.429 -25.403,3.954 -28.227,8.23 l -2.37,4.218 c -0.038,0.067 -0.082,0.13 -0.131,0.189 -1.29,1.544 -3.701,3.352 -7.794,3.24 -3.212,0.205 -5.527,1.855 -6.772,4.899 -0.299,0.829 -0.598,1.818 -0.622,2.069 -0.013,0.124 -0.043,0.263 -0.091,0.389 -0.082,0.432 -0.141,0.848 -0.184,1.239 0.344,-0.289 0.679,-0.567 1.003,-0.834 0.478,-0.394 1.17,-0.379 1.633,0.036 0.461,0.414 0.554,1.102 0.22,1.625 -0.848,1.324 -1.566,2.885 -2.076,4.511 -0.298,0.956 -0.524,1.932 -0.67,2.898 l -0.179,1.943 c -0.299,3.228 0.382,5.191 2.025,5.837 1.58,0.62 3.423,-0.499 4.521,-1.646 1.534,-1.606 2.83,-3.927 3.644,-6.534 1.164,-3.728 1.139,-7.488 -0.064,-9.58 l 2.178,-1.262 c 1.561,2.716 1.671,7.159 0.284,11.597 -0.523,1.671 -1.231,3.242 -2.066,4.637 h 9.314 v 2.524 h -11.151 c -0.109,0.122 -0.216,0.25 -0.326,0.367 -1.321,1.38 -3.287,2.604 -5.368,2.604 -0.623,0 -1.254,-0.109 -1.883,-0.356 -1.933,-0.76 -4.129,-2.838 -3.612,-8.417 0.005,-0.064 0.04,-0.437 0.191,-2.022 0.173,-1.164 0.427,-2.266 0.764,-3.346 0.055,-0.178 0.113,-0.355 0.173,-0.53 -0.124,-0.011 -0.246,-0.039 -0.364,-0.088 -0.437,-0.179 -0.738,-0.59 -0.777,-1.062 -0.007,-0.09 -0.181,-2.223 0.336,-4.794 0.013,-0.062 0.03,-0.121 0.05,-0.18 0.131,-0.769 0.558,-1.997 0.754,-2.536 1.635,-4.007 4.767,-6.242 9.074,-6.511 1.605,0.047 2.972,-0.242 4.102,-0.856 h -13.303 v -2.525 h 15.671 l 1.725,-3.062 c 0.153,-0.232 0.323,-0.472 0.5,-0.715 h -6.569 v -2.525 h 8.781 c 1.409,-1.35 3.227,-2.683 5.554,-3.802 h -19.377 v -2.525 h 27.728 v 0.044 c 4.999,-0.749 11.308,-0.626 19.267,0.988 0.582,0.119 0.996,0.626 1.008,1.21 l 3.537,0.058 c 0.085,0.001 0.168,0.011 0.251,0.029 2.857,0.112 5.546,1.504 7.397,3.834 1.805,2.276 2.574,5.286 2.167,8.479 l -1.094,9.762 c -0.177,1.389 -0.454,2.756 -0.807,4.098 3.219,4.031 4.097,9.069 2.176,13.02 z m -13.202,-17.536 c 1.368,-0.033 2.434,-0.999 2.598,-2.299 l 0.239,-1.877 c -0.763,0.991 -1.946,1.642 -3.289,1.643 -0.779,0 -1.5,-0.23 -2.124,-0.605 l -0.023,0.174 c -0.097,0.763 0.142,1.525 0.654,2.095 0.495,0.553 1.204,0.87 1.945,0.869 z m -2.105,-6.72 c 0,0.915 0.742,1.661 1.653,1.662 0.913,0 1.655,-0.746 1.656,-1.662 0,-0.917 -0.743,-1.661 -1.656,-1.661 -0.911,0 -1.653,0.745 -1.653,1.661 z m 0.543,-4.413 -0.052,0.414 c 0.372,-0.11 0.757,-0.187 1.162,-0.187 1.711,0 3.18,1.04 3.822,2.522 l 0.265,-2.084 c 0.098,-0.761 -0.142,-1.525 -0.653,-2.096 -0.499,-0.554 -1.203,-0.869 -1.942,-0.868 -0.023,0 -0.044,0 -0.065,0.001 -1.306,0.032 -2.373,0.997 -2.537,2.298 z m 1.681,13.657 c -1.573,0 -2.96,-0.621 -3.931,-1.702 -1.003,-1.116 -1.471,-2.612 -1.281,-4.105 l 1.036,-8.17 c 0.324,-2.546 2.413,-4.44 4.969,-4.501 1.488,-0.054 2.933,0.582 3.937,1.7 1.002,1.116 1.469,2.612 1.281,4.104 v 0.002 l -1.037,8.169 c -0.324,2.546 -2.413,4.44 -4.969,4.503 z"/></g></svg>