<svg xmlns="http://www.w3.org/2000/svg" viewBox="0 0 100 100"><defs/><defs><linearGradient id="a" x1="0" x2="1" y1="1" y2="0"><stop offset="0%" stop-color="#B0084D"/><stop offset="100%" stop-color="#FF4F8B"/></linearGradient></defs><g><path fill="url(#a)" fill-rule="evenodd" d="m 0,0 h 100 v 100 h -100 z"/><path fill="#fff" fill-rule="evenodd" d="m 58.243,37.5 h 16.016 l 6.136,11.25 h -4.686 l -3.386,-5.644 c -0.226,-0.376 -0.633,-0.606 -1.073,-0.606 h -10 c -0.439,0 -0.846,0.23 -1.071,0.606 l -3.386,5.644 h -4.687 z m -9.318,13.137 c 0.226,0.38 0.635,0.613 1.075,0.613 h 7.5 c 0.44,0 0.846,-0.23 1.073,-0.606 l 3.386,-5.644 h 8.584 l 3.386,5.644 c 0.225,0.376 0.633,0.606 1.071,0.606 h 7.5 c 0.441,0 0.85,-0.232 1.076,-0.613 0.224,-0.379 0.232,-0.849 0.022,-1.236 l -7.5,-13.75 c -0.219,-0.401 -0.64,-0.651 -1.098,-0.651 h -17.5 c -0.458,0 -0.879,0.25 -1.097,0.651 l -7.5,13.75 c -0.211,0.388 -0.203,0.858 0.022,1.236 z m 25.334,16.863 h -16.016 l -6.137,-11.25 h 4.687 l 3.386,5.644 c 0.225,0.376 0.633,0.606 1.071,0.606 h 10 c 0.44,0 0.846,-0.23 1.073,-0.606 l 3.386,-5.644 h 4.686 z m 8.241,-13.75 h -7.5 c -0.439,0 -0.846,0.23 -1.071,0.606 l -3.386,5.644 h -8.584 l -3.386,-5.644 c -0.226,-0.376 -0.633,-0.606 -1.073,-0.606 h -7.5 c -0.44,0 -0.849,0.232 -1.075,0.613 -0.225,0.379 -0.234,0.849 -0.022,1.236 l 7.5,13.75 c 0.219,0.401 0.64,0.651 1.097,0.651 h 17.5 c 0.458,0 0.879,-0.25 1.098,-0.651 l 7.5,-13.75 c 0.211,-0.388 0.203,-0.858 -0.022,-1.236 -0.226,-0.38 -0.635,-0.613 -1.076,-0.613 z m -39.496,31.25 h -16.006 l -8.064,-14.975 8.034,-13.775 h 16.065 l 8.035,13.775 z m 1.827,-30.63 c -0.225,-0.384 -0.636,-0.62 -1.081,-0.62 h -17.5 c -0.444,0 -0.855,0.236 -1.08,0.62 l -8.75,15 c -0.219,0.376 -0.227,0.839 -0.021,1.222 l 8.75,16.25 c 0.219,0.405 0.641,0.657 1.101,0.658 h 17.5 c 0.46,0 0.882,-0.253 1.101,-0.658 l 8.75,-16.25 c 0.206,-0.384 0.198,-0.846 -0.02,-1.222 z m -5.603,24.38 h -8.455 l -4.355,-8.711 4.307,-7.539 h 8.55 l 4.308,7.539 z m 0.772,-18.75 h -10 c -0.448,0 -0.862,0.24 -1.085,0.63 l -5,8.75 c -0.208,0.362 -0.22,0.805 -0.032,1.179 l 5,10 c 0.213,0.424 0.644,0.691 1.117,0.691 h 10 c 0.474,0 0.906,-0.268 1.119,-0.691 l 5,-10 c 0.186,-0.374 0.174,-0.816 -0.034,-1.179 l -5,-8.75 c -0.221,-0.39 -0.636,-0.63 -1.085,-0.63 z m -15.717,-23.75 7.291,12.5 h -4.606 l -7.292,-12.5 z m 14.945,7.5 2.5,5 h -7.26 l -2.917,-5 z m 6.441,-7.5 h 4.655 l -6.489,11.124 -2.391,-4.784 z m -20.499,14.38 c 0.225,0.384 0.636,0.62 1.08,0.62 h 17.499 10e-4 c 0.444,0 0.856,-0.235 1.081,-0.62 l 8.75,-15 c 0.224,-0.388 0.226,-0.865 0.003,-1.253 -0.222,-0.389 -0.635,-0.627 -1.084,-0.627 h -7.5 c -0.418,0 -0.807,0.209 -1.04,0.556 l -4.629,6.944 h -9.238 l -4.012,-6.88 c -0.225,-0.384 -0.636,-0.62 -1.081,-0.62 h -7.5 c -0.448,0 -0.86,0.239 -1.084,0.627 -0.224,0.388 -0.221,0.865 0.004,1.253 z m 1.798,-34.38 h 16.065 l 7.291,12.5 h -4.655 l -4.629,-6.944 c -0.231,-0.348 -0.623,-0.556 -1.04,-0.556 h -10 c -0.418,0 -0.807,0.209 -1.04,0.556 l -4.629,6.944 h -4.655 z m -9.468,15 h 7.5 c 0.418,0 0.809,-0.209 1.04,-0.556 l 4.629,-6.944 h 8.662 l 4.629,6.944 c 0.232,0.348 0.623,0.556 1.04,0.556 h 7.5 c 0.449,0 0.861,-0.239 1.084,-0.628 0.224,-0.388 0.221,-0.865 -0.003,-1.252 l -8.75,-15 c -0.225,-0.384 -0.636,-0.62 -1.081,-0.62 h -17.5 c -0.444,0 -0.855,0.236 -1.08,0.62 l -8.75,15 c -0.225,0.388 -0.227,0.865 -0.004,1.252 0.224,0.389 0.636,0.627 1.084,0.628 z"/></g></svg>