<svg xmlns="http://www.w3.org/2000/svg" viewBox="0 0 100 100"><defs/><defs><linearGradient id="a" x1="0" x2="1" y1="1" y2="0"><stop offset="0%" stop-color="#B0084D"/><stop offset="100%" stop-color="#FF4F8B"/></linearGradient></defs><g><path fill="url(#a)" fill-rule="evenodd" d="m 0,0 h 100 v 100 h -100 z"/><path fill="#fff" fill-rule="evenodd" d="m 47.5,28.75 h 4.999 v -2.5 h -4.999 z m -8.749,0 h 4.999 v -2.5 h -4.999 z m -8.749,0 h 4.999 v -2.5 h -4.999 z m 52.131,35.445 c -0.379,0.882 -1.175,1.549 -2.137,1.86 v -7.064 c 0.759,0.27 1.431,0.756 1.888,1.452 0.716,1.089 0.809,2.456 0.249,3.752 z m -63.016,0 c -0.56,-1.296 -0.469,-2.664 0.249,-3.752 0.457,-0.695 1.13,-1.181 1.887,-1.452 v 7.065 c -0.961,-0.311 -1.757,-0.979 -2.136,-1.861 z m 64.855,-5.128 c -0.926,-1.409 -2.362,-2.353 -3.976,-2.681 v -2.22 c 0,-4.365 -3.363,-7.916 -7.499,-7.916 h -23.747 v 2.5 h 23.747 c 2.758,0 4.999,2.43 4.999,5.416 v 16.668 c 0,2.986 -2.241,5.416 -4.999,5.416 h -43.745 c -2.757,0 -4.999,-2.43 -4.999,-5.416 v -16.668 c 0,-2.986 2.242,-5.416 4.999,-5.416 h 6.249 v -2.5 h -6.249 c -4.135,0 -7.499,3.551 -7.499,7.916 v 2.22 c -1.614,0.329 -3.048,1.272 -3.975,2.681 -1.187,1.804 -1.355,4.034 -0.458,6.117 0.781,1.814 2.452,3.084 4.433,3.453 v 2.197 c 0,4.365 3.365,7.916 7.499,7.916 h 14.998 v 7.5 h 2.5 v -7.5 h 7.499 v 7.5 h 2.5 v -7.5 h 16.248 c 4.136,0 7.499,-3.551 7.499,-7.916 v -2.197 c 1.984,-0.37 3.655,-1.64 4.434,-3.453 0.896,-2.083 0.729,-4.313 -0.458,-6.117 z m -43.971,3.433 c 0,2.067 -1.681,3.75 -3.75,3.75 -2.067,0 -3.75,-1.683 -3.749,-3.75 0,-2.067 1.682,-3.75 3.749,-3.75 2.069,0 3.75,1.683 3.75,3.75 z m -9.999,0 c 0,3.446 2.805,6.25 6.249,6.25 3.446,0 6.249,-2.804 6.249,-6.25 0,-3.446 -2.803,-6.25 -6.249,-6.25 -3.445,0 -6.249,2.804 -6.249,6.25 z m 31.246,0 c 0,-2.067 1.682,-3.75 3.75,-3.75 2.069,0 3.75,1.683 3.749,3.75 0,2.067 -1.681,3.75 -3.749,3.75 -2.067,0 -3.75,-1.683 -3.75,-3.75 z m 9.999,0 c 0,-3.446 -2.803,-6.25 -6.249,-6.25 -3.445,0 -6.249,2.804 -6.25,6.25 0,3.446 2.805,6.25 6.25,6.25 3.446,0 6.249,-2.804 6.249,-6.25 z m -46.245,-43.935 c 0,-0.587 0.477,-1.065 1.065,-1.065 h 31.432 v 20.146 c 0,0.609 -0.495,1.104 -1.103,1.104 h -12.646 c -0.69,0 -1.25,0.56 -1.25,1.25 v 6.485 l -5.524,-7.242 c -0.237,-0.31 -0.605,-0.493 -0.994,-0.493 h -9.915 c -0.587,0 -1.065,-0.478 -1.065,-1.065 z m 1.065,22.685 h 9.297 l 7.394,9.691 c 0.24,0.316 0.611,0.493 0.992,0.493 0.135,0 0.269,-0.021 0.401,-0.067 0.507,-0.171 0.849,-0.647 0.849,-1.183 v -8.934 h 11.396 c 1.987,0 3.602,-1.616 3.602,-3.604 v -20.741 c 0,-1.05 -0.854,-1.905 -1.905,-1.905 h -32.026 c -1.965,0 -3.565,1.599 -3.564,3.565 v 19.12 c 0,1.966 1.6,3.565 3.564,3.565 z"/></g></svg>