<svg xmlns="http://www.w3.org/2000/svg" viewBox="0 0 100 100"><defs/><defs><linearGradient id="a" x1="0" x2="1" y1="1" y2="0"><stop offset="0%" stop-color="#BD0816"/><stop offset="100%" stop-color="#FF5252"/></linearGradient></defs><g><path fill="url(#a)" fill-rule="evenodd" d="m 0,0 h 100 v 100 h -100 z"/><path fill="#fff" fill-rule="evenodd" d="m 74.513,73.974 -25.13,-48.974 h 7.189 l 25.131,48.974 z m 10.348,0.678 -26.413,-51.472 c -0.213,-0.418 -0.643,-0.68 -1.111,-0.68 h -10 c -0.436,0 -0.84,0.226 -1.067,0.599 -0.226,0.371 -0.244,0.835 -0.045,1.222 l 26.412,51.474 c 0.214,0.416 0.644,0.679 1.113,0.679 h 10 c 0.435,0 0.84,-0.226 1.066,-0.599 0.227,-0.371 0.245,-0.834 0.045,-1.222 z m -25.363,-0.678 -19.23,-36.059 3.939,-6.514 22.469,42.573 z m -14.111,-45.694 c -0.211,-0.399 -0.619,-0.654 -1.069,-0.666 -0.432,-0.026 -0.872,0.217 -1.106,0.602 l -5.45,9.014 c -0.229,0.378 -0.241,0.846 -0.035,1.235 l 19.919,37.347 c 0.217,0.406 0.643,0.661 1.104,0.662 h 10 c 0.438,0 0.844,-0.23 1.07,-0.605 0.226,-0.375 0.24,-0.841 0.035,-1.229 z m -26.921,45.694 17.64,-29.174 3.594,6.736 -8.283,14.311 c -0.224,0.388 -0.224,0.864 -0.001,1.252 0.224,0.386 0.636,0.625 1.084,0.625 h 15.833 l 3.333,6.25 z m 31.72,-8.089 c -0.217,-0.406 -0.643,-0.661 -1.104,-0.661 h -14.415 l 7.544,-13.037 c 0.217,-0.374 0.225,-0.833 0.022,-1.213 l -4.955,-9.292 c -0.213,-0.396 -0.62,-0.649 -1.07,-0.661 -0.48,-0.021 -0.871,0.219 -1.102,0.603 l -19.926,32.952 c -0.232,0.388 -0.24,0.869 -0.019,1.261 0.221,0.394 0.636,0.636 1.089,0.637 h 37.5 c 0.439,0 0.845,-0.23 1.071,-0.607 0.226,-0.378 0.239,-0.845 0.031,-1.232 z"/></g></svg>