<svg xmlns="http://www.w3.org/2000/svg" viewBox="0 0 100 100"><defs/><defs><linearGradient id="a" x1="0" x2="1" y1="1" y2="0"><stop offset="0%" stop-color="#C8511B"/><stop offset="100%" stop-color="#F90"/></linearGradient></defs><g><path fill="url(#a)" fill-rule="evenodd" d="m 0,0 h 100 v 100 h -100 z"/><path fill="#fff" fill-rule="evenodd" d="m 57.488,64.275 -7.488,4.285 -7.487,-4.285 v -8.55 l 7.487,-4.285 7.488,4.285 z m 2.5,-9.275 c 0,-0.448 -0.24,-0.862 -0.629,-1.085 l -8.738,-5 c -0.386,-0.22 -0.858,-0.22 -1.242,0 l -8.739,5 c -0.388,0.222 -0.627,0.637 -0.627,1.085 v 3.75 h -22.513 v 2.5 h 22.513 v 3.75 c 0,0.448 0.24,0.862 0.627,1.085 l 8.11,4.641 v 9.274 h 2.5 v -9.274 l 8.109,-4.641 c 0.389,-0.222 0.629,-0.637 0.629,-1.085 v -3.75 h 22.512 v -2.5 h -22.512 z m -37.488,-21.25 h 7.5 v -2.5 h -7.5 z m 36.25,0 h 18.75 v -2.5 h -18.75 z m -41.25,8.75 h 65 v -20 h -65 z m 66.25,-22.5 h -67.5 c -0.691,0 -1.25,0.56 -1.25,1.25 v 22.5 c 0,0.69 0.559,1.25 1.25,1.25 h 67.5 c 0.69,0 1.25,-0.56 1.25,-1.25 v -22.5 c 0,-0.69 -0.56,-1.25 -1.25,-1.25 z"/></g></svg>