<svg xmlns="http://www.w3.org/2000/svg" viewBox="0 0 100 100"><defs/><defs><linearGradient id="a" x1="0" x2="1" y1="1" y2="0"><stop offset="0%" stop-color="#B0084D"/><stop offset="100%" stop-color="#FF4F8B"/></linearGradient></defs><g><path fill="url(#a)" fill-rule="evenodd" d="m 0,0 h 100 v 100 h -100 z"/><path fill="#fff" fill-rule="evenodd" d="m 16.25,53.747 h 2.5 v -2.5 h -2.5 z m 43.693,-21.621 c -0.161,-0.52 -0.643,-0.876 -1.189,-0.877 h -0.004 c -0.544,0 -1.026,0.352 -1.191,0.871 l -7.855,24.689 -7.353,-13.654 c -0.216,-0.4 -0.631,-0.651 -1.085,-0.657 h -0.016 c -0.448,0 -0.862,0.24 -1.085,0.63 l -4.64,8.119 h -14.275 v 2.5 h 15 c 0.449,0 0.864,-0.24 1.085,-0.63 l 3.883,-6.793 7.681,14.265 c 0.22,0.407 0.645,0.657 1.101,0.657 0.039,0 0.077,-0.001 0.116,-0.005 0.5,-0.046 0.922,-0.387 1.075,-0.865 l 7.549,-23.72 5.068,16.215 c 0.163,0.521 0.646,0.876 1.192,0.876 h 18.75 v -2.5 h -17.83 z m -9.939,47.082 -17.996,-23.226 -1.975,1.531 18.98,24.498 c 0.236,0.306 0.575,0.529 0.987,0.483 0.385,0 0.749,-0.177 0.985,-0.48 l 19.116,-24.499 -1.97,-1.537 z m -31.608,-36.609 c -1.439,-2.644 -2.146,-5.297 -2.146,-7.963 0,-9.449 7.874,-17.136 17.55,-17.136 7.739,0 13.72,3.5 16.2,9 2.481,-5.501 8.462,-9 16.2,-9 9.678,0 17.55,7.687 17.55,17.136 0,2.612 -0.686,5.231 -2.041,7.781 -0.398,0.751 -0.877,1.504 -1.465,2.293 l -1.101,1.304 -3.214,3.569 -1.858,-1.672 4.217,-4.756 c 0.461,-0.624 0.874,-1.269 1.211,-1.908 1.164,-2.189 1.751,-4.411 1.751,-6.611 0,-8.071 -6.751,-14.636 -15.05,-14.636 -7.441,0 -14.95,3.866 -14.95,12.499 0,0.691 -0.559,1.25 -1.25,1.25 -0.69,0 -1.25,-0.559 -1.25,-1.25 0,-8.633 -7.509,-12.499 -14.95,-12.499 -8.297,0 -15.05,6.566 -15.05,14.636 0,2.245 0.606,4.496 1.799,6.693 l 4.255,6.645 -2.106,1.347 z"/></g></svg>