<svg xmlns="http://www.w3.org/2000/svg" viewBox="0 0 100 100"><defs/><defs><linearGradient id="a" x1="0" x2="1" y1="1" y2="0"><stop offset="0%" stop-color="#1B660F"/><stop offset="100%" stop-color="#6CAE3E"/></linearGradient></defs><g><path fill="url(#a)" fill-rule="evenodd" d="m 0,0 h 100 v 100 h -100 z"/><path fill="#fff" fill-rule="evenodd" d="m 45,23.75 h 10 v -2.5 h -10 z m 23.75,23.75 v -10 h -36.25 v 15 h 22.5 v 2.5 h -23.75 c -0.691,0 -1.25,-0.559 -1.25,-1.25 v -17.5 c 0,-0.69 0.559,-1.25 1.25,-1.25 h 38.75 c 0.691,0 1.25,0.56 1.25,1.25 v 11.25 z m -46.34,21.25 h 27.559 v 2.5 h -27.559 c -4.086,0 -7.41,-3.45 -7.41,-7.691 v -39.617 c 0,-4.241 3.324,-7.692 7.41,-7.692 h 55.18 c 4.086,0 7.41,3.451 7.41,7.692 v 29.808 h -2.5 v -29.808 c 0,-2.862 -2.203,-5.192 -4.91,-5.192 h -55.18 c -2.708,0 -4.91,2.33 -4.91,5.192 v 39.617 c 0,2.862 2.203,5.191 4.91,5.191 z m 1.959,-6.25 h 25.631 v 2.5 h -25.631 c -2.409,0 -4.369,-1.951 -4.369,-4.35 v -35.049 c 0,-2.399 1.96,-4.351 4.369,-4.351 h 14.381 c 0.574,0 1.073,0.391 1.212,0.948 l 1.014,4.052 h 18.048 l 1.014,-4.052 c 0.14,-0.556 0.639,-0.948 1.212,-0.948 h 14.381 c 2.409,0 4.369,1.953 4.369,4.351 v 23.149 h -2.5 v -23.149 c 0,-1.02 -0.839,-1.851 -1.869,-1.851 h -13.405 l -1.013,4.054 c -0.14,0.556 -0.639,0.946 -1.213,0.946 h -20 c -0.574,0 -1.073,-0.39 -1.212,-0.946 l -1.014,-4.054 h -13.405 c -1.03,0 -1.869,0.831 -1.869,1.851 v 35.049 c 0,1.02 0.839,1.85 1.869,1.85 z m 45.273,9.234 c -2.531,0 -4.59,-2.06 -4.59,-4.592 0,-2.531 2.059,-4.59 4.59,-4.59 2.53,0 4.59,2.059 4.59,4.59 0,2.531 -2.06,4.591 -4.59,4.592 z m 0,-11.682 c -3.91,0 -7.09,3.181 -7.09,7.09 0,3.91 3.18,7.091 7.09,7.092 3.91,0 7.09,-3.181 7.09,-7.092 0,-3.909 -3.18,-7.09 -7.09,-7.09 z m 13.352,8.669 -1.103,-0.062 c -0.579,-0.024 -1.156,0.376 -1.291,0.973 -0.279,1.241 -0.766,2.42 -1.449,3.502 -0.325,0.516 -0.23,1.192 0.225,1.6 l 0.823,0.733 -2.233,2.233 -0.73,-0.819 c -0.408,-0.459 -1.085,-0.552 -1.6,-0.225 -1.08,0.684 -2.26,1.171 -3.505,1.453 -0.596,0.134 -1.009,0.68 -0.972,1.291 l 0.062,1.094 h -3.157 l 0.062,-1.095 c 0.035,-0.611 -0.376,-1.156 -0.971,-1.292 -1.244,-0.281 -2.421,-0.77 -3.504,-1.453 -0.516,-0.328 -1.194,-0.234 -1.6,0.223 l -0.732,0.823 -2.232,-2.233 0.82,-0.731 c 0.455,-0.408 0.55,-1.084 0.224,-1.6 -0.681,-1.08 -1.169,-2.259 -1.45,-3.504 -0.134,-0.597 -0.731,-1.002 -1.29,-0.973 l -1.1,0.062 v -3.156 l 1.105,0.062 c 0.585,0.026 1.155,-0.376 1.29,-0.971 0.281,-1.241 0.77,-2.417 1.453,-3.497 0.326,-0.517 0.231,-1.194 -0.224,-1.602 l -0.829,-0.738 2.233,-2.233 0.738,0.828 c 0.408,0.455 1.084,0.55 1.599,0.225 1.077,-0.68 2.255,-1.167 3.499,-1.448 0.595,-0.135 1.006,-0.681 0.971,-1.291 l -0.062,-1.108 h 3.157 l -0.062,1.11 c -0.036,0.61 0.376,1.155 0.971,1.29 1.24,0.28 2.417,0.767 3.495,1.449 0.515,0.325 1.191,0.23 1.6,-0.225 l 0.741,-0.83 2.233,2.233 -0.827,0.737 c -0.455,0.406 -0.55,1.084 -0.223,1.6 0.68,1.077 1.169,2.254 1.45,3.499 0.135,0.596 0.706,0.999 1.291,0.972 l 1.104,-0.062 z m 2.107,-5.389 c -0.249,-0.235 -0.58,-0.36 -0.929,-0.338 l -1.41,0.08 c -0.249,-0.806 -0.573,-1.585 -0.966,-2.33 l 1.054,-0.94 c 0.256,-0.229 0.408,-0.554 0.417,-0.898 0.01,-0.344 -0.122,-0.676 -0.366,-0.919 l -4.102,-4.105 c -0.244,-0.244 -0.568,-0.388 -0.919,-0.365 -0.344,0.01 -0.667,0.16 -0.898,0.417 l -0.945,1.06 c -0.746,-0.394 -1.522,-0.716 -2.325,-0.965 l 0.079,-1.415 c 0.02,-0.344 -0.103,-0.68 -0.339,-0.93 -0.236,-0.25 -0.564,-0.391 -0.908,-0.392 h -5.803 c -0.345,0 -0.674,0.141 -0.909,0.393 -0.236,0.249 -0.359,0.585 -0.338,0.929 l 0.078,1.413 c -0.805,0.249 -1.583,0.571 -2.326,0.964 l -0.944,-1.057 c -0.23,-0.256 -0.555,-0.406 -0.897,-0.417 -0.321,-0.019 -0.676,0.122 -0.919,0.365 l -4.104,4.105 c -0.242,0.242 -0.375,0.575 -0.366,0.919 0.01,0.344 0.161,0.669 0.418,0.898 l 1.056,0.942 c -0.393,0.745 -0.716,1.524 -0.966,2.328 l -1.412,-0.08 c -0.348,-0.022 -0.681,0.104 -0.928,0.338 -0.251,0.236 -0.393,0.565 -0.393,0.909 v 5.804 c 0,0.344 0.141,0.673 0.393,0.909 0.247,0.236 0.583,0.356 0.928,0.338 l 1.405,-0.08 c 0.249,0.807 0.573,1.587 0.967,2.335 l -1.05,0.935 c -0.256,0.23 -0.408,0.554 -0.418,0.898 -0.009,0.344 0.124,0.676 0.366,0.92 l 4.104,4.102 c 0.242,0.244 0.594,0.38 0.919,0.367 0.344,-0.01 0.667,-0.161 0.897,-0.418 l 0.937,-1.05 c 0.747,0.396 1.527,0.72 2.333,0.969 l -0.078,1.402 c -0.02,0.344 0.103,0.68 0.338,0.93 0.235,0.25 0.564,0.391 0.909,0.392 h 5.803 c 0.345,0 0.673,-0.141 0.908,-0.392 0.236,-0.25 0.359,-0.586 0.339,-0.93 l -0.079,-1.4 c 0.806,-0.25 1.587,-0.574 2.337,-0.968 l 0.933,1.047 c 0.229,0.256 0.552,0.408 0.898,0.418 0.355,0.016 0.677,-0.122 0.919,-0.367 l 4.102,-4.102 c 0.244,-0.244 0.376,-0.576 0.366,-0.92 -0.01,-0.344 -0.161,-0.667 -0.417,-0.898 l -1.051,-0.937 c 0.395,-0.747 0.717,-1.527 0.966,-2.333 l 1.407,0.08 c 0.348,0.016 0.68,-0.104 0.929,-0.338 0.25,-0.236 0.393,-0.565 0.393,-0.909 v -5.804 c 0,-0.344 -0.143,-0.673 -0.393,-0.909 z"/></g></svg>