<svg xmlns="http://www.w3.org/2000/svg" viewBox="0 0 100 100"><defs/><defs><linearGradient id="a" x1="0" x2="1" y1="1" y2="0"><stop offset="0%" stop-color="#4D27A8"/><stop offset="100%" stop-color="#A166FF"/></linearGradient></defs><g><path fill="url(#a)" fill-rule="evenodd" d="m 0,0 h 100 v 100 h -100 z"/><path fill="#fff" fill-rule="evenodd" d="m 46.589,60.013 c 0,1.964 1.598,3.561 3.562,3.561 1.963,0 3.56,-1.598 3.56,-3.561 0,-1.964 -1.598,-3.561 -3.56,-3.562 -1.965,0 -3.563,1.598 -3.562,3.562 z m -2.5,0 c 0,-3.342 2.72,-6.061 6.062,-6.062 3.341,0 6.06,2.719 6.06,6.062 0,2.984 -2.171,5.456 -5.013,5.956 v 8.176 h -2.5 v -8.267 c -2.64,-0.655 -4.609,-3.026 -4.609,-5.865 z m -15.231,22.811 h 42.181 v -32.749 h -42.181 z m 36.737,-35.249 h 7.944 v 37.749 h -47.183 v -37.749 h 8.44 v -7.19 h 2.5 v 7.19 h 25.799 v -7.19 h 2.5 z m 7.758,-19.45 -1.738,1.799 4.908,4.744 h -54.075 l 4.756,-4.759 -1.768,-1.769 -7.936,7.938 8.13,7.857 1.739,-1.799 -5.141,-4.968 h 54.535 l -4.984,4.983 1.767,1.768 7.937,-7.936 z m -36.057,3.82 h -2.5 v -1.359 c 0,-7.685 5.376,-14.151 12.783,-15.375 4.531,-0.746 9.117,0.504 12.575,3.437 3.458,2.934 5.441,7.216 5.441,11.747 v 1.55 h -2.5 v -1.55 c 0,-3.796 -1.661,-7.384 -4.559,-9.841 -2.895,-2.455 -6.74,-3.504 -10.55,-2.875 -6.094,1.005 -10.69,6.555 -10.69,12.907 z"/></g></svg>