<svg xmlns="http://www.w3.org/2000/svg" viewBox="0 0 100 100"><defs/><defs><linearGradient id="a" x1="0" x2="1" y1="1" y2="0"><stop offset="0%" stop-color="#2E27AD"/><stop offset="100%" stop-color="#527FFF"/></linearGradient></defs><g><path fill="url(#a)" fill-rule="evenodd" d="m 0,0 h 100 v 100 h -100 z"/><path fill="#fff" fill-rule="evenodd" d="m 63.75,76.944 v -7.315 c -3.167,2.046 -8.87,3.013 -14.305,3.012 -5.925,0 -10.544,-1.034 -13.195,-2.806 v 7.109 c 0,2.116 4.935,4.305 13.195,4.306 8.43,0 14.305,-2.269 14.305,-4.306 z m -14.305,-15.419 c -5.925,0 -10.544,-1.033 -13.195,-2.805 v 7.138 c 0.039,2.109 4.966,4.283 13.195,4.283 8.404,0 14.266,-2.255 14.305,-4.288 v -7.34 c -3.167,2.048 -8.87,3.013 -14.305,3.012 z m 14.305,-6.786 v -8.453 c -3.167,2.046 -8.87,3.013 -14.305,3.013 -5.925,0 -10.544,-1.033 -13.195,-2.805 v 8.25 c 0.039,2.109 4.966,4.282 13.195,4.281 8.404,0 14.266,-2.255 14.305,-4.286 z m -27.504,-12.248 c 0,0.004 10e-4,0.007 0.002,0.011 h 0.002 v 0.014 c 0.039,2.109 4.966,4.283 13.195,4.283 9.178,0 14.266,-2.528 14.305,-4.287 v -0.01 h 0.003 c 0,-0.004 10e-4,-0.007 10e-4,-0.011 0,-1.76 -5.095,-4.308 -14.309,-4.308 -8.263,0 -13.199,2.19 -13.199,4.308 z m 30.004,0.031 v 12.195 h 0.004 c 0,0.011 -0.004,0.02 -0.004,0.032 v 11.084 h 0.004 c 0,0.011 -0.004,0.02 -0.004,0.032 v 11.079 c 0,4.677 -8.711,6.806 -16.805,6.806 -9.534,0 -15.695,-2.672 -15.695,-6.806 v -11.072 c 0,-0.014 -0.004,-0.025 -0.004,-0.039 h 0.004 v -11.077 c 0,-0.013 -0.004,-0.025 -0.004,-0.039 h 0.004 v -12.187 c 0,-0.014 -0.004,-0.025 -0.004,-0.039 0,-4.135 6.162,-6.808 15.699,-6.808 8.095,0 16.809,2.13 16.809,6.808 0,0.011 -0.004,0.02 -0.004,0.031 z m 17.5,-16.121 c 0.691,0 1.25,-0.56 1.25,-1.25 v -6.401 c 0,-0.691 -0.559,-1.25 -1.25,-1.25 h -67.5 c -0.691,0 -1.25,0.559 -1.25,1.25 v 6.401 c 0,0.69 0.559,1.25 1.25,1.25 1.526,0 2.768,1.234 2.768,2.75 0,1.516 -1.241,2.75 -2.768,2.75 -0.691,0 -1.25,0.56 -1.25,1.25 v 25.603 c 0,0.69 0.559,1.25 1.25,1.25 h 12.5 v -2.5 h -6.25 v -3.751 h 6.25 v -2.5 h -7.5 c -0.691,0 -1.25,0.559 -1.25,1.25 v 5.001 h -2.5 v -23.252 c 2.304,-0.561 4.018,-2.635 4.018,-5.101 0,-2.466 -1.714,-4.54 -4.018,-5.102 v -4.049 h 65 v 4.049 c -2.304,0.561 -4.018,2.635 -4.018,5.102 0,2.465 1.714,4.539 4.018,5.101 v 23.252 h -2.5 v -5.001 c 0,-0.691 -0.559,-1.25 -1.25,-1.25 h -7.5 v 2.5 h 6.25 v 3.751 h -6.25 v 2.5 h 12.5 c 0.691,0 1.25,-0.56 1.25,-1.25 v -25.603 c 0,-0.69 -0.559,-1.25 -1.25,-1.25 -1.526,0 -2.768,-1.234 -2.768,-2.75 0,-1.516 1.241,-2.75 2.768,-2.75 z m -48.75,8.601 v -10.001 c 0,-0.691 -0.559,-1.25 -1.25,-1.25 h -7.5 c -0.691,0 -1.25,0.559 -1.25,1.25 v 21.252 c 0,0.69 0.559,1.25 1.25,1.25 h 3.75 v -2.5 h -2.5 v -18.752 h 5 v 8.751 z m 37.5,10.001 h -1.25 v 2.5 h 2.5 c 0.691,0 1.25,-0.56 1.25,-1.25 v -21.252 c 0,-0.691 -0.559,-1.25 -1.25,-1.25 h -7.5 c -0.691,0 -1.25,0.559 -1.25,1.25 v 10.001 h 2.5 v -8.751 h 5 z m -10,-11.251 v -8.751 c 0,-0.691 -0.559,-1.25 -1.25,-1.25 h -8.75 c -0.691,0 -1.25,0.559 -1.25,1.25 v 7.5 h 2.5 v -6.25 h 6.25 v 7.501 z m -16.25,-1.251 v -6.25 h -6.25 v 7.501 h -2.5 v -8.751 c 0,-0.691 0.559,-1.25 1.25,-1.25 h 8.75 c 0.691,0 1.25,0.559 1.25,1.25 v 7.5 z"/></g></svg>