<svg xmlns="http://www.w3.org/2000/svg" viewBox="0 0 100 100"><defs/><defs><linearGradient id="a" x1="0" x2="1" y1="1" y2="0"><stop offset="0%" stop-color="#055F4E"/><stop offset="100%" stop-color="#56C0A7"/></linearGradient></defs><g><path fill="url(#a)" fill-rule="evenodd" d="m 0,0 h 100 v 100 h -100 z"/><path fill="#fff" fill-rule="evenodd" d="m 81.577,74.993 -16.698,-16.147 c -1.622,2.171 -3.559,4.095 -5.743,5.708 l 16.293,16.568 c 0.794,0.788 1.741,0.859 2.391,0.776 1.003,-0.128 2.045,-0.684 2.935,-1.568 0.895,-0.889 1.462,-1.933 1.598,-2.941 0.088,-0.655 0.025,-1.602 -0.776,-2.396 z m -13.865,-32.507 c 0,-13.722 -11.235,-24.886 -25.047,-24.886 -13.812,0 -25.047,11.164 -25.047,24.886 0,13.722 11.235,24.886 25.047,24.886 13.812,0 25.047,-11.164 25.047,-24.886 z m 17.235,35.245 c -0.211,1.572 -1.042,3.147 -2.341,4.437 -1.298,1.289 -2.88,2.109 -4.456,2.308 -0.254,0.033 -0.506,0.049 -0.754,0.049 -1.455,0 -2.792,-0.545 -3.827,-1.576 l -16.642,-16.922 c -4.167,2.502 -9.048,3.944 -14.262,3.944 -15.254,0 -27.665,-12.329 -27.665,-27.485 0,-15.156 12.411,-27.486 27.665,-27.486 15.254,0 27.665,12.329 27.664,27.486 0,5.179 -1.45,10.026 -3.967,14.166 l 17.054,16.49 c 1.226,1.217 1.765,2.842 1.531,4.589 z m -24.713,-35.245 c 0,-9.788 -7.718,-17.457 -17.569,-17.458 -9.852,0 -17.57,7.669 -17.57,17.458 0,9.788 7.718,17.456 17.57,17.455 9.852,0 17.57,-7.668 17.569,-17.455 z m 2.618,0 c 0,11.246 -8.868,20.056 -20.187,20.055 -11.32,0 -20.188,-8.809 -20.188,-20.055 0,-11.246 8.868,-20.057 20.188,-20.057 11.32,0 20.188,8.81 20.187,20.057 z m -11.377,-11.254 h -18.879 v 2.501 h 17.62 v 20.006 h 2.517 v -21.257 c 0,-0.69 -0.563,-1.25 -1.258,-1.25 z m -18.879,22.507 h 15.103 v -2.5 h -15.103 z m -3.776,-6.252 h 18.879 v -2.501 h -18.879 z m 18.879,35.012 h -22.654 v -15.005 h -2.517 v 16.256 c 0,0.69 0.563,1.25 1.258,1.25 h 25.172 c 0.696,0 1.259,-0.56 1.258,-1.25 v -10.004 h -2.517 z m -18.879,-42.514 h 18.6 v -2.501 h -18.6 z"/></g></svg>