<svg xmlns="http://www.w3.org/2000/svg" viewBox="0 0 100 100"><defs/><defs><linearGradient id="a" x1="0" x2="1" y1="1" y2="0"><stop offset="0%" stop-color="#BD0816"/><stop offset="100%" stop-color="#FF5252"/></linearGradient></defs><g><path fill="url(#a)" fill-rule="evenodd" d="m 0,0 h 100 v 100 h -100 z"/><path fill="#fff" fill-rule="evenodd" d="m 42.5,63.75 h 3.75 v -2.5 h -3.75 z m -11.25,0 h 8.75 v -2.5 h -8.75 z m 0,-6.25 h 13.75 v -2.5 h -13.75 z m 50,15 v -23.75 h -2.5 v 17.5 c 0,0.69 -0.559,1.25 -1.25,1.25 h -25 c -0.691,0 -1.25,-0.56 -1.25,-1.25 v -17.5 h -23.75 v 23.75 z m -26.157,-7.5 h 19.805 c -0.547,-3.771 -3.425,-7.145 -7.208,-8.344 -0.871,0.367 -1.809,0.568 -2.751,0.568 -0.943,0 -1.875,-0.196 -2.744,-0.559 -3.795,1.209 -6.593,4.524 -7.102,8.335 z m 12.043,-10.838 c 1.454,-0.789 2.356,-2.295 2.357,-3.931 0,-2.484 -2.042,-4.505 -4.554,-4.505 -2.51,0 -4.551,2.021 -4.551,4.505 0,1.635 0.899,3.141 2.346,3.933 1.351,0.734 3.033,0.744 4.402,-0.002 z m 9.114,-12.912 h -22.5 v 19.688 c 1.251,-2.567 3.37,-4.704 6.01,-5.98 -1.18,-1.272 -1.873,-2.945 -1.873,-4.727 0,-3.862 3.164,-7.005 7.052,-7.005 3.889,0 7.054,3.142 7.053,7.005 0,1.774 -0.69,3.44 -1.862,4.709 2.692,1.284 4.851,3.445 6.12,6.044 z m -48.75,-6.25 v 11.25 h 23.75 v -6.25 c 0,-0.69 0.559,-1.25 1.25,-1.25 h 25 c 0.691,0 1.25,0.56 1.25,1.25 v 6.25 h 2.5 v -11.25 z m 56.25,-1.25 v 40 c 0,0.69 -0.559,1.25 -1.25,1.25 h -56.25 c -0.691,0 -1.25,-0.56 -1.25,-1.25 v -40 c 0,-0.69 0.559,-1.25 1.25,-1.25 h 56.25 c 0.691,0 1.25,0.56 1.25,1.25 z m -63.75,31.25 h 2.5 v 2.5 h -3.75 c -0.691,0 -1.25,-0.56 -1.25,-1.25 v -40 c 0,-0.69 0.559,-1.25 1.25,-1.25 h 57.5 c 0.691,0 1.25,0.56 1.25,1.25 v 3.75 h -2.5 v -2.5 h -55 z"/></g></svg>