<svg xmlns="http://www.w3.org/2000/svg" viewBox="0 0 100 100"><defs/><defs><linearGradient id="a" x1="0" x2="1" y1="1" y2="0"><stop offset="0%" stop-color="#2E27AD"/><stop offset="100%" stop-color="#527FFF"/></linearGradient></defs><g><path fill="url(#a)" fill-rule="evenodd" d="m 0,0 h 100 v 100 h -100 z"/><path fill="#fff" fill-rule="evenodd" d="m 81.875,47.086 -13.75,-7.939 c -0.386,-0.221 -0.864,-0.221 -1.25,0 l -13.75,7.939 c -0.388,0.224 -0.625,0.636 -0.625,1.082 v 12.559 l 2.5,-1.444 v -10.394 l 12.5,-7.216 12.5,7.216 v 14.435 l -12.5,7.218 -8.499,-4.908 -2.5,1.444 10.374,5.989 c 0.193,0.111 0.409,0.168 0.625,0.167 0.216,0 0.432,-0.056 0.625,-0.167 l 13.75,-7.938 c 0.388,-0.224 0.625,-0.636 0.625,-1.083 v -15.878 c 0,-0.446 -0.237,-0.859 -0.625,-1.082 z m -53.125,2.641 c 0,-4.48 3.645,-8.125 8.125,-8.125 4.48,0 8.125,3.645 8.125,8.125 0,4.48 -3.645,8.125 -8.125,8.125 -4.48,0 -8.125,-3.645 -8.125,-8.125 z m 52.5,-17.271 h -61.25 c -0.691,0.396 -1.25,0.956 -1.25,1.646 v 34.401 c 0,0.448 0.24,0.862 0.63,1.085 l 26.595,15.203 c 0.193,0.11 0.406,0.165 0.62,0.165 0.214,0 0.429,-0.055 0.62,-0.165 l 17.57,-10.043 -2.505,-1.447 -5.269,3.011 c -0.366,-2.451 -1.149,-4.839 -2.356,-7.063 l -0.532,-0.797 -2.167,1.25 0.56,0.837 c 1.181,2.183 1.904,4.614 2.143,7.118 l -8.064,4.61 -24.295,-13.889 c 3.42,-4.525 8.811,-7.226 14.572,-7.226 3.302,0 6.513,0.909 9.292,2.63 l 0.43,0.355 2.314,-1.336 -1.222,-1.002 c -0.041,-0.035 -0.085,-0.066 -0.13,-0.095 -1.839,-1.15 -3.847,-1.978 -5.943,-2.481 3.484,-1.746 5.888,-5.341 5.887,-9.496 0,-5.857 -4.766,-10.625 -10.625,-10.625 -5.859,0 -10.625,4.768 -10.625,10.625 0,4.141 2.386,7.726 5.853,9.479 -4.197,0.981 -8.002,3.239 -10.853,6.477 v -30.727 h 58.75 v 6.25 l 2.5,1.443 v -8.547 c 0,-0.69 -0.559,-1.25 -1.25,-1.646 z m -56.229,-2.5 21.24,-12.264 21.239,12.264 h 5 l -25.614,-14.789 c -0.386,-0.222 -0.865,-0.222 -1.25,0 l -25.616,14.789 z m 16.968,42.615 -1.25,-2.167 24.045,-13.882 1.25,2.165 z"/></g></svg>