<svg xmlns="http://www.w3.org/2000/svg" viewBox="0 0 100 100"><defs/><defs><linearGradient id="a" x1="0" x2="1" y1="1" y2="0"><stop offset="0%" stop-color="#1B660F"/><stop offset="100%" stop-color="#6CAE3E"/></linearGradient></defs><g><path fill="url(#a)" fill-rule="evenodd" d="m 0,0 h 100 v 100 h -100 z"/><path fill="#fff" fill-rule="evenodd" d="m 55,50 h 8.75 v -2.5 h -8.75 z m 18.75,0 h 5 v -2.5 h -5 z m -18.75,-6.25 h 15 v -2.5 h -15 z m -32.5,36.25 c -1.891,0 -3.75,-1.857 -3.75,-3.75 0,-1.893 1.859,-3.75 3.75,-3.75 1.893,0 3.75,1.857 3.75,3.75 0,1.893 -1.857,3.75 -3.75,3.75 z m 0,-17.5 c -1.891,0 -3.75,-1.857 -3.75,-3.75 0,-1.893 1.859,-3.75 3.75,-3.75 1.893,0 3.75,1.857 3.75,3.75 0,1.893 -1.857,3.75 -3.75,3.75 z m 0,-17.5 c -1.891,0 -3.75,-1.857 -3.75,-3.75 0,-1.893 1.859,-3.75 3.75,-3.75 1.893,0 3.75,1.857 3.75,3.75 0,1.893 -1.857,3.75 -3.75,3.75 z m 0,-17.5 c -1.823,0 -3.75,-1.927 -3.75,-3.75 0,-1.823 1.927,-3.75 3.75,-3.75 1.823,0 3.75,1.927 3.75,3.75 0,1.823 -1.927,3.75 -3.75,3.75 z m 45,32.5 v -2.5 h -28.75 v -33.75 c 0,-0.69 -0.559,-1.25 -1.25,-1.25 h -8.904 c -0.649,-2.708 -3.305,-5 -6.096,-5 -3.212,0 -6.25,3.038 -6.25,6.25 0,3.212 3.038,6.25 6.25,6.25 2.791,0 5.447,-2.292 6.096,-5 h 7.654 v 15 h -7.649 c -0.633,-2.741 -3.252,-5 -6.101,-5 -3.271,0 -6.25,2.979 -6.25,6.25 0,3.271 2.979,6.25 6.25,6.25 2.849,0 5.469,-2.259 6.101,-5 h 7.649 v 15 h -7.649 c -0.633,-2.741 -3.252,-5 -6.101,-5 -3.271,0 -6.25,2.979 -6.25,6.25 0,3.271 2.979,6.25 6.25,6.25 2.849,0 5.469,-2.259 6.101,-5 h 7.649 v 15 h -7.649 c -0.633,-2.741 -3.252,-5 -6.101,-5 -3.271,0 -6.25,2.979 -6.25,6.25 0,3.271 2.979,6.25 6.25,6.25 2.849,0 5.469,-2.259 6.101,-5 h 8.899 c 0.691,0 1.25,-0.56 1.25,-1.25 v -16.25 z m 2.5,0 h 8.75 v -2.5 h -8.75 z m 3.75,-16.25 h 4.753 v -2.5 h -4.753 z m -1.25,-10 v -6.982 l 6.982,6.982 z m 11.236,1.172 c -0.007,-0.11 -0.03,-0.217 -0.066,-0.323 -0.013,-0.04 -0.024,-0.077 -0.04,-0.117 -0.061,-0.133 -0.139,-0.259 -0.246,-0.366 l -11.25,-11.25 c -0.107,-0.106 -0.232,-0.184 -0.365,-0.244 -0.039,-0.019 -0.079,-0.029 -0.12,-0.043 -0.103,-0.035 -0.209,-0.055 -0.318,-0.063 -0.029,-0.003 -0.053,-0.016 -0.081,-0.016 h -21.25 c -0.69,0 -1.25,0.56 -1.25,1.25 v 31.25 h 2.5 v -30 h 18.75 v 10 c 0,0.69 0.56,1.25 1.25,1.25 h 10 v 38.75 h -30 v -12.5 h -2.5 v 13.75 c 0,0.69 0.56,1.25 1.25,1.25 h 32.5 c 0.691,0 1.25,-0.56 1.25,-1.25 v -41.25 c 0,-0.026 -0.013,-0.051 -0.014,-0.077 z"/></g></svg>