<svg xmlns="http://www.w3.org/2000/svg" viewBox="0 0 100 100"><defs/><defs><linearGradient id="a" x1="0" x2="1" y1="1" y2="0"><stop offset="0%" stop-color="#055F4E"/><stop offset="100%" stop-color="#56C0A7"/></linearGradient></defs><g><path fill="url(#a)" fill-rule="evenodd" d="m 0,0 h 100 v 100 h -100 z"/><path fill="#fff" fill-rule="evenodd" d="m 48.731,31.875 c 0,1.036 0.839,1.875 1.872,1.875 1.034,0 1.872,-0.839 1.873,-1.875 0,-1.036 -0.839,-1.875 -1.873,-1.875 -1.034,0 -1.872,0.839 -1.872,1.875 z m 1.872,-5.625 c -3.097,0 -5.617,2.524 -5.617,5.625 0,3.101 2.52,5.625 5.617,5.625 3.097,0 5.617,-2.524 5.617,-5.625 0,-3.101 -2.52,-5.625 -5.617,-5.625 z m 0,-2.5 c 4.474,0 8.114,3.645 8.114,8.125 0,4.48 -3.64,8.125 -8.114,8.125 -4.474,0 -8.114,-3.645 -8.113,-8.125 0,-4.48 3.64,-8.125 8.113,-8.125 z m 0,56.25 c -1.034,0 -1.872,0.839 -1.872,1.875 0,1.036 0.839,1.875 1.872,1.875 1.034,0 1.872,-0.839 1.873,-1.875 0,-1.036 -0.839,-1.875 -1.873,-1.875 z m 0,-7.5 c -1.034,0 -1.872,0.839 -1.872,1.875 0,1.036 0.839,1.875 1.872,1.875 1.034,0 1.872,-0.839 1.873,-1.875 0,-1.036 -0.839,-1.875 -1.873,-1.875 z m 0,-7.5 c -1.034,0 -1.872,0.839 -1.872,1.875 0,1.036 0.839,1.875 1.872,1.875 1.034,0 1.872,-0.839 1.873,-1.875 0,-1.036 -0.839,-1.875 -1.873,-1.875 z m 3.121,-46.25 h 2.496 v -2.5 h -2.496 z m 0,40 h 2.496 v -2.5 h -2.496 z m 4.993,25 h 2.496 v -18.75 h -2.496 z m -18.724,0 h 2.497 v -12.5 h -2.497 z m 0,-15 h 2.497 v -6.25 h -2.497 z m 21.22,-20.002 h -3.744 v 2.5 h 3.744 c 0.995,0 2.497,0 2.497,3.752 v 1.25 h -4.993 v 2.5 h 4.995 l 0.014,25 h 2.497 l -0.017,-28.75 c 0,-4.149 -1.68,-6.252 -4.993,-6.252 z m -9.986,10.002 v -2.5 h -13.729 l -10e-4,-1.25 c 0,-3.75 1.502,-3.75 2.496,-3.75 h 3.745 v -2.5 h -3.745 c -3.313,0 -4.993,2.103 -4.993,6.251 l 0.016,15 2.497,-0.002 -0.013,-11.249 z m 15.023,-39.069 v 24.444 c 0,0.921 0,1.629 -0.357,2.246 -0.63,1.09 -1.919,1.09 -2.404,1.09 h -8.517 v 3.789 h -2.496 v -3.789 h -3.745 v 3.789 h -2.497 v -3.789 h -8.473 c -0.486,0 -1.774,0 -2.404,-1.09 -0.357,-0.617 -0.357,-1.325 -0.357,-2.221 v -24.444 c 0,-0.925 0,-1.634 0.335,-2.266 0.63,-1.19 1.982,-1.19 2.426,-1.19 h 13.466 v 2.5 h -13.466 c -0.102,0 -0.182,0.004 -0.241,0.01 -0.024,0.229 -0.024,0.604 -0.023,0.921 v 24.444 c 0,0.289 0,0.611 0.014,0.829 0.064,0.005 0.146,0.007 0.25,0.007 h 25.728 c 0.104,0 0.186,-0.003 0.25,-0.007 0.015,-0.215 0.015,-0.532 0.014,-0.804 v -24.444 c 0,-0.336 0,-0.717 -0.022,-0.946 -0.06,-0.006 -0.14,-0.01 -0.242,-0.01 h -4.772 v -2.5 h 4.772 c 0.444,0 1.796,0 2.428,1.19 0.333,0.633 0.333,1.341 0.333,2.241 z"/></g></svg>