<svg xmlns="http://www.w3.org/2000/svg" viewBox="0 0 100 100"><defs/><defs><linearGradient id="a" x1="0" x2="1" y1="1" y2="0"><stop offset="0%" stop-color="#BD0816"/><stop offset="100%" stop-color="#FF5252"/></linearGradient></defs><g><path fill="url(#a)" fill-rule="evenodd" d="m 0,0 h 100 v 100 h -100 z"/><path fill="#fff" fill-rule="evenodd" d="m 82.5,57.501 -18.594,-5.373 v -6.599 l 18.594,5.409 z m -10.185,16.146 -4.644,4.643 -9.611,-17.226 4.67,-4.67 z m -16.69,-13.683 c -0.383,0.381 -0.474,0.963 -0.234,1.442 h -8.458 c -0.306,0 -0.593,0.111 -0.814,0.3 l -6.083,-6.081 c -0.24,-0.241 -0.56,-0.366 -0.883,-0.366 -0.19,0 -0.381,0.043 -0.559,0.131 v -8.459 c 0,-0.306 -0.111,-0.593 -0.3,-0.814 l 6.081,-6.082 c 0.383,-0.381 0.474,-0.963 0.235,-1.441 h 8.458 c 0.306,0 0.593,-0.112 0.813,-0.302 l 6.083,6.083 c 0.381,0.383 0.965,0.474 1.442,0.234 v 8.458 c 0,0.306 0.111,0.593 0.3,0.814 z m -6.564,22.536 h -6.562 l 5.374,-18.594 h 6.598 z m -22.709,-10.186 -4.645,-4.644 17.229,-9.61 4.669,4.669 z m -8.852,-23.253 v -6.564 l 18.594,5.374 v 6.599 z m 10.185,-22.709 4.644,-4.643 9.611,17.226 -4.67,4.67 z m 23.254,-8.852 h 6.562 l -5.373,18.594 h -6.599 z m 22.709,10.185 4.645,4.644 -17.229,9.61 -4.669,-4.669 z m 10.451,21.115 -19.85,-5.776 16.706,-9.318 c 0.341,-0.19 0.575,-0.531 0.629,-0.919 0.054,-0.389 -0.077,-0.78 -0.355,-1.056 l -6.48,-6.48 c -0.395,-0.395 -1.002,-0.481 -1.491,-0.209 l -18.267,10.148 5.374,-18.594 c 0.109,-0.378 0.034,-0.784 -0.202,-1.099 -0.236,-0.314 -0.605,-0.498 -0.999,-0.497 h -9.164 c -0.555,0 -1.045,0.366 -1.2,0.9 l -5.775,19.85 -9.319,-16.705 c -0.191,-0.341 -0.531,-0.575 -0.92,-0.629 -0.383,-0.054 -0.779,0.077 -1.055,0.355 l -6.48,6.48 c -0.394,0.394 -0.48,1.002 -0.208,1.491 l 10.146,18.265 -18.593,-5.372 c -0.375,-0.111 -0.784,-0.036 -1.097,0.201 -0.315,0.236 -0.499,0.606 -0.499,0.999 v 9.165 c 0,0.555 0.367,1.044 0.901,1.199 l 19.85,5.776 -16.706,9.317 c -0.341,0.191 -0.575,0.531 -0.629,0.92 -0.054,0.388 0.077,0.779 0.355,1.055 l 6.48,6.48 c 0.396,0.395 1.004,0.48 1.492,0.209 l 18.266,-10.147 -5.374,18.593 c -0.109,0.378 -0.034,0.784 0.203,1.099 0.236,0.314 0.605,0.499 0.998,0.499 h 9.164 c 0.555,0 1.045,-0.367 1.2,-0.901 l 5.775,-19.85 9.319,16.705 c 0.19,0.341 0.531,0.575 0.92,0.628 0.39,0.057 0.779,-0.076 1.055,-0.355 l 6.48,-6.48 c 0.394,-0.394 0.48,-1.002 0.209,-1.491 l -10.147,-18.265 18.593,5.374 c 0.374,0.109 0.784,0.034 1.097,-0.203 0.315,-0.236 0.499,-0.605 0.499,-0.998 v -9.164 c 0,-0.556 -0.367,-1.045 -0.901,-1.2 z"/></g></svg>