<svg xmlns="http://www.w3.org/2000/svg" viewBox="0 0 100 100"><defs/><defs><linearGradient id="a" x1="0" x2="1" y1="1" y2="0"><stop offset="0%" stop-color="#1B660F"/><stop offset="100%" stop-color="#6CAE3E"/></linearGradient></defs><g><path fill="url(#a)" fill-rule="evenodd" d="m 0,0 h 100 v 100 h -100 z"/><path fill="#fff" fill-rule="evenodd" d="m 18.75,43.75 h 3.75 v -8.75 h -3.75 z m 11.25,0 h 3.75 v -8.75 h -3.75 z m 0,-15 h 3.75 v -8.75 h -3.75 z m 15,7.5 h 3.75 v -8.75 h -3.75 z m 11.25,0 h 3.75 v -8.75 h -3.75 z m -38.75,10 h 6.25 c 0.691,0 1.25,-0.56 1.25,-1.25 v -3.75 h 2.5 v 3.75 c 0,0.69 0.56,1.25 1.25,1.25 h 6.25 c 0.691,0 1.25,-0.56 1.25,-1.25 v -3.75 h 3.75 c 0.691,0 1.25,-0.56 1.25,-1.25 v -6.25 h 1.25 v 3.75 c 0,0.69 0.56,1.25 1.25,1.25 h 6.25 c 0.691,0 1.25,-0.56 1.25,-1.25 v -3.75 h 2.5 v 3.75 c 0,0.69 0.56,1.25 1.25,1.25 h 6.25 c 0.691,0 1.25,-0.56 1.25,-1.25 v -11.25 c 0,-0.69 -0.559,-1.25 -1.25,-1.25 h -6.25 c -0.69,0 -1.25,0.56 -1.25,1.25 v 5 h -2.5 v -5 c 0,-0.69 -0.559,-1.25 -1.25,-1.25 h -6.25 c -0.69,0 -1.25,0.56 -1.25,1.25 v 5 h -1.25 v -6.25 c 0,-0.69 -0.559,-1.25 -1.25,-1.25 h -3.75 v -5 c 0,-0.69 -0.559,-1.25 -1.25,-1.25 h -6.25 c -0.69,0 -1.25,0.56 -1.25,1.25 v 11.25 c 0,0.69 0.56,1.25 1.25,1.25 h 6.25 c 0.691,0 1.25,-0.56 1.25,-1.25 v -3.75 h 2.5 v 12.5 h -2.5 v -5 c 0,-0.69 -0.559,-1.25 -1.25,-1.25 h -6.25 c -0.69,0 -1.25,0.56 -1.25,1.25 v 5 h -2.5 v -5 c 0,-0.69 -0.559,-1.25 -1.25,-1.25 h -6.25 c -0.69,0 -1.25,0.56 -1.25,1.25 v 11.25 c 0,0.69 0.56,1.25 1.25,1.25 z m 22.814,-25.201 -0.626,-2.42 c 2.936,-0.76 5.974,-1.087 9.036,-0.962 11.12,0.445 21.211,6.866 26.335,16.758 l -2.219,1.15 c -4.714,-9.095 -13.991,-15 -24.216,-15.41 -2.821,-0.109 -5.611,0.185 -8.31,0.884 z m 31.775,42.106 2.154,1.27 c -3.222,5.47 -7.971,9.771 -13.73,12.44 l -1.053,-2.268 c 5.298,-2.455 9.664,-6.411 12.629,-11.442 z m -53.15,-14.406 c 0.007,4.184 0.904,8.217 2.663,11.986 l -2.266,1.059 c -1.915,-4.103 -2.89,-8.49 -2.897,-13.041 z m 21.826,21.976 c -2.896,0 -5.25,-2.355 -5.25,-5.25 0,-2.895 2.354,-5.25 5.25,-5.25 2.895,0 5.25,2.355 5.25,5.25 0,2.895 -2.355,5.25 -5.25,5.25 z m 0,-13 c -4.274,0 -7.75,3.476 -7.75,7.75 0,4.274 3.476,7.75 7.75,7.75 4.274,0 7.75,-3.476 7.75,-7.75 0,-4.274 -3.476,-7.75 -7.75,-7.75 z m 15,9.656 -1.376,-0.079 c -0.576,-0.029 -1.155,0.376 -1.29,0.974 -0.315,1.399 -0.864,2.725 -1.633,3.941 -0.325,0.517 -0.23,1.194 0.225,1.6 l 1.028,0.917 -2.695,2.696 -0.913,-1.023 c -0.409,-0.459 -1.087,-0.552 -1.601,-0.225 -1.215,0.767 -2.542,1.319 -3.946,1.635 -0.595,0.135 -1.008,0.68 -0.972,1.292 l 0.078,1.366 h -3.813 l 0.079,-1.369 c 0.035,-0.61 -0.376,-1.156 -0.971,-1.29 -1.4,-0.316 -2.726,-0.867 -3.945,-1.637 -0.516,-0.325 -1.194,-0.232 -1.6,0.226 l -0.914,1.024 -2.696,-2.695 1.025,-0.914 c 0.455,-0.406 0.55,-1.084 0.224,-1.6 -0.766,-1.215 -1.315,-2.542 -1.63,-3.944 -0.135,-0.596 -0.7,-0.994 -1.292,-0.974 l -1.372,0.079 v -3.812 l 1.377,0.078 c 0.566,0.031 1.155,-0.376 1.292,-0.971 0.316,-1.396 0.865,-2.721 1.633,-3.937 0.326,-0.517 0.231,-1.194 -0.223,-1.6 l -1.034,-0.923 2.697,-2.695 0.92,1.031 c 0.406,0.455 1.085,0.55 1.599,0.225 1.215,-0.766 2.539,-1.314 3.938,-1.63 0.596,-0.135 1.008,-0.68 0.972,-1.29 l -0.079,-1.382 h 3.813 l -0.078,1.384 c -0.036,0.61 0.376,1.156 0.972,1.291 1.398,0.316 2.723,0.865 3.936,1.63 0.516,0.325 1.192,0.232 1.6,-0.225 l 0.922,-1.034 2.697,2.695 -1.03,0.92 c -0.455,0.406 -0.55,1.083 -0.225,1.6 0.767,1.212 1.316,2.539 1.633,3.94 0.136,0.595 0.715,1.002 1.29,0.971 l 1.378,-0.078 z m 1.179,-6.384 -1.68,0.097 c -0.29,-0.961 -0.674,-1.889 -1.149,-2.773 l 1.256,-1.12 c 0.256,-0.229 0.409,-0.554 0.418,-0.897 0.01,-0.344 -0.122,-0.676 -0.367,-0.919 l -4.567,-4.567 c -0.242,-0.244 -0.58,-0.381 -0.919,-0.367 -0.345,0.01 -0.669,0.161 -0.897,0.418 l -1.124,1.261 c -0.884,-0.475 -1.81,-0.859 -2.769,-1.147 l 0.095,-1.687 c 0.02,-0.344 -0.103,-0.68 -0.34,-0.93 -0.235,-0.25 -0.564,-0.391 -0.907,-0.391 h -6.459 c -0.345,0 -0.673,0.141 -0.909,0.391 -0.236,0.25 -0.359,0.586 -0.339,0.93 l 0.095,1.684 c -0.96,0.289 -1.886,0.673 -2.77,1.146 l -1.121,-1.257 c -0.23,-0.256 -0.554,-0.408 -0.897,-0.418 -0.351,-0.013 -0.675,0.122 -0.919,0.367 l -4.569,4.567 c -0.242,0.242 -0.376,0.575 -0.366,0.919 0.01,0.344 0.161,0.669 0.417,0.897 l 1.259,1.123 c -0.476,0.885 -0.86,1.811 -1.15,2.77 l -1.681,-0.096 c -0.346,-0.015 -0.68,0.104 -0.929,0.338 -0.25,0.236 -0.391,0.566 -0.391,0.91 v 6.458 c 0,0.344 0.141,0.674 0.391,0.91 0.249,0.236 0.584,0.355 0.929,0.339 l 1.675,-0.097 c 0.289,0.963 0.673,1.893 1.149,2.778 l -1.252,1.116 c -0.256,0.229 -0.408,0.554 -0.417,0.896 -0.01,0.344 0.124,0.676 0.366,0.92 l 4.569,4.568 c 0.242,0.244 0.597,0.385 0.919,0.365 0.344,-0.01 0.669,-0.161 0.897,-0.418 l 1.115,-1.25 c 0.886,0.476 1.815,0.861 2.776,1.152 l -0.095,1.671 c -0.02,0.344 0.103,0.68 0.339,0.93 0.236,0.25 0.564,0.391 0.909,0.391 h 6.459 c 0.344,0 0.673,-0.141 0.907,-0.391 0.237,-0.25 0.36,-0.586 0.34,-0.93 l -0.095,-1.669 c 0.964,-0.29 1.893,-0.676 2.779,-1.151 l 1.114,1.247 c 0.229,0.258 0.552,0.408 0.897,0.418 0.343,0.024 0.676,-0.121 0.919,-0.365 l 4.567,-4.568 c 0.244,-0.244 0.376,-0.576 0.367,-0.92 -0.009,-0.344 -0.161,-0.667 -0.418,-0.896 l -1.254,-1.119 c 0.475,-0.885 0.86,-1.814 1.149,-2.775 l 1.678,0.096 c 0.341,0.015 0.68,-0.104 0.928,-0.338 0.251,-0.236 0.393,-0.566 0.393,-0.91 v -6.458 c 0,-0.344 -0.141,-0.674 -0.393,-0.91 -0.249,-0.235 -0.586,-0.352 -0.928,-0.339 z m 16.306,-9.48 c -1.249,0.757 -2.885,0.359 -3.643,-0.892 -0.757,-1.251 -0.357,-2.885 0.894,-3.643 0.429,-0.26 0.901,-0.384 1.37,-0.383 0.896,0 1.775,0.455 2.273,1.276 h 10e-4 c 0.756,1.251 0.356,2.886 -0.895,3.642 z m 3.032,-4.938 c -1.474,-2.427 -4.646,-3.209 -7.077,-1.735 -2.43,1.472 -3.209,4.646 -1.736,7.076 0.969,1.598 2.671,2.481 4.415,2.481 0.91,0 1.83,-0.24 2.662,-0.745 2.43,-1.472 3.209,-4.647 1.736,-7.076 z m 4.333,7.391 -2.97,-0.431 c -0.341,-0.049 -0.689,0.045 -0.959,0.26 l -1.42,1.132 c -0.276,0.22 -0.446,0.546 -0.469,0.899 l -0.188,3.011 -4.499,0.239 -0.516,-3.004 c -0.059,-0.343 -0.259,-0.646 -0.55,-0.836 l -1.483,-0.963 c -0.205,-0.131 -0.441,-0.201 -0.681,-0.201 -0.104,0 -0.209,0.014 -0.311,0.04 l -2.947,0.758 -1.618,-4.204 2.673,-1.406 c 0.311,-0.164 0.539,-0.451 0.628,-0.793 l 0.456,-1.757 c 0.086,-0.335 0.031,-0.691 -0.155,-0.984 l -1.607,-2.531 3.498,-2.839 2.169,2.114 c 0.249,0.241 0.596,0.367 0.933,0.353 l 1.781,-0.086 c 0.351,-0.018 0.68,-0.181 0.902,-0.452 l 1.935,-2.342 3.783,2.45 -1.345,2.728 c -0.155,0.315 -0.17,0.68 -0.044,1.006 l 0.65,1.665 c 0.125,0.324 0.383,0.581 0.704,0.709 l 2.812,1.112 z m 3.119,-6.266 -3.342,-1.323 -0.251,-0.645 1.591,-3.231 c 0.281,-0.569 0.091,-1.256 -0.44,-1.601 l -5.648,-3.659 c -0.537,-0.346 -1.24,-0.235 -1.643,0.252 l -2.292,2.773 -0.687,0.034 -2.577,-2.512 c -0.454,-0.443 -1.166,-0.474 -1.66,-0.075 l -5.225,4.242 c -0.494,0.4 -0.609,1.105 -0.268,1.641 l 1.913,3.011 -0.181,0.698 -3.169,1.665 c -0.56,0.296 -0.811,0.964 -0.584,1.556 l 2.418,6.281 c 0.23,0.591 0.862,0.921 1.478,0.761 l 3.494,-0.898 0.563,0.365 0.611,3.561 c 0.104,0.603 0.626,1.037 1.23,1.037 0.024,0 0.046,0 0.067,-10e-4 l 6.72,-0.357 c 0.634,-0.034 1.141,-0.537 1.182,-1.17 l 0.225,-3.569 0.562,-0.449 3.534,0.514 c 0.62,0.09 1.224,-0.302 1.387,-0.915 l 1.738,-6.501 c 0.165,-0.614 -0.156,-1.252 -0.746,-1.485 z"/></g></svg>