<svg xmlns="http://www.w3.org/2000/svg" viewBox="0 0 100 100"><defs/><defs><linearGradient id="a" x1="0" x2="1" y1="1" y2="0"><stop offset="0%" stop-color="#BD0816"/><stop offset="100%" stop-color="#FF5252"/></linearGradient></defs><g><path fill="url(#a)" fill-rule="evenodd" d="m 0,0 h 100 v 100 h -100 z"/><path fill="#fff" fill-rule="evenodd" d="m 55.213,51.556 c 0,0.215 -0.06,4.799 -3.75,5.658 v -13.731 l 3.75,1.625 z m -10,-0.02 v -6.428 l 3.75,-1.625 v 13.735 c -3.594,-0.825 -3.746,-5.144 -3.75,-5.682 z m 11.746,-8.396 -6.25,-2.709 c -0.316,-0.138 -0.676,-0.138 -0.993,0 l -6.25,2.709 c -0.459,0.198 -0.754,0.649 -0.753,1.148 v 7.248 c 0,2.881 1.567,8.329 7.5,8.329 5.933,0 7.5,-5.435 7.5,-8.309 v -7.269 c 0,-0.499 -0.295,-0.95 -0.754,-1.147 z m 16.779,24.578 c -2.221,0 -4.027,-1.806 -4.028,-4.028 0,-2.221 1.806,-4.029 4.028,-4.029 2.223,0 4.029,1.807 4.028,4.029 0,2.221 -1.806,4.027 -4.028,4.028 z m -23.404,-5.278 c -6.909,0 -12.529,-5.62 -12.529,-12.527 0,-6.909 5.62,-12.529 12.529,-12.529 6.907,0 12.527,5.62 12.527,12.528 0,6.907 -5.62,12.527 -12.527,12.528 z m 4.051,14.821 c 0,2.221 -1.806,4.029 -4.029,4.029 -2.221,0 -4.027,-1.807 -4.027,-4.029 0,-2.22 1.806,-4.027 4.027,-4.027 2.223,0 4.029,1.807 4.029,4.027 z m -7.979,-55.733 c 0,-2.221 1.806,-4.027 4.029,-4.028 2.22,0 4.026,1.806 4.026,4.027 0,2.221 -1.806,4.029 -4.026,4.029 -2.223,0 -4.029,-1.807 -4.029,-4.029 z m -19.877,44.667 c -2.223,0 -4.029,-1.806 -4.029,-4.027 0,-2.221 1.806,-4.027 4.029,-4.028 2.22,0 4.026,1.806 4.026,4.027 0,2.221 -1.806,4.027 -4.026,4.028 z m 1.371,-26.357 c -2.221,0 -4.027,-1.806 -4.027,-4.028 0,-2.221 1.806,-4.029 4.027,-4.029 2.221,0 4.027,1.807 4.028,4.029 0,2.221 -1.806,4.027 -4.028,4.028 z m 45.996,-9.047 c 2.223,0 4.029,1.806 4.029,4.028 0,2.221 -1.806,4.029 -4.029,4.029 -2.22,0 -4.026,-1.807 -4.026,-4.029 0,-2.221 1.806,-4.027 4.026,-4.028 z m -0.159,26.37 c -1.806,0 -3.444,0.74 -4.626,1.93 l -4.957,-3.285 c 0.775,-1.811 1.208,-3.802 1.207,-5.893 0,-2.736 -0.747,-5.295 -2.029,-7.507 l 5.673,-3.311 c 1.198,1.369 2.935,2.252 4.891,2.253 3.6,0 6.529,-2.929 6.529,-6.529 0,-3.6 -2.929,-6.528 -6.529,-6.528 -3.599,0 -6.526,2.928 -6.526,6.528 0,0.744 0.151,1.447 0.381,2.114 l -5.841,3.408 c -2.507,-3.029 -6.182,-5.05 -10.326,-5.393 v -7.008 c 3.05,-0.546 5.377,-3.206 5.377,-6.412 0,-3.599 -2.928,-6.528 -6.526,-6.528 -3.6,0 -6.529,2.929 -6.529,6.527 0,3.136 2.224,5.759 5.178,6.384 v 7.036 c -4.438,0.367 -8.324,2.671 -10.829,6.062 l -4.298,-2.802 c 0.295,-0.744 0.47,-1.549 0.47,-2.397 0,-3.6 -2.929,-6.529 -6.527,-6.529 -3.599,0 -6.528,2.929 -6.528,6.529 0,3.6 2.929,6.528 6.528,6.527 1.853,0 3.518,-0.782 4.706,-2.026 l 4.333,2.825 c -1.036,2.039 -1.634,4.336 -1.634,6.776 0,1.857 0.355,3.63 0.975,5.275 l -4.826,2.745 c -1.198,-1.391 -2.95,-2.292 -4.925,-2.292 -3.6,0 -6.529,2.928 -6.529,6.527 0,3.6 2.929,6.528 6.529,6.528 3.599,0 6.526,-2.928 6.526,-6.528 0,-0.725 -0.146,-1.41 -0.365,-2.062 l 4.665,-2.654 c 2.411,4.136 6.732,7.019 11.751,7.426 v 5.983 c -3.003,0.585 -5.278,3.23 -5.277,6.401 0,3.6 2.928,6.529 6.527,6.529 3.6,0 6.529,-2.929 6.529,-6.529 0,-3.171 -2.275,-5.816 -5.279,-6.401 v -5.985 c 4.769,-0.403 8.901,-3.036 11.361,-6.856 l 4.752,3.148 c -0.328,0.776 -0.509,1.629 -0.509,2.523 0,3.599 2.928,6.528 6.527,6.527 3.6,0 6.529,-2.929 6.529,-6.527 0,-3.6 -2.929,-6.529 -6.529,-6.529 z"/></g></svg>