<svg xmlns="http://www.w3.org/2000/svg" viewBox="0 0 100 100"><defs/><defs><linearGradient id="a" x1="0" x2="1" y1="1" y2="0"><stop offset="0%" stop-color="#B0084D"/><stop offset="100%" stop-color="#FF4F8B"/></linearGradient></defs><g><path fill="url(#a)" fill-rule="evenodd" d="m 0,0 h 100 v 100 h -100 z"/><path fill="#fff" fill-rule="evenodd" d="m 46.496,73.563 -1.773,1.773 -3.546,-3.547 1.773,-1.773 z m -17.734,-17.733 3.548,3.547 -1.774,1.773 -3.547,-3.547 z m 7.094,7.093 3.546,3.547 -1.773,1.773 -3.546,-3.546 z m 30.701,-23.498 -3.556,-3.536 1.768,-1.778 3.556,3.536 z m 7.114,7.073 -3.556,-3.536 1.768,-1.778 3.556,3.536 z m -17.783,-17.684 1.768,-1.777 3.556,3.537 -1.768,1.778 z m 16.652,27.064 1.768,1.776 -3.556,3.538 -1.768,-1.778 z m -7.114,7.073 1.768,1.778 -3.556,3.536 -1.768,-1.778 z m -7.113,7.073 1.768,1.778 -3.556,3.537 -1.768,-1.779 z m -30.626,-23.528 -1.773,-1.773 3.546,-3.548 1.773,1.773 z m 14.186,-14.186 -1.773,-1.773 3.548,-3.547 1.773,1.773 z m -7.093,7.092 -1.773,-1.773 3.546,-3.546 1.774,1.773 z m 11.212,6.59 c 0.957,-0.957 2.14,-1.556 3.379,-1.796 v 5.175 h -5.175 c 0.239,-1.239 0.838,-2.421 1.796,-3.379 z m 9.266,0 c 0.958,0.958 1.556,2.14 1.796,3.379 h -5.175 v -5.175 c 1.239,0.239 2.423,0.839 3.379,1.796 z m 0,9.266 c -0.957,0.958 -2.14,1.556 -3.379,1.796 v -5.175 h 5.175 c -0.239,1.239 -0.838,2.421 -1.796,3.379 z m -9.266,0 c -0.958,-0.958 -1.556,-2.14 -1.796,-3.379 h 5.175 v 5.175 c -1.239,-0.239 -2.423,-0.838 -3.379,-1.796 z m -7.02,-0.504 -2.875,-2.875 h 5.569 c 0.262,1.886 1.106,3.705 2.553,5.152 1.447,1.447 3.266,2.291 5.152,2.553 v 5.569 l -2.875,-2.875 -1.773,1.773 5.902,5.902 5.902,-5.902 -1.773,-1.773 -2.875,2.875 v -5.569 c 1.886,-0.262 3.707,-1.106 5.152,-2.553 1.447,-1.447 2.291,-3.266 2.553,-5.152 h 5.569 l -2.875,2.875 1.773,1.773 5.902,-5.902 -5.902,-5.902 -1.773,1.773 2.875,2.875 h -5.569 c -0.262,-1.886 -1.106,-3.705 -2.553,-5.152 -1.447,-1.447 -3.266,-2.291 -5.152,-2.552 v -5.57 l 2.875,2.875 1.773,-1.773 -5.902,-5.902 -5.902,5.902 1.773,1.773 2.875,-2.875 v 5.57 c -1.886,0.261 -3.705,1.105 -5.152,2.552 -1.447,1.447 -2.291,3.266 -2.553,5.152 h -5.569 l 2.875,-2.875 -1.773,-1.773 -5.902,5.902 5.902,5.902 z m 11.653,26.7 -1.989,-1.989 1.989,-1.989 1.989,1.989 z m -5.535,-1.989 5.535,5.535 5.535,-5.535 -5.535,-5.535 z m -25.294,-28.84 1.989,-1.989 1.989,1.989 -1.989,1.989 z m 1.989,-5.535 -5.535,5.535 5.535,5.535 5.535,-5.535 z m 55.691,5.535 1.989,-1.989 1.989,1.989 -1.989,1.989 z m 1.989,-5.535 -5.535,5.535 5.535,5.535 5.535,-5.535 z m -28.84,-25.294 1.989,1.989 -1.989,1.989 -1.989,-1.989 z m 5.535,1.989 -5.535,-5.535 -5.535,5.535 5.535,5.535 z"/></g></svg>