<svg xmlns="http://www.w3.org/2000/svg" viewBox="0 0 100 100"><defs/><defs><linearGradient id="a" x1="0" x2="1" y1="1" y2="0"><stop offset="0%" stop-color="#B0084D"/><stop offset="100%" stop-color="#FF4F8B"/></linearGradient></defs><g><path fill="url(#a)" fill-rule="evenodd" d="m 0,0 h 100 v 100 h -100 z"/><path fill="#fff" fill-rule="evenodd" d="m 63.589,46.707 c 0,5.859 -4.766,10.625 -10.625,10.625 -5.859,0 -10.625,-4.766 -10.625,-10.625 0,-5.859 4.766,-10.625 10.625,-10.625 5.859,0 10.625,4.766 10.625,10.625 z m 2.5,0 c 0,-7.237 -5.888,-13.125 -13.125,-13.125 -7.237,0 -13.125,5.888 -13.125,13.125 0,7.237 5.888,13.125 13.125,13.125 7.237,0 13.125,-5.888 13.125,-13.125 z m -6.201,31.315 c 0.237,-0.25 0.359,-0.586 0.34,-0.93 l -0.229,-4.001 c 2.309,-0.617 4.515,-1.531 6.582,-2.727 l 2.669,2.992 c 0.229,0.256 0.554,0.408 0.898,0.418 0.345,0.029 0.676,-0.122 0.918,-0.367 l 8.562,-8.56 c 0.242,-0.244 0.376,-0.576 0.366,-0.92 -0.01,-0.344 -0.161,-0.667 -0.418,-0.896 l -3.002,-2.677 c 1.194,-2.065 2.106,-4.269 2.722,-6.575 l 4.015,0.23 c 0.356,0.02 0.68,-0.104 0.93,-0.339 0.251,-0.236 0.393,-0.565 0.393,-0.909 v -12.106 c 0,-0.344 -0.141,-0.673 -0.393,-0.909 -0.249,-0.236 -0.59,-0.359 -0.928,-0.34 l -4.02,0.229 c -0.616,-2.301 -1.529,-4.502 -2.724,-6.569 l 3.007,-2.682 c 0.256,-0.229 0.408,-0.552 0.418,-0.898 0.01,-0.344 -0.124,-0.676 -0.366,-0.919 l -8.562,-8.56 c -0.242,-0.245 -0.576,-0.388 -0.918,-0.366 -0.344,0.01 -0.667,0.161 -0.898,0.418 l -2.691,3.016 c -2.063,-1.194 -4.261,-2.105 -6.56,-2.72 l 0.229,-4.034 c 0.019,-0.343 -0.103,-0.68 -0.34,-0.929 -0.235,-0.25 -0.564,-0.393 -0.909,-0.392 h -12.105 c -0.344,0 -0.673,0.143 -0.909,0.392 -0.236,0.249 -0.359,0.586 -0.339,0.929 l 0.228,4.031 c -2.299,0.614 -4.499,1.525 -6.564,2.718 l -2.687,-3.011 c -0.229,-0.256 -0.552,-0.408 -0.898,-0.418 -0.336,-0.019 -0.676,0.122 -0.919,0.366 l -8.561,8.56 c -0.242,0.242 -0.375,0.575 -0.366,0.919 0.01,0.344 0.161,0.669 0.417,0.898 l 3.015,2.688 c -1.196,2.064 -2.11,4.264 -2.727,6.563 l -4.024,-0.229 c -0.341,-0.02 -0.68,0.104 -0.929,0.34 -0.25,0.236 -0.393,0.565 -0.392,0.909 v 12.106 c 0,0.344 0.143,0.673 0.392,0.909 0.25,0.236 0.59,0.366 0.932,0.339 l 4.938,-0.289 -0.146,-2.496 -3.616,0.212 v -9.459 l 3.739,0.213 c 0.61,0.03 1.154,-0.376 1.29,-0.971 0.623,-2.74 1.7,-5.339 3.206,-7.72 0.326,-0.516 0.231,-1.194 -0.224,-1.602 l -2.801,-2.498 6.69,-6.689 2.496,2.799 c 0.406,0.455 1.084,0.549 1.599,0.223 2.384,-1.501 4.981,-2.576 7.722,-3.195 0.597,-0.135 1.009,-0.681 0.973,-1.291 l -0.211,-3.746 h 9.458 l -0.212,3.749 c -0.035,0.61 0.376,1.156 0.971,1.291 2.741,0.619 5.337,1.695 7.718,3.199 0.514,0.323 1.192,0.231 1.6,-0.225 l 2.501,-2.804 6.69,6.689 -2.794,2.492 c -0.456,0.408 -0.551,1.084 -0.225,1.6 1.505,2.384 2.582,4.984 3.203,7.726 0.136,0.596 0.689,1.002 1.291,0.973 l 3.735,-0.213 v 9.46 l -3.73,-0.213 c -0.607,-0.031 -1.156,0.376 -1.293,0.972 -0.621,2.749 -1.698,5.35 -3.201,7.731 -0.326,0.516 -0.231,1.194 0.225,1.6 l 2.789,2.488 -6.689,6.69 -2.48,-2.78 c -0.408,-0.459 -1.085,-0.551 -1.6,-0.225 -2.384,1.506 -4.988,2.585 -7.74,3.206 -0.595,0.135 -1.006,0.681 -0.971,1.291 l 0.212,3.717 h -9.417 l 0.17,-1.933 -2.49,-0.22 -0.29,3.293 c -0.031,0.35 0.086,0.695 0.324,0.955 0.236,0.259 0.571,0.405 0.921,0.405 h 12.105 c 0.345,0 0.674,-0.141 0.909,-0.392 z m -13.512,-9.83 -1.718,-1.815 -15.639,14.818 1.719,1.815 z m -14.818,-9.875 -1.714,-1.82 -13.994,13.172 1.714,1.82 z m -14.79,26.315 -1.768,-1.767 24.695,-24.695 1.768,1.767 z"/></g></svg>