<svg xmlns="http://www.w3.org/2000/svg" viewBox="0 0 100 100"><defs/><defs><linearGradient id="a" x1="0" x2="1" y1="1" y2="0"><stop offset="0%" stop-color="#4D27A8"/><stop offset="100%" stop-color="#A166FF"/></linearGradient></defs><g><path fill="url(#a)" fill-rule="evenodd" d="m 0,0 h 100 v 100 h -100 z"/><path fill="#fff" fill-rule="evenodd" d="m 47.5,63.75 h -2.5 v -2.5 h 2.5 v -2.5 h 2.5 v 2.5 h 2.5 v 2.5 h -2.5 v 2.5 h -2.5 z m 25,-1.25 c 0,-1.38 1.119,-2.5 2.5,-2.5 1.38,0 2.5,1.12 2.5,2.5 0,1.38 -1.12,2.5 -2.5,2.5 -1.381,0 -2.5,-1.12 -2.5,-2.5 z m 8.975,19.206 c -0.522,0.534 -1.242,0.794 -2.199,0.794 -2.724,0 -4.681,-5.109 -6.254,-9.214 -0.141,-0.37 -0.281,-0.732 -0.418,-1.088 0.769,0.19 1.569,0.302 2.395,0.302 2.988,0 5.665,-1.324 7.5,-3.407 v 9.658 c 0.001,0.019 0.029,1.879 -1.024,2.955 z m -37.001,0.794 c -0.956,0 -1.676,-0.26 -2.199,-0.794 -1.052,-1.076 -1.025,-2.936 -1.024,-2.987 v -9.625 c 1.834,2.083 4.511,3.406 7.499,3.406 0.828,0 1.627,-0.112 2.397,-0.302 -0.139,0.356 -0.279,0.719 -0.42,1.088 -1.573,4.105 -3.53,9.214 -6.253,9.214 z m 9.85,-25 c 1.194,1.329 1.926,3.078 1.926,5 0,4.136 -3.364,7.5 -7.5,7.5 -4.136,0 -7.5,-3.364 -7.5,-7.5 0,-4.136 3.364,-7.5 7.5,-7.5 1.921,0 3.673,0.732 5,1.926 z m 12.028,0 c -0.856,1.472 -1.354,3.177 -1.353,5 0,2.365 0.829,4.536 2.206,6.25 h -10.661 c 1.378,-1.714 2.206,-3.885 2.206,-6.25 0,-1.823 -0.498,-3.527 -1.353,-5 z m 8.647,-2.5 c 4.136,0 7.5,3.364 7.5,7.5 0,4.136 -3.364,7.5 -7.5,7.5 -4.136,0 -7.5,-3.364 -7.5,-7.5 0,-4.136 3.364,-7.5 7.5,-7.5 z m 10,23.719 -0.005,-14.969 c 0,-0.089 0.018,-0.36 0,-0.443 0.026,-0.325 0,-0.47 0,-0.807 0,-5.514 -4.481,-10 -9.995,-10 -2.525,0 -4.83,0.949 -6.592,2.5 h -13.066 c -1.761,-1.551 -4.065,-2.5 -6.591,-2.5 -5.514,0 -9.985,4.486 -9.985,10 0,0.571 -0.027,0.976 0,1.547 -0.014,0.208 0,0.484 0,0.692 l -0.013,13.94 c -0.005,0.119 -0.071,2.911 1.719,4.758 1.006,1.037 2.353,1.563 4.003,1.563 4.442,0 6.646,-5.747 8.588,-10.819 0.403,-1.052 0.789,-2.059 1.167,-2.931 h 15.292 c 0.378,0.872 0.764,1.879 1.166,2.931 1.943,5.071 4.146,10.819 8.589,10.819 1.65,0 2.996,-0.525 4.003,-1.563 1.79,-1.847 1.724,-4.64 1.72,-4.718 z m -62.248,-19.283 c -3.046,-4.069 -4.931,-9.036 -5.187,-14.436 h 11.202 c 0.088,4.126 0.609,8.001 1.48,11.469 -2.78,0.761 -5.311,1.757 -7.495,2.967 z m 0,-31.371 c 2.185,1.21 4.715,2.208 7.495,2.969 -0.872,3.468 -1.393,7.341 -1.48,11.466 h -11.202 c 0.256,-5.4 2.141,-10.367 5.187,-14.435 z m 13.663,-9.501 c -2.264,2.384 -4.152,5.854 -5.489,10.07 -2.417,-0.66 -4.63,-1.505 -6.555,-2.527 3.209,-3.524 7.349,-6.174 12.044,-7.543 z m 7.336,-1.064 c 4.242,0 8.071,4.714 10.341,11.729 -3.226,0.674 -6.721,1.049 -10.341,1.048 -3.626,0 -7.119,-0.375 -10.343,-1.047 2.271,-7.016 6.099,-11.73 10.343,-11.73 z m 19.377,8.604 c -1.925,1.021 -4.135,1.867 -6.552,2.528 -1.338,-4.216 -3.225,-7.685 -5.489,-10.068 4.692,1.369 8.831,4.019 12.041,7.54 z m 1.62,1.96 c 3.048,4.069 4.933,9.036 5.189,14.436 h -11.202 c -0.088,-4.126 -0.609,-8.001 -1.48,-11.469 2.781,-0.761 5.311,-1.757 7.493,-2.967 z m -33.466,14.436 c 0.092,-3.88 0.596,-7.57 1.439,-10.866 3.447,0.735 7.173,1.144 11.03,1.143 3.851,0 7.58,-0.409 11.03,-1.143 0.841,3.295 1.346,6.986 1.439,10.866 z m -10.334,-16.231 c -3.726,4.848 -5.947,10.909 -5.947,17.481 0,13.258 9.024,24.444 21.25,27.751 v -2.619 c -4.624,-1.383 -8.706,-4.008 -11.878,-7.486 1.925,-1.021 4.135,-1.867 6.553,-2.529 1.304,4.112 3.136,7.506 5.325,9.883 v -4.181 c -1.099,-1.766 -2.064,-3.893 -2.843,-6.298 0.925,-0.194 1.877,-0.354 2.843,-0.496 v -2.515 c -1.201,0.17 -2.385,0.364 -3.53,0.607 -0.841,-3.296 -1.346,-6.987 -1.439,-10.867 h 24.938 c -0.041,1.713 -0.174,3.379 -0.369,5 h 2.539 c 0.18,-1.62 0.309,-3.281 0.345,-5 h 11.202 c -0.081,1.718 -0.344,3.385 -0.741,5 h 2.612 c 0.449,-2.014 0.693,-4.104 0.693,-6.25 0,-6.785 -2.369,-13.024 -6.314,-17.948 -0.005,-0.006 -0.005,-0.015 -0.009,-0.021 -0.015,-0.026 -0.04,-0.039 -0.057,-0.062 -5.274,-6.531 -13.34,-10.719 -22.37,-10.719 -8.734,0 -16.566,3.92 -21.844,10.087 z"/></g></svg>