<svg xmlns="http://www.w3.org/2000/svg" viewBox="0 0 100 100"><defs/><defs><linearGradient id="a" x1="0" x2="1" y1="1" y2="0"><stop offset="0%" stop-color="#2E27AD"/><stop offset="100%" stop-color="#527FFF"/></linearGradient></defs><g><path fill="url(#a)" fill-rule="evenodd" d="m 0,0 h 100 v 100 h -100 z"/><path fill="#fff" fill-rule="evenodd" d="m 70.625,74.316 c -2.413,0 -4.375,-1.963 -4.375,-4.375 0,-2.413 1.963,-4.375 4.375,-4.375 2.413,0 4.375,1.963 4.375,4.375 0,2.413 -1.963,4.375 -4.375,4.375 z m 0,-11.25 c -3.79,0 -6.875,3.084 -6.875,6.875 0,3.791 3.085,6.875 6.875,6.875 3.79,0 6.875,-3.084 6.875,-6.875 0,-3.791 -3.085,-6.875 -6.875,-6.875 z m 12.795,8.174 -1.041,-0.06 c -0.59,-0.035 -1.155,0.376 -1.29,0.972 -0.274,1.209 -0.749,2.355 -1.411,3.407 -0.326,0.516 -0.23,1.192 0.225,1.598 l 0.777,0.695 -2.13,2.13 -0.69,-0.773 c -0.409,-0.459 -1.085,-0.55 -1.6,-0.225 -1.051,0.664 -2.197,1.139 -3.409,1.412 -0.596,0.135 -1.008,0.681 -0.972,1.291 l 0.059,1.034 h -3.012 l 0.059,-1.035 c 0.035,-0.611 -0.376,-1.156 -0.972,-1.291 -1.209,-0.274 -2.355,-0.749 -3.407,-1.414 -0.517,-0.325 -1.195,-0.234 -1.601,0.225 l -0.691,0.776 -2.131,-2.13 0.776,-0.692 c 0.455,-0.406 0.55,-1.083 0.224,-1.6 -0.663,-1.05 -1.136,-2.196 -1.41,-3.406 -0.134,-0.597 -0.735,-1.009 -1.29,-0.974 l -1.039,0.06 v -3.014 l 1.044,0.06 c 0.581,0.019 1.155,-0.375 1.29,-0.971 0.275,-1.209 0.75,-2.353 1.412,-3.401 0.326,-0.516 0.231,-1.194 -0.225,-1.602 l -0.782,-0.698 2.131,-2.13 0.697,0.782 c 0.408,0.456 1.084,0.55 1.599,0.224 1.05,-0.661 2.194,-1.135 3.403,-1.408 0.596,-0.135 1.008,-0.68 0.972,-1.29 l -0.059,-1.047 h 3.013 l -0.06,1.049 c -0.035,0.61 0.376,1.156 0.971,1.29 1.206,0.273 2.35,0.746 3.401,1.408 0.512,0.325 1.192,0.232 1.599,-0.225 l 0.7,-0.783 2.131,2.13 -0.781,0.697 c -0.455,0.406 -0.551,1.084 -0.224,1.6 0.663,1.047 1.136,2.192 1.41,3.401 0.135,0.597 0.703,0.993 1.29,0.974 l 1.044,-0.06 z m 2.109,-5.246 c -0.249,-0.235 -0.594,-0.36 -0.929,-0.339 l -1.35,0.077 c -0.241,-0.772 -0.551,-1.519 -0.927,-2.233 l 1.01,-0.9 c 0.256,-0.229 0.408,-0.554 0.417,-0.898 0.01,-0.344 -0.124,-0.676 -0.366,-0.919 l -4.001,-4.002 c -0.244,-0.244 -0.568,-0.386 -0.919,-0.365 -0.345,0.01 -0.67,0.16 -0.898,0.417 l -0.905,1.014 c -0.715,-0.376 -1.46,-0.685 -2.228,-0.925 l 0.076,-1.355 c 0.02,-0.344 -0.103,-0.68 -0.339,-0.93 -0.236,-0.25 -0.564,-0.391 -0.909,-0.391 h -5.658 c -0.344,0 -0.673,0.141 -0.909,0.391 -0.236,0.25 -0.359,0.586 -0.339,0.93 l 0.078,1.354 c -0.772,0.24 -1.516,0.547 -2.233,0.924 l -0.902,-1.013 c -0.23,-0.256 -0.555,-0.406 -0.898,-0.416 -0.321,-0.018 -0.676,0.121 -0.919,0.365 l -4.002,4.002 c -0.242,0.242 -0.375,0.575 -0.366,0.919 0.01,0.344 0.161,0.669 0.417,0.898 l 1.013,0.902 c -0.376,0.715 -0.685,1.46 -0.927,2.231 l -1.351,-0.077 c -0.349,-0.022 -0.681,0.104 -0.929,0.339 -0.251,0.236 -0.393,0.565 -0.392,0.908 v 5.66 c 0,0.344 0.141,0.673 0.392,0.909 0.247,0.236 0.581,0.356 0.929,0.34 l 1.345,-0.077 c 0.24,0.772 0.549,1.52 0.926,2.237 l -1.006,0.896 c -0.256,0.229 -0.408,0.554 -0.417,0.898 -0.009,0.344 0.124,0.676 0.366,0.919 l 4.002,4.001 c 0.242,0.244 0.594,0.379 0.919,0.366 0.344,-0.01 0.667,-0.161 0.898,-0.417 l 0.896,-1.005 c 0.717,0.378 1.465,0.688 2.237,0.927 l -0.076,1.344 c -0.02,0.343 0.103,0.679 0.339,0.929 0.236,0.25 0.565,0.393 0.909,0.392 h 5.658 c 0.345,0 0.673,-0.143 0.91,-0.392 0.235,-0.25 0.357,-0.586 0.338,-0.93 l -0.076,-1.34 c 0.774,-0.241 1.522,-0.551 2.238,-0.928 l 0.895,1.003 c 0.227,0.256 0.552,0.408 0.898,0.417 0.355,0.015 0.676,-0.122 0.919,-0.366 l 4.001,-4.001 c 0.242,-0.242 0.376,-0.575 0.366,-0.919 -0.01,-0.344 -0.161,-0.669 -0.417,-0.898 l -1.008,-0.898 c 0.376,-0.716 0.686,-1.464 0.926,-2.235 l 1.349,0.077 c 0.334,0.015 0.68,-0.104 0.929,-0.34 0.25,-0.236 0.391,-0.565 0.391,-0.909 v -5.66 c 0,-0.344 -0.141,-0.673 -0.391,-0.908 z m -47.892,-24.803 c 0,-5.17 4.206,-9.375 9.376,-9.375 5.17,0 9.375,4.205 9.375,9.375 0,5.17 -4.205,9.375 -9.375,9.375 -5.169,0 -9.375,-4.205 -9.375,-9.375 z m 8.642,40.511 -14.758,-7.966 0.384,0.005 c 0.151,-11.58 6.982,-20.651 15.555,-20.651 3.216,0 6.308,1.358 8.94,3.925 l 1.746,-1.79 c -1.67,-1.629 -3.513,-2.83 -5.458,-3.606 3.693,-2.016 6.2,-5.934 6.2,-10.428 0,-6.548 -5.326,-11.875 -11.875,-11.875 -6.548,0 -11.875,5.327 -11.875,11.875 0,4.64 2.683,8.656 6.57,10.609 -6.841,2.934 -11.784,10.982 -12.248,20.824 l -11.96,-6.458 v -33.132 l 29.5,-15.205 28,15.186 v 18.67 h 2.5 v -20.158 l -30.471,-16.527 -32.029,16.51 v 36.149 l 31.221,16.852 6.825,-3.319 -1.093,-2.247 z"/></g></svg>