<svg xmlns="http://www.w3.org/2000/svg" viewBox="0 0 100 100"><defs/><defs><linearGradient id="a" x1="0" x2="1" y1="1" y2="0"><stop offset="0%" stop-color="#C8511B"/><stop offset="100%" stop-color="#F90"/></linearGradient></defs><g><path fill="url(#a)" fill-rule="evenodd" d="m 0,0 h 100 v 100 h -100 z"/><path fill="#fff" fill-rule="evenodd" d="m 73.948,61.987 2.348,-0.858 -2.357,-6.462 c -0.114,-0.311 -0.346,-0.565 -0.646,-0.705 -0.301,-0.14 -0.644,-0.154 -0.957,-0.042 l -6.615,2.414 0.857,2.349 3.663,-1.336 c -1.658,3.266 -3.504,6.294 -5.431,8.861 -0.346,0.467 -0.694,0.909 -1.042,1.336 -4.215,5.209 -8.346,7.782 -10.778,6.72 -0.813,-0.353 -1.462,-1.116 -1.929,-2.269 l -2.316,0.937 c 0.709,1.759 1.835,3.013 3.249,3.625 0.675,0.295 1.398,0.44 2.161,0.44 3.322,0 7.406,-2.751 11.555,-7.878 0.369,-0.455 0.739,-0.924 1.104,-1.415 2.056,-2.736 4.022,-5.966 5.774,-9.447 z m -13.308,-35.505 c 1.873,0.826 2.88,3.846 2.766,8.287 -10e-4,0.048 10e-4,0.095 0.005,0.141 0.005,0.053 0,0.105 -0.001,0.16 l -0.002,0.152 c -0.164,4.344 -1.318,9.589 -3.269,15.012 l -1.386,-3.405 -2.317,0.943 2.593,6.372 c 0.126,0.308 0.367,0.551 0.674,0.681 0.155,0.065 0.32,0.098 0.485,0.098 0.16,0 0.32,-0.03 0.471,-0.093 l 6.521,-2.652 -0.942,-2.316 -3.872,1.576 c 2.115,-5.793 3.361,-11.439 3.54,-16.169 l 0.003,-0.129 c 0.004,-0.125 0.005,-0.246 -0.001,-0.366 0.131,-5.554 -1.381,-9.31 -4.27,-10.585 -1.425,-0.615 -3.836,-0.89 -7.22,1.296 l 1.357,2.1 c 1.354,-0.876 3.297,-1.779 4.865,-1.103 z m -20.64,20.142 h 6.25 v -2.5 h -6.25 z m 0,-5 h 6.25 v -2.5 h -6.25 z m -2.5,20 h 11.25 v -26.25 h -11.25 z m 12.5,-28.75 c 0.691,0 1.25,0.56 1.25,1.25 v 28.75 c 0,0.691 -0.559,1.25 -1.25,1.25 h -13.75 c -0.691,0 -1.25,-0.559 -1.25,-1.25 v -28.75 c 0,-0.69 0.559,-1.25 1.25,-1.25 z m 8.954,33.75 h -30.265 c -6.069,0 -10.866,-4.058 -11.163,-9.435 -0.013,-0.254 -0.026,-0.508 -0.026,-0.775 0,-7.201 5.214,-9.563 8.32,-10.33 0.615,-0.151 1.019,-0.737 0.941,-1.365 -0.076,-0.622 -0.115,-1.266 -0.115,-1.915 0,-5.74 4.112,-11.919 9.364,-14.065 9.101,-3.731 15.569,1.166 17.925,3.445 1.883,1.834 3.413,4.264 4.423,7.028 0.158,0.429 0.536,0.739 0.986,0.806 0.459,0.07 0.906,-0.114 1.182,-0.478 0.511,-0.67 1.114,-1.202 1.793,-1.582 l -1.22,-2.181 c -0.4,0.223 -0.779,0.481 -1.138,0.772 -1.097,-2.374 -2.557,-4.478 -4.285,-6.159 -5.645,-5.46 -13.349,-6.941 -20.612,-3.965 -6.225,2.544 -10.918,9.585 -10.918,16.379 0,0.385 0.013,0.769 0.035,1.148 -3.399,1.085 -9.181,4.155 -9.181,12.462 0,0.313 0.014,0.61 0.03,0.91 0.369,6.728 6.241,11.8 13.659,11.8 h 30.265 z m 26.046,-10.112 c 0,11.384 -9.727,12.613 -13.91,12.612 h -1.116 v -2.5 h 1.116 c 5.205,0 11.41,-1.754 11.41,-10.112 0,-7.132 -5.416,-9.712 -9.961,-10.622 -0.555,-0.111 -0.968,-0.584 -1.003,-1.148 -0.199,-3.246 -1.461,-5.685 -3.553,-6.869 l 1.23,-2.176 c 2.631,1.489 4.293,4.288 4.733,7.943 7.138,1.72 11.054,6.262 11.054,12.872 z"/></g></svg>