<svg xmlns="http://www.w3.org/2000/svg" viewBox="0 0 100 100"><defs/><defs><linearGradient id="a" x1="0" x2="1" y1="1" y2="0"><stop offset="0%" stop-color="#BD0816"/><stop offset="100%" stop-color="#FF5252"/></linearGradient></defs><g><path fill="url(#a)" fill-rule="evenodd" d="m 0,0 h 100 v 100 h -100 z"/><path fill="#fff" fill-rule="evenodd" d="m 21.204,44.76 h 16.132 v -2.478 h -16.132 z m 55.515,18.029 1.755,1.752 -9.215,9.201 c -0.243,0.242 -0.561,0.363 -0.877,0.363 -0.318,0 -0.635,-0.121 -0.877,-0.363 l -4.636,-4.628 1.754,-1.752 3.759,3.752 z m 5.711,6.828 c -0.283,2.329 -1.231,4.497 -2.746,6.269 -1.076,1.259 -2.435,2.3 -3.929,3.008 -2.004,0.95 -4.23,1.311 -6.447,1.041 -2.157,-0.263 -4.189,-1.113 -5.884,-2.457 -3.254,-2.583 -4.897,-6.589 -4.396,-10.717 0.473,-3.901 2.837,-7.303 6.322,-9.102 1.67,-0.861 3.499,-1.304 5.362,-1.304 0.478,0 0.959,0.03 1.44,0.088 3.891,0.475 7.285,2.852 9.074,6.36 1.073,2.104 1.489,4.461 1.204,6.814 z m 1.008,-7.937 c -2.165,-4.245 -6.273,-7.122 -10.986,-7.696 -2.85,-0.348 -5.698,0.162 -8.241,1.473 -4.217,2.176 -7.076,6.291 -7.647,11.007 -0.603,4.987 1.384,9.831 5.317,12.954 2.051,1.628 4.516,2.658 7.125,2.977 0.578,0.071 1.157,0.105 1.734,0.105 2.1,0 4.173,-0.463 6.08,-1.368 1.808,-0.857 3.452,-2.116 4.751,-3.638 1.833,-2.144 2.982,-4.764 3.323,-7.579 0.345,-2.844 -0.159,-5.691 -1.456,-8.235 z m -49.825,-9.486 h 4.964 v -2.478 h -4.964 z m -12.409,0 h 9.928 v -2.478 h -9.928 z m -1.072,-32.216 h 55.503 c 1.462,0 2.651,1.446 2.65,3.223 v 9.168 h -3.722 v -6.195 c 0,-0.684 -0.555,-1.239 -1.241,-1.239 h -28.541 c -0.686,0 -1.241,0.555 -1.241,1.239 v 6.195 h -26.058 v -9.168 c 0,-1.747 1.215,-3.223 2.65,-3.223 z m 38.938,12.032 c 2.881,0 5.225,2.317 5.226,5.164 0,1.877 -1.036,3.605 -2.704,4.509 -1.583,0.859 -3.492,0.848 -5.054,10e-4 -1.662,-0.907 -2.693,-2.634 -2.693,-4.51 0,-2.847 2.343,-5.165 5.225,-5.164 z m -41.588,26.875 v -24.038 h 26.058 v 21.065 c 0,0.685 0.555,1.239 1.241,1.239 h 12.973 v -2.478 h -10.364 c 0.108,-4.959 3.405,-9.242 8.152,-10.611 2.194,1.025 4.813,1.035 7.041,-10e-4 2.703,0.781 5.068,2.586 6.533,5.006 l 2.124,-1.284 c -1.504,-2.479 -3.786,-4.415 -6.433,-5.54 1.241,-1.375 1.971,-3.165 1.97,-5.069 0,-4.214 -3.458,-7.643 -7.707,-7.642 -4.25,0 -7.707,3.429 -7.707,7.642 0,1.897 0.722,3.68 1.954,5.056 -3.317,1.395 -5.908,4.011 -7.295,7.236 v -22.053 h 26.059 v 19.825 h 2.482 v -12.391 h 3.722 l 0.002,18.587 h 2.481 l -0.001,-30.233 c 0,-3.144 -2.302,-5.701 -5.132,-5.701 h -55.503 c -2.83,0 -5.132,2.557 -5.132,5.701 v 35.684 c 0,3.144 2.302,5.7 5.132,5.7 h 33.336 v -2.478 h -33.336 c -1.436,0 -2.651,-1.475 -2.65,-3.222 z"/></g></svg>