<svg xmlns="http://www.w3.org/2000/svg" viewBox="0 0 100 100"><defs/><defs><linearGradient id="a" x1="0" x2="1" y1="1" y2="0"><stop offset="0%" stop-color="#C8511B"/><stop offset="100%" stop-color="#F90"/></linearGradient></defs><g><path fill="url(#a)" fill-rule="evenodd" d="m 0,0 h 100 v 100 h -100 z"/><path fill="#fff" fill-rule="evenodd" d="m 53.328,41.811 c 0,-1.512 -1.21,-2.742 -2.697,-2.742 -1.487,0 -2.696,1.23 -2.696,2.742 0,1.512 1.209,2.742 2.696,2.742 1.487,0 2.697,-1.23 2.697,-2.742 z m -0.258,-4.605 17.879,-20.224 1.839,1.68 -17.87,20.215 c 0.556,0.839 0.883,1.848 0.882,2.934 0,2.898 -2.319,5.255 -5.169,5.255 -2.849,0 -5.168,-2.357 -5.168,-5.255 0,-2.898 2.319,-5.255 5.168,-5.255 0.886,0 1.708,0.25 2.439,0.65 z m 2.665,13.055 0.148,0.339 c 0.828,-0.516 1.583,-1.145 2.225,-1.872 -0.691,0.628 -1.496,1.144 -2.373,1.533 z m -5.105,-27.294 c -10.221,0 -18.541,8.457 -18.541,18.849 0,6.396 3.14,12.29 8.419,15.783 l 1.347,-2.111 c -4.573,-3.016 -7.294,-8.13 -7.294,-13.672 0,-9.011 7.206,-16.336 16.069,-16.336 1.843,0 3.635,0.302 5.341,0.917 l 1.766,-1.998 c -2.25,-0.942 -4.646,-1.433 -7.107,-1.432 z m 16.291,9.852 -1.768,1.998 c 1.015,2.187 1.545,4.574 1.545,6.999 0,5.529 -2.719,10.644 -7.292,13.672 l 1.361,2.111 c 5.264,-3.506 8.404,-9.401 8.404,-15.783 0,-3.142 -0.777,-6.233 -2.25,-8.997 z m -21.395,17.435 c -3.314,-1.463 -5.457,-4.783 -5.457,-8.458 0,-1.484 0.337,-2.899 1.001,-4.207 l -2.196,-1.152 c -0.834,1.644 -1.277,3.497 -1.277,5.359 0,4.676 2.727,8.902 6.945,10.764 z m 17.304,-12.811 -1.904,2.149 c 0.187,0.704 0.272,1.445 0.272,2.199 0,2.702 -1.15,5.202 -3.076,6.924 0,0 -0.014,0 -0.014,0.013 -0.691,0.628 -1.496,1.144 -2.373,1.533 l 0.148,0.339 0.841,1.96 c 4.215,-1.86 6.947,-6.082 6.946,-10.769 0,-1.495 -0.283,-2.978 -0.84,-4.348 z m 13.387,3.996 c -0.755,16.135 -23.672,43.228 -24.648,44.371 -0.234,0.276 -0.581,0.44 -0.939,0.44 -0.358,0 -0.705,-0.163 -0.938,-0.44 -0.965,-1.144 -23.893,-28.236 -24.661,-44.371 -0.679,-14.564 9.729,-25.685 24.76,-26.439 h 1.618 c 4.376,0.226 8.357,1.282 11.867,3.142 l -1.732,1.96 c -3.052,-1.533 -6.465,-2.4 -10.185,-2.589 h -1.519 c -13.524,0.679 -22.955,10.694 -22.337,23.8 0.644,13.509 18.764,36.404 23.127,41.733 4.364,-5.328 22.485,-28.224 23.126,-41.733 0.21,-4.599 -0.852,-9.01 -3.064,-12.767 l 1.817,-1.797 c 2.681,4.298 3.968,9.387 3.708,14.69 z"/></g></svg>