<svg xmlns="http://www.w3.org/2000/svg" viewBox="0 0 100 100"><defs/><defs><linearGradient id="a" x1="0" x2="1" y1="1" y2="0"><stop offset="0%" stop-color="#C8511B"/><stop offset="100%" stop-color="#F90"/></linearGradient></defs><g><path fill="url(#a)" fill-rule="evenodd" d="m 0,0 h 100 v 100 h -100 z"/><path fill="#fff" fill-rule="evenodd" d="m 50.599,61.627 c 0.216,0 0.432,-0.055 0.625,-0.168 l 4.377,-2.527 -1.25,-2.165 -3.752,2.166 -3.753,-2.166 -1.25,2.165 4.378,2.527 c 0.193,0.112 0.409,0.168 0.625,0.168 z m 29.973,-29.514 -6.118,-3.533 -1.25,2.165 4.244,2.45 -4.244,2.449 1.25,2.166 4.244,-2.45 v 29.558 l -4.244,-2.45 -1.25,2.166 4.244,2.449 -26.849,15.501 -26.849,-15.501 4.244,-2.449 -1.25,-2.166 -4.244,2.45 v -29.558 l 4.244,2.45 1.25,-2.166 -4.244,-2.449 4.244,-2.45 -1.25,-2.165 -6.119,3.533 c -0.386,0.222 -0.625,0.635 -0.625,1.082 v 33.888 c 0,0.448 0.239,0.86 0.625,1.082 l 29.349,16.945 c 0.193,0.111 0.409,0.168 0.625,0.168 0.216,0 0.432,-0.056 0.625,-0.168 l 29.349,-16.945 c 0.386,-0.222 0.625,-0.635 0.625,-1.082 v -33.888 c 0,-0.448 -0.239,-0.86 -0.625,-1.082 z m -49.437,26.606 19.464,11.238 19.464,-11.238 c -2.139,-1.538 -4.109,-3.116 -5.912,-4.737 l -4.073,2.351 -1.25,-2.164 3.42,-1.976 c -1.596,-1.569 -3.043,-3.179 -4.34,-4.83 l -6.684,3.859 c -0.386,0.224 -0.864,0.224 -1.25,0 l -6.684,-3.859 c -1.3,1.654 -2.748,3.265 -4.346,4.836 l 3.402,1.97 -1.252,2.164 -4.054,-2.345 c -1.801,1.619 -3.769,3.195 -5.905,4.731 z m 13.655,-13.377 5.809,3.353 5.808,-3.353 c -2.734,-3.914 -4.665,-8.057 -5.808,-12.453 -1.144,4.395 -3.075,8.539 -5.809,12.453 z m -17.113,1.34 c 5.442,-4.9 8.439,-11.201 8.439,-17.743 h 2.5 c 0,4.072 1.12,7.985 3.329,11.628 l -2.139,1.296 c -1.029,-1.698 -1.844,-3.45 -2.445,-5.248 -1.304,3.906 -3.599,7.568 -6.774,10.749 l 6.108,3.526 c 8.498,-8.16 12.654,-17.409 12.654,-28.045 0,-0.691 0.559,-1.25 1.25,-1.25 0.691,0 1.25,0.559 1.25,1.25 0,10.636 4.156,19.885 12.653,28.045 l 6.107,-3.526 c -3.175,-3.181 -5.47,-6.843 -6.774,-10.749 -0.6,1.799 -1.416,3.551 -2.445,5.249 l -2.139,-1.296 c 2.209,-3.643 3.329,-7.555 3.329,-11.629 h 2.5 c 0,6.541 2.996,12.842 8.439,17.743 0.297,0.268 0.449,0.661 0.406,1.06 -0.041,0.398 -0.271,0.751 -0.618,0.951 l -6.872,3.969 c 2.008,1.76 4.226,3.468 6.656,5.127 0.355,0.242 0.561,0.65 0.545,1.079 -0.016,0.43 -0.251,0.821 -0.624,1.036 l -21.788,12.579 c -0.193,0.111 -0.409,0.168 -0.625,0.167 -0.216,0 -0.432,-0.056 -0.625,-0.167 l -21.789,-12.579 c -0.372,-0.215 -0.607,-0.606 -0.624,-1.036 -0.016,-0.429 0.19,-0.836 0.545,-1.079 2.427,-1.659 4.645,-3.365 6.65,-5.122 l -6.869,-3.974 c -0.345,-0.2 -0.575,-0.555 -0.616,-0.951 -0.043,-0.399 0.109,-0.792 0.406,-1.06 z m 41.281,-21.275 -6.119,-3.533 -1.25,2.166 6.119,3.532 z m -18.359,-7.713 5.495,3.173 1.25,-2.167 -6.12,-3.532 c -0.386,-0.224 -0.864,-0.224 -1.25,0 l -6.119,3.532 1.25,2.167 z m -17.109,9.878 -1.25,-2.165 6.119,-3.533 1.25,2.166 z"/></g></svg>