<svg xmlns="http://www.w3.org/2000/svg" viewBox="0 0 100 100"><defs/><defs><linearGradient id="a" x1="0" x2="1" y1="1" y2="0"><stop offset="0%" stop-color="#C8511B"/><stop offset="100%" stop-color="#F90"/></linearGradient></defs><g><path fill="url(#a)" fill-rule="evenodd" d="m 0,0 h 100 v 100 h -100 z"/><path fill="#fff" fill-rule="evenodd" d="m 60.963,77.5 h 10 v -10 h -10 z m 12.5,-11.25 v 12.5 c 0,0.69 -0.56,1.25 -1.25,1.25 h -12.5 c -0.691,0 -1.25,-0.56 -1.25,-1.25 v -12.5 c 0,-0.69 0.559,-1.25 1.25,-1.25 h 12.5 c 0.69,0 1.25,0.56 1.25,1.25 z m 6.25,-8.75 h -12.5 c -0.691,0 -1.25,0.56 -1.25,1.25 v 3.75 c 0,0.69 0.559,1.25 1.25,1.25 0.69,0 1.25,-0.56 1.25,-1.25 v -2.5 h 10 v 10 h -1.25 c -0.691,0 -1.25,0.56 -1.25,1.25 0,0.69 0.559,1.25 1.25,1.25 h 2.5 c 0.69,0 1.25,-0.56 1.25,-1.25 v -12.5 c 0,-0.69 -0.56,-1.25 -1.25,-1.25 z m -51.25,-25 h 10 v -10 h -10 z m -2.5,1.25 v -12.5 c 0,-0.69 0.559,-1.25 1.25,-1.25 h 12.5 c 0.69,0 1.25,0.56 1.25,1.25 v 12.5 c 0,0.69 -0.56,1.25 -1.25,1.25 h -12.5 c -0.691,0 -1.25,-0.56 -1.25,-1.25 z m -7.5,8.75 h 12.5 c 0.69,0 1.25,-0.56 1.25,-1.25 v -2.5 c 0,-0.69 -0.56,-1.25 -1.25,-1.25 -0.691,0 -1.25,0.56 -1.25,1.25 v 1.25 h -10 v -10 h 2.5 c 0.69,0 1.25,-0.56 1.25,-1.25 0,-0.69 -0.56,-1.25 -1.25,-1.25 h -3.75 c -0.691,0 -1.25,0.56 -1.25,1.25 v 12.5 c 0,0.69 0.559,1.25 1.25,1.25 z m 65.387,12.669 c -0.189,0.665 -0.889,1.047 -1.543,0.861 -0.664,-0.188 -1.05,-0.879 -0.862,-1.544 1.02,-3.596 0.359,-7.544 -1.725,-10.301 -1.95,-2.579 -4.931,-3.942 -8.623,-3.943 -9.519,0 -14.716,5.308 -19.862,11.275 3.229,3.69 6.633,7.317 10.886,9.36 0.623,0.299 0.885,1.046 0.586,1.668 -0.215,0.449 -0.661,0.71 -1.127,0.71 -0.181,0 -0.365,-0.04 -0.54,-0.124 -4.585,-2.201 -8.123,-5.909 -11.449,-9.696 -5.018,5.86 -10.315,11.721 -19.498,11.721 -5.089,0 -9.434,-2.066 -12.233,-5.817 -2.672,-3.581 -3.539,-8.18 -2.315,-12.304 0.195,-0.661 0.891,-1.04 1.553,-0.842 0.661,0.195 1.04,0.891 0.844,1.552 -0.985,3.321 -0.25,7.191 1.921,10.098 2.316,3.104 5.95,4.814 10.23,4.813 8.191,0 12.91,-5.365 17.837,-11.125 -3.719,-4.281 -7.271,-8.281 -11.962,-10.168 -0.641,-0.258 -0.951,-0.986 -0.693,-1.627 0.259,-0.641 0.993,-0.951 1.626,-0.693 5.124,2.063 8.985,6.33 12.675,10.572 5.27,-6.085 11.067,-11.872 21.521,-11.872 4.441,0 8.211,1.752 10.616,4.935 2.547,3.369 3.366,8.156 2.137,12.491 z"/></g></svg>