<svg xmlns="http://www.w3.org/2000/svg" viewBox="0 0 100 100"><defs/><defs><linearGradient id="a" x1="0" x2="1" y1="1" y2="0"><stop offset="0%" stop-color="#2E27AD"/><stop offset="100%" stop-color="#527FFF"/></linearGradient></defs><g><path fill="url(#a)" fill-rule="evenodd" d="m 0,0 h 100 v 100 h -100 z"/><path fill="#fff" fill-rule="evenodd" d="m 81.8,27.5 -7.443,-6.814 -7.45,6.814 z m -10.298,-7.578 -15.097,0.023 8.064,6.409 z m -6.809,21.953 -11.882,4.375 h 22.857 z m -17.446,29.375 h 33.498 v -22.5 h -33.498 z m 14.656,-43.75 -8.231,-6.543 -8.178,6.543 z m -19.016,-1.106 8.049,-6.44 -16.047,0.023 z m -2.606,1.106 -8.215,-6.593 -8.216,6.593 h 12.232 z m -5.44,2.5 h -10.038 l 10.038,9.956 z m 0,13.854 -11.781,10.727 11.781,11.53 z m 0,26.317 -12.406,12.128 v 0.201 h 12.406 z m -12.406,-12.717 v 21.362 l 10.92,-10.675 z m 0,-5.674 10.84,-9.87 -10.84,-10.75 z m -1.241,-25.345 8.037,-6.449 -8.037,0.013 z m -2.481,-8.935 h -2.482 v 12.5 h 2.482 v -1.25 -10 z m 67.454,11.7 c -0.185,0.483 -0.645,0.8 -1.158,0.8 h -19.152 v 10 l 16.598,6.343 -0.002,0.002 c 0.454,0.186 0.773,0.633 0.773,1.155 v 25 c 0,0.69 -0.555,1.25 -1.24,1.25 h -35.979 c -0.685,0 -1.241,-0.56 -1.241,-1.25 v -25 c 0,-0.535 0.337,-0.984 0.808,-1.161 l -0.004,-0.009 17.806,-6.33 v -10 h -26.054 v 53.75 c 0,0.69 -0.555,1.25 -1.24,1.25 h -14.888 c -0.685,0 -1.241,-0.56 -1.241,-1.25 v -51.25 h -4.962 c -0.685,0 -1.241,-0.56 -1.241,-1.25 v -15 c 0,-0.69 0.556,-1.25 1.241,-1.25 h 4.962 c 0.686,0 1.241,0.56 1.241,1.25 v 1.249 l 53.348,0.001 11.302,10.325 c 0.378,0.348 0.507,0.894 0.323,1.375 z m -25.743,39.935 7.221,-16.531 -2.27,-1.008 -7.221,16.532 z m 6.783,-5.525 1.604,1.909 5.36,-4.573 c 0.263,-0.225 0.421,-0.551 0.437,-0.897 0.016,-0.348 -0.114,-0.686 -0.357,-0.934 l -4.473,-4.574 -1.767,1.757 3.533,3.612 z m -16.118,-3.63 c -0.273,-0.251 -0.421,-0.614 -0.401,-0.986 0.019,-0.374 0.203,-0.717 0.501,-0.94 l 6.088,-4.539 1.476,2.009 -4.878,3.639 4.094,3.78 -1.677,1.843 z"/></g></svg>