<svg xmlns="http://www.w3.org/2000/svg" viewBox="0 0 100 100"><defs/><defs><linearGradient id="a" x1="0" x2="1" y1="1" y2="0"><stop offset="0%" stop-color="#B0084D"/><stop offset="100%" stop-color="#FF4F8B"/></linearGradient></defs><g><path fill="url(#a)" fill-rule="evenodd" d="m 0,0 h 100 v 100 h -100 z"/><path fill="#fff" fill-rule="evenodd" d="m 49.97,49.591 c 3.724,0 6.754,3.03 6.754,6.754 0,3.724 -3.03,6.754 -6.754,6.754 -3.724,0 -6.754,-3.03 -6.754,-6.754 0,-3.724 3.03,-6.754 6.754,-6.754 z m 0,16.008 c 5.103,0 9.254,-4.151 9.254,-9.254 0,-5.103 -4.151,-9.254 -9.254,-9.254 -5.103,0 -9.254,4.151 -9.254,9.254 0,5.103 4.151,9.254 9.254,9.254 z m -2.028,-6.083 -2.286,-2.287 1.768,-1.768 1.402,1.403 3.69,-3.689 1.768,1.768 -4.574,4.573 c -0.235,0.234 -0.551,0.366 -0.884,0.367 -0.333,0 -0.65,-0.133 -0.883,-0.367 z m -15.442,-19.516 h 35 v -2.5 h -35 z m 0,-3.75 h 35 v -2.5 h -35 z m 0,-3.75 h 35 v -2.5 h -35 z m 0,-8.75 h 13.75 v -2.5 h -13.75 z m 4.936,32.626 c 0,-0.921 0.654,-1.72 1.555,-1.9 0.464,-0.092 0.835,-0.438 0.96,-0.892 0.232,-0.836 0.564,-1.634 0.984,-2.37 0.227,-0.396 0.22,-0.884 -0.019,-1.274 -0.194,-0.316 -0.293,-0.654 -0.292,-1.002 0,-1.069 0.87,-1.939 1.937,-1.939 0.351,0 0.688,0.099 1.003,0.292 0.391,0.237 0.879,0.245 1.275,0.019 0.737,-0.421 1.535,-0.752 2.37,-0.982 0.455,-0.126 0.8,-0.498 0.892,-0.96 0.18,-0.902 0.979,-1.558 1.899,-1.558 0.921,0 1.719,0.655 1.9,1.558 0.092,0.463 0.438,0.834 0.892,0.96 0.835,0.23 1.631,0.561 2.37,0.982 0.395,0.226 0.882,0.219 1.275,-0.019 0.315,-0.194 0.651,-0.293 1.003,-0.292 1.067,0 1.936,0.87 1.936,1.939 0,0.349 -0.098,0.686 -0.291,1.002 -0.239,0.39 -0.246,0.877 -0.02,1.274 0.421,0.736 0.752,1.534 0.984,2.37 0.126,0.455 0.498,0.8 0.961,0.892 0.901,0.18 1.555,0.979 1.555,1.9 0,0.92 -0.654,1.719 -1.555,1.899 -0.464,0.092 -0.835,0.438 -0.961,0.893 -0.231,0.836 -0.563,1.634 -0.984,2.37 -0.226,0.398 -0.217,0.885 0.02,1.275 0.194,0.315 0.291,0.653 0.291,1.001 0,1.069 -0.869,1.939 -1.936,1.939 -0.351,0 -0.688,-0.098 -1.003,-0.292 -0.39,-0.24 -0.88,-0.247 -1.275,-0.02 -0.739,0.421 -1.535,0.752 -2.37,0.983 -0.455,0.126 -0.8,0.498 -0.892,0.96 -0.181,0.902 -0.979,1.556 -1.9,1.556 -0.92,0 -1.719,-0.654 -1.899,-1.556 -0.092,-0.463 -0.438,-0.834 -0.892,-0.96 -0.835,-0.23 -1.633,-0.561 -2.37,-0.983 -0.193,-0.11 -0.408,-0.165 -0.622,-0.165 -0.226,0 -0.454,0.061 -0.653,0.185 -0.315,0.194 -0.651,0.291 -1.003,0.292 -1.067,0 -1.938,-0.87 -1.937,-1.939 0,-0.349 0.099,-0.686 0.292,-1.001 0.237,-0.39 0.246,-0.877 0.019,-1.275 -0.42,-0.736 -0.751,-1.534 -0.984,-2.37 -0.125,-0.455 -0.496,-0.8 -0.96,-0.893 -0.901,-0.18 -1.555,-0.979 -1.555,-1.899 z m 5.125,11.877 c 0.56,0 1.114,-0.11 1.635,-0.321 0.54,0.27 1.1,0.504 1.676,0.697 0.657,1.667 2.286,2.811 4.128,2.811 1.843,0 3.471,-1.144 4.129,-2.811 0.576,-0.193 1.136,-0.426 1.676,-0.697 0.521,0.21 1.075,0.32 1.635,0.32 2.446,0 4.436,-1.991 4.436,-4.438 0,-0.557 -0.109,-1.111 -0.318,-1.634 0.269,-0.539 0.503,-1.099 0.696,-1.676 1.667,-0.657 2.811,-2.286 2.811,-4.128 0,-1.843 -1.144,-3.471 -2.811,-4.129 -0.194,-0.578 -0.428,-1.137 -0.696,-1.676 0.21,-0.522 0.319,-1.076 0.318,-1.634 0,-2.447 -1.99,-4.439 -4.436,-4.438 -0.559,0 -1.114,0.11 -1.635,0.32 -0.54,-0.27 -1.1,-0.504 -1.676,-0.697 -0.657,-1.667 -2.286,-2.813 -4.129,-2.812 -1.841,0 -3.47,1.145 -4.128,2.812 -0.576,0.193 -1.136,0.426 -1.676,0.697 -0.521,-0.21 -1.076,-0.32 -1.635,-0.32 -2.446,0 -4.438,1.991 -4.437,4.438 0,0.557 0.11,1.111 0.32,1.634 -0.27,0.539 -0.503,1.099 -0.697,1.676 -1.667,0.657 -2.811,2.286 -2.811,4.129 0,1.841 1.144,3.47 2.811,4.128 0.194,0.578 0.426,1.137 0.697,1.676 -0.21,0.522 -0.32,1.076 -0.32,1.634 0,2.447 1.991,4.439 4.437,4.438 z m 12.439,1.747 h 2.5 v 12.5 c 0,0.48 -0.275,0.919 -0.707,1.126 -0.173,0.083 -0.357,0.124 -0.543,0.124 -0.278,0 -0.555,-0.094 -0.781,-0.275 l -5.469,-4.375 -5.469,4.375 c -0.374,0.301 -0.887,0.359 -1.322,0.151 -0.432,-0.208 -0.709,-0.646 -0.709,-1.126 v -12.5 h 2.5 v 9.899 l 4.219,-3.375 c 0.458,-0.365 1.106,-0.365 1.562,0 l 4.219,3.375 z m 10,-49.483 4.482,4.483 h -4.482 z m 8.384,4.849 -8.75,-8.75 c -0.234,-0.235 -0.551,-0.366 -0.884,-0.366 h -36.25 c -0.69,0 -1.25,0.559 -1.25,1.25 v 57.5 c 0,0.69 0.56,1.25 1.25,1.25 h 12.5 v -2.5 h -11.25 v -55 h 33.75 v 7.5 c 0,0.69 0.56,1.25 1.25,1.25 h 7.5 v 46.25 h -11.25 v 2.5 h 12.5 c 0.691,0 1.25,-0.56 1.25,-1.25 v -48.75 c 0,-0.331 -0.131,-0.65 -0.366,-0.884 z"/></g></svg>