<svg xmlns="http://www.w3.org/2000/svg" viewBox="0 0 100 100"><defs/><defs><linearGradient id="a" x1="0" x2="1" y1="1" y2="0"><stop offset="0%" stop-color="#C8511B"/><stop offset="100%" stop-color="#F90"/></linearGradient></defs><g><path fill="url(#a)" fill-rule="evenodd" d="m 0,0 h 100 v 100 h -100 z"/><path fill="#fff" fill-rule="evenodd" d="m 27.026,40.023 -2.162,-1.252 c 4.02,-6.953 11.504,-11.271 19.527,-11.271 7.924,0 15.123,4.044 19.256,10.816 l -2.133,1.303 c -3.676,-6.022 -10.077,-9.619 -17.123,-9.619 -7.134,0 -13.789,3.84 -17.365,10.022 z m 34.473,20.289 2.163,1.252 c -4.021,6.953 -11.504,11.271 -19.526,11.271 -7.926,0 -15.125,-4.043 -19.259,-10.816 l 2.134,-1.303 c 3.676,6.024 10.077,9.619 17.125,9.619 7.134,0 13.786,-3.84 17.363,-10.023 z m 23.291,-5.701 -2.5,3.75 -2.08,-1.386 1.204,-1.808 h -10.164 v 2.5 c 0,0.69 -0.559,1.25 -1.25,1.25 h -15 c -0.691,0 -1.25,-0.56 -1.25,-1.25 v -3.75 h -1.25 v 3.75 c 0,0.69 -0.559,1.25 -1.25,1.25 h -15 c -0.691,0 -1.25,-0.56 -1.25,-1.25 v -3.75 h -1.25 v 3.75 c 0,0.69 -0.559,1.25 -1.25,1.25 h -15 c -0.691,0 -1.25,-0.56 -1.25,-1.25 v -15 c 0,-0.69 0.559,-1.25 1.25,-1.25 h 15 c 0.691,0 1.25,0.56 1.25,1.25 v 5 h 1.25 v -5 c 0,-0.69 0.559,-1.25 1.25,-1.25 h 15 c 0.691,0 1.25,0.56 1.25,1.25 v 5 h 1.25 v -5 c 0,-0.69 0.559,-1.25 1.25,-1.25 h 15 c 0.691,0 1.25,0.56 1.25,1.25 v 2.5 h 5.164 l -1.204,-1.806 2.08,-1.386 2.5,3.75 c 0.28,0.419 0.28,0.966 0,1.386 l -2.5,3.75 -2.08,-1.386 1.204,-1.808 h -6.414 c -0.691,0 -1.25,-0.56 -1.25,-1.25 v -2.5 h -12.5 v 5 c 0,0.69 -0.559,1.25 -1.25,1.25 h -3.75 c -0.691,0 -1.25,-0.56 -1.25,-1.25 v -5 h -12.5 v 5 c 0,0.69 -0.559,1.25 -1.25,1.25 h -3.75 c -0.691,0 -1.25,-0.56 -1.25,-1.25 v -5 h -12.5 v 12.5 h 12.5 v -3.75 c 0,-0.69 0.559,-1.25 1.25,-1.25 h 3.75 c 0.691,0 1.25,0.56 1.25,1.25 v 3.75 h 12.5 v -3.75 c 0,-0.69 0.559,-1.25 1.25,-1.25 h 3.75 c 0.691,0 1.25,0.56 1.25,1.25 v 3.75 h 12.5 v -2.5 c 0,-0.69 0.559,-1.25 1.25,-1.25 h 11.414 l -1.204,-1.806 2.08,-1.386 2.5,3.75 c 0.28,0.419 0.28,0.966 0,1.386 z m -24.79,-1.944 h 5 v -5 h -5 z m -1.25,-7.5 c -0.691,0 -1.25,0.56 -1.25,1.25 v 7.5 c 0,0.69 0.559,1.25 1.25,1.25 h 7.5 c 0.691,0 1.25,-0.56 1.25,-1.25 v -7.5 c 0,-0.69 -0.559,-1.25 -1.25,-1.25 z m -17.5,7.5 h 5 v -5 h -5 z m -1.25,-7.5 c -0.691,0 -1.25,0.56 -1.25,1.25 v 7.5 c 0,0.69 0.559,1.25 1.25,1.25 h 7.5 c 0.691,0 1.25,-0.56 1.25,-1.25 v -7.5 c 0,-0.69 -0.559,-1.25 -1.25,-1.25 z m -17.5,7.5 h 5 v -5 h -5 z m -1.25,-7.5 c -0.691,0 -1.25,0.56 -1.25,1.25 v 7.5 c 0,0.69 0.559,1.25 1.25,1.25 h 7.5 c 0.691,0 1.25,-0.56 1.25,-1.25 v -7.5 c 0,-0.69 -0.559,-1.25 -1.25,-1.25 z"/></g></svg>