<svg xmlns="http://www.w3.org/2000/svg" viewBox="0 0 100 100"><defs/><defs><linearGradient id="a" x1="0" x2="1" y1="1" y2="0"><stop offset="0%" stop-color="#1B660F"/><stop offset="100%" stop-color="#6CAE3E"/></linearGradient></defs><g><path fill="url(#a)" fill-rule="evenodd" d="m 0,0 h 100 v 100 h -100 z"/><path fill="#fff" fill-rule="evenodd" d="m 61.25,37.5 v -5.732 l -9.116,9.116 c -0.451,0.453 -1.169,0.489 -1.665,0.092 l -5.377,-4.301 -7.958,7.959 -1.768,-1.768 8.75,-8.75 c 0.451,-0.451 1.169,-0.49 1.665,-0.092 l 5.376,4.301 8.325,-8.325 h -5.732 v -2.5 h 8.75 c 0.691,0 1.25,0.56 1.25,1.25 v 8.75 z m -28.75,16.25 h -2.5 v -37.5 c 0,-0.69 0.559,-1.25 1.25,-1.25 h 37.5 c 0.691,0 1.25,0.56 1.25,1.25 v 37.5 h -2.5 v -36.25 h -35 z m -13.75,26.839 v -28.013 l 15.925,11.025 z m 31.25,-6.683 c 0.28,0 0.559,-0.084 0.801,-0.25 l 12.445,-8.616 16.368,17.46 h -59.228 l 16.368,-17.46 12.445,8.616 c 0.242,0.166 0.521,0.25 0.801,0.25 z m 15.325,-10.305 15.925,-11.025 v 28.013 z m 17.997,-14.541 -10,-8.75 -1.645,1.88 8.672,7.589 -30.349,21.011 -30.349,-21.011 8.672,-7.589 -1.645,-1.88 -10,8.75 c -0.273,0.237 -0.428,0.579 -0.428,0.94 v 33.75 c 0,0.69 0.559,1.25 1.25,1.25 h 65 c 0.691,0 1.25,-0.56 1.25,-1.25 v -33.75 c 0,-0.361 -0.155,-0.703 -0.428,-0.94 z"/></g></svg>