<svg xmlns="http://www.w3.org/2000/svg" viewBox="0 0 100 100"><defs/><defs><linearGradient id="a" x1="0" x2="1" y1="1" y2="0"><stop offset="0%" stop-color="#2E27AD"/><stop offset="100%" stop-color="#527FFF"/></linearGradient></defs><g><path fill="url(#a)" fill-rule="evenodd" d="m 0,0 h 100 v 100 h -100 z"/><path fill="#fff" fill-rule="evenodd" d="m 54.975,46.52 c 0,-2.895 -2.355,-5.25 -5.25,-5.25 -2.896,0 -5.25,2.355 -5.25,5.25 0,2.895 2.354,5.25 5.25,5.25 2.895,0 5.25,-2.355 5.25,-5.25 z m 2.5,0 c 0,4.272 -3.476,7.75 -7.75,7.75 -4.274,0 -7.75,-3.478 -7.75,-7.75 0,-4.274 3.476,-7.75 7.75,-7.75 4.274,0 7.75,3.476 7.75,7.75 z m 1.509,11.954 2.696,-2.695 -1.028,-0.916 c -0.455,-0.406 -0.55,-1.084 -0.225,-1.6 0.769,-1.216 1.318,-2.542 1.633,-3.942 0.134,-0.597 0.701,-1.013 1.29,-0.973 l 1.375,0.078 v -3.812 l -1.378,0.079 c -0.586,0.021 -1.156,-0.378 -1.29,-0.973 -0.316,-1.399 -0.865,-2.724 -1.633,-3.939 -0.325,-0.517 -0.23,-1.194 0.225,-1.6 l 1.031,-0.92 -2.696,-2.696 -0.924,1.036 c -0.406,0.454 -1.084,0.55 -1.601,0.224 -1.212,-0.765 -2.537,-1.315 -3.934,-1.63 -0.596,-0.135 -1.008,-0.681 -0.971,-1.291 l 0.077,-1.384 h -3.812 l 0.078,1.383 c 0.035,0.61 -0.376,1.155 -0.972,1.29 -1.4,0.316 -2.725,0.865 -3.939,1.63 -0.515,0.325 -1.194,0.231 -1.599,-0.225 l -0.921,-1.033 -2.696,2.696 1.034,0.923 c 0.456,0.406 0.551,1.084 0.223,1.6 -0.766,1.214 -1.318,2.537 -1.633,3.937 -0.136,0.595 -0.735,0.993 -1.292,0.971 l -1.377,-0.078 v 3.812 l 1.372,-0.078 c 0.561,-0.039 1.156,0.376 1.292,0.972 0.316,1.403 0.865,2.73 1.631,3.945 0.326,0.517 0.231,1.194 -0.224,1.6 l -1.026,0.914 2.696,2.696 0.915,-1.025 c 0.406,-0.459 1.084,-0.552 1.6,-0.225 1.218,0.769 2.544,1.32 3.945,1.636 0.595,0.134 1.006,0.68 0.971,1.29 l -0.078,1.369 h 3.812 l -0.077,-1.367 c -0.036,-0.61 0.375,-1.156 0.972,-1.29 1.403,-0.316 2.73,-0.866 3.945,-1.635 0.514,-0.326 1.192,-0.234 1.601,0.225 z m 0.832,2.705 c -0.242,0.242 -0.559,0.378 -0.919,0.365 -0.345,-0.01 -0.669,-0.16 -0.897,-0.418 l -1.114,-1.247 c -0.886,0.476 -1.816,0.86 -2.779,1.151 l 0.095,1.669 c 0.019,0.344 -0.103,0.68 -0.34,0.93 -0.235,0.25 -0.564,0.391 -0.907,0.391 h -6.459 c -0.345,0 -0.673,-0.141 -0.909,-0.391 -0.236,-0.25 -0.359,-0.586 -0.338,-0.93 l 0.095,-1.671 c -0.963,-0.29 -1.891,-0.675 -2.778,-1.152 l -1.115,1.25 c -0.229,0.258 -0.554,0.408 -0.897,0.418 -0.339,0.01 -0.676,-0.122 -0.919,-0.365 l -4.569,-4.568 c -0.242,-0.244 -0.376,-0.576 -0.366,-0.92 0.01,-0.344 0.161,-0.667 0.417,-0.897 l 1.252,-1.115 c -0.475,-0.886 -0.859,-1.815 -1.149,-2.778 l -1.675,0.097 c -0.345,0.021 -0.68,-0.104 -0.929,-0.339 -0.25,-0.236 -0.391,-0.566 -0.391,-0.91 v -6.459 c 0,-0.344 0.141,-0.673 0.391,-0.909 0.249,-0.236 0.583,-0.359 0.929,-0.34 l 1.681,0.097 c 0.291,-0.96 0.675,-1.886 1.151,-2.769 l -1.26,-1.124 c -0.256,-0.229 -0.408,-0.552 -0.417,-0.896 -0.01,-0.344 0.124,-0.676 0.366,-0.92 l 4.569,-4.568 c 0.242,-0.242 0.584,-0.37 0.919,-0.365 0.344,0.01 0.669,0.16 0.897,0.418 l 1.123,1.257 c 0.882,-0.474 1.809,-0.858 2.77,-1.146 l -0.095,-1.684 c -0.02,-0.344 0.103,-0.68 0.338,-0.93 0.236,-0.25 0.564,-0.391 0.909,-0.391 h 6.459 c 0.344,0 0.673,0.141 0.907,0.391 0.237,0.25 0.359,0.586 0.34,0.93 l -0.095,1.687 c 0.958,0.289 1.883,0.673 2.768,1.147 l 1.125,-1.262 c 0.23,-0.256 0.552,-0.406 0.897,-0.417 0.356,-0.007 0.676,0.122 0.919,0.365 l 4.566,4.568 c 0.244,0.244 0.376,0.576 0.367,0.92 -0.009,0.344 -0.161,0.667 -0.418,0.896 l -1.256,1.121 c 0.475,0.885 0.86,1.811 1.149,2.772 l 1.68,-0.097 c 0.343,-0.018 0.68,0.104 0.928,0.34 0.251,0.236 0.393,0.565 0.393,0.909 v 6.459 c 0,0.344 -0.141,0.674 -0.393,0.91 -0.249,0.235 -0.587,0.359 -0.928,0.339 l -1.677,-0.097 c -0.289,0.961 -0.674,1.89 -1.148,2.775 l 1.252,1.119 c 0.256,0.229 0.409,0.552 0.418,0.896 0.01,0.344 -0.122,0.676 -0.367,0.92 z m 13.055,7.837 c -0.01,-0.6 -0.256,-1.16 -0.689,-1.576 -0.435,-0.419 -0.996,-0.626 -1.556,-0.626 -0.591,0 -1.181,0.23 -1.621,0.689 -0.859,0.892 -0.831,2.319 0.061,3.178 0.891,0.859 2.32,0.831 3.179,-0.062 v -0.001 c 0.416,-0.431 0.639,-1 0.626,-1.602 z m 1.044,-3.378 c 0.915,0.88 1.432,2.061 1.456,3.33 0.026,1.268 -0.445,2.47 -1.324,3.383 -0.879,0.914 -2.063,1.431 -3.328,1.457 -0.034,10e-4 -0.065,10e-4 -0.097,10e-4 -1.234,0 -2.397,-0.469 -3.288,-1.326 -1.886,-1.815 -1.945,-4.826 -0.132,-6.713 1.815,-1.887 4.828,-1.945 6.713,-0.132 z m 5.379,4.243 -2.368,-1.087 c -0.32,-0.146 -0.564,-0.421 -0.671,-0.756 l -0.485,-1.523 c -0.105,-0.331 -0.069,-0.69 0.101,-0.992 l 1.274,-2.268 -3.078,-2.239 -1.742,1.89 c -0.236,0.255 -0.565,0.401 -0.913,0.404 l -1.627,0.009 h -0.008 c -0.349,0 -0.683,-0.145 -0.92,-0.403 l -1.755,-1.906 -3.082,2.235 1.28,2.278 c 0.17,0.305 0.206,0.667 0.099,1 l -0.492,1.506 c -0.109,0.331 -0.35,0.603 -0.667,0.747 l -2.378,1.092 1.173,3.622 2.539,-0.509 c 0.345,-0.073 0.705,0.011 0.988,0.222 l 1.308,0.968 c 0.279,0.206 0.459,0.517 0.499,0.86 l 0.297,2.558 3.806,0.004 0.303,-2.579 c 0.04,-0.344 0.222,-0.656 0.504,-0.863 l 1.292,-0.946 c 0.283,-0.206 0.643,-0.286 0.984,-0.217 l 2.56,0.513 z m 2.722,-0.285 -1.867,5.737 c -0.198,0.604 -0.821,0.96 -1.435,0.838 l -3.11,-0.623 -0.409,0.298 -0.369,3.144 c -0.074,0.629 -0.607,1.104 -1.241,1.104 h -10e-4 l -6.032,-0.006 c -0.634,0 -1.167,-0.475 -1.241,-1.105 l -0.364,-3.124 -0.426,-0.318 -3.086,0.618 c -0.627,0.124 -1.239,-0.236 -1.435,-0.84 l -1.859,-5.739 c -0.195,-0.603 0.091,-1.256 0.668,-1.521 l 2.891,-1.327 0.151,-0.463 -1.555,-2.77 c -0.31,-0.552 -0.158,-1.25 0.356,-1.624 l 4.883,-3.541 c 0.508,-0.371 1.224,-0.304 1.652,0.165 l 2.135,2.317 0.533,-0.004 2.129,-2.31 c 0.431,-0.468 1.14,-0.536 1.653,-0.162 l 4.878,3.547 c 0.512,0.374 0.665,1.071 0.355,1.624 l -1.553,2.763 0.153,0.478 2.879,1.322 c 0.578,0.265 0.864,0.92 0.667,1.522 z m -32.226,2.367 c -9.455,0 -18.402,-5.55 -22.794,-14.14 l -2.226,1.138 c 4.815,9.416 14.635,15.501 25.02,15.502 2.272,0 5.069,-0.406 7.671,-1.115 l -0.656,-2.412 c -2.362,0.643 -4.984,1.026 -7.015,1.027 z m 21.842,-20.072 2.944,-2.206 c -0.109,2.091 -0.4,3.842 -1.115,5.773 l 2.344,0.868 c 0.839,-2.263 1.167,-4.322 1.279,-6.721 l 3.05,2.286 1.498,-1.998 -5,-3.75 c -0.444,-0.334 -1.055,-0.334 -1.498,0 l -5,3.75 z m -42.365,-10.115 -5,5 c -0.245,0.244 -0.565,0.366 -0.883,0.367 -0.32,0 -0.64,-0.122 -0.884,-0.367 l -5,-5 1.767,-1.767 3.013,3.012 c 1.415,-13.821 12.96,-24.271 27.445,-24.271 10.288,0 20.013,6.015 24.771,15.322 l -2.226,1.139 c -4.336,-8.481 -13.186,-13.961 -22.545,-13.961 -12.944,0 -23.283,9.168 -24.86,21.391 l 2.635,-2.632 z"/></g></svg>