<svg xmlns="http://www.w3.org/2000/svg" viewBox="0 0 100 100"><defs/><defs><linearGradient id="a" x1="0" x2="1" y1="1" y2="0"><stop offset="0%" stop-color="#BD0816"/><stop offset="100%" stop-color="#FF5252"/></linearGradient></defs><g><path fill="url(#a)" fill-rule="evenodd" d="m 0,0 h 100 v 100 h -100 z"/><path fill="#fff" fill-rule="evenodd" d="m 69.445,52.296 c -2.564,-1.978 -4.737,-3.644 -6.573,-5.015 2.161,-3.817 4.689,-8.165 5.816,-9.077 3.104,1.919 13.001,19.049 13.757,23.542 -2.432,-1.295 -8.45,-5.938 -13,-9.45 m -19.692,10.197 c -0.781,-0.481 -2.286,-2.6 -4.01,-5.316 0.362,-0.57 0.746,-1.182 1.158,-1.841 2.327,-3.71 6.178,-9.851 7.562,-10.666 0.803,0.249 2.766,1.568 5.138,3.298 -2.868,5.084 -7.927,14.001 -9.848,14.525 m -10.125,-0.805 c -0.871,-0.999 -2.431,-3.793 -3.413,-5.558 -2.485,-4.453 -3.411,-5.995 -4.728,-6.039 -1.085,-0.04 -2.252,0.948 -6.9,5.172 -1.794,1.632 -4.428,4.025 -6.251,5.413 2.571,-5.602 10.412,-19.354 13.021,-22.695 1.184,1.654 3.58,5.816 5.571,9.271 2.373,4.122 4.28,7.378 5.848,9.917 -1.237,1.932 -2.447,3.742 -3.148,4.519 m 43.543,-5.341 c -2.376,-5.324 -11.057,-20.718 -14.517,-20.718 -1.783,0 -3.571,2.676 -7.817,10.152 -3.383,-2.449 -5.324,-3.59 -6.381,-3.625 -1.915,-0.031 -3.986,2.763 -9.698,11.874 -0.158,0.251 -0.32,0.511 -0.487,0.776 -1.804,-2.968 -3.691,-6.241 -5.152,-8.781 -5.668,-9.844 -6.458,-10.977 -7.681,-11.022 -0.863,-0.032 -1.667,-0.06 -8.164,11.172 -2.915,5.039 -6.604,11.849 -7.815,14.89 -0.369,0.925 -0.827,2.077 0.024,2.799 1.596,1.356 4.09,-0.665 10.812,-6.774 1.702,-1.548 3.946,-3.587 4.983,-4.309 0.675,0.869 1.885,3.036 2.728,4.547 2.854,5.116 4.076,7.054 5.606,7.098 0.016,0 0.033,0 0.046,0 1.085,0 2.079,-1.058 4.597,-4.922 2.622,4.013 4.117,5.495 5.393,5.496 h 0.019 c 2.863,-0.032 6.022,-5.002 11.968,-15.527 2.084,1.562 4.308,3.277 6.257,4.781 13.117,10.122 15.123,11.314 16.512,9.821 0.776,-0.836 1.166,-2.351 -1.233,-7.728"/></g></svg>