<svg xmlns="http://www.w3.org/2000/svg" viewBox="0 0 100 100"><defs/><defs><linearGradient id="a" x1="0" x2="1" y1="1" y2="0"><stop offset="0%" stop-color="#1B660F"/><stop offset="100%" stop-color="#6CAE3E"/></linearGradient></defs><g><path fill="url(#a)" fill-rule="evenodd" d="m 0,0 h 100 v 100 h -100 z"/><path fill="#fff" fill-rule="evenodd" d="m 51.875,53.128 c 1.726,0 3.125,-1.399 3.125,-3.125 0,-1.726 -1.399,-3.125 -3.125,-3.125 -1.726,0 -3.125,1.399 -3.125,3.125 0,1.726 1.399,3.125 3.125,3.125 z m 8.125,-3.128 c 0,4.136 3.364,7.5 7.5,7.5 4.136,0 7.5,-3.364 7.5,-7.5 0,-4.136 -3.364,-7.5 -7.5,-7.5 -4.136,0 -7.5,3.364 -7.5,7.5 z m -2.5,0 c 0,-5.514 4.486,-10 10,-10 5.514,0 10,4.486 10,10 0,5.514 -4.486,10 -10,10 -5.514,0 -10,-4.486 -10,-10 z m -38.75,0 c 0,7.242 4.731,12.5 11.25,12.5 0.037,0 0.075,0.003 0.111,0.005 h 39.778 c 0.036,-0.003 0.074,-0.005 0.111,-0.005 6.519,0 11.25,-5.258 11.25,-12.5 0,-7.24 -4.731,-12.495 -11.25,-12.495 -0.037,0 -0.075,-0.003 -0.111,-0.005 h -39.778 c -0.036,0.003 -0.074,0.005 -0.111,0.005 -6.519,0 -11.25,5.255 -11.25,12.495 z m -2.5,0 c 0,-8.646 5.726,-14.934 13.634,-14.995 0.039,-0.003 0.077,-0.005 0.116,-0.005 h 40 c 0.039,0 0.079,0.003 0.116,0.005 7.907,0.061 13.634,6.349 13.634,14.995 0,8.65 -5.726,14.939 -13.634,15 -0.037,0.003 -0.077,0.005 -0.116,0.005 h -40 c -0.039,0 -0.077,-0.003 -0.116,-0.005 -7.907,-0.061 -13.634,-6.351 -13.634,-15 z m 5,-28.75 h 11.25 v -2.5 h -12.5 c -0.691,0 -1.25,0.56 -1.25,1.25 v 12.5 h 2.5 z m 57.5,11.25 h 2.5 v -12.5 c 0,-0.69 -0.559,-1.25 -1.25,-1.25 h -12.5 v 2.5 h 11.25 z m -57.5,35 h -2.5 v 12.5 c 0,0.69 0.559,1.25 1.25,1.25 h 12.5 v -2.5 h -11.25 z m 57.5,0 h 2.5 v 12.5 c 0,0.69 -0.559,1.25 -1.25,1.25 h -12.5 v -2.5 h 11.25 z"/></g></svg>