<svg xmlns="http://www.w3.org/2000/svg" viewBox="0 0 100 100"><defs/><defs><linearGradient id="a" x1="0" x2="1" y1="1" y2="0"><stop offset="0%" stop-color="#2E27AD"/><stop offset="100%" stop-color="#527FFF"/></linearGradient></defs><g><path fill="url(#a)" fill-rule="evenodd" d="m 0,0 h 100 v 100 h -100 z"/><path fill="#fff" fill-rule="evenodd" d="m 43.125,17.491 c 12.891,0 21.875,3.938 21.875,7.473 0,3.535 -8.984,7.473 -21.875,7.473 -12.891,0 -21.875,-3.938 -21.875,-7.473 0,-3.535 8.984,-7.473 21.875,-7.473 z m -0.256,66.268 c -12.74,0 -21.619,-4.024 -21.619,-7.635 v -10.859 c 3.901,3.266 11.84,5.408 21.451,5.409 2.216,0 4.446,-0.123 6.63,-0.365 l -0.276,-2.477 c -2.092,0.232 -4.231,0.35 -6.354,0.35 -11.894,0 -20.414,-3.527 -21.451,-6.941 v -13.422 c 3.901,3.266 11.84,5.407 21.451,5.407 2.263,0 4.495,-0.125 6.635,-0.371 l -0.286,-2.473 c -2.046,0.235 -4.181,0.354 -6.349,0.353 -11.894,0 -20.414,-3.526 -21.451,-6.94 v -14.352 c 3.599,3.073 11.022,5.485 21.875,5.485 10.853,0 18.276,-2.413 21.875,-5.485 v 4.24 h 2.5 v -8.719 c 0,-4.83 -8.543,-9.964 -24.375,-9.964 -15.832,0 -24.375,5.134 -24.375,9.964 v 51.16 c 0,5.772 10.369,10.126 24.119,10.126 11.044,0 20.371,-2.913 23.21,-7.248 l -2.095,-1.361 c -1.99,3.04 -9.883,6.118 -21.115,6.118 z m 29.89,-31.05 c 0.704,0 1.325,0.28 1.748,0.791 0.78,0.934 0.654,2.349 0.578,2.85 0.036,2.633 1.49,3.147 1.659,3.199 0.537,0.162 0.916,0.666 0.902,1.226 -0.014,0.56 -0.385,1.046 -0.931,1.182 -0.141,0.044 -1.631,0.57 -1.631,3.289 0.029,1.466 -0.675,3.091 -2.288,3.139 h -0.96 v -2.491 h 0.66 c 0.05,-0.166 0.089,-0.426 0.088,-0.631 0,-2.273 0.762,-3.669 1.577,-4.513 -0.815,-0.842 -1.578,-2.234 -1.577,-4.498 0,-0.076 0.007,-0.153 0.021,-0.228 0.048,-0.268 0.048,-0.619 0.007,-0.824 h -0.776 v -2.491 z m -5.85,0 h 0.961 v 2.491 h -0.659 c -0.051,0.166 -0.09,0.426 -0.089,0.632 0,2.273 -0.761,3.669 -1.576,4.512 0.815,0.842 1.576,2.234 1.576,4.499 0,0.077 -0.007,0.153 -0.02,0.228 -0.048,0.268 -0.048,0.619 -0.007,0.823 h 0.775 v 2.491 h -0.923 c -0.704,0 -1.325,-0.28 -1.75,-0.789 -0.779,-0.934 -0.651,-2.349 -0.576,-2.851 -0.035,-2.632 -1.49,-3.147 -1.659,-3.197 -0.539,-0.163 -0.916,-0.668 -0.903,-1.228 0.014,-0.559 0.386,-1.046 0.932,-1.182 0.143,-0.044 1.631,-0.57 1.631,-3.289 -0.029,-1.465 0.674,-3.091 2.287,-3.14 z m 13.091,20.83 h -21.25 v -29.892 h 13.75 v 4.982 c 0,0.688 0.559,1.246 1.25,1.246 h 6.25 z m -5,-29.892 h 0.306 l 3.779,3.737 h -4.085 z m 7.13,3.238 -5.429,-5.368 c -0.232,-0.232 -0.55,-0.361 -0.88,-0.361 h -0.821 -0.456 l -3.859,-4.541 c -0.239,-0.28 -0.587,-0.441 -0.955,-0.441 h -17.23 c -0.691,0 -1.25,0.558 -1.25,1.245 v 32.384 c 0,0.688 0.559,1.246 1.25,1.245 h 2.5 v -2.491 h -1.25 v -29.892 h 15.4 l 2.117,2.491 h -13.767 c -0.691,0 -1.25,0.558 -1.25,1.245 v 32.384 c 0,0.688 0.559,1.246 1.25,1.246 h 23.75 c 0.691,0 1.25,-0.558 1.25,-1.246 v -27.015 c 0,-0.333 -0.133,-0.65 -0.37,-0.885 z"/></g></svg>