<svg xmlns="http://www.w3.org/2000/svg" viewBox="0 0 100 100"><defs/><defs><linearGradient id="a" x1="0" x2="1" y1="1" y2="0"><stop offset="0%" stop-color="#2E27AD"/><stop offset="100%" stop-color="#527FFF"/></linearGradient></defs><g><path fill="url(#a)" fill-rule="evenodd" d="m 0,0 h 100 v 100 h -100 z"/><path fill="#fff" fill-rule="evenodd" d="m 19.267,17.5 11.617,11.616 -1.768,1.768 -11.616,-11.617 v 9.483 h -2.5 v -12.5 c 0,-0.69 0.559,-1.25 1.25,-1.25 h 12.5 v 2.5 z m 65.733,-1.25 v 12.5 h -2.5 v -9.482 l -11.616,11.616 -1.768,-1.768 11.617,-11.616 h -9.483 v -2.5 h 12.5 c 0.691,0 1.25,0.56 1.25,1.25 z m -2.5,55 h 2.5 v 12.5 c 0,0.69 -0.559,1.25 -1.25,1.25 h -12.5 v -2.5 h 9.482 l -11.616,-11.616 1.768,-1.768 11.616,11.617 z m -0.625,-22.234 c 0,-4.149 -4.79,-8.248 -12.813,-10.963 l 0.802,-2.368 c 9.221,3.121 14.511,7.98 14.511,13.331 0,5.353 -5.29,10.213 -14.512,13.333 l -0.802,-2.369 c 8.024,-2.715 12.814,-6.813 12.814,-10.964 z m -63.68,0 c 0,3.975 4.484,7.965 11.995,10.675 l -0.849,2.351 c -8.672,-3.129 -13.646,-7.876 -13.646,-13.026 0,-5.149 4.974,-9.896 13.646,-13.026 l 0.849,2.351 c -7.511,2.711 -11.995,6.701 -11.995,10.675 z m 12.689,21.868 -11.617,11.616 h 9.483 v 2.5 h -12.5 c -0.691,0 -1.25,-0.56 -1.25,-1.25 v -12.5 h 2.5 v 9.483 l 11.616,-11.617 z m 19.116,-31.776 c -8.932,0 -13.75,-2.308 -13.75,-3.25 0,-0.944 4.817,-3.25 13.75,-3.25 8.931,0 13.75,2.306 13.75,3.25 0,0.943 -4.819,3.25 -13.75,3.25 z m 0.036,9.681 c -8.553,0 -13.786,-2.336 -13.786,-3.608 v -6.076 c 3.079,1.699 8.54,2.502 13.75,2.503 5.21,0 10.671,-0.804 13.75,-2.503 v 6.076 c 0,1.272 -5.206,3.607 -13.714,3.608 z m 0,9.545 c -8.553,0 -13.786,-2.336 -13.786,-3.608 v -6.148 c 3.039,1.786 8.428,2.711 13.786,2.711 5.329,0 10.686,-0.924 13.714,-2.705 v 6.142 c 0,1.272 -5.206,3.607 -13.714,3.608 z m -0.036,8.564 c -8.896,0 -13.75,-2.391 -13.75,-3.62 v -5.155 c 3.039,1.786 8.428,2.711 13.786,2.711 5.329,0 10.686,-0.922 13.714,-2.705 v 5.149 c 0,1.229 -4.854,3.62 -13.75,3.62 z m 0,-36.79 c -7.826,0 -16.25,1.799 -16.25,5.75 v 27.42 c 0,4.018 8.175,6.12 16.25,6.12 8.075,0 16.25,-2.103 16.25,-6.12 v -27.42 c 0,-3.951 -8.424,-5.75 -16.25,-5.75 z"/></g></svg>