<svg xmlns="http://www.w3.org/2000/svg" viewBox="0 0 100 100"><defs/><defs><linearGradient id="a" x1="0" x2="1" y1="1" y2="0"><stop offset="0%" stop-color="#4D27A8"/><stop offset="100%" stop-color="#A166FF"/></linearGradient></defs><g><path fill="url(#a)" fill-rule="evenodd" d="m 0,0 h 100 v 100 h -100 z"/><path fill="#fff" fill-rule="evenodd" d="m 23.75,77.5 h 2.5 c 0,-10.508 6.831,-21.25 57.5,-21.25 v -2.5 c -52.871,0 -60,12.005 -60,23.75 m 7.5,7.5 h 2.5 c 0,-9.457 0,-23.75 50,-23.75 v -2.5 c -22.921,0 -37.84,2.949 -45.613,9.015 -6.887,5.375 -6.887,12.23 -6.887,17.235 m -12.5,-52.5 h -2.5 c 0,9.245 12.549,15.1 37.366,17.5 -24.817,2.4 -37.366,8.255 -37.366,17.5 h 2.5 c 0,-6.069 8.445,-16.25 65,-16.25 v -2.5 c -56.555,0 -65,-10.181 -65,-16.25 m 7.5,-10 h -2.5 c 0,11.745 7.129,23.75 60,23.75 v -2.5 c -50.669,0 -57.5,-10.742 -57.5,-21.25 m 57.5,16.25 v 2.5 c -22.921,0 -37.84,-2.949 -45.613,-9.015 -6.887,-5.375 -6.887,-12.23 -6.887,-17.235 h 2.5 c 0,9.457 0,23.75 50,23.75"/></g></svg>