<svg xmlns="http://www.w3.org/2000/svg" viewBox="0 0 100 100"><defs/><defs><linearGradient id="a" x1="0" x2="1" y1="1" y2="0"><stop offset="0%" stop-color="#C8511B"/><stop offset="100%" stop-color="#F90"/></linearGradient></defs><g><path fill="url(#a)" fill-rule="evenodd" d="m 0,0 h 100 v 100 h -100 z"/><path fill="#fff" fill-rule="evenodd" d="m 61.707,54.688 v -5.086 c 0,-0.53 -0.107,-0.92 -0.322,-1.17 -0.215,-0.25 -0.552,-0.375 -1.013,-0.375 -0.79,0 -1.565,0.255 -2.325,0.765 v 5.865 h -1.485 v -7.605 h 1.245 l 0.15,0.84 c 0.95,-0.71 1.951,-1.065 3,-1.065 0.73,0 1.285,0.193 1.665,0.578 0.38,0.385 0.57,0.943 0.57,1.672 v 5.58 z m -14.025,-1.576 c 1.11,0.36 2.06,0.54 2.85,0.54 0.76,0 1.343,-0.173 1.748,-0.517 0.405,-0.345 0.607,-0.843 0.607,-1.493 0,-0.71 -0.19,-1.225 -0.57,-1.545 -0.38,-0.32 -1.001,-0.48 -1.86,-0.48 -0.62,0 -1.395,0.05 -2.325,0.15 v -0.99 l 0.285,-4.485 h 5.475 v 1.23 h -4.215 l -0.195,3.045 c 0.55,-0.1 1.045,-0.15 1.485,-0.15 1.079,0 1.925,0.285 2.535,0.855 0.61,0.57 0.915,1.355 0.915,2.355 0,0.98 -0.355,1.772 -1.066,2.378 -0.709,0.605 -1.644,0.907 -2.804,0.907 -1.02,0 -1.975,-0.2 -2.865,-0.6 z m -3.69,1.575 v -8.175 l -2.926,5.52 h -1.394 l -2.94,-5.535 v 8.19 h -1.41 v -10.395 h 1.71 l 3.36,6.375 3.345,-6.375 h 1.665 v 10.395 z m -11.492,11.563 h 32.5 v -31.25 h -32.5 z m 35,-31.25 h 5 v 2.5 h -5 v 5 h 5 v 2.5 h -5 v 3.75 h 5 v 2.5 h -5 v 5 h 5 v 2.5 h -5 v 5 h 5 v 2.5 h -5 v 0.17 c 0,1.285 -1.045,2.33 -2.33,2.33 h -0.17 v 5 h -2.5 v -5 h -5 v 5 h -2.5 v -5 h -5 v 5 h -2.5 v -5 h -5 v 5 h -2.5 v -5 h -5 v 5 h -2.5 v -5 h -0.17 c -1.285,0 -2.33,-1.045 -2.33,-2.33 v -0.17 h -5 v -2.5 h 5 v -5 h -5 v -2.5 h 5 v -5 h -5 v -2.5 h 5 v -3.75 h -5 v -2.5 h 5 v -5 h -5 v -2.5 h 5 v -0.17 c 0,-1.285 1.045,-2.33 2.33,-2.33 h 0.17 v -5 h 2.5 v 5 h 5 v -5 h 2.5 v 5 h 5 v -5 h 2.5 v 5 h 5 v -5 h 2.5 v 5 h 5 v -5 h 2.5 v 5 h 0.17 c 1.285,0 2.33,1.045 2.33,2.33 z m -16.25,47.345 c 0,0.085 -0.07,0.155 -0.155,0.155 h -33.44 c -0.086,0 -0.155,-0.07 -0.155,-0.155 v -33.44 c 0,-0.085 0.069,-0.155 0.155,-0.155 h 4.845 v -2.5 h -4.845 c -1.464,0 -2.655,1.191 -2.655,2.655 v 33.44 c 0,1.464 1.191,2.655 2.655,2.655 h 33.44 c 1.464,0 2.655,-1.191 2.655,-2.655 v -6.095 h -2.5 z m 31.095,-67.345 h -33.44 c -1.464,0 -2.655,1.191 -2.655,2.655 v 7.345 h 2.5 v -7.345 c 0,-0.085 0.069,-0.155 0.155,-0.155 h 33.44 c 0.085,0 0.155,0.07 0.155,0.155 v 33.44 c 0,0.085 -0.07,0.155 -0.155,0.155 h -7.345 v 2.5 h 7.345 c 1.464,0 2.655,-1.191 2.655,-2.655 v -33.44 c 0,-1.464 -1.191,-2.655 -2.655,-2.655 z"/></g></svg>