<svg xmlns="http://www.w3.org/2000/svg" viewBox="0 0 100 100"><defs/><defs><linearGradient id="a" x1="0" x2="1" y1="1" y2="0"><stop offset="0%" stop-color="#1B660F"/><stop offset="100%" stop-color="#6CAE3E"/></linearGradient></defs><g><path fill="url(#a)" fill-rule="evenodd" d="m 0,0 h 100 v 100 h -100 z"/><path fill="#fff" fill-rule="evenodd" d="m 74.369,55.087 c -2.414,0 -4.379,-1.967 -4.378,-4.385 0,-2.418 1.964,-4.386 4.378,-4.386 2.414,0 4.379,1.967 4.379,4.386 0,2.418 -1.964,4.386 -4.379,4.385 m -10.293,16.293 c -4.74,4.749 -11.038,7.364 -17.729,7.364 -4.736,0 -9.31,-1.334 -13.286,-3.837 0.317,-0.679 0.533,-1.413 0.615,-2.19 l 35.09,-18.03 c 0.633,0.89 1.469,1.621 2.442,2.128 -0.703,5.483 -3.21,10.636 -7.132,14.565 m -37.245,5.008 c -2.414,0 -4.379,-1.967 -4.378,-4.385 0,-2.418 1.964,-4.386 4.378,-4.386 2.414,0 4.379,1.967 4.379,4.386 0,2.418 -1.964,4.386 -4.379,4.385 m -5.579,-22.779 c 0,-6.704 2.611,-13.01 7.352,-17.759 3.936,-3.942 9.102,-6.454 14.593,-7.142 0.487,0.976 1.196,1.818 2.064,2.463 l -17.424,34.022 c -0.329,-0.048 -0.664,-0.081 -1.006,-0.082 -0.892,0 -1.744,0.177 -2.527,0.488 -1.997,-3.659 -3.052,-7.77 -3.052,-11.99 m 28.097,-32.353 c 2.414,0 4.379,1.967 4.379,4.386 0,2.418 -1.964,4.386 -4.379,4.385 -2.414,0 -4.379,-1.967 -4.378,-4.385 0,-2.418 1.964,-4.386 4.378,-4.386 m 13.817,13.735 -31.795,31.847 c -0.352,-0.311 -0.734,-0.586 -1.144,-0.821 l 17.28,-33.742 c 0.588,0.164 1.203,0.258 1.842,0.258 2.172,0 4.11,-1.016 5.372,-2.596 3.099,1.096 5.98,2.821 8.445,5.054 m 8.701,-11.229 c 2.414,0 4.379,1.967 4.379,4.386 0,2.418 -1.964,4.386 -4.379,4.385 -2.414,0 -4.379,-1.967 -4.378,-4.385 0,-2.418 1.964,-4.386 4.378,-4.386 m -4.378,26.94 c 0,0.593 0.083,1.164 0.224,1.711 l -34.291,17.619 c -0.126,-0.422 -0.293,-0.827 -0.493,-1.211 l 32.004,-32.059 c 2.262,2.502 3.999,5.437 5.098,8.597 -1.55,1.266 -2.542,3.189 -2.542,5.343 m 6.88,-6.892 c -0.736,0 -1.441,0.119 -2.107,0.333 -1.223,-3.359 -3.117,-6.471 -5.542,-9.134 l 1.242,-1.194 c 1.111,0.771 2.456,1.224 3.905,1.224 3.793,0 6.881,-3.091 6.881,-6.891 0,-3.8 -3.087,-6.892 -6.881,-6.892 -3.793,0 -6.881,3.091 -6.88,6.892 0,1.443 0.447,2.784 1.208,3.893 l -1.242,1.195 c -2.64,-2.417 -5.717,-4.31 -9.036,-5.54 0.203,-0.649 0.313,-1.339 0.313,-2.054 0,-3.8 -3.087,-6.892 -6.881,-6.892 -3.793,0 -6.881,3.091 -6.88,6.892 0,0.216 0.013,0.427 0.031,0.637 -5.895,0.826 -11.429,3.556 -15.665,7.799 -5.214,5.221 -8.085,12.158 -8.085,19.531 0,4.693 1.19,9.263 3.438,13.324 -1.371,1.261 -2.237,3.064 -2.237,5.07 0,3.8 3.087,6.892 6.88,6.891 1.854,0 3.538,-0.743 4.777,-1.942 4.404,2.804 9.481,4.298 14.739,4.298 7.361,0 14.286,-2.877 19.499,-8.098 4.213,-4.22 6.934,-9.727 7.78,-15.6 0.245,0.026 0.492,0.041 0.743,0.041 3.793,0 6.881,-3.091 6.881,-6.891 0,-3.8 -3.087,-6.892 -6.881,-6.892"/></g></svg>