<svg xmlns="http://www.w3.org/2000/svg" viewBox="0 0 100 100"><defs/><defs><linearGradient id="a" x1="0" x2="1" y1="1" y2="0"><stop offset="0%" stop-color="#B0084D"/><stop offset="100%" stop-color="#FF4F8B"/></linearGradient></defs><g><path fill="url(#a)" fill-rule="evenodd" d="m 0,0 h 100 v 100 h -100 z"/><path fill="#fff" fill-rule="evenodd" d="m 66.25,49.954 h 6.25 v -2.504 h -6.25 z m -31.25,15.023 h 6.25 v -2.504 h -6.25 z m -12.5,0 h 8.75 v -2.504 h -8.75 z m 0,-7.511 h 15 v -2.504 h -15 z m 0,-15.023 h 11.25 v -2.504 h -11.25 z m 0,7.511 h 41.25 v -2.504 h -41.25 z m 23.75,27.542 h -28.75 v -42.565 h 28.75 v 10.015 h 2.5 v -11.267 c 0,-0.691 -0.56,-1.252 -1.25,-1.252 h -31.25 c -0.691,0 -1.25,0.561 -1.25,1.252 v 45.069 c 0,0.691 0.559,1.252 1.25,1.252 h 31.25 c 0.69,0 1.25,-0.561 1.25,-1.252 v -25.038 h -2.5 z m 38.75,-31.298 c 0,8.09 -7.284,10.904 -11.135,11.262 l -20.115,0.005 v -2.503 h 20 c 0.244,-0.029 8.75,-0.946 8.75,-8.764 0,-7.118 -6.421,-8.563 -7.708,-8.781 -0.641,-0.109 -1.093,-0.69 -1.037,-1.338 0.001,-0.024 0.004,-0.046 0.006,-0.069 -0.069,-4.022 -2.535,-5.279 -3.603,-5.635 -1.995,-0.664 -4.219,-0.029 -5.395,1.549 -0.274,0.371 -0.726,0.56 -1.187,0.489 -0.455,-0.069 -0.836,-0.382 -0.991,-0.817 -0.776,-2.176 -1.903,-3.585 -3.469,-5.154 -3.917,-3.893 -9.235,-4.969 -14.21,-2.876 -2.61,1.1 -4.891,3.594 -6.254,6.843 l -2.305,-0.971 c 1.615,-3.845 4.382,-6.827 7.59,-8.179 5.944,-2.503 12.276,-1.227 16.943,3.409 1.338,1.341 2.445,2.647 3.307,4.336 1.866,-1.382 4.384,-1.795 6.759,-1.005 3.04,1.012 4.963,3.652 5.273,7.162 4.258,1.074 8.781,4.478 8.781,11.037 z"/></g></svg>