<svg xmlns="http://www.w3.org/2000/svg" viewBox="0 0 100 100"><defs/><defs><linearGradient id="a" x1="0" x2="1" y1="1" y2="0"><stop offset="0%" stop-color="#2E27AD"/><stop offset="100%" stop-color="#527FFF"/></linearGradient></defs><g><path fill="url(#a)" fill-rule="evenodd" d="m 0,0 h 100 v 100 h -100 z"/><path fill="#fff" fill-rule="evenodd" d="m 76.205,71.25 h 2.513 v -3.75 h -2.513 z m -3.77,0 h 2.513 v -3.75 h -2.513 z m -3.769,0 h 2.513 v -3.75 h -2.513 z m 13.821,10 h -30.155 v -8.232 l 5.185,-5.159 6.682,4.431 c 0.384,0.258 0.881,0.28 1.291,0.063 0.408,-0.217 0.663,-0.641 0.663,-1.103 v -6.25 h 16.334 z m 1.257,-18.75 h -18.847 c -0.695,0 -1.256,0.56 -1.257,1.25 v 5.164 l -5.585,-3.704 c -0.496,-0.33 -1.161,-0.265 -1.585,0.156 l -6.283,6.25 c -0.236,0.234 -0.368,0.552 -0.368,0.884 v 10 c 0,0.69 0.562,1.25 1.257,1.25 h 32.668 c 0.695,0 1.256,-0.56 1.256,-1.25 v -18.75 c 0,-0.69 -0.562,-1.25 -1.256,-1.25 z m -65.336,-33.75 h -2.513 v -11.25 c 0,-0.69 0.562,-1.25 1.256,-1.25 h 11.308 v 2.5 h -8.275 l 9.164,9.116 -1.777,1.768 -9.163,-9.117 z m 12.196,37.134 -9.163,9.116 h 8.275 v 2.5 h -11.308 c -0.695,0 -1.256,-0.56 -1.257,-1.25 v -11.25 h 2.513 v 8.232 l 9.163,-9.116 z m 33.404,-38.018 9.164,-9.116 h -8.275 v -2.5 h 11.308 c 0.695,0 1.256,0.56 1.256,1.25 v 11.25 h -2.513 v -8.232 l -9.163,9.116 z m 11.351,18.445 c 0,-3.429 -4.029,-6.833 -10.778,-9.105 l 0.806,-2.367 c 7.935,2.671 12.485,6.853 12.485,11.472 0,4.62 -4.551,8.801 -12.485,11.474 l -0.806,-2.369 c 6.748,-2.271 10.778,-5.676 10.778,-9.105 z m -60.359,0 c 0,-4.447 4.281,-8.534 11.747,-11.212 l 0.85,2.351 c -6.314,2.266 -10.084,5.579 -10.084,8.861 0,3.281 3.771,6.594 10.086,8.861 l -0.854,2.352 c -7.465,-2.68 -11.745,-6.766 -11.745,-11.213 z m 31.678,13.689 c -7.352,0 -10.68,-1.917 -10.68,-2.5 v -3.087 c 2.63,1.314 6.903,1.837 10.773,1.837 3.797,0 7.991,-0.519 10.587,-1.817 v 3.067 c 0,0.583 -3.33,2.5 -10.68,2.5 z m -10.68,-13.087 c 2.63,1.314 6.903,1.837 10.773,1.837 3.797,0 7.991,-0.519 10.587,-1.817 v 4.317 c 0,0.689 -3.255,2.5 -10.587,2.5 -7.531,0 -10.773,-1.897 -10.773,-2.5 z m 0,-7.564 c 2.563,1.291 6.716,1.901 10.68,1.901 3.964,0 8.117,-0.61 10.68,-1.901 v 4.401 c 0,0.689 -3.255,2.5 -10.587,2.5 -7.531,0 -10.773,-1.897 -10.773,-2.5 z m 10.68,-5.599 c 6.728,0 10.525,1.747 10.679,2.5 -0.153,0.752 -3.95,2.5 -10.679,2.5 -6.745,0 -10.544,-1.756 -10.68,-2.495 0.136,-0.749 3.935,-2.505 10.68,-2.505 z m 13.193,23.75 v -21.25 c 0,-3.435 -6.84,-5 -13.193,-5 -6.354,0 -13.193,1.565 -13.193,5 v 21.25 c 0,3.454 6.625,5 13.193,5 6.566,0 13.193,-1.546 13.193,-5 z"/></g></svg>