<svg xmlns="http://www.w3.org/2000/svg" viewBox="0 0 100 100"><defs/><defs><linearGradient id="a" x1="0" x2="1" y1="1" y2="0"><stop offset="0%" stop-color="#BD0816"/><stop offset="100%" stop-color="#FF5252"/></linearGradient></defs><g><path fill="url(#a)" fill-rule="evenodd" d="m 0,0 h 100 v 100 h -100 z"/><path fill="#fff" fill-rule="evenodd" d="m 64.996,65.62 h 8.75 v -2.5 h -8.75 z m -11.25,0 h 8.75 v -2.5 h -8.75 z m -11.25,0 h 8.75 v -2.5 h -8.75 z m 13.75,-10 c 0,-1.379 1.123,-2.5 2.5,-2.5 1.379,0 2.5,1.121 2.5,2.5 0,1.379 -1.121,2.5 -2.5,2.5 -1.378,0 -2.5,-1.121 -2.5,-2.5 z m 7.5,0 c 0,-2.757 -2.241,-5 -5,-5 -2.757,0 -5,2.243 -5,5 0,2.757 2.243,5 5,5 2.759,0 5,-2.243 5,-5 z m -17.5,-2.5 c 1.379,0 2.5,1.121 2.5,2.5 0,1.379 -1.121,2.5 -2.5,2.5 -1.378,0 -2.5,-1.121 -2.5,-2.5 0,-1.379 1.123,-2.5 2.5,-2.5 z m 0,7.5 c 2.759,0 5,-2.243 5,-5 0,-2.757 -2.241,-5 -5,-5 -2.757,0 -5,2.243 -5,5 0,2.757 2.243,5 5,5 z m 36.25,-18.75 v 28.75 c 0,0.69 -0.559,1.25 -1.25,1.25 h -38.75 v -2.5 h 37.5 v -26.25 h -27.5 v -2.5 h 28.75 c 0.691,0 1.25,0.56 1.25,1.25 z m -44.126,6.309 c -0.52,0.164 -0.874,0.646 -0.874,1.191 v 26.3 l -2.999,2.572 -3.251,-3.717 v -3.28 c 0,-0.331 -0.131,-0.65 -0.366,-0.883 l -2.865,-2.867 2.865,-2.866 c 0.235,-0.234 0.366,-0.552 0.366,-0.884 v -2.5 c 0,-0.331 -0.131,-0.65 -0.366,-0.883 l -2.865,-2.867 2.865,-2.866 c 0.235,-0.234 0.366,-0.552 0.366,-0.884 v -4.362 c 0,-0.545 -0.352,-1.027 -0.872,-1.191 -6.428,-2.037 -10.228,-8.649 -8.837,-15.38 1.002,-4.85 4.732,-8.739 9.502,-9.908 4.061,-0.996 8.226,-0.125 11.426,2.384 3.197,2.509 5.031,6.275 5.031,10.332 0,5.691 -3.752,10.856 -9.126,12.559 z m 11.626,-12.559 c 0,-4.83 -2.183,-9.314 -5.989,-12.3 -3.806,-2.986 -8.746,-4.025 -13.563,-2.843 -5.701,1.396 -10.157,6.04 -11.355,11.828 v 0.002 c -1.587,7.681 2.536,15.236 9.657,17.962 v 2.959 l -3.384,3.384 c -0.488,0.489 -0.488,1.279 0,1.767 l 3.384,3.384 v 1.465 l -3.384,3.384 c -0.488,0.489 -0.488,1.279 0,1.767 l 3.384,3.384 v 3.232 c 0,0.302 0.11,0.595 0.31,0.824 l 4.375,5 c 0.247,0.281 0.593,0.426 0.94,0.426 0.289,0 0.578,-0.099 0.814,-0.301 l 4.375,-3.75 c 0.278,-0.237 0.436,-0.584 0.436,-0.949 v -25.99 c 5.933,-2.29 10,-8.178 10,-14.635 z m -15.625,2.963 c -1.722,0 -3.125,-1.401 -3.125,-3.125 0,-1.722 1.403,-3.125 3.125,-3.125 1.724,0 3.125,1.403 3.125,3.125 0,1.724 -1.401,3.125 -3.125,3.125 z m 0,-8.75 c -3.101,0 -5.625,2.524 -5.625,5.625 0,3.103 2.524,5.625 5.625,5.625 3.103,0 5.625,-2.522 5.625,-5.625 0,-3.101 -2.522,-5.625 -5.625,-5.625 z"/></g></svg>