<svg xmlns="http://www.w3.org/2000/svg" viewBox="0 0 100 100"><defs/><defs><linearGradient id="a" x1="0" x2="1" y1="1" y2="0"><stop offset="0%" stop-color="#B0084D"/><stop offset="100%" stop-color="#FF4F8B"/></linearGradient></defs><g><path fill="url(#a)" fill-rule="evenodd" d="m 0,0 h 100 v 100 h -100 z"/><path fill="#fff" fill-rule="evenodd" d="m 81.25,23.75 c 0,-2.804 -2.196,-5 -5,-5 -2.804,0 -5,2.196 -5,5 0,2.804 2.196,5 5,5 2.804,0 5,-2.196 5,-5 z m 2.5,0 c 0,4.205 -3.295,7.5 -7.5,7.5 -4.205,0 -7.5,-3.295 -7.5,-7.5 0,-4.205 3.295,-7.5 7.5,-7.5 4.205,0 7.5,3.295 7.5,7.5 z m -12.5,53.829 c 0,-2.848 -2.196,-5.079 -5,-5.079 -2.804,0 -5,2.231 -5,5.079 0,2.76 2.196,4.921 5,4.921 2.804,0 5,-2.161 5,-4.921 z m 2.5,0 c 0,4.161 -3.295,7.421 -7.5,7.421 -4.205,0 -7.5,-3.26 -7.5,-7.421 0,-4.179 3.364,-7.579 7.5,-7.579 4.136,0 7.5,3.4 7.5,7.579 z m -48.75,-36.329 c 2.804,0 5,-2.196 5,-5 0,-2.804 -2.196,-5 -5,-5 -2.804,0 -5,2.196 -5,5 0,2.804 2.196,5 5,5 z m 0,2.5 c -4.205,0 -7.5,-3.295 -7.5,-7.5 0,-4.205 3.295,-7.5 7.5,-7.5 4.205,0 7.5,3.295 7.5,7.5 0,4.205 -3.295,7.5 -7.5,7.5 z m 20.495,8.998 -5.334,3.26 1.304,2.132 5.332,-3.26 z m -7.229,7.348 -1.304,-2.132 -5.332,3.26 1.304,2.132 z m 30.172,0.717 -5.408,-3.132 -1.252,2.163 5.407,3.132 z m -14.062,-8.144 -1.252,2.162 5.407,3.133 1.253,-2.163 z m -5.626,-16.419 h 2.5 v -6.25 h -2.5 z m 0,10 h 2.5 v -6.25 h -2.5 z m 30,-10 v 31.25 c 0,0.443 -0.234,0.851 -0.614,1.076 l -5,2.955 -1.272,-2.152 3.156,-1.865 -4.589,-2.659 1.253,-2.162 4.566,2.646 v -26.989 l -25,13.643 v 29.55 l 4.356,-2.614 1.288,2.142 -6.25,3.75 c -0.199,0.12 -0.421,0.179 -0.644,0.179 -0.229,0 -0.456,-0.063 -0.657,-0.187 l -26.25,-16.25 c -0.369,-0.227 -0.593,-0.63 -0.593,-1.063 v -20 h 2.5 v 17.777 l 3.43,-2.097 1.304,2.132 -3.594,2.198 22.61,13.996 v -29.517 l -16.189,-8.902 1.204,-2.191 16.238,8.929 24.961,-13.623 -23.714,-14.012 v 4.06 h -2.5 v -4.013 l -14.345,8.828 -1.31,-2.13 16.25,-10 c 0.398,-0.242 0.892,-0.246 1.291,-0.011 l 27.5,16.25 c 0.38,0.225 0.614,0.634 0.614,1.076 z"/></g></svg>