<svg xmlns="http://www.w3.org/2000/svg" viewBox="0 0 100 100"><defs/><defs><linearGradient id="a" x1="0" x2="1" y1="1" y2="0"><stop offset="0%" stop-color="#C8511B"/><stop offset="100%" stop-color="#F90"/></linearGradient></defs><g><path fill="url(#a)" fill-rule="evenodd" d="m 0,0 h 100 v 100 h -100 z"/><path fill="#fff" fill-rule="evenodd" d="m 40,51.25 h 3.75 v -2.5 h -3.75 z m -7.5,0 h 3.75 v -2.5 h -3.75 z m -7.5,0 h 3.75 v -2.5 h -3.75 z m -7.5,0 h 3.75 v -2.5 h -3.75 z m 57.034,8.015 2.895,-0.965 -2.895,-0.965 -0.965,-2.894 -0.964,2.894 -2.894,0.965 2.894,0.965 0.964,2.894 z m -28.406,3.407 -0.965,2.895 -2.895,0.965 2.895,0.964 0.965,2.895 0.965,-2.895 2.893,-0.964 -2.893,-0.965 z m 0,-31.099 -0.965,2.893 -2.895,0.965 2.895,0.965 0.965,2.895 0.965,-2.895 2.893,-0.965 -2.893,-0.965 z m 4.605,18.343 c 4.589,3.006 7.814,8.873 9.142,16.649 2.557,-3.353 6.633,-9.774 6.633,-16.649 0,-6.843 -3.601,-12.857 -6.624,-16.7 -1.323,7.801 -4.554,13.686 -9.151,16.7 z m -3.122,1.149 c -0.459,-0.198 -0.757,-0.649 -0.757,-1.149 0,-0.5 0.299,-0.953 0.757,-1.148 5.463,-2.343 9.171,-9.136 10.174,-18.638 0.051,-0.49 0.386,-0.905 0.855,-1.057 0.468,-0.154 0.984,-0.015 1.315,0.351 3.381,3.743 9.053,11.381 9.053,20.492 0,9.679 -6.929,18.124 -9.053,20.482 -0.241,0.268 -0.581,0.413 -0.929,0.412 -0.13,0 -0.259,-0.02 -0.386,-0.06 -0.47,-0.152 -0.805,-0.568 -0.856,-1.059 -1.004,-9.495 -4.711,-16.285 -10.173,-18.626 z m 36.139,-1.065 c 0,15.853 -12.896,28.75 -28.75,28.75 -14.309,0 -26.555,-10.675 -28.485,-24.831 l 2.478,-0.338 c 1.762,12.924 12.942,22.669 26.007,22.669 14.474,0 26.25,-11.775 26.25,-26.25 0,-14.475 -11.776,-26.25 -26.25,-26.25 -12.674,0 -23.531,9.033 -25.817,21.476 l -2.459,-0.452 c 2.505,-13.63 14.396,-23.524 28.276,-23.524 15.854,0 28.75,12.897 28.75,28.75 z"/></g></svg>