<svg xmlns="http://www.w3.org/2000/svg" viewBox="0 0 100 100"><defs/><defs><linearGradient id="a" x1="0" x2="1" y1="1" y2="0"><stop offset="0%" stop-color="#BD0816"/><stop offset="100%" stop-color="#FF5252"/></linearGradient></defs><g><path fill="url(#a)" fill-rule="evenodd" d="m 0,0 h 100 v 100 h -100 z"/><path fill="#fff" fill-rule="evenodd" d="m 82.454,44.892 c 0,-2.058 -1.674,-3.73 -3.73,-3.73 -2.058,0 -3.731,1.673 -3.732,3.73 0,2.058 1.674,3.73 3.732,3.73 2.056,0 3.73,-1.673 3.73,-3.73 z m -23.657,-0.622 c 0,-2.4 -1.953,-4.353 -4.352,-4.353 -2.4,0 -4.354,1.953 -4.354,4.353 0,2.4 1.954,4.353 4.354,4.352 2.4,0 4.353,-1.953 4.352,-4.352 z m -17.981,14.852 -6.875,6.859 -1.765,-1.77 6.789,-6.772 c -1.278,-0.843 -2.801,-1.336 -4.443,-1.337 -4.459,0 -8.086,3.629 -8.086,8.089 0,4.46 3.628,8.088 8.086,8.088 4.461,0 8.089,-3.628 8.089,-8.088 0,-1.919 -0.675,-3.681 -1.795,-5.069 z m 44.138,-14.23 c 0,3.436 -2.795,6.23 -6.23,6.23 -0.216,0 -0.42,-0.041 -0.63,-0.062 l -4.835,15.715 -2.392,-0.735 4.842,-15.73 c -1.559,-0.87 -2.721,-2.367 -3.089,-4.168 h -11.589 c -0.818,2.87 -3.458,4.98 -6.586,4.98 -1.573,0 -3.019,-0.537 -4.176,-1.431 l -7.678,7.66 c 1.569,1.846 2.52,4.234 2.52,6.84 0,5.838 -4.75,10.588 -10.589,10.588 -5.838,0 -10.586,-4.75 -10.586,-10.588 0,-5.839 4.749,-10.589 10.586,-10.589 2.333,0 4.482,0.767 6.235,2.049 l 7.842,-7.824 c -0.635,-1.039 -1.008,-2.254 -1.008,-3.557 0,-3.779 3.074,-6.853 6.854,-6.853 3.567,0 6.502,2.74 6.821,6.225 h 11.354 c 0.58,-2.839 3.096,-4.98 6.104,-4.98 3.435,0 6.23,2.794 6.23,6.23 z m -11.217,27.392 c 0,-2.056 -1.674,-3.73 -3.73,-3.73 -2.058,0 -3.729,1.674 -3.728,3.73 0,2.058 1.671,3.73 3.728,3.73 2.056,0 3.73,-1.673 3.73,-3.73 z m 2.5,0 c 0,3.436 -2.795,6.23 -6.23,6.23 -3.435,0 -6.229,-2.794 -6.228,-6.23 0,-3.435 2.794,-6.23 6.228,-6.23 3.435,0 6.23,2.795 6.23,6.23 z m -34.861,-49.18 c 0,2.4 1.953,4.353 4.353,4.352 2.4,0 4.354,-1.953 4.354,-4.352 0,-2.401 -1.954,-4.354 -4.354,-4.354 -2.4,0 -4.353,1.953 -4.353,4.354 z m -2.5,0 c 0,-3.779 3.074,-6.854 6.853,-6.854 3.78,0 6.854,3.075 6.854,6.854 0,2.625 -1.486,4.909 -3.66,6.058 l 3.501,8.169 -2.298,0.985 -3.605,-8.409 c -0.26,0.03 -0.524,0.049 -0.792,0.049 -3.779,0 -6.853,-3.074 -6.853,-6.852 z m 12.084,32.545 c 1.385,2.7 2.089,5.62 2.089,8.676 0,10.49 -8.535,19.025 -19.024,19.025 -10.491,0 -19.025,-8.535 -19.025,-19.025 0,-10.49 8.534,-19.024 19.025,-19.024 3.015,0 6.016,0.722 8.681,2.091 l -1.142,2.224 c -2.346,-1.205 -4.883,-1.815 -7.539,-1.815 -9.111,0 -16.525,7.412 -16.525,16.524 0,9.111 7.414,16.525 16.525,16.525 9.111,0 16.524,-7.414 16.524,-16.525 0,-2.656 -0.611,-5.19 -1.814,-7.534 z"/></g></svg>