<svg xmlns="http://www.w3.org/2000/svg" viewBox="0 0 100 100"><defs/><defs><linearGradient id="a" x1="0" x2="1" y1="1" y2="0"><stop offset="0%" stop-color="#C8511B"/><stop offset="100%" stop-color="#F90"/></linearGradient></defs><g><path fill="url(#a)" fill-rule="evenodd" d="m 0,0 h 100 v 100 h -100 z"/><path fill="#fff" fill-rule="evenodd" d="m 61.002,56.25 v -5.933 c 0,-0.619 -0.126,-1.073 -0.376,-1.365 -0.251,-0.291 -0.644,-0.438 -1.181,-0.437 -0.921,0 -1.826,0.297 -2.713,0.892 v 6.843 h -1.732 v -8.873 h 1.452 l 0.175,0.98 c 1.109,-0.829 2.275,-1.242 3.5,-1.242 0.851,0 1.499,0.225 1.943,0.674 0.444,0.449 0.665,1.1 0.665,1.951 v 6.51 z m -15.335,-1.837 c 1.296,0.42 2.404,0.63 3.327,0.63 0.886,0 1.566,-0.201 2.037,-0.604 0.473,-0.403 0.709,-0.983 0.709,-1.741 0,-0.828 -0.221,-1.429 -0.664,-1.803 -0.445,-0.374 -1.167,-0.56 -2.171,-0.56 -0.724,0 -1.626,0.059 -2.713,0.175 v -1.155 l 0.333,-5.232 h 6.387 v 1.435 h -4.916 l -0.229,3.552 c 0.643,-0.116 1.22,-0.175 1.733,-0.175 1.261,0 2.246,0.333 2.957,0.998 0.711,0.665 1.069,1.581 1.069,2.747 0,1.144 -0.415,2.067 -1.244,2.774 -0.829,0.706 -1.919,1.059 -3.272,1.059 -1.19,0 -2.305,-0.234 -3.343,-0.7 z m -8.715,-4.463 h 2.468 c 0.746,0 1.315,-0.186 1.707,-0.56 0.39,-0.374 0.585,-0.927 0.585,-1.662 0,-0.722 -0.186,-1.269 -0.56,-1.637 -0.374,-0.367 -0.927,-0.551 -1.662,-0.551 h -2.538 z m -1.732,6.3 v -12.127 h 4.427 c 1.177,0 2.117,0.324 2.818,0.971 0.7,0.647 1.05,1.52 1.05,2.616 0,0.805 -0.219,1.502 -0.656,2.091 -0.438,0.59 -1.052,1.017 -1.847,1.287 l 3.22,5.162 h -1.942 l -2.975,-4.882 h -2.363 v 4.882 z m -2.72,10 h 32.5 v -31.25 h -32.5 z m 35,-31.25 h 5 v 2.5 h -5 v 5 h 5 v 2.5 h -5 v 3.75 h 5 v 2.5 h -5 v 5 h 5 v 2.5 h -5 v 5 h 5 v 2.5 h -5 v 0.17 c 0,1.285 -1.045,2.33 -2.33,2.33 h -0.17 v 5 h -2.5 v -5 h -5 v 5 h -2.5 v -5 h -5 v 5 h -2.5 v -5 h -5 v 5 h -2.5 v -5 h -5 v 5 h -2.5 v -5 h -0.169 c -1.286,0 -2.331,-1.045 -2.331,-2.33 v -0.17 h -5 v -2.5 h 5 v -5 h -5 v -2.5 h 5 v -5 h -5 v -2.5 h 5 v -3.75 h -5 v -2.5 h 5 v -5 h -5 v -2.5 h 5 v -0.17 c 0,-1.285 1.045,-2.33 2.331,-2.33 h 0.169 v -5 h 2.5 v 5 h 5 v -5 h 2.5 v 5 h 5 v -5 h 2.5 v 5 h 5 v -5 h 2.5 v 5 h 5 v -5 h 2.5 v 5 h 0.17 c 1.285,0 2.33,1.045 2.33,2.33 z m -16.25,47.345 c 0,0.085 -0.069,0.155 -0.155,0.155 h -33.44 c -0.085,0 -0.155,-0.07 -0.155,-0.155 v -33.44 c 0,-0.085 0.07,-0.155 0.155,-0.155 h 4.845 v -2.5 h -4.845 c -1.464,0 -2.655,1.191 -2.655,2.655 v 33.44 c 0,1.464 1.191,2.655 2.655,2.655 h 33.44 c 1.464,0 2.655,-1.191 2.655,-2.655 v -6.095 h -2.5 z m 31.095,-67.345 h -33.44 c -1.464,0 -2.655,1.191 -2.655,2.655 v 7.345 h 2.5 v -7.345 c 0,-0.085 0.07,-0.155 0.155,-0.155 h 33.44 c 0.086,0 0.155,0.07 0.155,0.155 v 33.44 c 0,0.085 -0.069,0.155 -0.155,0.155 h -7.345 v 2.5 h 7.345 c 1.464,0 2.655,-1.191 2.655,-2.655 v -33.44 c 0,-1.464 -1.191,-2.655 -2.655,-2.655 z"/></g></svg>