<svg xmlns="http://www.w3.org/2000/svg" viewBox="0 0 100 100"><defs/><defs><linearGradient id="a" x1="0" x2="1" y1="1" y2="0"><stop offset="0%" stop-color="#BD0816"/><stop offset="100%" stop-color="#FF5252"/></linearGradient></defs><g><path fill="url(#a)" fill-rule="evenodd" d="m 0,0 h 100 v 100 h -100 z"/><path fill="#fff" fill-rule="evenodd" d="m 78.75,50 c -2.067,0 -3.75,-1.683 -3.75,-3.75 0,-2.067 1.683,-3.75 3.75,-3.75 2.067,0 3.75,1.683 3.75,3.75 0,2.067 -1.683,3.75 -3.75,3.75 m 6.25,-3.75 c 0,-3.446 -2.804,-6.25 -6.25,-6.25 -0.112,0 -0.217,0.027 -0.33,0.033 -0.694,-1.774 -1.536,-3.474 -2.527,-5.064 l -2.122,1.322 c 0.859,1.378 1.601,2.846 2.22,4.379 -2.059,1.024 -3.491,3.129 -3.491,5.58 0,3.184 2.402,5.79 5.485,6.172 -0.227,5.735 -2.112,11.166 -5.528,15.767 l 2.007,1.49 c 3.779,-5.086 5.838,-11.106 6.028,-17.457 2.595,-0.761 4.508,-3.135 4.508,-5.972 m -15,-13.75 c -2.067,0 -3.75,-1.683 -3.75,-3.75 0,-2.067 1.683,-3.75 3.75,-3.75 2.067,0 3.75,1.683 3.75,3.75 0,2.067 -1.683,3.75 -3.75,3.75 m 6.25,-3.75 c 0,-3.446 -2.804,-6.25 -6.25,-6.25 -3.446,0 -6.25,2.804 -6.25,6.25 0,3.446 2.804,6.25 6.25,6.25 3.446,0 6.25,-2.804 6.25,-6.25 m -42.5,-5 c 0,-2.067 1.683,-3.75 3.75,-3.75 2.067,0 3.75,1.683 3.75,3.75 0,2.067 -1.683,3.75 -3.75,3.75 -2.067,0 -3.75,-1.683 -3.75,-3.75 m 10,0 c 0,-3.446 -2.804,-6.25 -6.25,-6.25 -3.446,0 -6.25,2.804 -6.25,6.25 0,3.446 2.804,6.25 6.25,6.25 3.446,0 6.25,-2.804 6.25,-6.25 m 1.535,-0.659 -0.376,-2.471 c 6.603,-1.002 13.441,0.195 19.237,3.316 l -1.186,2.202 c -5.322,-2.868 -11.605,-3.967 -17.675,-3.047 m -20.285,21.909 c 0,2.067 -1.683,3.75 -3.75,3.75 -2.067,0 -3.75,-1.683 -3.75,-3.75 0,-2.067 1.683,-3.75 3.75,-3.75 2.067,0 3.75,1.683 3.75,3.75 m 6.679,-15.922 -1.565,-1.95 c -3.871,3.104 -6.925,7.109 -8.919,11.627 -3.42,0.03 -6.195,2.817 -6.195,6.245 0,2.479 1.462,4.607 3.56,5.616 -0.005,0.217 -0.025,0.431 -0.025,0.65 0,8.966 3.89,17.494 10.674,23.397 l 1.641,-1.887 c -6.238,-5.427 -9.815,-13.268 -9.815,-21.51 0,-0.013 0.001,-0.025 0.001,-0.037 0.073,0.003 0.14,0.021 0.214,0.021 3.446,0 6.25,-2.804 6.25,-6.25 0,-2.576 -1.567,-4.791 -3.799,-5.746 1.834,-3.945 4.564,-7.44 7.978,-10.176 m 32.791,41.701 c -2.037,7.859 -11.829,9.909 -14.846,10.36 -0.745,-2.53 -2.438,-9.97 0.865,-17.079 0.209,-0.441 0.428,-0.882 0.672,-1.32 1.883,-3.365 3.4,-6.508 2.905,-10.879 -0.244,-2.159 -1.61,-5.229 -2.915,-7.76 3.534,3.035 7.847,8.828 6.311,18.399 -0.083,0.511 0.159,1.02 0.607,1.279 0.448,0.261 1.009,0.217 1.411,-0.107 0.122,-0.099 2.637,-2.18 3.736,-7.272 1.518,1.939 3.369,6.175 1.254,14.379 m -27.513,-8.596 c 0.11,-0.188 0.22,-0.375 0.347,-0.57 2.579,-4.043 1.64,-9.68 0.816,-12.769 2.349,1.264 4.482,4.452 5.241,5.861 0.236,0.434 0.691,0.686 1.199,0.653 0.494,-0.039 0.917,-0.364 1.082,-0.83 2.353,-6.689 0.854,-11.563 -0.856,-14.508 0.663,0.311 1.268,0.681 1.828,1.099 1.385,2.261 4.634,8.07 4.97,11.025 0.411,3.638 -0.877,6.289 -2.607,9.379 -0.273,0.49 -0.519,0.98 -0.753,1.477 -3.161,6.806 -2.261,13.707 -1.402,17.337 -2.763,-1.301 -5.078,-2.906 -6.587,-3.958 -4.558,-3.167 -6.006,-9.389 -3.278,-14.197 m 25.987,-9.362 c -0.366,-0.2 -0.81,-0.205 -1.182,-0.01 -0.371,0.194 -0.619,0.561 -0.662,0.977 -0.16,1.55 -0.468,2.843 -0.831,3.904 -0.478,-12.83 -11.036,-18.045 -12.124,-18.547 -1.799,-1.349 -3.952,-2.239 -6.596,-2.702 -0.551,-0.099 -1.107,0.191 -1.347,0.705 -0.239,0.511 -0.103,1.123 0.332,1.487 0.229,0.194 5.112,4.417 3.478,12.447 -1.651,-2.274 -4.455,-5.269 -7.762,-5.269 -0.413,0 -0.797,0.204 -1.03,0.544 -0.234,0.34 -0.285,0.774 -0.136,1.159 0.033,0.08 3.078,8.106 0.117,12.745 -0.141,0.219 -0.271,0.436 -0.439,0.724 -3.34,5.886 -1.561,13.55 4.045,17.447 2.024,1.41 5.409,3.77 9.52,5.245 v -0.001 c 0.134,0.048 0.274,0.075 0.423,0.075 0.037,0 0.101,-0.001 0.139,-0.005 1.552,-0.141 15.24,-1.686 18.002,-12.34 3.666,-14.229 -3.635,-18.414 -3.947,-18.585"/></g></svg>