<svg xmlns="http://www.w3.org/2000/svg" viewBox="0 0 100 100"><defs/><defs><linearGradient id="a" x1="0" x2="1" y1="1" y2="0"><stop offset="0%" stop-color="#C8511B"/><stop offset="100%" stop-color="#F90"/></linearGradient></defs><g><path fill="url(#a)" fill-rule="evenodd" d="m 0,0 h 100 v 100 h -100 z"/><path fill="#fff" fill-rule="evenodd" d="m 76.25,42.023 -6.25,-3.125 -6.25,3.125 v 8.455 l 6.25,3.125 6.25,-3.125 z m -20,-12.5 -6.25,-3.125 -6.25,3.125 v 8.455 l 6.25,3.125 6.25,-3.125 z m -20,12.5 -6.25,-3.125 -6.25,3.125 v 8.455 l 6.25,3.125 6.25,-3.125 z m 42.5,-0.773 v 10 c 0,0.474 -0.268,0.906 -0.691,1.118 l -7.5,3.75 c -0.175,0.089 -0.367,0.133 -0.559,0.132 -0.191,0 -0.384,-0.044 -0.559,-0.132 l -7.5,-3.75 c -0.424,-0.211 -0.691,-0.644 -0.691,-1.118 v -9.227 l -3.75,-1.875 -6.941,3.47 c -0.351,0.176 -0.766,0.176 -1.118,0 l -6.941,-3.47 -3.75,1.875 v 9.227 c 0,0.474 -0.268,0.906 -0.691,1.118 l -7.5,3.75 c -0.351,0.176 -0.766,0.176 -1.118,0 l -7.5,-3.75 c -0.424,-0.211 -0.691,-0.644 -0.691,-1.118 v -10 c 0,-0.474 0.268,-0.906 0.691,-1.119 l 7.5,-3.75 c 0.351,-0.175 0.766,-0.175 1.118,0 l 6.941,3.472 3.75,-1.875 v -9.228 c 0,-0.474 0.268,-0.906 0.691,-1.118 l 7.5,-3.75 c 0.351,-0.175 0.766,-0.175 1.118,0 l 7.5,3.75 c 0.424,0.212 0.691,0.645 0.691,1.118 v 9.228 l 3.75,1.875 6.941,-3.472 c 0.351,-0.175 0.766,-0.175 1.118,0 l 7.5,3.75 c 0.424,0.212 0.691,0.645 0.691,1.119 z m -34.356,27.678 -1.288,2.143 6.251,3.75 c 0.199,0.119 0.421,0.179 0.644,0.179 0.222,0 0.445,-0.06 0.644,-0.179 l 6.249,-3.75 -1.288,-2.143 -4.356,2.615 v -19.337 l 4.356,2.615 1.288,-2.143 -6.25,-3.75 c -0.396,-0.239 -0.891,-0.239 -1.288,0 l -6.25,3.75 1.288,2.143 4.356,-2.615 v 19.335 z m -14.364,-38.702 5.576,3.345 c 0.388,0.232 0.869,0.239 1.26,0.017 0.393,-0.221 0.634,-0.637 0.634,-1.088 v -6.757 l 12.5,-6.819 12.5,6.819 v 6.757 c 0,0.45 0.241,0.866 0.634,1.088 0.393,0.222 0.874,0.216 1.26,-0.017 l 5.576,-3.345 6.842,4.504 1.375,-2.089 -7.5,-4.936 c -0.401,-0.263 -0.917,-0.274 -1.331,-0.027 l -4.356,2.615 v -5.293 c 0,-0.457 -0.25,-0.879 -0.651,-1.097 l -13.75,-7.5 c -0.371,-0.204 -0.826,-0.204 -1.198,0 l -13.75,7.5 c -0.401,0.219 -0.651,0.64 -0.651,1.097 v 5.293 l -4.356,-2.615 c -0.414,-0.246 -0.93,-0.236 -1.331,0.027 l -7.5,4.936 1.375,2.089 z m 48.72,35.935 c 0.003,0.444 -0.231,0.856 -0.611,1.083 l -27.5,16.331 c -0.196,0.116 -0.418,0.175 -0.639,0.175 -0.221,0 -0.443,-0.059 -0.639,-0.175 l -27.5,-16.332 c -0.38,-0.226 -0.614,-0.639 -0.611,-1.083 0.003,-0.444 0.24,-0.852 0.625,-1.075 l 15,-8.667 1.25,2.165 -13.151,7.6 25.026,14.863 25.026,-14.862 -13.151,-7.601 1.25,-2.165 15,8.668 c 0.385,0.222 0.623,0.631 0.625,1.075 z"/></g></svg>