<svg xmlns="http://www.w3.org/2000/svg" viewBox="0 0 100 100"><defs/><defs><linearGradient id="a" x1="0" x2="1" y1="1" y2="0"><stop offset="0%" stop-color="#C8511B"/><stop offset="100%" stop-color="#F90"/></linearGradient></defs><g><path fill="url(#a)" fill-rule="evenodd" d="m 0,0 h 100 v 100 h -100 z"/><path fill="#fff" fill-rule="evenodd" d="m 35.009,82.5 h -15.521 l 17.166,-35.88 7.779,16.012 z m 2.766,-39.309 c -0.21,-0.431 -0.649,-0.705 -1.128,-0.705 h -0.004 c -0.482,0.001 -0.921,0.278 -1.127,0.712 l -19.144,40.013 c -0.185,0.388 -0.159,0.843 0.072,1.207 0.228,0.362 0.629,0.583 1.059,0.582 h 18.3 c 0.485,0 0.925,-0.279 1.132,-0.715 l 10.02,-21.125 c 0.162,-0.343 0.16,-0.739 -0.007,-1.079 z m 43.469,39.309 h -15.421 l -24.739,-51.788 c -0.207,-0.435 -0.648,-0.712 -1.132,-0.712 h -10.09 l 0.012,-12.5 h 19.776 l 24.625,51.786 c 0.207,0.435 0.648,0.714 1.132,0.714 h 5.837 z m 1.253,-15 h -6.297 l -24.626,-51.786 c -0.207,-0.435 -0.648,-0.714 -1.133,-0.714 h -21.819 c -0.69,0 -1.252,0.559 -1.253,1.249 l -0.014,15 c 0,0.333 0.13,0.65 0.368,0.885 0.234,0.235 0.553,0.366 0.885,0.366 h 10.554 l 24.741,51.788 c 0.208,0.435 0.646,0.712 1.13,0.712 h 17.464 c 0.693,0 1.253,-0.56 1.253,-1.25 v -15 c 0,-0.69 -0.56,-1.25 -1.253,-1.25 z"/></g></svg>