<svg xmlns="http://www.w3.org/2000/svg" viewBox="0 0 100 100"><defs/><defs><linearGradient id="a" x1="0" x2="1" y1="1" y2="0"><stop offset="0%" stop-color="#4D27A8"/><stop offset="100%" stop-color="#A166FF"/></linearGradient></defs><g><path fill="url(#a)" fill-rule="evenodd" d="m 0,0 h 100 v 100 h -100 z"/><path fill="#fff" fill-rule="evenodd" d="m 37.463,75.825 h 22.325 v -7.341 c 0,-0.646 -0.708,-1.192 -1.545,-1.192 h -19.236 c -0.838,0 -1.544,0.545 -1.544,1.192 z m 28.964,4.168 v 4.601 0.406 h -2.501 v -0.406 -4.601 c 0,-0.982 -0.571,-1.667 -1.084,-1.667 h -28.433 c -0.514,0 -1.084,0.685 -1.084,1.667 v 4.601 0.406 h -2.501 v -0.406 -4.601 c 0,-2.297 1.609,-4.168 3.585,-4.168 h 0.553 v -7.341 c 0,-2.036 1.814,-3.693 4.045,-3.692 h 19.236 c 2.231,0 4.047,1.657 4.046,3.692 v 7.341 h 0.553 c 1.977,0 3.585,1.871 3.585,4.168 z m -9.526,-31.751 c 1.592,0 2.887,-1.295 2.887,-2.887 0,-1.592 -1.296,-2.887 -2.887,-2.888 -1.592,0 -2.887,1.295 -2.887,2.888 0,1.592 1.296,2.887 2.887,2.887 z m -1.251,15.043 v -12.703 c -2.368,-0.568 -4.138,-2.687 -4.138,-5.227 0,-2.971 2.417,-5.388 5.389,-5.388 2.971,0 5.388,2.417 5.388,5.388 0,2.54 -1.771,4.659 -4.138,5.227 v 12.703 z m -4.228,-27.584 c 0,-1.593 -1.294,-2.887 -2.887,-2.887 -1.592,0 -2.886,1.294 -2.886,2.887 0,1.592 1.294,2.886 2.886,2.886 1.593,0 2.887,-1.294 2.887,-2.886 z m 2.501,0 c 0,2.506 -1.727,4.598 -4.046,5.198 v 22.386 h -2.501 v -22.329 c -2.415,-0.533 -4.228,-2.683 -4.228,-5.255 0,-2.971 2.417,-5.388 5.387,-5.388 2.971,0 5.388,2.417 5.388,5.388 z m -13.573,6.766 c -1.593,0 -2.887,1.295 -2.887,2.888 0,1.592 1.294,2.887 2.887,2.887 1.592,0 2.886,-1.295 2.887,-2.887 0,-1.592 -1.294,-2.887 -2.887,-2.888 z m 0,-2.5 c 2.971,0 5.387,2.417 5.388,5.388 0,2.54 -1.771,4.659 -4.137,5.227 v 12.703 h -2.501 v -12.703 c -2.367,-0.568 -4.138,-2.687 -4.138,-5.227 0,-2.971 2.417,-5.388 5.388,-5.388 z m 44.65,6.741 c 0,9.566 -7.262,12.975 -14.058,12.974 h -9.771 v -2.501 h 9.771 c 2.711,0 11.557,-0.755 11.557,-10.473 0,-7.032 -5.509,-9.613 -10.128,-10.54 -0.558,-0.113 -0.969,-0.585 -1.003,-1.153 -0.328,-5.549 -3.57,-7.518 -6.247,-7.518 -1.811,0 -3.509,0.863 -4.659,2.37 -0.276,0.363 -0.73,0.541 -1.181,0.476 -0.45,-0.068 -0.829,-0.376 -0.987,-0.804 -0.793,-2.156 -2.2,-5.171 -4.398,-7.299 -4.852,-4.717 -11.491,-5.997 -17.766,-3.426 -5.121,2.097 -9.288,8.506 -9.288,14.285 0,0.636 0.039,1.275 0.117,1.898 0.078,0.629 -0.328,1.218 -0.944,1.368 -2.56,0.625 -8.513,2.877 -8.514,10.245 0,0.256 0.014,0.514 0.028,0.772 0.303,5.402 5.386,9.8 11.329,9.799 h 7.188 v 2.501 h -7.188 c -7.248,0 -13.452,-5.457 -13.827,-12.164 -0.018,-0.306 -0.031,-0.608 -0.031,-0.908 0,-5.995 3.481,-10.557 9.376,-12.386 -0.023,-0.374 -0.035,-0.75 -0.035,-1.125 0,-5.977 4.054,-13.821 10.841,-16.6 7.223,-2.96 14.871,-1.483 20.455,3.946 1.947,1.883 3.333,4.309 4.27,6.419 1.477,-1.204 3.298,-1.868 5.214,-1.868 3.868,0 7.933,2.767 8.661,8.921 7.244,1.739 11.218,6.255 11.218,12.791 z"/></g></svg>