<svg xmlns="http://www.w3.org/2000/svg" viewBox="0 0 100 100"><defs/><defs><linearGradient id="a" x1="0" x2="1" y1="1" y2="0"><stop offset="0%" stop-color="#C8511B"/><stop offset="100%" stop-color="#F90"/></linearGradient></defs><g><path fill="url(#a)" fill-rule="evenodd" d="m 0,0 h 100 v 100 h -100 z"/><path fill="#fff" fill-rule="evenodd" d="m 58.204,73.778 1.767,1.767 -9.027,9.028 c -0.244,0.244 -0.564,0.366 -0.884,0.366 -0.32,0 -0.639,-0.122 -0.884,-0.366 l -9.102,-9.103 1.767,-1.768 6.963,6.963 v -14.016 h 2.5 v 14.029 z m -7.26,-58.411 9.027,9.026 -1.767,1.767 -6.9,-6.898 v 14.027 h -2.5 v -14.016 l -6.963,6.964 -1.767,-1.768 9.102,-9.102 c 0.489,-0.489 1.28,-0.489 1.768,0 z m 34.196,35.853 h -14.015 l 6.963,6.963 -1.768,1.767 -9.102,-9.102 c -0.489,-0.489 -0.489,-1.28 0,-1.768 l 9.027,-9.027 1.768,1.767 -6.9,6.9 h 14.027 z m -52.218,-2.14 c 0.489,0.488 0.489,1.279 0.001,1.768 l -9.103,9.102 -1.767,-1.767 6.962,-6.963 h -14.015 v -2.5 h 14.028 l -6.899,-6.9 1.767,-1.767 z m 19.326,0.929 c 0.849,1.336 2.299,2.134 3.88,2.134 0.399,0 0.79,-0.05 1.165,-0.149 v 2.761 h -4.989 c -0.511,0 -0.97,0.311 -1.16,0.787 -0.19,0.474 -0.073,1.016 0.297,1.368 0.696,0.664 0.848,1.624 0.403,2.568 -0.161,0.341 -0.446,0.629 -0.784,0.786 -1.027,0.484 -1.807,0.164 -2.179,-0.074 -0.61,-0.386 -0.974,-1.047 -0.973,-1.77 0,-0.573 0.231,-1.109 0.652,-1.51 0.37,-0.352 0.488,-0.895 0.298,-1.368 -0.19,-0.475 -0.649,-0.786 -1.16,-0.787 h -4.989 v -15.172 h 14.584 v 3.525 c -1.051,-0.274 -2.206,-0.171 -3.287,0.336 -0.872,0.411 -1.576,1.114 -1.985,1.981 -0.725,1.544 -0.644,3.215 0.227,4.584 z m 2.822,-4.302 c 0.948,-0.445 1.904,-0.293 2.569,0.402 0.351,0.369 0.895,0.488 1.37,0.298 0.473,-0.19 0.784,-0.65 0.784,-1.162 v -6.912 c 0,-0.691 -0.559,-1.25 -1.25,-1.25 h -16.2 c -1.176,0 -2.134,0.956 -2.134,2.132 v 16.79 c 0,0.69 0.56,1.25 1.25,1.25 h 4.097 c -0.099,0.376 -0.149,0.766 -0.148,1.165 0,1.581 0.797,3.033 2.133,3.882 0.75,0.476 1.591,0.716 2.453,0.716 0.709,0 1.432,-0.163 2.13,-0.49 0.867,-0.409 1.571,-1.113 1.981,-1.985 0.509,-1.081 0.611,-2.235 0.336,-3.288 h 4.102 c 0.691,0 1.25,-0.56 1.25,-1.25 v -6.153 c 0,-0.51 -0.311,-0.97 -0.784,-1.16 -0.476,-0.19 -1.017,-0.071 -1.37,0.297 -0.907,0.951 -2.586,0.775 -3.281,-0.32 -0.236,-0.371 -0.559,-1.149 -0.075,-2.18 0.159,-0.336 0.446,-0.623 0.787,-0.782 z"/></g></svg>