<svg xmlns="http://www.w3.org/2000/svg" viewBox="0 0 100 100"><defs/><defs><linearGradient id="a" x1="0" x2="1" y1="1" y2="0"><stop offset="0%" stop-color="#1B660F"/><stop offset="100%" stop-color="#6CAE3E"/></linearGradient></defs><g><path fill="url(#a)" fill-rule="evenodd" d="m 0,0 h 100 v 100 h -100 z"/><path fill="#fff" fill-rule="evenodd" d="m 31.25,26.25 c 2.067,0 3.75,1.683 3.75,3.75 0,2.067 -1.683,3.75 -3.75,3.75 -2.067,0 -3.75,-1.683 -3.75,-3.75 0,-2.067 1.683,-3.75 3.75,-3.75 z m 0,10 c 1.265,0 2.44,-0.384 3.425,-1.032 l 27.391,28.532 h -3.316 v 2.5 h 6.25 c 0.691,0 1.25,-0.56 1.25,-1.25 v -6.25 h -2.5 v 3.142 l -27.3,-28.436 c 0.661,-0.991 1.05,-2.179 1.05,-3.456 0,-3.446 -2.804,-6.25 -6.25,-6.25 -3.446,0 -6.25,2.804 -6.25,6.25 0,3.446 2.804,6.25 6.25,6.25 z m 32.5,18.75 h 2.5 v -6.25 h -2.5 z m 0,-10 h 2.5 v -6.25 h -2.5 z m -15,21.25 h 6.25 v -2.5 h -6.25 z m -10,0 h 6.25 v -2.5 h -6.25 z m -17.5,-1.25 c 0,-2.067 1.683,-3.75 3.75,-3.75 2.067,0 3.75,1.683 3.75,3.75 0,2.067 -1.683,3.75 -3.75,3.75 -2.067,0 -3.75,-1.683 -3.75,-3.75 z m 43.75,-36.25 c -2.067,0 -3.75,-1.683 -3.75,-3.75 0,-2.067 1.683,-3.75 3.75,-3.75 2.067,0 3.75,1.683 3.75,3.75 0,2.067 -1.683,3.75 -3.75,3.75 z m 5.715,-1.241 c 0.34,-0.769 0.535,-1.615 0.535,-2.509 0,-3.446 -2.804,-6.25 -6.25,-6.25 -3.446,0 -6.25,2.804 -6.25,6.25 0,3.019 2.151,5.543 5,6.124 v 3.876 h 2.5 v -3.876 c 1.153,-0.235 2.179,-0.799 3.006,-1.574 5.972,5.294 9.494,13.089 9.494,21.18 0,15.45 -12.656,28.02 -28.212,28.02 -8.084,0 -15.642,-3.44 -20.988,-9.494 0.775,-0.828 1.339,-1.854 1.573,-3.006 h 3.877 v -2.5 h -3.877 c -0.579,-2.849 -3.105,-5 -6.123,-5 -3.446,0 -6.25,2.804 -6.25,6.25 0,3.446 2.804,6.25 6.25,6.25 0.894,0 1.74,-0.195 2.51,-0.535 5.827,6.711 14.132,10.535 23.028,10.535 16.935,0 30.712,-13.691 30.712,-30.52 0,-8.89 -3.914,-17.454 -10.535,-23.221 z"/></g></svg>