<svg xmlns="http://www.w3.org/2000/svg" viewBox="0 0 100 100"><defs/><defs><linearGradient id="a" x1="0" x2="1" y1="1" y2="0"><stop offset="0%" stop-color="#055F4E"/><stop offset="100%" stop-color="#56C0A7"/></linearGradient></defs><g><path fill="url(#a)" fill-rule="evenodd" d="m 0,0 h 100 v 100 h -100 z"/><path fill="#fff" fill-rule="evenodd" d="m 47.507,60.467 -15.119,8.872 -1.269,-2.148 8.521,-5 v -5.524 l -7.173,-4.008 -7.63,3.762 -1.109,-2.234 7.524,-3.71 v -7.224 l -7.446,-4.241 -6.305,4.249 v 5.297 l 6.024,-3.528 1.268,2.147 -7.292,4.273 v 6.603 l 6.294,4.189 7.645,-4.429 1.258,2.155 -7.697,4.458 v 8.547 l 6.97,4.179 7.271,-4.267 1.269,2.148 -6.101,3.579 6.139,3.681 6.958,-4.324 z m 25.633,-6.68 c 0,-1.03 -0.842,-1.869 -1.875,-1.869 -1.034,0 -1.876,0.838 -1.876,1.869 0,1.03 0.842,1.869 1.876,1.869 1.034,0 1.876,-0.838 1.875,-1.869 z m -6.252,-21.225 c 0,-1.03 -0.842,-1.869 -1.875,-1.869 -1.034,0 -1.876,0.838 -1.876,1.869 0,1.03 0.842,1.869 1.876,1.869 1.034,0 1.876,-0.838 1.875,-1.869 z m -8.752,14.996 c 0,1.03 0.842,1.869 1.875,1.869 1.034,0 1.876,-0.838 1.876,-1.869 0,-1.03 -0.842,-1.869 -1.876,-1.869 -1.034,0 -1.876,0.838 -1.875,1.869 z m -3.126,19.89 h -5.002 v 11.213 c 0,0.43 -0.223,0.83 -0.589,1.058 l -8.196,5.093 c -0.203,0.125 -0.433,0.188 -0.663,0.188 -0.223,0 -0.445,-0.06 -0.644,-0.178 l -16.811,-10.077 c -0.375,-0.226 -0.605,-0.63 -0.605,-1.068 v -9.301 l -6.945,-4.619 c -0.346,-0.232 -0.555,-0.62 -0.555,-1.037 v -16.12 c 0,-0.414 0.206,-0.801 0.549,-1.031 l 6.951,-4.685 v -9.306 c 0,-0.439 0.231,-0.845 0.609,-1.069 l 16.812,-10.013 c 0.403,-0.237 0.907,-0.233 1.303,0.014 l 7.546,4.695 8.013,-4.778 c 0.398,-0.239 0.895,-0.235 1.293,0.005 l 16.341,9.927 c 0.371,0.226 0.599,0.629 0.599,1.064 v 9.398 l 8.122,4.627 c 0.39,0.222 0.63,0.634 0.63,1.081 v 17.801 c 0,0.44 -0.234,0.848 -0.614,1.071 -0.384,0.226 -0.854,0.23 -1.239,0.02 l -7.831,-4.301 c -0.761,0.642 -1.747,1.028 -2.819,1.028 -2.413,0 -4.376,-1.956 -4.377,-4.361 0,-2.405 1.963,-4.361 4.377,-4.36 2.413,0 4.376,1.956 4.376,4.36 0,0.431 -0.064,0.848 -0.181,1.244 l 5.808,3.189 v -14.968 l -8.123,-4.627 c -0.39,-0.222 -0.63,-0.634 -0.63,-1.082 v -3.735 h -3.309 c -0.539,1.799 -2.214,3.115 -4.193,3.115 -2.413,0 -4.376,-1.956 -4.377,-4.361 0,-2.405 1.963,-4.361 4.377,-4.361 1.979,0 3.655,1.316 4.193,3.115 h 3.309 v -3.194 l -15.096,-9.17 -7.412,4.42 0.001,15.705 7.436,4.951 c 0.721,-0.522 1.608,-0.831 2.567,-0.831 2.413,0 4.376,1.956 4.376,4.361 0,2.405 -1.963,4.361 -4.376,4.361 -2.413,0 -4.376,-1.956 -4.376,-4.361 0,-0.544 0.101,-1.067 0.285,-1.549 l -7.857,-5.23 c -0.346,-0.232 -0.555,-0.62 -0.556,-1.037 l -10e-4,-16.385 -6.958,-4.331 -6.795,4.046 v 9.49 h -2.501 v -8 l -6.251,3.723 v 8.537 l 7.502,4.272 7.502,-4.272 v -6.752 h 2.501 v 7.476 c 0,0.447 -0.24,0.86 -0.63,1.081 l -8.123,4.626 v 7.268 l 7.749,4.329 c 0.395,0.221 0.639,0.635 0.639,1.087 v 4.788 l 5.366,-3.15 v -5.668 l -7.019,-4.784 1.411,-2.056 7.564,5.156 c 0.341,0.232 0.545,0.617 0.545,1.028 v 13.705 h 5.002 z m 26.408,0.545 -0.929,-0.83 -10.38,10.048 c -0.05,-0.003 -0.098,-0.015 -0.147,-0.015 -1.439,0 -2.611,1.167 -2.611,2.601 0,1.435 1.172,2.601 2.611,2.602 1.439,0 2.611,-1.166 2.61,-2.602 0,-0.146 -0.02,-0.285 -0.042,-0.425 z m -6.649,1.416 0.989,-2.289 c -1.843,-0.79 -3.792,-1.19 -5.796,-1.19 -8.293,0 -15.038,6.829 -15.039,15.223 h 2.501 c 0,-7.019 5.624,-12.731 12.538,-12.731 1.662,0 3.28,0.331 4.807,0.987 z m 10.231,11.744 h -2.501 c 0,-2.631 -0.806,-5.171 -2.334,-7.344 l 2.049,-1.429 c 1.823,2.594 2.786,5.628 2.786,8.773 z"/></g></svg>