<svg xmlns="http://www.w3.org/2000/svg" viewBox="0 0 100 100"><defs/><defs><linearGradient id="a" x1="0" x2="1" y1="1" y2="0"><stop offset="0%" stop-color="#C8511B"/><stop offset="100%" stop-color="#F90"/></linearGradient></defs><g><path fill="url(#a)" fill-rule="evenodd" d="m 0,0 h 100 v 100 h -100 z"/><path fill="#fff" fill-rule="evenodd" d="m 78.468,66.163 -26.734,15.436 v -4.873 -9.119 l 13.369,-7.717 5.47,3.157 1.25,-2.165 -5.471,-3.157 v -15.435 l 7.896,-4.56 v 0.001 l 4.22,-2.438 z m -30.387,-11.992 v -5.552 l 4.81,-2.777 v 5.553 z m 1.153,11.993 -12.117,6.996 v -13.993 l 8.464,-4.886 v 2.055 c 0,0.448 0.239,0.86 0.625,1.083 0.386,0.224 0.865,0.224 1.25,0 l 1.778,-1.027 z m 0,-30.869 v 9.771 l -3.028,1.749 c -0.386,0.222 -0.625,0.635 -0.625,1.082 v 3.498 l -8.464,4.886 v -13.991 z m -13.366,4.83 -5.471,-3.159 -1.25,2.165 5.47,3.158 v 15.436 l -12.116,6.995 v -30.87 l 26.733,-15.435 v 13.992 z m 27.984,3.609 v 13.992 l -12.118,6.995 v -9.772 l 3.032,-1.75 c 0.388,-0.222 0.625,-0.635 0.625,-1.083 v -3.499 z m -12.118,-9.883 12.118,-6.996 v 13.991 l -8.461,4.885 v -2.054 c 0,-0.446 -0.237,-0.859 -0.625,-1.082 -0.193,-0.111 -0.409,-0.168 -0.625,-0.168 -0.216,0 -0.432,0.056 -0.625,0.168 l -1.782,1.029 z m 28.61,-1.805 -6.096,-3.52 -1.25,2.166 4.22,2.437 -10.866,6.273 v -14.712 c 0,-0.446 -0.239,-0.859 -0.625,-1.083 -0.386,-0.224 -0.865,-0.224 -1.25,0 l -12.743,7.357 v -12.549 l 4.22,2.437 1.25,-2.165 -6.091,-3.517 c -10e-4,0 -0.003,-10e-4 -0.004,-0.003 -0.385,-0.224 -0.864,-0.224 -1.25,0 l -29.233,16.879 c -0.388,0.224 -0.625,0.636 -0.625,1.083 v 33.756 c 0,0.448 0.237,0.86 0.625,1.082 10e-4,0 10e-4,0.001 0.002,0.002 l 6.094,3.518 1.25,-2.165 -4.221,-2.437 10.866,-6.274 v 14.714 c 0,0.448 0.237,0.86 0.625,1.082 0.386,0.224 0.864,0.224 1.25,0 l 12.742,-7.356 v 12.548 l -4.221,-2.438 -1.25,2.166 6.096,3.519 c 0.194,0.112 0.409,0.168 0.625,0.168 0.216,0 0.432,-0.055 0.625,-0.168 l 29.234,-16.879 c 0.388,-0.222 0.625,-0.635 0.625,-1.082 v -33.756 c 0,-0.446 -0.237,-0.859 -0.624,-1.083 z"/></g></svg>