<svg xmlns="http://www.w3.org/2000/svg" viewBox="0 0 100 100"><defs/><defs><linearGradient id="a" x1="0" x2="1" y1="1" y2="0"><stop offset="0%" stop-color="#B0084D"/><stop offset="100%" stop-color="#FF4F8B"/></linearGradient></defs><g><path fill="url(#a)" fill-rule="evenodd" d="m 0,0 h 100 v 100 h -100 z"/><path fill="#fff" fill-rule="evenodd" d="m 58.75,68.748 h 16.25 v 2.5 h -16.25 v 2.5 h -2.5 v -2.5 h -5 v -2.5 h 5 v -1.251 h 2.5 z m 5,-7.502 h 11.25 v 2.501 h -11.25 v 2.5 h -2.5 v -2.5 h -10 v -2.501 h 10 v -1.25 h 2.5 z m 6.25,-7.501 h 5 v 2.501 h -5 v 2.5 h -2.5 v -2.5 h -16.25 v -2.501 h 16.25 v -1.25 h 2.5 z m -43.75,5.001 h 11.25 v 2.5 h -11.25 c -1.569,0 -3.245,-0.471 -4.484,-1.26 -2.525,-1.599 -6.766,-5.342 -6.766,-12.434 0,-8.601 5.831,-11.758 9.225,-12.865 l -0.068,-1.145 c -0.003,-7.085 4.685,-14.35 10.9,-16.971 7.279,-3.094 14.988,-1.561 20.624,4.101 1.749,1.752 3.189,3.888 4.291,6.367 2.214,-1.844 5.228,-2.475 8.028,-1.557 3.559,1.168 5.774,4.457 6.034,8.885 3.548,0.849 10.966,3.768 10.966,13.297 0,0.356 -0.014,0.7 -0.028,1.029 l -2.498,-0.066 c 0.013,-0.334 0.026,-0.641 0.026,-0.963 0,-8.418 -6.946,-10.532 -9.933,-11.049 -0.338,-0.059 -0.635,-0.251 -0.825,-0.535 -0.189,-0.281 -0.255,-0.626 -0.185,-0.957 -0.036,-3.727 -1.613,-6.371 -4.337,-7.265 -2.441,-0.804 -5.124,0.083 -6.678,2.198 -0.275,0.371 -0.726,0.565 -1.19,0.495 -0.458,-0.066 -0.84,-0.381 -0.995,-0.818 -1.041,-2.929 -2.537,-5.383 -4.446,-7.295 -4.891,-4.914 -11.578,-6.245 -17.879,-3.564 -5.26,2.218 -9.377,8.629 -9.377,14.595 l 0.124,2.067 c 0.035,0.598 -0.359,1.136 -0.94,1.284 -3.114,0.793 -8.339,3.24 -8.339,10.732 0,5.6 3.048,8.704 5.606,10.323 0.844,0.539 2.047,0.871 3.144,0.871 z m 56.25,6.651 -2.205,-0.126 c -0.591,-0.031 -1.155,0.376 -1.29,0.974 -0.423,1.873 -1.157,3.648 -2.185,5.275 -0.326,0.518 -0.231,1.194 0.226,1.602 l 1.647,1.468 -4.102,4.103 -1.463,-1.642 c -0.408,-0.459 -1.086,-0.551 -1.6,-0.225 -1.627,1.028 -3.404,1.764 -5.282,2.188 -0.595,0.135 -1.008,0.681 -0.971,1.292 l 0.125,2.194 h -5.8 l 0.125,-2.197 c 0.036,-0.61 -0.376,-1.156 -0.971,-1.291 -1.873,-0.423 -3.649,-1.16 -5.279,-2.189 -0.516,-0.328 -1.194,-0.234 -1.6,0.225 l -1.467,1.644 -4.1,-4.102 1.643,-1.466 c 0.456,-0.408 0.551,-1.084 0.225,-1.6 -1.026,-1.628 -1.761,-3.403 -2.184,-5.279 -0.134,-0.598 -0.731,-1.005 -1.29,-0.974 l -2.202,0.126 v -5.801 l 2.21,0.126 c 0.581,0.033 1.154,-0.376 1.29,-0.972 0.424,-1.869 1.16,-3.642 2.187,-5.268 0.326,-0.518 0.23,-1.195 -0.225,-1.602 l -1.655,-1.476 4.102,-4.102 1.476,1.654 c 0.408,0.455 1.085,0.549 1.599,0.224 1.625,-1.024 3.397,-1.758 5.27,-2.181 0.595,-0.135 1.008,-0.681 0.971,-1.291 l -0.125,-2.214 h 5.8 l -0.125,2.216 c -0.036,0.61 0.376,1.155 0.971,1.29 1.869,0.424 3.64,1.158 5.268,2.183 0.514,0.326 1.192,0.231 1.599,-0.224 l 1.478,-1.657 4.102,4.102 -1.652,1.472 c -0.455,0.408 -0.551,1.084 -0.225,1.602 1.027,1.626 1.764,3.401 2.187,5.272 0.135,0.595 0.701,1.005 1.29,0.972 l 2.207,-0.126 z m 1.179,-8.372 -2.502,0.142 c -0.406,-1.431 -0.978,-2.808 -1.703,-4.111 l 1.871,-1.669 c 0.256,-0.229 0.408,-0.553 0.418,-0.897 0.01,-0.343 -0.122,-0.676 -0.367,-0.919 l -5.972,-5.973 c -0.242,-0.244 -0.589,-0.384 -0.919,-0.365 -0.345,0.01 -0.669,0.16 -0.897,0.416 l -1.675,1.878 c -1.301,-0.725 -2.675,-1.294 -4.104,-1.702 l 0.142,-2.51 c 0.02,-0.344 -0.103,-0.68 -0.34,-0.93 -0.235,-0.25 -0.564,-0.391 -0.907,-0.392 h -8.448 c -0.344,0 -0.673,0.141 -0.907,0.392 -0.237,0.25 -0.36,0.586 -0.34,0.93 l 0.142,2.508 c -1.431,0.406 -2.806,0.976 -4.106,1.7 l -1.672,-1.874 c -0.229,-0.256 -0.552,-0.406 -0.898,-0.416 -0.354,-0.016 -0.676,0.121 -0.919,0.365 l -5.972,5.973 c -0.244,0.243 -0.376,0.576 -0.366,0.919 0.01,0.344 0.161,0.669 0.417,0.897 l 1.875,1.673 c -0.726,1.303 -1.298,2.677 -1.705,4.107 l -2.504,-0.142 c -0.335,-0.022 -0.68,0.104 -0.93,0.338 -0.25,0.236 -0.391,0.565 -0.391,0.909 v 8.449 c 0,0.344 0.141,0.673 0.391,0.909 0.25,0.235 0.596,0.358 0.93,0.339 l 2.495,-0.143 c 0.406,1.435 0.976,2.813 1.703,4.117 l -1.864,1.662 c -0.256,0.229 -0.408,0.554 -0.417,0.897 -0.01,0.344 0.122,0.678 0.366,0.92 l 5.972,5.974 c 0.242,0.244 0.596,0.378 0.919,0.366 0.345,-0.01 0.67,-0.161 0.898,-0.418 l 1.662,-1.865 c 1.304,0.729 2.683,1.301 4.115,1.709 l -0.141,2.491 c -0.02,0.343 0.103,0.679 0.34,0.93 0.235,0.25 0.564,0.391 0.907,0.391 h 8.448 c 0.344,0 0.673,-0.141 0.909,-0.391 0.236,-0.251 0.359,-0.588 0.338,-0.93 l -0.141,-2.488 c 1.435,-0.409 2.814,-0.98 4.117,-1.708 l 1.66,1.861 c 0.227,0.256 0.552,0.408 0.898,0.418 0.334,0.015 0.676,-0.123 0.919,-0.366 l 5.972,-5.974 c 0.244,-0.243 0.376,-0.576 0.366,-0.92 -0.01,-0.344 -0.161,-0.669 -0.418,-0.897 l -1.867,-1.664 c 0.726,-1.304 1.296,-2.682 1.704,-4.115 l 2.498,0.143 c 0.338,0.019 0.68,-0.104 0.93,-0.339 0.25,-0.236 0.391,-0.565 0.391,-0.909 v -8.449 c 0,-0.344 -0.141,-0.673 -0.391,-0.909 -0.25,-0.235 -0.591,-0.36 -0.93,-0.338 z"/></g></svg>