<svg xmlns="http://www.w3.org/2000/svg" viewBox="0 0 100 100"><defs/><defs><linearGradient id="a" x1="0" x2="1" y1="1" y2="0"><stop offset="0%" stop-color="#2E27AD"/><stop offset="100%" stop-color="#527FFF"/></linearGradient></defs><g><path fill="url(#a)" fill-rule="evenodd" d="m 0,0 h 100 v 100 h -100 z"/><path fill="#fff" fill-rule="evenodd" d="m 59.375,52.75 h -2.5 v 17.354 h -5 v -12.395 h -2.5 v 12.395 h -5 v -8.677 h -2.5 v 8.677 h -2.5 v 2.479 h 22.5 v -2.479 h -2.5 z m 10,9.297 c 0,-9.91 -8.131,-17.974 -18.125,-17.974 -9.994,0 -18.125,8.063 -18.125,17.974 0,9.91 8.131,17.974 18.125,17.974 9.994,0 18.125,-8.063 18.125,-17.974 z m 2.5,0 c 0,11.278 -9.252,20.453 -20.625,20.453 -11.373,0 -20.625,-9.175 -20.625,-20.453 0,-11.278 9.252,-20.453 20.625,-20.453 11.373,0 20.625,9.175 20.625,20.453 z m 13.125,-13.67 c 0,7.072 -3.915,11.671 -10.739,12.615 l -0.346,-2.455 c 3.917,-0.542 8.585,-2.744 8.585,-10.16 0,-6.96 -5.309,-9.478 -9.761,-10.364 -0.559,-0.11 -0.97,-0.581 -1.001,-1.145 -0.293,-5.091 -3.306,-7.37 -6.166,-7.371 -1.796,0 -3.471,0.839 -4.595,2.303 -0.275,0.359 -0.731,0.54 -1.178,0.475 -0.45,-0.067 -0.83,-0.371 -0.988,-0.796 -1.013,-2.711 -2.512,-5.075 -4.337,-6.836 -4.798,-4.64 -11.363,-5.9 -17.562,-3.369 -5.146,2.094 -9.178,8.119 -9.177,13.717 0,0.628 0.039,1.254 0.114,1.861 0.079,0.622 -0.325,1.205 -0.94,1.354 -3.046,0.749 -8.159,3.053 -8.159,10.076 0,0.264 0.014,0.503 0.026,0.755 0.229,4.114 3.809,7.894 8.708,9.189 l -0.644,2.394 c -5.93,-1.568 -10.273,-6.276 -10.56,-11.45 -0.016,-0.297 -0.03,-0.578 -0.03,-0.888 0,-8.113 5.673,-11.121 9.02,-12.189 -0.024,-0.364 -0.035,-0.733 -0.035,-1.102 0,-6.639 4.612,-13.521 10.727,-16.01 7.147,-2.92 14.723,-1.468 20.257,3.887 1.673,1.614 3.101,3.655 4.188,5.974 1.458,-1.175 3.262,-1.823 5.165,-1.824 3.84,0 7.869,2.721 8.578,8.766 7.008,1.687 10.85,6.13 10.85,12.593 z"/></g></svg>