<svg xmlns="http://www.w3.org/2000/svg" viewBox="0 0 100 100"><defs/><defs><linearGradient id="a" x1="0" x2="1" y1="1" y2="0"><stop offset="0%" stop-color="#BD0816"/><stop offset="100%" stop-color="#FF5252"/></linearGradient></defs><g><path fill="url(#a)" fill-rule="evenodd" d="m 0,0 h 100 v 100 h -100 z"/><path fill="#fff" fill-rule="evenodd" d="m 17.5,73.75 h 65 v -47.5 h -65 z m 67.5,-48.75 v 50 c 0,0.69 -0.559,1.25 -1.25,1.25 h -67.5 c -0.691,0 -1.25,-0.56 -1.25,-1.25 v -50 c 0,-0.69 0.559,-1.25 1.25,-1.25 h 67.5 c 0.691,0 1.25,0.56 1.25,1.25 z m -30,35 h 18.75 v -2.5 h -18.75 z m 16.25,-7.5 h 6.25 v -2.5 h -6.25 z m -16.25,0 h 10 v -2.5 h -10 z m -18.75,5 c 0,-0.689 -0.56,-1.25 -1.25,-1.25 -0.69,0 -1.25,0.561 -1.25,1.25 0,0.689 0.56,1.25 1.25,1.25 0.69,0 1.25,-0.561 1.25,-1.25 z m 2.5,0 c 0,1.627 -1.049,3.001 -2.5,3.52 v 2.73 h -2.5 v -2.731 c -1.451,-0.517 -2.5,-1.891 -2.5,-3.519 0,-2.067 1.683,-3.75 3.75,-3.75 2.067,0 3.75,1.683 3.75,3.75 z m -15,9.991 22.492,0.009 0.003,-5 h -4.995 v -2.5 h 4.995 l 0.002,-3.75 h -4.997 v -2.5 h 4.999 l 10e-4,-3.741 -22.492,-0.009 z m 3.75,-19.99 15,0.006 v -8.757 c 10e-4,-2.879 -3.504,-5.404 -7.5,-5.406 h -0.005 c -3.99,0 -7.49,2.526 -7.492,5.406 z m -6.25,21.239 0.007,-19.99 c 0,-0.333 0.131,-0.65 0.367,-0.885 0.234,-0.234 0.552,-0.365 0.883,-0.365 l 2.493,10e-4 0.003,-8.751 c 0.003,-4.36 4.485,-7.906 9.992,-7.906 h 0.005 c 5.515,0.003 10.001,3.55 10,7.906 v 8.759 l 2.5,10e-4 c 0.691,0 1.25,0.56 1.25,1.25 l -0.007,19.99 c 0,0.333 -0.131,0.65 -0.367,0.885 -0.234,0.234 -0.552,0.365 -0.883,0.365 l -24.993,-0.01 c -0.691,0 -1.25,-0.56 -1.25,-1.25 z m 53.75,-23.74 h 2.5 v -2.5 h -2.5 z m -20,0 h 13.75 v -2.5 h -13.75 z"/></g></svg>