<svg xmlns="http://www.w3.org/2000/svg" viewBox="0 0 100 100"><defs/><defs><linearGradient id="a" x1="0" x2="1" y1="1" y2="0"><stop offset="0%" stop-color="#2E27AD"/><stop offset="100%" stop-color="#527FFF"/></linearGradient></defs><g><path fill="url(#a)" fill-rule="evenodd" d="m 0,0 h 100 v 100 h -100 z"/><path fill="#fff" fill-rule="evenodd" d="m 82.5,59.104 h -12.5 v -5.043 h -6.25 v 5.043 h -12.5 v -5.043 h -6.25 v 5.043 h -12.5 v -12.607 h 11.955 c 0.209,0.184 0.416,0.385 0.545,0.536 v 5.767 h 6.25 v -6.134 c 0,-0.062 10e-4,-0.117 0.003,-0.169 h 12.497 v 6.303 h 6.25 v -6.303 h 12.5 z m 0.151,-15.129 h -12.802 c -1.295,0 -2.349,1.063 -2.349,2.369 v 3.935 h -1.25 v -3.304 c 0.106,-0.275 0.144,-0.576 0.107,-0.879 -0.117,-0.961 -0.951,-1.669 -1.205,-1.862 l -0.335,-0.259 h -14.458 c -0.6,0 -1.609,0.349 -1.609,2.691 v 3.613 h -1.25 v -3.886 l -0.111,-0.247 c -0.37,-0.826 -1.419,-1.673 -1.732,-1.912 l -0.333,-0.259 h -12.975 c -1.295,0 -2.349,1.063 -2.349,2.369 v 12.913 c 0,1.306 1.054,2.369 2.349,2.368 h 12.802 c 1.295,0 2.349,-1.063 2.349,-2.368 v -2.674 h 1.25 v 2.979 c 0,1.633 1.052,2.064 1.609,2.063 h 14.037 c 0.897,0 1.854,-0.724 1.854,-2.063 v -2.979 h 1.251 l 10e-4,2.894 c -0.069,1.027 0.757,1.882 2.058,2.127 l 13.091,0.021 c 1.295,0 2.349,-1.063 2.349,-2.368 v -12.913 c 0,-1.306 -1.054,-2.369 -2.349,-2.369 z m -3.901,6.303 0.002,5.044 -5.002,10e-4 -0.001,-5.044 z m -5.001,7.565 h 5.002 c 1.379,0 2.499,-1.131 2.499,-2.52 v -5.045 c 0,-1.389 -1.12,-2.52 -2.499,-2.521 h -5.002 c -1.379,0 -2.499,1.131 -2.499,2.521 v 5.045 c 0,1.389 1.12,2.52 2.499,2.52 z m -13.749,-2.541 c 0,0.011 -0.009,0.02 -0.02,0.02 l -4.98,-0.02 0.02,-5.023 4.98,0.02 z m -0.02,-7.545 h -4.96 c -1.39,0 -2.52,1.14 -2.52,2.542 v 5.003 c 0,1.402 1.13,2.542 2.52,2.541 h 4.96 c 1.39,0 2.52,-1.14 2.52,-2.541 v -5.003 c 0,-1.402 -1.13,-2.542 -2.52,-2.542 z m -23.73,7.566 -10e-4,-5.044 5.001,-0.001 0.002,5.044 z m 5.001,-7.566 h -5.002 c -1.379,0 -2.499,1.131 -2.499,2.521 v 5.045 c 0,1.389 1.12,2.52 2.499,2.52 h 5.002 c 1.379,0 2.499,-1.131 2.499,-2.52 v -5.045 c 0,-1.389 -1.12,-2.52 -2.499,-2.521 z m -3.751,-27.736 c 11.786,0 20,3.654 20,6.934 0,3.28 -8.214,6.934 -20,6.934 -11.786,0 -20,-3.654 -20,-6.934 0,-3.28 8.214,-6.934 20,-6.934 z m 20,54.116 c 0,3.354 -8.214,7.092 -20,7.092 -11.786,0 -20,-3.738 -20,-7.092 v -10.778 c 3.98,3.379 11.486,5.687 19.431,5.687 10.044,0 15.296,-2.382 15.515,-2.482 l -1.045,-2.292 c -0.049,0.023 -4.969,2.253 -14.47,2.253 -9.719,0 -17.534,-3.564 -19.431,-6.948 v -12.338 c 2.395,2.163 6.022,3.868 10.12,4.639 l 0.459,-2.479 c -5.643,-1.06 -9.407,-3.881 -10.579,-6.096 v -11.857 c 3.987,3.244 12.16,4.965 20,4.965 7.84,0 16.012,-1.721 20,-4.965 v 11.269 h 2.5 v -16.39 h -0.075 c -0.774,-5.733 -11.902,-8.825 -22.425,-8.825 -10.522,0 -21.651,3.093 -22.425,8.825 h -0.075 v 47.812 c 0,5.48 9.673,9.613 22.5,9.613 12.828,0 22.5,-4.133 22.5,-9.613 v -9.99 h -2.5 z"/></g></svg>