<svg xmlns="http://www.w3.org/2000/svg" viewBox="0 0 100 100"><defs/><defs><linearGradient id="a" x1="0" x2="1" y1="1" y2="0"><stop offset="0%" stop-color="#1B660F"/><stop offset="100%" stop-color="#6CAE3E"/></linearGradient></defs><g><path fill="url(#a)" fill-rule="evenodd" d="m 0,0 h 100 v 100 h -100 z"/><path fill="#fff" fill-rule="evenodd" d="m 18.75,25.598 v 0.542 c 1.054,3.694 13.31,7.61 29.375,7.61 16.038,0 28.287,-3.902 29.375,-7.591 v -0.561 c -0.091,-1.647 -9.545,-8.098 -29.375,-8.098 -19.832,0 -29.285,6.451 -29.375,8.098 z m 57.775,24.638 -0.48,3.38 c 4.2,1.032 4.955,0.401 4.963,0.395 0.001,-0.029 -0.056,-1.125 -4.483,-3.775 z m 3.346,-23.621 -2.97,20.953 c 4.184,2.387 6.238,4.253 6.561,5.982 0.143,0.764 -0.048,1.48 -0.545,2.074 -0.606,0.722 -1.606,1.083 -3.085,1.082 -1.101,0 -2.473,-0.203 -4.138,-0.602 l -0.224,1.571 -2.475,-0.35 0.266,-1.881 c -7.706,-2.276 -18.279,-7.093 -23.351,-9.494 -0.521,0.432 -1.181,0.703 -1.909,0.703 -1.655,0 -3.003,-1.348 -3.002,-3.004 0,-1.656 1.348,-3.004 3.002,-3.004 1.658,0 3.005,1.348 3.005,3.004 0,0.019 -0.005,0.035 -0.005,0.052 4.311,2.036 14.966,6.925 22.615,9.24 l 3.185,-22.473 c -5.524,3.781 -17.356,5.783 -28.676,5.782 -11.338,0 -23.191,-2.008 -28.703,-5.801 l 6.368,46.507 c 0.007,0.056 0.011,0.114 0.011,0.17 0,1.895 8.473,5.374 22.317,5.374 7.389,0 14.63,-1.115 18.897,-2.91 l 0.97,2.305 c -4.555,1.915 -12.168,3.105 -19.867,3.105 -9.541,0 -24.649,-2.114 -24.815,-7.779 l -6.935,-50.655 -0.118,-0.941 c 0,-4.333 12.417,-10.625 31.875,-10.625 19.457,0 31.875,6.292 31.875,10.625 z m -2.371,37.653 v 16.465 l 4.116,-4.117 1.768,1.768 -6.25,6.25 c -0.244,0.244 -0.564,0.366 -0.884,0.366 -0.32,0 -0.64,-0.122 -0.884,-0.366 l -6.25,-6.25 1.768,-1.768 4.116,4.117 v -16.465 l -4.116,4.116 -1.768,-1.768 6.25,-6.25 c 0.489,-0.489 1.279,-0.489 1.768,0 l 6.25,6.25 -1.768,1.768 z"/></g></svg>