<svg xmlns="http://www.w3.org/2000/svg" viewBox="0 0 100 100"><defs/><defs><linearGradient id="a" x1="0" x2="1" y1="1" y2="0"><stop offset="0%" stop-color="#4D27A8"/><stop offset="100%" stop-color="#A166FF"/></linearGradient></defs><g><path fill="url(#a)" fill-rule="evenodd" d="m 0,0 h 100 v 100 h -100 z"/><path fill="#fff" fill-rule="evenodd" d="m 83.22,42.386 -0.157,-0.836 -15.247,6.09 1.58,3.699 c 0.033,0.1 0.673,0.161 0.777,0.171 l 0.142,0.014 c 0.12,0.011 0.234,-0.059 0.276,-0.174 l 0.536,-1.426 1.718,0.172 0.606,-1.617 1.719,0.171 0.602,-1.618 1.718,0.173 0.603,-1.616 1.718,0.172 0.604,-1.616 1.717,0.172 0.559,-1.498 c 0.034,-0.089 0.128,-0.121 0.22,-0.103 0.198,0.04 0.361,-0.143 0.309,-0.33 z m -15.229,10.659 c 0.027,0.054 -1.365,-3.465 -1.404,-3.495 -0.24,-0.48 -0.591,-0.741 -1.13,-0.704 -0.508,0.036 -0.881,0.28 -1.119,0.709 -0.039,0.071 0.049,0.231 0.097,0.252 l 0.055,0.004 c 0.115,0.009 0.232,0.018 0.345,0.04 0.117,0.018 0.23,0.05 0.341,0.081 0.106,0.037 0.219,0.073 0.317,0.12 0.104,0.045 0.201,0.095 0.297,0.15 0.189,0.106 0.355,0.23 0.513,0.357 0.139,0.111 0.241,0.264 0.293,0.435 l 10e-4,0.005 c 0.022,0.07 0.029,0.098 0.039,0.141 l 0.027,0.115 c 0.016,0.076 0.029,0.149 0.04,0.222 0.024,0.147 0.04,0.294 0.049,0.442 0.019,0.294 0.013,0.593 -0.027,0.891 -0.04,0.299 -0.11,0.599 -0.217,0.89 -0.054,0.146 -0.116,0.289 -0.187,0.429 -0.021,0.043 -0.046,0.085 -0.07,0.127 0.076,0.216 0.136,0.385 0.157,0.446 0.069,0.198 0.074,0.315 0.27,0.237 0.354,-0.145 0.925,-0.335 1.164,-0.614 0.329,-0.384 0.384,-0.823 0.149,-1.28 z m -3.099,-1.006 c -0.004,-0.073 -0.014,-0.145 -0.024,-0.215 -0.003,-10e-4 -0.004,-0.003 -0.006,-0.004 -0.04,-0.025 -0.08,-0.045 -0.12,-0.061 -0.039,-0.022 -0.079,-0.029 -0.117,-0.047 -0.152,-0.044 -0.291,-0.054 -0.452,-0.018 -0.159,0.033 -0.34,0.112 -0.517,0.235 -0.089,0.06 -0.177,0.13 -0.261,0.206 -0.043,0.039 -0.084,0.079 -0.122,0.119 -0.14,0.121 -0.296,0.205 -0.296,0.205 l -0.156,0.081 c -0.225,0.115 -0.474,0.179 -0.726,0.185 l -0.278,0.006 c -0.22,0 -0.443,-0.016 -0.664,-0.024 -0.444,-0.031 -0.886,-0.085 -1.326,-0.165 -0.221,-0.036 -0.436,-0.096 -0.655,-0.145 -0.216,-0.055 -0.429,-0.124 -0.644,-0.186 -0.211,-0.073 -0.421,-0.146 -0.63,-0.225 -0.203,-0.088 -0.41,-0.17 -0.61,-0.264 -0.398,-0.188 -0.79,-0.388 -1.162,-0.61 -0.186,-0.11 -0.374,-0.221 -0.551,-0.34 -0.182,-0.114 -0.36,-0.232 -0.535,-0.353 -0.703,-0.48 -1.356,-0.999 -2,-1.507 l -0.955,-0.76 c -0.315,-0.251 -0.633,-0.498 -0.95,-0.74 l -0.478,-0.357 -0.482,-0.348 -0.488,-0.335 -0.496,-0.321 c -0.333,-0.209 -0.67,-0.411 -1.014,-0.6 -0.345,-0.189 -0.693,-0.371 -1.05,-0.535 -0.176,-0.088 -0.355,-0.168 -0.537,-0.245 -0.18,-0.08 -0.361,-0.159 -0.542,-0.225 -0.354,-0.144 -0.747,-0.273 -1.133,-0.407 l 0.252,-0.934 0.601,0.117 c 0.198,0.037 0.411,0.101 0.618,0.152 0.211,0.051 0.413,0.111 0.614,0.173 0.205,0.061 0.409,0.121 0.606,0.197 0.4,0.139 0.794,0.299 1.184,0.466 0.389,0.173 0.767,0.359 1.145,0.554 l 0.556,0.305 0.545,0.321 c 0.359,0.22 0.714,0.444 1.06,0.677 0.07,0.048 0.139,0.098 0.21,0.147 0.438,-3.498 1.476,-5.907 3.1,-7.163 1.268,-0.981 2.45,-0.909 2.752,-0.87 0.024,-0.048 0.045,-0.096 0.069,-0.145 0.11,-0.226 0.224,-0.445 0.331,-0.655 0.051,-0.104 0.106,-0.21 0.154,-0.311 0.048,-0.101 0.104,-0.204 0.146,-0.303 0.043,-0.1 0.092,-0.2 0.129,-0.298 0.039,-0.098 0.089,-0.203 0.114,-0.29 l 0.049,-0.135 0.025,-0.069 0.025,-0.088 0.012,-0.042 c -0.129,-0.279 -0.343,-0.56 -0.617,-0.818 -0.345,-0.325 -0.772,-0.61 -1.232,-0.857 -0.922,-0.493 -1.971,-0.83 -3.032,-1.033 -0.527,-0.101 -1.081,-0.165 -1.594,-0.188 l -0.22,-0.008 -0.052,-0.002 c 0.007,10e-4 -0.026,10e-4 -0.038,10e-4 h -0.096 c -0.129,-10e-4 -0.259,0.003 -0.388,0.011 -0.259,0.011 -0.514,0.045 -0.768,0.083 -0.508,0.088 -1.008,0.222 -1.487,0.417 -0.24,0.096 -0.475,0.204 -0.702,0.324 l -0.168,0.094 -0.145,0.083 c 0.004,0.007 0.007,0.014 0.012,0.023 0.039,0.068 0.083,0.177 0.158,0.302 0.085,0.12 0.17,0.283 0.313,0.437 0.129,0.166 0.301,0.334 0.505,0.508 0.206,0.17 0.45,0.343 0.734,0.498 0.143,0.079 0.289,0.159 0.451,0.226 0.156,0.074 0.323,0.139 0.496,0.2 0.344,0.129 0.72,0.226 1.106,0.318 0.389,0.08 0.791,0.15 1.2,0.195 0.254,0.029 0.509,0.051 0.764,0.068 l 0.01,0.814 c -0.263,0.018 -0.529,0.03 -0.796,0.035 -0.436,0.013 -0.877,-0.004 -1.315,-0.034 -0.436,-0.041 -0.87,-0.094 -1.29,-0.187 -0.211,-0.044 -0.418,-0.094 -0.62,-0.158 -0.203,-0.054 -0.398,-0.126 -0.589,-0.201 -0.381,-0.145 -0.734,-0.326 -1.049,-0.521 -0.313,-0.199 -0.593,-0.405 -0.815,-0.619 -0.236,-0.2 -0.401,-0.415 -0.551,-0.581 -0.035,-0.043 -0.065,-0.081 -0.094,-0.12 l -0.1,0.104 c -0.415,0.426 -0.834,0.844 -1.256,1.257 -0.848,0.824 -1.71,1.624 -2.566,2.416 -1.713,1.586 -3.415,3.147 -4.881,4.859 -0.729,0.858 -1.393,1.754 -1.954,2.7 -0.549,0.949 -1,1.946 -1.303,2.988 -0.144,0.522 -0.276,1.049 -0.35,1.587 -0.049,0.271 -0.073,0.532 -0.098,0.793 l -0.022,0.196 -0.011,0.219 -0.021,0.436 -0.006,0.11 -0.002,0.079 -0.002,0.205 0.005,0.41 c 0.009,0.273 0.02,0.544 0.046,0.812 0.046,0.539 0.134,1.067 0.26,1.583 0.064,0.256 0.136,0.511 0.223,0.757 0.083,0.251 0.185,0.49 0.281,0.711 l 0.187,0.392 c 0.069,0.146 0.143,0.293 0.202,0.443 0.064,0.151 0.125,0.301 0.177,0.457 0.057,0.152 0.109,0.309 0.154,0.466 0.375,1.254 0.463,2.614 0.175,3.931 -0.145,0.657 -0.39,1.3 -0.733,1.898 -0.214,0.365 -0.471,0.709 -0.758,1.025 0.423,-0.03 0.846,-0.08 1.271,-0.153 0.129,-0.022 0.255,-0.046 0.382,-0.07 0.09,-0.019 0.18,-0.035 0.27,-0.054 0.004,-0.001 0.007,-0.001 0.01,-0.001 2.601,-0.531 4.976,-1.403 7.019,-2.52 0.695,-1.406 0.68,-4.355 -0.044,-8.104 -0.239,-1.234 -0.234,-2.269 0.013,-3.075 0.416,-1.358 1.847,-2.112 3.259,-1.72 2.147,0.597 3.821,1.208 5.297,1.747 2.324,0.848 4.157,1.516 6.748,1.752 0.709,0.064 2.456,0.081 3.778,0.066 0.031,0.235 0.068,0.464 0.108,0.669 l 0.226,-0.086 c 0.085,-0.041 0.179,-0.075 0.261,-0.12 0.083,-0.044 0.166,-0.085 0.243,-0.136 0.026,-0.015 0.05,-0.031 0.076,-0.048 0.049,-0.033 0.096,-0.065 0.143,-0.099 0.003,-10e-4 0.004,-0.003 0.005,-0.003 0.069,-0.053 0.136,-0.107 0.198,-0.165 0.063,-0.057 0.121,-0.117 0.175,-0.18 0.053,-0.064 0.105,-0.128 0.149,-0.197 0.182,-0.268 0.294,-0.58 0.339,-0.923 0.024,-0.171 0.029,-0.351 0.016,-0.53 z m -12.795,5.85 c -0.861,1.684 -2.149,3.255 -3.782,4.64 1.978,1.325 5.375,3.915 6.631,6.772 l 0.626,-0.131 c 0.22,-1.416 0.953,-7.94 -3.475,-11.281 z m -0.777,-4.269 c -1.329,-0.484 -2.834,-1.015 -4.69,-1.531 -0.421,-0.117 -0.86,0.092 -0.977,0.47 -0.107,0.351 -0.189,1.015 0.037,2.175 0.413,2.139 0.754,4.814 0.493,7.001 3.016,-2.237 4.916,-5.095 5.137,-8.115 z m -2.333,-21.908 c 10e-4,-0.001 0.003,-0.001 0.005,-0.002 0.604,-0.242 1.235,-0.415 1.878,-0.524 0.323,-0.049 0.647,-0.089 0.971,-0.104 0.076,-0.005 0.152,-0.004 0.227,-0.006 v -0.007 c 0,0 0.143,-0.006 0.393,-0.017 0.125,-0.003 0.271,-0.01 0.452,-0.011 0.18,-0.003 0.383,-0.004 0.603,-0.006 0.438,0.001 0.943,0.011 1.485,0.027 0.54,0.015 1.115,0.051 1.69,0.087 0.38,0.025 0.759,0.05 1.127,0.078 -0.625,-1.746 -2.254,-2.953 -4.077,-3.095 0.029,0.021 0.061,0.044 0.089,0.065 0.128,0.09 0.237,0.195 0.346,0.285 0.101,0.101 0.201,0.189 0.282,0.284 0.17,0.179 0.294,0.345 0.379,0.465 0.041,0.06 0.075,0.109 0.101,0.151 0.026,0.041 0.029,0.05 0.032,0.053 l -0.749,0.521 c 0.001,0.003 -0.016,-0.019 -0.031,-0.032 -0.019,-0.018 -0.048,-0.045 -0.083,-0.08 -0.081,-0.073 -0.2,-0.18 -0.359,-0.29 -0.076,-0.057 -0.169,-0.109 -0.258,-0.169 -0.099,-0.05 -0.195,-0.114 -0.305,-0.159 -0.107,-0.051 -0.219,-0.1 -0.337,-0.14 -0.114,-0.048 -0.236,-0.075 -0.355,-0.109 -0.119,-0.035 -0.242,-0.049 -0.36,-0.073 -0.121,-0.016 -0.241,-0.024 -0.352,-0.037 -0.115,-0.006 -0.227,-0.003 -0.331,-0.003 -0.104,-0.006 -0.206,0.014 -0.297,0.018 -0.092,0.01 -0.174,0.011 -0.25,0.029 -0.053,0.01 -0.098,0.018 -0.138,0.025 -0.441,0.313 -0.828,0.703 -1.132,1.165 -0.326,0.495 -0.544,1.042 -0.646,1.611 z m -15.371,25.957 c -0.051,-0.128 -0.1,-0.255 -0.144,-0.384 -0.106,-0.302 -0.195,-0.611 -0.272,-0.92 -0.01,-0.045 -0.02,-0.09 -0.03,-0.135 -2.308,-0.973 -6.331,-1.663 -9.607,-1.625 -2.982,0.033 -5.228,0.613 -6.16,1.589 -0.304,0.318 -0.445,0.655 -0.431,1.032 0.064,1.792 3.468,2.554 6.821,2.52 3.698,-0.041 7.836,-1.057 9.823,-2.077 z m 51.614,-14.428 -0.005,0.054 -0.249,1.482 v 0 l -1.01,-0.101 -0.604,1.616 -1.719,-0.172 -0.602,1.617 -1.719,-0.172 -0.605,1.617 -1.715,-0.173 -0.602,1.616 -1.72,-0.173 -0.605,1.618 -1.72,-0.171 -0.608,1.618 -0.01,0.015 -2.024,-0.168 c 0.077,0.254 0.075,0.926 0.024,1.183 -0.12,0.596 -0.415,1.21 -1.027,1.47 -1.281,0.541 -2.677,1.313 -3.96,1.847 -0.013,0.005 -0.264,0.124 -0.458,0.211 -0.224,0.09 -0.323,-0.007 -0.304,-0.189 l 0.085,-0.489 c 0.077,-0.389 0.085,-0.448 0.163,-0.837 0.02,-0.08 0.056,-0.288 0.069,-0.434 -0.001,-0.053 -0.036,-0.05 -0.103,-0.034 -0.056,0.016 -0.141,0.043 -0.201,0.07 l -0.749,0.272 c -0.016,0.005 -0.035,-0.005 -0.04,-0.023 l -0.189,-0.69 c -1.378,0.016 -3.211,-10e-4 -4.018,-0.075 -2.239,-0.204 -3.98,-0.71 -5.775,-1.337 -0.08,0.613 -0.215,1.218 -0.404,1.812 2.59,1.765 4.199,4.595 4.662,8.245 0.249,1.959 0.114,3.689 -0.011,4.653 0.006,0.007 0.011,0.013 0.011,0.013 -0.16,1.278 1.955,-0.053 2.79,-0.203 0.835,-0.151 1.705,0.354 2.053,1.676 0.283,1.074 -0.849,2.127 -1.288,2.404 l -0.257,0.088 c -0.071,-0.044 0,0 -0.08,-0.045 l -0.523,-0.267 c -1.511,-0.699 -3.721,-1.565 -6.803,-0.008 l -0.97,-1.805 h 0.001 c 0.357,-0.039 0.666,-0.429 0.754,-0.798 -0.96,-2.206 -3.841,-4.612 -6.492,-6.295 -2.581,1.766 -5.781,3.118 -9.366,3.855 -0.005,0.001 -0.009,0.004 -0.014,0.005 -0.23,0.05 -0.458,0.091 -0.687,0.131 -0.048,0.007 -0.095,0.018 -0.143,0.026 -0.051,0.009 -0.1,0.02 -0.151,0.029 -0.049,0.007 -0.098,0.01 -0.145,0.011 -0.231,0.034 -0.463,0.063 -0.694,0.085 1.259,0.546 2.591,1.38 2.843,2.526 0.426,1.949 -1.936,2.801 -2.564,2.49 -0.474,-0.235 -1.272,-2.717 -5.094,-4.975 l -0.032,0.003 -0.138,-1.859 c 0.556,-0.041 0.996,-0.124 1.46,-0.289 0.453,-0.169 0.866,-0.408 1.23,-0.707 0.36,-0.305 0.665,-0.674 0.907,-1.088 0.237,-0.418 0.414,-0.877 0.518,-1.36 0.209,-0.966 0.149,-2.009 -0.15,-2.988 -0.018,-0.068 -0.043,-0.131 -0.063,-0.198 -2.493,1.225 -6.896,2.201 -10.574,2.241 -0.096,0.001 -0.19,0.001 -0.284,0.002 -5.25,0 -8.431,-1.644 -8.53,-4.423 -0.033,-0.91 0.305,-1.761 0.975,-2.464 1.334,-1.399 3.95,-2.159 7.565,-2.198 3.103,-0.035 6.731,0.521 9.315,1.378 -0.007,-0.151 -0.014,-0.301 -0.019,-0.451 l -0.005,-0.466 0.004,-0.233 0.003,-0.138 0.006,-0.11 0.022,-0.437 0.013,-0.218 0.022,-0.24 c 0.031,-0.32 0.064,-0.64 0.118,-0.944 0.088,-0.617 0.237,-1.228 0.405,-1.828 0.35,-1.201 0.869,-2.346 1.49,-3.415 0.631,-1.063 1.364,-2.047 2.147,-2.966 1.578,-1.835 3.329,-3.431 5.039,-5.015 0.858,-0.791 1.708,-1.579 2.535,-2.382 0.413,-0.403 0.82,-0.806 1.22,-1.218 l 0.616,-0.639 c 0.181,-0.182 0.38,-0.355 0.59,-0.52 -0.066,-1.313 0.28,-2.601 1.013,-3.715 0.934,-1.421 2.381,-2.384 4.074,-2.71 3.462,-0.667 6.896,1.581 7.653,5.014 l -0.142,0.031 c 0.059,0.007 0.121,0.015 0.179,0.023 0.428,0.056 0.782,0.109 1.031,0.152 0.249,0.04 0.394,0.07 0.394,0.07 l -0.154,1.545 c 0,0 -0.139,0.003 -0.388,-0.002 -0.246,-0.001 -0.601,-0.01 -1.025,-0.024 -0.14,-0.004 -0.29,-0.009 -0.442,-0.014 0.211,0.156 0.42,0.321 0.617,0.509 0.484,0.456 0.939,1.036 1.18,1.779 0.01,0.026 0.019,0.053 0.027,0.077 0,10e-4 0.001,10e-4 0.001,0.003 0.011,0.036 0.019,0.069 0.021,0.081 0.016,0.09 0.014,0.106 0.018,0.153 v 0.067 l -0.003,0.044 c -0.004,0.044 -0.006,0.071 -0.01,0.09 -0.006,0.041 -0.011,0.061 -0.016,0.082 l -0.019,0.073 -0.007,0.022 -0.025,0.088 -0.052,0.176 -0.026,0.088 -0.036,0.105 -0.074,0.208 c -0.05,0.145 -0.104,0.261 -0.157,0.39 -0.053,0.129 -0.114,0.245 -0.172,0.369 -0.117,0.24 -0.245,0.468 -0.372,0.686 -0.128,0.217 -0.253,0.425 -0.378,0.627 -0.121,0.199 -0.231,0.396 -0.338,0.587 -0.049,0.096 -0.107,0.193 -0.15,0.289 -0.046,0.096 -0.1,0.191 -0.138,0.289 -0.037,0.099 -0.09,0.194 -0.122,0.293 -0.035,0.1 -0.081,0.198 -0.108,0.302 -0.027,0.103 -0.069,0.204 -0.096,0.308 -0.025,0.106 -0.053,0.213 -0.084,0.319 l -1.272,-0.096 c -0.009,-0.27 -0.007,-0.545 0.025,-0.82 0.006,-0.099 0.024,-0.195 0.04,-0.293 -0.264,0.053 -0.637,0.184 -1.044,0.515 -0.911,0.742 -2.069,2.541 -2.438,6.88 0.022,0.015 0.044,0.031 0.067,0.047 0.328,0.24 0.654,0.476 0.981,0.705 0.328,0.229 0.651,0.455 0.979,0.666 0.164,0.107 0.329,0.21 0.495,0.31 0.165,0.103 0.33,0.195 0.497,0.289 0.334,0.188 0.671,0.357 1.013,0.512 0.17,0.076 0.345,0.141 0.517,0.215 l 0.524,0.185 c 0.176,0.05 0.352,0.107 0.531,0.154 0.18,0.039 0.359,0.088 0.54,0.122 0.361,0.073 0.729,0.122 1.099,0.155 0.186,0.01 0.416,0.027 0.602,0.035 l 0.144,0.007 c 0.151,0 0.122,-0.089 0.123,-0.089 l -0.279,-0.68 c -0.063,-0.15 -0.231,-0.225 -0.384,-0.17 l -0.499,0.165 c -0.031,0.011 -0.065,0.003 -0.088,-0.02 l -1.109,-1.12 c -0.045,-0.044 -0.029,-0.117 0.029,-0.14 l 24.528,-9.695 z m -31.29,-7.392 c -0.64,0.021 -1.177,-0.293 -1.203,-0.703 -0.024,-0.411 0.474,-0.761 1.115,-0.784 0.64,-0.022 1.177,0.291 1.203,0.703 0.024,0.41 -0.475,0.76 -1.115,0.784 z"/></g></svg>