<svg xmlns="http://www.w3.org/2000/svg" viewBox="0 0 100 100"><defs/><defs><linearGradient id="a" x1="0" x2="1" y1="1" y2="0"><stop offset="0%" stop-color="#055F4E"/><stop offset="100%" stop-color="#56C0A7"/></linearGradient></defs><g><path fill="url(#a)" fill-rule="evenodd" d="m 0,0 h 100 v 100 h -100 z"/><path fill="#fff" fill-rule="evenodd" d="m 21.25,67.5 h 20 v -2.5 h -20 z m 21.25,-8.75 h 11.25 v -2.5 h -11.25 z m -21.25,0 h 18.75 v -2.5 h -18.75 z m 0,-26.25 h 16.25 v -2.5 h -16.25 z m 57.513,35.099 c -0.141,0.096 -0.322,0.174 -0.508,0.26 -0.66,0.309 -1.564,0.732 -1.928,1.705 -0.051,0.14 -0.077,0.288 -0.077,0.436 v 5 h -2.5 v -11.25 h 3.75 v -2.5 h -10 v 2.5 h 3.75 v 11.25 h -2.5 v -5 c 0,-0.149 -0.026,-0.296 -0.079,-0.436 -0.362,-0.973 -1.266,-1.396 -1.926,-1.705 -0.186,-0.086 -0.367,-0.164 -0.509,-0.26 -3.705,-2.569 -5.556,-6.967 -4.83,-11.479 0.81,-5.041 5.101,-9.094 10.202,-9.635 0.261,-0.029 1.526,-0.027 1.783,0 5.101,0.541 9.392,4.594 10.202,9.635 0.726,4.511 -1.125,8.91 -4.83,11.479 z m 7.299,-11.875 c -0.986,-6.136 -6.205,-11.066 -12.409,-11.726 -0.432,-0.045 -1.877,-0.045 -2.307,0 h -0.001 c -6.202,0.66 -11.421,5.59 -12.408,11.726 -0.88,5.47 1.371,10.808 5.876,13.929 0.244,0.169 0.55,0.321 0.872,0.471 0.171,0.08 0.432,0.201 0.565,0.269 v 5.857 c 0,0.69 0.559,1.25 1.25,1.25 h 10 c 0.691,0 1.25,-0.56 1.25,-1.25 v -5.837 c 0.151,-0.096 0.4,-0.211 0.565,-0.289 0.321,-0.15 0.627,-0.302 0.871,-0.471 4.505,-3.121 6.756,-8.459 5.876,-13.929 z m -11.731,26.776 h -3.663 l -0.833,-1.25 h 5.33 z m 3.169,-3.75 h -10 c -0.461,0 -0.885,0.254 -1.103,0.66 -0.217,0.408 -0.192,0.9 0.063,1.284 l 2.5,3.75 c 0.232,0.348 0.622,0.556 1.04,0.556 h 5 c 0.417,0 0.807,-0.209 1.04,-0.556 l 2.5,-3.75 c 0.255,-0.384 0.28,-0.876 0.062,-1.284 -0.217,-0.406 -0.641,-0.66 -1.102,-0.66 z m -56.25,-28.75 h 32.5 v -2.5 h -32.5 z m 11.25,-8.75 h 21.25 v -2.5 h -21.25 z m -11.25,0 h 8.75 v -2.5 h -8.75 z m 23.75,-21.982 10.732,10.732 h -10.732 z m 12.5,56.982 h -40 v -58.744 l 25,-0.006 v 13.75 c 0,0.69 0.559,1.25 1.25,1.25 h 13.75 v 15 h 2.5 v -16.25 h -0.012 c -10e-4,-0.325 -0.116,-0.645 -0.355,-0.884 l -14.999,-15 c -0.237,-0.239 -0.557,-0.354 -0.884,-0.353 v -0.013 l -27.5,0.006 c -0.691,0 -1.25,0.56 -1.25,1.25 v 61.244 c 0,0.69 0.559,1.25 1.25,1.25 h 42.5 c 0.691,0 1.25,-0.56 1.25,-1.25 v -7.5 h -2.5 z"/></g></svg>