<svg xmlns="http://www.w3.org/2000/svg" viewBox="0 0 100 100"><defs/><defs><linearGradient id="a" x1="0" x2="1" y1="1" y2="0"><stop offset="0%" stop-color="#1B660F"/><stop offset="100%" stop-color="#6CAE3E"/></linearGradient></defs><g><path fill="url(#a)" fill-rule="evenodd" d="m 0,0 h 100 v 100 h -100 z"/><path fill="#fff" fill-rule="evenodd" d="m 71.779,59.883 c 0,-1.387 -1.121,-2.515 -2.5,-2.515 -1.379,0 -2.5,1.128 -2.5,2.515 0,1.387 1.121,2.515 2.5,2.514 1.379,0 2.5,-1.128 2.5,-2.514 m -4.2,4.71 c -1.532,-0.562 -2.707,-1.848 -3.121,-3.453 h -2.679 v 10.089 c 2.424,-1.456 4.59,-3.915 5.8,-6.636 m -8.3,7.754 v -12.464 c 0,-0.694 0.559,-1.257 1.25,-1.258 h 3.929 c 0.415,-1.608 1.594,-2.896 3.128,-3.455 -1.384,-3.176 -4.222,-6.033 -7.37,-7.418 -0.556,1.547 -1.837,2.732 -3.437,3.151 v 21.943 c 0.857,-0.083 1.696,-0.255 2.5,-0.499 m -4.999,0.498 v -21.942 c -1.596,-0.417 -2.876,-1.602 -3.434,-3.146 -3.155,1.403 -5.992,4.257 -7.373,7.413 1.536,0.561 2.714,1.847 3.128,3.455 h 3.929 c 0.691,0 1.25,0.563 1.25,1.258 v 12.435 c 0.821,0.263 1.65,0.443 2.5,0.527 m -5,-1.668 v -10.037 h -2.679 c -0.414,1.604 -1.587,2.889 -3.118,3.453 1.2,2.679 3.364,5.112 5.797,6.584 m -7.5,-8.78 c 1.379,0 2.5,-1.128 2.5,-2.514 0,-1.387 -1.121,-2.515 -2.5,-2.515 -1.379,0 -2.5,1.128 -2.5,2.515 0,1.387 1.121,2.515 2.5,2.514 m 11.25,-16.345 c 0,1.387 1.121,2.515 2.5,2.515 1.379,0 2.5,-1.128 2.499,-2.515 0,-1.387 -1.121,-2.515 -2.499,-2.515 -1.379,0 -2.5,1.128 -2.5,2.515 m 21.249,13.831 c 0,2.467 -1.777,4.515 -4.111,4.938 -1.521,4.001 -4.746,7.553 -8.389,9.238 v 5.941 h -2.5 v -5.052 c -0.814,0.205 -1.651,0.348 -2.5,0.417 v 4.635 h -2.499 v -4.635 c -0.846,-0.07 -1.68,-0.22 -2.5,-0.433 v 5.068 h -2.5 v -5.984 c -3.659,-1.718 -6.88,-5.244 -8.387,-9.195 -2.334,-0.424 -4.112,-2.472 -4.113,-4.938 0,-2.466 1.775,-4.513 4.106,-4.939 1.595,-4.324 5.415,-8.168 9.734,-9.789 0.422,-2.345 2.457,-4.133 4.91,-4.132 2.451,0 4.485,1.785 4.909,4.127 4.311,1.599 8.135,5.443 9.734,9.794 2.331,0.427 4.106,2.474 4.106,4.939 m 6.969,-11.79 c 0.056,3.421 -1.295,6.741 -3.613,8.934 l -1.713,-1.833 c 1.815,-1.715 2.87,-4.334 2.825,-7.005 0.001,-5.154 -3.761,-9.321 -8.749,-9.788 -0.671,-0.064 -1.172,-0.651 -1.132,-1.329 l 0.01,-0.148 c 0.006,-0.086 0.013,-0.171 0.013,-0.261 0,-3.302 -2.654,-5.987 -5.916,-5.987 -1.526,0 -2.975,0.59 -4.081,1.66 -0.304,0.293 -0.737,0.41 -1.144,0.319 -0.41,-0.093 -0.745,-0.389 -0.892,-0.786 -2.081,-5.595 -7.437,-9.355 -13.328,-9.354 -7.856,0 -14.247,6.466 -14.247,14.416 0,0.543 -0.347,1.032 -0.861,1.202 -4.289,1.409 -7.17,5.423 -7.17,9.986 0,5.793 4.657,10.506 10.382,10.506 h 0.149 v 2.515 h -0.149 c -7.103,0 -12.882,-5.842 -12.882,-13.021 0,-5.351 3.202,-10.093 8.055,-12.068 0.457,-8.932 7.783,-16.051 16.723,-16.051 6.37,0 12.207,3.733 15.004,9.444 1.324,-0.835 2.854,-1.282 4.441,-1.283 4.439,0 8.086,3.489 8.396,7.896 5.706,1.076 9.88,6.063 9.879,12.036"/></g></svg>