<svg xmlns="http://www.w3.org/2000/svg" viewBox="0 0 100 100"><defs/><defs><linearGradient id="a" x1="0" x2="1" y1="1" y2="0"><stop offset="0%" stop-color="#BD0816"/><stop offset="100%" stop-color="#FF5252"/></linearGradient></defs><g><path fill="url(#a)" fill-rule="evenodd" d="m 0,0 h 100 v 100 h -100 z"/><path fill="#fff" fill-rule="evenodd" d="m 67.513,62.499 h -2.5 v 5 h -5 v 2.5 h 5 v 5 h 2.5 v -5 h 5 v -2.5 h -5 z m 8.75,6.25 c 0,-5.514 -4.486,-10 -10,-10 -5.514,0 -10,4.486 -10,10 0,5.514 4.486,10 10,10 5.514,0 10,-4.486 10,-10 z m 2.5,0 c 0,6.893 -5.607,12.5 -12.5,12.5 -6.893,0 -12.5,-5.607 -12.5,-12.5 0,-6.893 5.607,-12.5 12.5,-12.5 6.893,0 12.5,5.607 12.5,12.5 z m -33.75,3.714 v -44.394 l -13.75,5.289 v 25.391 c 0.015,0.517 0.495,12.975 13.75,13.714 z m 16.25,-17.839 v -21.266 l -13.75,-5.289 v 44.384 c 1.45,-0.096 2.796,-0.352 4.045,-0.749 0.169,0.836 0.418,1.643 0.719,2.423 -1.831,0.574 -3.837,0.872 -6.014,0.872 -16.949,0 -17.496,-16.06 -17.5,-16.222 v -26.278 c 0,-0.517 0.319,-0.981 0.802,-1.167 l 16.25,-6.25 c 0.29,-0.11 0.607,-0.11 0.897,0 l 16.25,6.25 c 0.483,0.186 0.801,0.65 0.801,1.167 v 21.477 c -0.86,0.145 -1.695,0.364 -2.5,0.648 z m -5.318,24.985 c 0.698,0.661 1.456,1.256 2.271,1.777 -3.444,1.56 -7.447,2.349 -11.953,2.348 -7.909,0 -14.214,-2.406 -18.738,-7.151 -8.039,-8.429 -7.536,-21.107 -7.51,-21.642 l -0.002,-27.442 c 0,-0.511 0.311,-0.97 0.787,-1.161 l 25,-10 c 0.297,-0.117 0.63,-0.117 0.927,0 l 25,10 c 0.475,0.191 0.786,0.65 0.786,1.161 v 27.5 c 0,0 0.003,0.055 0.005,0.134 -0.8,-0.369 -1.636,-0.665 -2.503,-0.89 l -0.002,-25.897 -23.75,-9.5 -23.75,9.5 v 26.653 c -0.007,0.179 -0.469,12.23 6.833,19.872 4.034,4.223 9.726,6.364 16.917,6.363 3.61,0 6.844,-0.552 9.682,-1.625 z"/></g></svg>