<svg xmlns="http://www.w3.org/2000/svg" viewBox="0 0 100 100"><defs/><defs><linearGradient id="a" x1="0" x2="1" y1="1" y2="0"><stop offset="0%" stop-color="#B0084D"/><stop offset="100%" stop-color="#FF4F8B"/></linearGradient></defs><g><path fill="url(#a)" fill-rule="evenodd" d="m 0,0 h 100 v 100 h -100 z"/><path fill="#fff" fill-rule="evenodd" d="m 40,28.402 8.75,-2.917 v 28.2 c -7.218,-0.659 -8.75,-6.934 -8.75,-8.685 z m 20,16.598 c 0,1.751 -1.532,8.026 -8.75,8.685 v -28.2 l 8.75,2.917 z m -10,11.25 c 9.445,0 12.5,-7.579 12.5,-11.25 v -17.5 c 0,-0.537 -0.344,-1.015 -0.855,-1.185 l -11.25,-3.75 c -0.256,-0.086 -0.534,-0.086 -0.79,0 l -11.25,3.75 c -0.511,0.17 -0.855,0.647 -0.855,1.185 v 17.5 c 0,3.671 3.055,11.25 12.5,11.25 z m -16.25,-31.56 16.25,-5.861 16.25,5.861 v 19.06 c 0,3.813 -1.172,16.25 -16.25,16.25 -16.066,0 -16.25,-15.586 -16.25,-16.25 z m 16.25,37.81 c 17.845,0 18.75,-15.619 18.75,-18.75 v -19.938 c 0,-0.526 -0.331,-0.998 -0.826,-1.177 l -17.5,-6.311 c -0.274,-0.099 -0.574,-0.099 -0.848,0 l -17.5,6.311 c -0.495,0.179 -0.826,0.65 -0.826,1.177 v 19.938 c 0,6.485 3.919,18.75 18.75,18.75 z m 26.875,10 c -1.724,0 -3.125,-1.401 -3.125,-3.125 0,-1.722 1.401,-3.125 3.125,-3.125 1.724,0 3.125,1.403 3.125,3.125 0,1.724 -1.401,3.125 -3.125,3.125 z m -23.75,5.625 c 0,1.724 -1.401,3.125 -3.125,3.125 -1.724,0 -3.125,-1.401 -3.125,-3.125 0,-1.722 1.401,-3.125 3.125,-3.125 1.724,0 3.125,1.403 3.125,3.125 z m -30,-5.625 c -1.724,0 -3.125,-1.401 -3.125,-3.125 0,-1.722 1.401,-3.125 3.125,-3.125 1.724,0 3.125,1.403 3.125,3.125 0,1.724 -1.401,3.125 -3.125,3.125 z m 53.75,-8.75 c -1.421,0 -2.705,0.547 -3.696,1.419 l -3.841,-3.847 c 3.969,-3.308 7.376,-7.581 9.837,-12.608 l -2.246,-1.1 c -5.545,11.321 -16.115,18.636 -26.929,18.636 -11.067,0 -22.553,-7.664 -27.926,-18.636 l -2.247,1.1 c 2.149,4.385 5.524,8.786 9.825,12.343 l -3.637,3.518 c -0.848,-0.512 -1.829,-0.825 -2.89,-0.825 -3.101,0 -5.625,2.524 -5.625,5.625 0,3.103 2.524,5.625 5.625,5.625 3.101,0 5.625,-2.522 5.625,-5.625 0,-1.135 -0.344,-2.189 -0.924,-3.073 l 3.83,-3.705 c 4.828,3.466 10.646,5.823 17.094,6.098 v 3.957 c -2.5,0.571 -4.375,2.804 -4.375,5.473 0,3.103 2.524,5.625 5.625,5.625 3.101,0 5.625,-2.522 5.625,-5.625 0,-2.67 -1.875,-4.902 -4.375,-5.473 v -3.953 c 5.679,-0.269 11.235,-2.343 16.096,-5.832 l 4.34,4.345 c -0.28,0.667 -0.436,1.398 -0.436,2.163 0,3.103 2.524,5.625 5.625,5.625 3.101,0 5.625,-2.522 5.625,-5.625 0,-3.101 -2.524,-5.625 -5.625,-5.625 z"/></g></svg>