<svg xmlns="http://www.w3.org/2000/svg" viewBox="0 0 100 100"><defs/><defs><linearGradient id="a" x1="0" x2="1" y1="1" y2="0"><stop offset="0%" stop-color="#BD0816"/><stop offset="100%" stop-color="#FF5252"/></linearGradient></defs><g><path fill="url(#a)" fill-rule="evenodd" d="m 0,0 h 100 v 100 h -100 z"/><path fill="#fff" fill-rule="evenodd" d="m 17.5,82.5 v -63.233 l 31.616,31.617 c 0.244,0.244 0.564,0.366 0.884,0.366 0.32,0 0.64,-0.122 0.884,-0.366 l 31.616,-31.617 v 63.233 z m 63.233,-65 -30.733,30.732 -30.732,-30.732 z m 3.017,-2.5 h -67.5 c -0.691,0 -1.25,0.56 -1.25,1.25 v 67.5 c 0,0.69 0.559,1.25 1.25,1.25 h 67.5 c 0.691,0 1.25,-0.56 1.25,-1.25 v -67.5 c 0,-0.69 -0.559,-1.25 -1.25,-1.25 z"/></g></svg>