<svg xmlns="http://www.w3.org/2000/svg" viewBox="0 0 100 100"><defs/><defs><linearGradient id="a" x1="0" x2="1" y1="1" y2="0"><stop offset="0%" stop-color="#4D27A8"/><stop offset="100%" stop-color="#A166FF"/></linearGradient></defs><g><path fill="url(#a)" fill-rule="evenodd" d="m 0,0 h 100 v 100 h -100 z"/><path fill="#fff" fill-rule="evenodd" d="m 65.591,75.929 c 0,-1.379 -1.121,-2.5 -2.5,-2.5 -1.379,0 -2.5,1.121 -2.5,2.5 0,1.379 1.121,2.5 2.5,2.5 1.379,0 2.5,-1.121 2.5,-2.5 z m -15,0 c -1.379,0 -2.5,1.121 -2.5,2.5 0,1.379 1.121,2.5 2.5,2.5 1.379,0 2.5,-1.121 2.5,-2.5 0,-1.379 -1.121,-2.5 -2.5,-2.5 z m -5.823,-13.479 c -1.323,-1.695 -2.433,-3.945 -3.267,-6.596 -1.684,0.424 -3.236,0.96 -4.603,1.605 2.154,2.258 4.843,3.991 7.87,4.991 z m 19.87,-4.989 c -1.366,-0.646 -2.919,-1.182 -4.602,-1.606 -0.834,2.65 -1.946,4.9 -3.267,6.595 3.026,-1 5.716,-2.734 7.869,-4.989 z m -20.712,-2.124 c 1.33,4.125 3.34,6.881 5.415,7.769 v -8.316 c -1.871,0.063 -3.69,0.247 -5.415,0.547 z m 13.684,0.002 c -1.834,-0.32 -3.772,-0.508 -5.769,-0.558 v 8.448 c 2.199,-0.711 4.363,-3.531 5.769,-7.89 z m -14.335,-2.419 c 1.934,-0.35 3.973,-0.561 6.066,-0.63 v -2.094 l -1.616,1.616 -1.767,-1.767 4.633,-4.634 4.634,4.634 -1.767,1.767 -1.617,-1.616 v 2.085 c 2.216,0.054 4.377,0.27 6.42,0.64 0.559,-2.425 0.897,-5.194 0.929,-8.242 h -16.844 c 0.031,3.049 0.37,5.817 0.929,8.241 z m -11.675,-8.241 c 0.094,4.034 1.435,7.755 3.656,10.807 1.638,-0.833 3.526,-1.518 5.592,-2.04 -0.615,-2.659 -0.97,-5.617 -1.002,-8.767 z m 3.936,-12.072 c -2.079,2.717 -3.461,5.992 -3.845,9.572 h 8.195 c 0.124,-2.741 0.503,-5.31 1.078,-7.642 -1.995,-0.498 -3.825,-1.145 -5.428,-1.93 z m 9.232,-6.59 c -2.873,0.949 -5.453,2.547 -7.548,4.639 1.324,0.595 2.822,1.085 4.425,1.48 0.816,-2.447 1.88,-4.524 3.123,-6.119 z m 6.001,-0.973 c -2.464,0 -5.026,2.835 -6.671,7.605 2.111,0.357 4.361,0.552 6.671,0.552 2.31,0 4.559,-0.195 6.671,-0.552 -1.646,-4.77 -4.209,-7.605 -6.671,-7.605 z m 13.547,5.612 c -2.095,-2.091 -4.675,-3.69 -7.547,-4.639 1.244,1.595 2.306,3.671 3.122,6.119 1.604,-0.395 3.101,-0.885 4.425,-1.48 z m -6.168,4.4 c -2.339,0.415 -4.828,0.645 -7.379,0.645 -2.551,0 -5.04,-0.23 -7.38,-0.645 -0.524,2.114 -0.882,4.5 -1.004,7.123 h 16.768 c -0.122,-2.622 -0.481,-5.009 -1.005,-7.123 z m 11.697,7.123 c -0.383,-3.578 -1.765,-6.854 -3.845,-9.572 -1.603,0.785 -3.433,1.432 -5.427,1.93 0.575,2.331 0.954,4.9 1.078,7.642 z m -8.155,2.5 c -0.031,3.15 -0.386,6.109 -1.001,8.768 2.065,0.522 3.954,1.208 5.59,2.04 2.221,-3.053 3.564,-6.774 3.659,-10.808 z m -23.599,28.75 c -1.379,0 -2.5,1.121 -2.5,2.5 0,1.379 1.121,2.5 2.5,2.5 1.379,0 2.5,-1.121 2.5,-2.5 0,-1.379 -1.121,-2.5 -2.5,-2.5 z m 30,2.5 c 0,2.757 -2.243,5 -5,5 -2.757,0 -5,-2.243 -5,-5 0,-2.323 1.599,-4.264 3.75,-4.823 v -1.427 h -10 v 3.927 c 2.151,0.559 3.75,2.5 3.75,4.823 0,2.757 -2.243,5 -5,5 -2.757,0 -5,-2.243 -5,-5 0,-2.323 1.599,-4.264 3.75,-4.823 v -3.927 h -10 v 1.427 c 2.151,0.559 3.75,2.5 3.75,4.823 0,2.757 -2.243,5 -5,5 -2.757,0 -5,-2.243 -5,-5 0,-2.323 1.599,-4.264 3.75,-4.823 v -3.927 h 12.5 v -1.328 c -11.295,-0.74 -20.264,-10.139 -20.263,-21.617 0,-11.96 9.73,-21.69 21.691,-21.69 11.96,0 21.69,9.73 21.69,21.69 0,11.598 -9.157,21.071 -20.618,21.636 v 1.309 h 12.5 v 3.927 c 2.151,0.559 3.75,2.5 3.75,4.823 z m 10.592,-31.602 c 0,7.504 -2.921,14.558 -8.228,19.863 l -1.767,-1.768 c 4.834,-4.833 7.495,-11.259 7.495,-18.095 0,-6.835 -2.661,-13.261 -7.495,-18.095 -9.979,-9.978 -26.214,-9.978 -36.193,0 -4.834,4.834 -7.495,11.26 -7.495,18.095 0,6.836 2.661,13.262 7.495,18.095 l -1.767,1.768 c -5.306,-5.305 -8.227,-12.359 -8.228,-19.863 0,-7.502 2.921,-14.558 8.228,-19.862 10.955,-10.954 28.775,-10.953 39.727,0 5.306,5.305 8.227,12.36 8.228,19.862 z"/></g></svg>