<svg xmlns="http://www.w3.org/2000/svg" viewBox="0 0 100 100"><defs/><defs><linearGradient id="a" x1="0" x2="1" y1="1" y2="0"><stop offset="0%" stop-color="#1B660F"/><stop offset="100%" stop-color="#6CAE3E"/></linearGradient></defs><g><path fill="url(#a)" fill-rule="evenodd" d="m 0,0 h 100 v 100 h -100 z"/><path fill="#fff" fill-rule="evenodd" d="m 70.43,68.705 -10.67,-10.671 -1.767,1.767 10.648,10.65 -18.633,7.724 -18.732,-7.753 10.677,-10.676 -1.768,-1.769 -10.644,10.645 -7.717,-18.616 7.721,-18.652 10.652,10.653 1.769,-1.767 -10.667,-10.668 18.694,-7.748 18.633,7.712 -10.647,10.648 1.767,1.767 10.673,-10.672 7.757,18.714 z m 14.57,-17.455 v -2.5 h -4.634 l -8.034,-19.386 3.919,-3.919 -1.767,-1.768 -3.944,3.945 -19.29,-7.983 v -4.639 h -2.5 v 4.632 l -19.365,8.028 -3.981,-3.983 -1.768,1.768 3.996,3.995 -7.993,19.31 h -4.639 v 2.5 h 4.634 l 7.993,19.286 -3.991,3.99 1.768,1.768 3.958,-3.958 19.388,8.025 v 4.639 h 2.5 v -4.634 l 19.306,-8.001 3.928,3.929 1.767,-1.768 -3.907,-3.907 8.017,-19.369 z m -35,5.9 c -3.942,0 -7.149,-3.207 -7.149,-7.15 0,-3.944 3.206,-7.151 7.149,-7.151 3.944,0 7.15,3.207 7.15,7.151 0,3.942 -3.206,7.15 -7.15,7.15 z m 0,-16.801 c -5.321,0 -9.649,4.33 -9.649,9.651 0,5.32 4.328,9.65 9.649,9.65 5.321,0 9.65,-4.33 9.65,-9.65 0,-5.321 -4.329,-9.651 -9.65,-9.651 z"/></g></svg>