<svg xmlns="http://www.w3.org/2000/svg" viewBox="0 0 100 100"><defs/><defs><linearGradient id="a" x1="0" x2="1" y1="1" y2="0"><stop offset="0%" stop-color="#B0084D"/><stop offset="100%" stop-color="#FF4F8B"/></linearGradient></defs><g><path fill="url(#a)" fill-rule="evenodd" d="m 0,0 h 100 v 100 h -100 z"/><path fill="#fff" fill-rule="evenodd" d="m 60,55.503 v -9.64 l -8.75,4.864 v 9.589 z m -20,-1.183 8.75,5.785 v -9.38 l -8.75,-4.862 z m 1.328,-10.58 8.675,4.821 8.669,-4.819 -8.672,-4.801 z m 21.172,-0.002 v 12.504 c 0,0.456 -0.247,0.877 -0.649,1.096 l -11.25,6.188 c -0.188,0.104 -0.394,0.155 -0.601,0.155 -0.24,0 -0.481,-0.07 -0.69,-0.207 l -11.25,-7.44 c -0.349,-0.231 -0.56,-0.623 -0.56,-1.043 v -11.253 c 0,-0.454 0.246,-0.873 0.645,-1.094 l 11.25,-6.225 c 0.378,-0.209 0.833,-0.209 1.21,0 l 11.25,6.225 c 0.399,0.221 0.645,0.64 0.645,1.094 z m 22.5,5.001 h -13.232 l 6.616,-6.618 -1.768,-1.768 -8.75,8.753 c -0.489,0.489 -0.489,1.28 0,1.768 l 8.75,8.752 1.768,-1.768 -6.617,-6.618 h 13.233 z m -60.25,-9.502 -2,1.5 6,8.002 h -13.75 v 2.501 h 13.232 l -6.616,6.618 1.768,1.768 8.75,-8.752 c 0.44,-0.44 0.49,-1.135 0.116,-1.635 z m 26.5,41.184 10e-4,-12.926 h -2.5 l -10e-4,12.929 -6.559,-7.5 -1.882,1.647 8.748,10.003 c 0.239,0.271 0.581,0.426 0.942,0.426 0.36,0 0.704,-0.155 0.941,-0.426 l 8.751,-10.003 -1.882,-1.647 z m -9.059,-53.364 -1.882,-1.647 8.748,-10.003 c 0.476,-0.543 1.406,-0.543 1.883,0 l 8.751,10.003 -1.882,1.647 -6.559,-7.498 10e-4,12.926 h -2.5 l -10e-4,-12.929 z"/></g></svg>