<svg xmlns="http://www.w3.org/2000/svg" viewBox="0 0 100 100"><defs/><defs><linearGradient id="a" x1="0" x2="1" y1="1" y2="0"><stop offset="0%" stop-color="#1B660F"/><stop offset="100%" stop-color="#6CAE3E"/></linearGradient></defs><g><path fill="url(#a)" fill-rule="evenodd" d="m 0,0 h 100 v 100 h -100 z"/><path fill="#fff" fill-rule="evenodd" d="m 85,50 c 0,18.61 -14.995,33.75 -33.425,33.75 -14.141,0 -26.801,-9.044 -31.505,-22.504 l 2.36,-0.826 c 4.354,12.46 16.066,20.83 29.145,20.83 17.051,0 30.925,-14.019 30.925,-31.25 0,-17.231 -13.874,-31.25 -30.925,-31.25 -12.055,0 -23.085,7.154 -28.1,18.224 l -2.278,-1.031 c 5.42,-11.963 17.344,-19.692 30.378,-19.693 18.43,0 33.425,15.14 33.425,33.75 z m -68.75,5 h 5 v -2.5 h -5 z m -1.25,-6.25 h 6.25 v -2.5 h -6.25 z m 2.5,-6.25 h 3.75 v -2.5 h -3.75 z m 53.235,3.75 c 3.041,0 5.515,2.456 5.515,5.475 v 5.775 h -0.345 c -0.776,-2.178 -2.839,-3.75 -5.28,-3.75 -2.294,0 -4.264,1.384 -5.139,3.357 h -0.486 v -10.857 z m -0.11,16.25 c -1.724,0 -3.125,-1.403 -3.125,-3.125 0,-1.722 1.401,-3.125 3.125,-3.125 1.724,0 3.125,1.403 3.125,3.125 0,1.722 -1.401,3.125 -3.125,3.125 z m -8.125,-5 h -12.845 c -0.776,-2.178 -2.839,-3.75 -5.28,-3.75 -2.19,0 -4.071,1.271 -5,3.101 -0.929,-1.83 -2.81,-3.101 -5,-3.101 -2.441,0 -4.504,1.573 -5.28,3.75 h -1.595 v -17.5 h 35 z m -18.125,5 c -1.724,0 -3.125,-1.403 -3.125,-3.125 0,-1.722 1.401,-3.125 3.125,-3.125 1.724,0 3.125,1.403 3.125,3.125 0,1.722 -1.401,3.125 -3.125,3.125 z m -10,0 c -1.724,0 -3.125,-1.403 -3.125,-3.125 0,-1.722 1.401,-3.125 3.125,-3.125 1.724,0 3.125,1.403 3.125,3.125 0,1.722 -1.401,3.125 -3.125,3.125 z m 29.375,-25 h -37.5 c -0.691,0 -1.25,0.56 -1.25,1.25 v 20 c 0,0.69 0.559,1.25 1.25,1.25 h 2.564 c 0.315,2.805 2.672,5 5.561,5 2.19,0 4.071,-1.271 5,-3.101 0.929,1.83 2.81,3.101 5,3.101 2.889,0 5.246,-2.195 5.561,-5 h 13.814 c 0.356,0 0.675,-0.154 0.902,-0.393 h 0.372 c 0.124,2.991 2.579,5.393 5.601,5.393 2.889,0 5.246,-2.195 5.561,-5 h 1.314 c 0.691,0 1.25,-0.56 1.25,-1.25 v -7.025 c 0,-4.397 -3.595,-7.975 -8.015,-7.975 h -5.735 v -5 c 0,-0.69 -0.559,-1.25 -1.25,-1.25 z"/></g></svg>