<svg xmlns="http://www.w3.org/2000/svg" viewBox="0 0 100 100"><defs/><defs><linearGradient id="a" x1="0" x2="1" y1="1" y2="0"><stop offset="0%" stop-color="#4D27A8"/><stop offset="100%" stop-color="#A166FF"/></linearGradient></defs><g><path fill="url(#a)" fill-rule="evenodd" d="m 0,0 h 100 v 100 h -100 z"/><path fill="#fff" fill-rule="evenodd" d="m 55.325,64.162 c -5.521,0 -10.012,-4.491 -10.013,-10.011 0,-5.521 4.491,-10.012 10.013,-10.012 5.521,0 10.012,4.491 10.012,10.012 0,5.52 -4.491,10.011 -10.012,10.011 z m 0,-22.523 c -6.9,0 -12.512,5.613 -12.513,12.512 0,6.899 5.613,12.511 12.513,12.511 6.9,0 12.512,-5.613 12.512,-12.511 0,-6.9 -5.613,-12.512 -12.512,-12.512 z m 25.36,35.043 c -0.814,0.901 -2.214,0.976 -3.12,0.164 l -10.425,-9.404 c 1.101,-0.98 2.09,-2.08 2.921,-3.301 l 10.459,9.423 c 0.904,0.815 0.976,2.216 0.165,3.118 z m -40.671,-22.531 c 0,-8.444 6.869,-15.313 15.311,-15.312 8.442,0 15.311,6.869 15.311,15.312 0,8.442 -6.869,15.311 -15.311,15.311 -8.442,0 -15.311,-6.869 -15.311,-15.311 z m 31.315,7.768 c 1.146,-2.351 1.807,-4.981 1.807,-7.768 0,-9.822 -7.99,-17.813 -17.811,-17.812 -9.821,0 -17.811,7.99 -17.811,17.812 0,9.821 7.99,17.811 17.811,17.811 3.624,0 6.995,-1.094 9.811,-2.96 l 10.756,9.703 c 0.897,0.806 2.024,1.204 3.148,1.203 1.289,0 2.572,-0.523 3.502,-1.552 1.732,-1.927 1.578,-4.91 -0.347,-6.649 z m 12.421,-36.919 v 42.5 h -2.5 v -41.25 h -10 v 13.75 h -2.5 v -15 c 0,-0.69 0.56,-1.25 1.25,-1.25 h 12.5 c 0.691,0 1.25,0.56 1.25,1.25 z m -20,51.25 h 2.5 v 6.25 c 0,0.691 -0.559,1.25 -1.25,1.25 h -12.5 c -0.691,0 -1.25,-0.559 -1.25,-1.25 v -7.5 h 2.5 v 6.25 h 10 z m -10,-43.75 h -2.5 v -15 c 0,-0.69 0.559,-1.25 1.25,-1.25 h 12.5 c 0.691,0 1.25,0.56 1.25,1.25 v 17.5 h -2.5 v -16.25 h -10 z m -7.5,41.25 h 2.5 v 8.75 c 0,0.691 -0.559,1.25 -1.25,1.25 h -12.5 c -0.69,0 -1.25,-0.559 -1.25,-1.25 v -18.75 h 2.5 v 17.5 h 10 z m -10,-28.75 h -2.5 v -16.25 c 0,-0.69 0.56,-1.25 1.25,-1.25 h 12.5 c 0.691,0 1.25,0.56 1.25,1.25 v 5 h -2.5 v -3.75 h -10 z m -17.5,36.25 h 10 v -42.5 h -10 z m 11.25,-45 h -12.5 c -0.69,0 -1.25,0.56 -1.25,1.25 v 45 c 0,0.691 0.56,1.25 1.25,1.25 h 12.5 c 0.691,0 1.25,-0.559 1.25,-1.25 v -45 c 0,-0.69 -0.559,-1.25 -1.25,-1.25 z"/></g></svg>