<svg xmlns="http://www.w3.org/2000/svg" viewBox="0 0 100 100"><defs/><defs><linearGradient id="a" x1="0" x2="1" y1="1" y2="0"><stop offset="0%" stop-color="#1B660F"/><stop offset="100%" stop-color="#6CAE3E"/></linearGradient></defs><g><path fill="url(#a)" fill-rule="evenodd" d="m 0,0 h 100 v 100 h -100 z"/><path fill="#fff" fill-rule="evenodd" d="m 65.301,50.454 c 0.554,3.795 -0.403,7.578 -2.695,10.652 -2.291,3.075 -5.645,5.074 -9.439,5.628 -0.704,0.103 -1.406,0.153 -2.103,0.152 -3.07,0.001 -6.045,-0.98 -8.549,-2.847 -3.641,-2.714 -5.747,-6.877 -5.78,-11.424 l 2.5,-0.018 c 0.027,3.755 1.767,7.195 4.774,9.437 2.539,1.894 5.659,2.685 8.797,2.226 3.134,-0.458 5.903,-2.107 7.795,-4.647 1.894,-2.54 2.684,-5.664 2.226,-8.798 -0.458,-3.135 -2.107,-5.904 -4.646,-7.796 -4.454,-3.319 -10.995,-2.84 -15.266,0.726 l 2.084,-0.002 0.002,2.5 -5,0.007 h -10e-4 c -0.331,0 -0.65,-0.131 -0.884,-0.366 -0.235,-0.234 -0.366,-0.552 -0.366,-0.884 v -4.984 h 2.5 v 1.875 c 2.084,-1.754 4.674,-2.965 7.46,-3.416 3.946,-0.639 7.942,0.286 10.965,2.54 3.075,2.291 5.074,5.644 5.626,9.439 m 2.199,22.046 c -0.57,0 -1.145,0.081 -1.703,0.238 l -3.546,-4.738 -2.002,1.499 3.292,4.395 c -1.073,0.854 -1.883,2.074 -2.172,3.606 h -22.723 c -0.25,-1.576 -0.993,-2.83 -2.099,-3.695 l 3.207,-4.31 -2.008,-1.491 -3.51,4.717 c -0.544,-0.126 -1.114,-0.215 -1.736,-0.215 -0.537,0 -1.04,0.061 -1.521,0.157 l -7.274,-24.309 c 1.105,-0.38 1.988,-1.041 2.63,-1.928 l 5.709,2.238 0.912,-2.328 -5.634,-2.208 c 0.105,-0.511 0.177,-1.046 0.178,-1.628 0,-1.37 -0.33,-2.556 -0.916,-3.524 l 18.855,-13.197 c 0.839,0.844 1.968,1.398 3.311,1.61 v 6.361 h 2.5 v -6.357 c 1.364,-0.206 2.495,-0.75 3.331,-1.592 l 18.786,13.324 c -0.549,0.946 -0.867,2.08 -0.867,3.375 0,0.525 0.07,1.054 0.2,1.574 l -5.664,2.265 0.928,2.321 5.8,-2.32 c 0.757,1.021 1.853,1.821 3.257,2.186 l -9.142,24.005 c -0.129,-0.006 -0.247,-0.031 -0.379,-0.031 m 0,10 c -2.454,0 -3.75,-1.298 -3.75,-3.75 0,-2.347 1.906,-3.75 3.75,-3.75 2.417,0 3.75,1.331 3.75,3.75 0,2.453 -1.296,3.75 -3.75,3.75 m -35,0 c -2.382,0 -3.75,-1.368 -3.75,-3.75 0,-2.414 1.331,-3.744 3.75,-3.744 3.099,0 3.75,2.036 3.75,3.744 0,2.417 -1.333,3.75 -3.75,3.75 m -15,-40 c 0,-2.419 1.331,-3.75 3.75,-3.75 2.417,0 3.75,1.331 3.75,3.75 0,2.453 -1.296,3.75 -3.75,3.75 -2.487,0 -3.75,-1.262 -3.75,-3.75 m 32.5,-25 c 2.454,0 3.75,1.296 3.75,3.75 0,2.449 -1.296,3.743 -3.75,3.743 -2.419,0 -3.75,-1.329 -3.75,-3.743 0,-2.419 1.331,-3.75 3.75,-3.75 m 28.75,21.25 c 2.417,0 3.75,1.331 3.75,3.75 0,2.417 -1.333,3.75 -3.75,3.75 -2.435,0 -3.75,-1.933 -3.75,-3.75 0,-2.384 1.368,-3.75 3.75,-3.75 m 6.25,3.75 c 0,-3.797 -2.454,-6.25 -6.25,-6.25 -1.425,0 -2.667,0.369 -3.665,1.028 l -19.216,-13.628 c 0.24,-0.72 0.381,-1.516 0.381,-2.4 0,-3.855 -2.395,-6.25 -6.25,-6.25 -3.796,0 -6.25,2.453 -6.25,6.25 0,0.874 0.144,1.667 0.39,2.385 l -19.344,13.541 c -0.973,-0.595 -2.167,-0.926 -3.546,-0.926 -3.796,0 -6.25,2.453 -6.25,6.25 0,3.841 2.38,6.231 6.212,6.246 l 7.449,24.89 c -1.519,1.071 -2.411,2.844 -2.411,5.114 0,3.796 2.454,6.25 6.25,6.25 3.359,0 5.659,-1.926 6.146,-5 h 22.708 c 0.486,3.074 2.786,5 6.146,5 3.796,0 6.25,-2.454 6.25,-6.25 0,-2.729 -1.282,-4.745 -3.404,-5.674 l 9.294,-24.4 c 3.276,-0.362 5.36,-2.69 5.36,-6.176"/></g></svg>