<svg xmlns="http://www.w3.org/2000/svg" viewBox="0 0 100 100"><defs/><defs><linearGradient id="a" x1="0" x2="1" y1="1" y2="0"><stop offset="0%" stop-color="#1B660F"/><stop offset="100%" stop-color="#6CAE3E"/></linearGradient></defs><g><path fill="url(#a)" fill-rule="evenodd" d="m 0,0 h 100 v 100 h -100 z"/><path fill="#fff" fill-rule="evenodd" d="m 79.485,49.997 -0.929,-0.832 -8.232,7.997 c -0.064,-0.005 -0.124,-0.019 -0.188,-0.018 -1.296,0 -2.349,1.054 -2.349,2.348 0,1.295 1.052,2.349 2.349,2.349 1.295,0 2.349,-1.054 2.349,-2.349 0,-0.152 -0.016,-0.301 -0.045,-0.445 z m -5.795,1.198 0.927,-2.323 c -1.431,-0.571 -2.939,-0.861 -4.481,-0.861 -6.831,0 -12.389,5.644 -12.389,12.58 h 2.5 c 0,-5.559 4.436,-10.08 9.889,-10.08 1.224,0 2.419,0.23 3.554,0.684 z m 6.505,2.1 -2.04,1.444 c 1.222,1.727 1.869,3.751 1.869,5.852 h 2.5 c 0,-2.621 -0.805,-5.144 -2.329,-7.296 z m -34.655,7.296 h 2.605 l 4.345,-6.346 -1.172,-1.656 z m 15.69,-18.384 h -2.569 l -4.916,7.017 -1.315,1.822 3.74,5.358 c 0.193,-0.904 0.5,-1.772 0.897,-2.6 l -2.057,-2.927 z m -8.576,5.46 -3.824,-5.46 h -2.711 l 5.166,7.283 z m -12.655,1.415 -3.462,-1.326 c -1.144,-0.431 -2.024,-0.835 -2.637,-1.214 -0.615,-0.376 -1.056,-0.797 -1.326,-1.261 -0.27,-0.464 -0.405,-1.073 -0.405,-1.827 0,-1.338 0.443,-2.367 1.326,-3.09 0.885,-0.722 2.157,-1.084 3.819,-1.084 1.703,0 3.656,0.388 5.855,1.164 v -1.649 c -0.927,-0.41 -1.914,-0.729 -2.96,-0.955 -1.046,-0.226 -2.044,-0.34 -2.993,-0.34 -2.092,0 -3.781,0.556 -5.064,1.666 -1.284,1.111 -1.925,2.561 -1.925,4.351 0,1.316 0.389,2.421 1.165,3.317 0.776,0.896 1.995,1.666 3.655,2.313 l 3.754,1.457 c 1.294,0.496 2.232,1.057 2.815,1.682 0.583,0.626 0.872,1.38 0.873,2.265 0,1.445 -0.532,2.587 -1.602,3.429 -1.066,0.841 -2.496,1.262 -4.286,1.262 -1.897,0 -3.979,-0.41 -6.245,-1.23 v 1.65 c 1.877,0.906 4.013,1.359 6.406,1.359 2.309,0 4.169,-0.593 5.582,-1.779 1.412,-1.186 2.119,-2.739 2.118,-4.66 0,-1.315 -0.355,-2.41 -1.067,-3.282 -0.71,-0.875 -1.844,-1.614 -3.396,-2.218 z m -23.749,-11.032 h 12.585 v 1.715 h -10.676 v 8.574 h 9.026 v 1.715 h -9.026 v 10.417 h -1.909 z"/></g></svg>