<svg xmlns="http://www.w3.org/2000/svg" viewBox="0 0 100 100"><defs/><defs><linearGradient id="a" x1="0" x2="1" y1="1" y2="0"><stop offset="0%" stop-color="#055F4E"/><stop offset="100%" stop-color="#56C0A7"/></linearGradient></defs><g><path fill="url(#a)" fill-rule="evenodd" d="m 0,0 h 100 v 100 h -100 z"/><path fill="#fff" fill-rule="evenodd" d="m 37.5,62.5 h 25 v -25 h -25 z m 26.065,2.5 h -27.129 c -0.791,0 -1.436,-0.644 -1.436,-1.435 v -27.13 c 0,-0.791 0.645,-1.435 1.436,-1.435 h 27.129 c 0.791,0 1.435,0.644 1.435,1.435 v 27.13 c 0,0.791 -0.644,1.435 -1.435,1.435 z m 20.025,-27.5 h -14.84 v 2.5 h 13.75 v 42.5 h -42.5 v -13.75 h -2.5 v 14.841 c 0,0.776 0.633,1.409 1.409,1.409 h 44.681 c 0.777,0 1.41,-0.633 1.41,-1.409 v -44.682 c 0,-0.776 -0.633,-1.409 -1.41,-1.409 z m -66.09,22.5 h 13.75 v 2.5 h -14.829 c -0.784,0 -1.421,-0.637 -1.421,-1.421 v -44.658 c 0,-0.784 0.637,-1.421 1.421,-1.421 h 44.658 c 0.784,0 1.421,0.637 1.421,1.421 v 14.829 h -2.5 v -13.75 h -42.5 z"/></g></svg>