<svg xmlns="http://www.w3.org/2000/svg" viewBox="0 0 100 100"><defs/><defs><linearGradient id="a" x1="0" x2="1" y1="1" y2="0"><stop offset="0%" stop-color="#4D27A8"/><stop offset="100%" stop-color="#A166FF"/></linearGradient></defs><g><path fill="url(#a)" fill-rule="evenodd" d="m 0,0 h 100 v 100 h -100 z"/><path fill="#fff" fill-rule="evenodd" d="m 47.411,61.104 h 6.343 v -6.324 h -6.343 z m 7.593,-8.853 h -8.843 c -0.691,0 -1.25,0.567 -1.25,1.265 v 8.852 c 0,0.698 0.559,1.265 1.25,1.265 h 8.843 c 0.691,0 1.25,-0.567 1.25,-1.265 v -8.852 c 0,-0.698 -0.559,-1.265 -1.25,-1.265 z m 17.408,18.97 -9.909,-0.01 v -13.901 h 19.754 c 0.155,0.776 0.244,1.615 0.243,2.529 0,9.889 -9.193,11.272 -10.088,11.382 z m -45.15,-0.376 11.494,-10.661 v 11.001 l -9.944,-0.011 c -0.529,-0.077 -1.042,-0.193 -1.55,-0.329 z m -9.76,-11.426 0.007,-0.341 c 0,-5.677 2.578,-9.248 7.659,-10.621 h 13.588 v 1.955 l -18.317,16.218 c -1.694,-1.941 -2.776,-4.329 -2.933,-6.872 -0.01,-0.153 -0.006,-0.235 -0.004,-0.339 z m 18.529,-29.353 c 0.897,-0.386 1.81,-0.672 2.725,-0.882 v 9.156 h -10.888 c 1.751,-3.623 4.753,-6.814 8.163,-8.274 z m 11.474,37.361 h 6.249 v 3.773 l -6.249,-0.006 z m 27.906,-20.772 -0.82,2.39 c 2.097,0.737 5.196,2.362 6.821,5.735 h -20.159 c -0.69,0 -1.25,0.567 -1.25,1.265 v 15.163 l -3.749,-0.005 v -5.041 c 0,-0.698 -0.559,-1.265 -1.25,-1.264 h -8.749 c -0.69,0 -1.25,0.567 -1.25,1.264 v 5.03 l -3.749,-0.004 v -13.878 c 0,-0.501 -0.292,-0.956 -0.747,-1.159 -0.452,-0.2 -0.982,-0.114 -1.348,0.227 l -14.533,13.48 c -0.841,-0.42 -1.626,-0.924 -2.353,-1.493 l 18.553,-16.427 c 0.272,-0.239 0.427,-0.586 0.428,-0.951 v -3.794 c 0,-0.698 -0.559,-1.265 -1.25,-1.265 h -13.774 c 0.004,-0.099 0.004,-0.192 0.008,-0.291 0.009,-0.277 0.018,-0.549 0.017,-0.799 0,-1.303 0.23,-2.644 0.628,-3.969 h 13.121 c 0.691,0 1.25,-0.567 1.25,-1.264 v -10.776 c 1.257,-0.073 2.512,0.013 3.749,0.254 v 20.639 c 0,0.698 0.56,1.265 1.25,1.265 h 8.749 c 0.691,0 1.25,-0.567 1.25,-1.265 v -7.588 h -2.5 v 6.323 h -6.249 v -18.667 c 2.363,0.887 4.613,2.352 6.614,4.384 l 1.77,-1.785 c -5.892,-5.98 -13.68,-7.718 -20.833,-4.653 -6.335,2.715 -11.299,10.227 -11.298,17.102 0,0.223 -0.009,0.465 -0.016,0.713 -0.007,0.23 -0.016,0.465 -0.019,0.698 -3.636,1.201 -8.714,4.39 -8.714,12.829 l -0.005,0.263 c -0.005,0.178 -0.007,0.319 0.007,0.576 0.424,6.835 6.245,12.756 13.542,13.775 0.056,0.008 0.114,0.011 0.17,0.011 l 17.396,0.019 c 0.046,0.005 0.087,0.028 0.136,0.028 h 8.749 c 0.033,0 0.059,-0.016 0.091,-0.019 l 17.387,0.019 h 0.001 c 0.043,0 0.084,-0.003 0.126,-0.006 0.124,-0.013 12.391,-1.423 12.391,-13.905 0,-8.858 -6.705,-12.171 -9.589,-13.184 z m -11.658,-9.58 c 0,-1.253 1.262,-2.529 2.499,-2.529 1.237,0 2.5,1.276 2.5,2.529 0,1.253 -1.262,2.529 -2.5,2.53 -1.237,0 -2.5,-1.276 -2.499,-2.53 z m 7.499,0 c 0,-2.647 -2.382,-5.059 -5,-5.058 -2.617,0 -4.999,2.412 -4.999,5.058 0,2.647 2.382,5.059 4.999,5.059 2.617,0 4.999,-2.412 5,-5.059 z m -5,-6.323 c 3.563,0 6.249,2.718 6.25,6.323 0,2.762 -3.873,9.28 -6.25,12.921 -2.375,-3.64 -6.249,-10.156 -6.249,-12.921 0,-3.605 2.687,-6.323 6.249,-6.323 z m 0,22.764 c 0.407,0 0.791,-0.202 1.025,-0.54 0.79,-1.144 7.724,-11.315 7.724,-15.901 0,-5.047 -3.762,-8.852 -8.749,-8.852 -4.987,0 -8.749,3.805 -8.749,8.852 0,4.586 6.934,14.756 7.726,15.901 0.232,0.338 0.616,0.54 1.023,0.54 z"/></g></svg>