<svg xmlns="http://www.w3.org/2000/svg" viewBox="0 0 100 100"><defs/><defs><linearGradient id="a" x1="0" x2="1" y1="1" y2="0"><stop offset="0%" stop-color="#1B660F"/><stop offset="100%" stop-color="#6CAE3E"/></linearGradient></defs><g><path fill="url(#a)" fill-rule="evenodd" d="m 0,0 h 100 v 100 h -100 z"/><path fill="#fff" fill-rule="evenodd" d="m 39.244,30.031 c 7.83,-3.275 13.375,1.033 15.395,3.035 1.648,1.636 2.933,3.726 3.821,6.209 0.154,0.433 0.535,0.746 0.988,0.815 0.46,0.064 0.911,-0.116 1.187,-0.484 0.985,-1.31 2.428,-2.061 3.953,-2.061 2.281,0 5.046,1.731 5.333,6.61 0.033,0.564 0.439,1.034 0.991,1.15 5.666,1.19 8.54,4.334 8.54,9.34 0,4.653 -2.13,7.528 -6.328,8.547 l 0.587,2.429 c 5.315,-1.288 8.241,-5.185 8.241,-10.976 0,-5.894 -3.408,-9.977 -9.62,-11.575 -0.678,-5.535 -4.299,-8.025 -7.744,-8.026 -1.646,0 -3.216,0.56 -4.511,1.582 -0.951,-2.063 -2.183,-3.85 -3.675,-5.335 -4.955,-4.906 -11.726,-6.24 -18.123,-3.567 -5.47,2.295 -9.595,8.622 -9.595,14.719 0,0.3 0.01,0.609 0.029,0.928 -5.021,1.653 -7.985,5.769 -7.985,11.202 0,0.274 0.013,0.546 0.027,0.811 0.259,4.698 3.396,8.76 7.994,10.348 l 0.815,-2.364 c -3.631,-1.254 -6.11,-4.443 -6.313,-8.117 -0.011,-0.22 -0.024,-0.449 -0.023,-0.678 0,-6.354 4.466,-8.413 7.127,-9.074 0.611,-0.153 1.014,-0.736 0.94,-1.363 -0.075,-0.619 -0.111,-1.173 -0.111,-1.693 0,-5.065 3.541,-10.517 8.06,-12.412 z m 25.756,26.22 c 0,-0.496 -0.106,-0.87 -0.302,-1.052 -0.214,-0.199 -0.586,-0.218 -0.865,-0.2 l -16.334,0.002 c -0.69,0 -1.25,-0.56 -1.25,-1.25 0,-0.339 -0.126,-1.288 -0.271,-1.876 h -4.324 c -0.191,0.575 -0.396,1.551 -0.405,1.881 -0.018,0.678 -0.573,1.245 -1.25,1.245 h -3.75 c -0.366,-0.024 -0.735,-10e-4 -0.947,0.198 -0.195,0.183 -0.303,0.556 -0.303,1.052 v 17.501 h 30.001 z m 2.5,2.501 v 9.035 l 3.227,-9.035 z m -0.073,16.671 -0.011,-0.003 c -0.173,0.483 -0.623,0.833 -1.166,0.832 h -32.501 c -0.69,0 -1.25,-0.56 -1.25,-1.25 v -18.751 c 0,-1.533 0.595,-2.411 1.094,-2.878 0.479,-0.448 1.329,-0.971 2.74,-0.868 l 2.562,-0.002 c 0.223,-1.294 0.778,-3.128 2.114,-3.128 h 5.69 c 0.076,0 0.154,0.007 0.23,0.021 1.176,0.22 1.593,1.889 1.74,3.105 h 15.081 c 1.321,-0.091 2.178,0.424 2.656,0.872 0.5,0.468 1.094,1.346 1.094,2.878 h 5 c 0.408,0 0.788,0.198 1.022,0.53 0.234,0.333 0.291,0.758 0.155,1.141 z m 15.073,5.311 -9.508,-9.508 -1.767,1.767 9.506,9.507 h -6.879 v 2.5 h 9.898 c 0.691,0 1.25,-0.56 1.25,-1.25 v -9.898 h -2.5 z m -54.197,-9.552 -10.803,9.754 v -7.084 h -2.5 v 9.898 c 0,0.69 0.56,1.25 1.25,1.25 h 11.149 v -2.5 h -7.9 l 10.479,-9.463 z m 55.447,-56.182 h -11.148 v 2.5 h 8.334 l -9.755,10.803 1.855,1.675 9.464,-10.479 v 7.9 h 2.5 v -11.149 c 0,-0.69 -0.559,-1.25 -1.25,-1.25 z m -66.25,12.399 h -2.5 v -11.149 c 0,-0.69 0.56,-1.25 1.25,-1.25 h 11.149 v 2.5 h -8.131 l 10.756,10.757 -1.768,1.767 -10.756,-10.755 z"/></g></svg>