<svg xmlns="http://www.w3.org/2000/svg" viewBox="0 0 100 100"><defs/><defs><linearGradient id="a" x1="0" x2="1" y1="1" y2="0"><stop offset="0%" stop-color="#2E27AD"/><stop offset="100%" stop-color="#527FFF"/></linearGradient></defs><g><path fill="url(#a)" fill-rule="evenodd" d="m 0,0 h 100 v 100 h -100 z"/><path fill="#fff" fill-rule="evenodd" d="m 65.107,68.563 c -4.172,3.373 -12.926,5.156 -21.302,5.156 -8.377,0 -17.134,-1.784 -21.305,-5.157 v 6.794 h 0.001 c 0,3.388 8.749,7.165 21.304,7.164 12.545,0 21.289,-3.771 21.302,-7.157 z m 0.002,-12.91 2.5,-0.014 v 0.014 c 0,1.51 -0.756,2.92 -2.229,4.21 1.785,1.571 2.229,3.112 2.229,4.209 0,0.007 -10e-4,0.014 -0.002,0.021 v 11.263 h 0.002 c 0,6.263 -12.265,9.644 -23.804,9.644 -11.511,0 -23.742,-3.366 -23.801,-9.601 0,-0.006 -0.004,-0.012 -0.004,-0.019 v -11.311 c 0,-0.003 0.003,-0.006 0.002,-0.01 0.004,-1.097 0.449,-2.632 2.232,-4.2 -1.771,-1.565 -2.221,-3.091 -2.233,-4.179 h 10e-4 c 0,-0.005 -0.003,-0.009 -0.002,-0.013 v -11.312 c 0,-0.004 0.003,-0.007 0.002,-0.011 0.004,-1.097 0.45,-2.632 2.233,-4.197 -1.772,-1.566 -2.222,-3.093 -2.234,-4.181 h 10e-4 c 0,-0.005 -0.003,-0.01 -0.002,-0.015 v -11.31 c 0,-0.004 0.003,-0.007 0.002,-0.011 0.021,-6.255 12.272,-9.629 23.803,-9.63 6.514,0 12.771,1.035 17.167,2.84 l -0.956,2.292 c -4.104,-1.685 -10.012,-2.652 -16.211,-2.652 -12.555,0 -21.304,3.776 -21.304,7.167 0,3.39 8.749,7.166 21.304,7.166 0.339,0.004 0.67,0 1.005,-0.012 l 0.105,2.477 c -0.37,0.015 -0.74,0.015 -1.11,0.015 -8.377,0 -17.134,-1.784 -21.305,-5.158 v 6.79 h 0.001 v 0.029 c 0.013,1.301 1.346,2.436 2.464,3.158 3.362,2.144 9.387,3.608 16.106,3.911 l -0.114,2.477 c -6.806,-0.309 -12.766,-1.721 -16.602,-3.885 -0.945,0.707 -1.854,1.663 -1.854,2.746 0,3.39 8.749,7.166 21.304,7.166 1.231,0 2.454,-0.041 3.635,-0.123 l 0.174,2.474 c -1.237,0.086 -2.52,0.129 -3.809,0.129 -8.377,0 -17.134,-1.784 -21.305,-5.158 v 6.79 h 0.001 c 0.013,1.329 1.346,2.463 2.464,3.187 3.845,2.454 11.065,3.981 18.84,3.981 h 0.55 v 2.479 h -0.55 c -7.899,0 -15.077,-1.467 -19.468,-3.945 -0.94,0.705 -1.836,1.656 -1.836,2.731 0,3.39 8.749,7.167 21.304,7.168 12.545,0 21.289,-3.771 21.302,-7.159 v -0.012 -0.002 c -0.003,-1.077 -0.902,-2.028 -1.845,-2.733 -0.61,0.346 -1.264,0.679 -2.007,0.985 l -0.958,-2.291 c 0.907,-0.373 1.695,-0.776 2.342,-1.2 1.127,-0.735 2.47,-1.884 2.47,-3.175 z m 10.707,-18.132 h -7.005 c -0.414,0 -0.802,-0.203 -1.034,-0.543 -0.234,-0.34 -0.281,-0.772 -0.128,-1.153 l 4.261,-10.652 h -16.136 l -7.5,14.877 h 7.977 c 0.399,0 0.774,0.19 1.01,0.508 0.234,0.32 0.302,0.73 0.181,1.109 l -7.12,22.195 z m 3.836,-0.381 -31.248,32.284 c -0.244,0.25 -0.571,0.381 -0.903,0.381 -0.22,0 -0.441,-0.056 -0.639,-0.173 -0.5,-0.295 -0.729,-0.891 -0.552,-1.442 l 8.232,-25.66 h -8.291 c -0.434,0 -0.835,-0.222 -1.064,-0.588 -0.227,-0.366 -0.249,-0.822 -0.053,-1.206 l 8.75,-17.357 c 0.211,-0.42 0.644,-0.686 1.117,-0.686 h 18.75 c 0.414,0 0.802,0.205 1.034,0.543 0.234,0.341 0.281,0.772 0.129,1.154 l -4.262,10.651 h 8.098 c 0.5,0 0.954,0.298 1.15,0.754 0.196,0.457 0.099,0.987 -0.248,1.345 z m -55.333,38.703 c 1.771,0.998 4.001,1.837 6.627,2.492 l 0.61,-2.405 c -2.374,-0.591 -4.449,-1.367 -6.002,-2.243 z m 6.627,-17.345 0.61,-2.404 c -2.374,-0.593 -4.449,-1.369 -6.002,-2.244 l -1.235,2.156 c 1.771,0.998 4,1.837 6.627,2.492 z m -6.627,-22.329 1.235,-2.156 c 1.551,0.875 3.627,1.65 6.002,2.245 l -0.61,2.403 c -2.63,-0.656 -4.859,-1.495 -6.627,-2.492 z"/></g></svg>