<svg xmlns="http://www.w3.org/2000/svg" viewBox="0 0 100 100"><defs/><defs><linearGradient id="a" x1="0" x2="1" y1="1" y2="0"><stop offset="0%" stop-color="#BD0816"/><stop offset="100%" stop-color="#FF5252"/></linearGradient></defs><g><path fill="url(#a)" fill-rule="evenodd" d="m 0,0 h 100 v 100 h -100 z"/><path fill="#fff" fill-rule="evenodd" d="m 61.517,64.243 1.263,2.158 -5.135,3.005 -1.261,-2.156 z m -23.555,-0.041 5.182,2.927 -1.232,2.176 -5.18,-2.926 z m 23.555,-29.015 -5.133,-3.006 1.261,-2.157 5.135,3.005 z m -23.555,0.041 -1.23,-2.177 5.18,-2.925 1.232,2.176 z m 30.788,17.21 h 2.5 v -4.937 h -2.5 z m -40,0 h 2.5 v -4.937 h -2.5 z m 48.75,13.722 -27.464,16.141 -27.536,-16.141 v -32.319 l 27.536,-16.142 27.464,16.142 z m 1.884,-34.113 -28.713,-16.875 c -0.39,-0.229 -0.875,-0.229 -1.265,0 l -28.789,16.875 c -0.381,0.224 -0.617,0.634 -0.617,1.077 v 33.751 c 0,0.444 0.236,0.855 0.617,1.079 l 28.789,16.875 c 0.195,0.115 0.414,0.171 0.631,0.171 0.219,0 0.439,-0.056 0.634,-0.171 l 28.713,-16.875 c 0.383,-0.225 0.616,-0.635 0.616,-1.079 v -33.751 c 0,-0.443 -0.234,-0.853 -0.616,-1.077 z m -49.118,31.469 c -1.305,0 -2.367,-1.061 -2.367,-2.365 0,-1.305 1.063,-2.366 2.367,-2.366 1.305,0 2.366,1.061 2.367,2.366 0,1.304 -1.061,2.365 -2.367,2.365 z m 0,-7.231 c -2.683,0 -4.867,2.183 -4.867,4.866 0,2.683 2.185,4.865 4.867,4.865 2.684,0 4.866,-2.183 4.867,-4.865 0,-2.684 -2.183,-4.866 -4.867,-4.866 z m 39.264,7.231 c -1.305,0 -2.365,-1.061 -2.365,-2.365 0,-1.305 1.06,-2.366 2.365,-2.366 1.305,0 2.367,1.061 2.367,2.366 0,1.304 -1.063,2.365 -2.367,2.365 z m 0,-7.231 c -2.683,0 -4.865,2.183 -4.865,4.866 0,2.683 2.183,4.865 4.865,4.865 2.684,0 4.867,-2.183 4.867,-4.865 0,-2.684 -2.184,-4.866 -4.867,-4.866 z m -17.265,-29.141 c 0,1.304 -1.061,2.365 -2.366,2.365 -1.305,0 -2.366,-1.061 -2.366,-2.365 0,-1.305 1.061,-2.366 2.366,-2.366 1.305,0 2.366,1.061 2.366,2.366 z m -7.232,0 c 0,2.683 2.184,4.865 4.866,4.865 2.684,0 4.866,-2.183 4.866,-4.865 0,-2.684 -2.183,-4.866 -4.866,-4.866 -2.683,0 -4.866,2.183 -4.866,4.866 z m 24.497,8.97 c 1.305,0 2.367,1.061 2.367,2.367 0,1.305 -1.063,2.366 -2.367,2.366 -1.305,0 -2.365,-1.061 -2.365,-2.366 0,-1.305 1.06,-2.366 2.365,-2.367 z m -19.631,16.111 c -1.305,0 -2.366,-1.061 -2.367,-2.367 0,-1.304 1.061,-2.365 2.367,-2.365 1.305,0 2.366,1.061 2.366,2.365 0,1.305 -1.061,2.366 -2.366,2.367 z m 2.366,20.259 c 0,1.305 -1.061,2.366 -2.366,2.366 -1.305,0 -2.366,-1.061 -2.367,-2.366 0,-1.305 1.061,-2.366 2.367,-2.367 1.305,0 2.366,1.061 2.366,2.367 z m -21.999,-31.637 c -1.305,0 -2.367,-1.061 -2.367,-2.366 0,-1.305 1.063,-2.366 2.367,-2.367 1.305,0 2.366,1.061 2.366,2.367 0,1.305 -1.061,2.366 -2.366,2.366 z m 22.891,5.422 c -0.865,-0.785 -2.001,-1.276 -3.258,-1.276 -1.323,0 -2.521,0.533 -3.399,1.393 l -11.539,-6.695 c 0.1,-0.39 0.171,-0.79 0.171,-1.21 0,-2.683 -2.183,-4.866 -4.866,-4.867 -2.683,0 -4.867,2.184 -4.867,4.867 0,2.684 2.185,4.866 4.867,4.866 1.364,0 2.592,-0.568 3.476,-1.474 l 11.494,6.668 c -0.12,0.423 -0.204,0.859 -0.203,1.317 0,2.3 1.609,4.221 3.755,4.727 v 13.172 c -2.146,0.505 -3.755,2.426 -3.755,4.727 0,2.683 2.184,4.866 4.866,4.866 2.684,0 4.866,-2.184 4.866,-4.866 0,-2.198 -1.474,-4.038 -3.477,-4.64 v -13.346 c 2.004,-0.603 3.478,-2.443 3.477,-4.64 0,-0.52 -0.104,-1.011 -0.255,-1.481 l 11.444,-6.624 c 0.89,0.973 2.156,1.594 3.576,1.594 2.684,0 4.867,-2.183 4.868,-4.866 0,-2.683 -2.184,-4.866 -4.868,-4.867 -2.683,0 -4.865,2.184 -4.865,4.867 0,0.364 0.048,0.716 0.123,1.057 z"/></g></svg>