<svg xmlns="http://www.w3.org/2000/svg" viewBox="0 0 100 100"><defs/><defs><linearGradient id="a" x1="0" x2="1" y1="1" y2="0"><stop offset="0%" stop-color="#055F4E"/><stop offset="100%" stop-color="#56C0A7"/></linearGradient></defs><g><path fill="url(#a)" fill-rule="evenodd" d="m 0,0 h 100 v 100 h -100 z"/><path fill="#fff" fill-rule="evenodd" d="m 78.144,32.987 c -0.2,0.453 -0.65,0.745 -1.144,0.745 h -5.75 v 10 h 3.75 c 0.691,0 1.25,0.559 1.25,1.25 v 36.25 c 0,0.69 -0.559,1.25 -1.25,1.25 h -50 c -2.067,0 -3.75,-1.683 -3.75,-3.75 v -43.75 c 0,-0.691 0.56,-1.25 1.25,-1.25 h 15.695 c 0.354,0 0.693,0.15 0.929,0.413 l 3.005,3.337 h 6.621 v 2.5 h -7.178 c -0.354,0 -0.693,-0.15 -0.928,-0.414 l -3.005,-3.336 h -13.889 v 42.5 c 0,0.689 0.561,1.25 1.25,1.25 0.69,0 1.25,-0.561 1.25,-1.25 v -33.75 c 0,-0.691 0.56,-1.25 1.25,-1.25 h 21.25 v 2.5 h -20 v 32.5 c 0,0.44 -0.09,0.856 -0.23,1.25 h 45.23 v -33.75 h -8.75 v -2.5 h 3.75 v -11.25 c 0,-0.691 0.56,-1.25 1.25,-1.25 h 4.172 l -8.547,-9.392 -8.548,9.392 h 4.173 c 0.691,0 1.25,0.559 1.25,1.25 v 7.5 5 5 h 5 c 0.488,0 0.93,0.283 1.135,0.724 0.205,0.441 0.134,0.961 -0.18,1.332 l -10.566,12.5 c -0.237,0.28 -0.585,0.443 -0.952,0.444 h -0.003 c -0.365,0 -0.712,-0.16 -0.95,-0.437 l -10.683,-12.5 c -0.318,-0.371 -0.39,-0.892 -0.186,-1.337 0.204,-0.443 0.647,-0.726 1.135,-0.726 h 5 v -10 h 2.5 v 11.25 c 0,0.69 -0.559,1.25 -1.25,1.25 h -3.538 l 7.967,9.32 7.878,-9.32 h -3.557 c -0.69,0 -1.25,-0.56 -1.25,-1.25 v -6.25 -5 -6.25 h -5.749 c -0.495,0 -0.944,-0.293 -1.144,-0.745 -0.199,-0.453 -0.114,-0.981 0.219,-1.346 l 11.375,-12.5 c 0.474,-0.521 1.375,-0.521 1.849,0 l 11.374,12.5 c 0.334,0.365 0.419,0.894 0.22,1.346"/></g></svg>