<svg xmlns="http://www.w3.org/2000/svg" viewBox="0 0 100 100"><defs/><defs><linearGradient id="a" x1="0" x2="1" y1="1" y2="0"><stop offset="0%" stop-color="#055F4E"/><stop offset="100%" stop-color="#56C0A7"/></linearGradient></defs><g><path fill="url(#a)" fill-rule="evenodd" d="m 0,0 h 100 v 100 h -100 z"/><path fill="#fff" fill-rule="evenodd" d="m 54.407,43.76 c 0,2.064 -1.697,3.744 -3.782,3.744 -2.085,0 -3.782,-1.68 -3.782,-3.744 0,-2.064 1.697,-3.744 3.782,-3.744 2.085,0 3.782,1.68 3.782,3.744 z m 3.631,12.48 h -14.856 c 0.357,-2.135 1.773,-6.24 7.375,-6.24 5.667,0 7.113,4.107 7.481,6.24 z m -13.717,-12.48 c 0,1.788 0.774,3.392 1.996,4.53 -4.457,1.832 -5.778,6.47 -5.778,9.198 0,0.689 0.564,1.248 1.261,1.248 h 17.624 c 0.695,0 1.259,-0.557 1.26,-1.244 0,-0.18 -0.02,-4.414 -2.962,-7.336 -0.806,-0.8 -1.749,-1.41 -2.811,-1.848 1.234,-1.141 2.017,-2.751 2.018,-4.548 0,-3.441 -2.828,-6.24 -6.304,-6.24 -3.476,0 -6.304,2.799 -6.304,6.24 z m 34.857,7.115 -0.062,-0.039 c -0.135,0.181 -0.311,0.331 -0.529,0.42 -0.156,0.065 -0.32,0.096 -0.483,0.096 -0.328,0 -0.651,-0.127 -0.891,-0.366 l -4.424,-4.381 1.782,-1.764 2.067,2.045 c -1.204,-9.393 -7.603,-17.603 -16.682,-21.014 l 0.894,-2.334 c 9.849,3.7 16.808,12.556 18.231,22.719 l 1.269,-2.047 2.15,1.306 z m -37.795,23.457 -0.894,2.333 c -9.822,-3.692 -16.773,-12.514 -18.218,-22.644 l -1.371,2.212 -2.15,-1.306 3.322,-5.358 0.033,0.02 c 0.13,-0.281 0.352,-0.517 0.653,-0.639 0.473,-0.193 1.014,-0.087 1.373,0.27 l 4.425,4.381 -1.783,1.764 -2.067,-2.046 c 1.204,9.393 7.603,17.602 16.677,21.013 z m 33.766,-15.037 2.356,0.886 c -3.848,10.037 -13.219,17.039 -23.867,18.152 l 2.5,2.36 -1.74,1.807 -4.595,-4.338 0.008,-0.009 c -0.125,-0.119 -0.234,-0.252 -0.304,-0.417 -0.195,-0.467 -0.087,-1.003 0.273,-1.36 l 4.426,-4.379 1.782,1.764 -2.067,2.046 c 9.49,-1.191 17.783,-7.527 21.228,-16.512 z m -48.954,-18.386 -2.357,-0.886 c 3.868,-10.087 13.312,-17.111 24.027,-18.17 l -2.699,-2.546 1.741,-1.807 4.595,4.338 -0.097,0.101 c 0.187,0.132 0.34,0.311 0.432,0.529 0.195,0.467 0.087,1.003 -0.274,1.361 l -4.425,4.38 -1.783,-1.764 2.068,-2.047 c -9.488,1.192 -17.783,7.527 -21.228,16.511 z m 40.819,9.091 c 0,8.946 -7.353,16.224 -16.389,16.224 -9.037,0 -16.389,-7.279 -16.389,-16.224 0,-8.946 7.353,-16.224 16.389,-16.224 9.037,0 16.389,7.279 16.389,16.224 z m -35.3,0 c 0,10.322 8.483,18.72 18.911,18.72 10.427,0 18.911,-8.398 18.911,-18.72 0,-10.322 -8.483,-18.72 -18.911,-18.72 -10.427,0 -18.911,8.398 -18.911,18.72 z"/></g></svg>