<svg xmlns="http://www.w3.org/2000/svg" viewBox="0 0 100 100"><defs/><defs><linearGradient id="a" x1="0" x2="1" y1="1" y2="0"><stop offset="0%" stop-color="#C8511B"/><stop offset="100%" stop-color="#F90"/></linearGradient></defs><g><path fill="url(#a)" fill-rule="evenodd" d="m 0,0 h 100 v 100 h -100 z"/><path fill="#fff" fill-rule="evenodd" d="m 54.967,60.104 -0.29,-2.483 c 5.089,-0.596 9.074,-4.9 9.074,-9.797 0,-4.896 -3.985,-9.2 -9.074,-9.796 l 0.29,-2.483 c 6.328,0.741 11.284,6.135 11.284,12.279 0,6.145 -4.956,11.539 -11.284,12.28 z m -14.902,22.217 -4.111,-2.53 6.098,-5.081 -1.601,-1.92 -6.744,5.62 -8.706,-5.359 10e-4,-9.882 6.943,-4.629 -1.386,-2.08 -6.992,4.66 -6.065,-2.021 -0.002,-8.415 6.927,-4.454 -1.352,-2.102 -5.574,3.583 10e-4,-5.688 6.292,-3.145 7.457,3.196 v 6.076 l -5.781,4.624 1.562,1.952 5.377,-4.301 2.592,2.593 v 3.232 h 2.5 v -3.75 c 0,-0.331 -0.131,-0.65 -0.366,-0.884 l -3.384,-3.383 v -6.21 l 6.81,-3.404 c 0.423,-0.213 0.69,-0.645 0.69,-1.119 v -7.5 h -2.5 v 6.728 l -6.29,3.145 -7.46,-3.197 10e-4,-10.101 7.499,-4.82 v 8.245 h 2.5 v -9.852 l 3.86,-2.482 9.891,4.397 v 25.343 l -4.25,-3.383 -1.557,1.955 5.807,4.625 v 5.002 l -15.545,11.055 1.448,2.038 14.097,-10.025 v 19.305 z m 10.446,-62.213 -11.25,-5 c -0.385,-0.171 -0.83,-0.136 -1.185,0.091 l -15,9.642 c -0.357,0.23 -0.574,0.626 -0.574,1.052 l -10e-4,10.835 -6.807,3.403 c -0.424,0.213 -0.691,0.645 -0.692,1.119 l -0.002,8.36 0.002,10.39 c 0,0.539 0.345,1.015 0.855,1.186 l 6.645,2.215 -10e-4,10.349 c 0,0.434 0.225,0.836 0.595,1.065 l 16.25,10 c 0.2,0.122 0.428,0.185 0.655,0.185 0.193,0 0.383,-0.044 0.56,-0.131 l 10.001,-5 c 0.423,-0.212 0.69,-0.645 0.69,-1.119 v -57.5 c 0,-0.494 -0.29,-0.941 -0.741,-1.142 z m 6.956,-1.358 h -2.645 v -2.5 h 3.929 c 0.338,0 0.661,0.136 0.896,0.378 0.235,0.242 0.362,0.569 0.354,0.906 l -0.115,4.326 c 2.268,0.601 4.436,1.495 6.469,2.665 l 2.624,-2.946 c 0.229,-0.258 0.552,-0.408 0.897,-0.419 0.329,-0.014 0.676,0.122 0.919,0.365 l 8.43,8.411 c 0.245,0.244 0.376,0.576 0.367,0.92 -0.01,0.344 -0.161,0.667 -0.417,0.898 l -2.938,2.626 c 1.169,2.019 2.066,4.174 2.674,6.433 l 3.511,-0.223 c 0.34,-0.019 0.683,0.099 0.934,0.335 0.253,0.236 0.395,0.565 0.395,0.911 l 0.014,11.909 c 0,0.344 -0.141,0.674 -0.393,0.911 -0.253,0.236 -0.593,0.364 -0.933,0.338 l -3.499,-0.215 c -0.694,2.603 -1.771,5.074 -3.213,7.359 l -2.113,-1.333 c 1.478,-2.345 2.534,-4.906 3.141,-7.611 0.134,-0.599 0.656,-1.011 1.296,-0.974 l 3.213,0.196 -0.012,-9.247 -3.222,0.205 c -0.606,0.046 -1.161,-0.371 -1.298,-0.97 -0.616,-2.705 -1.679,-5.261 -3.157,-7.595 -0.328,-0.516 -0.234,-1.194 0.222,-1.601 l 2.725,-2.437 -6.556,-6.542 -2.432,2.734 c -0.406,0.458 -1.081,0.552 -1.602,0.226 -2.34,-1.474 -4.896,-2.527 -7.597,-3.134 -0.583,-0.131 -0.993,-0.656 -0.976,-1.254 z m 21.604,61.25 h -18.707 c -0.357,0 -0.624,-0.059 -0.814,-0.18 -0.875,-0.551 -1.917,-1.618 -1.918,-3.552 0,-2.406 1.527,-3.304 2.812,-3.634 0.579,-0.149 0.971,-0.688 0.936,-1.284 l -0.049,-0.791 c 0,-2.106 1.498,-4.455 3.339,-5.238 0.848,-0.36 1.63,-0.503 2.341,-0.502 2.021,0 3.451,1.161 4.075,1.79 0.694,0.699 1.24,1.6 1.619,2.677 0.155,0.436 0.537,0.752 0.995,0.82 0.463,0.07 0.917,-0.122 1.19,-0.495 0.441,-0.596 1.196,-0.845 1.871,-0.623 0.771,0.254 1.22,1.056 1.241,2.208 -0.074,0.654 0.376,1.258 1.03,1.372 1.044,0.18 3.47,0.904 3.47,3.742 0,3.2 -2.926,3.638 -3.431,3.69 z m 1.366,-9.664 c -0.307,-2.125 -1.64,-3.31 -2.896,-3.722 -1.075,-0.354 -2.218,-0.244 -3.182,0.254 -0.418,-0.761 -0.92,-1.438 -1.5,-2.022 -2.5,-2.519 -5.926,-3.204 -9.167,-1.826 -2.745,1.166 -4.821,4.356 -4.858,7.521 -2.336,0.969 -3.701,3.046 -3.702,5.727 0,3.237 1.931,4.94 3.083,5.667 0.593,0.374 1.315,0.564 2.147,0.565 h 18.767 c 0.031,0 0.061,-0.001 0.091,-0.002 2,-0.147 5.783,-1.627 5.782,-6.188 0,-3.401 -2.21,-5.26 -4.565,-5.974 z"/></g></svg>