<svg xmlns="http://www.w3.org/2000/svg" viewBox="0 0 100 100"><defs/><defs><linearGradient id="a" x1="0" x2="1" y1="1" y2="0"><stop offset="0%" stop-color="#1B660F"/><stop offset="100%" stop-color="#6CAE3E"/></linearGradient></defs><g><path fill="url(#a)" fill-rule="evenodd" d="m 0,0 h 100 v 100 h -100 z"/><path fill="#fff" fill-rule="evenodd" d="m 75,75 c -2.067,0 -3.75,-1.683 -3.75,-3.75 0,-2.067 1.683,-3.75 3.75,-3.75 2.067,0 3.75,1.683 3.75,3.75 0,2.067 -1.683,3.75 -3.75,3.75 z m -38.86,-16.25 c -3.625,-0.004 -6.614,-2.636 -6.804,-5.992 -0.009,-0.156 -0.014,-0.316 -0.013,-0.48 0,-4.322 3.108,-5.774 5.005,-6.257 0.578,-0.114 1.008,-0.625 1.007,-1.228 0,-0.06 -0.005,-0.121 -0.014,-0.18 -0.045,-0.379 -0.07,-0.762 -0.07,-1.154 0,-3.556 2.546,-7.384 5.796,-8.714 5.67,-2.32 9.68,0.727 11.143,2.145 1.189,1.154 2.119,2.63 2.761,4.387 0.158,0.429 0.535,0.737 0.986,0.807 0.448,0.068 0.905,-0.114 1.182,-0.477 0.882,-1.155 2.314,-1.64 3.632,-1.237 1.59,0.486 2.581,2.076 2.718,4.363 0.035,0.566 0.445,1.039 1.001,1.151 4.049,0.815 6.102,2.989 6.102,6.46 0,5.781 -4.862,6.406 -6.952,6.406 z m 16.36,16.25 c 0,2.067 -1.683,3.75 -3.75,3.75 -2.067,0 -3.75,-1.683 -3.75,-3.75 0,-2.067 1.683,-3.75 3.75,-3.75 2.067,0 3.75,1.683 3.75,3.75 z m -27.5,-1.25 c -2.067,0 -3.75,-1.683 -3.75,-3.75 0,-2.067 1.683,-3.75 3.75,-3.75 2.067,0 3.75,1.683 3.75,3.75 0,2.067 -1.683,3.75 -3.75,3.75 z m -1.25,-48.75 c 0,-2.067 1.683,-3.75 3.75,-3.75 2.067,0 3.75,1.683 3.75,3.75 0,2.067 -1.683,3.75 -3.75,3.75 -2.067,0 -3.75,-1.683 -3.75,-3.75 z m 45,-3.75 c 2.067,0 3.75,1.683 3.75,3.75 0,2.067 -1.683,3.75 -3.75,3.75 -2.067,0 -3.75,-1.683 -3.75,-3.75 0,-2.067 1.683,-3.75 3.75,-3.75 z m 6.25,43.75 c -0.839,0 -1.636,0.171 -2.367,0.473 l -3.719,-5.474 c 2.395,-1.304 4.159,-3.714 4.159,-7.655 0,-4.416 -2.55,-7.479 -7.208,-8.703 -0.335,-2.212 -1.373,-3.952 -2.914,-4.962 l 3.869,-7.765 c 0.611,0.2 1.252,0.336 1.93,0.336 3.446,0 6.25,-2.804 6.25,-6.25 0,-3.446 -2.804,-6.25 -6.25,-6.25 -3.446,0 -6.25,2.804 -6.25,6.25 0,1.867 0.84,3.527 2.144,4.674 l -4.045,8.119 c -1.42,-0.199 -2.845,0.134 -4.029,0.935 -0.701,-1.393 -1.585,-2.609 -2.639,-3.633 -3.782,-3.668 -8.953,-4.662 -13.831,-2.664 -1.321,0.541 -2.537,1.383 -3.586,2.425 l -4.434,-5.637 c 1.027,-1.114 1.67,-2.587 1.67,-4.219 0,-3.446 -2.804,-6.25 -6.25,-6.25 -3.446,0 -6.25,2.804 -6.25,6.25 0,3.446 2.804,6.25 6.25,6.25 0.912,0 1.774,-0.208 2.556,-0.56 l 4.83,6.14 c -1.331,1.98 -2.135,4.325 -2.135,6.629 0,0.14 0.003,0.283 0.008,0.425 -3.739,1.31 -5.936,4.381 -5.936,8.394 0,0.21 0.007,0.415 0.018,0.618 0.186,3.309 2.288,6.106 5.252,7.467 l -4.17,4.146 c -0.876,-0.469 -1.861,-0.759 -2.923,-0.759 -3.446,0 -6.25,2.804 -6.25,6.25 0,3.446 2.804,6.25 6.25,6.25 3.446,0 6.25,-2.804 6.25,-6.25 0,-1.476 -0.536,-2.816 -1.395,-3.886 l 4.986,-4.96 c 0.425,0.056 0.858,0.096 1.298,0.096 h 14.032 l -1.826,7.541 c -3.255,0.214 -5.845,2.901 -5.845,6.209 0,3.446 2.804,6.25 6.25,6.25 3.446,0 6.25,-2.804 6.25,-6.25 0,-2.712 -1.746,-5.002 -4.167,-5.866 l 1.91,-7.884 h 10.877 c 0.966,0 1.945,-0.112 2.89,-0.339 l 4.046,5.953 c -1.114,1.13 -1.806,2.677 -1.806,4.386 0,3.446 2.804,6.25 6.25,6.25 3.446,0 6.25,-2.804 6.25,-6.25 0,-3.446 -2.804,-6.25 -6.25,-6.25 z"/></g></svg>