<svg xmlns="http://www.w3.org/2000/svg" viewBox="0 0 100 100"><defs/><defs><linearGradient id="a" x1="0" x2="1" y1="1" y2="0"><stop offset="0%" stop-color="#4D27A8"/><stop offset="100%" stop-color="#A166FF"/></linearGradient></defs><g><path fill="url(#a)" fill-rule="evenodd" d="m 0,0 h 100 v 100 h -100 z"/><path fill="#fff" fill-rule="evenodd" d="m 67.422,56.514 c 0.954,1.113 2.37,1.819 3.946,1.818 2.865,0 5.195,-2.331 5.195,-5.196 h -2.5 c 0,1.487 -1.209,2.696 -2.695,2.696 -1.486,0 -2.696,-1.209 -2.697,-2.696 h -2.499 c 0,1.487 -1.209,2.696 -2.695,2.696 -1.487,0 -2.696,-1.209 -2.697,-2.696 h -2.5 c 0,1.487 -1.21,2.696 -2.696,2.696 -1.486,0 -2.696,-1.209 -2.696,-2.696 h -2.5 c 0,1.487 -1.21,2.696 -2.695,2.696 v 2.5 c 1.577,0 2.991,-0.706 3.945,-1.818 0.954,1.113 2.37,1.819 3.946,1.818 1.577,0 2.992,-0.706 3.946,-1.818 0.952,1.113 2.369,1.819 3.947,1.818 1.576,0 2.991,-0.706 3.945,-1.818 z m -1.098,-17.008 h -2.5 c 0,1.486 -1.21,2.695 -2.696,2.695 -1.486,0 -2.695,-1.209 -2.695,-2.695 h -2.5 c 0,1.486 -1.21,2.695 -2.697,2.695 -1.485,0 -2.695,-1.209 -2.695,-2.695 h -2.5 c 0,1.486 -1.21,2.695 -2.695,2.695 v 2.5 c 1.577,0 2.991,-0.706 3.945,-1.819 0.954,1.113 2.369,1.819 3.945,1.819 1.577,0 2.994,-0.706 3.947,-1.819 0.952,1.113 2.367,1.819 3.945,1.819 1.577,0 2.992,-0.706 3.946,-1.819 0.954,1.113 2.369,1.819 3.945,1.819 v -2.5 c -1.485,0 -2.695,-1.209 -2.695,-2.695 z m -19.817,34.148 c 1.576,0 2.991,-0.706 3.945,-1.819 0.954,1.113 2.369,1.819 3.946,1.819 1.577,0 2.992,-0.706 3.945,-1.819 0.954,1.113 2.369,1.819 3.946,1.819 v -2.5 c -1.486,0 -2.696,-1.209 -2.696,-2.695 h -2.5 c 0,1.486 -1.209,2.695 -2.695,2.695 -1.486,0 -2.696,-1.209 -2.696,-2.695 h -2.5 c 0,1.486 -1.21,2.695 -2.695,2.695 -1.487,0 -2.697,-1.209 -2.697,-2.695 h -2.5 c 0,1.486 -1.209,2.695 -2.695,2.695 v 2.5 c 1.577,0 2.992,-0.706 3.945,-1.819 0.954,1.113 2.37,1.819 3.947,1.819 z m -17.756,-48.654 h 1.25 v -1.25 h -1.25 z m -2.501,1.25 v -3.75 c 0,-0.691 0.56,-1.25 1.251,-1.25 h 3.75 c 0.69,0 1.25,0.559 1.25,1.25 v 3.75 c 0,0.69 -0.56,1.25 -1.25,1.25 h -3.75 c -0.691,0 -1.251,-0.56 -1.251,-1.25 z m 10.001,-6.25 h 1.25 v -1.25 h -1.25 z m -2.5,1.25 v -3.75 c 0,-0.691 0.559,-1.25 1.25,-1.25 h 3.75 c 0.69,0 1.25,0.559 1.25,1.25 v 3.75 c 0,0.69 -0.56,1.25 -1.25,1.25 h -3.75 c -0.691,0 -1.25,-0.56 -1.25,-1.25 z m 3.75,7.5 h 1.25 v -1.25 h -1.25 z m 2.5,-3.75 c 0.69,0 1.25,0.559 1.25,1.25 v 3.75 c 0,0.69 -0.56,1.25 -1.25,1.25 h -3.75 c -0.691,0 -1.25,-0.56 -1.25,-1.25 v -3.75 c 0,-0.691 0.559,-1.25 1.25,-1.25 z m -4.766,10.094 c -1.269,0 -5.989,-0.049 -9.553,-0.703 l 7.874,12.44 c 0.127,0.2 0.195,0.431 0.195,0.669 v 1.576 c 0.866,0.208 1.685,0.214 2.5,0.017 v -1.593 c 0,-0.236 0.066,-0.468 0.192,-0.669 l 8.203,-12.418 c -2.751,0.488 -6.376,0.681 -9.411,0.681 z m -13.903,-3.135 c -0.009,-0.059 -0.02,-0.17 -0.02,-0.229 0,-0.769 0,-3.108 12.414,-3.35 l 0.049,2.5 c -3.997,0.077 -6.952,0.459 -8.636,0.85 1.839,0.429 5.25,0.864 10.096,0.864 4.669,0 8.156,-0.42 10.073,-0.865 -0.64,-0.151 -1.527,-0.316 -2.75,-0.465 l 0.304,-2.481 c 4.47,0.545 6.294,1.4 6.294,2.947 0,0.33 -0.119,0.782 -0.543,1.215 l -9.862,14.916 v 2.139 c 0,0.51 -0.311,0.969 -0.784,1.159 -0.961,0.386 -1.926,0.579 -2.911,0.578 -0.972,0 -1.964,-0.189 -2.987,-0.565 -0.491,-0.181 -0.817,-0.649 -0.818,-1.172 v -2.138 l -9.595,-15.16 c -0.003,-0.004 -0.005,-0.007 -0.007,-0.011 l -0.01,-0.017 -0.187,-0.295 0.019,-0.013 c -0.068,-0.128 -0.117,-0.264 -0.139,-0.407 z m 12.419,24.291 v -3.75 h -2.5 v 2.5 h -2.5 c -0.485,0 -0.927,0.28 -1.132,0.719 -0.206,0.44 -0.139,0.959 0.171,1.331 l 6.25,7.5 c 0.237,0.285 0.59,0.45 0.961,0.45 0.37,0 0.722,-0.165 0.96,-0.45 l 6.25,-7.5 c 0.31,-0.372 0.377,-0.891 0.171,-1.331 -0.205,-0.439 -0.647,-0.719 -1.131,-0.719 h -2.5 v -2.5 h -2.5 v 3.75 c 0,0.69 0.559,1.25 1.25,1.25 h 1.081 l -3.581,4.297 -3.582,-4.297 h 1.082 c 0.69,0 1.25,-0.56 1.25,-1.25 z m 46.249,-2.5 c 0,16.541 -13.458,30 -30.001,30 -16.541,0 -29.999,-13.459 -29.999,-30 0,-4.572 1.002,-8.961 2.977,-13.045 l 2.252,1.089 c -1.81,3.741 -2.729,7.764 -2.729,11.956 0,15.163 12.337,27.5 27.499,27.5 15.163,0 27.501,-12.337 27.501,-27.5 0,-15.164 -12.337,-27.5 -27.501,-27.5 -1.607,0 -3.216,0.139 -4.783,0.414 l -0.432,-2.463 c 1.709,-0.3 3.464,-0.451 5.215,-0.451 16.542,0 30.001,13.457 30.001,30 z"/></g></svg>