<svg xmlns="http://www.w3.org/2000/svg" viewBox="0 0 100 100"><defs/><defs><linearGradient id="a" x1="0" x2="1" y1="1" y2="0"><stop offset="0%" stop-color="#4D27A8"/><stop offset="100%" stop-color="#A166FF"/></linearGradient></defs><g><path fill="url(#a)" fill-rule="evenodd" d="m 0,0 h 100 v 100 h -100 z"/><path fill="#fff" fill-rule="evenodd" d="m 61.25,63.75 h 7.5 v -2.5 h -7.5 z m 5,13.75 h 3.75 v -3.75 h -3.75 z m 6.25,-5 v 6.25 c 0,0.69 -0.559,1.25 -1.25,1.25 h -6.25 c -0.69,0 -1.25,-0.56 -1.25,-1.25 v -6.25 c 0,-0.69 0.56,-1.25 1.25,-1.25 h 6.25 c 0.691,0 1.25,0.56 1.25,1.25 z m -7.5,-3.75 h 3.75 v -2.5 h -3.75 z m 8.75,-2.5 h 3.75 v -3.75 h -3.75 z m 5,2.5 h -6.25 c -0.69,0 -1.25,-0.56 -1.25,-1.25 v -6.25 c 0,-0.69 0.56,-1.25 1.25,-1.25 h 3.719 c -2.087,-1.563 -4.666,-2.5 -7.469,-2.5 -5.585,0 -10.326,3.684 -11.924,8.75 h 5.674 v 2.5 h -6.186 c -0.041,0.411 -0.064,0.829 -0.064,1.25 0,0.421 0.022,0.839 0.064,1.25 h 4.936 v 2.5 h -4.424 c 0.279,0.881 0.66,1.715 1.117,2.5 h 3.307 v 2.5 h -1.411 c 2.27,2.311 5.424,3.75 8.911,3.75 3.487,0 6.643,-1.439 8.911,-3.75 h -2.661 v -2.5 h 4.559 c 0.456,-0.785 0.838,-1.619 1.115,-2.5 h -5.674 v -2.5 h 6.188 c 0.041,-0.411 0.063,-0.829 0.062,-1.25 0,-1.941 -0.458,-3.772 -1.25,-5.412 v 2.912 c 0,0.69 -0.559,1.25 -1.25,1.25 z m 5,1.25 c 0,8.271 -6.727,15 -15,15 -8.271,0 -15,-6.729 -15,-15 0,-8.271 6.729,-15 15,-15 8.273,0 15,6.729 15,15 z m -23.591,-15.229 c -18.366,1.776 -36.409,6.129 -36.409,22.729 h 2.5 c 0,-7.959 3.75,-16.402 30.042,-19.769 1.14,-1.159 2.444,-2.154 3.867,-2.96 z m -28.909,30.229 h 2.5 c 0,-7.269 0.015,-16.165 18.501,-20.779 0.351,-1 0.785,-1.959 1.304,-2.866 -22.287,4.954 -22.305,16.122 -22.305,23.645 z m -12.5,-52.5 h -2.5 c 0,9.245 12.549,15.1 37.366,17.5 -24.817,2.4 -37.366,8.255 -37.366,17.5 h 2.5 c 0,-6.069 8.445,-16.25 65,-16.25 v -2.5 c -56.555,0 -65,-10.181 -65,-16.25 z m 7.5,-10 h -2.5 c 0,11.745 7.129,23.75 60,23.75 v -2.5 c -50.669,0 -57.5,-10.742 -57.5,-21.25 z m 57.5,16.25 v 2.5 c -22.921,0 -37.84,-2.949 -45.613,-9.015 -6.887,-5.375 -6.887,-12.23 -6.887,-17.235 h 2.5 c 0,9.457 0,23.75 50,23.75 z"/></g></svg>