<svg xmlns="http://www.w3.org/2000/svg" viewBox="0 0 100 100"><defs/><defs><linearGradient id="a" x1="0" x2="1" y1="1" y2="0"><stop offset="0%" stop-color="#1B660F"/><stop offset="100%" stop-color="#6CAE3E"/></linearGradient></defs><g><path fill="url(#a)" fill-rule="evenodd" d="m 0,0 h 100 v 100 h -100 z"/><path fill="#fff" fill-rule="evenodd" d="m 78.75,66.755 -28.736,15.566 -27.514,-15.551 v -33.541 l 27.514,-15.549 28.736,15.564 z m 1.846,-35.354 -30,-16.25 c -0.381,-0.205 -0.838,-0.201 -1.211,0.011 l -28.75,16.25 c -0.393,0.221 -0.635,0.637 -0.635,1.089 v 34.999 c 0,0.45 0.242,0.866 0.635,1.088 l 28.75,16.25 c 0.19,0.109 0.403,0.162 0.615,0.162 0.205,0 0.41,-0.05 0.596,-0.151 l 30,-16.25 c 0.403,-0.219 0.654,-0.64 0.654,-1.099 v -34.999 c 0,-0.459 -0.251,-0.881 -0.654,-1.1 z m -10.774,22.039 c 0,7.045 -5.731,12.776 -12.775,12.777 -1.549,0 -3.073,-0.301 -4.511,-0.844 2.188,-1.741 3.849,-4.039 4.801,-6.67 2.883,-0.24 5.162,-2.635 5.163,-5.578 0,-0.899 -0.232,-1.737 -0.608,-2.491 1.635,-2.116 2.652,-4.627 2.98,-7.286 3.089,2.402 4.95,6.13 4.95,10.092 z m -39.577,0 c 0,-3.935 1.84,-7.636 4.891,-10.038 0.336,2.625 1.35,5.114 2.976,7.221 -0.379,0.757 -0.613,1.599 -0.612,2.502 0,2.967 2.317,5.38 5.234,5.585 0.953,2.627 2.611,4.922 4.797,6.663 -1.438,0.542 -2.963,0.844 -4.51,0.844 -7.045,0 -12.776,-5.731 -12.776,-12.777 z m 29.994,-4.796 c -0.884,-0.665 -1.959,-1.072 -3.135,-1.121 -0.424,-1.011 -0.973,-1.976 -1.61,-2.881 0.468,-0.821 0.756,-1.756 0.756,-2.766 0,-0.399 -0.044,-0.785 -0.124,-1.16 2.201,-0.157 4.389,0.244 6.355,1.168 -0.074,2.449 -0.855,4.786 -2.242,6.76 z m -3.364,7.606 c -1.724,0 -3.125,-1.402 -3.125,-3.125 0,-1.724 1.401,-3.125 3.125,-3.125 1.724,0 3.125,1.401 3.125,3.125 0,1.722 -1.401,3.125 -3.125,3.125 z m -13.75,-6.25 c 1.724,0 3.125,1.401 3.125,3.125 0,1.722 -1.401,3.125 -3.125,3.125 -1.724,0 -3.125,-1.402 -3.125,-3.125 0,-1.724 1.401,-3.125 3.125,-3.125 z m 2.201,-6.313 c -0.969,1.165 -1.777,2.451 -2.357,3.829 -1.201,0.034 -2.3,0.447 -3.2,1.121 -1.384,-1.972 -2.167,-4.295 -2.249,-6.718 2.33,-1.114 4.971,-1.495 7.584,-1.067 -0.063,0.332 -0.104,0.672 -0.104,1.024 0,0.636 0.13,1.239 0.326,1.811 z m 8.424,-1.811 c 0,1.722 -1.401,3.125 -3.125,3.125 -1.724,0 -3.125,-1.402 -3.125,-3.125 0,-1.724 1.401,-3.125 3.125,-3.125 1.724,0 3.125,1.401 3.125,3.125 z m -2.5,11.249 c 0,0.384 0.039,0.759 0.114,1.122 -0.897,0.094 -1.823,0.096 -2.726,-0.004 0.074,-0.361 0.112,-0.735 0.112,-1.118 0,-2.255 -1.34,-4.189 -3.259,-5.086 0.346,-0.74 0.749,-1.457 1.237,-2.123 1.011,0.976 2.382,1.585 3.897,1.585 1.156,0 2.231,-0.352 3.125,-0.953 0.304,0.471 0.576,0.959 0.813,1.463 -1.948,0.885 -3.313,2.839 -3.313,5.114 z m -1.216,10.979 c -2.152,-1.416 -3.815,-3.422 -4.778,-5.779 0.902,-0.372 1.673,-0.982 2.27,-1.738 0.82,0.141 1.656,0.235 2.512,0.235 0.838,0 1.651,-0.091 2.445,-0.225 0.61,0.767 1.399,1.38 2.323,1.747 -0.965,2.347 -2.624,4.349 -4.772,5.76 z m -0.028,-35.112 c 6.031,0 11.124,4.374 12.253,10.097 -2.315,-0.839 -4.822,-1.114 -7.313,-0.771 -1.032,-1.251 -2.576,-2.067 -4.321,-2.067 -1.831,0 -3.445,0.892 -4.472,2.25 -2.848,-0.591 -5.761,-0.359 -8.414,0.617 1.125,-5.746 6.226,-10.126 12.267,-10.126 z m 0,-2.5 c -7.856,0 -14.387,6.175 -14.95,13.94 -4.511,2.769 -7.311,7.706 -7.311,13.008 0,8.422 6.854,15.276 15.276,15.276 2.446,0 4.849,-0.617 7.013,-1.738 2.165,1.121 4.567,1.739 7.014,1.738 8.423,0 15.275,-6.854 15.275,-15.276 0,-5.331 -2.826,-10.296 -7.38,-13.056 -0.576,-7.732 -7.095,-13.892 -14.937,-13.892 z"/></g></svg>