<svg xmlns="http://www.w3.org/2000/svg" viewBox="0 0 100 100"><defs/><defs><linearGradient id="a" x1="0" x2="1" y1="1" y2="0"><stop offset="0%" stop-color="#B0084D"/><stop offset="100%" stop-color="#FF4F8B"/></linearGradient></defs><g><path fill="url(#a)" fill-rule="evenodd" d="m 0,0 h 100 v 100 h -100 z"/><path fill="#fff" fill-rule="evenodd" d="m 67.071,82.5 c -2.679,0 -4.859,-2.191 -4.859,-4.886 0,-2.695 2.18,-4.886 4.859,-4.886 2.679,0 4.859,2.191 4.859,4.886 0,2.695 -2.18,4.886 -4.859,4.886 z m -10.655,-21.25 h -12.919 l -6.46,-11.25 6.46,-11.25 h 12.919 l 6.459,11.25 z m -21.89,-33.977 c -2.679,0 -4.859,-2.191 -4.859,-4.887 0,-2.695 2.18,-4.886 4.859,-4.886 2.68,0 4.86,2.191 4.861,4.886 0,2.695 -2.18,4.886 -4.861,4.886 z m 32.545,42.954 c -0.922,0 -1.802,0.179 -2.617,0.493 l -5.279,-8.958 -0.278,0.167 6.49,-11.304 c 0.221,-0.388 0.221,-0.862 0,-1.25 l -7.178,-12.5 c -0.222,-0.388 -0.633,-0.625 -1.076,-0.625 h -13.06 l 0.051,-0.03 -4.841,-8.215 c 1.581,-1.355 2.589,-3.37 2.59,-5.619 0,-4.072 -3.295,-7.386 -7.347,-7.386 -4.05,0 -7.345,3.314 -7.345,7.386 0,4.072 3.295,7.386 7.345,7.386 0.924,0 1.804,-0.179 2.618,-0.492 l 4.518,7.666 -7.137,12.429 c -0.221,0.388 -0.221,0.862 0,1.25 l 7.179,12.5 c 0.222,0.388 0.633,0.625 1.076,0.625 h 14.353 c 0.103,0 0.204,-0.016 0.301,-0.04 l 4.881,8.285 c -1.582,1.355 -2.589,3.37 -2.589,5.619 0,4.072 3.294,7.386 7.345,7.386 4.051,0 7.345,-3.314 7.345,-7.386 0,-4.072 -3.294,-7.386 -7.345,-7.387 z m 7.41,-30.097 c -2.679,0 -4.858,-2.191 -4.858,-4.886 0,-2.695 2.179,-4.886 4.858,-4.887 2.679,0 4.859,2.191 4.858,4.887 0,2.695 -2.18,4.886 -4.858,4.886 z m 9.102,9.245 -4.718,-8.219 c 1.794,-1.349 2.961,-3.494 2.961,-5.912 0,-4.072 -3.294,-7.386 -7.345,-7.387 -1.03,0 -2.012,0.216 -2.904,0.605 l -3.847,-6.701 c -0.221,-0.386 -0.633,-0.625 -1.077,-0.625 h -15.409 v 2.5 h 14.692 l 3.559,6.2 c -1.447,1.35 -2.358,3.271 -2.358,5.408 0,4.072 3.294,7.386 7.344,7.386 0.755,0 1.484,-0.116 2.17,-0.33 l 4.421,7.7 -6.207,10.81 2.153,1.25 6.565,-11.435 c 0.222,-0.388 0.222,-0.862 0,-1.25 z m -57.047,19.684 c -2.68,0 -4.86,-2.192 -4.86,-4.887 0,-2.695 2.18,-4.886 4.86,-4.886 2.679,0 4.859,2.191 4.859,4.886 0,2.694 -2.18,4.886 -4.859,4.887 z m 4.06,1.263 c 1.978,-1.325 3.285,-3.586 3.285,-6.15 0,-4.072 -3.295,-7.386 -7.345,-7.386 -1.173,0 -2.278,0.285 -3.263,0.779 l -4.344,-7.565 7.198,-12.536 -2.154,-1.25 -7.556,13.161 c -0.222,0.388 -0.222,0.862 0,1.25 l 4.839,8.425 c -1.277,1.33 -2.066,3.134 -2.066,5.122 0,4.072 3.295,7.386 7.346,7.387 0.61,0 1.201,-0.084 1.769,-0.227 l 3.965,6.907 c 0.222,0.386 0.633,0.625 1.077,0.625 h 15.411 v -2.5 h -14.694 z"/></g></svg>