<svg xmlns="http://www.w3.org/2000/svg" viewBox="0 0 100 100"><defs/><defs><linearGradient id="a" x1="0" x2="1" y1="1" y2="0"><stop offset="0%" stop-color="#055F4E"/><stop offset="100%" stop-color="#56C0A7"/></linearGradient></defs><g><path fill="url(#a)" fill-rule="evenodd" d="m 0,0 h 100 v 100 h -100 z"/><path fill="#fff" fill-rule="evenodd" d="m 81.658,75.403 -16.764,-16.32 c -1.641,2.218 -3.605,4.183 -5.823,5.824 l 16.36,16.747 c 0.81,0.811 1.772,0.88 2.435,0.797 1.016,-0.13 2.07,-0.696 2.969,-1.595 0.902,-0.904 1.477,-1.967 1.614,-2.996 0.089,-0.671 0.024,-1.642 -0.791,-2.457 z m -39.003,-7.599 c 13.859,0 25.133,-11.279 25.133,-25.14 0,-13.863 -11.274,-25.142 -25.133,-25.142 -13.859,0 -25.134,11.279 -25.134,25.142 0,13.862 11.275,25.141 25.134,25.14 z m 42.292,10.39 c -0.21,1.573 -1.037,3.152 -2.33,4.445 -1.293,1.292 -2.866,2.114 -4.432,2.313 -0.252,0.033 -0.502,0.048 -0.75,0.048 -1.442,0 -2.769,-0.545 -3.796,-1.573 l -16.693,-17.089 c -4.174,2.529 -9.066,3.988 -14.291,3.988 -15.249,0 -27.655,-12.41 -27.655,-27.662 0,-15.254 12.406,-27.664 27.655,-27.664 15.248,0 27.654,12.41 27.654,27.664 0,5.226 -1.457,10.118 -3.986,14.292 l 17.105,16.652 c 1.218,1.217 1.752,2.842 1.519,4.586 z m -24.647,-35.53 c 0,-9.898 -7.751,-17.651 -17.645,-17.651 -9.895,0 -17.645,7.752 -17.645,17.651 0,9.897 7.75,17.651 17.645,17.65 9.894,0 17.645,-7.754 17.645,-17.65 z m 2.521,0 c 0,11.312 -8.859,20.172 -20.166,20.172 -11.308,0 -20.166,-8.861 -20.166,-20.172 0,-11.312 8.858,-20.172 20.166,-20.173 11.307,0 20.166,8.861 20.166,20.173 z m -27.945,3.554 h -2.521 v 6.304 h 6.302 v -2.522 h -3.781 z m -2.521,-7.565 h 2.521 v -3.782 h 3.781 v -2.522 h -6.302 z m 13.864,-3.782 h 3.781 v 3.782 h 2.521 v -6.304 h -6.302 z m 3.781,11.347 h 2.521 v 6.304 h -6.302 v -2.522 h 3.781 z"/></g></svg>