<svg xmlns="http://www.w3.org/2000/svg" viewBox="0 0 100 100"><defs/><defs><linearGradient id="a" x1="0" x2="1" y1="1" y2="0"><stop offset="0%" stop-color="#B0084D"/><stop offset="100%" stop-color="#FF4F8B"/></linearGradient></defs><g><path fill="url(#a)" fill-rule="evenodd" d="m 0,0 h 100 v 100 h -100 z"/><path fill="#fff" fill-rule="evenodd" d="m 32.5,23.75 h 3.75 v -2.5 h -3.75 z m -6.25,0 h 3.75 v -2.5 h -3.75 z m -6.25,0 h 3.75 v -2.5 h -3.75 z m -2.5,3.75 h 65 v -10 h -65 z m 66.25,-12.5 h -67.5 c -0.691,0 -1.25,0.56 -1.25,1.25 v 67.5 c 0,0.69 0.559,1.25 1.25,1.25 h 41.25 v -2.5 h -40 v -52.5 h 65 v 52.5 h -8.75 v 2.5 h 10 c 0.691,0 1.25,-0.56 1.25,-1.25 v -67.5 c 0,-0.69 -0.559,-1.25 -1.25,-1.25 z m -33.75,48.597 c -3.901,0 -7.076,-3.175 -7.076,-7.076 0,-3.901 3.175,-7.075 7.076,-7.075 3.901,0 7.076,3.174 7.076,7.075 0,3.901 -3.175,7.076 -7.076,7.076 z m 0,-16.651 c -5.281,0 -9.576,4.295 -9.576,9.575 0,5.28 4.295,9.576 9.576,9.576 5.281,0 9.576,-4.296 9.576,-9.576 0,-5.28 -4.295,-9.575 -9.576,-9.575 z m 19.565,12.389 -2.133,-0.121 c -0.569,-0.029 -1.156,0.376 -1.29,0.972 -0.413,1.83 -1.131,3.565 -2.136,5.16 -0.326,0.516 -0.23,1.192 0.225,1.6 l 1.593,1.421 -3.978,3.978 -1.416,-1.586 c -0.408,-0.458 -1.085,-0.551 -1.601,-0.225 -1.59,1.005 -3.327,1.726 -5.164,2.14 -0.596,0.135 -1.008,0.681 -0.973,1.291 l 0.122,2.122 h -5.628 l 0.123,-2.125 c 0.035,-0.609 -0.376,-1.155 -0.973,-1.29 -1.831,-0.415 -3.569,-1.135 -5.162,-2.142 -0.516,-0.325 -1.194,-0.234 -1.6,0.225 l -1.42,1.591 -3.978,-3.979 1.59,-1.418 c 0.456,-0.406 0.551,-1.084 0.225,-1.6 -1.004,-1.589 -1.722,-3.325 -2.136,-5.163 -0.134,-0.596 -0.707,-1.001 -1.29,-0.972 l -2.13,0.121 v -5.628 l 2.137,0.123 c 0.575,0.022 1.154,-0.376 1.29,-0.973 0.414,-1.827 1.133,-3.561 2.139,-5.152 0.326,-0.517 0.23,-1.194 -0.225,-1.6 l -1.6,-1.429 3.979,-3.979 1.427,1.6 c 0.406,0.456 1.084,0.549 1.599,0.225 1.591,-1.002 3.324,-1.721 5.154,-2.133 0.597,-0.135 1.009,-0.68 0.974,-1.292 l -0.123,-2.141 h 5.628 l -0.122,2.144 c -0.035,0.61 0.376,1.155 0.973,1.29 1.829,0.415 3.56,1.133 5.149,2.136 0.516,0.325 1.194,0.23 1.6,-0.225 l 1.431,-1.604 3.979,3.979 -1.598,1.425 c -0.455,0.408 -0.551,1.085 -0.225,1.601 1.005,1.587 1.724,3.322 2.139,5.157 0.135,0.595 0.724,0.994 1.29,0.971 l 2.135,-0.123 z m 1.18,-8.199 -2.43,0.139 c -0.398,-1.391 -0.953,-2.729 -1.656,-3.993 l 1.817,-1.621 c 0.256,-0.229 0.408,-0.554 0.418,-0.897 0.01,-0.344 -0.122,-0.676 -0.367,-0.919 l -5.85,-5.85 c -0.245,-0.244 -0.569,-0.384 -0.92,-0.366 -0.344,0.01 -0.667,0.16 -0.897,0.417 l -1.626,1.823 c -1.264,-0.703 -2.597,-1.255 -3.988,-1.653 l 0.139,-2.439 c 0.019,-0.343 -0.103,-0.679 -0.34,-0.93 -0.235,-0.249 -0.564,-0.391 -0.908,-0.391 h -8.275 c -0.344,0 -0.673,0.143 -0.907,0.393 -0.237,0.25 -0.359,0.586 -0.34,0.93 l 0.14,2.435 c -1.391,0.396 -2.726,0.95 -3.993,1.652 l -1.622,-1.82 c -0.23,-0.258 -0.554,-0.408 -0.898,-0.417 -0.348,-0.015 -0.675,0.122 -0.92,0.366 l -5.85,5.85 c -0.244,0.242 -0.376,0.575 -0.366,0.919 0.01,0.344 0.161,0.669 0.418,0.897 l 1.82,1.624 c -0.705,1.265 -1.259,2.601 -1.657,3.99 l -2.432,-0.139 c -0.34,-0.021 -0.68,0.104 -0.929,0.34 -0.25,0.236 -0.391,0.565 -0.391,0.909 v 8.274 c 0,0.344 0.141,0.673 0.391,0.908 0.249,0.235 0.59,0.36 0.929,0.339 l 2.425,-0.137 c 0.396,1.394 0.95,2.734 1.654,3.998 l -1.81,1.615 c -0.256,0.229 -0.408,0.554 -0.418,0.898 -0.01,0.344 0.122,0.676 0.366,0.919 l 5.85,5.851 c 0.245,0.242 0.569,0.379 0.92,0.365 0.344,-0.01 0.669,-0.16 0.898,-0.418 l 1.615,-1.81 c 1.268,0.706 2.606,1.261 3.999,1.659 l -0.139,2.42 c -0.019,0.343 0.103,0.679 0.339,0.929 0.236,0.25 0.565,0.393 0.908,0.392 h 8.275 c 0.344,0 0.673,-0.143 0.908,-0.392 0.237,-0.25 0.359,-0.586 0.34,-0.929 l -0.139,-2.417 c 1.395,-0.398 2.736,-0.953 4.003,-1.658 l 1.611,1.806 c 0.229,0.258 0.554,0.408 0.897,0.418 0.321,0.018 0.677,-0.122 0.92,-0.365 l 5.85,-5.851 c 0.244,-0.242 0.376,-0.575 0.367,-0.919 -0.01,-0.344 -0.161,-0.669 -0.418,-0.898 l -1.814,-1.617 c 0.705,-1.268 1.259,-2.606 1.655,-3.996 l 2.428,0.137 c 0.338,0.021 0.68,-0.104 0.929,-0.339 0.25,-0.236 0.391,-0.565 0.391,-0.908 v -8.274 c 0,-0.344 -0.141,-0.673 -0.391,-0.909 -0.249,-0.236 -0.59,-0.36 -0.929,-0.34 z"/></g></svg>