<svg xmlns="http://www.w3.org/2000/svg" viewBox="0 0 100 100"><defs/><defs><linearGradient id="a" x1="0" x2="1" y1="1" y2="0"><stop offset="0%" stop-color="#2E27AD"/><stop offset="100%" stop-color="#527FFF"/></linearGradient></defs><g><path fill="url(#a)" fill-rule="evenodd" d="m 0,0 h 100 v 100 h -100 z"/><path fill="#fff" fill-rule="evenodd" d="m 42.441,81.233 h 5.01 v -25.175 h -5.01 z m -16.05,-40.279 h 8.308 c -0.177,4.297 1.095,7.851 2.48,10.397 -6.438,-3.56 -10.061,-7.044 -10.788,-10.397 z m 17.701,-5.035 h 1.464 l 1.333,2.517 h -4.236 z m 0.854,-6.276 1.234,1.241 -1.234,1.241 -1.233,-1.241 z m 8.275,21.293 c 1.415,-2.515 2.656,-5.917 2.513,-9.982 h 6.411 c -0.753,4.063 -5.009,7.56 -8.924,9.982 z m -7.022,-9.982 h 7.025 c 0.255,6.606 -3.84,11.354 -5.033,12.587 h -1.992 z m -4.466,12.587 c -1.132,-1.275 -4.827,-5.98 -4.523,-12.587 h 6.484 v 12.587 z m 23.035,-13.846 c 0,-0.695 -0.56,-1.259 -1.253,-1.259 h -13.789 l -2.311,-4.368 c -0.1,-0.186 -0.245,-0.335 -0.415,-0.449 l 1.337,-1.342 c 0.234,-0.237 0.367,-0.556 0.367,-0.89 v -1.007 c 0,-0.334 -0.133,-0.653 -0.367,-0.89 l -2.004,-2.013 c -0.234,-0.237 -0.552,-0.369 -0.886,-0.369 h -1.003 c -0.332,0 -0.65,0.132 -0.885,0.369 l -2.003,2.013 c -0.235,0.237 -0.367,0.556 -0.367,0.89 v 1.007 c 0,0.334 0.132,0.653 0.367,0.89 l 1.256,1.263 c -0.217,0.11 -0.405,0.274 -0.531,0.493 l -2.517,4.403 h -14.762 c -0.693,0 -1.252,0.564 -1.252,1.259 0,5.472 5.307,10.675 16.187,15.895 v 26.901 c 0,0.695 0.56,1.259 1.252,1.259 h 7.515 c 0.693,0 1.252,-0.564 1.252,-1.259 v -26.9 c 5.85,-2.842 14.811,-8.415 14.812,-15.896 z m -11.166,-10.206 -2.243,1.12 c -1.259,-2.544 -3.795,-4.125 -6.619,-4.124 -2.826,0 -5.362,1.581 -6.619,4.124 l -2.244,-1.12 c 1.682,-3.406 5.079,-5.522 8.863,-5.522 3.781,0 7.178,2.116 8.862,5.522 z m 1.19,-0.609 c -1.915,-3.858 -5.766,-6.255 -10.052,-6.255 -4.295,0 -8.15,2.404 -10.062,6.273 l -2.244,-1.119 c 2.338,-4.732 7.053,-7.671 12.306,-7.671 5.241,0 9.952,2.93 12.292,7.648 z m -23.554,-1.699 -2.243,-1.122 c 2.992,-6.051 9.026,-9.809 15.745,-9.809 6.697,0 12.722,3.742 15.723,9.766 l -2.242,1.127 c -2.571,-5.167 -7.738,-8.376 -13.481,-8.376 -5.761,0 -10.935,3.224 -13.502,8.414 z m 34.027,30.563 c 0.889,-1.768 1.598,-4.035 1.53,-6.721 h 6.698 c -1.001,2.55 -4.804,4.94 -8.228,6.721 z m -9.047,23.489 h 3.758 v -18.881 h -3.758 z m 20.032,-31.468 c 0,-0.695 -0.56,-1.259 -1.252,-1.259 h -12.517 v 2.517 h 1.807 c 0.142,4.696 -2.605,7.861 -3.557,8.811 h -4.513 v -3.776 h -2.505 v 26.433 c 0,0.695 0.56,1.259 1.253,1.259 h 6.262 c 0.693,0 1.252,-0.564 1.253,-1.259 v -20.595 c 5.174,-2.413 13.769,-6.44 13.769,-12.131 z"/></g></svg>