<svg xmlns="http://www.w3.org/2000/svg" viewBox="0 0 100 100"><defs/><defs><linearGradient id="a" x1="0" x2="1" y1="1" y2="0"><stop offset="0%" stop-color="#2E27AD"/><stop offset="100%" stop-color="#527FFF"/></linearGradient></defs><g><path fill="url(#a)" fill-rule="evenodd" d="m 0,0 h 100 v 100 h -100 z"/><path fill="#fff" fill-rule="evenodd" d="m 85.03,36.275 -4.026,0.945 3.151,3.535 c -0.235,0.468 -0.55,0.846 -0.945,1.137 -0.398,0.293 -0.84,0.473 -1.331,0.543 l -2.449,-4.235 -2.45,4.235 c -0.49,-0.07 -0.934,-0.25 -1.331,-0.543 -0.396,-0.291 -0.711,-0.67 -0.945,-1.137 l 3.151,-3.535 -4.025,-0.945 c -0.048,-0.234 -0.071,-0.42 -0.071,-0.56 0,-0.794 0.304,-1.494 0.911,-2.1 l 3.779,1.855 -0.489,-4.515 c 0.466,-0.21 0.955,-0.315 1.47,-0.315 0.536,0 1.026,0.105 1.469,0.315 l -0.489,4.515 3.779,-1.855 c 0.607,0.606 0.911,1.306 0.911,2.1 0,0.14 -0.024,0.326 -0.07,0.56 z m -18.867,29.072 c 1.879,0 3.964,-0.375 6.252,-1.127 v 2.409 c -2.117,0.956 -4.253,1.435 -6.406,1.435 -3.964,0 -6.969,-1.136 -9.02,-3.408 -2.049,-2.272 -3.075,-5.613 -3.075,-10.02 0,-4.374 1.042,-7.713 3.126,-10.02 2.084,-2.305 5.107,-3.459 9.071,-3.459 2.119,0 4.117,0.41 5.996,1.23 v 2.409 c -1.879,-0.615 -3.826,-0.922 -5.842,-0.922 -3.245,0 -5.594,0.829 -7.045,2.485 -1.454,1.659 -2.18,4.315 -2.18,7.97 v 0.615 c 0,3.554 0.735,6.175 2.205,7.867 1.469,1.691 3.775,2.536 6.917,2.537 z m -27.413,-49.097 c 13.459,0 22.5,3.879 22.5,7.5 0,3.621 -9.041,7.5 -22.5,7.5 -13.302,0 -21.25,-3.814 -21.25,-7.5 0,-3.686 7.947,-7.5 21.25,-7.5 z m 22.5,61.25 c 0,3.621 -9.041,7.5 -22.5,7.5 -10.446,0 -21.25,-2.805 -21.25,-7.5 v -12.646 c 3.716,3.196 11.344,5.146 21.25,5.146 5.115,0 9.976,-0.544 14.055,-1.57 l -0.611,-2.425 c -3.881,0.978 -8.531,1.495 -13.444,1.495 -10.446,0 -21.25,-2.788 -21.25,-7.454 v -12.796 c 3.751,3.23 11.46,5.25 21.25,5.25 5.11,0 9.971,-0.549 14.058,-1.587 l -0.617,-2.423 c -3.887,0.989 -8.536,1.51 -13.441,1.51 -13.302,0 -21.25,-3.814 -21.25,-7.5 v -14 c 3.751,3.23 11.46,5.25 21.25,5.25 9.072,0 18.223,-1.835 22.5,-5.38 v 4.13 h 2.5 v -8.75 c 0,-6.565 -12.577,-10 -25,-10 -13.984,0 -23.75,4.112 -23.75,10 v 53.75 c 0,5.981 9.544,10 23.75,10 12.423,0 25,-3.435 25,-10 v -2.5 h -2.5 z"/></g></svg>