<svg xmlns="http://www.w3.org/2000/svg" viewBox="0 0 100 100"><defs/><defs><linearGradient id="a" x1="0" x2="1" y1="1" y2="0"><stop offset="0%" stop-color="#C8511B"/><stop offset="100%" stop-color="#F90"/></linearGradient></defs><g><path fill="url(#a)" fill-rule="evenodd" d="m 0,0 h 100 v 100 h -100 z"/><path fill="#fff" fill-rule="evenodd" d="m 50.282,73.621 c 1.549,0 2.806,1.246 2.806,2.784 0,1.538 -1.258,2.784 -2.806,2.784 -1.549,0 -2.806,-1.246 -2.806,-2.784 0,-1.538 1.258,-2.784 2.806,-2.784 m -23.655,-22.526 c 0,1.538 -1.258,2.784 -2.806,2.784 -1.549,0 -2.806,-1.246 -2.807,-2.784 0,-1.536 1.258,-2.784 2.807,-2.784 1.549,0 2.806,1.248 2.806,2.784 m 50.097,31.405 c -3.227,0 -5.755,-2.417 -5.755,-5.502 0,-3.147 2.582,-5.709 5.755,-5.709 3.174,0 5.756,2.561 5.756,5.709 0,3.085 -2.528,5.503 -5.756,5.502 m -5.755,-31.25 c 0,-3.147 2.582,-5.709 5.755,-5.709 3.174,0 5.756,2.561 5.756,5.709 0,3.147 -2.582,5.709 -5.756,5.709 -3.173,0 -5.755,-2.561 -5.755,-5.709 m -20.687,5.709 c -3.174,0 -5.755,-2.561 -5.755,-5.709 0,-3.147 2.581,-5.709 5.755,-5.709 3.174,0 5.755,2.561 5.755,5.709 0,3.147 -2.581,5.709 -5.755,5.709 m 6.301,19.291 c 0,3.564 -2.708,6.25 -6.301,6.25 -3.592,0 -6.3,-2.686 -6.3,-6.25 0,-3.564 2.708,-6.25 6.3,-6.25 3.592,0 6.3,2.686 6.301,6.25 m -13.861,-50 c 0,-3.925 3.603,-7.5 7.56,-7.5 3.958,0 7.56,3.575 7.561,7.5 0,3.925 -3.603,7.5 -7.561,7.5 -3.958,0 -7.56,-3.575 -7.56,-7.5 m -18.901,31.25 c -3.592,0 -6.3,-2.686 -6.301,-6.25 0,-3.618 2.826,-6.56 6.301,-6.56 3.474,0 6.3,2.942 6.3,6.56 0,3.564 -2.708,6.25 -6.3,6.25 m 5.735,19.455 c 0,3.109 -2.528,5.545 -5.756,5.545 -3.227,0 -5.755,-2.436 -5.754,-5.545 0,-3.149 2.582,-5.709 5.754,-5.709 3.174,0 5.756,2.56 5.756,5.709 m 48.428,-8.061 v -9.541 c 3.965,-0.604 7.016,-4.002 7.016,-8.103 0,-4.526 -3.713,-8.209 -8.276,-8.209 -4.133,0 -7.559,3.025 -8.168,6.959 h -10.106 c -0.546,-3.525 -3.354,-6.311 -6.908,-6.853 v -6.993 c 4.825,-0.657 8.821,-4.999 8.821,-9.904 0,-5.327 -4.71,-10 -10.081,-10 -5.37,0 -10.081,4.673 -10.08,10 0,4.905 3.996,9.246 8.82,9.904 v 6.994 c -3.553,0.541 -6.362,3.327 -6.908,6.852 h -9.566 c -0.597,-4.404 -4.278,-7.81 -8.727,-7.81 -4.863,0 -8.821,4.065 -8.821,9.06 0,4.48 3.233,8.064 7.56,8.655 v 8.944 c -3.974,0.596 -7.035,3.999 -7.035,8.106 0,4.511 3.635,8.045 8.275,8.045 4.641,0 8.276,-3.534 8.277,-8.045 0,-4.094 -3.039,-7.488 -6.996,-8.1 v -8.95 c 3.914,-0.535 6.925,-3.521 7.464,-7.405 h 9.569 c 0.546,3.525 3.354,6.311 6.908,6.852 v 8.243 c -4.327,0.591 -7.56,4.175 -7.56,8.655 0,4.906 3.875,8.75 8.82,8.75 4.946,0 8.821,-3.844 8.821,-8.75 0,-4.48 -3.233,-8.064 -7.561,-8.655 v -8.243 c 3.553,-0.541 6.362,-3.327 6.908,-6.852 h 10.106 c 0.547,3.525 3.354,6.311 6.908,6.852 v 9.542 c -3.964,0.605 -7.015,4.004 -7.015,8.103 0,4.487 3.635,8.002 8.275,8.003 4.641,0 8.276,-3.515 8.276,-8.003 0,-4.1 -3.051,-7.499 -7.016,-8.103"/></g></svg>