<svg xmlns="http://www.w3.org/2000/svg" viewBox="0 0 100 100"><defs/><defs><linearGradient id="a" x1="0" x2="1" y1="1" y2="0"><stop offset="0%" stop-color="#BD0816"/><stop offset="100%" stop-color="#FF5252"/></linearGradient></defs><g><path fill="url(#a)" fill-rule="evenodd" d="m 0,0 h 100 v 100 h -100 z"/><path fill="#fff" fill-rule="evenodd" d="m 44.385,38.57 c -1.608,0 -2.915,-1.309 -2.915,-2.916 0,-1.608 1.307,-2.917 2.915,-2.916 1.608,0 2.916,1.309 2.916,2.916 0,1.607 -1.308,2.915 -2.916,2.916 m -2.106,9.619 c 2.769,0 5.022,2.254 5.022,5.023 0,2.769 -2.253,5.023 -5.022,5.023 -2.769,0 -5.022,-2.254 -5.022,-5.023 0,-2.769 2.253,-5.023 5.022,-5.023 m 0,14.26 c -9.738,0 -17.661,-7.925 -17.661,-17.665 0,-9.74 7.923,-17.665 17.661,-17.665 9.738,0 17.661,7.925 17.662,17.665 0,2.51 -0.534,4.894 -1.483,7.06 l -9.058,-1.318 c -0.679,-1.795 -2.015,-3.266 -3.716,-4.12 v -5.411 c 2.413,-0.587 4.214,-2.751 4.214,-5.341 0,-3.04 -2.473,-5.513 -5.513,-5.512 -3.04,0 -5.511,2.472 -5.511,5.512 0,2.59 1.801,4.753 4.213,5.341 v 4.642 c -0.266,-0.027 -0.536,-0.044 -0.808,-0.044 -1.932,0 -3.694,0.729 -5.039,1.919 l -3.14,-3.171 c 0.835,-1.201 1.328,-2.658 1.329,-4.229 0,-2.538 -1.276,-4.873 -3.413,-6.246 l -1.348,2.103 c 1.417,0.91 2.264,2.458 2.264,4.143 0,2.718 -2.211,4.929 -4.928,4.929 v 2.497 c 1.588,0 3.057,-0.506 4.266,-1.358 l 3.333,3.367 c -0.6,1.089 -0.942,2.337 -0.942,3.665 0,4.201 3.418,7.619 7.618,7.619 4.197,0 7.612,-3.412 7.619,-7.609 l 7.251,1.055 c -3.141,4.906 -8.627,8.172 -14.87,8.172 m 0,-37.926 c -11.17,0 -20.258,9.088 -20.257,20.261 0,11.172 9.088,20.262 20.257,20.262 11.17,0 20.258,-9.09 20.258,-20.262 0,-11.172 -9.088,-20.261 -20.258,-20.261 m 39.09,55.295 c -1.498,1.657 -4.074,1.794 -5.737,0.3 l -15.921,-14.365 c 2.085,-1.737 3.903,-3.779 5.395,-6.056 l 15.963,14.383 c 1.659,1.501 1.793,4.075 0.3,5.738 m -63.773,-35.034 c 0,-13.613 11.073,-24.688 24.683,-24.688 13.61,0 24.683,11.075 24.683,24.688 0,13.613 -11.073,24.688 -24.683,24.688 -13.61,0 -24.683,-11.075 -24.683,-24.688 m 65.211,27.368 -16.359,-14.737 c 1.984,-3.779 3.111,-8.075 3.111,-12.631 0,-15.045 -12.238,-27.284 -27.28,-27.284 -15.041,0 -27.279,12.239 -27.279,27.284 0,15.045 12.238,27.285 27.279,27.285 5.675,0 10.951,-1.746 15.322,-4.724 l 16.296,14.702 c 1.268,1.141 2.861,1.703 4.449,1.703 1.823,0 3.638,-0.74 4.952,-2.195 2.449,-2.727 2.229,-6.945 -0.491,-9.403"/></g></svg>