<svg xmlns="http://www.w3.org/2000/svg" viewBox="0 0 100 100"><defs/><defs><linearGradient id="a" x1="0" x2="1" y1="1" y2="0"><stop offset="0%" stop-color="#1B660F"/><stop offset="100%" stop-color="#6CAE3E"/></linearGradient></defs><g><path fill="url(#a)" fill-rule="evenodd" d="m 0,0 h 100 v 100 h -100 z"/><path fill="#fff" fill-rule="evenodd" d="m 63.008,69.766 c -3.726,0 -6.757,-3.031 -6.758,-6.759 0,-3.726 3.031,-6.757 6.757,-6.757 3.726,0 6.757,3.031 6.758,6.757 0,3.728 -3.031,6.759 -6.758,6.759 z m -0.001,-16.016 c -5.105,0 -9.258,4.152 -9.257,9.257 0,5.105 4.152,9.259 9.257,9.259 5.105,0 9.258,-4.154 9.258,-9.259 0,-5.105 -4.152,-9.258 -9.258,-9.257 z m 19.127,26.392 c -0.529,0.585 -1.441,0.633 -2.025,0.107 l -7.482,-6.749 c 0.704,-0.645 1.343,-1.359 1.905,-2.133 l 7.494,6.75 c 0.586,0.53 0.634,1.44 0.108,2.025 z m -30.884,-17.135 c 0,-6.482 5.274,-11.758 11.758,-11.757 6.484,0 11.758,5.275 11.757,11.757 0,6.484 -5.274,11.759 -11.757,11.759 -6.484,0 -11.758,-5.275 -11.758,-11.759 z m 32.451,13.254 -7.861,-7.08 c 0.904,-1.871 1.425,-3.96 1.425,-6.174 0,-7.861 -6.396,-14.258 -14.258,-14.257 -7.861,0 -14.258,6.396 -14.257,14.257 0,7.862 6.396,14.259 14.257,14.259 2.796,0 5.399,-0.821 7.603,-2.217 l 7.826,7.058 c 0.75,0.674 1.69,1.005 2.628,1.005 1.077,0 2.151,-0.438 2.927,-1.297 1.445,-1.61 1.316,-4.101 -0.29,-5.554 z m -59.951,-25.151 c 1.395,-0.309 2.629,-1.133 3.533,-2.229 l 6.977,4.984 c -0.328,0.744 -0.51,1.551 -0.51,2.385 0,2.904 2.223,5.495 5,6.11 v 17.64 h -15 z m -5,-6.11 c 0,-1.933 1.823,-3.761 3.75,-3.761 1.927,0 3.75,1.829 3.75,3.761 0,1.927 -1.823,3.75 -3.75,3.75 -1.927,0 -3.75,-1.823 -3.75,-3.75 z m 21.25,7.5 c 1.927,0 3.75,1.823 3.75,3.75 0,1.927 -1.823,3.75 -3.75,3.75 -1.927,0 -3.75,-1.823 -3.75,-3.75 0,-1.927 1.823,-3.75 3.75,-3.75 z m 17.5,-23.75 c 1.927,0 3.75,1.823 3.75,3.75 0,1.927 -1.823,3.75 -3.75,3.75 -1.927,0 -3.75,-1.823 -3.75,-3.75 0,-1.927 1.823,-3.75 3.75,-3.75 z m 18.75,-7.5 c 1.927,0 3.75,1.823 3.75,3.75 0,1.927 -1.823,3.75 -3.75,3.75 -1.927,0 -3.75,-1.823 -3.75,-3.75 0,-1.927 1.823,-3.75 3.75,-3.75 z m -35,41.11 c 2.776,-0.615 5,-3.206 5,-6.11 0,-1.251 -0.413,-2.445 -1.105,-3.446 l 10.649,-14.343 c 0.154,0.048 0.3,0.114 0.456,0.149 v 7.64 h 2.5 v -7.64 c 2.776,-0.615 5,-3.206 5,-6.11 0,-0.168 -0.04,-0.329 -0.054,-0.494 l 7.122,-4.07 c 0.887,1.57 2.41,2.781 4.182,3.174 v 18.89 h 2.5 v -18.89 c 2.776,-0.615 5,-3.206 5,-6.11 0,-2.904 -2.224,-5.494 -5,-6.11 v -2.64 h -2.5 v 2.64 c -2.777,0.616 -5,3.206 -5,6.11 0,0.168 0.039,0.329 0.054,0.495 l -7.123,4.069 c -0.887,-1.57 -2.409,-2.781 -4.181,-3.174 v -10.14 h -2.5 v 10.14 c -2.777,0.616 -5,3.206 -5,6.11 0,1.867 0.936,3.584 2.33,4.751 l -10.241,13.791 c -0.636,-0.42 -1.34,-0.736 -2.089,-0.902 v -33.89 h -2.5 v 33.89 c -1.155,0.256 -2.211,0.858 -3.055,1.679 l -7.219,-5.158 c 0.16,-0.536 0.274,-1.087 0.274,-1.661 0,-2.91 -2.224,-5.504 -5,-6.12 v -22.63 h -2.5 v 22.63 c -2.777,0.616 -5,3.21 -5,6.12 0,2.904 2.223,5.495 5,6.11 v 31.39 h 43.75 v -2.5 h -23.75 z"/></g></svg>