<svg xmlns="http://www.w3.org/2000/svg" viewBox="0 0 100 100"><defs/><defs><linearGradient id="a" x1="0" x2="1" y1="1" y2="0"><stop offset="0%" stop-color="#BD0816"/><stop offset="100%" stop-color="#FF5252"/></linearGradient></defs><g><path fill="url(#a)" fill-rule="evenodd" d="m 0,0 h 100 v 100 h -100 z"/><path fill="#fff" fill-rule="evenodd" d="m 58.75,53.518 c -0.026,2.268 -0.673,9.376 -7.5,10.154 v -27.377 l 7.5,3.195 z m -17.5,-0.061 v -13.967 l 7.5,-3.195 v 27.377 c -6.829,-0.784 -7.474,-7.944 -7.5,-10.215 z m 8.26,-20.203 -10,4.26 c -0.461,0.196 -0.76,0.649 -0.76,1.15 v 14.807 c 0.068,5.895 3.054,12.78 11.25,12.78 8.195,0 11.181,-6.844 11.25,-12.718 v -14.869 c 0,-0.501 -0.299,-0.954 -0.76,-1.15 l -10,-4.26 c -0.313,-0.133 -0.667,-0.133 -0.98,0 z m 14.24,20.277 c -10e-4,0.621 -0.196,15.22 -13.75,15.22 -13.554,0 -13.749,-14.644 -13.75,-15.267 v -17.297 l 13.75,-5.859 13.75,5.859 z m 1.74,-19.321 -15,-6.391 c -0.313,-0.134 -0.667,-0.134 -0.98,0 l -15,6.391 c -0.461,0.196 -0.76,0.649 -0.76,1.15 v 18.124 c 0,0.178 0.185,17.767 16.25,17.767 16.065,0 16.25,-17.542 16.25,-17.718 v -18.173 c 0,-0.501 -0.299,-0.954 -0.76,-1.15 z m 17.01,21.174 -4.279,-0.245 c -0.573,-0.034 -1.155,0.376 -1.29,0.974 -0.689,3.055 -1.887,5.95 -3.565,8.609 -0.325,0.518 -0.23,1.194 0.225,1.6 l 3.198,2.853 -7.615,7.614 -2.844,-3.188 c -0.409,-0.458 -1.085,-0.55 -1.6,-0.224 -2.654,1.678 -5.554,2.878 -8.618,3.57 -0.596,0.135 -1.008,0.681 -0.972,1.292 l 0.245,4.261 h -10.77 l 0.245,-4.265 c 0.035,-0.61 -0.376,-1.156 -0.973,-1.291 -3.054,-0.69 -5.951,-1.893 -8.612,-3.573 -0.516,-0.325 -1.194,-0.234 -1.601,0.225 l -2.848,3.193 -7.615,-7.614 3.193,-2.847 c 0.455,-0.408 0.55,-1.084 0.225,-1.6 -1.676,-2.656 -2.875,-5.555 -3.564,-8.614 -0.134,-0.598 -0.695,-1.004 -1.29,-0.975 l -4.275,0.245 v -10.768 l 4.285,0.243 c 0.576,0.02 1.154,-0.375 1.29,-0.971 0.691,-3.05 1.894,-5.943 3.57,-8.599 0.326,-0.516 0.231,-1.194 -0.224,-1.6 l -3.21,-2.862 7.615,-7.616 2.861,3.207 c 0.406,0.458 1.084,0.55 1.599,0.225 2.654,-1.673 5.546,-2.87 8.6,-3.559 0.597,-0.135 1.009,-0.681 0.974,-1.29 l -0.245,-4.294 h 10.77 l -0.245,4.296 c -0.035,0.61 0.376,1.155 0.973,1.29 3.051,0.691 5.944,1.89 8.595,3.563 0.512,0.325 1.192,0.231 1.598,-0.225 l 2.868,-3.213 7.615,7.616 -3.205,2.857 c -0.455,0.406 -0.55,1.084 -0.224,1.6 1.675,2.653 2.875,5.546 3.567,8.603 0.134,0.598 0.721,0.993 1.29,0.972 l 4.283,-0.243 z m 2.109,-13.001 c -0.25,-0.235 -0.591,-0.36 -0.93,-0.339 l -4.565,0.26 c -0.69,-2.614 -1.725,-5.111 -3.089,-7.447 l 3.416,-3.047 c 0.256,-0.229 0.408,-0.553 0.418,-0.896 0.01,-0.344 -0.124,-0.678 -0.367,-0.92 l -9.486,-9.486 c -0.242,-0.244 -0.591,-0.374 -0.919,-0.365 -0.345,0.01 -0.669,0.16 -0.897,0.416 l -3.058,3.425 c -2.334,-1.361 -4.828,-2.395 -7.437,-3.084 l 0.26,-4.58 c 0.02,-0.343 -0.103,-0.679 -0.339,-0.929 -0.236,-0.25 -0.564,-0.391 -0.909,-0.391 h -13.415 c -0.345,0 -0.673,0.141 -0.908,0.391 -0.236,0.25 -0.359,0.586 -0.339,0.929 l 0.26,4.576 c -2.611,0.688 -5.107,1.721 -7.444,3.082 l -3.051,-3.419 c -0.229,-0.256 -0.552,-0.406 -0.898,-0.416 -0.323,-0.006 -0.676,0.121 -0.918,0.365 l -9.487,9.486 c -0.242,0.243 -0.376,0.576 -0.366,0.92 0.01,0.344 0.161,0.668 0.418,0.896 l 3.421,3.053 c -1.365,2.338 -2.401,4.833 -3.09,7.441 l -4.569,-0.26 c -0.34,-0.022 -0.68,0.104 -0.93,0.339 -0.25,0.236 -0.391,0.565 -0.391,0.909 v 13.415 c 0,0.344 0.141,0.673 0.391,0.909 0.25,0.236 0.591,0.355 0.93,0.34 l 4.556,-0.26 c 0.688,2.618 1.721,5.119 3.087,7.459 l -3.405,3.035 c -0.256,0.229 -0.408,0.554 -0.418,0.897 -0.01,0.344 0.124,0.676 0.366,0.919 l 9.487,9.486 c 0.242,0.244 0.593,0.379 0.918,0.365 0.345,-0.01 0.67,-0.16 0.898,-0.417 l 3.037,-3.404 c 2.343,1.368 4.844,2.405 7.458,3.094 l -0.26,4.549 c -0.02,0.344 0.103,0.679 0.339,0.93 0.236,0.25 0.564,0.391 0.908,0.391 h 13.415 c 0.345,0 0.673,-0.141 0.909,-0.391 0.236,-0.251 0.359,-0.588 0.339,-0.93 l -0.26,-4.545 c 2.621,-0.69 5.124,-1.726 7.462,-3.092 l 3.033,3.398 c 0.227,0.258 0.552,0.408 0.897,0.417 0.331,0.016 0.676,-0.121 0.919,-0.365 l 9.486,-9.486 c 0.242,-0.243 0.376,-0.575 0.367,-0.919 -0.01,-0.344 -0.161,-0.669 -0.418,-0.897 l -3.41,-3.042 c 1.365,-2.34 2.4,-4.84 3.088,-7.452 l 4.56,0.26 c 0.338,0.014 0.68,-0.104 0.93,-0.34 0.25,-0.236 0.391,-0.565 0.391,-0.909 v -13.415 c 0,-0.344 -0.141,-0.673 -0.391,-0.909 z"/></g></svg>