<svg xmlns="http://www.w3.org/2000/svg" viewBox="0 0 100 100"><defs/><defs><linearGradient id="a" x1="0" x2="1" y1="1" y2="0"><stop offset="0%" stop-color="#055F4E"/><stop offset="100%" stop-color="#56C0A7"/></linearGradient></defs><g><path fill="url(#a)" fill-rule="evenodd" d="m 0,0 h 100 v 100 h -100 z"/><path fill="#fff" fill-rule="evenodd" d="m 64.664,62.5 c -4.108,0 -7.45,-3.364 -7.449,-7.5 0,-4.136 3.341,-7.5 7.449,-7.5 4.108,0 7.45,3.364 7.45,7.5 0,4.136 -3.341,7.5 -7.45,7.5 z m 0,-17.5 c -5.477,0 -9.933,4.486 -9.933,10 0,5.514 4.456,10 9.933,10 5.477,0 9.933,-4.486 9.933,-10 0,-5.514 -4.456,-10 -9.933,-10 z m 1.242,13.75 c 0,0.69 -0.555,1.25 -1.242,1.25 -0.687,0 -1.242,-0.56 -1.241,-1.25 0,-0.69 0.555,-1.25 1.241,-1.25 0.687,0 1.242,0.56 1.242,1.25 z m -2.483,-2.5 h 2.483 v -6.25 h -2.483 z m 13.92,-15.82 2.753,-4.641 2.132,1.281 -2.753,4.641 z m -17.391,-3.84 -1.622,-4.888 2.355,-0.792 1.623,4.888 z m 9.716,-0.644 1.241,-5 2.409,0.608 -1.241,5 z m 12.228,37.658 c -0.524,0.53 -1.31,0.875 -1.78,0.401 l -6.692,-6.898 c 0.776,-0.57 1.492,-1.212 2.144,-1.92 l 6.734,6.598 c 0.459,0.463 0.143,1.265 -0.406,1.819 z m -29.648,-18.604 c 0,-6.893 5.57,-12.5 12.416,-12.5 6.846,0 12.416,5.607 12.416,12.5 0,6.893 -5.57,12.5 -12.416,12.5 -6.846,0 -12.416,-5.607 -12.416,-12.5 z m -4.919,7.596 c -1.129,-1.565 -2.949,-2.596 -5.014,-2.596 -0.161,0 -0.313,0.035 -0.47,0.047 l -5.297,-9.997 4.981,-10.13 c 0.259,0.034 0.517,0.08 0.786,0.08 1.427,0 2.727,-0.506 3.777,-1.325 l 8.278,5.507 c -2.831,2.731 -4.605,6.567 -4.605,10.818 0,1.981 0.392,3.871 1.089,5.604 z m -5.014,7.404 c -2.054,0 -3.725,-1.683 -3.725,-3.75 0,-2.067 1.671,-3.75 3.725,-3.75 2.054,0 3.725,1.683 3.725,3.75 0,2.067 -1.671,3.75 -3.725,3.75 z m -16.643,4.425 c -0.238,-0.249 -0.502,-0.468 -0.776,-0.674 l 6.632,-13.49 5.068,3.559 c -0.314,0.746 -0.489,1.569 -0.489,2.43 0,0.795 0.163,1.549 0.432,2.247 z m -4.464,8.075 c -2.054,0 -3.725,-1.683 -3.725,-3.75 0,-2.067 1.671,-3.75 3.725,-3.75 2.054,0 3.725,1.683 3.725,3.75 0,2.067 -1.671,3.75 -3.725,3.75 z m 16.803,-20.736 -5.369,-3.769 2.551,-5.187 4.214,7.955 c -0.509,0.275 -0.985,0.6 -1.396,1.001 z m -11.704,-8.215 c 0.697,-1.01 1.109,-2.23 1.109,-3.549 0,-0.875 -0.181,-1.706 -0.505,-2.462 l 3.883,-3.035 2.96,5.591 -3.172,6.455 z m -5.099,0.201 c -2.054,0 -3.725,-1.683 -3.725,-3.75 0,-2.067 1.671,-3.75 3.725,-3.75 2.054,0 3.725,1.683 3.725,3.75 0,2.067 -1.671,3.75 -3.725,3.75 z m 2.972,-27.047 c 0.669,-0.371 1.258,-0.858 1.75,-1.443 l 10.401,6.921 c -0.132,0.504 -0.223,1.024 -0.224,1.569 0,1.039 0.278,2.005 0.725,2.868 l -5.233,4.09 z m -6.697,-5.453 c 0,-2.067 1.671,-3.75 3.725,-3.75 2.054,0 3.725,1.683 3.725,3.75 0,2.067 -1.671,3.75 -3.725,3.75 -2.054,0 -3.725,-1.683 -3.725,-3.75 z m 20.916,17.309 c 0.24,0.199 0.49,0.381 0.76,0.543 l -4.049,8.234 -2.325,-4.39 z m 3.916,-8.559 c 2.054,0 3.725,1.683 3.725,3.75 0,2.067 -1.671,3.75 -3.725,3.75 -2.054,0 -3.725,-1.683 -3.725,-3.75 0,-2.067 1.671,-3.75 3.725,-3.75 z m 41.731,40.005 -6.931,-6.79 c 1.543,-2.362 2.448,-5.183 2.448,-8.215 0,-8.271 -6.684,-15 -14.899,-15 -3.058,0 -5.903,0.935 -8.269,2.531 l -8.674,-5.77 c 0.495,-0.897 0.802,-1.914 0.802,-3.011 0,-3.446 -2.785,-6.25 -6.208,-6.25 -1.985,0 -3.735,0.96 -4.872,2.424 l -10.322,-6.868 c 0.174,-0.576 0.296,-1.174 0.295,-1.806 0,-3.446 -2.785,-6.25 -6.208,-6.25 -3.423,0 -6.208,2.804 -6.208,6.25 0,3.446 2.785,6.25 6.208,6.25 0.187,0 0.365,-0.039 0.548,-0.056 l 7.853,14.82 -4.127,3.225 c -1.114,-1.071 -2.615,-1.739 -4.274,-1.739 -3.423,0 -6.208,2.804 -6.208,6.25 0,3.446 2.785,6.25 6.208,6.25 1.196,0 2.303,-0.359 3.252,-0.95 l 5.007,3.515 -6.82,13.871 c -0.464,-0.111 -0.942,-0.186 -1.439,-0.186 -3.423,0 -6.208,2.804 -6.208,6.25 0,3.446 2.785,6.25 6.208,6.25 3.423,0 6.208,-2.804 6.208,-6.25 0,-0.779 -0.159,-1.516 -0.418,-2.204 l 10.884,-5.936 c 1.127,1.163 2.697,1.89 4.433,1.89 3.423,0 6.208,-2.804 6.208,-6.25 0,-0.471 -0.062,-0.927 -0.161,-1.37 l 3.62,-2.046 c 2.625,4.29 7.32,7.166 12.682,7.166 2.364,0 4.591,-0.573 6.579,-1.563 l 7.107,7.325 c 0.637,0.64 1.454,0.955 2.309,0.955 1.027,0 2.108,-0.455 2.993,-1.346 1.63,-1.643 1.807,-3.944 0.394,-5.366 z"/></g></svg>