<svg xmlns="http://www.w3.org/2000/svg" viewBox="0 0 100 100"><defs/><defs><linearGradient id="a" x1="0" x2="1" y1="1" y2="0"><stop offset="0%" stop-color="#055F4E"/><stop offset="100%" stop-color="#56C0A7"/></linearGradient></defs><g><path fill="url(#a)" fill-rule="evenodd" d="m 0,0 h 100 v 100 h -100 z"/><path fill="#fff" fill-rule="evenodd" d="m 74.381,83.125 c -2.406,0 -4.364,-1.958 -4.363,-4.364 0,-2.406 1.958,-4.364 4.363,-4.364 2.406,0 4.364,1.958 4.364,4.364 0,2.406 -1.958,4.364 -4.364,4.364 z m -37.038,0 c -2.406,0 -4.364,-1.958 -4.364,-4.364 0,-2.406 1.958,-4.364 4.364,-4.364 2.406,0 4.364,1.958 4.363,4.364 0,2.406 -1.958,4.364 -4.363,4.364 z m -11.383,-27.267 c 0.456,-0.341 0.872,-0.734 1.231,-1.177 l 8.969,4.827 v 12.498 c -0.456,0.08 -0.896,0.204 -1.317,0.369 z m -8.46,-5.495 c 0,-2.406 1.958,-4.364 4.363,-4.364 2.406,0 4.365,1.958 4.365,4.364 0,2.406 -1.959,4.364 -4.365,4.363 -2.405,0 -4.363,-1.958 -4.363,-4.363 z m 17.388,-22.097 c 0.406,0.156 0.831,0.275 1.272,0.353 v 12.481 l -9.035,4.864 c -0.344,-0.411 -0.737,-0.775 -1.165,-1.095 z m 2.455,-10.766 c 2.406,0 4.364,1.958 4.363,4.364 0,2.406 -1.958,4.364 -4.363,4.364 -2.406,0 -4.364,-1.958 -4.364,-4.364 0,-2.406 1.958,-4.364 4.364,-4.364 z m 14.206,15.319 -8.031,-7.976 c 0.254,-0.524 0.446,-1.081 0.561,-1.669 h 23.732 c 0.051,0.268 0.119,0.529 0.2,0.785 z m -12.889,6.936 v -11.157 c 1.282,-0.25 2.436,-0.862 3.356,-1.722 l 7.232,7.182 z m 10.583,26.793 -7.239,7.19 c -0.919,-0.853 -2.066,-1.461 -3.344,-1.71 v -11.175 z m 18.637,10.03 c -0.109,0.323 -0.193,0.654 -0.253,0.993 h -23.531 c -0.111,-0.636 -0.313,-1.241 -0.586,-1.805 l 8.034,-7.98 z m 6.666,-59.078 c 2.406,0 4.364,1.958 4.364,4.364 0,2.406 -1.958,4.364 -4.364,4.364 -2.406,0 -4.364,-1.958 -4.364,-4.364 0,-2.406 1.958,-4.364 4.364,-4.364 z m -0.165,54.398 c -2.126,0 -4.03,0.971 -5.289,2.495 l -15.694,-8.448 1.365,-1.355 -1.763,-1.774 -1.905,1.892 -12.435,-6.693 v -3.465 h -2.5 v 2.119 l -7.774,-4.183 c 0.1,-0.305 0.176,-0.62 0.233,-0.942 h 20.217 v -2.5 h -20.238 c -0.061,-0.31 -0.146,-0.609 -0.247,-0.903 l 7.809,-4.202 v 2.1 h 2.5 v -3.446 l 12.44,-6.695 1.9,1.886 1.763,-1.774 -1.36,-1.35 15.796,-8.502 c 1.259,1.565 3.186,2.57 5.347,2.57 3.785,0 6.864,-3.079 6.864,-6.864 0,-3.785 -3.079,-6.864 -6.864,-6.864 -3.379,0 -6.188,2.455 -6.753,5.674 h -23.698 c -0.565,-3.219 -3.374,-5.674 -6.752,-5.674 -3.785,0 -6.864,3.079 -6.864,6.864 0,2.02 0.882,3.834 2.275,5.09 l -9.038,16.806 c -0.591,-0.166 -1.21,-0.261 -1.853,-0.261 -3.784,0 -6.863,3.079 -6.863,6.864 0,3.785 3.079,6.864 6.863,6.863 0.644,0 1.264,-0.095 1.853,-0.261 l 9.003,16.739 c -1.374,1.256 -2.24,3.055 -2.24,5.057 0,3.785 3.079,6.864 6.864,6.864 3.337,0 6.122,-2.394 6.736,-5.554 h 23.566 c 0.615,3.16 3.399,5.554 6.736,5.554 3.785,0 6.864,-3.079 6.864,-6.864 0,-3.785 -3.079,-6.864 -6.864,-6.863 z m -5.606,-16.695 c -2.62,0 -4.751,-2.131 -4.751,-4.752 0,-2.62 2.131,-4.751 4.751,-4.751 2.619,0 4.75,2.131 4.75,4.751 0,2.62 -2.131,4.751 -4.75,4.752 z m 0,-12.003 c -3.999,0 -7.251,3.254 -7.251,7.251 0,3.999 3.252,7.251 7.251,7.252 3.998,0 7.25,-3.252 7.25,-7.252 0,-3.998 -3.252,-7.251 -7.25,-7.251 z m 14.352,9.253 h -2.097 c -0.566,0 -1.063,0.381 -1.208,0.93 -0.259,0.978 -0.653,1.923 -1.166,2.805 -0.286,0.49 -0.205,1.111 0.196,1.512 l 1.488,1.486 -2.831,2.829 -1.487,-1.485 c -0.401,-0.403 -1.025,-0.481 -1.511,-0.196 -0.885,0.514 -1.827,0.906 -2.806,1.165 -0.547,0.145 -0.93,0.641 -0.93,1.209 v 2.097 h -4.001 v -2.097 c 0,-0.568 -0.383,-1.064 -0.93,-1.209 -0.978,-0.259 -1.921,-0.651 -2.805,-1.165 -0.489,-0.285 -1.111,-0.206 -1.513,0.196 l -1.486,1.485 -2.83,-2.829 1.486,-1.486 c 0.401,-0.401 0.483,-1.022 0.196,-1.512 -0.514,-0.882 -0.906,-1.827 -1.165,-2.805 -0.145,-0.549 -0.643,-0.93 -1.208,-0.93 h -2.098 v -4.002 h 2.098 c 0.568,0 1.064,-0.381 1.208,-0.93 0.259,-0.978 0.651,-1.923 1.165,-2.806 0.286,-0.49 0.205,-1.111 -0.196,-1.512 l -1.485,-1.485 2.829,-2.83 1.486,1.485 c 0.401,0.403 1.024,0.483 1.513,0.197 0.882,-0.515 1.826,-0.906 2.805,-1.165 0.547,-0.145 0.93,-0.641 0.93,-1.209 v -2.098 h 4.001 v 2.098 c 0,0.568 0.383,1.064 0.93,1.209 0.98,0.259 1.923,0.65 2.806,1.165 0.486,0.285 1.11,0.205 1.511,-0.197 l 1.487,-1.485 2.83,2.83 -1.487,1.485 c -0.401,0.401 -0.483,1.022 -0.196,1.512 0.514,0.884 0.907,1.829 1.166,2.806 0.145,0.549 0.64,0.93 1.208,0.93 h 2.097 z m 0.602,-6.502 h -1.772 c -0.193,-0.559 -0.419,-1.105 -0.68,-1.636 l 1.254,-1.255 c 0.74,-0.741 0.74,-1.945 0,-2.686 l -3.679,-3.679 c -0.739,-0.739 -1.945,-0.741 -2.686,0 l -1.255,1.254 c -0.531,-0.261 -1.076,-0.488 -1.636,-0.679 v -1.772 c 0,-1.047 -0.851,-1.9 -1.9,-1.9 h -5.2 c -1.049,0 -1.901,0.853 -1.901,1.9 v 1.772 c -0.559,0.191 -1.105,0.418 -1.637,0.679 l -1.253,-1.254 c -0.739,-0.739 -1.946,-0.741 -2.688,0 l -3.677,3.679 c -0.741,0.741 -0.741,1.945 0,2.686 l 1.253,1.255 c -0.261,0.531 -0.489,1.077 -0.68,1.636 h -1.771 c -1.047,0 -1.9,0.851 -1.9,1.9 v 5.2 c 0,1.049 0.853,1.901 1.9,1.902 h 1.771 c 0.191,0.559 0.419,1.105 0.68,1.636 l -1.253,1.254 c -0.741,0.741 -0.741,1.946 0,2.687 l 3.677,3.678 c 0.716,0.715 1.968,0.717 2.688,0 l 1.252,-1.254 c 0.532,0.261 1.08,0.489 1.638,0.68 v 1.771 c 0,1.047 0.853,1.9 1.901,1.9 h 5.2 c 1.049,0 1.9,-0.853 1.9,-1.9 v -1.771 c 0.559,-0.191 1.105,-0.419 1.637,-0.68 l 1.254,1.254 c 0.719,0.719 1.97,0.716 2.686,0 l 3.679,-3.678 c 0.74,-0.741 0.74,-1.946 0,-2.687 l -1.254,-1.254 c 0.261,-0.531 0.488,-1.077 0.68,-1.636 h 1.772 c 1.046,0 1.899,-0.853 1.898,-1.902 v -5.2 c 0,-1.049 -0.853,-1.9 -1.898,-1.9 z"/></g></svg>