<svg xmlns="http://www.w3.org/2000/svg" viewBox="0 0 100 100"><defs/><defs><linearGradient id="a" x1="0" x2="1" y1="1" y2="0"><stop offset="0%" stop-color="#B0084D"/><stop offset="100%" stop-color="#FF4F8B"/></linearGradient></defs><g><path fill="url(#a)" fill-rule="evenodd" d="m 0,0 h 100 v 100 h -100 z"/><path fill="#fff" fill-rule="evenodd" d="m 79.657,37.936 c -0.484,0.186 -0.999,0.281 -1.532,0.282 -2.411,0 -4.375,-1.963 -4.375,-4.375 0,-1.534 0.785,-2.928 2.111,-3.734 0.684,-0.426 1.445,-0.641 2.264,-0.641 2.413,0 4.375,1.963 4.375,4.375 0,1.811 -1.137,3.454 -2.842,4.093 z m -1.532,-10.968 c -0.89,0 -1.761,0.182 -2.567,0.511 -0.699,-0.89 -1.427,-1.75 -2.2,-2.534 -6.182,-6.412 -14.504,-9.945 -23.428,-9.945 -8.873,0 -17.171,3.506 -23.369,9.87 l 1.793,1.745 c 5.721,-5.877 13.385,-9.115 21.576,-9.115 8.24,0 15.92,3.26 21.638,9.19 0.66,0.67 1.28,1.395 1.875,2.143 -1.385,1.284 -2.192,3.071 -2.193,5.01 0,3.791 3.085,6.875 6.875,6.875 0.843,0 1.663,-0.151 2.421,-0.445 2.665,-0.999 4.454,-3.583 4.454,-6.43 0,-3.791 -3.084,-6.875 -6.875,-6.875 z m -23.831,51.432 c -0.143,2.299 -2.06,4.1 -4.364,4.1 -2.304,0 -4.22,-1.801 -4.371,-4.184 -0.007,-0.063 -0.004,-0.13 -0.004,-0.191 0,-2.411 1.963,-4.375 4.375,-4.375 2.411,0 4.375,1.964 4.375,4.375 0,0.065 0.004,0.139 -0.011,0.275 z m 25.45,-34.953 c 0.198,1.326 0.296,2.726 0.296,4.163 0,13.055 -8.319,24.552 -20.715,28.616 -0.83,0.285 -1.719,0.517 -2.627,0.725 -0.56,-3.232 -3.379,-5.701 -6.768,-5.701 -3.79,0 -6.875,3.085 -6.875,6.875 0,0.165 0.004,0.35 0.016,0.43 0.225,3.614 3.237,6.445 6.859,6.445 3.306,0 6.081,-2.371 6.709,-5.481 1.216,-0.251 2.396,-0.549 3.482,-0.923 13.41,-4.395 22.419,-16.848 22.419,-30.986 0,-1.558 -0.109,-3.081 -0.322,-4.527 z m -57.869,-13.979 c 0.772,0 1.53,0.208 2.2,0.603 1.363,0.791 2.175,2.201 2.175,3.772 0,2.413 -1.963,4.375 -4.375,4.375 -0.578,0 -1.129,-0.105 -1.636,-0.315 -1.663,-0.679 -2.739,-2.272 -2.739,-4.06 0,-2.413 1.964,-4.375 4.375,-4.375 z m -2.054,18.142 c 0,-1.459 0.099,-2.874 0.296,-4.215 0.134,-0.954 0.328,-1.881 0.549,-2.792 0.394,0.07 0.796,0.115 1.209,0.115 3.791,0 6.875,-3.084 6.875,-6.875 0,-2.435 -1.31,-4.709 -3.41,-5.928 -1.046,-0.62 -2.245,-0.948 -3.465,-0.947 -3.79,0 -6.875,3.084 -6.875,6.875 0,2.438 1.272,4.641 3.313,5.877 -0.275,1.084 -0.511,2.191 -0.669,3.32 -0.214,1.452 -0.323,2.99 -0.323,4.57 0,14.139 9.009,26.591 22.418,30.986 l 0.779,-2.376 c -12.379,-4.058 -20.696,-15.555 -20.697,-28.61 z m 21.395,16.123 v -8.493 l 7.534,-4.267 v 8.492 z m -10.032,-12.76 7.532,4.267 v 8.492 l -7.532,-4.267 z m 8.782,-6.392 7.498,4.247 -7.498,4.246 -7.496,-4.246 z m 1.25,-10.658 7.534,4.267 v 8.492 l -7.534,-4.267 z m 8.784,-6.392 7.498,4.247 -7.498,4.246 -7.498,-4.246 z m 8.785,14.884 -7.535,4.268 v -8.493 l 7.535,-4.267 z m 8.746,6.412 -7.496,4.247 -7.498,-4.247 7.498,-4.246 z m 1.286,10.638 -7.532,4.267 v -8.492 l 7.532,-4.268 z m -10.032,4.267 -7.535,-4.267 v -8.493 l 7.535,4.268 z m 0.634,3.233 c 0.191,0.109 0.404,0.163 0.616,0.162 0.213,0 0.425,-0.054 0.616,-0.162 l 10.033,-5.684 c 0.393,-0.221 0.634,-0.636 0.633,-1.087 v -11.367 c 0,-0.45 -0.241,-0.865 -0.633,-1.087 l -9.399,-5.325 v -10.637 c 0,-0.45 -0.242,-0.865 -0.634,-1.088 l -10.034,-5.684 c -0.384,-0.216 -0.85,-0.216 -1.233,0 l -10.034,5.684 c -0.393,0.222 -0.634,0.637 -0.634,1.088 v 10.637 l -9.399,5.325 c -0.393,0.222 -0.634,0.637 -0.633,1.087 v 11.367 c 0,0.451 0.241,0.866 0.633,1.087 l 10.033,5.684 c 0.384,0.216 0.85,0.216 1.232,0 l 9.418,-5.334 z"/></g></svg>