<svg xmlns="http://www.w3.org/2000/svg" viewBox="0 0 100 100"><defs/><defs><linearGradient id="a" x1="0" x2="1" y1="1" y2="0"><stop offset="0%" stop-color="#055F4E"/><stop offset="100%" stop-color="#56C0A7"/></linearGradient></defs><g><path fill="url(#a)" fill-rule="evenodd" d="m 0,0 h 100 v 100 h -100 z"/><path fill="#fff" fill-rule="evenodd" d="m 33.297,26.906 -4.798,-4.796 -1.768,1.768 4.798,4.796 z m 39.972,-3.028 -1.769,-1.768 -4.797,4.796 1.768,1.768 z m -20.432,10.485 -2.476,-0.354 -3.198,22.384 2.475,0.353 z m 9.354,11.765 c 0.334,-0.445 0.334,-1.056 0,-1.5 l -4.796,-6.395 -1.999,1.5 4.232,5.645 -4.232,5.645 1.999,1.5 z m -17.587,4.895 -4.234,-5.645 4.234,-5.645 -2,-1.5 -4.796,6.395 c -0.333,0.444 -0.333,1.055 0,1.5 l 4.796,6.395 z m -2.195,27.727 h 15.182 l -2.644,3.75 h -9.895 z m 14.208,5.72 4.405,-6.25 c 0.269,-0.381 0.303,-0.881 0.088,-1.296 -0.215,-0.414 -0.644,-0.674 -1.11,-0.674 h -20.001 c -0.466,0 -0.895,0.26 -1.109,0.674 -0.215,0.415 -0.181,0.915 0.088,1.296 l 4.404,6.25 c 0.235,0.331 0.616,0.53 1.022,0.53 h 11.192 c 0.406,0 0.788,-0.199 1.021,-0.53 z m -16.559,-23.53 c 0,-0.403 -0.193,-0.78 -0.519,-1.015 -4.426,-3.189 -7.069,-8.779 -7.069,-14.955 0,-9.829 7.7,-17.529 17.529,-17.529 9.83,0 17.53,7.7 17.531,17.529 0,6.176 -2.644,11.766 -7.07,14.955 -0.325,0.235 -0.519,0.613 -0.519,1.015 v 8.769 h -19.883 z m 22.383,10.019 v -9.394 c 4.764,-3.709 7.589,-9.86 7.589,-16.595 0,-11.231 -8.798,-20.029 -20.031,-20.029 -11.231,0 -20.029,8.797 -20.029,20.029 0,6.735 2.825,12.886 7.588,16.595 v 9.394 c 0,0.69 0.559,1.25 1.25,1.25 h 22.383 c 0.691,0 1.25,-0.56 1.25,-1.25 z m 11.543,-24.709 h 7.266 v -2.5 h -7.266 z m -55.234,0 h 7.266 v -2.5 h -7.266 z m 29.999,-23.75 h 2.5 v -7.5 h -2.5 z"/></g></svg>