<svg xmlns="http://www.w3.org/2000/svg" viewBox="0 0 100 100"><defs/><defs><linearGradient id="a" x1="0" x2="1" y1="1" y2="0"><stop offset="0%" stop-color="#B0084D"/><stop offset="100%" stop-color="#FF4F8B"/></linearGradient></defs><g><path fill="url(#a)" fill-rule="evenodd" d="m 0,0 h 100 v 100 h -100 z"/><path fill="#fff" fill-rule="evenodd" d="m 81.038,55 h -26.161 l 2.345,-8.75 h 26.161 z m 4.966,-10.761 c -0.236,-0.307 -0.604,-0.489 -0.991,-0.489 h -28.75 c -0.565,0 -1.061,0.38 -1.208,0.926 l -3.015,11.25 c -0.101,0.376 -0.021,0.776 0.217,1.085 0.235,0.307 0.603,0.489 0.991,0.489 h 28.75 c 0.565,0 1.06,-0.38 1.206,-0.926 l 3.016,-11.25 c 0.101,-0.376 0.02,-0.776 -0.216,-1.085 z m -31.874,33.886 c 0,2.413 -1.964,4.375 -4.375,4.375 -2.413,0 -4.375,-1.963 -4.375,-4.375 0,-2.413 1.963,-4.375 4.375,-4.375 2.411,0 4.375,1.963 4.375,4.375 z m -36.161,-24.375 h 22.413 l -1.342,5 h -22.411 z m 0,-12.5 h 22.413 l -1.342,5 h -22.411 z m 27.411,-19.375 c 0,-2.413 1.963,-4.375 4.375,-4.375 2.411,0 4.375,1.963 4.375,4.375 0,2.413 -1.964,4.375 -4.375,4.375 -2.413,0 -4.375,-1.963 -4.375,-4.375 z m 24.375,44.375 h -40 v -5 h 10.245 c 0.565,0 1.061,-0.38 1.208,-0.926 l 2.009,-7.5 c 0.101,-0.376 0.021,-0.776 -0.217,-1.085 -0.235,-0.307 -0.603,-0.489 -0.991,-0.489 h -12.254 v -2.5 h 10.245 c 0.565,0 1.061,-0.38 1.208,-0.926 l 2.009,-7.5 c 0.101,-0.376 0.021,-0.776 -0.217,-1.085 -0.235,-0.307 -0.603,-0.489 -0.991,-0.489 h -12.254 v -3.75 h 40 v 5 h 2.5 v -6.25 c 0,-0.69 -0.56,-1.25 -1.25,-1.25 h -20 v -3.87 c 3.194,-0.59 5.625,-3.391 5.625,-6.755 0,-3.791 -3.085,-6.875 -6.875,-6.875 -3.791,0 -6.875,3.084 -6.875,6.875 0,3.364 2.43,6.165 5.625,6.755 v 3.87 h -20 c -0.691,0 -1.25,0.56 -1.25,1.25 v 5 h -10.246 c -0.565,0 -1.06,0.38 -1.206,0.926 l -2.01,7.5 c -0.101,0.376 -0.021,0.776 0.216,1.085 0.235,0.307 0.603,0.489 0.991,0.489 h 12.255 v 2.5 h -10.246 c -0.565,0 -1.06,0.38 -1.206,0.926 l -2.01,7.5 c -0.101,0.376 -0.021,0.776 0.216,1.085 0.235,0.307 0.603,0.489 0.991,0.489 h 12.255 v 6.25 c 0,0.69 0.559,1.25 1.25,1.25 h 20 v 2.62 c -3.195,0.59 -5.625,3.391 -5.625,6.755 0,3.791 3.084,6.875 6.875,6.875 3.79,0 6.875,-3.084 6.875,-6.875 0,-3.364 -2.431,-6.165 -5.625,-6.755 v -2.62 h 20 c 0.69,0 1.25,-0.56 1.25,-1.25 v -6.216 h -2.5 z"/></g></svg>