<svg xmlns="http://www.w3.org/2000/svg" viewBox="0 0 100 100"><defs/><defs><linearGradient id="a" x1="0" x2="1" y1="1" y2="0"><stop offset="0%" stop-color="#C8511B"/><stop offset="100%" stop-color="#F90"/></linearGradient></defs><g><path fill="url(#a)" fill-rule="evenodd" d="m 0,0 h 100 v 100 h -100 z"/><path fill="#fff" fill-rule="evenodd" d="m 40.739,40.931 -9.886,9.888 9.886,9.886 1.767,-1.767 -8.118,-8.119 8.118,-8.12 z m -23.239,39.069 h 32.5 v -60 h -32.5 z m -2.5,2.5 h 37.5 v -65 h -37.5 z m 6.548,-32.5 c 0,14.229 11.575,25.804 25.803,25.804 v -2.5 c -12.849,0 -23.304,-10.454 -23.303,-23.304 0,-12.85 10.455,-23.304 23.303,-23.304 v -2.5 c -14.229,0 -25.804,11.575 -25.803,25.804 z m 33.086,12.999 v 2.5 c 8.546,0 15.5,-6.953 15.5,-15.499 0,-8.546 -6.954,-15.5 -15.5,-15.5 v 2.5 c 7.169,0 13,5.833 13,13 0,7.168 -5.831,12.999 -13,12.999 z m 31.616,-18.183 v 10.368 c 0,1.404 -1.143,2.545 -2.546,2.545 h -4.434 c -0.498,1.636 -1.157,3.225 -1.969,4.742 l 3.139,3.139 c 0.481,0.48 0.745,1.12 0.745,1.8 0,0.68 -0.264,1.32 -0.745,1.801 l -7.331,7.33 c -0.961,0.961 -2.639,0.963 -3.6,-10e-4 l -3.139,-3.137 c -1.516,0.81 -3.105,1.47 -4.741,1.968 v 4.434 c 0,1.404 -1.143,2.546 -2.546,2.546 h -5.184 v -2.5 h 5.184 l 0.046,-6.386 0.93,-0.246 c 2.06,-0.545 4.043,-1.369 5.899,-2.449 l 0.831,-0.484 4.489,4.488 7.395,-7.332 -4.488,-4.552 0.485,-0.831 c 1.081,-1.857 1.905,-3.842 2.449,-5.899 l 0.246,-0.931 h 6.339 l 0.046,-10.413 -6.385,-0.046 -0.246,-0.93 c -0.544,-2.056 -1.368,-4.041 -2.449,-5.899 l -0.485,-0.832 4.488,-4.487 -7.332,-7.396 -4.552,4.488 -0.831,-0.484 c -1.856,-1.08 -3.839,-1.904 -5.899,-2.449 l -0.93,-0.247 v -6.339 l -5.124,-0.046 v -2.5 h 5.078 c 1.404,0 2.546,1.143 2.546,2.546 v 4.434 c 1.636,0.499 3.225,1.159 4.741,1.968 l 3.14,-3.138 c 0.959,-0.963 2.637,-0.961 3.599,-0.002 l 7.331,7.333 c 0.481,0.48 0.745,1.12 0.745,1.8 0,0.68 -0.264,1.319 -0.745,1.8 l -3.139,3.139 c 0.811,1.518 1.471,3.106 1.969,4.741 h 4.434 c 1.404,0 2.546,1.143 2.546,2.546 z"/></g></svg>