<svg xmlns="http://www.w3.org/2000/svg" viewBox="0 0 100 100"><defs/><defs><linearGradient id="a" x1="0" x2="1" y1="1" y2="0"><stop offset="0%" stop-color="#1B660F"/><stop offset="100%" stop-color="#6CAE3E"/></linearGradient></defs><g><path fill="url(#a)" fill-rule="evenodd" d="m 0,0 h 100 v 100 h -100 z"/><path fill="#fff" fill-rule="evenodd" d="m 66.25,65 h 16.251 v -1.25 h -16.251 z m 1.25,-3.75 h 13.75 v -8.75 h -13.75 z m 17.5,1.25 v 2.5 c 0,1.379 -1.121,2.5 -2.5,2.5 h -16.25 c -1.379,0 -2.5,-1.121 -2.5,-2.5 v -2.5 c 0,-0.69 0.559,-1.25 1.25,-1.25 v -10 c 0,-0.69 0.559,-1.25 1.25,-1.25 h 16.25 c 0.691,0 1.25,0.56 1.25,1.25 v 10 c 0.691,0 1.25,0.56 1.25,1.25 z m -16.984,-24.156 h -3.086 l -5.905,8.742 -1.581,2.27 5.056,7.511 v -4.836 l -1.955,-2.886 z m -18.85,22.906 h 3.13 l 5.222,-7.907 -1.412,-2.065 z m 8.548,-16.104 -4.596,-6.802 h -3.257 l 6.208,9.075 z m -14.18,1.787 -4.159,-1.653 c -1.375,-0.539 -2.43,-1.041 -3.169,-1.512 -0.739,-0.47 -1.27,-0.994 -1.595,-1.573 -0.323,-0.578 -0.485,-1.336 -0.485,-2.277 0,-1.666 0.531,-2.949 1.594,-3.85 1.063,-0.9 2.591,-1.35 4.588,-1.35 2.047,0 4.393,0.484 7.036,1.451 v -2.056 c -1.115,-0.51 -2.3,-0.907 -3.558,-1.189 -1.258,-0.283 -2.456,-0.424 -3.596,-0.424 -2.512,0 -4.541,0.693 -6.084,2.076 -1.541,1.385 -2.311,3.191 -2.311,5.423 0,1.64 0.466,3.016 1.399,4.131 0.932,1.116 2.397,2.076 4.392,2.883 l 4.51,1.815 c 1.554,0.617 2.681,1.316 3.382,2.095 0.699,0.78 1.05,1.721 1.05,2.822 0,1.801 -0.641,3.225 -1.924,4.274 -1.284,1.047 -3.001,1.571 -5.152,1.571 -2.281,0 -4.782,-0.51 -7.502,-1.531 v 2.056 c 2.254,1.129 4.82,1.693 7.696,1.693 2.774,0 5.009,-0.739 6.707,-2.218 1.696,-1.478 2.546,-3.413 2.546,-5.805 0,-1.639 -0.429,-3.004 -1.283,-4.091 -0.856,-1.089 -2.216,-2.009 -4.082,-2.761 z m -28.534,-13.748 h 15.123 v 2.136 h -12.829 v 10.684 h 10.846 v 2.136 h -10.846 v 12.982 h -2.294 z"/></g></svg>