<svg xmlns="http://www.w3.org/2000/svg" viewBox="0 0 100 100"><defs/><defs><linearGradient id="a" x1="0" x2="1" y1="1" y2="0"><stop offset="0%" stop-color="#4D27A8"/><stop offset="100%" stop-color="#A166FF"/></linearGradient></defs><g><path fill="url(#a)" fill-rule="evenodd" d="m 0,0 h 100 v 100 h -100 z"/><path fill="#fff" fill-rule="evenodd" d="m 52.181,51.444 c 1.21,1.367 2.819,3.465 2.819,5.896 0,4.876 -3.926,8.843 -8.75,8.843 h -10 c -4.824,0 -8.75,-3.967 -8.75,-8.843 0,-4.875 3.926,-8.843 8.75,-8.843 h 5 v 2.526 h -5 c -3.446,0 -6.25,2.835 -6.25,6.317 0,3.483 2.804,6.317 6.25,6.317 h 10 c 3.446,0 6.25,-2.834 6.25,-6.317 0,-1.565 -1.245,-3.153 -2.181,-4.211 z m 17.819,3.369 c 0,4.876 -3.926,8.843 -8.75,8.844 h -5 v -2.527 h 5 c 3.446,0 6.25,-2.834 6.25,-6.317 0,-3.482 -2.804,-6.317 -6.25,-6.316 h -10 c -3.446,0 -6.25,2.835 -6.25,6.316 0,1.124 0.579,2.278 1.081,3.159 l -2.162,1.264 c -0.661,-1.152 -1.419,-2.697 -1.419,-4.423 0,-4.875 3.926,-8.843 8.75,-8.843 h 10 c 4.824,0 8.75,3.968 8.75,8.843 z m 1.6,15.16 h -43.199 c -5.888,-0.005 -10.566,-4.241 -10.88,-9.849 -0.013,-0.256 -0.021,-0.519 -0.021,-0.787 0,-7.222 5.14,-9.632 8.256,-10.427 0.584,-0.111 1.019,-0.629 1.019,-1.243 0,-0.064 -0.005,-0.126 -0.014,-0.19 -0.075,-0.629 -0.114,-1.266 -0.113,-1.892 0,-5.802 4.112,-12.05 9.362,-14.223 6.326,-2.614 13.024,-1.313 17.921,3.488 1.909,1.87 3.397,4.257 4.425,7.099 0.158,0.435 0.535,0.747 0.987,0.816 0.451,0.069 0.904,-0.116 1.182,-0.481 1.535,-2.033 4.02,-2.887 6.341,-2.17 2.699,0.833 4.447,3.606 4.673,7.416 0.035,0.572 0.445,1.05 1.001,1.164 4.544,0.925 9.96,3.54 9.96,10.744 0,9.167 -6.829,10.535 -10.9,10.535 z m 2.349,-23.552 c -0.53,-4.419 -2.86,-7.646 -6.353,-8.723 -2.677,-0.825 -5.497,-0.211 -7.633,1.557 -1.099,-2.415 -2.537,-4.501 -4.29,-6.219 -5.633,-5.521 -13.336,-7.02 -20.609,-4.011 -6.224,2.575 -10.916,9.694 -10.916,16.56 0,0.383 0.013,0.768 0.037,1.153 -3.401,1.1 -9.185,4.206 -9.185,12.599 0,0.313 0.009,0.62 0.025,0.926 0.391,6.969 6.141,12.23 13.375,12.237 h 43.2 c 3.144,0 13.4,-0.941 13.4,-13.062 0,-6.675 -3.915,-11.269 -11.051,-13.017 z"/></g></svg>