<svg xmlns="http://www.w3.org/2000/svg" viewBox="0 0 100 100"><defs/><defs><linearGradient id="a" x1="0" x2="1" y1="1" y2="0"><stop offset="0%" stop-color="#4D27A8"/><stop offset="100%" stop-color="#A166FF"/></linearGradient></defs><g><path fill="url(#a)" fill-rule="evenodd" d="m 0,0 h 100 v 100 h -100 z"/><path fill="#fff" fill-rule="evenodd" d="m 80.389,59.61 c -0.989,-0.99 -2.287,-1.484 -3.586,-1.484 -1.299,0 -2.597,0.494 -3.585,1.484 -0.958,0.959 -1.487,2.234 -1.487,3.59 0,1.355 0.529,2.631 1.487,3.589 1.978,1.979 5.193,1.979 7.171,0 1.977,-1.98 1.977,-5.2 0,-7.179 z m -10.661,0.903 c 0.363,-0.96 0.919,-1.842 1.654,-2.599 l -2.691,-5.129 -3.352,6.34 z m -8.002,0.094 -14.748,-4.664 c -0.79,2.02 -1.993,3.914 -3.621,5.543 -0.205,0.204 -0.425,0.384 -0.637,0.576 l 6.503,9.034 c 1.229,-0.816 2.667,-1.254 4.174,-1.254 1.085,0 2.132,0.234 3.094,0.666 z m -3.258,16.813 c 0,-1.355 -0.528,-2.631 -1.486,-3.589 -0.958,-0.957 -2.232,-1.486 -3.585,-1.486 -1.354,0 -2.627,0.528 -3.585,1.486 -0.958,0.959 -1.487,2.234 -1.486,3.589 0,1.355 0.529,2.631 1.486,3.59 0.958,0.959 2.23,1.487 3.585,1.487 1.354,0 2.628,-0.528 3.585,-1.487 0.958,-0.959 1.485,-2.234 1.486,-3.59 z m -16.879,-17.705 c 5.362,-5.368 5.362,-14.102 0,-19.469 -2.682,-2.683 -6.204,-4.025 -9.725,-4.025 -3.522,0 -7.043,1.34 -9.724,4.025 -5.362,5.368 -5.362,14.102 0,19.469 5.362,5.368 14.088,5.368 19.449,0 z m 1.111,-21.833 c 0.219,0.197 0.446,0.383 0.657,0.594 1.562,1.563 2.733,3.369 3.526,5.297 l 14.691,-4.542 -5.104,-9.728 c -0.955,0.427 -1.997,0.656 -3.073,0.656 -1.515,0 -2.962,-0.442 -4.192,-1.266 z m 5.626,-15.301 c 0,1.355 0.529,2.63 1.486,3.588 0.958,0.959 2.23,1.487 3.585,1.487 1.354,0 2.628,-0.528 3.585,-1.487 0.958,-0.959 1.485,-2.233 1.486,-3.588 0,-1.357 -0.528,-2.631 -1.486,-3.591 -0.958,-0.959 -2.232,-1.487 -3.585,-1.487 -1.354,0 -2.627,0.528 -3.585,1.487 -0.958,0.96 -1.487,2.234 -1.486,3.591 z m -0.625,30.965 15.214,4.811 4.367,-8.256 -4.524,-8.616 -15.119,4.673 c 0.583,2.427 0.605,4.954 0.062,7.388 z m 17.489,-12.813 3.508,6.686 3.291,-6.225 c -0.178,-0.149 -0.371,-0.273 -0.539,-0.44 -0.478,-0.478 -0.878,-1.013 -1.205,-1.583 z m 6.541,-5.34 c 0,1.357 0.529,2.631 1.487,3.591 1.978,1.979 5.193,1.979 7.171,0 1.977,-1.98 1.977,-5.2 0,-7.179 -0.989,-0.99 -2.287,-1.484 -3.586,-1.484 -1.299,0 -2.597,0.494 -3.585,1.484 -0.958,0.959 -1.487,2.233 -1.487,3.588 z m 10.426,22.448 c 2.951,2.955 2.951,7.764 0,10.718 -1.477,1.478 -3.414,2.217 -5.354,2.217 -1.939,0 -3.878,-0.738 -5.353,-2.217 -1.43,-1.432 -2.219,-3.335 -2.219,-5.359 0,-0.073 0.009,-0.144 0.011,-0.217 l -5.092,-1.609 -5.569,10.533 c 0.055,0.053 0.114,0.1 0.169,0.154 1.43,1.432 2.218,3.335 2.218,5.359 0,2.025 -0.788,3.929 -2.218,5.36 -1.429,1.432 -3.332,2.22 -5.353,2.22 -2.022,0 -3.923,-0.788 -5.353,-2.22 -1.432,-1.431 -2.219,-3.334 -2.219,-5.36 0,-1.685 0.554,-3.28 1.562,-4.595 l -6.639,-9.221 c -2.688,1.757 -5.785,2.64 -8.884,2.64 -4.162,0 -8.324,-1.586 -11.492,-4.758 -6.336,-6.344 -6.336,-16.666 0,-23.01 5.52,-5.527 14.056,-6.234 20.354,-2.131 l 6.647,-9.187 c -0.999,-1.312 -1.548,-2.901 -1.548,-4.577 0,-2.025 0.789,-3.929 2.219,-5.361 1.429,-1.432 3.331,-2.22 5.353,-2.22 2.022,0 3.924,0.788 5.353,2.22 1.43,1.432 2.218,3.335 2.218,5.361 0,2.024 -0.788,3.927 -2.218,5.358 -0.059,0.06 -0.125,0.113 -0.186,0.171 l 5.442,10.369 5.362,-1.658 c -0.09,-0.466 -0.138,-0.942 -0.137,-1.428 0,-2.024 0.789,-3.927 2.219,-5.358 2.952,-2.956 7.755,-2.956 10.707,0 2.951,2.954 2.951,7.762 0,10.719 -1.477,1.477 -3.414,2.217 -5.354,2.216 -0.904,0 -1.804,-0.178 -2.66,-0.498 l -4.036,7.633 3.331,6.344 c 2.834,-1.412 6.36,-0.969 8.719,1.392 z m -49.043,-9.112 h 6.251 v 2.503 h -6.251 v 6.258 h -2.5 v -6.258 h -6.251 v -2.503 h 6.251 v -6.258 h 2.5 z"/></g></svg>