<svg xmlns="http://www.w3.org/2000/svg" viewBox="0 0 100 100"><defs/><defs><linearGradient id="a" x1="0" x2="1" y1="1" y2="0"><stop offset="0%" stop-color="#C8511B"/><stop offset="100%" stop-color="#F90"/></linearGradient></defs><g><path fill="url(#a)" fill-rule="evenodd" d="m 0,0 h 100 v 100 h -100 z"/><path fill="#fff" fill-rule="evenodd" d="m 50,75.483 c -1.99,0 -3.933,-0.205 -5.808,-0.595 l 5.18,-21.377 2.477,10.673 c 0,0.001 -0.003,0.004 -0.005,0.005 l 0.011,0.016 2.539,10.939 c -1.434,0.223 -2.9,0.339 -4.394,0.339 z m -18.166,-26.611 h 7.554 c 0.3,6.163 1.923,11.674 4.436,15.065 -6.518,-2.258 -11.204,-8.112 -11.99,-15.065 z m 11.996,-19.201 c -1.268,1.709 -2.32,3.977 -3.091,6.628 -1.64,-0.386 -3.162,-0.877 -4.524,-1.472 2.036,-2.326 4.647,-4.12 7.615,-5.156 z m 19.258,5.056 c -1.335,0.601 -2.844,1.094 -4.458,1.492 -0.77,-2.616 -1.813,-4.858 -3.069,-6.548 2.925,1.021 5.504,2.778 7.527,5.056 z m -7.539,29.225 c 2.494,-3.374 4.15,-8.893 4.455,-15.08 h 7.552 c -0.802,6.92 -5.541,12.822 -12.007,15.08 z m 1.951,-15.08 c -0.281,5.329 -1.626,10.135 -3.599,13.09 l -3.037,-13.09 z m 2.55,-2.52 c -0.027,-2.739 -0.304,-5.338 -0.799,-7.697 1.983,-0.49 3.809,-1.129 5.412,-1.904 1.831,2.762 2.917,6.057 3.003,9.601 z m -10.354,-17.69 c 2.444,0 4.991,3.028 6.503,8.066 -2.112,0.359 -4.363,0.554 -6.673,0.555 -2.191,0 -4.334,-0.17 -6.351,-0.494 1.51,-5.076 4.067,-8.127 6.521,-8.127 z m -7.135,10.573 c 2.218,0.37 4.566,0.568 6.965,0.568 2.517,0 4.976,-0.224 7.292,-0.63 0.444,2.14 0.706,4.553 0.733,7.179 h -15.71 c 0.027,-2.601 0.284,-4.992 0.72,-7.117 z m -10.835,7.117 c 0.084,-3.488 1.143,-6.734 2.924,-9.47 1.626,0.76 3.476,1.381 5.474,1.855 -0.484,2.337 -0.754,4.905 -0.781,7.615 z m 13.234,14.745 c -1.7,-3.008 -2.816,-7.418 -3.069,-12.225 h 6.033 z m 36.29,-14.596 c 0,-3.82 -0.671,-7.555 -1.996,-11.101 l -2.339,0.889 c 1.218,3.26 1.835,6.696 1.835,10.212 0,13.602 -9.348,25.041 -21.905,28.145 l -1.835,-7.907 c 8.794,-2.392 15.179,-10.577 15.179,-19.939 0,-11.391 -9.193,-20.659 -20.493,-20.659 -11.3,0 -20.494,9.268 -20.493,20.659 0,9.163 5.949,17.091 14.442,19.726 l -1.877,7.741 c -11.852,-3.579 -20.518,-14.668 -20.518,-27.766 0,-15.98 12.896,-28.981 28.75,-28.981 6.953,0 13.506,2.467 18.711,6.983 h -5.853 v 2.52 h 9.821 v -9.899 h -2.5 v 5.327 c -5.631,-4.822 -12.692,-7.451 -20.179,-7.451 -17.231,0 -31.25,14.132 -31.25,31.501 0,14.28 9.479,26.364 22.424,30.214 l -1.863,7.686 2.43,0.599 1.858,-7.664 c 2.066,0.435 4.208,0.667 6.401,0.667 1.69,0 3.346,-0.14 4.964,-0.402 l 1.714,7.386 2.433,-0.573 -1.696,-7.315 c 13.661,-3.364 23.835,-15.802 23.835,-30.598 z"/></g></svg>