<svg xmlns="http://www.w3.org/2000/svg" viewBox="0 0 100 100"><defs/><defs><linearGradient id="a" x1="0" x2="1" y1="1" y2="0"><stop offset="0%" stop-color="#4D27A8"/><stop offset="100%" stop-color="#A166FF"/></linearGradient></defs><g><path fill="url(#a)" fill-rule="evenodd" d="m 0,0 h 100 v 100 h -100 z"/><path fill="#fff" fill-rule="evenodd" d="m 50.879,21.101 c -0.537,0.537 -1.411,0.537 -1.949,0 -0.26,-0.26 -0.404,-0.606 -0.404,-0.975 0,-0.367 0.144,-0.714 0.404,-0.975 0.269,-0.268 0.621,-0.403 0.975,-0.403 0.352,0 0.705,0.135 0.974,0.403 v 0.001 c 0.26,0.26 0.404,0.606 0.404,0.974 0,0.369 -0.144,0.715 -0.404,0.975 z m 2.904,-0.975 c 0,-1.036 -0.404,-2.01 -1.137,-2.743 v 0 c -1.511,-1.511 -3.973,-1.511 -5.483,0 -0.732,0.732 -1.136,1.706 -1.137,2.743 0,0.161 0.027,0.318 0.047,0.475 l -6.547,3.6 1.207,2.19 6.422,-3.533 c 0.003,0.004 0.005,0.007 0.008,0.01 0.756,0.756 1.75,1.134 2.742,1.134 0.993,0 1.986,-0.378 2.741,-1.132 0.011,-0.011 0.019,-0.025 0.029,-0.037 l 7.915,4.369 1.208,-2.189 -8.058,-4.447 c 0.016,-0.146 0.043,-0.29 0.043,-0.44 z m 21.872,47.415 c -0.52,0.52 -1.427,0.52 -1.947,-10e-4 -0.26,-0.26 -0.405,-0.605 -0.405,-0.973 0,-0.369 0.145,-0.715 0.405,-0.975 0.26,-0.26 0.605,-0.404 0.973,-0.404 0.369,0 0.714,0.144 0.974,0.404 v 0 c 0.26,0.26 0.405,0.606 0.405,0.974 0,0.369 -0.145,0.714 -0.405,0.975 z m 1.768,-3.718 c -0.356,-0.356 -0.78,-0.623 -1.234,-0.805 v -4.242 h -2.5 v 4.087 c -0.649,0.163 -1.262,0.473 -1.749,0.96 -0.732,0.732 -1.137,1.706 -1.137,2.744 0,0.469 0.094,0.92 0.252,1.348 l -7.727,3.885 1.122,2.233 8.25,-4.147 c 0.595,0.356 1.27,0.559 1.981,0.559 1.036,0 2.01,-0.404 2.742,-1.137 0.732,-0.732 1.137,-1.706 1.137,-2.742 0,-1.036 -0.405,-2.009 -1.137,-2.741 z m -53.269,3.82 c -0.26,-0.26 -0.404,-0.605 -0.404,-0.973 0,-0.369 0.144,-0.714 0.404,-0.975 0.26,-0.26 0.605,-0.403 0.973,-0.403 0.369,0 0.715,0.143 0.975,0.403 v 0.001 c 0.26,0.26 0.404,0.605 0.404,0.974 0,0.369 -0.144,0.714 -0.404,0.973 -0.52,0.52 -1.429,0.521 -1.948,0 z m 4.852,-0.973 c 0,-1.036 -0.404,-2.01 -1.136,-2.743 -0.47,-0.47 -1.057,-0.772 -1.681,-0.941 v -4.21 h -2.5 v 4.317 c -0.481,0.184 -0.927,0.459 -1.303,0.834 -0.732,0.732 -1.136,1.706 -1.136,2.743 0,1.036 0.404,2.01 1.136,2.741 0.731,0.732 1.705,1.136 2.741,1.136 0.714,0 1.391,-0.203 1.987,-0.561 l 6.426,3.191 1.111,-2.239 -5.895,-2.927 c 0.158,-0.425 0.25,-0.875 0.25,-1.341 z m 44.683,-12.894 h 2.5 v -6.25 h -2.5 z m -50,0 h 2.5 v -6.25 h -2.5 z m 27.19,27.055 c -0.537,0.537 -1.411,0.537 -1.949,0 -0.26,-0.26 -0.404,-0.606 -0.404,-0.975 0,-0.367 0.144,-0.714 0.404,-0.974 0.269,-0.269 0.621,-0.404 0.975,-0.404 0.352,0 0.705,0.135 0.974,0.404 v 0 c 0.26,0.26 0.404,0.606 0.404,0.974 0,0.369 -0.144,0.715 -0.404,0.975 z m 7.981,-6.786 -6.182,3.107 c -0.011,-0.011 -0.019,-0.026 -0.032,-0.037 v -0.002 c -0.424,-0.424 -0.925,-0.716 -1.457,-0.902 v -8.685 h -2.5 v 8.665 c -0.556,0.184 -1.084,0.481 -1.526,0.922 -0.007,0.009 -0.013,0.019 -0.022,0.028 l -8.011,-3.979 -1.111,2.239 8.052,3.999 c -0.018,0.151 -0.045,0.301 -0.045,0.456 0,1.036 0.404,2.011 1.137,2.742 0.756,0.756 1.75,1.134 2.742,1.134 0.993,0 1.986,-0.378 2.741,-1.132 0.732,-0.732 1.136,-1.708 1.137,-2.744 0,-0.149 -0.026,-0.293 -0.043,-0.439 l 6.243,-3.139 z m 15.821,-41.054 c 0.352,0 0.705,0.134 0.974,0.402 v 0 c 0.26,0.26 0.405,0.606 0.405,0.975 0,0.367 -0.145,0.714 -0.405,0.975 -0.52,0.52 -1.427,0.52 -1.947,-0.001 -0.26,-0.26 -0.405,-0.606 -0.405,-0.974 0,-0.369 0.145,-0.715 0.405,-0.975 0.269,-0.269 0.621,-0.403 0.973,-0.402 z m -10.037,9.171 8.13,-4.435 c 0.288,0.164 0.594,0.29 0.915,0.375 v 4.424 h 2.5 v -4.585 c 0.455,-0.193 0.874,-0.47 1.234,-0.83 0.732,-0.732 1.137,-1.706 1.137,-2.743 0,-1.036 -0.405,-2.01 -1.137,-2.742 v -0.001 c -1.274,-1.274 -3.219,-1.46 -4.704,-0.585 l -6.544,-3.612 -1.208,2.189 6.099,3.366 c -0.168,0.436 -0.264,0.902 -0.264,1.385 0,0.5 0.1,0.983 0.279,1.434 l -7.634,4.165 z m -13.765,8.436 c -0.52,0.52 -1.429,0.521 -1.949,0 -0.26,-0.26 -0.404,-0.606 -0.404,-0.975 0,-0.367 0.144,-0.712 0.404,-0.973 0.26,-0.26 0.606,-0.404 0.975,-0.404 0.369,0 0.714,0.144 0.974,0.404 v 0.001 c 0.26,0.26 0.404,0.605 0.404,0.972 0,0.369 -0.144,0.715 -0.404,0.975 z m 0.966,-4.301 c -1.188,-0.665 -2.695,-0.665 -3.881,0 l -8.098,-4.417 -1.196,2.193 7.621,4.159 c -0.169,0.439 -0.265,0.907 -0.265,1.391 0,1.036 0.404,2.011 1.137,2.743 0.434,0.435 0.96,0.737 1.526,0.924 v 9.236 h 2.5 v -9.256 c 0.541,-0.19 1.041,-0.486 1.457,-0.903 0.732,-0.732 1.136,-1.708 1.137,-2.744 0,-0.484 -0.096,-0.953 -0.265,-1.391 l 6.736,-3.675 -1.196,-2.195 z m -27.691,-12.904 c 0.269,-0.269 0.621,-0.403 0.974,-0.402 0.354,0 0.706,0.134 0.975,0.402 v 0 c 0.26,0.26 0.404,0.606 0.403,0.975 0,0.367 -0.144,0.714 -0.403,0.975 -0.52,0.52 -1.429,0.52 -1.949,-0.001 -0.26,-0.26 -0.404,-0.606 -0.404,-0.974 0,-0.369 0.144,-0.715 0.404,-0.975 z m 10.992,-6.782 -8.052,4.43 c -1.487,-0.877 -3.431,-0.691 -4.708,0.584 -0.732,0.732 -1.136,1.708 -1.136,2.743 0,1.036 0.404,2.01 1.136,2.743 0.378,0.378 0.82,0.664 1.303,0.856 v 4.559 h 2.5 v -4.445 c 0.296,-0.084 0.579,-0.203 0.847,-0.355 l 7.245,3.954 1.197,-2.195 -6.75,-3.683 c 0.18,-0.451 0.279,-0.934 0.278,-1.434 0,-0.481 -0.095,-0.948 -0.262,-1.383 l 7.606,-4.184 z"/></g></svg>