<svg xmlns="http://www.w3.org/2000/svg" viewBox="0 0 100 100"><defs/><defs><linearGradient id="a" x1="0" x2="1" y1="1" y2="0"><stop offset="0%" stop-color="#055F4E"/><stop offset="100%" stop-color="#56C0A7"/></linearGradient></defs><g><path fill="url(#a)" fill-rule="evenodd" d="m 0,0 h 100 v 100 h -100 z"/><path fill="#fff" fill-rule="evenodd" d="m 65,23.75 v 6.982 l -5.366,-5.366 -1.768,1.768 7.5,7.5 c 0.244,0.244 0.564,0.366 0.884,0.366 0.32,0 0.64,-0.122 0.884,-0.366 l 7.5,-7.5 -1.768,-1.768 -5.366,5.366 v -6.982 c 0,-6.051 -2.314,-8.75 -7.5,-8.75 h -6.244 v 2.5 h 6.244 c 2.834,0 5,0.46 5,6.25 z m -30,53.75 v -8.232 l 5.366,5.366 1.768,-1.768 -7.5,-7.5 c -0.489,-0.489 -1.279,-0.489 -1.768,0 l -7.5,7.5 1.768,1.768 5.366,-5.367 v 8.233 c 0,4.556 2.944,7.5 7.5,7.5 h 6.25 v -2.5 h -6.25 c -3.131,0 -5,-1.869 -5,-5 z m 25.751,-16.46 c 0.894,2.219 2.117,4.155 3.646,5.768 1.479,-1.596 2.634,-3.495 3.51,-5.768 z m 4.881,-2.502 h 7.615 c 0.338,0 0.613,0.275 0.613,0.613 v 1.275 c 0,0.339 -0.275,0.614 -0.613,0.614 h -2.192 c -0.095,0.159 -0.259,0.321 -0.544,0.404 -1.045,2.835 -2.429,5.165 -4.217,7.092 2.066,1.584 4.524,2.706 7.321,3.343 0.215,0.05 0.39,0.214 0.452,0.429 0.063,0.214 0.003,0.445 -0.156,0.603 -0.246,0.246 -0.621,0.771 -0.817,1.145 -0.107,0.205 -0.319,0.329 -0.543,0.329 -0.051,0 -0.103,-0.006 -0.154,-0.02 -3.174,-0.816 -5.823,-2.129 -8.082,-4.005 -2.129,1.689 -4.74,2.993 -7.963,3.979 -0.304,0.092 -0.627,-0.061 -0.747,-0.355 -0.1,-0.247 -0.429,-0.739 -0.66,-1.024 -0.129,-0.16 -0.171,-0.375 -0.109,-0.571 0.061,-0.196 0.219,-0.349 0.416,-0.405 2.902,-0.833 5.26,-1.953 7.184,-3.416 -1.85,-2.041 -3.337,-4.57 -4.426,-7.528 h -2.414 c -0.34,0 -0.615,-0.275 -0.615,-0.614 v -1.275 c 0,-0.339 0.275,-0.614 0.615,-0.614 h 7.478 v -2.765 c 0,-0.171 0.071,-0.333 0.193,-0.448 0.124,-0.115 0.29,-0.168 0.46,-0.164 l 1.718,0.115 c 0.171,0.011 0.329,0.094 0.436,0.226 0.107,0.133 0.155,0.304 0.133,0.473 -0.02,0.139 -0.096,0.409 -0.382,0.601 z m -27.585,-14.485 -3.228,-9.377 -3.198,9.377 z m -1.655,-11.914 7.06,19.111 h -2.923 l -1.764,-5.074 h -7.86 l -1.711,5.074 h -2.895 l 7.061,-19.111 z m 42.358,19.111 h -10 c -0.691,0 -1.25,-0.56 -1.25,-1.25 v -8.75 h -16.25 v 41.25 h 27.5 z m -8.75,-2.5 h 6.713 l -6.713,-5.966 z m 11.25,1.25 v 33.75 c 0,0.69 -0.559,1.25 -1.25,1.25 h -30 c -0.691,0 -1.25,-0.56 -1.25,-1.25 v -43.75 c 0,-0.69 0.559,-1.25 1.25,-1.25 h 18.75 c 0.3,0 0.597,0.109 0.83,0.315 l 11.25,10 c 0.273,0.242 0.42,0.585 0.42,0.935 z m -40,-23.75 h 5.966 l -5.966,-6.713 z m -18.75,20 h -2.5 v -29.996 c 0,-0.69 0.559,-1.25 1.25,-1.25 l 18.75,-0.004 c 0.35,0 0.693,0.147 0.934,0.419 l 10,11.25 c 0.208,0.234 0.316,0.531 0.316,0.831 v 7.5 h -2.5 v -6.25 h -8.75 c -0.691,0 -1.25,-0.56 -1.25,-1.25 v -10 l -16.25,0.004 z m 0,13.75 h 23.75 v 2.5 h -25 c -0.691,0 -1.25,-0.56 -1.25,-1.25 v -8.75 h 2.5 z"/></g></svg>