<svg xmlns="http://www.w3.org/2000/svg" viewBox="0 0 100 100"><defs/><defs><linearGradient id="a" x1="0" x2="1" y1="1" y2="0"><stop offset="0%" stop-color="#BD0816"/><stop offset="100%" stop-color="#FF5252"/></linearGradient></defs><g><path fill="url(#a)" fill-rule="evenodd" d="m 0,0 h 100 v 100 h -100 z"/><path fill="#fff" fill-rule="evenodd" d="m 84.297,77.906 -18.597,-18.598 c -0.386,-0.385 -0.478,-0.976 -0.226,-1.459 2.597,-5.004 1.6,-11.31 -2.425,-15.335 -2.87,-2.87 -6.834,-4.234 -10.864,-3.748 -4.037,0.489 -7.598,2.819 -9.765,6.395 -2.547,4.199 -2.434,9.585 0.288,13.723 3.776,5.744 11.137,7.73 17.122,4.627 0.484,-0.25 1.073,-0.16 1.46,0.226 l 3.085,3.085 c 0.234,0.234 0.365,0.552 0.365,0.884 v 4.053 h 4.054 c 0.33,0 0.649,0.131 0.884,0.365 l 1.768,1.768 c 0.234,0.235 0.366,0.552 0.367,0.885 v 4.052 h 4.052 c 0.333,0 0.649,0.133 0.884,0.367 l 2.319,2.32 4.927,0.328 z m 2.537,-0.382 -0.441,5.745 c -0.05,0.655 -0.597,1.154 -1.245,1.154 -0.029,0 -0.056,0 -0.085,-0.002 l -6.629,-0.443 c -0.304,-0.02 -0.587,-0.149 -0.801,-0.362 l -2.285,-2.287 h -4.785 c -0.691,0 -1.25,-0.559 -1.25,-1.25 v -4.785 l -1.037,-1.035 h -4.786 c -0.69,0 -1.25,-0.56 -1.25,-1.25 v -4.786 l -2.09,-2.091 c -6.967,3.108 -15.224,0.68 -19.532,-5.874 -3.247,-4.94 -3.379,-11.375 -0.337,-16.394 2.57,-4.237 6.8,-7 11.603,-7.58 4.803,-0.578 9.516,1.046 12.932,4.463 4.566,4.566 5.854,11.607 3.278,17.42 l 18.377,18.377 c 0.258,0.259 0.391,0.616 0.363,0.98 z m -30.055,-25.842 c 0,-0.835 -0.325,-1.62 -0.916,-2.21 -0.591,-0.591 -1.376,-0.916 -2.21,-0.916 -0.834,0 -1.619,0.325 -2.209,0.915 -1.219,1.219 -1.219,3.201 0,4.42 1.218,1.219 3.2,1.219 4.419,0 v 0 c 0.591,-0.591 0.916,-1.375 0.916,-2.209 z m 0.851,-3.979 c 1.064,1.063 1.649,2.475 1.649,3.979 0,1.501 -0.585,2.914 -1.649,3.976 v 10e-4 c -1.096,1.096 -2.536,1.644 -3.977,1.644 -1.44,0 -2.88,-0.547 -3.977,-1.645 -2.192,-2.194 -2.192,-5.763 0,-7.955 1.061,-1.063 2.474,-1.647 3.977,-1.647 1.504,0 2.915,0.585 3.977,1.647 z m -30.129,8.449 h 7.499 v 2.5 h -7.5 c -7.317,-0.016 -13.342,-5.206 -13.72,-11.818 -0.016,-0.313 -0.03,-0.601 -0.03,-0.891 0,-8.155 5.784,-11.186 9.189,-12.262 -0.022,-0.36 -0.034,-0.724 -0.034,-1.094 0,-6.688 4.696,-13.61 10.924,-16.101 7.259,-2.93 14.956,-1.472 20.579,3.897 1.484,1.4 3.381,3.493 4.711,6.044 1.42,-1.248 3.024,-1.859 4.86,-1.859 3.629,0 7.696,2.92 8.435,9.303 7.524,1.719 11.336,5.848 11.336,12.281 0,6.784 -4.027,11.335 -11.049,12.484 l -0.403,-2.468 c 4.084,-0.667 8.953,-2.949 8.952,-10.016 0,-5.476 -3.254,-8.661 -10.24,-10.023 -0.559,-0.11 -0.974,-0.584 -1.009,-1.152 -0.28,-4.656 -2.757,-7.909 -6.022,-7.909 -1.669,0 -2.978,0.725 -4.243,2.351 -0.279,0.357 -0.725,0.535 -1.176,0.469 -0.446,-0.069 -0.823,-0.374 -0.981,-0.797 -1.09,-2.913 -3.261,-5.356 -4.891,-6.894 -4.899,-4.678 -11.598,-5.942 -17.928,-3.391 -5.248,2.099 -9.355,8.152 -9.355,13.781 0,0.631 0.037,1.239 0.116,1.856 0.005,0.046 0.007,0.094 0.009,0.141 v 0.003 0.002 0.003 0.002 0 0.003 0 10e-4 10e-4 0.003 c 0,0.631 -0.468,1.159 -1.075,1.245 -3.124,0.792 -8.205,3.15 -8.205,10.096 0,0.246 0.013,0.493 0.025,0.729 0.302,5.311 5.235,9.467 11.226,9.48 z"/></g></svg>