<svg xmlns="http://www.w3.org/2000/svg" viewBox="0 0 100 100"><defs/><defs><linearGradient id="a" x1="0" x2="1" y1="1" y2="0"><stop offset="0%" stop-color="#2E27AD"/><stop offset="100%" stop-color="#527FFF"/></linearGradient></defs><g><path fill="url(#a)" fill-rule="evenodd" d="m 0,0 h 100 v 100 h -100 z"/><path fill="#fff" fill-rule="evenodd" d="m 78.687,43.508 c 2.462,-1.419 3.31,-4.572 1.888,-7.029 -0.689,-1.19 -1.802,-2.042 -3.132,-2.398 -0.444,-0.119 -0.895,-0.177 -1.342,-0.178 -0.894,0 -1.776,0.233 -2.57,0.692 -1.193,0.687 -2.048,1.797 -2.405,3.125 -0.355,1.327 -0.174,2.713 0.516,3.904 1.422,2.457 4.585,3.304 7.045,1.884 z m 3.201,5.262 1.242,2.148 -6.037,3.477 -1.505,-7.754 c -2.451,-0.171 -4.78,-1.499 -6.099,-3.777 -1.022,-1.763 -1.291,-3.819 -0.764,-5.787 0.529,-1.967 1.795,-3.611 3.563,-4.629 1.765,-1.018 3.824,-1.291 5.799,-0.763 1.972,0.527 3.62,1.789 4.641,3.554 2.107,3.641 0.853,8.315 -2.798,10.416 v 0 c -0.595,0.343 -1.219,0.596 -1.854,0.766 l 0.793,4.087 z m -8.688,15.023 c -1.194,-0.688 -2.583,-0.871 -3.912,-0.515 -1.331,0.356 -2.443,1.208 -3.132,2.398 -0.972,1.679 -0.863,3.673 0.077,5.228 l 1.069,1.229 -0.025,0.022 c 0.236,0.201 0.488,0.391 0.767,0.551 v -0.001 c 1.194,0.688 2.584,0.871 3.912,0.514 1.33,-0.356 2.443,-1.208 3.132,-2.398 1.422,-2.457 0.574,-5.61 -1.888,-7.028 z m 4.041,8.268 c -1.02,1.765 -2.67,3.027 -4.641,3.554 -0.659,0.176 -1.327,0.263 -1.991,0.263 -1.324,0 -2.631,-0.346 -3.808,-1.024 v -0.001 c -0.526,-0.301 -0.994,-0.662 -1.418,-1.062 l -1.785,1.544 3.018,1.736 -1.243,2.149 -6.042,-3.478 4.545,-3.93 c -1.186,-2.242 -1.235,-5.023 0.127,-7.376 1.02,-1.765 2.668,-3.026 4.641,-3.553 1.974,-0.53 4.032,-0.257 5.799,0.762 1.769,1.018 3.033,2.662 3.561,4.63 0.528,1.968 0.257,4.023 -0.763,5.786 z m -27.065,5.313 c 0,-2.838 -2.315,-5.147 -5.159,-5.148 -2.844,0 -5.158,2.309 -5.158,5.148 0,2.837 2.314,5.146 5.158,5.146 2.844,0 5.159,-2.309 5.159,-5.146 z m 2.485,0 c 0,4.205 -3.429,7.626 -7.644,7.626 -4.214,0 -7.643,-3.421 -7.644,-7.626 0,-0.592 0.073,-1.164 0.203,-1.718 l -3.204,-1.107 v 3.736 h -2.486 v -7.22 l 6.642,2.297 c 1.35,-2.166 3.75,-3.616 6.489,-3.616 4.216,0 7.645,3.421 7.644,7.628 z m -24.211,-19.909 c -0.689,-1.19 -1.801,-2.042 -3.131,-2.399 -1.33,-0.355 -2.718,-0.174 -3.914,0.515 -1.193,0.687 -2.046,1.797 -2.402,3.125 -0.358,1.327 -0.174,2.713 0.516,3.904 0.687,1.19 1.801,2.042 3.13,2.398 1.327,0.356 2.718,0.175 3.914,-0.515 2.462,-1.419 3.31,-4.572 1.887,-7.028 z m -0.644,9.176 c -1.178,0.68 -2.484,1.026 -3.809,1.025 -0.664,0 -1.332,-0.087 -1.99,-0.262 -1.972,-0.527 -3.622,-1.789 -4.642,-3.554 -1.02,-1.763 -1.293,-3.818 -0.763,-5.787 0.528,-1.968 1.792,-3.612 3.56,-4.63 v -10e-4 c 0.358,-0.206 0.73,-0.372 1.109,-0.517 l -0.771,-3.965 -3.005,1.735 -1.245,-2.146 6.026,-3.48 1.428,7.356 c 0.751,-0.027 1.511,0.057 2.257,0.255 1.972,0.527 3.62,1.789 4.642,3.554 2.107,3.641 0.851,8.315 -2.797,10.417 z m 2.415,-38.433 v 0 c -0.809,-0.466 -1.695,-0.688 -2.569,-0.688 -1.785,0 -3.522,0.923 -4.477,2.571 -0.69,1.19 -0.871,2.577 -0.516,3.905 0.357,1.327 1.212,2.437 2.405,3.124 1.192,0.688 2.581,0.872 3.913,0.515 1.33,-0.356 2.443,-1.207 3.13,-2.397 1.423,-2.458 0.575,-5.611 -1.886,-7.03 z m 3.984,0.559 c 1.363,2.295 1.485,5.239 0.056,7.711 -1.02,1.763 -2.67,3.026 -4.641,3.553 -0.659,0.176 -1.327,0.263 -1.991,0.262 -1.324,0 -2.631,-0.347 -3.808,-1.024 -1.769,-1.019 -3.034,-2.664 -3.563,-4.63 -0.528,-1.968 -0.257,-4.023 0.764,-5.788 2.108,-3.642 6.792,-4.895 10.441,-2.791 v 0 c 0.413,0.238 0.789,0.512 1.14,0.81 l 3.172,-2.748 -3.009,-1.737 1.245,-2.148 6.021,3.478 z m 25.115,-6.139 c 0,-2.837 -2.314,-5.147 -5.159,-5.148 -2.844,0 -5.159,2.31 -5.159,5.148 0,2.838 2.315,5.146 5.159,5.146 2.845,0 5.159,-2.308 5.159,-5.146 z m 7.972,5.746 -6.372,-2.192 c -1.284,2.419 -3.83,4.072 -6.759,4.072 -4.216,0 -7.645,-3.421 -7.644,-7.626 0,-4.205 3.429,-7.628 7.644,-7.628 4.214,0 7.645,3.423 7.645,7.628 0,0.409 -0.041,0.807 -0.104,1.199 l 3.104,1.069 v -3.181 h 2.486 z m -12.287,12.408 -2.277,-0.996 -8.757,19.901 2.277,0.997 z m 9.449,9.494 -7.176,-6.993 -1.735,1.775 5.1,4.97 -5.702,4.269 1.492,1.983 z m -22.635,5.057 -7.175,-6.992 8.021,-6.005 1.493,1.984 -5.704,4.268 5.1,4.97 z"/></g></svg>