<svg xmlns="http://www.w3.org/2000/svg" viewBox="0 0 100 100"><defs/><defs><linearGradient id="a" x1="0" x2="1" y1="1" y2="0"><stop offset="0%" stop-color="#1B660F"/><stop offset="100%" stop-color="#6CAE3E"/></linearGradient></defs><g><path fill="url(#a)" fill-rule="evenodd" d="m 0,0 h 100 v 100 h -100 z"/><path fill="#fff" fill-rule="evenodd" d="m 82.5,72.5 h 2.5 v 12.5 h -12.5 v -2.5 h 8.232 l -10.366,-10.366 1.768,-1.768 10.366,10.367 z m -52.866,-0.366 -10.367,10.366 h 8.233 v 2.5 h -12.5 v -12.5 h 2.5 v 8.232 l 10.366,-10.366 z m 55.366,-57.134 v 12.5 h -2.5 v -8.232 l -10.366,10.366 -1.768,-1.768 10.367,-10.366 h -8.233 v -2.5 z m -65.733,2.5 10.367,10.366 -1.768,1.768 -10.366,-10.367 v 8.233 h -2.5 v -12.5 h 12.5 v 2.5 z m 44.081,49.576 c -1.446,1.484 -6.304,2.981 -13.894,2.982 -9.244,0 -14.415,-2.27 -14.454,-3.808 v -28.929 c 3.254,1.923 9.15,2.679 14.454,2.679 5.241,0 11.069,-0.754 14.296,-2.666 v 28.947 c 0.003,0.092 0.01,0.372 -0.402,0.795 z m -13.894,-37.076 c 7.625,0 12.477,1.476 13.904,2.94 0.403,0.413 0.395,0.688 0.392,0.779 v 0.031 c 0,1.532 -5.091,3.75 -14.296,3.75 -8.926,0 -14.414,-2.169 -14.45,-3.734 0.073,-1.584 5.112,-3.766 14.45,-3.766 z m 16.795,3.75 c 0.01,-0.647 -0.176,-1.605 -1.101,-2.555 -2.256,-2.314 -8.123,-3.695 -15.694,-3.695 -7.748,0 -16.836,1.629 -16.954,6.25 v 32.531 c 0.119,4.633 9.206,6.276 16.954,6.277 5.821,0 12.999,-0.981 15.684,-3.737 0.949,-0.974 1.129,-1.953 1.112,-2.571 v -32.486 -0.009 -0.005 z"/></g></svg>