<svg xmlns="http://www.w3.org/2000/svg" viewBox="0 0 100 100"><defs/><defs><linearGradient id="a" x1="0" x2="1" y1="1" y2="0"><stop offset="0%" stop-color="#C8511B"/><stop offset="100%" stop-color="#F90"/></linearGradient></defs><g><path fill="url(#a)" fill-rule="evenodd" d="m 0,0 h 100 v 100 h -100 z"/><path fill="#fff" fill-rule="evenodd" d="m 46.25,56.941 v 2.561 c -17.578,4.133 -20,11.396 -20,17.998 h -2.5 c 0,-7.212 2.596,-16.025 22.5,-20.559 z m 0,6.509 v 2.672 c -12.491,4.945 -12.5,12.641 -12.5,18.878 h -2.5 c 0,-6.401 0.011,-16.011 15,-21.55 z m 35,13.519 c 0,0.983 -0.799,1.781 -1.781,1.781 h -26.438 c -0.983,0 -1.781,-0.799 -1.781,-1.781 v -16.439 c 0,-0.981 0.799,-1.78 1.781,-1.78 h 26.438 c 0.983,0 1.781,0.799 1.781,1.78 z m -1.781,-20.719 h -26.438 c -2.361,0 -4.281,1.92 -4.281,4.28 v 16.439 c 0,2.361 1.92,4.281 4.281,4.281 h 26.438 c 2.361,0 4.281,-1.92 4.281,-4.281 v -16.439 c 0,-2.36 -1.92,-4.28 -4.281,-4.28 z m 4.281,-7.5 v 2.5 c -56.555,0 -65,10.181 -65,16.25 h -2.5 c 0,-9.245 12.549,-15.1 37.366,-17.5 -24.817,-2.401 -37.366,-8.256 -37.366,-17.5 h 2.5 c 0,6.069 8.445,16.25 65,16.25 z m 0,-5 v 2.5 c -52.871,0 -60,-12.006 -60,-23.75 h 2.5 c 0,10.508 6.831,21.25 57.5,21.25 z m 0,-5 v 2.5 c -22.921,0 -37.84,-2.949 -45.613,-9.015 -6.887,-5.375 -6.887,-12.23 -6.887,-17.235 h 2.5 c 0,9.457 0,23.75 50,23.75 z m -20,32.846 v -5.692 l 4.98,2.846 z m 8.12,-3.931 -8.75,-5 c -0.386,-0.222 -0.862,-0.22 -1.247,0.004 -0.386,0.224 -0.623,0.635 -0.623,1.081 v 10 c 0,0.445 0.236,0.858 0.623,1.081 0.194,0.112 0.41,0.169 0.627,0.169 0.214,0 0.429,-0.055 0.62,-0.165 l 8.75,-5 c 0.39,-0.222 0.63,-0.636 0.63,-1.085 0,-0.449 -0.24,-0.864 -0.63,-1.085 z"/></g></svg>