<svg xmlns="http://www.w3.org/2000/svg" viewBox="0 0 100 100"><defs/><defs><linearGradient id="a" x1="0" x2="1" y1="1" y2="0"><stop offset="0%" stop-color="#C8511B"/><stop offset="100%" stop-color="#F90"/></linearGradient></defs><g><path fill="url(#a)" fill-rule="evenodd" d="m 0,0 h 100 v 100 h -100 z"/><path fill="#fff" fill-rule="evenodd" d="m 42.996,21.738 -1.25,-2.165 7.63,-4.405 c 0.385,-0.224 0.864,-0.224 1.25,0 l 7.628,4.405 -1.25,2.165 -7.003,-4.044 z m 14.505,49.201 -7.5,4.33 -7.5,-4.33 v -8.66 l 7.5,-4.33 7.5,4.33 z m 2.5,-9.381 c 0,-0.446 -0.239,-0.86 -0.625,-1.083 l -8.75,-5.052 c -0.386,-0.222 -0.865,-0.222 -1.25,0 l -8.75,5.052 c -0.388,0.222 -0.625,0.636 -0.625,1.083 v 4.067 h -20 v 2.5 h 20 v 3.535 c 0,0.448 0.237,0.86 0.625,1.084 l 8.125,4.691 v 6.94 h 2.5 v -6.94 l 8.125,-4.691 c 0.386,-0.224 0.625,-0.636 0.625,-1.084 v -3.535 h 20 v -2.5 h -20 z m 6.25,-15.933 h 7.5 v -2.5 h -7.5 z m 0,-6.25 h 7.5 v -2.5 h -7.5 z m 0,-6.25 h 7.5 v -2.5 h -7.5 z m -38.75,0 h 20 v -2.5 h -20 z m -6.25,15 h 57.5 v -21.25 h -57.5 z m 58.75,-23.75 h -60 c -0.691,0 -1.25,0.56 -1.25,1.25 v 23.75 c 0,0.69 0.559,1.25 1.25,1.25 h 60 c 0.69,0 1.25,-0.56 1.25,-1.25 v -23.75 c 0,-0.69 -0.56,-1.25 -1.25,-1.25 z"/></g></svg>