<svg xmlns="http://www.w3.org/2000/svg" viewBox="0 0 100 100"><defs/><defs><linearGradient id="a" x1="0" x2="1" y1="1" y2="0"><stop offset="0%" stop-color="#BD0816"/><stop offset="100%" stop-color="#FF5252"/></linearGradient></defs><g><path fill="url(#a)" fill-rule="evenodd" d="m 0,0 h 100 v 100 h -100 z"/><path fill="#fff" fill-rule="evenodd" d="m 50,15 c -19.299,0 -35,15.701 -35,35 0,15.469 11.434,29.646 27.188,33.71 l 0.625,-2.42 c -14.666,-3.785 -25.313,-16.944 -25.313,-31.29 0,-17.92 14.579,-32.5 32.5,-32.5 17.921,0 32.5,14.58 32.5,32.5 0,15.433 -8.954,27.714 -22.813,31.29 l 0.625,2.42 c 14.997,-3.869 24.688,-17.101 24.688,-33.71 0,-19.299 -15.701,-35 -35,-35 z m -10,22.5 h 11.25 v -2.5 h -11.25 z m 0,18.75 h 13.75 v -2.5 h -13.75 z m 0,-6.25 h 7.5 v -2.5 h -7.5 z m 0,-6.25 h 22.5 v -2.5 h -22.5 z m 17.5,-6.25 c -0.691,0 -1.25,-0.56 -1.25,-1.25 v -8.75 h -18.75 v 36.25 h 28.75 v -26.25 z m 1.25,-2.5 h 5.732 l -5.732,-5.732 z m -1.25,-10 v 0 c 0.325,0 0.645,0.128 0.884,0.366 l 10,10 c 0.161,0.161 0.264,0.361 0.317,0.571 h 0.049 v 29.063 c 0,0.69 -0.559,1.25 -1.25,1.25 h -31.25 c -0.691,0 -1.25,-0.56 -1.25,-1.25 v -38.75 c 0,-0.69 0.559,-1.25 1.25,-1.25 z m 3.384,50.884 -8.75,8.75 c -0.244,0.244 -0.564,0.366 -0.884,0.366 -0.32,0 -0.64,-0.122 -0.884,-0.366 l -8.75,-8.75 c -0.357,-0.357 -0.465,-0.895 -0.271,-1.363 0.193,-0.466 0.65,-0.771 1.155,-0.771 h 3.75 v -5 h 2.5 v 6.25 c 0,0.69 -0.559,1.25 -1.25,1.25 h -1.982 l 5.732,5.732 5.733,-5.732 h -1.983 c -0.691,0 -1.25,-0.56 -1.25,-1.25 v -6.25 h 2.5 v 5 h 3.75 c 0.505,0 0.963,0.305 1.155,0.771 0.194,0.468 0.086,1.005 -0.271,1.363 z"/></g></svg>