<svg xmlns="http://www.w3.org/2000/svg" viewBox="0 0 100 100"><defs/><defs><linearGradient id="a" x1="0" x2="1" y1="1" y2="0"><stop offset="0%" stop-color="#C8511B"/><stop offset="100%" stop-color="#F90"/></linearGradient></defs><g><path fill="url(#a)" fill-rule="evenodd" d="m 0,0 h 100 v 100 h -100 z"/><path fill="#fff" fill-rule="evenodd" d="m 82.5,57.854 -13.098,-7.562 13.098,-7.562 z m -40,4.859 v -24.84 l 21.513,12.42 z m -2.5,-29.174 -13.098,-7.561 13.098,-7.563 z m 0,48.635 -13.098,-7.562 13.098,-7.563 z m 44.375,-42.691 c -0.386,-0.224 -0.864,-0.224 -1.25,0 l -16.418,9.479 -24.207,-13.975 v -18.737 c 0,-0.448 -0.237,-0.86 -0.625,-1.082 -0.386,-0.224 -0.864,-0.224 -1.25,0 l -16.848,9.726 c -0.386,0.224 -0.625,0.636 -0.625,1.084 0,0.446 0.239,0.859 0.625,1.082 l 16.223,9.365 v 27.738 l -16.223,9.366 c -0.386,0.222 -0.625,0.635 -0.625,1.083 0,0.446 0.239,0.859 0.625,1.082 l 16.848,9.728 c 0.193,0.111 0.409,0.166 0.625,0.166 0.216,0 0.432,-0.055 0.625,-0.166 0.388,-0.224 0.625,-0.636 0.625,-1.084 v -18.739 l 24.207,-13.976 16.418,9.479 c 0.386,0.224 0.864,0.224 1.25,0 0.388,-0.224 0.625,-0.636 0.625,-1.083 v -19.454 c 0,-0.446 -0.237,-0.86 -0.625,-1.082 z m -24.375,42.685 v -15.124 l 13.098,7.563 z m 16.223,-8.644 -16.848,-9.727 c -0.386,-0.224 -0.864,-0.224 -1.25,0 -0.388,0.224 -0.625,0.636 -0.625,1.082 v 19.454 c 0,0.448 0.237,0.86 0.625,1.082 0.193,0.112 0.409,0.168 0.625,0.168 0.216,0 0.432,-0.055 0.625,-0.168 l 16.848,-9.726 c 0.386,-0.224 0.625,-0.636 0.625,-1.082 0,-0.448 -0.239,-0.86 -0.625,-1.083 z m -58.723,-15.67 v -15.125 l 13.098,7.563 z m 16.848,-7.562 c 0,-0.448 -0.239,-0.86 -0.625,-1.084 l -16.848,-9.726 c -0.386,-0.222 -0.864,-0.222 -1.25,0 -0.388,0.224 -0.625,0.636 -0.625,1.082 v 19.454 c 0,0.448 0.237,0.86 0.625,1.084 0.193,0.111 0.409,0.166 0.625,0.166 0.216,0 0.432,-0.055 0.625,-0.166 l 16.848,-9.728 c 0.386,-0.224 0.625,-0.636 0.625,-1.082 z m 25.652,-31.877 13.097,7.563 -13.097,7.561 z m -1.875,18.372 c 0.193,0.111 0.409,0.168 0.625,0.167 0.216,0 0.432,-0.056 0.625,-0.167 l 16.847,-9.727 c 0.386,-0.224 0.625,-0.636 0.625,-1.082 0,-0.448 -0.239,-0.86 -0.625,-1.084 l -16.847,-9.726 c -0.386,-0.224 -0.864,-0.224 -1.25,0 -0.388,0.222 -0.625,0.635 -0.625,1.082 v 19.454 c 0,0.446 0.237,0.859 0.625,1.083 z"/></g></svg>