<svg xmlns="http://www.w3.org/2000/svg" viewBox="0 0 100 100"><defs/><defs><linearGradient id="a" x1="0" x2="1" y1="1" y2="0"><stop offset="0%" stop-color="#055F4E"/><stop offset="100%" stop-color="#56C0A7"/></linearGradient></defs><g><path fill="url(#a)" fill-rule="evenodd" d="m 0,0 h 100 v 100 h -100 z"/><path fill="#fff" fill-rule="evenodd" d="m 27.578,62.5 c 2.892,4.504 7.935,7.5 13.672,7.5 8.959,0 16.249,-7.29 16.249,-16.25 0,-8.96 -7.29,-16.25 -16.249,-16.25 -6.746,0 -12.542,4.134 -14.997,10 h 2.765 c 2.281,-4.445 6.902,-7.5 12.232,-7.5 7.581,0 13.749,6.169 13.749,13.75 0,7.581 -6.167,13.75 -13.749,13.75 -4.261,0 -8.074,-1.949 -10.598,-5 z m 18.672,-6.25 v -2.5 h 6.249 c 0,-6.202 -5.046,-11.25 -11.249,-11.25 -6.204,0 -11.251,5.048 -11.251,11.25 h 6.25 v 2.5 h -5.96 c 1.141,5.002 5.617,8.75 10.961,8.75 2.67,0 5.124,-0.939 7.055,-2.5 h -5.805 v -2.5 h 8.098 c 0.754,-1.123 1.302,-2.391 1.612,-3.75 z m -19.997,3.75 h 2.765 c -0.964,-1.877 -1.517,-3.999 -1.517,-6.25 0,-1.301 0.194,-2.556 0.532,-3.75 h -2.579 c -0.286,1.206 -0.455,2.458 -0.455,3.75 0,2.214 0.449,4.325 1.254,6.25 z m -1.574,2.5 h -3.428 v -2.5 h 2.342 c -0.425,-1.2 -0.731,-2.453 -0.906,-3.75 h -3.419 l 1.616,1.616 -1.768,1.768 -3.75,-3.75 c -0.487,-0.489 -0.487,-1.279 0,-1.768 l 3.75,-3.75 1.768,1.768 -1.616,1.616 h 3.233 c 0,-1.284 0.13,-2.537 0.377,-3.75 h -1.627 v -2.5 h 2.342 c 2.582,-7.27 9.511,-12.5 17.657,-12.5 5.534,0 10.5,2.424 13.935,6.25 h 18.565 v 2.5 h -16.667 c 1.836,2.897 2.916,6.322 2.916,10 h 13.751 v 2.5 h -13.937 c -1.227,9.159 -9.074,16.25 -18.563,16.25 -7.18,0 -13.422,-4.06 -16.571,-10 z m 21.571,-13.75 c 0,-0.69 -0.56,-1.25 -1.25,-1.25 h -7.501 c -0.69,0 -1.25,0.56 -1.25,1.25 v 2.5 h 2.501 v -1.25 h 1.25 v 3.75 h -1.25 v 2.5 h 5 v -2.5 h -1.25 v -3.75 h 1.25 v 1.25 h 2.5 z m 15,1.25 h 12.5 v -2.5 h -12.5 z m 0,12.5 h 12.5 v -2.5 h -12.5 z m 10,-28.75 h 4.481 l -4.481,-4.482 z m 8.384,0.366 c 0.234,0.234 0.366,0.552 0.366,0.884 v 43.75 c 0,0.69 -0.56,1.25 -1.25,1.25 h -38.75 c -0.691,0 -1.25,-0.56 -1.25,-1.25 v -5 h 2.5 v 3.75 h 36.25 v -41.25 h -7.5 c -0.691,0 -1.25,-0.56 -1.25,-1.25 v -7.5 h -27.5 v 6.25 h -2.5 v -7.5 c 0,-0.69 0.559,-1.25 1.25,-1.25 h 30 c 0.331,0 0.649,0.131 0.884,0.366 z m 5.366,-3.908 v 46.042 c 0,0.69 -0.56,1.25 -1.25,1.25 h -2.5 v -2.5 h 1.25 v -44.235 l -9.229,-8.265 h -28.271 v 1.25 h -2.5 v -2.5 c 0,-0.69 0.559,-1.25 1.25,-1.25 h 30 c 0.307,0 0.604,0.114 0.833,0.319 l 10,8.956 c 0.265,0.237 0.417,0.576 0.417,0.933 z"/></g></svg>