<svg xmlns="http://www.w3.org/2000/svg" viewBox="0 0 100 100"><defs/><defs><linearGradient id="a" x1="0" x2="1" y1="1" y2="0"><stop offset="0%" stop-color="#2E27AD"/><stop offset="100%" stop-color="#527FFF"/></linearGradient></defs><g><path fill="url(#a)" fill-rule="evenodd" d="m 0,0 h 100 v 100 h -100 z"/><path fill="#fff" fill-rule="evenodd" d="m 76.149,65.366 1.604,-1.616 h -7.441 l -1.967,-1.983 -3.72,3.75 -10.798,-10.883 1.754,-1.768 9.044,9.116 3.72,-3.75 2.994,3.018 h 6.414 l -1.604,-1.616 1.754,-1.768 4.597,4.634 -4.597,4.634 z m -11.524,-19.634 1.967,-1.982 h 3.922 l 3.714,4.165 -1.845,1.67 -2.974,-3.335 h -1.791 l -2.993,3.017 -2.994,-3.017 h -6.927 v -2.5 h 7.954 z m 13.128,-0.732 h -1.967 v -2.5 h 6.201 v 6.25 h -2.481 v -1.983 l -3.207,3.233 3.207,3.232 v -1.982 h 2.481 v 6.25 h -6.201 v -2.5 h 1.967 l -3.207,-3.233 -3.207,3.233 h -7.441 l -2.117,2.134 -1.753,-1.768 2.843,-2.866 h 7.441 z m -23.926,16.616 2.48,-2.5 1.754,1.768 -2.48,2.5 z m -12.765,-44.116 c 12.425,0 21.082,3.952 21.083,7.5 0,3.548 -8.657,7.5 -21.083,7.5 -12.425,0 -21.082,-3.952 -21.082,-7.5 0,-3.548 8.657,-7.5 21.082,-7.5 z m 12.402,23.75 h -2.481 v 27.5 c 0,0.69 0.554,1.25 1.241,1.25 h 9.921 v 5 c 0,3.548 -8.657,7.5 -21.083,7.5 -12.029,0 -21.082,-4.349 -21.082,-7.169 v -9.489 c 3.791,3.262 11.604,5.407 21.082,5.408 3.08,0 6.073,-0.236 8.891,-0.704 l -0.402,-2.467 c -2.686,0.445 -5.542,0.671 -8.489,0.671 -12.425,0 -21.082,-3.952 -21.082,-7.5 v -12.908 c 3.791,3.262 11.604,5.407 21.082,5.408 3.08,0 6.073,-0.236 8.891,-0.704 l -0.402,-2.467 c -2.686,0.445 -5.542,0.671 -8.489,0.671 -12.425,0 -21.082,-3.952 -21.082,-7.5 v -14.158 c 3.791,3.262 11.604,5.407 21.082,5.408 9.478,0 17.291,-2.145 21.083,-5.408 v 12.908 h 2.48 v -17.5 c 0,-5.701 -10.129,-10 -23.563,-10 -13.433,0 -23.562,4.299 -23.562,10 v 50.331 c 0,5.15 11.011,9.669 23.562,9.669 13.433,0 23.562,-4.299 23.563,-10 v -5 h 17.362 v -2.5 h -28.523 z"/></g></svg>