<svg xmlns="http://www.w3.org/2000/svg" viewBox="0 0 100 100"><defs/><defs><linearGradient id="a" x1="0" x2="1" y1="1" y2="0"><stop offset="0%" stop-color="#055F4E"/><stop offset="100%" stop-color="#56C0A7"/></linearGradient></defs><g><path fill="url(#a)" fill-rule="evenodd" d="m 0,0 h 100 v 100 h -100 z"/><path fill="#fff" fill-rule="evenodd" d="m 68.75,62.078 v -21.019 l -17.5,9.909 v 21.019 z m -37.5,0 17.5,9.909 v -21.019 l -17.5,-9.909 z m 1.3,-23.171 17.45,9.88 17.45,-9.88 -17.45,-9.881 z m 38.063,25.004 -20.001,11.325 c -0.19,0.107 -0.401,0.161 -0.612,0.161 -0.211,0 -0.423,-0.054 -0.613,-0.161 l -20,-11.325 c -0.394,-0.224 -0.637,-0.643 -0.637,-1.097 v -23.907 c 0,-0.454 0.244,-0.873 0.637,-1.097 l 20,-11.325 c 0.38,-0.215 0.845,-0.215 1.225,0 l 20,11.325 c 0.394,0.224 0.637,0.643 0.638,1.097 v 23.907 c 0,0.454 -0.244,0.873 -0.638,1.097 z m 13.758,-20.217 -2.451,0.493 c 0.362,1.828 0.58,4.249 0.58,6.476 0,15.137 -10.62,28.545 -25.253,31.883 l 0.552,2.454 c 15.762,-3.595 27.201,-18.035 27.201,-34.337 0,-2.418 -0.23,-4.959 -0.629,-6.969 z m -66.871,6.969 c 0,-2.21 0.217,-4.386 0.645,-6.469 l -2.449,-0.508 c -0.463,2.249 -0.696,4.596 -0.696,6.977 0,16.302 11.439,30.742 27.201,34.337 l 0.551,-2.454 c -14.633,-3.338 -25.253,-16.746 -25.252,-31.883 z m 7.109,-20.405 -1.953,-1.571 c 6.901,-8.698 16.867,-13.687 27.344,-13.687 10.82,0 21.326,5.479 28.101,14.655 l -2.006,1.502 c -6.306,-8.541 -16.061,-13.641 -26.095,-13.64 -9.712,0 -18.966,4.644 -25.391,12.741 z"/></g></svg>