<svg xmlns="http://www.w3.org/2000/svg" viewBox="0 0 100 100"><defs/><defs><linearGradient id="a" x1="0" x2="1" y1="1" y2="0"><stop offset="0%" stop-color="#055F4E"/><stop offset="100%" stop-color="#56C0A7"/></linearGradient></defs><g><path fill="url(#a)" fill-rule="evenodd" d="m 0,0 h 100 v 100 h -100 z"/><path fill="#fff" fill-rule="evenodd" d="m 78.734,61.631 -3.248,-1.875 -1.25,2.165 3.248,1.875 z m -31.619,-23.465 h 2.5 v -4.878 h -2.5 z m -9.392,17.693 1.413,2.062 5.257,-3.607 -1.414,-2.061 z m 3.261,-31.97 -8.431,-3.748 -13.813,7.438 7.538,4.695 z m -15.984,10.534 -7.5,-4.672 v 22.057 l 7.5,4.687 z m 19.369,-9.588 -16.869,9.619 v 24.296 c 0,0.455 -0.247,0.872 -0.645,1.093 -0.188,0.105 -0.396,0.158 -0.605,0.157 -0.231,0 -0.46,-0.064 -0.664,-0.19 l -10,-6.25 c -0.365,-0.229 -0.586,-0.629 -0.586,-1.06 v -25 c 0,-0.454 0.246,-0.872 0.642,-1.094 0.005,-0.003 0.011,-0.003 0.017,-0.006 l -0.002,-10e-4 16.25,-8.75 c 0.341,-0.184 0.747,-0.198 1.1,-0.041 l 11.25,5 c 0.431,0.191 0.716,0.609 0.742,1.08 0.022,0.47 -0.22,0.915 -0.63,1.147 z m 28.952,33.671 -3.211,-1.892 -1.288,2.142 3.249,1.915 z m 9.179,-19.593 -21.292,12.355 1.401,0.841 -1.288,2.144 -1.321,-0.795 v 25.563 l 21.303,-13.02 -1.654,-0.955 1.25,-2.165 1.601,0.924 z m -1.258,-2.16 -22.503,-12.82 -9.124,5.017 v 2.386 h -2.5 v -1.011 l -10.856,5.971 10.856,6.515 v -2.693 h 2.5 v 4.193 l 9.145,5.488 z m -23.742,15.205 -7.885,-4.73 v 2.845 c 0,0.413 -0.203,0.799 -0.542,1.031 l -2.578,1.767 -1.414,-2.061 2.034,-1.395 v -3.689 l -12.115,-7.268 v 19.27 l 0.62,-0.425 1.414,2.062 -2.034,1.395 v 4.781 l 22.5,13.502 z m 27.5,-15.215 v 0 29.227 c 0,0.435 -0.227,0.84 -0.599,1.066 l -25,15.28 -0.002,-0.003 c -0.013,0.007 -0.02,0.019 -0.033,0.025 -0.191,0.109 -0.404,0.163 -0.616,0.162 -0.222,0 -0.446,-0.06 -0.644,-0.179 l -25,-15 c -0.376,-0.225 -0.606,-0.633 -0.606,-1.071 v -30 h 0.003 c 0,-0.009 -0.003,-0.015 -0.003,-0.024 0.009,-0.448 0.255,-0.856 0.648,-1.071 l 25,-13.75 c 0.38,-0.211 0.844,-0.206 1.221,0.009 l 25,14.242 c 0.388,0.221 0.63,0.634 0.631,1.082 z m -18.321,20.727 -3.215,-1.931 1.286,-2.143 3.216,1.93 z"/></g></svg>