<svg xmlns="http://www.w3.org/2000/svg" viewBox="0 0 100 100"><defs/><defs><linearGradient id="a" x1="0" x2="1" y1="1" y2="0"><stop offset="0%" stop-color="#4D27A8"/><stop offset="100%" stop-color="#A166FF"/></linearGradient></defs><g><path fill="url(#a)" fill-rule="evenodd" d="m 0,0 h 100 v 100 h -100 z"/><path fill="#fff" fill-rule="evenodd" d="m 45.01,46.221 v -11.238 h 2.495 v 4.995 l 3.367,-4.995 h 2.762 l -3.902,5.255 4.224,5.983 h -2.959 l -3.492,-5.431 v 5.431 z m 37.49,15.176 -0.836,0.723 c -1.684,1.475 -3.949,2.213 -6.217,2.212 -2.268,0 -4.537,-0.738 -6.224,-2.216 l -1.666,-1.443 c -2.445,-2.143 -6.725,-2.143 -9.165,-0.005 l -1.677,1.452 c -3.367,2.951 -9.069,2.953 -12.441,-0.004 l -1.666,-1.443 c -2.445,-2.143 -6.725,-2.143 -9.165,-0.005 l -1.677,1.452 c -3.367,2.951 -9.069,2.953 -12.441,-0.004 l -0.831,-0.719 1.633,-1.89 0.836,0.725 c 2.446,2.143 6.726,2.143 9.165,0.005 l 1.677,-1.454 c 3.367,-2.949 9.069,-2.949 12.44,0.005 l 1.667,1.444 c 2.446,2.143 6.726,2.143 9.165,0.005 l 1.677,-1.454 c 3.367,-2.949 9.069,-2.949 12.441,0.005 l 1.666,1.444 c 2.445,2.143 6.725,2.143 9.165,0.005 l 0.841,-0.729 z m -2.627,15.028 1.633,1.888 -0.836,0.724 c -1.683,1.475 -3.948,2.211 -6.215,2.212 -2.269,0 -4.538,-0.738 -6.226,-2.217 l -1.667,-1.443 c -2.445,-2.14 -6.725,-2.14 -9.165,-0.005 l -1.676,1.453 c -3.364,2.951 -9.067,2.952 -12.441,-0.005 l -1.667,-1.443 c -2.444,-2.14 -6.724,-2.14 -9.165,-0.005 l -1.676,1.453 c -3.366,2.951 -9.068,2.952 -12.441,-0.005 l -0.831,-0.719 1.633,-1.888 0.836,0.724 c 2.446,2.14 6.726,2.142 9.165,0.004 l 1.676,-1.452 c 3.368,-2.949 9.068,-2.951 12.441,0.003 l 1.667,1.445 c 2.446,2.14 6.726,2.142 9.165,0.004 l 1.677,-1.452 c 3.368,-2.949 9.068,-2.951 12.44,0.003 l 1.667,1.445 c 2.446,2.14 6.726,2.142 9.165,0.004 z m 0,-7.917 1.633,1.887 -0.836,0.724 c -3.366,2.952 -9.068,2.953 -12.441,-0.004 l -1.667,-1.443 c -2.445,-2.143 -6.725,-2.142 -9.165,-0.005 l -1.676,1.453 c -1.683,1.475 -3.949,2.211 -6.215,2.212 -2.269,0 -4.538,-0.738 -6.226,-2.217 l -1.667,-1.443 c -2.444,-2.143 -6.724,-2.142 -9.165,-0.005 l -1.676,1.453 c -3.364,2.951 -9.067,2.951 -12.441,-0.005 l -0.831,-0.72 1.633,-1.887 0.836,0.724 c 2.446,2.143 6.726,2.142 9.165,0.004 l 1.676,-1.452 c 3.368,-2.949 9.07,-2.952 12.441,0.004 l 1.667,1.443 c 2.446,2.144 6.726,2.143 9.165,0.005 l 1.677,-1.452 c 3.368,-2.949 9.07,-2.952 12.44,0.004 l 1.667,1.443 c 2.446,2.144 6.726,2.143 9.165,0.005 z m -49.832,-21.038 c 1.376,0 2.495,1.12 2.495,2.497 0,1.377 -1.119,2.497 -2.495,2.498 -1.376,0 -2.495,-1.12 -2.495,-2.498 0,-1.377 1.119,-2.497 2.495,-2.497 z m 18.712,-26.223 c 1.376,0 2.495,1.12 2.494,2.498 0,1.377 -1.119,2.497 -2.494,2.497 -1.376,0 -2.495,-1.12 -2.495,-2.497 0,-1.377 1.119,-2.497 2.495,-2.498 z m 21.206,28.72 c 0,1.377 -1.119,2.497 -2.495,2.498 -1.376,0 -2.495,-1.12 -2.495,-2.498 0,-1.377 1.119,-2.497 2.495,-2.497 1.376,0 2.495,1.12 2.495,2.497 z m -21.206,-21.227 c 0.831,0 1.604,-0.224 2.294,-0.586 l 12.709,18.504 c -0.52,0.582 -0.902,1.282 -1.103,2.061 h -27.801 c -0.201,-0.778 -0.583,-1.478 -1.103,-2.061 l 12.709,-18.504 c 0.69,0.362 1.463,0.586 2.295,0.586 z m -18.712,26.222 c 2.318,0 4.255,-1.598 4.811,-3.746 h 27.801 c 0.556,2.148 2.494,3.746 4.811,3.746 2.752,0 4.99,-2.24 4.99,-4.995 0,-2.755 -2.238,-4.995 -4.99,-4.994 -0.575,0 -1.119,0.117 -1.635,0.297 l -12.907,-18.794 c 0.516,-0.785 0.821,-1.722 0.82,-2.731 0,-2.755 -2.238,-4.995 -4.989,-4.995 -2.752,0 -4.99,2.24 -4.99,4.995 0,1.009 0.304,1.945 0.821,2.731 l -12.908,18.794 c -0.516,-0.18 -1.06,-0.297 -1.635,-0.297 -2.752,0 -4.99,2.24 -4.99,4.994 0,2.755 2.238,4.995 4.99,4.995 z"/></g></svg>