<svg xmlns="http://www.w3.org/2000/svg" viewBox="0 0 100 100"><defs/><defs><linearGradient id="a" x1="0" x2="1" y1="1" y2="0"><stop offset="0%" stop-color="#4D27A8"/><stop offset="100%" stop-color="#A166FF"/></linearGradient></defs><g><path fill="url(#a)" fill-rule="evenodd" d="m 0,0 h 100 v 100 h -100 z"/><path fill="#fff" fill-rule="evenodd" d="m 38.246,68.105 -5.087,-5.088 5.087,-5.088 -1.767,-1.768 -5.971,5.973 c -0.489,0.488 -0.489,1.279 0,1.767 l 5.971,5.971 z m 27.638,-29.204 c 0.489,-0.489 0.489,-1.28 0,-1.767 l -5.972,-5.973 -1.767,1.768 5.087,5.089 -5.087,5.087 1.767,1.768 z m -10.884,27.399 h 15 v -2.5 h -15 z m -8.75,7.5 h 38.75 v -2.5 h -38.75 z m -25,-35 h 17.5 v -2.5 h -17.5 z m -6.25,-10 h 38.75 v -2.5 h -38.75 z m 64.625,10.163 c 0,-10.456 -8.508,-18.962 -18.962,-18.963 -3.222,0 -6.404,0.823 -9.204,2.379 l 1.216,2.185 c 2.427,-1.35 5.19,-2.064 7.988,-2.064 9.076,0 16.462,7.385 16.462,16.463 0,9.077 -7.386,16.462 -16.462,16.462 -1.505,0 -2.995,-0.203 -4.428,-0.601 l -0.671,2.407 c 1.651,0.46 3.367,0.694 5.099,0.694 10.455,0 18.962,-8.506 18.962,-18.962 z m -34.86,4.296 c -0.375,-1.393 -0.565,-2.837 -0.565,-4.296 0,-2.183 0.42,-4.301 1.248,-6.299 l -2.311,-0.956 c -0.955,2.301 -1.438,4.742 -1.437,7.255 0,1.678 0.219,3.341 0.65,4.946 z m 6.485,36.791 h -30 c -0.69,0 -1.25,-0.56 -1.25,-1.25 v -30 c 0,-0.69 0.56,-1.25 1.25,-1.25 h 30 c 0.691,0 1.25,0.56 1.25,1.25 v 20 h -2.5 v -18.75 h -27.5 v 27.5 h 27.5 v -1.25 h 2.5 v 2.5 c 0,0.69 -0.559,1.25 -1.25,1.25 z"/></g></svg>