<svg xmlns="http://www.w3.org/2000/svg" viewBox="0 0 100 100"><defs/><defs><linearGradient id="a" x1="0" x2="1" y1="1" y2="0"><stop offset="0%" stop-color="#055F4E"/><stop offset="100%" stop-color="#56C0A7"/></linearGradient></defs><g><path fill="url(#a)" fill-rule="evenodd" d="m 0,0 h 100 v 100 h -100 z"/><path fill="#fff" fill-rule="evenodd" d="m 66.029,82.512 c -0.385,-4.854 -2.982,-9.301 -6.974,-11.817 -2.208,-1.39 -4.74,-2.126 -7.324,-2.127 -7.512,0 -13.695,6.149 -14.297,13.944 z m -14.271,-16.444 c 4.298,0 7.793,-3.496 7.792,-7.793 0,-4.298 -3.495,-7.794 -7.792,-7.794 -4.298,0 -7.794,3.496 -7.794,7.794 0,4.298 3.496,7.794 7.794,7.793 z m 16.82,17.694 c 0,0.69 -0.559,1.25 -1.25,1.25 h -31.192 c -0.691,0 -1.25,-0.56 -1.25,-1.25 0,-7.776 4.808,-14.381 11.458,-16.749 -2.924,-1.817 -4.88,-5.05 -4.88,-8.738 0,-5.676 4.617,-10.294 10.294,-10.294 5.675,0 10.293,4.617 10.292,10.294 0,3.691 -1.959,6.924 -4.884,8.742 1.12,0.399 2.201,0.919 3.222,1.563 5.051,3.184 8.19,9.001 8.19,15.182 z m -42.952,-32.315 1.287,2.144 7.322,-4.393 4.543,2.747 1.293,-2.139 -4.992,-3.02 10e-4,-5.391 8.12,-4.657 c 0.39,-0.222 0.629,-0.636 0.629,-1.083 v -11.914 h -2.5 v 11.19 l -7.48,4.289 -7.52,-4.195 v -9.4 l 7.5,-4.473 v 8.839 h 2.5 v -10.33 l 5.434,-3.241 8.316,4 v 24.571 h 2.5 v -25.358 c 0,-0.48 -0.275,-0.919 -0.708,-1.126 l -9.63,-4.631 c -0.38,-0.181 -0.821,-0.161 -1.183,0.052 l -16.619,9.913 c -0.378,0.226 -0.61,0.634 -0.61,1.074 v 9.47 l -7.964,3.185 c -0.474,0.19 -0.784,0.646 -0.786,1.156 l -0.079,18.972 c -10e-4,0.432 0.22,0.835 0.586,1.065 l 8.243,5.16 v 8.329 c 0,0.393 0.186,0.764 0.501,0.999 l 6.576,4.934 1.5,-2 -6.077,-4.558 v -8.396 c 0,-0.129 -0.019,-0.255 -0.058,-0.375 l 7.22,-4.331 -1.287,-2.144 -8.024,4.814 -6.677,-4.182 0.028,-7.001 7.738,-4.642 -1.288,-2.144 -6.437,3.862 0.031,-7.51 6.865,-2.745 8.14,4.542 -10e-4,5.902 z m 39.043,1.439 c 0.429,-1.419 0.646,-2.869 0.646,-4.308 0,-6.591 -4.412,-12.435 -10.729,-14.211 l -0.676,2.408 c 5.242,1.474 8.905,6.328 8.905,11.803 0,1.194 -0.181,2.4 -0.539,3.585 z m 20.329,1.662 -4.72,12.349 c -0.122,0.323 -0.372,0.579 -0.692,0.71 -0.319,0.131 -0.676,0.125 -0.99,-0.016 l -4.051,-1.826 c -0.177,0.284 -0.345,0.557 -0.509,0.823 -1.11,1.809 -2.069,3.373 -4.252,5.022 l -1.506,-1.997 c 1.806,-1.363 2.57,-2.609 3.628,-4.332 0.343,-0.557 0.706,-1.15 1.13,-1.79 0.34,-0.51 0.998,-0.699 1.557,-0.448 l 3.822,1.724 3.774,-9.874 -4.016,-1.276 c -0.584,-0.186 -0.948,-0.766 -0.859,-1.372 0.445,-3.034 0.359,-6.12 -0.253,-9.178 -0.12,-0.599 0.211,-1.198 0.783,-1.414 l 3.924,-1.486 -4.325,-9.65 -3.725,1.938 c -0.545,0.281 -1.208,0.13 -1.574,-0.358 -1.873,-2.481 -4.121,-4.603 -6.684,-6.304 -0.509,-0.339 -0.699,-0.996 -0.447,-1.555 l 1.725,-3.838 -9.988,-3.804 -1.451,3.4 -2.3,-0.981 1.924,-4.505 c 0.264,-0.617 0.97,-0.916 1.595,-0.678 l 12.348,4.703 c 0.321,0.124 0.578,0.372 0.71,0.691 0.131,0.318 0.126,0.676 -0.015,0.99 l -1.841,4.099 c 2.15,1.544 4.084,3.369 5.765,5.442 l 3.978,-2.07 c 0.307,-0.158 0.663,-0.184 0.988,-0.071 0.325,0.112 0.589,0.355 0.729,0.669 l 5.411,12.07 c 0.141,0.314 0.146,0.673 0.014,0.991 -0.133,0.318 -0.389,0.568 -0.711,0.689 l -4.191,1.587 c 0.434,2.641 0.508,5.299 0.22,7.928 l 4.285,1.361 c 0.329,0.105 0.597,0.339 0.747,0.649 0.15,0.31 0.164,0.669 0.043,0.988 z"/></g></svg>