<svg xmlns="http://www.w3.org/2000/svg" viewBox="0 0 100 100"><defs/><defs><linearGradient id="a" x1="0" x2="1" y1="1" y2="0"><stop offset="0%" stop-color="#055F4E"/><stop offset="100%" stop-color="#56C0A7"/></linearGradient></defs><g><path fill="url(#a)" fill-rule="evenodd" d="m 0,0 h 100 v 100 h -100 z"/><path fill="#fff" fill-rule="evenodd" d="m 73.636,40.204 c -0.703,-5.275 -3.709,-7.99 -6.412,-8.776 -2.41,-0.7 -4.882,-0.13 -6.816,1.489 -1.032,-2.116 -2.531,-4.163 -4.474,-6.103 -5.596,-5.591 -12.949,-7.051 -20.171,-4.004 -6.236,2.631 -10.762,9.398 -10.763,16.091 v 1.55 c -5.73,1.791 -8.75,5.972 -8.75,12.148 h 2.5 c 0,-5.39 2.555,-8.661 7.81,-10.001 0.552,-0.141 0.94,-0.638 0.94,-1.207 v -2.49 c 0,-5.644 3.971,-11.575 9.236,-13.797 6.24,-2.631 12.587,-1.366 17.428,3.468 2.232,2.232 3.8,4.589 4.656,7.007 0.155,0.435 0.537,0.748 0.995,0.817 0.456,0.07 0.916,-0.121 1.191,-0.492 1.389,-1.873 3.504,-2.67 5.518,-2.085 2.689,0.783 4.456,3.645 4.729,7.657 0.045,0.653 0.589,1.161 1.247,1.16 2.594,0 10,1.831 10,9.963 0,11.022 -9.595,11.205 -10,11.207 h -7.5 v 2.491 h 7.5 c 0.124,0 12.5,-0.157 12.5,-13.698 0,-8.388 -6.555,-11.911 -11.364,-12.395 z m -24.1,11.427 c -0.376,-0.303 -0.892,-0.362 -1.325,-0.155 -0.434,0.207 -0.711,0.644 -0.711,1.123 v 3.732 h -6.247 v 2.491 h 7.497 c 0.691,0 1.25,-0.558 1.25,-1.246 v -2.367 l 7.573,6.107 -7.573,6.107 v -2.371 c 0,-0.687 -0.559,-1.245 -1.25,-1.246 h -20 v -2.49 c 0,-0.469 -0.265,-0.899 -0.685,-1.111 -0.419,-0.212 -0.922,-0.169 -1.304,0.106 l -11.25,8.215 c -0.325,0.237 -0.514,0.613 -0.511,1.013 0.003,0.4 0.198,0.775 0.525,1.006 l 11.25,7.975 c 0.216,0.153 0.47,0.23 0.725,0.23 0.195,0 0.393,-0.045 0.573,-0.138 0.416,-0.214 0.677,-0.641 0.677,-1.107 v -2.471 h 6.25 v -2.491 h -7.5 c -0.691,0 -1.25,0.558 -1.25,1.246 v 1.301 l -7.865,-5.575 7.865,-5.742 v 1.279 c 0,0.687 0.559,1.245 1.25,1.245 h 20 v 3.736 c 0,0.479 0.277,0.917 0.711,1.123 0.432,0.208 0.95,0.148 1.325,-0.155 l 10.81,-8.718 c 0.294,-0.235 0.464,-0.592 0.464,-0.967 0,-0.376 -0.17,-0.731 -0.464,-0.968 z m -12.036,23.383 h 3.75 v -2.49 h -3.75 z m 7.5,0 h 15 v -2.49 h -15 z m -28.75,-16.189 h 16.189 v -2.49 h -16.189 z m 18.754,0 h 3.567 v -2.49 h -3.567 z"/></g></svg>