<svg xmlns="http://www.w3.org/2000/svg" viewBox="0 0 100 100"><defs/><defs><linearGradient id="a" x1="0" x2="1" y1="1" y2="0"><stop offset="0%" stop-color="#055F4E"/><stop offset="100%" stop-color="#56C0A7"/></linearGradient></defs><g><path fill="url(#a)" fill-rule="evenodd" d="m 0,0 h 100 v 100 h -100 z"/><path fill="#fff" fill-rule="evenodd" d="m 17.5,42.501 h 58.749 v -2.5 h -58.749 z m 27.5,-22.501 h 31.249 v -2.5 h -31.249 z m -12.5,0 h 3.75 v -2.5 h -3.75 z m -7.5,0 h 3.75 v -2.5 h -3.75 z m -7.5,0 h 3.75 v -2.5 h -3.75 z m 53.392,42.914 c 0,4.476 -3.506,7.983 -7.983,7.983 -4.476,0 -7.984,-3.506 -7.983,-7.983 0,-4.478 3.507,-7.984 7.983,-7.984 4.476,0 7.982,3.506 7.983,7.984 z m 2.5,0 c 0,-5.879 -4.605,-10.484 -10.483,-10.485 -5.879,0 -10.484,4.605 -10.483,10.485 0,5.878 4.605,10.483 10.483,10.483 5.877,0 10.482,-4.605 10.483,-10.483 z m 14.092,22.07 c 0.061,-0.464 -0.063,-0.855 -0.367,-1.161 l -10.179,-9.908 c -0.885,1.125 -1.9,2.14 -3.025,3.026 l 9.936,10.169 c 0.766,0.766 1.966,0.278 2.749,-0.505 0.491,-0.491 0.814,-1.083 0.886,-1.621 z m -24.575,-6.72 c 8.465,0 15.35,-6.887 15.35,-15.35 0,-8.465 -6.885,-15.352 -15.35,-15.352 -8.464,0 -15.35,6.887 -15.349,15.352 0,8.464 6.886,15.351 15.349,15.35 z m 27.053,7.051 c -0.145,1.089 -0.712,2.174 -1.597,3.057 -1.077,1.079 -2.36,1.628 -3.576,1.628 -1.002,0 -1.957,-0.373 -2.717,-1.131 l -10.263,-10.506 c -2.622,1.519 -5.657,2.401 -8.9,2.402 -9.842,0 -17.85,-8.008 -17.849,-17.851 0,-9.843 8.007,-17.852 17.849,-17.852 9.842,0 17.85,8.009 17.85,17.852 0,3.241 -0.882,6.275 -2.399,8.898 l 10.513,10.231 c 0.872,0.873 1.256,2.03 1.089,3.272 z m -72.462,-32.813 h 27.398 c 0.52,-0.874 1.089,-1.715 1.728,-2.5 h -29.126 z m 63.749,-28.751 v -8.751 c 0,-0.689 -0.56,-1.25 -1.25,-1.25 h -66.249 c -0.69,0 -1.25,0.561 -1.25,1.25 v 8.751 z m 2.5,-8.751 v 10.001 35.878 c -0.311,-2.818 -1.181,-5.467 -2.5,-7.837 v -26.791 h -68.749 v 53.752 h 37.912 c 1.327,0.989 2.761,1.844 4.303,2.5 h -43.465 c -0.691,0 -1.25,-0.56 -1.25,-1.25 v -56.252 -10.001 c 0,-2.068 1.682,-3.75 3.75,-3.75 h 66.249 c 2.067,0 3.75,1.683 3.75,3.75 z m -41.544,45.002 c -0.127,0.82 -0.206,1.653 -0.235,2.5 h -24.47 v -2.5 z"/></g></svg>