<svg xmlns="http://www.w3.org/2000/svg" viewBox="0 0 100 100"><defs/><defs><linearGradient id="a" x1="0" x2="1" y1="1" y2="0"><stop offset="0%" stop-color="#2E27AD"/><stop offset="100%" stop-color="#527FFF"/></linearGradient></defs><g><path fill="url(#a)" fill-rule="evenodd" d="m 0,0 h 100 v 100 h -100 z"/><path fill="#fff" fill-rule="evenodd" d="m 81.25,72.5 c -0.69,0 -1.25,-0.561 -1.25,-1.25 0,-0.689 0.56,-1.25 1.25,-1.25 0.69,0 1.25,0.561 1.25,1.25 0,0.689 -0.56,1.25 -1.25,1.25 z m -11.875,10 c -1.724,0 -3.125,-1.403 -3.125,-3.125 0,-1.722 1.401,-3.125 3.125,-3.125 1.724,0 3.125,1.403 3.125,3.125 0,1.722 -1.401,3.125 -3.125,3.125 z m -5.625,-21.875 c 0,-2.413 1.963,-4.375 4.375,-4.375 2.413,0 4.375,1.963 4.375,4.375 0,2.413 -1.963,4.375 -4.375,4.375 -2.413,0 -4.375,-1.963 -4.375,-4.375 z m -7.5,-10.625 c -0.69,0 -1.25,-0.561 -1.25,-1.25 0,-0.689 0.56,-1.25 1.25,-1.25 0.69,0 1.25,0.561 1.25,1.25 0,0.689 -0.56,1.25 -1.25,1.25 z m -3.75,17.5 c -1.379,0 -2.5,-1.121 -2.5,-2.5 0,-1.379 1.121,-2.5 2.5,-2.5 1.379,0 2.5,1.121 2.5,2.5 0,1.379 -1.121,2.5 -2.5,2.5 z m 26.25,-26.25 c 1.379,0 2.5,1.121 2.5,2.5 0,1.379 -1.121,2.5 -2.5,2.5 -1.379,0 -2.5,-1.121 -2.5,-2.5 0,-1.379 1.121,-2.5 2.5,-2.5 z m 2.5,26.25 c -2.067,0 -3.75,1.683 -3.75,3.75 0,0.557 0.13,1.081 0.349,1.558 l -4.381,2.735 c -0.821,-0.877 -1.913,-1.486 -3.147,-1.697 l -0.297,-6.618 c 2.869,-0.826 4.976,-3.471 4.976,-6.603 0,-1.84 -0.731,-3.51 -1.912,-4.745 l 4.356,-7.325 c 0.419,0.115 0.853,0.195 1.306,0.195 2.757,0 5,-2.243 5,-5 0,-2.757 -2.243,-5 -5,-5 -2.757,0 -5,2.243 -5,5 0,1.403 0.584,2.666 1.516,3.575 l -4.215,7.089 c -0.889,-0.421 -1.879,-0.664 -2.926,-0.664 -1.44,0 -2.777,0.448 -3.882,1.208 l -4.577,-4.679 c 0.21,-0.468 0.334,-0.983 0.334,-1.529 0,-2.067 -1.683,-3.75 -3.75,-3.75 -2.067,0 -3.75,1.683 -3.75,3.75 0,2.067 1.683,3.75 3.75,3.75 0.607,0 1.174,-0.159 1.684,-0.417 l 4.537,4.64 c -0.769,1.11 -1.221,2.454 -1.221,3.902 0,0.255 0.016,0.506 0.044,0.754 l -4.58,0.952 c -0.889,-1.396 -2.439,-2.331 -4.214,-2.331 -2.757,0 -5,2.243 -5,5 0,2.757 2.243,5 5,5 2.757,0 5,-2.243 5,-5 0,-0.094 -0.022,-0.181 -0.026,-0.272 l 4.55,-0.948 c 1.06,2.04 3.108,3.484 5.507,3.69 l 0.294,6.524 c -2.345,0.679 -4.075,2.821 -4.075,5.381 0,3.101 2.524,5.625 5.625,5.625 3.101,0 5.625,-2.524 5.625,-5.625 0,-0.584 -0.115,-1.137 -0.281,-1.667 l 4.934,-3.079 c 0.485,0.231 1.024,0.371 1.597,0.371 2.067,0 3.75,-1.683 3.75,-3.75 0,-2.067 -1.683,-3.75 -3.75,-3.75 z m -41.875,-48.75 c 12.155,0 20.625,3.952 20.625,7.5 0,3.548 -8.47,7.5 -20.625,7.5 -12.155,0 -20.625,-3.952 -20.625,-7.5 0,-3.548 8.47,-7.5 20.625,-7.5 z m 20.625,56.275 c 0,3.44 -8.47,7.275 -20.625,7.275 -12.155,0 -20.625,-3.835 -20.625,-7.275 v -10.3 c 3.696,3.152 11.171,5.218 20.209,5.218 2.129,0 4.28,-0.119 6.39,-0.353 l -0.275,-2.485 c -2.02,0.224 -4.077,0.338 -6.115,0.338 -12.089,0 -20.209,-3.794 -20.209,-7.335 v -12.249 c 3.696,3.152 11.171,5.216 20.209,5.216 4.331,0 8.536,-0.48 12.16,-1.39 l -0.609,-2.424 c -3.428,0.86 -7.421,1.314 -11.551,1.314 -12.089,0 -20.209,-3.792 -20.209,-7.335 v -12.337 c 3.746,3.229 11.38,5.347 20.625,5.347 9.245,0 16.879,-2.119 20.625,-5.347 v 14.097 h 2.5 v -18.75 c 0,-5.701 -9.941,-10 -23.125,-10 -13.184,0 -23.125,4.299 -23.125,10 v 48.775 c 0,5.572 9.941,9.775 23.125,9.775 13.184,0 23.125,-4.203 23.125,-9.775 v -6.275 h -2.5 z"/></g></svg>