<svg xmlns="http://www.w3.org/2000/svg" viewBox="0 0 100 100"><defs/><defs><linearGradient id="a" x1="0" x2="1" y1="1" y2="0"><stop offset="0%" stop-color="#C8511B"/><stop offset="100%" stop-color="#F90"/></linearGradient></defs><g><path fill="url(#a)" fill-rule="evenodd" d="m 0,0 h 100 v 100 h -100 z"/><path fill="#fff" fill-rule="evenodd" d="m 65,70.654 v -6.058 l 3.75,-1.5 v 6.058 z m -6.25,-7.558 3.75,1.5 v 6.058 l -3.75,-1.5 z m -7.5,16.308 v -6.058 l 3.75,-1.5 v 6.058 z m -6.25,-7.558 3.75,1.5 v 6.058 l -3.75,-1.5 z m -7.5,-1.192 v -6.058 l 3.75,-1.5 v 6.058 z m -6.25,-7.558 3.75,1.5 v 6.058 l -3.75,-1.5 z m 5,-3 2.885,1.154 -2.885,1.154 -2.885,-1.154 z m 13.75,8.75 2.885,1.154 -2.885,1.154 -2.885,-1.154 z m 13.75,-8.75 2.885,1.154 -2.885,1.154 -2.885,-1.154 z m 6.714,-0.007 -6.25,-2.5 c -0.297,-0.117 -0.63,-0.117 -0.928,0 l -6.25,2.5 c -0.475,0.191 -0.786,0.65 -0.786,1.161 v 7.404 l -5.786,-2.315 c -0.297,-0.117 -0.63,-0.117 -0.928,0 l -5.786,2.315 v -7.404 c 0,-0.511 -0.311,-0.97 -0.786,-1.161 l -6.25,-2.5 c -0.297,-0.117 -0.63,-0.117 -0.928,0 l -6.25,2.5 c -0.475,0.191 -0.786,0.65 -0.786,1.161 v 8.75 c 0,0.511 0.311,0.97 0.786,1.161 l 6.25,2.5 c 0.149,0.059 0.306,0.089 0.464,0.089 0.158,0 0.315,-0.03 0.464,-0.089 l 5.786,-2.315 v 7.404 c 0,0.511 0.311,0.97 0.786,1.161 l 6.25,2.5 c 0.149,0.059 0.306,0.089 0.464,0.089 0.158,0 0.315,-0.03 0.464,-0.089 l 6.25,-2.5 c 0.475,-0.191 0.786,-0.65 0.786,-1.161 v -7.404 l 5.786,2.315 c 0.149,0.059 0.306,0.089 0.464,0.089 0.158,0 0.315,-0.03 0.464,-0.089 l 6.25,-2.5 c 0.475,-0.191 0.786,-0.65 0.786,-1.161 v -8.75 c 0,-0.511 -0.311,-0.97 -0.786,-1.161 z m 10.786,-15.166 c 0,7.306 -16.101,11.25 -31.25,11.25 -15.149,0 -31.25,-3.944 -31.25,-11.25 0,-3.489 3.869,-6.56 10.894,-8.649 l 0.712,2.396 c -5.617,1.67 -9.106,4.066 -9.106,6.253 0,4.139 11.806,8.75 28.75,8.75 16.944,0 28.75,-4.611 28.75,-8.75 0,-2.186 -3.489,-4.582 -9.106,-6.253 l 0.712,-2.396 c 7.025,2.089 10.894,5.16 10.894,8.649 z m -31.25,-23.584 12.768,4.911 -12.768,4.911 -12.768,-4.911 z m 13.225,24.714 c -2.357,1.055 -6.315,2.284 -11.975,2.448 v -15.142 l 13.75,-5.288 v 15.239 c 0,1.189 -0.695,2.265 -1.775,2.743 z m -28.225,-2.743 v -15.239 l 13.75,5.288 v 15.142 c -5.66,-0.165 -9.617,-1.394 -11.98,-2.451 -1.075,-0.475 -1.77,-1.551 -1.77,-2.74 z m 0.755,5.024 c 2.751,1.231 7.456,2.7 14.245,2.7 6.789,0 11.494,-1.469 14.241,-2.698 1.98,-0.876 3.259,-2.849 3.259,-5.026 v -17.06 c 0,-0.517 -0.319,-0.981 -0.801,-1.167 l -16.25,-6.25 c -0.29,-0.11 -0.607,-0.11 -0.898,0 l -16.25,6.25 c -0.483,0.186 -0.801,0.65 -0.801,1.167 v 17.06 c 0,2.178 1.279,4.15 3.255,5.024 z"/></g></svg>