<svg xmlns="http://www.w3.org/2000/svg" viewBox="0 0 100 100"><defs/><defs><linearGradient id="a" x1="0" x2="1" y1="1" y2="0"><stop offset="0%" stop-color="#2E27AD"/><stop offset="100%" stop-color="#527FFF"/></linearGradient></defs><g><path fill="url(#a)" fill-rule="evenodd" d="m 0,0 h 100 v 100 h -100 z"/><path fill="#fff" fill-rule="evenodd" d="m 37.5,38.75 h 6.25 v -2.5 h -6.25 z m 8.334,37.708 -2.313,-0.949 9.49,-23.153 2.313,0.949 z m 11.13,-6.733 6.871,-6.027 -6.866,-5.952 1.638,-1.89 7.949,6.892 c 0.273,0.236 0.43,0.58 0.432,0.941 0.001,0.361 -0.154,0.705 -0.427,0.944 l -7.949,6.972 z m -25.078,-5.915 c -0.003,-0.361 0.151,-0.705 0.423,-0.944 l 7.921,-7.002 1.655,1.874 -6.849,6.053 6.811,5.872 -1.633,1.893 -7.895,-6.807 c -0.273,-0.235 -0.43,-0.578 -0.433,-0.939 z m 46.283,-20.06 h -55.088 c -2.387,0 -4.331,-1.943 -4.331,-4.33 v -0.67 h 15 v -2.5 h -15 v -13.17 c 0,-2.387 1.944,-4.33 4.331,-4.33 h 55.088 c 2.387,0 4.331,1.943 4.331,4.33 v 13.17 h -35 v 2.5 h 35 v 0.67 c 0,2.387 -1.944,4.33 -4.331,4.33 z m -50.669,38.75 h 45 v -36.25 h -45 z m 50.669,-66.25 h -55.088 c -3.767,0 -6.831,3.064 -6.831,6.83 v 16.34 c 0,3.766 3.064,6.83 6.831,6.83 h 1.919 v 37.5 c 0,0.69 0.559,1.25 1.25,1.25 h 47.5 c 0.691,0 1.25,-0.56 1.25,-1.25 v -37.5 h 3.169 c 3.767,0 6.831,-3.064 6.831,-6.83 v -16.34 c 0,-3.766 -3.064,-6.83 -6.831,-6.83 z"/></g></svg>