<svg xmlns="http://www.w3.org/2000/svg" viewBox="0 0 100 100"><defs/><defs><linearGradient id="a" x1="0" x2="1" y1="1" y2="0"><stop offset="0%" stop-color="#BD0816"/><stop offset="100%" stop-color="#FF5252"/></linearGradient></defs><g><path fill="url(#a)" fill-rule="evenodd" d="m 0,0 h 100 v 100 h -100 z"/><path fill="#fff" fill-rule="evenodd" d="m 44.618,49.101 c 0.313,0.301 0.445,0.741 0.353,1.165 l -1.281,5.887 5.656,-3.468 c 0.401,-0.247 0.906,-0.247 1.309,10e-4 l 5.615,3.459 -1.244,-5.896 c -0.088,-0.419 0.044,-0.853 0.349,-1.151 l 5.049,-4.943 -6.583,-0.95 c -0.41,-0.06 -0.762,-0.318 -0.945,-0.689 l -2.907,-5.952 -2.976,5.967 c -0.181,0.366 -0.532,0.62 -0.938,0.679 l -6.564,0.959 z m -3.994,9.383 1.756,-8.069 -6.435,-6.216 c -0.344,-0.331 -0.468,-0.828 -0.322,-1.283 0.146,-0.454 0.537,-0.785 1.008,-0.852 l 8.435,-1.234 3.815,-7.649 c 0.211,-0.425 0.611,-0.717 1.124,-0.692 0.475,0.003 0.909,0.275 1.118,0.701 l 3.73,7.635 8.43,1.219 c 0.471,0.068 0.861,0.396 1.008,0.849 0.147,0.453 0.027,0.949 -0.313,1.281 l -6.364,6.23 1.704,8.075 c 0.103,0.49 -0.095,0.994 -0.505,1.281 -0.408,0.288 -0.948,0.304 -1.374,0.043 l -7.44,-4.585 -7.5,4.597 c -0.2,0.124 -0.428,0.185 -0.654,0.185 -0.254,0 -0.508,-0.077 -0.724,-0.231 -0.408,-0.29 -0.604,-0.796 -0.497,-1.285 z m -23.124,-32.208 h 65 v -6.276 h -65 z m 67.5,-7.526 v 62.5 c 0,0.69 -0.56,1.25 -1.25,1.25 h -7.5 v -2.5 h 6.25 v -51.222 h -65 v 51.222 h 47.5 v 2.5 h -48.75 c -0.691,0 -1.25,-0.56 -1.25,-1.25 v -62.5 c 0,-0.69 0.559,-1.25 1.25,-1.25 h 67.5 c 0.69,0 1.25,0.56 1.25,1.25 z m -55,55 h 7.5 v -2.5 h -7.5 z m 12.5,0 h 17.5 v -2.5 h -17.5 z m -12.5,-6.25 h 7.5 v -2.5 h -7.5 z m 12.5,0 h 27.5 v -2.5 h -27.5 z"/></g></svg>