<svg xmlns="http://www.w3.org/2000/svg" viewBox="0 0 100 100"><defs/><defs><linearGradient id="a" x1="0" x2="1" y1="1" y2="0"><stop offset="0%" stop-color="#B0084D"/><stop offset="100%" stop-color="#FF4F8B"/></linearGradient></defs><g><path fill="url(#a)" fill-rule="evenodd" d="m 0,0 h 100 v 100 h -100 z"/><path fill="#fff" fill-rule="evenodd" d="m 50,29.75 c 2.895,0 5.25,2.355 5.25,5.25 0,2.895 -2.355,5.25 -5.25,5.25 -2.895,0 -5.25,-2.355 -5.25,-5.25 0,-2.895 2.355,-5.25 5.25,-5.25 z m 0,13 c 4.274,0 7.75,-3.476 7.75,-7.75 0,-4.274 -3.476,-7.75 -7.75,-7.75 -4.274,0 -7.75,3.476 -7.75,7.75 0,4.274 3.476,7.75 7.75,7.75 z m -15,-9.656 1.379,0.079 c 0.564,0.03 1.154,-0.375 1.29,-0.972 0.316,-1.396 0.865,-2.721 1.633,-3.937 0.326,-0.517 0.231,-1.194 -0.223,-1.6 l -1.033,-0.923 2.696,-2.695 0.92,1.031 c 0.405,0.456 1.084,0.549 1.599,0.225 1.214,-0.765 2.539,-1.314 3.939,-1.63 0.595,-0.135 1.006,-0.68 0.971,-1.29 l -0.077,-1.382 h 3.812 l -0.077,1.385 c -0.035,0.609 0.376,1.155 0.971,1.29 1.396,0.315 2.721,0.865 3.935,1.631 0.516,0.324 1.194,0.23 1.6,-0.226 l 0.922,-1.034 2.697,2.695 -1.03,0.92 c -0.455,0.406 -0.55,1.084 -0.224,1.6 0.767,1.215 1.316,2.54 1.632,3.939 0.136,0.596 0.714,1.002 1.29,0.972 l 1.378,-0.078 v 3.812 l -1.376,-0.079 c -0.578,-0.03 -1.154,0.376 -1.29,0.974 -0.315,1.399 -0.864,2.725 -1.631,3.942 -0.326,0.517 -0.231,1.194 0.223,1.599 l 1.028,0.917 -2.695,2.696 -0.912,-1.023 c -0.408,-0.458 -1.086,-0.55 -1.601,-0.225 -1.216,0.769 -2.545,1.319 -3.946,1.635 -0.595,0.135 -1.006,0.681 -0.971,1.292 l 0.077,1.366 h -3.812 l 0.077,-1.369 c 0.035,-0.609 -0.376,-1.155 -0.971,-1.29 -1.399,-0.316 -2.726,-0.867 -3.944,-1.636 -0.516,-0.326 -1.194,-0.234 -1.6,0.225 l -0.915,1.025 -2.695,-2.696 1.025,-0.914 c 0.455,-0.406 0.55,-1.084 0.225,-1.6 -0.769,-1.214 -1.318,-2.541 -1.632,-3.944 -0.135,-0.597 -0.711,-1.006 -1.29,-0.974 l -1.374,0.079 z m -1.179,6.384 1.674,-0.095 c 0.29,0.963 0.674,1.891 1.149,2.776 l -1.251,1.115 c -0.256,0.23 -0.408,0.554 -0.418,0.899 -0.009,0.344 0.124,0.676 0.366,0.918 l 4.569,4.568 c 0.242,0.244 0.574,0.386 0.919,0.365 0.344,-0.01 0.669,-0.16 0.897,-0.418 l 1.115,-1.25 c 0.886,0.476 1.815,0.861 2.776,1.153 l -0.094,1.67 c -0.02,0.344 0.103,0.68 0.338,0.93 0.236,0.25 0.565,0.391 0.909,0.391 h 6.46 c 0.344,0 0.673,-0.141 0.909,-0.391 0.236,-0.25 0.359,-0.586 0.338,-0.93 l -0.095,-1.669 c 0.963,-0.29 1.893,-0.675 2.779,-1.151 l 1.113,1.247 c 0.229,0.256 0.554,0.408 0.897,0.418 0.32,0.025 0.677,-0.121 0.919,-0.365 l 4.569,-4.568 c 0.242,-0.242 0.375,-0.575 0.366,-0.918 -0.01,-0.345 -0.161,-0.669 -0.418,-0.898 l -1.253,-1.119 c 0.475,-0.885 0.859,-1.813 1.148,-2.773 l 1.677,0.095 c 0.344,0.016 0.68,-0.103 0.93,-0.339 0.25,-0.236 0.391,-0.565 0.391,-0.909 v -6.459 c 0,-0.344 -0.141,-0.673 -0.391,-0.908 -0.249,-0.236 -0.585,-0.361 -0.93,-0.34 l -1.679,0.096 c -0.29,-0.96 -0.674,-1.887 -1.149,-2.771 l 1.256,-1.122 c 0.256,-0.229 0.408,-0.552 0.418,-0.897 0.009,-0.344 -0.124,-0.676 -0.366,-0.919 l -4.569,-4.567 c -0.242,-0.244 -0.569,-0.38 -0.919,-0.365 -0.344,0.009 -0.669,0.16 -0.897,0.417 l -1.124,1.26 c -0.884,-0.474 -1.81,-0.859 -2.768,-1.147 l 0.095,-1.687 c 0.02,-0.344 -0.103,-0.68 -0.338,-0.928 -0.236,-0.251 -0.565,-0.393 -0.909,-0.393 h -6.46 c -0.344,0 -0.673,0.141 -0.909,0.393 -0.236,0.249 -0.359,0.585 -0.339,0.928 l 0.095,1.684 c -0.959,0.289 -1.886,0.674 -2.77,1.146 l -1.121,-1.257 c -0.23,-0.256 -0.554,-0.408 -0.897,-0.416 -0.341,-0.011 -0.676,0.121 -0.919,0.365 l -4.569,4.567 c -0.242,0.242 -0.375,0.575 -0.366,0.919 0.01,0.344 0.161,0.669 0.417,0.897 l 1.259,1.123 c -0.476,0.885 -0.86,1.811 -1.15,2.77 l -1.68,-0.096 c -0.346,-0.022 -0.681,0.104 -0.93,0.34 -0.25,0.236 -0.391,0.565 -0.391,0.908 v 6.459 c 0,0.344 0.141,0.673 0.391,0.909 0.25,0.236 0.585,0.356 0.93,0.339 z m 36.179,41.772 h 7.5 v -12.5 h -7.5 z m -23.75,0 h 7.5 v -12.5 h -7.5 z m -23.75,0 h 7.5 v -12.5 h -7.5 z m 56.25,-15 h -3.75 v -6.25 c 0,-0.69 -0.559,-1.25 -1.25,-1.25 h -22.5 v -3.75 h -2.5 v 3.75 h -22.5 c -0.691,0 -1.25,0.56 -1.25,1.25 v 6.25 h -3.75 c -0.691,0 -1.25,0.56 -1.25,1.25 v 15 c 0,0.69 0.559,1.25 1.25,1.25 h 10 c 0.691,0 1.25,-0.56 1.25,-1.25 v -15 c 0,-0.69 -0.559,-1.25 -1.25,-1.25 h -3.75 v -5 h 21.25 v 5 h -3.75 c -0.691,0 -1.25,0.56 -1.25,1.25 v 15 c 0,0.69 0.559,1.25 1.25,1.25 h 10 c 0.691,0 1.25,-0.56 1.25,-1.25 v -15 c 0,-0.69 -0.559,-1.25 -1.25,-1.25 h -3.75 v -5 h 21.25 v 5 h -3.75 c -0.691,0 -1.25,0.56 -1.25,1.25 v 15 c 0,0.69 0.559,1.25 1.25,1.25 h 10 c 0.691,0 1.25,-0.56 1.25,-1.25 v -15 c 0,-0.69 -0.559,-1.25 -1.25,-1.25 z"/></g></svg>