<svg xmlns="http://www.w3.org/2000/svg" viewBox="0 0 100 100"><defs/><defs><linearGradient id="a" x1="0" x2="1" y1="1" y2="0"><stop offset="0%" stop-color="#055F4E"/><stop offset="100%" stop-color="#56C0A7"/></linearGradient></defs><g><path fill="url(#a)" fill-rule="evenodd" d="m 0,0 h 100 v 100 h -100 z"/><path fill="#fff" fill-rule="evenodd" d="m 41.25,51.25 h 3.75 v -2.5 h -3.75 z m 7.5,25 h 2.5 v -3.75 h -2.5 z m 0,-6.25 h 2.5 v -3.75 h -2.5 z m 0,-12.5 h 2.5 v -3.75 h -2.5 z m 0,6.25 h 2.5 v -3.75 h -2.5 z m -13.75,-12.5 h 3.75 v -2.5 h -3.75 z m -6.25,0 h 3.75 v -2.5 h -3.75 z m -6.25,0 h 3.75 v -2.5 h -3.75 z m 28.75,31.25 v -3.75 h -2.5 v 3.75 h -31.25 v -31.25 h 2.5 v -2.5 h -2.5 v -31.25 h 31.25 v 31.25 h -1.25 v 2.5 h 2.5 1.25 31.25 v 31.25 z m 0,-63.233 29.482,29.483 h -29.482 z m 33.75,30.733 c 0,-0.325 -0.128,-0.645 -0.366,-0.884 l -33.75,-33.75 c -0.24,-0.239 -0.559,-0.366 -0.884,-0.366 h -33.75 c -0.691,0 -1.25,0.56 -1.25,1.25 v 67.5 c 0,0.69 0.559,1.25 1.25,1.25 h 67.5 c 0.69,0 1.25,-0.56 1.25,-1.25 z"/></g></svg>