<svg xmlns="http://www.w3.org/2000/svg" viewBox="0 0 100 100"><defs/><defs><linearGradient id="a" x1="0" x2="1" y1="1" y2="0"><stop offset="0%" stop-color="#B0084D"/><stop offset="100%" stop-color="#FF4F8B"/></linearGradient></defs><g><path fill="url(#a)" fill-rule="evenodd" d="m 0,0 h 100 v 100 h -100 z"/><path fill="#fff" fill-rule="evenodd" d="m 31.25,66.245 h 5 v -2.502 h -5 z m 43.714,-18.541 c -0.281,-3.796 -2.138,-6.591 -5.087,-7.578 -2.374,-0.792 -4.989,-0.233 -6.98,1.39 -1.208,-2.381 -3.022,-4.713 -4.52,-6.191 -5.37,-5.3 -11.293,-6.652 -17.607,-4.018 -5.637,2.346 -10.77,10.052 -10.77,16.17 v 0.237 c -3.384,1.144 -6.114,3.629 -7.408,6.797 l 2.315,0.946 c 1.649,-4.038 5.507,-5.304 6.652,-5.596 0.554,-0.141 0.941,-0.641 0.941,-1.212 v -1.172 c 0,-5.056 4.571,-11.921 9.231,-13.86 5.369,-2.238 10.241,-1.102 14.891,3.489 1.978,1.951 3.911,4.845 4.703,7.041 0.155,0.433 0.535,0.744 0.99,0.813 0.45,0.069 0.906,-0.118 1.184,-0.485 1.381,-1.837 3.621,-2.633 5.587,-1.976 2.169,0.727 3.414,2.997 3.414,6.229 0,0.612 0.443,1.134 1.045,1.234 0.916,0.153 8.955,1.728 8.955,10.027 0,8.596 -8.399,8.756 -8.75,8.759 h -28.75 v 2.502 h 28.752 c 3.89,-0.007 11.247,-2.37 11.248,-11.261 0,-7.759 -5.901,-11.252 -10.036,-12.285 z m -36.214,18.541 h 17.5 v -2.502 h -17.5 z m -5,5.005 h 7.5 v -2.502 h -7.5 z m -18.75,0 h 3.75 v -2.502 h -3.75 z m 3.75,-10.01 h 11.25 v -2.502 h -11.25 z m -2.5,5.005 h 12.5 v -2.502 h -12.5 z m 17.5,-5.005 h 8.75 v -2.502 h -8.75 z m -12.5,10.01 h 10 v -2.502 h -10 z"/></g></svg>