<svg xmlns="http://www.w3.org/2000/svg" viewBox="0 0 100 100"><defs/><defs><linearGradient id="a" x1="0" x2="1" y1="1" y2="0"><stop offset="0%" stop-color="#C8511B"/><stop offset="100%" stop-color="#F90"/></linearGradient></defs><g><path fill="url(#a)" fill-rule="evenodd" d="m 0,0 h 100 v 100 h -100 z"/><path fill="#fff" fill-rule="evenodd" d="m 78.645,34.242 -5.644,-3.259 c 2.415,4.676 4.299,9.258 5.644,13.723 z m -14.843,34.29 c 0,2.749 -0.532,5.391 -1.527,7.748 4.175,-3.865 6.7,-9.59 6.7,-15.69 0,-5.883 -1.467,-11.774 -3.606,-17.239 l -3.372,1.946 -1.25,-2.165 3.658,-2.112 c -4.777,-11.006 -11.929,-19.92 -14.452,-22.887 -2.522,2.968 -9.671,11.885 -14.452,22.889 l 3.655,2.11 -1.25,2.165 -3.367,-1.944 c -2.14,5.465 -3.609,11.357 -3.609,17.237 0,6.101 2.524,11.825 6.699,15.69 -0.994,-2.356 -1.527,-4.999 -1.528,-7.748 0,-16.172 12.35,-31.777 12.877,-32.434 0.236,-0.296 0.595,-0.469 0.975,-0.468 0.38,0 0.739,0.173 0.975,0.468 0.526,0.656 12.875,16.261 12.875,32.434 z m -2.5,0 c 0,-12.725 -8.435,-25.524 -11.35,-29.566 -2.914,4.046 -11.351,16.858 -11.351,29.566 0,3.761 1.126,7.274 3.141,9.935 -0.239,-0.936 -0.364,-1.917 -0.363,-2.916 v -0.421 c 0,-9.42 7.314,-18.054 7.625,-18.417 0.237,-0.278 0.584,-0.438 0.948,-0.437 0.365,0 0.711,0.16 0.949,0.437 0.311,0.362 7.624,8.996 7.624,18.417 v 0.421 c 0,1 -0.125,1.981 -0.364,2.919 2.015,-2.661 3.141,-6.174 3.141,-9.938 z m -40.043,-23.821 c 1.345,-4.469 3.229,-9.05 5.643,-13.728 l -5.643,3.259 z m 59.896,16.054 h -0.01 v 7.331 c 0,0.448 -0.237,0.86 -0.625,1.084 l -20.177,11.648 c -0.144,0.085 -0.288,0.169 -0.433,0.25 l -6.899,3.984 -1.25,-2.166 1.168,-0.673 c 1.911,-1.366 3.096,-3.919 3.096,-6.672 v -0.421 c 0,-6.558 -4.155,-12.961 -6.072,-15.569 -1.919,2.607 -6.074,9.011 -6.074,15.569 v 0.421 c 0,2.754 1.185,5.305 3.096,6.671 l 0.816,0.471 -1.25,2.167 -6.571,-3.795 c -0.129,-0.073 -0.258,-0.147 -0.385,-0.223 l -20.201,-11.662 c -0.388,-0.224 -0.625,-0.636 -0.625,-1.084 l -0.009,-7.331 c 0,-0.3 0.003,-0.6 0.009,-0.902 v -26.342 c 0,-0.448 0.237,-0.86 0.625,-1.083 l 10.12,-5.843 c 0.486,-0.283 1.105,-0.203 1.507,0.197 0.4,0.399 0.483,1.017 0.202,1.508 -6.418,11.193 -9.765,21.814 -9.954,31.587 v 7.488 l 11.009,6.356 c -2.446,-3.799 -3.837,-8.369 -3.838,-13.141 0,-6.414 1.653,-12.784 3.919,-18.503 l -3.149,-1.816 1.25,-2.166 2.868,1.656 c 1.7,-3.893 3.633,-7.42 5.432,-10.368 5.074,-8.309 10.072,-13.777 10.283,-14.006 0.473,-0.516 1.366,-0.516 1.84,0 0.21,0.229 5.209,5.697 10.282,14.006 1.8,2.948 3.733,6.475 5.433,10.368 l 2.866,-1.656 1.25,2.166 -3.148,1.816 c 2.265,5.719 3.919,12.089 3.919,18.503 0,4.771 -1.393,9.341 -3.839,13.141 l 11.009,-6.356 v -7.549 c -0.203,-9.756 -3.549,-20.358 -9.952,-31.526 -0.283,-0.49 -0.199,-1.109 0.201,-1.507 0.401,-0.401 1.021,-0.479 1.507,-0.198 l 10.119,5.843 c 0.388,0.222 0.625,0.635 0.625,1.083 v 26.279 c 0.006,0.323 0.01,0.644 0.01,0.965 z m -40.33,-37.82 -1.25,-2.165 -5.484,3.166 1.25,2.166 z m 23.739,3.167 -5.484,-3.167 1.25,-2.165 5.484,3.167 z"/></g></svg>