<svg xmlns="http://www.w3.org/2000/svg" viewBox="0 0 100 100"><defs/><defs><linearGradient id="a" x1="0" x2="1" y1="1" y2="0"><stop offset="0%" stop-color="#2E27AD"/><stop offset="100%" stop-color="#527FFF"/></linearGradient></defs><g><path fill="url(#a)" fill-rule="evenodd" d="m 0,0 h 100 v 100 h -100 z"/><path fill="#fff" fill-rule="evenodd" d="m 65.347,45.579 c -1.379,0 -2.5,-1.119 -2.499,-2.494 0,-1.375 1.121,-2.494 2.5,-2.494 1.379,0 2.5,1.119 2.5,2.494 0,1.375 -1.121,2.494 -2.5,2.494 m -11.25,12.47 c -1.379,0 -2.5,-1.119 -2.5,-2.494 0,-1.375 1.121,-2.494 2.5,-2.494 1.379,0 2.5,1.119 2.5,2.494 0,1.375 -1.121,2.494 -2.5,2.494 m -10,-14.964 c -1.379,0 -2.5,-1.119 -2.5,-2.494 0,-1.375 1.121,-2.494 2.5,-2.494 1.379,0 2.5,1.119 2.5,2.494 0,1.375 -1.121,2.494 -2.5,2.494 m -12.5,12.47 c -1.379,0 -2.5,-1.119 -2.5,-2.494 0,-1.375 1.121,-2.494 2.5,-2.494 1.379,0 2.5,1.119 2.5,2.494 0,1.375 -1.121,2.494 -2.5,2.494 m 33.75,-17.458 c -2.757,0 -5,2.237 -5,4.988 0,1.322 0.527,2.518 1.372,3.41 l -4.544,5.159 c -0.851,-0.671 -1.911,-1.087 -3.078,-1.087 -0.509,0 -0.991,0.099 -1.455,0.241 l -4.665,-7.109 c 0.689,-0.855 1.12,-1.928 1.12,-3.108 0,-2.751 -2.243,-4.988 -5,-4.988 -2.757,0 -5,2.237 -5,4.988 0,1.086 0.359,2.084 0.952,2.904 l -5.555,5.516 c -0.82,-0.585 -1.815,-0.938 -2.897,-0.938 -2.757,0 -5,2.237 -5,4.988 0,2.751 2.243,4.988 5,4.988 2.757,0 5,-2.237 5,-4.988 0,-0.763 -0.186,-1.48 -0.495,-2.128 l 5.88,-5.839 c 0.644,0.303 1.356,0.485 2.115,0.485 0.665,0 1.298,-0.136 1.88,-0.372 l 4.526,6.895 c -0.866,0.898 -1.406,2.111 -1.406,3.453 0,2.751 2.243,4.988 5,4.988 2.757,0 5,-2.237 5,-4.988 0,-0.665 -0.136,-1.298 -0.375,-1.878 l 5.151,-5.85 c 0.469,0.145 0.958,0.246 1.474,0.246 2.757,0 5,-2.237 5,-4.988 0,-2.751 -2.243,-4.988 -5,-4.988 m 8.04,24.94 h -11.428 c -0.265,0 -0.522,0.084 -0.736,0.24 l -19.626,14.274 v -13.267 c 0,-0.688 -0.559,-1.247 -1.25,-1.247 h -14.097 c -1.265,-10e-4 -2.264,-0.243 -3.052,-0.741 -2.6,-1.637 -5.699,-4.787 -5.699,-10.498 0,-7.621 5.314,-10.118 8.483,-10.931 0.579,-0.148 0.971,-0.686 0.936,-1.281 l -0.126,-2.092 c 0,-6.068 4.19,-12.595 9.537,-14.861 2.406,-1.019 4.63,-1.424 6.646,-1.424 5.731,0 9.78,3.281 11.548,5.056 1.944,1.952 3.462,4.444 4.51,7.412 0.154,0.435 0.537,0.751 0.995,0.818 0.461,0.066 0.916,-0.122 1.19,-0.494 1.59,-2.151 4.328,-3.049 6.81,-2.234 2.786,0.913 4.394,3.621 4.421,7.437 l -0.007,0.041 c -0.105,0.673 0.35,1.307 1.022,1.423 2.414,0.415 10.285,2.45 10.285,11.236 0,10.211 -10.03,11.105 -10.362,11.133 m 1.537,-24.616 c -0.258,-4.498 -2.502,-7.839 -6.116,-9.024 -2.836,-0.93 -5.905,-0.289 -8.155,1.589 -1.114,-2.518 -2.574,-4.691 -4.358,-6.48 -5.721,-5.743 -13.551,-7.3 -20.942,-4.168 -6.306,2.671 -11.061,10.047 -11.059,17.23 l 0.07,1.175 c -3.438,1.121 -9.365,4.326 -9.365,13.055 0,7.209 4.3,10.994 6.864,12.607 1.2,0.756 2.634,1.125 4.386,1.126 h 12.848 v 14.472 c 0,0.47 0.264,0.899 0.683,1.112 0.177,0.091 0.372,0.135 0.567,0.135 0.26,0 0.519,-0.08 0.736,-0.238 l 21.284,-15.481 11.111,-0.002 c 0.126,-0.01 12.771,-1.076 12.771,-13.625 0,-9.676 -7.686,-12.629 -11.325,-13.483"/></g></svg>