<svg xmlns="http://www.w3.org/2000/svg" viewBox="0 0 100 100"><defs/><defs><linearGradient id="a" x1="0" x2="1" y1="1" y2="0"><stop offset="0%" stop-color="#2E27AD"/><stop offset="100%" stop-color="#527FFF"/></linearGradient></defs><g><path fill="url(#a)" fill-rule="evenodd" d="m 0,0 h 100 v 100 h -100 z"/><path fill="#fff" fill-rule="evenodd" d="m 85,49.132 c 0,8.661 -5.917,11.838 -9.443,12.962 l -0.75,-2.384 c 3.518,-1.12 7.711,-3.864 7.711,-10.578 0,-8.489 -6.948,-10.608 -9.934,-11.126 -0.666,-0.115 -1.117,-0.746 -1.018,-1.418 v 0 c -0.295,-3.868 -2.094,-6.65 -4.828,-7.455 -2.271,-0.667 -4.71,0.217 -6.206,2.26 -0.272,0.371 -0.731,0.56 -1.181,0.493 -0.454,-0.067 -0.834,-0.384 -0.986,-0.819 -1.031,-2.937 -2.525,-5.407 -4.44,-7.343 -2.35,-2.374 -8.797,-7.481 -17.909,-3.597 -5.262,2.244 -9.384,8.71 -9.384,14.719 0,0.669 0.04,1.342 0.119,2.003 0.073,0.622 -0.323,1.203 -0.925,1.358 -3.117,0.801 -8.344,3.27 -8.344,10.82 0,0.245 0.006,0.485 0.018,0.721 0.233,4.86 3.784,9.035 8.638,10.156 l -0.556,2.436 c -5.931,-1.371 -10.275,-6.497 -10.561,-12.467 -0.015,-0.272 -0.021,-0.557 -0.021,-0.846 0,-8.634 5.797,-11.818 9.19,-12.94 -0.026,-0.414 -0.04,-0.829 -0.039,-1.241 0,-7.053 4.685,-14.37 10.898,-17.021 7.281,-3.107 14.996,-1.561 20.633,4.134 1.753,1.772 3.19,3.921 4.286,6.41 2.086,-1.766 4.844,-2.406 7.467,-1.634 3.598,1.058 6.007,4.398 6.543,9.008 3.52,0.829 11.022,3.733 11.022,13.389 z m -13.877,27.51 -8.669,4.858 v -10.807 l 8.669,-4.928 z m -22.363,-0.031 -8.651,4.985 v -10.946 l 8.651,-4.912 z m -9.895,-8.123 -8.653,-4.856 8.668,-4.856 8.585,4.827 z m -9.964,-2.73 8.727,4.897 v 10.947 l -8.727,-4.994 z m 21.136,-25.691 8.602,4.806 -8.638,4.831 -8.57,-4.806 z m 2.503,23.539 8.654,-4.85 8.638,4.873 -8.619,4.899 z m -1.299,2.13 8.732,4.957 v 10.807 l -8.732,-4.899 z m 8.714,-9.146 -8.714,4.882 v -9.603 l 8.714,-4.873 z m -19.833,-9.566 8.638,4.843 v 9.602 l -8.638,-4.858 z m 32.867,15.522 c -0.006,-0.004 -0.014,-0.005 -0.019,-0.009 l 0.001,-0.002 -10.534,-5.943 v -11.719 c 0,-0.444 -0.232,-0.852 -0.612,-1.077 -0.01,-0.005 -0.019,-0.007 -0.028,-0.013 l 0.002,-0.003 -11.161,-6.235 c -0.377,-0.209 -0.834,-0.209 -1.206,10e-4 l -11.154,6.261 0.001,0.003 c -0.009,0.005 -0.019,0.006 -0.027,0.011 -0.378,0.225 -0.612,0.635 -0.612,1.077 v 11.711 l -10.582,5.929 0.002,0.003 c -0.01,0.005 -0.02,0.007 -0.028,0.012 -0.378,0.224 -0.612,0.635 -0.612,1.078 v 13.705 c 0,0.45 0.239,0.865 0.628,1.086 l 11.198,6.409 0.01,0.007 v -0.002 c 0.191,0.109 0.402,0.164 0.612,0.164 0.212,0 0.426,-0.055 0.617,-0.165 l 10.524,-6.065 10.601,5.948 0.002,-0.004 c 0.187,0.105 0.393,0.161 0.601,0.161 0.207,0 0.416,-0.052 0.603,-0.157 l 11.152,-6.249 c 0.393,-0.221 0.637,-0.639 0.637,-1.092 v -13.751 c 0,-0.445 -0.233,-0.855 -0.616,-1.08 z"/></g></svg>