<svg xmlns="http://www.w3.org/2000/svg" viewBox="0 0 100 100"><defs/><defs><linearGradient id="a" x1="0" x2="1" y1="1" y2="0"><stop offset="0%" stop-color="#B0084D"/><stop offset="100%" stop-color="#FF4F8B"/></linearGradient></defs><g><path fill="url(#a)" fill-rule="evenodd" d="m 0,0 h 100 v 100 h -100 z"/><path fill="#fff" fill-rule="evenodd" d="m 25.171,64.504 c -1.224,-2.091 -2.179,-4.334 -2.838,-6.663 l 2.405,-0.681 c 0.603,2.126 1.474,4.171 2.592,6.081 z m -0.433,-21.663 -2.405,-0.681 c 0.646,-2.281 1.576,-4.48 2.765,-6.536 l 2.163,1.252 c -1.085,1.875 -1.934,3.882 -2.523,5.965 z m 14.523,-16.801 -1.022,-2.28 c 3.708,-1.665 7.665,-2.51 11.761,-2.51 4.098,0 8.055,0.845 11.761,2.51 l -1.022,2.28 c -3.384,-1.519 -6.997,-2.29 -10.739,-2.29 -3.741,0 -7.355,0.771 -10.739,2.29 z m 35.642,9.584 c 1.189,2.056 2.119,4.255 2.764,6.536 l -2.405,0.681 c -0.589,-2.083 -1.438,-4.09 -2.522,-5.965 z m 0.359,21.536 2.405,0.681 c -0.646,2.281 -1.576,4.48 -2.765,6.535 l -2.162,-1.252 c 1.085,-1.875 1.934,-3.881 2.522,-5.964 z m -14.523,16.801 1.022,2.28 c -3.706,1.665 -7.664,2.509 -11.761,2.509 -4.096,0 -8.054,-0.844 -11.761,-2.509 l 1.022,-2.28 c 3.384,1.519 6.997,2.289 10.739,2.289 3.741,0 7.355,-0.77 10.739,-2.289 z m -29.489,-0.211 c -2.067,0 -3.75,-1.681 -3.75,-3.75 0,-2.067 1.683,-3.75 3.75,-3.75 2.069,0 3.75,1.683 3.75,3.75 0,2.069 -1.681,3.75 -3.75,3.75 z m 0,-10 c -3.446,0 -6.25,2.805 -6.25,6.25 0,3.446 2.804,6.25 6.25,6.25 3.446,0 6.25,-2.804 6.25,-6.25 0,-3.445 -2.804,-6.25 -6.25,-6.25 z m 37.5,10 c -2.067,0 -3.75,-1.681 -3.75,-3.75 0,-2.067 1.683,-3.75 3.75,-3.75 2.069,0 3.75,1.683 3.75,3.75 0,2.069 -1.681,3.75 -3.75,3.75 z m 0,-10 c -3.446,0 -6.25,2.805 -6.25,6.25 0,3.446 2.804,6.25 6.25,6.25 3.446,0 6.25,-2.804 6.25,-6.25 0,-3.445 -2.804,-6.25 -6.25,-6.25 z m -48.75,-13.75 c 0,-2.067 1.683,-3.75 3.75,-3.75 2.069,0 3.75,1.683 3.75,3.75 0,2.069 -1.681,3.75 -3.75,3.75 -2.067,0 -3.75,-1.681 -3.75,-3.75 z m 9.874,1.25 h 5.868 l -1.623,1.614 1.762,1.772 3.75,-3.727 c 0.236,-0.234 0.367,-0.551 0.369,-0.884 10e-4,-0.331 -0.129,-0.65 -0.364,-0.885 l -3.75,-3.771 -1.772,1.763 1.608,1.618 h -5.848 c -0.58,-2.849 -3.106,-5 -6.124,-5 -3.446,0 -6.25,2.805 -6.25,6.25 0,3.446 2.804,6.25 6.25,6.25 3.018,0 5.544,-2.15 6.124,-5 z m 47.626,2.5 c -2.067,0 -3.75,-1.681 -3.75,-3.75 0,-2.067 1.683,-3.75 3.75,-3.75 2.069,0 3.75,1.683 3.75,3.75 0,2.069 -1.681,3.75 -3.75,3.75 z m 0,-10 c -3.446,0 -6.25,2.805 -6.25,6.25 0,3.446 2.804,6.25 6.25,6.25 3.446,0 6.25,-2.804 6.25,-6.25 0,-3.445 -2.804,-6.25 -6.25,-6.25 z m -46.25,-17.5 c 2.069,0 3.75,1.683 3.75,3.75 0,2.069 -1.681,3.75 -3.75,3.75 -2.067,0 -3.75,-1.681 -3.75,-3.75 0,-2.067 1.683,-3.75 3.75,-3.75 z m 0,10 c 3.446,0 6.25,-2.804 6.25,-6.25 0,-3.445 -2.804,-6.25 -6.25,-6.25 -3.446,0 -6.25,2.805 -6.25,6.25 0,3.446 2.804,6.25 6.25,6.25 z m 37.5,-10 c 2.069,0 3.75,1.683 3.75,3.75 0,2.069 -1.681,3.75 -3.75,3.75 -2.067,0 -3.75,-1.681 -3.75,-3.75 0,-2.067 1.683,-3.75 3.75,-3.75 z m 0,10 c 3.446,0 6.25,-2.804 6.25,-6.25 0,-3.445 -2.804,-6.25 -6.25,-6.25 -3.446,0 -6.25,2.805 -6.25,6.25 0,3.446 2.804,6.25 6.25,6.25 z m -5.75,16.501 1.999,-1.501 h -4.999 v -2.5 h 5 l -1.999,-1.499 1.499,-2.001 5,3.749 c 0.315,0.236 0.5,0.606 0.5,1 0,0.393 -0.185,0.764 -0.499,1 l -5,3.751 z m -5.681,4.584 c -2.249,-0.87 -4.784,-1.305 -7.319,-1.305 -2.534,0 -5.069,0.435 -7.318,1.305 0.851,-2.179 1.309,-4.681 1.309,-7.335 0,-2.652 -0.458,-5.155 -1.309,-7.334 4.496,1.74 10.139,1.74 14.637,0 -0.853,2.179 -1.309,4.681 -1.309,7.334 0,2.654 0.456,5.156 1.309,7.335 z m 4.815,3.031 c -2.269,-2.269 -3.624,-6.144 -3.624,-10.366 0,-4.221 1.355,-8.096 3.624,-10.366 0.245,-0.244 0.366,-0.564 0.366,-0.884 0,-0.319 -0.121,-0.639 -0.366,-0.884 -0.488,-0.488 -1.279,-0.488 -1.768,0 -4.844,4.844 -15.889,4.844 -20.732,0 -0.488,-0.488 -1.279,-0.488 -1.768,0 -0.244,0.245 -0.366,0.565 -0.366,0.884 0,0.32 0.122,0.64 0.366,0.884 2.27,2.27 3.625,6.145 3.625,10.366 0,4.223 -1.355,8.098 -3.625,10.366 -0.244,0.245 -0.366,0.565 -0.366,0.884 0,0.32 0.122,0.64 0.366,0.884 0.489,0.489 1.28,0.489 1.768,0 4.844,-4.844 15.889,-4.844 20.732,0 0.245,0.245 0.564,0.366 0.884,0.366 0.32,0 0.64,-0.121 0.884,-0.366 0.245,-0.244 0.366,-0.564 0.366,-0.884 0,-0.319 -0.121,-0.639 -0.366,-0.884 z"/></g></svg>