<svg xmlns="http://www.w3.org/2000/svg" viewBox="0 0 100 100"><defs/><defs><linearGradient id="a" x1="0" x2="1" y1="1" y2="0"><stop offset="0%" stop-color="#1B660F"/><stop offset="100%" stop-color="#6CAE3E"/></linearGradient></defs><g><path fill="url(#a)" fill-rule="evenodd" d="m 0,0 h 100 v 100 h -100 z"/><path fill="#fff" fill-rule="evenodd" d="m 72.581,66.16 c 0.125,-0.01 12.419,-1.151 12.419,-13.513 0,-9.584 -7.496,-12.473 -11.021,-13.297 -0.539,-4.576 -2.946,-7.89 -6.547,-8.943 -2.625,-0.766 -5.377,-0.133 -7.465,1.615 -1.096,-2.466 -2.53,-4.598 -4.281,-6.352 -5.637,-5.656 -13.356,-7.19 -20.636,-4.106 -6.216,2.632 -10.902,9.9 -10.903,16.905 0,0.408 0.014,0.815 0.039,1.22 -3.396,1.12 -9.186,4.288 -9.186,12.855 0,0.459 0.016,0.902 0.051,1.33 0.611,7.805 4.664,12.285 11.12,12.29 h 13.516 v -2.427 h -13.515 c -6.829,-0.007 -8.338,-6.332 -8.628,-10.06 -0.03,-0.366 -0.044,-0.744 -0.044,-1.133 0,-7.405 5.112,-9.885 8.235,-10.708 0.013,-0.003 0.025,-0.005 0.037,-0.007 0.637,-0.129 1.071,-0.727 0.994,-1.375 -0.079,-0.649 -0.119,-1.318 -0.119,-1.985 0,-5.961 4.119,-12.375 9.377,-14.603 9.101,-3.856 15.542,1.212 17.892,3.569 1.913,1.917 3.405,4.369 4.436,7.285 0.154,0.436 0.536,0.751 0.994,0.82 0.453,0.069 0.916,-0.122 1.19,-0.494 1.495,-2.022 3.924,-2.905 6.194,-2.239 2.729,0.797 4.524,3.555 4.82,7.389 -0.1,0.673 0.354,1.302 1.024,1.418 2.985,0.512 9.926,2.616 9.926,11.033 0,10.035 -9.711,11.059 -10.02,11.09 h -4.043 v 2.427 z m -27.436,-7.423 h 5.446 c 0.371,0 0.722,0.164 0.96,0.449 0.237,0.284 0.336,0.66 0.27,1.024 l -2.399,13.194 13.038,-17.167 h -5.273 c -0.455,0 -0.874,-0.247 -1.093,-0.645 -0.22,-0.396 -0.208,-0.882 0.033,-1.267 l 6.617,-10.588 h -9.417 z m 2.112,20.833 c -0.17,0 -0.34,-0.034 -0.503,-0.106 -0.529,-0.232 -0.829,-0.799 -0.725,-1.368 l 3.065,-16.859 h -6.055 c -0.44,0 -0.849,-0.234 -1.075,-0.612 -0.225,-0.379 -0.234,-0.849 -0.023,-1.236 l 9.546,-17.5 c 0.219,-0.403 0.64,-0.651 1.098,-0.652 h 12.415 c 0.454,0 0.872,0.246 1.094,0.644 0.219,0.398 0.208,0.882 -0.035,1.268 l -6.617,10.588 h 5.538 c 0.475,0 0.909,0.269 1.119,0.694 0.211,0.426 0.164,0.934 -0.124,1.313 l -17.723,23.332 c -0.241,0.319 -0.614,0.494 -0.995,0.494 z"/></g></svg>