<svg xmlns="http://www.w3.org/2000/svg" viewBox="0 0 100 100"><defs/><defs><linearGradient id="a" x1="0" x2="1" y1="1" y2="0"><stop offset="0%" stop-color="#B0084D"/><stop offset="100%" stop-color="#FF4F8B"/></linearGradient></defs><g><path fill="url(#a)" fill-rule="evenodd" d="m 0,0 h 100 v 100 h -100 z"/><path fill="#fff" fill-rule="evenodd" d="m 68.824,58.472 c 0,-4.887 -4.002,-8.862 -8.921,-8.862 -4.919,0 -8.92,3.975 -8.921,8.862 0,4.887 4.001,8.862 8.921,8.862 4.919,0 8.921,-3.975 8.921,-8.862 m 2.513,0 c 0,6.263 -5.129,11.359 -11.434,11.358 -6.304,0 -11.433,-5.095 -11.434,-11.358 0,-6.263 5.129,-11.359 11.434,-11.359 6.305,0 11.435,5.095 11.434,11.359 m 10.55,17.12 -8.761,-7.839 c -0.707,0.99 -1.525,1.894 -2.433,2.701 l 8.748,7.838 c 0.746,0.669 1.907,0.607 2.582,-0.135 0.671,-0.741 0.611,-1.894 -0.136,-2.565 m -21.984,-3.515 c 7.553,0 13.698,-6.104 13.697,-13.605 0,-7.503 -6.144,-13.605 -13.697,-13.606 -7.552,0 -13.696,6.102 -13.697,13.606 0,7.502 6.144,13.605 13.697,13.605 m 23.987,7.751 c -0.857,0.942 -2.042,1.422 -3.229,1.422 -1.035,0 -2.073,-0.364 -2.902,-1.103 l -9.096,-8.149 c -2.529,1.623 -5.531,2.575 -8.76,2.575 -8.938,0 -16.209,-7.223 -16.21,-16.101 0,-8.878 7.272,-16.102 16.21,-16.102 8.939,0 16.211,7.223 16.21,16.102 0,2.548 -0.614,4.949 -1.68,7.092 l 9.137,8.174 c 1.774,1.594 1.917,4.324 0.32,6.09 m -57.29,-43.087 c 0,0.649 0.04,1.296 0.117,1.921 0.044,0.356 -0.067,0.711 -0.305,0.979 -0.19,0.213 -0.445,0.354 -0.724,0.402 -3.09,0.793 -8.175,3.192 -8.175,10.389 0,5.435 3.017,8.434 5.549,9.994 0.865,0.542 1.887,0.83 2.967,0.842 l 15.152,0.013 -0.002,2.497 -15.164,-0.014 c -1.557,-0.016 -3.035,-0.438 -4.285,-1.221 -2.509,-1.547 -6.73,-5.181 -6.73,-12.111 0,-8.354 5.75,-11.442 9.125,-12.533 -0.025,-0.384 -0.038,-0.771 -0.038,-1.158 0,-6.825 4.661,-13.904 10.841,-16.464 7.228,-3.008 14.885,-1.517 20.48,3.987 1.734,1.705 3.16,3.776 4.255,6.171 1.47,-1.209 3.282,-1.877 5.192,-1.877 3.753,0 7.978,2.83 8.73,9.018 3.515,0.805 10.941,3.619 10.941,12.952 0,3.727 -1.176,6.805 -3.497,9.149 l -1.792,-1.751 c 1.842,-1.86 2.776,-4.349 2.776,-7.398 0,-8.164 -6.881,-10.195 -9.842,-10.688 -0.337,-0.056 -0.635,-0.246 -0.826,-0.526 -0.187,-0.27 -0.259,-0.6 -0.203,-0.921 -0.411,-5.068 -3.442,-7.339 -6.287,-7.339 -1.796,0 -3.479,0.869 -4.621,2.384 -0.278,0.367 -0.729,0.554 -1.191,0.487 -0.456,-0.067 -0.839,-0.379 -0.996,-0.81 -1.029,-2.832 -2.512,-5.214 -4.407,-7.076 -4.849,-4.769 -11.48,-6.062 -17.744,-3.458 -5.213,2.159 -9.296,8.378 -9.296,14.16"/></g></svg>