<svg xmlns="http://www.w3.org/2000/svg" viewBox="0 0 100 100"><defs/><defs><linearGradient id="a" x1="0" x2="1" y1="1" y2="0"><stop offset="0%" stop-color="#055F4E"/><stop offset="100%" stop-color="#56C0A7"/></linearGradient></defs><g><path fill="url(#a)" fill-rule="evenodd" d="m 0,0 h 100 v 100 h -100 z"/><path fill="#fff" fill-rule="evenodd" d="m 63.24,39.404 c -0.726,0.725 -1.911,0.73 -2.643,0.007 l -4.718,-4.66 c -0.36,-0.354 -0.894,-0.456 -1.362,-0.265 -0.465,0.195 -0.767,0.65 -0.767,1.154 v 26.86 c 0,4.824 -3.925,8.75 -8.75,8.75 -4.824,0 -8.75,-3.926 -8.75,-8.75 0,-4.825 3.926,-8.75 8.75,-8.75 1.126,0 2.229,0.215 3.28,0.641 0.386,0.158 0.825,0.111 1.169,-0.121 0.345,-0.232 0.551,-0.621 0.551,-1.037 v -25.108 c 0,-0.89 0.626,-1.651 1.507,-1.832 0.027,-0.003 0.055,-0.006 0.077,-0.01 0.084,-0.013 0.168,-0.029 0.253,-0.033 0.022,0.001 0.043,0.003 0.063,0.003 h 0.012 c 0.501,0 0.97,0.193 1.323,0.542 l 10.007,9.946 c 0.356,0.354 0.552,0.825 0.554,1.328 0,0.501 -0.194,0.974 -0.556,1.335 z m -8.244,-14.384 c -0.816,-0.81 -1.897,-1.26 -3.044,-1.268 -0.289,-0.022 -0.527,0.024 -0.663,0.052 -0.05,0.003 -0.13,0.011 -0.179,0.02 -2.091,0.371 -3.61,2.179 -3.61,4.301 v 11.875 2.135 2.696 1.419 5.282 c -0.818,-0.189 -1.654,-0.283 -2.5,-0.282 -6.204,0 -11.25,5.046 -11.25,11.25 0,6.202 5.046,11.25 11.25,11.25 6.204,0 11.25,-5.048 11.25,-11.25 v -10 -3.024 -2.832 -0.394 -7.618 l 2.59,2.559 c 1.706,1.684 4.475,1.674 6.175,-0.026 0.828,-0.829 1.282,-1.93 1.281,-3.1 -0.003,-1.172 -0.461,-2.271 -1.291,-3.098 z m 27.504,19.394 c -6.255,5.364 -14.905,6.834 -22.5,4.005 v 2.641 c 2.555,0.849 5.202,1.28 7.845,1.28 5.188,0 10.331,-1.62 14.655,-4.744 v 32.404 c 0,1.379 -1.121,2.5 -2.5,2.5 h -60 c -1.378,0 -2.5,-1.121 -2.5,-2.5 v -23.399 l 1.776,-2.905 c 5.178,-8.476 15.149,-12.391 24.474,-10.126 v -2.549 c -9.984,-2.169 -20.518,1.975 -26.25,10.843 v -31.864 c 0,-1.379 1.123,-2.5 2.5,-2.5 h 60 c 1.379,0 2.5,1.121 2.5,2.5 z m -2.5,-29.414 h -60 c -2.757,0 -5,2.243 -5,5 v 60 c 0,2.756 2.243,5 5,5 h 60 c 2.757,0 5,-2.244 5,-5 v -60 c 0,-2.757 -2.243,-5 -5,-5 z"/></g></svg>