<svg xmlns="http://www.w3.org/2000/svg" viewBox="0 0 100 100"><defs/><defs><linearGradient id="a" x1="0" x2="1" y1="1" y2="0"><stop offset="0%" stop-color="#BD0816"/><stop offset="100%" stop-color="#FF5252"/></linearGradient></defs><g><path fill="url(#a)" fill-rule="evenodd" d="m 0,0 h 100 v 100 h -100 z"/><path fill="#fff" fill-rule="evenodd" d="m 19.375,51.25 c 0.344,0 0.625,0.28 0.625,0.625 0,0.345 -0.281,0.625 -0.625,0.625 -0.344,0 -0.625,-0.28 -0.625,-0.625 0,-0.345 0.281,-0.625 0.625,-0.625 z m 0,3.75 c 1.724,0 3.125,-1.403 3.125,-3.125 0,-1.722 -1.401,-3.125 -3.125,-3.125 -1.724,0 -3.125,1.403 -3.125,3.125 0,1.722 1.401,3.125 3.125,3.125 z m 0.625,-18.125 c 0,0.345 -0.281,0.625 -0.625,0.625 -0.344,0 -0.625,-0.28 -0.625,-0.625 0,-0.345 0.281,-0.625 0.625,-0.625 0.344,0 0.625,0.28 0.625,0.625 z m -2.5,0 c 0,1.034 0.841,1.875 1.875,1.875 1.034,0 1.875,-0.841 1.875,-1.875 0,-1.034 -0.841,-1.875 -1.875,-1.875 -1.034,0 -1.875,0.841 -1.875,1.875 z m 11.875,-9.375 c 0.344,0 0.625,0.28 0.625,0.625 0,0.345 -0.281,0.625 -0.625,0.625 -0.344,0 -0.625,-0.28 -0.625,-0.625 0,-0.345 0.281,-0.625 0.625,-0.625 z m 0,2.5 c 1.034,0 1.875,-0.841 1.875,-1.875 0,-1.034 -0.841,-1.875 -1.875,-1.875 -1.034,0 -1.875,0.841 -1.875,1.875 0,1.034 0.841,1.875 1.875,1.875 z m -4.375,14.375 c 0,0.345 -0.281,0.625 -0.625,0.625 -0.344,0 -0.625,-0.28 -0.625,-0.625 0,-0.345 0.281,-0.625 0.625,-0.625 0.344,0 0.625,0.28 0.625,0.625 z m -2.5,0 c 0,1.034 0.841,1.875 1.875,1.875 1.034,0 1.875,-0.841 1.875,-1.875 0,-1.034 -0.841,-1.875 -1.875,-1.875 -1.034,0 -1.875,0.841 -1.875,1.875 z m 6.875,-9.375 c 1.034,0 1.875,0.841 1.875,1.875 0,1.034 -0.841,1.875 -1.875,1.875 -1.034,0 -1.875,-0.841 -1.875,-1.875 0,-1.034 0.841,-1.875 1.875,-1.875 z m 0,6.25 c 2.413,0 4.375,-1.963 4.375,-4.375 0,-2.413 -1.963,-4.375 -4.375,-4.375 -2.413,0 -4.375,1.963 -4.375,4.375 0,2.413 1.963,4.375 4.375,4.375 z m -8.75,-17.5 c 1.034,0 1.875,0.841 1.875,1.875 0,1.034 -0.841,1.875 -1.875,1.875 -1.034,0 -1.875,-0.841 -1.875,-1.875 0,-1.034 0.841,-1.875 1.875,-1.875 z m 0,6.25 c 2.413,0 4.375,-1.963 4.375,-4.375 0,-2.413 -1.963,-4.375 -4.375,-4.375 -2.413,0 -4.375,1.963 -4.375,4.375 0,2.413 1.963,4.375 4.375,4.375 z m 15.259,-6.616 -1.768,-1.768 c 3.958,-3.958 10.36,-6.616 15.933,-6.616 5.516,0 11.88,2.659 15.835,6.616 l -1.768,1.768 c -3.464,-3.464 -9.246,-5.884 -14.067,-5.884 -4.875,0 -10.7,2.42 -14.165,5.884 z m 14.165,-2.134 c 4.269,0 8.217,1.5 10.835,4.115 l -1.768,1.77 c -2.12,-2.12 -5.51,-3.385 -9.067,-3.385 -3.621,0 -7.047,1.265 -9.165,3.384 l -1.768,-1.768 c 2.576,-2.577 6.662,-4.116 10.933,-4.116 z m 32.451,55.48 -2.465,1.241 v -11.71 l 2.465,1.862 z m -4.965,5.77 h -2.535 v -20 h 2.535 v 19.529 z m -55.035,-1.536 v -18.464 h 2.5 v 20 h -2.5 z m -5,-4.356 v -9.5 l 2.5,-0.965 v 11.321 z m 32.5,-36.608 c 6.33,0 12.369,2.421 16.566,6.64 3.856,3.879 5.964,9.064 5.934,14.61 v 21.25 h -45 l -0.001,-21.211 c 0.381,-12.136 10.054,-21.289 22.501,-21.289 z m -2.5,-6.25 c 0,-1.398 1.36,-1.691 2.5,-1.691 1.14,0 2.5,0.294 2.5,1.691 v 3.87 c -0.828,-0.076 -1.661,-0.12 -2.5,-0.12 -0.846,0 -1.68,0.04 -2.5,0.115 z m 37.5,33.127 -4.965,-3.75 v -3.127 h -5.089 c -0.271,-5.732 -2.574,-11.066 -6.607,-15.123 -3.534,-3.553 -8.23,-5.95 -13.339,-6.907 v -4.22 c 0,-2.546 -1.963,-4.191 -5,-4.191 -3.038,0 -5,1.645 -5,4.191 v 4.211 c -10.936,2.05 -19.004,10.774 -19.901,22.039 h -5.099 v 3.462 l -5,1.93 v 13 l 5,1.714 v 4.894 h 60.035 v -4.23 l 4.965,-2.5 z m -43.75,-9.377 c 1.379,0 2.5,1.121 2.5,2.5 0,1.379 -1.121,2.5 -2.5,2.5 -1.379,0 -2.5,-1.121 -2.5,-2.5 0,-1.379 1.121,-2.5 2.5,-2.5 z m 0,7.5 c 2.757,0 5,-2.243 5,-5 0,-2.757 -2.243,-5 -5,-5 -2.757,0 -5,2.243 -5,5 0,2.757 2.243,5 5,5 z m 17.5,-7.5 c 1.379,0 2.5,1.121 2.5,2.5 0,1.379 -1.121,2.5 -2.5,2.5 -1.379,0 -2.5,-1.121 -2.5,-2.5 0,-1.379 1.121,-2.5 2.5,-2.5 z m 0,7.5 c 2.757,0 5,-2.243 5,-5 0,-2.757 -2.243,-5 -5,-5 -2.757,0 -5,2.243 -5,5 0,2.757 2.243,5 5,5 z"/></g></svg>