<svg xmlns="http://www.w3.org/2000/svg" viewBox="0 0 100 100"><defs/><defs><linearGradient id="a" x1="0" x2="1" y1="1" y2="0"><stop offset="0%" stop-color="#C8511B"/><stop offset="100%" stop-color="#F90"/></linearGradient></defs><g><path fill="url(#a)" fill-rule="evenodd" d="m 0,0 h 100 v 100 h -100 z"/><path fill="#fff" fill-rule="evenodd" d="m 71.6,69.982 h -41.85 c -5.52,0 -11.899,-4.094 -12.225,-9.962 -0.003,-0.037 -0.004,-0.074 -0.006,-0.111 h 14.151 c 0.511,0 0.97,-0.314 1.16,-0.79 0.19,-0.478 0.073,-1.024 -0.297,-1.38 -0.619,-0.593 -0.959,-1.387 -0.959,-2.235 0,-1.709 1.379,-3.097 3.074,-3.097 1.696,0 3.075,1.389 3.075,3.097 0,0.847 -0.34,1.642 -0.959,2.235 -0.37,0.356 -0.488,0.901 -0.298,1.38 0.19,0.477 0.649,0.791 1.16,0.79 h 14.037 c -0.213,0.598 -0.324,1.233 -0.324,1.888 0,3.096 2.501,5.615 5.575,5.615 3.074,0 5.575,-2.519 5.575,-5.615 0,-0.655 -0.111,-1.289 -0.324,-1.888 h 20.326 c -0.295,9.077 -7.68,10.072 -10.891,10.073 z m -45.776,-21.151 c 0.613,-0.152 1.016,-0.742 0.942,-1.372 -0.077,-0.638 -0.114,-1.27 -0.114,-1.934 0,-5.778 4.112,-12.004 9.363,-14.175 2.99,-1.233 6.061,-1.593 8.985,-1.124 v 14.09 c 0,0.515 0.311,0.98 0.787,1.17 0.474,0.19 1.017,0.072 1.369,-0.304 1.222,-1.296 3.436,-1.214 4.57,0.136 0.595,0.709 0.838,1.614 0.681,2.549 -0.191,1.139 -1.056,2.116 -2.152,2.43 -1.137,0.324 -2.298,0.01 -3.099,-0.842 -0.352,-0.375 -0.896,-0.495 -1.369,-0.303 -0.476,0.19 -0.787,0.655 -0.787,1.17 v 7.069 h -5.1 c 0.213,-0.598 0.323,-1.233 0.323,-1.887 0,-3.096 -2.501,-5.615 -5.575,-5.615 -3.074,0 -5.574,2.519 -5.574,5.615 0,0.655 0.11,1.289 0.322,1.887 h -11.776 c 0.801,-5.826 5.374,-7.858 8.204,-8.56 z m 21.676,-17.992 c 2.335,0.781 4.524,2.12 6.435,3.993 1.866,1.823 3.395,4.268 4.423,7.07 0.159,0.432 0.537,0.742 0.987,0.81 0.455,0.07 0.904,-0.117 1.18,-0.481 1.154,-1.523 2.869,-2.397 4.703,-2.397 2.705,0 5.982,1.998 6.312,7.63 0.034,0.57 0.445,1.048 1.001,1.159 4.106,0.831 8.925,3.039 9.814,8.768 h -22.462 c -0.511,0 -0.971,0.314 -1.162,0.791 -0.189,0.478 -0.073,1.024 0.298,1.38 0.619,0.593 0.96,1.387 0.96,2.235 0,1.709 -1.38,3.097 -3.075,3.097 -1.695,0 -3.075,-1.389 -3.075,-3.097 0,-0.847 0.34,-1.642 0.96,-2.235 0.369,-0.356 0.486,-0.901 0.297,-1.38 -0.19,-0.477 -0.65,-0.791 -1.161,-0.791 h -6.435 v -4.784 c 1.081,0.39 2.277,0.443 3.438,0.112 2.037,-0.583 3.583,-2.323 3.935,-4.434 0.276,-1.653 -0.175,-3.326 -1.239,-4.593 -1.478,-1.76 -4.004,-2.436 -6.134,-1.662 z m 37.5,27.811 c 0,-0.091 -0.01,-0.18 -0.029,-0.264 -0.36,-6.144 -4.231,-10.372 -11.018,-12.027 -0.73,-6.237 -4.826,-9.044 -8.726,-9.043 -1.941,0 -3.782,0.677 -5.269,1.905 -1.107,-2.405 -2.567,-4.521 -4.28,-6.196 -5.624,-5.508 -13.328,-7.005 -20.612,-4.005 -6.221,2.574 -10.914,9.67 -10.914,16.505 0,0.393 0.011,0.777 0.034,1.157 -3.29,1.056 -8.814,3.985 -9.169,11.756 -0.011,0.069 -0.018,0.14 -0.017,0.212 0,0.042 0.003,0.082 0.006,0.124 -0.004,0.151 -0.006,0.303 -0.006,0.458 0,0.325 0.013,0.618 0.029,0.922 0.41,7.386 7.944,12.346 14.721,12.346 h 41.85 c 3.144,0 13.4,-0.948 13.4,-13.157 0,-0.183 -0.003,-0.364 -0.009,-0.543 0.006,-0.049 0.009,-0.098 0.009,-0.15 z"/></g></svg>