<svg xmlns="http://www.w3.org/2000/svg" viewBox="0 0 100 100"><defs/><defs><linearGradient id="a" x1="0" x2="1" y1="1" y2="0"><stop offset="0%" stop-color="#2E27AD"/><stop offset="100%" stop-color="#527FFF"/></linearGradient></defs><g><path fill="url(#a)" fill-rule="evenodd" d="m 0,0 h 100 v 100 h -100 z"/><path fill="#fff" fill-rule="evenodd" d="m 35,83.728 h 32.502 v -21.438 h -32.502 z m 33.752,-23.96 h -35.002 c -0.691,0 -1.25,0.565 -1.25,1.261 v 23.96 c 0,0.696 0.559,1.261 1.25,1.261 h 35.002 c 0.691,0 1.25,-0.565 1.25,-1.261 v -23.96 c 0,-0.696 -0.559,-1.261 -1.25,-1.261 z m -22.382,21.73 7.57,-17.339 2.288,1.017 -7.571,17.34 z m 14.301,-8.359 -4.257,-4.181 1.742,-1.808 5.308,5.211 c 0.261,0.257 0.399,0.618 0.375,0.986 -0.024,0.368 -0.206,0.707 -0.499,0.928 l -5.934,4.475 -1.496,-2.018 z m -21.433,-0.44 c -0.263,-0.257 -0.4,-0.617 -0.376,-0.985 0.024,-0.368 0.206,-0.707 0.499,-0.928 l 5.934,-4.476 1.497,2.019 -4.763,3.592 4.259,4.181 -1.742,1.809 z m 43.317,-28.886 c -2.399,-2.341 -5.59,-3.629 -8.987,-3.63 -4.428,0 -8.044,1.576 -10.285,4.201 -0.55,-12.085 -3.313,-21.808 -7.263,-26.438 14.138,2.136 24.869,12.582 27.242,26.564 -0.234,-0.235 -0.471,-0.467 -0.707,-0.697 z m -22.472,0.434 -0.448,-0.434 c -2.399,-2.341 -5.596,-3.629 -9.001,-3.63 -4.331,0 -7.857,1.458 -10.1,3.941 0.825,-15.888 5.694,-26.593 10.111,-26.602 0.007,0 0.013,0.001 0.021,0.001 4.489,0.026 9.443,11.104 10.137,27.436 -0.235,-0.236 -0.466,-0.468 -0.72,-0.712 z m -22.099,0.842 c -0.334,-0.348 -0.685,-0.694 -1.056,-1.057 l -0.226,-0.219 c -2.399,-2.341 -5.595,-3.629 -9.002,-3.63 -3.866,0 -7.127,1.172 -9.382,3.217 2.971,-13.395 13.474,-23.344 26.955,-25.448 -4.023,4.723 -6.815,14.729 -7.289,27.137 z m 12.675,-30.089 c -19.588,0 -34.906,14.927 -35.658,34.726 -0.018,0.472 0.248,0.899 0.634,1.136 l 12.803,8.418 1.365,-2.114 -12.111,-7.951 c 0.638,-2.698 2.609,-4.73 5.442,-5.759 1.345,-0.488 2.884,-0.751 4.566,-0.75 2.754,0 5.334,1.037 7.264,2.92 l 0.226,0.221 c 1.724,1.68 2.745,4.748 2.746,4.759 0.009,0.077 1.711,6.444 1.711,6.444 l 2.411,-0.659 -1.622,-6.046 0.01,-0.154 c 0.605,-5.52 5.659,-7.486 10.188,-7.485 2.754,0 5.333,1.037 7.262,2.92 0,0 2.725,2.093 2.925,4.559 l 0.012,0.168 -1.639,6.034 2.412,0.667 1.706,-6.288 c 0.01,-0.047 0.014,-0.101 0.02,-0.155 0.339,-4.817 4.353,-7.906 10.236,-7.905 2.744,0 5.318,1.037 7.248,2.92 1.5,1.463 2.558,2.57 2.851,3.658 l -10.799,7.586 1.429,2.07 11.419,-8.022 c 0.311,-0.246 0.535,-1.131 0.534,-1.18 -0.35,-19.804 -15.628,-34.725 -35.591,-34.738 z"/></g></svg>