<svg xmlns="http://www.w3.org/2000/svg" viewBox="0 0 100 100"><defs/><defs><linearGradient id="a" x1="0" x2="1" y1="1" y2="0"><stop offset="0%" stop-color="#2E27AD"/><stop offset="100%" stop-color="#527FFF"/></linearGradient></defs><g><path fill="url(#a)" fill-rule="evenodd" d="m 0,0 h 100 v 100 h -100 z"/><path fill="#fff" fill-rule="evenodd" d="m 40.569,59.83 1.588,1.93 -12.146,10.006 -7.815,-5.737 1.479,-2.015 6.247,4.586 z m -16.285,-34.254 c 0,-4.452 3.623,-8.076 8.076,-8.076 4.452,0 8.076,3.624 8.076,8.076 0,4.454 -3.624,8.078 -8.076,8.078 -4.454,0 -8.076,-3.624 -8.076,-8.078 z m 8.47,10.579 c 0.055,-0.007 4.756,-0.179 9.051,3.103 l 1.516,-1.988 c -1.807,-1.38 -3.668,-2.231 -5.322,-2.761 2.96,-1.876 4.938,-5.174 4.937,-8.933 0,-5.831 -4.745,-10.576 -10.576,-10.576 -5.831,0 -10.576,4.745 -10.576,10.576 0,3.821 2.042,7.165 5.087,9.024 -11.599,3.725 -11.87,17.095 -11.871,17.249 l 2.5,0.024 c 0.007,-0.624 0.351,-15.276 15.254,-15.718 z m 14.542,37.605 v -16.969 c 3.792,-3.091 8.462,-4.801 13.273,-4.801 3.927,0 7.775,1.116 11.126,3.23 6.225,3.922 10.214,10.944 10.611,18.54 z m -29.704,-0.583 v -15.707 l 13.603,-7.853 13.601,7.853 v 15.708 l -13.601,7.852 z m 30.917,-35.786 c 0,-6.671 5.427,-12.099 12.098,-12.098 6.67,0 12.098,5.427 12.098,12.098 0,6.671 -5.427,12.099 -12.098,12.099 -6.671,0 -12.099,-5.427 -12.098,-12.099 z m 36.33,37.619 c 0,-8.921 -4.525,-17.315 -11.81,-21.905 -1.853,-1.167 -3.84,-2.061 -5.908,-2.669 4.784,-2.399 8.084,-7.339 8.084,-13.045 0,-8.05 -6.548,-14.599 -14.598,-14.599 -8.05,0 -14.599,6.549 -14.598,14.599 0,5.7 3.291,10.635 8.067,13.038 -3.098,0.904 -6.001,2.462 -8.545,4.578 l -14.336,-8.277 -16.103,9.297 v 18.593 l 16.103,9.297 13.261,-7.657 h 40.383 z"/></g></svg>