<svg xmlns="http://www.w3.org/2000/svg" viewBox="0 0 100 100"><defs/><defs><linearGradient id="a" x1="0" x2="1" y1="1" y2="0"><stop offset="0%" stop-color="#055F4E"/><stop offset="100%" stop-color="#56C0A7"/></linearGradient></defs><g><path fill="url(#a)" fill-rule="evenodd" d="m 0,0 h 100 v 100 h -100 z"/><path fill="#fff" fill-rule="evenodd" d="m 59.021,57.593 c 0,0.45 0.177,0.873 0.498,1.19 0.643,0.638 1.762,0.638 2.403,0 0.321,-0.317 0.499,-0.741 0.499,-1.19 0,-0.45 -0.177,-0.873 -0.499,-1.191 -0.321,-0.318 -0.747,-0.494 -1.202,-0.494 -0.454,0 -0.88,0.176 -1.201,0.493 -0.32,0.318 -0.498,0.742 -0.498,1.192 z m -1.27,2.942 c -0.792,-0.786 -1.23,-1.831 -1.23,-2.942 0,-1.111 0.438,-2.157 1.23,-2.944 1.585,-1.572 4.353,-1.572 5.939,10e-4 0.794,0.786 1.231,1.831 1.231,2.943 0,1.111 -0.438,2.157 -1.231,2.943 -0.792,0.786 -1.847,1.218 -2.97,1.218 -1.121,0 -2.176,-0.432 -2.969,-1.219 z m -4.88,-3.323 0.509,3.193 2.274,-0.093 c 0.357,-0.011 0.688,0.119 0.936,0.363 l 1.016,1.011 c 0.246,0.244 0.379,0.579 0.364,0.924 l -0.091,2.258 3.22,0.505 0.607,-2.15 c 0.096,-0.336 0.33,-0.617 0.646,-0.774 l 1.325,-0.655 c 0.309,-0.154 0.669,-0.172 0.993,-0.053 l 2.101,0.772 1.481,-2.88 -1.881,-1.241 c -0.289,-0.191 -0.485,-0.492 -0.541,-0.833 l -0.234,-1.425 c -0.056,-0.343 0.035,-0.694 0.253,-0.967 l 1.41,-1.768 -2.307,-2.285 -1.78,1.396 c -0.276,0.216 -0.625,0.306 -0.978,0.252 l -1.434,-0.233 c -0.343,-0.056 -0.645,-0.25 -0.838,-0.537 l -1.256,-1.866 -2.905,1.466 0.779,2.08 c 0.12,0.322 0.101,0.679 -0.054,0.987 l -0.664,1.31 c -0.159,0.312 -0.44,0.544 -0.78,0.64 z m -1.786,4.67 -0.856,-5.371 c -0.1,-0.621 0.285,-1.215 0.896,-1.387 l 2.71,-0.754 0.171,-0.34 -0.976,-2.61 c -0.221,-0.59 0.039,-1.249 0.604,-1.535 l 4.888,-2.467 c 0.569,-0.285 1.254,-0.107 1.608,0.416 l 1.571,2.336 0.353,0.058 2.218,-1.742 c 0.499,-0.392 1.21,-0.351 1.66,0.095 l 3.88,3.845 c 0.448,0.444 0.489,1.151 0.098,1.644 l -1.758,2.204 0.059,0.355 2.354,1.553 c 0.527,0.348 0.709,1.035 0.42,1.595 l -2.493,4.843 c -0.288,0.561 -0.954,0.816 -1.547,0.599 l -2.638,-0.968 -0.342,0.17 -0.759,2.683 c -0.152,0.541 -0.651,0.904 -1.202,0.905 -0.065,0 -0.131,-0.005 -0.197,-0.015 l -5.417,-0.851 c -0.626,-0.099 -1.08,-0.647 -1.054,-1.275 l 0.115,-2.816 -0.244,-0.242 -2.836,0.116 c -0.569,0.021 -1.188,-0.422 -1.286,-1.044 z m 30.165,-17.113 -41.25,-0.011 v 26.008 l 20,0.011 c 0.644,0 1.206,0.227 1.724,0.693 l 8.276,7.847 v -6.062 c 0,-1.482 1.005,-2.478 2.5,-2.478 h 8.739 z m 2.5,-0.011 v 26.019 c 0,1.46 -1.027,2.478 -2.5,2.478 h -8.739 l -0.011,7.278 c 0,0.781 -0.463,1.487 -1.179,1.801 -0.254,0.112 -0.524,0.166 -0.792,0.166 -0.48,0 -0.954,-0.176 -1.324,-0.508 l -9.186,-8.71 -20.019,-0.027 c -1.495,0 -2.5,-0.996 -2.5,-2.478 v -26.019 c 0,-1.829 0.655,-2.478 2.5,-2.478 h 41.25 c 1.474,0.005 2.5,1.023 2.5,2.478 z m -38.75,-6.195 h 5 v -2.478 h -5 z m -21.25,0 h 18.75 v -2.478 h -18.75 z m 16.25,-6.195 h 13.75 v -2.478 h -13.75 z m -16.25,0 h 11.25 v -2.478 h -11.25 z m 25,-6.195 h 5 v -2.478 h -5 z m -25,0 h 22.5 v -2.478 h -22.5 z m 10.345,20.209 1.811,1.709 -7.527,7.834 c -0.459,0.408 -0.993,0.611 -1.509,0.611 -0.27,0 -0.534,-0.055 -0.783,-0.165 -0.67,-0.299 -1.087,-0.95 -1.087,-1.701 v -7.424 l -5,-0.01 c -1.472,0 -2.5,-1.018 -2.5,-2.478 v -24.78 c 0,-1.46 1.027,-2.478 2.5,-2.478 h 37.5 c 1.519,0 2.5,0.973 2.5,2.478 v 18.585 h -2.5 v -18.585 h -37.49 l -0.01,24.77 5,0.01 c 1.472,0 2.5,1.018 2.5,2.478 v 6.016 z"/></g></svg>