<svg xmlns="http://www.w3.org/2000/svg" viewBox="0 0 100 100"><defs/><defs><linearGradient id="a" x1="0" x2="1" y1="1" y2="0"><stop offset="0%" stop-color="#4D27A8"/><stop offset="100%" stop-color="#A166FF"/></linearGradient></defs><g><path fill="url(#a)" fill-rule="evenodd" d="m 0,0 h 100 v 100 h -100 z"/><path fill="#fff" fill-rule="evenodd" d="m 42.581,69.54 h 3.669 v -2.521 h -3.669 z m 6.169,0 h 3.75 v -2.521 h -3.75 z m -15,-51.253 -16.25,8.066 v 50.139 l 16.25,5.495 z m 2.5,15.955 v 32.777 h 3.75 v 2.521 h -3.75 v 14.199 c 0,0.406 -0.194,0.787 -0.52,1.024 -0.215,0.156 -0.471,0.237 -0.73,0.237 -0.133,0 -0.268,-0.021 -0.398,-0.066 l -18.75,-6.339 c -0.51,-0.173 -0.853,-0.654 -0.852,-1.196 v -51.832 c 0,-0.479 0.271,-0.919 0.699,-1.131 l 18.75,-9.306 c 0.386,-0.193 0.845,-0.17 1.211,0.061 0.366,0.229 0.59,0.634 0.59,1.07 v 15.459 h 3.75 v 2.522 z m 18.75,35.298 h 3.75 v -2.521 h -3.75 z m 0.081,-35.298 h 3.669 v -2.522 h -3.669 z m -6.25,0 h 3.669 v -2.522 h -3.669 z m -6.25,0 h 3.669 v -2.522 h -3.669 z m 39.919,-7.889 -16.25,-8.066 v 63.7 l 16.25,-5.495 z m 2.5,51.046 c 0,0.541 -0.343,1.022 -0.853,1.196 l -18.75,6.339 c -0.13,0.044 -0.265,0.066 -0.397,0.066 -0.259,0 -0.515,-0.081 -0.73,-0.237 -0.326,-0.237 -0.52,-0.618 -0.52,-1.024 v -14.199 h -2.419 v -2.521 h 2.419 v -32.777 h -2.419 v -2.522 h 2.419 v -15.459 c 0,-0.436 0.224,-0.841 0.59,-1.07 0.366,-0.231 0.824,-0.253 1.211,-0.061 l 18.75,9.306 c 0.428,0.212 0.699,0.652 0.699,1.131 z m -31.333,-35.141 -2.335,-0.905 -6.25,16.389 2.335,0.905 z m 8.467,8.003 c 0.489,-0.493 0.489,-1.291 0,-1.782 l -5,-5.043 -1.768,1.782 4.116,4.152 -4.116,4.151 1.768,1.783 z m -19.268,5.043 -5,-5.043 c -0.489,-0.493 -0.489,-1.291 0,-1.782 l 5,-5.043 1.768,1.782 -4.117,4.152 4.117,4.151 z"/></g></svg>