<svg xmlns="http://www.w3.org/2000/svg" viewBox="0 0 100 100"><defs/><defs><linearGradient id="a" x1="0" x2="1" y1="1" y2="0"><stop offset="0%" stop-color="#1B660F"/><stop offset="100%" stop-color="#6CAE3E"/></linearGradient></defs><g><path fill="url(#a)" fill-rule="evenodd" d="m 0,0 h 100 v 100 h -100 z"/><path fill="#fff" fill-rule="evenodd" d="m 32.5,26.25 c 2.067,0 3.75,1.683 3.75,3.75 0,2.067 -1.683,3.75 -3.75,3.75 -2.067,0 -3.75,-1.683 -3.75,-3.75 0,-2.067 1.683,-3.75 3.75,-3.75 z m 0,10 c 1.302,0 2.512,-0.403 3.515,-1.087 l 5.36,4.287 c -0.294,0.669 -0.568,1.349 -0.796,2.054 l 2.377,0.774 c 2.502,-7.686 9.334,-12.98 17.403,-13.483 l -0.157,-2.495 c -7.485,0.468 -14.02,4.595 -17.676,10.87 l -4.77,-3.816 c 0.621,-0.971 0.994,-2.117 0.994,-3.354 0,-3.446 -2.804,-6.25 -6.25,-6.25 -3.446,0 -6.25,2.804 -6.25,6.25 0,3.446 2.804,6.25 6.25,6.25 z m -10,17.5 c -2.067,0 -3.75,-1.683 -3.75,-3.75 0,-2.067 1.683,-3.75 3.75,-3.75 2.067,0 3.75,1.683 3.75,3.75 0,2.067 -1.683,3.75 -3.75,3.75 z m 6.122,-2.5 h 22.114 c 0.335,2.12 1.265,4.104 2.728,5.743 2.014,2.254 4.785,3.589 7.801,3.758 0.217,0.013 0.431,0.019 0.646,0.019 4.664,0 8.848,-2.843 10.545,-7.23 l -2.331,-0.902 c -1.384,3.576 -4.876,5.838 -8.719,5.617 -2.351,-0.133 -4.509,-1.171 -6.077,-2.927 -1.567,-1.756 -2.359,-4.018 -2.228,-6.369 0.134,-2.35 1.174,-4.508 2.929,-6.076 1.756,-1.569 4.037,-2.359 6.367,-2.228 3.853,0.217 7.084,2.871 8.044,6.604 l 2.421,-0.623 c -1.231,-4.791 -5.381,-8.199 -10.323,-8.477 -3.036,-0.174 -5.92,0.846 -8.174,2.859 -2.237,1.999 -3.564,4.741 -3.751,7.732 h -21.992 c -0.579,-2.849 -3.105,-5 -6.122,-5 -3.446,0 -6.25,2.804 -6.25,6.25 0,3.446 2.804,6.25 6.25,6.25 3.018,0 5.544,-2.151 6.122,-5 z m 52.497,-4.138 c -0.134,-2.117 -0.599,-4.174 -1.383,-6.111 l 2.318,-0.937 c 0.885,2.188 1.41,4.506 1.56,6.892 z m -0.399,5.352 2.444,0.526 c -0.607,2.826 -1.751,5.471 -3.398,7.861 l -2.058,-1.419 c 1.46,-2.119 2.474,-4.464 3.012,-6.968 z m -14.47,-1.214 h 17.5 v -2.5 h -17.5 z m -3.721,11.39 0.156,2.495 c -0.341,0.021 -0.681,0.033 -1.02,0.032 -7.346,0 -13.915,-4.959 -15.851,-12.115 l 2.412,-0.652 c 1.718,6.345 7.761,10.66 14.303,10.24 z m -1.706,-30.279 c 8.05,-0.494 15.219,4.834 17.023,12.693 l -2.436,0.56 c -1.53,-6.66 -7.616,-11.167 -14.431,-10.758 -6.589,0.411 -12.024,5.449 -12.924,11.978 l -2.475,-0.342 c 1.06,-7.702 7.47,-13.646 15.243,-14.131 z m -28.323,41.389 c -2.067,0 -3.75,-1.683 -3.75,-3.75 0,-2.067 1.683,-3.75 3.75,-3.75 2.067,0 3.75,1.683 3.75,3.75 0,2.067 -1.683,3.75 -3.75,3.75 z m 30.3,-5.878 c -7.778,0.485 -15.107,-3.686 -18.659,-10.631 l -2.226,1.14 c 0.309,0.604 0.654,1.182 1.013,1.75 l -6.189,5.304 c -1.116,-1.036 -2.599,-1.685 -4.239,-1.685 -3.446,0 -6.25,2.804 -6.25,6.25 0,3.446 2.804,6.25 6.25,6.25 3.446,0 6.25,-2.804 6.25,-6.25 0,-0.901 -0.2,-1.754 -0.546,-2.529 l 6.176,-5.294 c 4.154,5.16 10.459,8.234 17.193,8.234 0.459,0 0.921,-0.015 1.383,-0.044 4.414,-0.276 8.594,-1.844 12.085,-4.533 l -1.525,-1.98 c -3.095,2.384 -6.801,3.774 -10.716,4.018 z"/></g></svg>