<svg xmlns="http://www.w3.org/2000/svg" viewBox="0 0 100 100"><defs/><defs><linearGradient id="a" x1="0" x2="1" y1="1" y2="0"><stop offset="0%" stop-color="#055F4E"/><stop offset="100%" stop-color="#56C0A7"/></linearGradient></defs><g><path fill="url(#a)" fill-rule="evenodd" d="m 0,0 h 100 v 100 h -100 z"/><path fill="#fff" fill-rule="evenodd" d="m 62.5,73.75 h 7.5 v -37.5 h -7.5 z m -2.5,2.5 h 12.5 v -42.5 h -12.5 z m -16.25,-2.5 h 7.5 v -27.5 h -7.5 z m -2.5,2.5 h 12.5 v -32.5 h -12.5 z m -16.25,-2.5 h 7.5 v -16.25 h -7.5 z m -2.5,2.5 h 12.5 v -21.25 h -12.5 z m 55,-57.5 v 2.5 h 2.851 l -7.487,6.25 h -13.541 c -0.453,0 -0.87,0.245 -1.092,0.64 l -5.237,9.36 h -13.383 c -0.519,0 -0.984,0.321 -1.167,0.806 l -3.967,10.444 h -11.977 v 2.5 h 12.84 c 0.519,0 0.985,-0.321 1.169,-0.806 l 3.966,-10.444 h 13.25 c 0.454,0 0.871,-0.245 1.092,-0.64 l 5.238,-9.36 h 13.261 c 0.294,0 0.576,-0.103 0.801,-0.29 l 8.383,-6.997 v 3.537 h 2.5 v -7.5 z m 1.25,13.75 h 2.5 v 50 h -10 -56.25 v -62.5 h 53.75 v 2.5 h -51.25 v 57.5 h 53.75 7.5 z"/></g></svg>