<svg xmlns="http://www.w3.org/2000/svg" viewBox="0 0 100 100"><defs/><defs><linearGradient id="a" x1="0" x2="1" y1="1" y2="0"><stop offset="0%" stop-color="#1B660F"/><stop offset="100%" stop-color="#6CAE3E"/></linearGradient></defs><g><path fill="url(#a)" fill-rule="evenodd" d="m 0,0 h 100 v 100 h -100 z"/><path fill="#fff" fill-rule="evenodd" d="m 72.5,61.14 -5.998,-2.57 1.849,-1.098 c 0.966,0.786 2.184,1.278 3.524,1.278 1.51,0 2.877,-0.605 3.887,-1.578 l 2.634,1.442 z m -0.625,-11.14 c 1.724,0 3.125,1.401 3.125,3.125 0,1.722 -1.401,3.125 -3.125,3.125 -1.724,0 -3.125,-1.403 -3.125,-3.125 0,-1.724 1.401,-3.125 3.125,-3.125 z m -21.875,-5 c -4.824,0 -8.75,-3.925 -8.75,-8.75 0,-4.825 3.926,-8.75 8.75,-8.75 4.824,0 8.75,3.925 8.75,8.75 0,4.825 -3.926,8.75 -8.75,8.75 z m 3.75,18.75 c 0,2.067 -1.682,3.75 -3.75,3.75 -2.067,0 -3.75,-1.683 -3.75,-3.75 0,-2.067 1.682,-3.75 3.75,-3.75 2.067,0 3.75,1.683 3.75,3.75 z m -3.75,9.81 -6.103,-3.487 2.488,-1.243 c 1.024,0.73 2.266,1.17 3.615,1.17 1.349,0 2.591,-0.44 3.615,-1.17 l 2.487,1.243 z m -22.376,-12.42 -5.975,-2.522 2.634,-1.408 c 1.006,0.948 2.354,1.54 3.842,1.54 1.355,0 2.581,-0.501 3.554,-1.301 l 1.854,1.12 z m 0.501,-11.14 c 1.724,0 3.125,1.401 3.125,3.125 0,1.722 -1.401,3.125 -3.125,3.125 -1.724,0 -3.125,-1.403 -3.125,-3.125 0,-1.724 1.401,-3.125 3.125,-3.125 z m 53.725,7.652 -4.718,-2.581 c 0.226,-0.609 0.367,-1.26 0.368,-1.946 0,-3.103 -2.524,-5.625 -5.625,-5.625 -1.122,0 -2.165,0.339 -3.046,0.909 l -8.593,-7.519 c 0.645,-1.416 1.014,-2.985 1.014,-4.64 0,-6.204 -5.046,-11.25 -11.25,-11.25 -6.204,0 -11.25,5.046 -11.25,11.25 0,1.655 0.369,3.224 1.014,4.64 l -8.593,7.519 c -0.881,-0.57 -1.924,-0.909 -3.046,-0.909 -3.101,0 -5.625,2.522 -5.625,5.625 0,0.705 0.145,1.375 0.384,1.999 l -4.724,2.524 c -0.425,0.227 -0.681,0.679 -0.659,1.158 0.022,0.483 0.319,0.907 0.763,1.095 l 8.881,3.75 c 0.155,0.066 0.321,0.099 0.485,0.099 0.17,0 0.34,-0.035 0.5,-0.104 l 8.619,-3.75 c 0.429,-0.188 0.717,-0.597 0.748,-1.063 0.03,-0.466 -0.201,-0.911 -0.6,-1.153 l -3.671,-2.217 c 0.329,-0.715 0.524,-1.501 0.524,-2.338 0,-1.073 -0.317,-2.064 -0.84,-2.917 l 8.161,-7.14 c 1.819,2.375 4.554,4.011 7.679,4.358 v 10.2 c -2.849,0.581 -5,3.105 -5,6.124 0,1.157 0.337,2.228 0.887,3.159 l -3.946,1.972 c -0.412,0.206 -0.677,0.623 -0.691,1.084 -0.013,0.461 0.23,0.891 0.63,1.12 l 8.75,5 c 0.191,0.11 0.406,0.165 0.62,0.165 0.214,0 0.429,-0.055 0.62,-0.165 l 8.75,-5 c 0.4,-0.229 0.642,-0.659 0.63,-1.12 -0.014,-0.461 -0.279,-0.877 -0.691,-1.084 l -3.947,-1.972 c 0.55,-0.931 0.887,-2.001 0.888,-3.159 0,-3.019 -2.151,-5.543 -5,-6.124 v -10.2 c 3.125,-0.348 5.86,-1.984 7.679,-4.358 l 8.161,7.139 c -0.522,0.854 -0.84,1.845 -0.84,2.918 0,0.849 0.202,1.645 0.54,2.366 l -3.679,2.184 c -0.404,0.24 -0.639,0.688 -0.609,1.156 0.03,0.47 0.322,0.882 0.755,1.068 l 8.75,3.75 c 0.156,0.068 0.325,0.101 0.493,0.101 0.167,0 0.336,-0.034 0.492,-0.101 l 8.75,-3.75 c 0.44,-0.189 0.732,-0.611 0.756,-1.089 0.024,-0.479 -0.23,-0.926 -0.648,-1.158 z"/></g></svg>