<svg xmlns="http://www.w3.org/2000/svg" viewBox="0 0 100 100"><defs/><defs><linearGradient id="a" x1="0" x2="1" y1="1" y2="0"><stop offset="0%" stop-color="#C8511B"/><stop offset="100%" stop-color="#F90"/></linearGradient></defs><g><path fill="url(#a)" fill-rule="evenodd" d="m 0,0 h 100 v 100 h -100 z"/><path fill="#fff" fill-rule="evenodd" d="m 18.496,41.911 c -0.013,-0.229 -0.018,-0.469 -0.017,-0.713 0,-7.175 4.729,-9.908 7.617,-10.908 -0.016,-0.29 -0.022,-0.581 -0.022,-0.871 0,-5.943 3.946,-12.109 9.179,-14.342 6.125,-2.616 12.62,-1.316 17.363,3.481 1.412,1.428 2.579,3.147 3.484,5.127 1.755,-1.375 4.015,-1.855 6.174,-1.216 3.036,0.893 5.079,3.675 5.57,7.516 1.746,0.436 4.641,1.502 6.715,3.987 -0.459,-0.044 -0.921,-0.071 -1.39,-0.07 -0.737,0 -1.455,0.074 -2.163,0.182 -1.66,-1.166 -3.505,-1.639 -4.557,-1.822 -0.663,-0.115 -1.114,-0.735 -1.029,-1.404 -0.242,-3.104 -1.675,-5.332 -3.846,-5.971 -1.795,-0.528 -3.725,0.175 -4.911,1.795 -0.275,0.374 -0.737,0.565 -1.19,0.498 -0.458,-0.069 -0.84,-0.387 -0.994,-0.826 -0.845,-2.408 -2.066,-4.432 -3.633,-6.016 -1.921,-1.942 -7.186,-6.113 -14.619,-2.94 -4.293,1.832 -7.654,7.112 -7.653,12.021 0,0.539 0.03,1.079 0.092,1.605 0.007,0.059 0.013,0.118 0.013,0.178 0,0.606 -0.425,1.118 -0.999,1.237 -2.531,0.667 -6.701,2.688 -6.701,8.759 0,0.2 0.005,0.396 0.015,0.587 0.083,1.73 0.667,3.353 1.663,4.718 h -2.921 c -0.722,-1.406 -1.163,-2.959 -1.24,-4.592 z m 52.702,35.001 v -5.694 l 5.246,2.848 z m -0.658,-8.914 c -0.386,-0.21 -0.856,-0.199 -1.234,0.028 -0.378,0.227 -0.609,0.638 -0.608,1.082 v 9.915 c 0,0.444 0.231,0.854 0.608,1.081 0.198,0.118 0.419,0.179 0.642,0.179 0.204,0 0.408,-0.05 0.592,-0.151 l 9.133,-4.957 c 0.406,-0.219 0.659,-0.646 0.658,-1.109 0,-0.464 -0.253,-0.89 -0.658,-1.11 z m 2.629,15.732 c -5.145,0 -9.332,-4.22 -9.333,-9.407 0,-5.188 4.188,-9.408 9.333,-9.408 5.145,0 9.331,4.22 9.331,9.408 0,5.187 -4.186,9.407 -9.331,9.407 z m -55.669,-10.764 h 23.75 v -21.422 h -23.75 z m 55.669,-34.024 c 5.145,0 9.331,4.22 9.331,9.407 0,5.188 -4.186,9.408 -9.331,9.408 -5.145,0 -9.332,-4.22 -9.333,-9.408 0,-5.187 4.188,-9.407 9.333,-9.407 z m 0,23.452 c -5.965,0 -10.9,4.479 -11.704,10.272 l -17.715,-7.105 v -5.818 l 18.359,-7.194 c 1.69,4.509 6.004,7.728 11.06,7.728 6.524,0 11.831,-5.351 11.831,-11.928 0,-6.577 -5.308,-11.927 -11.831,-11.927 -6.524,0 -11.832,5.351 -11.833,11.927 0,0.595 0.057,1.173 0.142,1.744 l -17.728,6.946 v -6.756 c 0,-0.696 -0.559,-1.26 -1.25,-1.26 h -26.25 c -0.691,0 -1.25,0.565 -1.25,1.26 v 23.943 c 0,0.696 0.559,1.26 1.25,1.26 h 26.25 c 0.691,0 1.25,-0.565 1.25,-1.26 v -5.953 l 17.638,7.076 c 0.52,6.098 5.6,10.901 11.781,10.901 6.524,0 11.831,-5.351 11.831,-11.927 0,-6.578 -5.308,-11.928 -11.831,-11.929 z m -1.971,-16.674 5.246,2.848 -5.246,2.848 z m -1.892,8.888 c 0.198,0.118 0.419,0.178 0.642,0.178 0.204,0 0.408,-0.049 0.592,-0.15 l 9.133,-4.957 c 0.406,-0.221 0.659,-0.646 0.658,-1.111 0,-0.462 -0.253,-0.89 -0.658,-1.109 l -9.133,-4.958 c -0.386,-0.21 -0.856,-0.199 -1.234,0.028 -0.378,0.227 -0.609,0.639 -0.608,1.082 v 9.915 c 0,0.444 0.231,0.856 0.608,1.082 z m -43.056,4.118 7.203,4.033 -7.203,3.227 z m -1.931,10.255 c 0.206,0.135 0.444,0.204 0.681,0.204 0.173,0 0.345,-0.035 0.508,-0.108 l 11.25,-5.041 c 0.434,-0.194 0.721,-0.619 0.741,-1.096 0.021,-0.476 -0.226,-0.925 -0.643,-1.157 l -11.25,-6.3 c -0.385,-0.217 -0.859,-0.21 -1.24,0.015 -0.381,0.227 -0.616,0.64 -0.616,1.086 v 11.341 c 0,0.426 0.214,0.824 0.569,1.056 z"/></g></svg>