<svg xmlns="http://www.w3.org/2000/svg" viewBox="0 0 100 100"><defs/><defs><linearGradient id="a" x1="0" x2="1" y1="1" y2="0"><stop offset="0%" stop-color="#B0084D"/><stop offset="100%" stop-color="#FF4F8B"/></linearGradient></defs><g><path fill="url(#a)" fill-rule="evenodd" d="m 0,0 h 100 v 100 h -100 z"/><path fill="#fff" fill-rule="evenodd" d="m 68.75,78.75 h 10 v -10 h -10 z m -23.75,0 h 10 v -10 h -10 z m -23.75,0 h 10 v -10 h -10 z m 58.75,-12.5 h -5 v -6.25 c 0,-0.69 -0.56,-1.25 -1.25,-1.25 h -22.5 v -3.75 h -2.5 v 3.75 h -22.5 c -0.691,0 -1.25,0.56 -1.25,1.25 v 6.25 h -5 c -0.691,0 -1.25,0.56 -1.25,1.25 v 12.5 c 0,0.69 0.559,1.25 1.25,1.25 h 12.5 c 0.69,0 1.25,-0.56 1.25,-1.25 v -12.5 c 0,-0.69 -0.56,-1.25 -1.25,-1.25 h -5 v -5 h 21.25 v 5 h -5 c -0.691,0 -1.25,0.56 -1.25,1.25 v 12.5 c 0,0.69 0.559,1.25 1.25,1.25 h 12.5 c 0.69,0 1.25,-0.56 1.25,-1.25 v -12.5 c 0,-0.69 -0.56,-1.25 -1.25,-1.25 h -5 v -5 h 21.25 v 5 h -5 c -0.691,0 -1.25,0.56 -1.25,1.25 v 12.5 c 0,0.69 0.559,1.25 1.25,1.25 h 12.5 c 0.69,0 1.25,-0.56 1.25,-1.25 v -12.5 c 0,-0.69 -0.56,-1.25 -1.25,-1.25 z m -30,-44.806 11.25,6.495 -11.25,6.495 -11.25,-6.495 z m 1.25,28.145 v -12.99 l 11.25,-6.495 v 12.991 z m -13.75,-19.485 11.25,6.495 v 12.99 l -11.25,-6.494 z m -1.875,14.795 13.75,7.939 c 0.193,0.111 0.409,0.166 0.625,0.166 0.215,0 0.431,-0.055 0.625,-0.166 l 13.75,-7.939 c 0.386,-0.224 0.625,-0.636 0.625,-1.083 v -15.877 c 0,-0.446 -0.239,-0.859 -0.625,-1.082 l -13.75,-7.939 c -0.386,-0.224 -0.865,-0.224 -1.25,0 l -13.75,7.939 c -0.388,0.224 -0.625,0.636 -0.625,1.082 v 15.877 c 0,0.446 0.237,0.859 0.625,1.083 z"/></g></svg>