<svg xmlns="http://www.w3.org/2000/svg" viewBox="0 0 100 100"><defs/><defs><linearGradient id="a" x1="0" x2="1" y1="1" y2="0"><stop offset="0%" stop-color="#C8511B"/><stop offset="100%" stop-color="#F90"/></linearGradient></defs><g><path fill="url(#a)" fill-rule="evenodd" d="m 0,0 h 100 v 100 h -100 z"/><path fill="#fff" fill-rule="evenodd" d="m 85,48.756 h -14.209 l 6.972,-6.992 -1.754,-1.76 -9.628,9.655 9.628,9.654 1.754,-1.76 -6.291,-6.309 h 13.528 z m -62.43,-6.992 6.974,6.992 h -13.294 v 2.488 h 12.612 l -6.292,6.309 1.756,1.76 9.626,-9.654 -9.626,-9.655 z m 19.369,19.435 h 18.613 v -18.665 h -18.613 z m 20.906,-19.909 h 2.671 v 2.488 h -2.482 v 3.733 h 2.482 v 2.489 h -2.482 v 3.733 h 2.482 v 2.489 h -2.482 v 3.733 h 2.482 v 2.489 h -2.671 c -0.21,0.468 -0.584,0.845 -1.052,1.056 v 2.677 h -2.482 v -2.489 h -3.722 v 2.489 h -2.482 v -2.489 h -3.723 v 2.489 h -2.482 v -2.489 h -3.722 v 2.489 h -2.482 v -2.677 c -0.468,-0.212 -0.843,-0.589 -1.054,-1.056 h -2.669 v -2.489 h 2.482 v -3.733 h -2.482 v -2.489 h 2.482 v -3.733 h -2.482 v -2.489 h 2.482 v -3.733 h -2.482 v -2.488 h 2.669 c 0.211,-0.468 0.586,-0.845 1.054,-1.057 v -2.677 h 2.482 v 2.489 h 3.722 v -2.489 h 2.482 v 2.489 h 3.723 v -2.489 h 2.482 v 2.489 h 3.722 v -2.489 h 2.482 v 2.677 c 0.468,0.212 0.843,0.589 1.052,1.057 z m -10.979,38.947 v -12.816 h -2.482 v 12.816 l -6.632,-6.651 -1.755,1.759 9.628,9.655 9.628,-9.655 -1.755,-1.759 z m -9.114,-53.823 -1.755,-1.759 9.628,-9.655 9.628,9.655 -1.755,1.759 -6.632,-6.651 v 13.909 h -2.482 v -13.909 z"/></g></svg>