<svg xmlns="http://www.w3.org/2000/svg" viewBox="0 0 100 100"><defs/><defs><linearGradient id="a" x1="0" x2="1" y1="1" y2="0"><stop offset="0%" stop-color="#2E27AD"/><stop offset="100%" stop-color="#527FFF"/></linearGradient></defs><g><path fill="url(#a)" fill-rule="evenodd" d="m 0,0 h 100 v 100 h -100 z"/><path fill="#fff" fill-rule="evenodd" d="m 71.25,76.25 c 0,-2.033 -1.718,-3.75 -3.75,-3.75 -2.032,0 -3.75,1.718 -3.75,3.75 0,2.033 1.718,3.75 3.75,3.75 2.032,0 3.75,-1.718 3.75,-3.75 z m -21.25,-1.25 c -2.032,0 -3.75,1.718 -3.75,3.75 0,2.033 1.718,3.75 3.75,3.75 2.032,0 3.75,-1.718 3.75,-3.75 0,-2.033 -1.718,-3.75 -3.75,-3.75 z m -17.5,-2.5 c -2.032,0 -3.75,1.718 -3.75,3.75 0,2.033 1.718,3.75 3.75,3.75 2.032,0 3.75,-1.718 3.75,-3.75 0,-2.033 -1.718,-3.75 -3.75,-3.75 z m 3.256,-18.751 h 28.488 l -9.57,-8.611 -3.863,3.31 c -0.232,0.201 -0.524,0.301 -0.812,0.301 -0.289,0 -0.58,-0.1 -0.813,-0.301 l -3.861,-3.31 z m -2.006,-18.532 v 16.976 l 9.661,-8.695 z m 30.371,-1.468 h -28.242 l 14.12,12.104 z m 2.129,18.444 v -16.976 l -9.661,8.28 z m 7.5,24.057 c 0,3.388 -2.862,6.25 -6.25,6.25 -3.388,0 -6.25,-2.863 -6.25,-6.25 0,-2.961 2.188,-5.52 5,-6.118 v -3.882 h -15 v 6.382 c 2.813,0.598 5,3.156 5,6.118 0,3.388 -2.862,6.25 -6.25,6.25 -3.388,0 -6.25,-2.863 -6.25,-6.25 0,-2.961 2.188,-5.52 5,-6.118 v -6.382 h -15 v 3.882 c 2.813,0.598 5,3.156 5,6.118 0,3.388 -2.862,6.25 -6.25,6.25 -3.388,0 -6.25,-2.863 -6.25,-6.25 0,-2.961 2.188,-5.52 5,-6.118 v -5.132 c 0,-0.69 0.559,-1.25 1.25,-1.25 h 16.25 v -7.501 h -16.25 c -0.691,0 -1.25,-0.56 -1.25,-1.25 v -22.5 c 0,-0.69 0.559,-1.25 1.25,-1.25 h 35 c 0.691,0 1.25,0.56 1.25,1.25 v 22.5 c 0,0.69 -0.559,1.25 -1.25,1.25 h -16.25 v 7.501 h 16.25 c 0.691,0 1.25,0.56 1.25,1.25 v 5.132 c 2.813,0.598 5,3.156 5,6.118 z m 11.25,-26.251 c 0,7.384 -2.279,14.45 -6.591,20.432 l -2.029,-1.463 c 4.004,-5.554 6.12,-12.113 6.12,-18.969 0,-17.919 -14.579,-32.499 -32.499,-32.499 -17.921,0 -32.501,14.58 -32.501,32.499 0,6.856 2.116,13.415 6.12,18.969 l -2.029,1.463 c -4.313,-5.981 -6.591,-13.048 -6.591,-20.432 0,-19.298 15.701,-34.999 34.999,-34.999 19.299,0 35.001,15.702 35.001,34.999 z"/></g></svg>