<svg xmlns="http://www.w3.org/2000/svg" viewBox="0 0 100 100"><defs/><defs><linearGradient id="a" x1="0" x2="1" y1="1" y2="0"><stop offset="0%" stop-color="#4D27A8"/><stop offset="100%" stop-color="#A166FF"/></linearGradient></defs><g><path fill="url(#a)" fill-rule="evenodd" d="m 0,0 h 100 v 100 h -100 z"/><path fill="#fff" fill-rule="evenodd" d="m 51.973,65.961 c 0,-1.083 -0.881,-1.964 -1.964,-1.964 -1.084,0 -1.965,0.881 -1.965,1.964 0,1.084 0.881,1.965 1.965,1.965 1.083,0 1.964,-0.881 1.964,-1.965 z m 2.5,0 c 0,2.025 -1.364,3.72 -3.214,4.265 v 3.771 h -2.5 v -3.771 c -1.851,-0.545 -3.215,-2.24 -3.215,-4.265 0,-2.461 2.004,-4.464 4.465,-4.464 2.46,0 4.464,2.002 4.464,4.464 z m 8.036,10.536 v -5 h -3.75 v -2.5 h 3.75 v -5 h -3.75 v -2.5 h 3.75 v -3.75 h -25 v 18.75 z m -21.25,-21.25 h 17.5 l 10e-4,-7.5 c 0,-4.293 -4.536,-6.249 -8.751,-6.25 h -0.005 c -2.329,0 -4.576,0.606 -6.166,1.665 -1.711,1.139 -2.579,2.681 -2.579,4.585 z m 23.75,1.25 v 21.25 c 0,0.69 -0.56,1.25 -1.25,1.25 h -27.5 c -0.691,0 -1.25,-0.56 -1.25,-1.25 v -21.25 c 0,-0.691 0.559,-1.25 1.25,-1.25 h 2.5 v -7.5 c 0,-2.714 1.313,-5.081 3.694,-6.666 2.019,-1.344 4.701,-2.084 7.55,-2.084 h 0.006 c 5.59,10e-4 11.251,3.008 11.251,8.75 l -10e-4,7.5 h 2.5 c 0.69,0 1.25,0.559 1.25,1.25 z m 20,-2.5 c 0,3.708 -1.116,6.692 -3.316,8.874 -3.583,3.554 -8.748,3.633 -9.19,3.632 h -0.025 l -4.97,-0.006 0.002,-2.5 4.98,0.006 h 0.002 c 0.085,0 4.554,-0.029 7.455,-2.921 1.7,-1.694 2.563,-4.077 2.562,-7.085 0,-9.055 -8.506,-10.976 -10.211,-11.269 -0.334,-0.056 -0.63,-0.246 -0.82,-0.526 -0.193,-0.279 -0.261,-0.623 -0.194,-0.955 0.7,-3.441 -1.321,-5.679 -3.449,-6.625 -2.107,-0.936 -5.14,-0.91 -6.821,1.366 -0.274,0.372 -0.734,0.564 -1.19,0.494 -0.458,-0.069 -0.84,-0.384 -0.995,-0.82 -0.85,-2.41 -2.39,-4.71 -4.705,-7.032 -3.678,-3.688 -10.76,-6.814 -18.629,-3.482 -5.705,2.416 -9.236,9.595 -9.236,14.86 0,0.231 -0.007,0.521 -0.017,0.834 -0.018,0.609 -0.037,1.368 0.01,1.76 0.077,0.647 -0.355,1.245 -0.994,1.375 -0.014,0.003 -0.026,0.004 -0.038,0.006 -5.26,1.379 -7.711,4.563 -7.711,10.014 l -0.005,0.394 c -0.004,0.27 -0.01,0.579 0.003,0.776 0.379,6.067 6.099,8.83 11.252,8.83 l 3.751,0.004 -0.002,2.5 -3.75,-0.004 c -8.964,0 -13.41,-5.791 -13.746,-11.172 -0.016,-0.246 -0.013,-0.633 -0.007,-0.973 l 0.004,-0.355 c 0,-6.279 2.929,-10.373 8.713,-12.184 10e-4,-0.345 0.011,-0.704 0.021,-1.041 0.009,-0.286 0.016,-0.552 0.016,-0.764 0,-6.196 4.025,-14.309 10.763,-17.162 7.418,-3.141 15.808,-1.565 21.372,4.019 2.024,2.029 3.524,4.067 4.549,6.185 2.256,-1.698 5.461,-2.022 8.409,-0.712 3.396,1.51 5.288,4.636 5.05,8.174 5.366,1.323 11.107,5.497 11.107,13.485 z"/></g></svg>