<svg xmlns="http://www.w3.org/2000/svg" viewBox="0 0 100 100"><defs/><defs><linearGradient id="a" x1="0" x2="1" y1="1" y2="0"><stop offset="0%" stop-color="#1B660F"/><stop offset="100%" stop-color="#6CAE3E"/></linearGradient></defs><g><path fill="url(#a)" fill-rule="evenodd" d="m 0,0 h 100 v 100 h -100 z"/><path fill="#fff" fill-rule="evenodd" d="m 67.291,43.701 c 2.032,-0.563 3.399,-2.376 3.399,-4.512 h -2.5 c 0,1.232 -0.844,1.904 -1.566,2.104 -0.945,0.263 -1.87,-0.169 -2.467,-1.159 -1.008,-1.678 -2.154,-2.001 -2.987,-1.96 -1.767,0.073 -3.108,1.864 -3.755,2.941 h -20.475 v 2.5 h 21.211 c 0.476,0 0.911,-0.27 1.121,-0.696 0.504,-1.022 1.487,-2.226 2.002,-2.248 0.106,-0.007 0.426,0.226 0.74,0.749 0.939,1.563 2.455,2.447 4.067,2.448 0.401,0 0.806,-0.054 1.21,-0.167 z m -15.331,25.613 c 0,-2.35 -1.893,-3.679 -3.77,-4.199 v 8.495 c 2.12,-0.273 3.77,-2.084 3.77,-4.296 z m -6.27,-7.578 v -7.475 c -1.389,0.724 -2.35,2.17 -2.35,3.853 0,1.742 1.046,2.915 2.35,3.622 z m 8.77,7.578 c 0,3.595 -2.768,6.545 -6.27,6.823 v 2.478 h -2.5 v -2.743 c -2.801,-0.85 -4.85,-3.466 -4.85,-6.558 h 2.5 c 0,1.683 0.961,3.129 2.35,3.852 v -8.7 c -2.954,-1.083 -4.85,-3.469 -4.85,-6.352 0,-3.093 2.049,-5.71 4.85,-6.559 v -1.69 h 2.5 v 1.425 c 3.502,0.279 6.27,3.229 6.27,6.824 h -2.5 c 0,-2.212 -1.65,-4.024 -3.77,-4.297 v 8.744 c 3.759,0.761 6.27,3.429 6.27,6.753 z m -19.253,-36.099 7.359,1.394 c 0.295,0.056 0.594,0.005 0.854,-0.144 0.205,-0.116 0.326,-0.186 2.507,-2.743 l 4.13,2.704 c 0.278,0.181 0.616,0.244 0.938,0.179 l 6.48,-1.341 -3.37,4.101 h -15.34 z m 20.454,6.194 5.994,-7.293 c 0.338,-0.409 0.379,-0.986 0.105,-1.439 -0.275,-0.454 -0.807,-0.683 -1.323,-0.578 l -9.442,1.953 -4.62,-3.025 c -0.529,-0.346 -1.231,-0.244 -1.639,0.237 -0.874,1.03 -1.844,2.156 -2.379,2.761 l -10.185,-1.93 c -0.527,-0.098 -1.05,0.143 -1.313,0.602 -0.266,0.459 -0.213,1.036 0.132,1.44 l 6.25,7.292 c 0.236,0.278 0.584,0.436 0.949,0.436 h 16.506 c 0.374,0 0.729,-0.168 0.965,-0.456 z m -1.377,7.956 c 0.083,0.06 0.173,0.126 0.272,0.197 2.655,1.916 10.732,7.749 10.733,18.132 0,9.898 -7.031,16.046 -18.349,16.046 -11.319,0 -18.35,-6.149 -18.35,-16.046 0,-10.382 8.079,-16.215 10.734,-18.132 0.099,-0.071 0.189,-0.138 0.272,-0.197 z m 13.505,18.329 c 0,-7.738 -3.96,-14.52 -11.772,-20.159 -0.234,-0.169 -0.419,-0.301 -0.54,-0.399 -0.221,-0.175 -0.496,-0.271 -0.777,-0.271 h -15.52 c -0.283,0 -0.557,0.096 -0.778,0.271 -0.122,0.098 -0.306,0.23 -0.541,0.399 -7.811,5.639 -11.771,12.421 -11.771,20.159 0,11.266 8.184,18.546 20.85,18.546 12.666,0 20.849,-7.28 20.849,-18.546 z m 16.346,-7.38 -9.471,4.556 -3.857,-9.776 1.629,-0.644 2.589,6.566 c 1.278,-3.359 1.927,-6.895 1.927,-10.54 0,-16.39 -13.334,-29.726 -29.726,-29.726 -16.391,0 -29.726,13.336 -29.726,29.726 0,4.014 0.786,7.907 2.335,11.571 l -2.303,0.974 c -1.68,-3.974 -2.532,-8.195 -2.532,-12.545 0,-17.77 14.456,-32.226 32.226,-32.226 17.77,0 32.226,14.456 32.226,32.226 0,3.831 -0.669,7.553 -1.971,11.096 l 5.895,-2.837 z"/></g></svg>